<svg width="24" height="24" viewBox="0 0 24 24" fill="none" xmlns="http://www.w3.org/2000/svg">
<path fill-rule="evenodd" clip-rule="evenodd" d="M7 2C5.89543 2 5 2.89543 5 4V9C5 9.55228 5.44772 10 6 10C6.55228 10 7 9.55228 7 9V4H12.5858L17 8.41422L17 20H7V17C7 16.4477 6.55228 16 6 16C5.44772 16 5 16.4477 5 17V20C5 21.1046 5.89543 22 7 22H17C18.1046 22 19 21.1046 19 20V8.41421C19 7.88378 18.7893 7.37507 18.4142 7L14 2.58579C13.6249 2.21071 13.1162 2 12.5858 2H7ZM10.7071 9.29289C10.3166 8.90237 9.68342 8.90237 9.29289 9.29289C8.90237 9.68342 8.90237 10.3166 9.29289 10.7071L10.5858 12H3C2.44772 12 2 12.4477 2 13C2 13.5523 2.44772 14 3 14H10.5858L9.29289 15.2929C8.90237 15.6834 8.90237 16.3166 9.29289 16.7071C9.68342 17.0976 10.3166 17.0976 10.7071 16.7071L13.7063 13.7079L13.7067 13.7075L13.7071 13.7071C13.9 13.5142 13.9976 13.2621 14 13.0092M13.7064 12.2922L13.7063 12.2921L10.7071 9.29289M13.7064 12.2922C13.7088 12.2946 13.7112 12.297 13.7136 12.2995L13.7064 12.2922ZM13.7136 12.2995C13.8063 12.3938 13.8764 12.502 13.9241 12.6172L13.7136 12.2995ZM13.9241 12.6172C13.9719 12.7324 13.9988 12.8585 14 12.9908L13.9241 12.6172Z" fill="currentColor"/>
</svg>
