<svg width="32" height="32" viewBox="0 0 32 32" fill="none" xmlns="http://www.w3.org/2000/svg">
<path fill-rule="evenodd" clip-rule="evenodd" d="M9 3C7.89543 3 7 3.89543 7 5V9C7 9.55228 7.44772 10 8 10C8.55228 10 9 9.55228 9 9V5H16.5858L23 11.4142V27H9V25C9 24.4477 8.55228 24 8 24C7.44772 24 7 24.4477 7 25V27C7 28.1046 7.89543 29 9 29H23C24.1046 29 25 28.1046 25 27V11.4142C25 10.8838 24.7893 10.3751 24.4142 10L18 3.58579C17.6249 3.21071 17.1162 3 16.5858 3H9ZM18 16C18.5523 16 19 16.4477 19 17C19 17.5523 18.5523 18 18 18H7.08072L9.37361 20.2929C9.76413 20.6834 9.76413 21.3166 9.37361 21.7071C8.98309 22.0976 8.34992 22.0976 7.9594 21.7071L3.96071 17.7084C3.96027 17.708 3.95983 17.7075 3.9594 17.7071C3.76414 17.5118 3.6665 17.2559 3.6665 17C3.6665 16.7441 3.76413 16.4882 3.9594 16.2929C3.95979 16.2925 3.96018 16.2921 3.96057 16.2917L7.9594 12.2929C8.34992 11.9024 8.98309 11.9024 9.37361 12.2929C9.76413 12.6834 9.76413 13.3166 9.37361 13.7071L7.08072 16H18Z" fill="currentColor"/>
</svg>
