<svg width="32" height="32" viewBox="0 0 32 32" fill="none" xmlns="http://www.w3.org/2000/svg">
<path fill-rule="evenodd" clip-rule="evenodd" d="M9 3C7.89543 3 7 3.89543 7 5V12C7 12.5523 7.44772 13 8 13C8.55228 13 9 12.5523 9 12V5H16.5858L23 11.4142V27H9V22C9 21.4477 8.55228 21 8 21C7.44772 21 7 21.4477 7 22V27C7 28.1046 7.89543 29 9 29H23C24.1046 29 25 28.1046 25 27V11.4142C25 10.8838 24.7893 10.3751 24.4142 10L18 3.58579C17.6249 3.21071 17.1162 3 16.5858 3H9ZM4 16C3.44772 16 3 16.4477 3 17C3 17.5523 3.44772 18 4 18H14.9193L12.6264 20.2929C12.2359 20.6834 12.2359 21.3166 12.6264 21.7071C13.0169 22.0976 13.6501 22.0976 14.0406 21.7071L18.0394 17.7083C18.0398 17.7079 18.0402 17.7075 18.0406 17.7071C18.0894 17.6583 18.1321 17.6057 18.1687 17.5502C18.425 17.1621 18.3823 16.6346 18.0406 16.2929C18.0401 16.2924 18.0396 16.2919 18.0392 16.2915L14.0406 12.2929C13.6501 11.9024 13.0169 11.9024 12.6264 12.2929C12.2359 12.6834 12.2359 13.3166 12.6264 13.7071L14.9193 16H4Z" fill="currentColor"/>
</svg>
