<svg width="24" height="24" viewBox="0 0 24 24" fill="none" xmlns="http://www.w3.org/2000/svg">
<path fill-rule="evenodd" clip-rule="evenodd" d="M7 2C5.89543 2 5 2.89543 5 4V7C5 7.55228 5.44772 8 6 8C6.55228 8 7 7.55228 7 7V4H12.5858L17 8.41422L17 20H7V19C7 18.4477 6.55228 18 6 18C5.44772 18 5 18.4477 5 19V20C5 21.1046 5.89543 22 7 22H17C18.1046 22 19 21.1046 19 20V8.41421C19 7.88378 18.7893 7.37507 18.4142 7L14 2.58579C13.6249 2.21071 13.1162 2 12.5858 2H7ZM5.29289 9.29289C5.68342 8.90237 6.31658 8.90237 6.70711 9.29289C7.09763 9.68342 7.09763 10.3166 6.70711 10.7071L5.41421 12H13C13.5523 12 14 12.4477 14 13C14 13.5523 13.5523 14 13 14H5.41421L6.70711 15.2929C7.09763 15.6834 7.09763 16.3166 6.70711 16.7071C6.31658 17.0976 5.68342 17.0976 5.29289 16.7071L2.29361 13.7078L2.2932 13.7074L2.29289 13.7071C2.19702 13.6112 2.12468 13.5007 2.07588 13.3828C2.02699 13.2649 2 13.1356 2 13C2 12.8644 2.02699 12.7351 2.07588 12.6172C2.12357 12.502 2.19374 12.3938 2.2864 12.2995C2.28891 12.2969 2.29144 12.2943 2.29399 12.2918M5.29289 9.29289L2.29399 12.2918L5.29289 9.29289Z" fill="currentColor"/>
</svg>
