<svg width="17" height="16" viewBox="0 0 17 16" fill="none" xmlns="http://www.w3.org/2000/svg">
<path fill-rule="evenodd" clip-rule="evenodd" d="M9.83331 4.33333C9.83331 3.78104 9.3856 3.33333 8.83331 3.33333C8.28103 3.33333 7.83331 3.78104 7.83331 4.33333L7.83331 6.66666H4.83331C4.28103 6.66666 3.83331 7.11438 3.83331 7.66666C3.83331 8.21895 4.28103 8.66666 4.83331 8.66666H7.83331L7.83331 11.6667C7.83331 12.2189 8.28103 12.6667 8.83331 12.6667C9.3856 12.6667 9.83331 12.2189 9.83331 11.6667V8.66666H12.1666C12.7189 8.66666 13.1666 8.21895 13.1666 7.66666C13.1666 7.11438 12.7189 6.66666 12.1666 6.66666H9.83331V4.33333Z" fill="currentColor"/>
</svg>
