<svg width="24" height="25" viewBox="0 0 24 25" fill="none" xmlns="http://www.w3.org/2000/svg">
<path fill-rule="evenodd" clip-rule="evenodd" d="M6 10.882C6 7.62113 8.67585 4.95889 12 4.95889C15.3242 4.95889 18 7.62113 18 10.882C18 11.5352 17.7048 12.4492 17.1323 13.5506C16.5736 14.6252 15.8098 15.7687 15.0058 16.8488C13.8876 18.351 12.7236 19.6883 12 20.4881C11.2764 19.6883 10.1124 18.351 8.99422 16.8488C8.19018 15.7687 7.42637 14.6252 6.86772 13.5506C6.2952 12.4492 6 11.5352 6 10.882ZM12 2.95889C7.59217 2.95889 4 6.49579 4 10.882C4 12.0282 4.48005 13.2936 5.09317 14.473C5.72017 15.6792 6.55239 16.9179 7.3899 18.043C9.06637 20.2952 10.8303 22.1797 11.2052 22.5746C11.6385 23.0309 12.3615 23.0309 12.7948 22.5746C13.1697 22.1797 14.9336 20.2952 16.6101 18.043C17.4476 16.9179 18.2798 15.6792 18.9068 14.473C19.5199 13.2936 20 12.0282 20 10.882C20 6.49579 16.4078 2.95889 12 2.95889ZM10 10.9589C10 9.85432 10.8954 8.95889 12 8.95889C13.1046 8.95889 14 9.85432 14 10.9589C14 12.0635 13.1046 12.9589 12 12.9589C10.8954 12.9589 10 12.0635 10 10.9589ZM12 6.95889C9.79086 6.95889 8 8.74975 8 10.9589C8 13.168 9.79086 14.9589 12 14.9589C14.2091 14.9589 16 13.168 16 10.9589C16 8.74975 14.2091 6.95889 12 6.95889Z" fill="currentColor"/>
</svg>
