<svg width="18" height="19" viewBox="0 0 18 19" fill="none" xmlns="http://www.w3.org/2000/svg">
<path fill-rule="evenodd" clip-rule="evenodd" d="M9.02076 2.20518C9.00801 2.19805 8.99197 2.19805 8.97922 2.20518C6.28529 3.7116 3.35468 4.82477 2.04025 5.29352C2.23297 7.46987 3.29488 13.6137 8.99999 16.8998C14.7051 13.6137 15.767 7.46988 15.9597 5.29352C14.6453 4.82478 11.7147 3.71162 9.02076 2.20518ZM8.00309 0.459562C8.6224 0.11325 9.37759 0.113252 9.9969 0.459566C12.5594 1.89248 15.3835 2.96534 16.6512 3.41673C17.4368 3.69646 18.0366 4.464 17.9581 5.39843C17.767 7.67558 16.6501 14.8263 9.96038 18.6546C9.36696 18.9942 8.63303 18.9942 8.03961 18.6546C1.34985 14.8263 0.233038 7.67558 0.0418761 5.39842C-0.0365662 4.464 0.563198 3.69646 1.34878 3.41673C2.61647 2.96534 5.44064 1.89246 8.00309 0.459562Z" fill="currentColor"/>
<path fill-rule="evenodd" clip-rule="evenodd" d="M13.8794 11.9861C13.6296 11.5232 13.2987 11.1183 12.9199 10.7758C12.7958 10.6636 12.6666 10.5581 12.5333 10.4594C12.1174 10.1513 11.655 9.90254 11.1713 9.71577L11.1692 9.71495C11.6623 9.25462 12.0091 8.63975 12.1327 7.94752C12.1654 7.76442 12.1824 7.5759 12.1824 7.3834C12.1824 5.6221 10.7546 4.19428 8.99332 4.19428C7.23202 4.19428 5.8042 5.6221 5.8042 7.3834C5.8042 7.5759 5.82125 7.76441 5.85393 7.94751C5.97077 8.60208 6.2873 9.18748 6.73827 9.63845C6.76422 9.6644 6.79061 9.6899 6.81743 9.71495C6.37019 9.88745 5.94108 10.1129 5.55008 10.3893C5.51755 10.4123 5.48529 10.4357 5.45329 10.4594C5.31997 10.5582 5.19073 10.6637 5.0667 10.7758C5.06629 10.7762 5.06711 10.7755 5.0667 10.7758C4.69084 11.1159 4.36267 11.517 4.11389 11.9744C4.52584 12.692 5.01781 13.4069 5.60529 14.0912C5.61174 14.0453 5.61507 13.9984 5.61507 13.9508C5.61507 13.5192 5.73567 13.1287 5.95646 12.7843C6.03647 12.6595 6.12965 12.5407 6.23501 12.4282C6.35576 12.2992 6.49252 12.1785 6.64383 12.0664C6.67652 12.0422 6.70987 12.0184 6.74382 11.9952C7.39268 11.5499 8.22857 11.3022 8.99332 11.3022C9.79797 11.3022 10.6814 11.5764 11.3428 12.0664C11.4238 12.1264 11.5005 12.1888 11.5729 12.2537C11.7422 12.4053 11.8875 12.5701 12.006 12.7473C12.2421 13.1007 12.3716 13.5037 12.3716 13.9508C12.3716 14.003 12.3756 14.0544 12.3833 14.1045C12.9727 13.4199 13.4662 12.7044 13.8794 11.9861ZM7.8042 7.3834C7.8042 6.72667 8.33659 6.19428 8.99332 6.19428C9.65005 6.19428 10.1824 6.72667 10.1824 7.3834C10.1824 8.04014 9.65005 8.57253 8.99332 8.57253C8.33659 8.57253 7.8042 8.04014 7.8042 7.3834Z" fill="currentColor"/>
</svg>
