<svg width="24" height="24" viewBox="0 0 24 24" fill="none" xmlns="http://www.w3.org/2000/svg">
<path fill-rule="evenodd" clip-rule="evenodd" d="M12 4C7.58172 4 4 7.58172 4 12C4 16.4183 7.58172 20 12 20C16.4183 20 20 16.4183 20 12C20 7.58172 16.4183 4 12 4ZM2 12C2 6.47715 6.47715 2 12 2C17.5228 2 22 6.47715 22 12C22 17.5228 17.5228 22 12 22C6.47715 22 2 17.5228 2 12ZM12 10.5C12.5523 10.5 13 10.9477 13 11.5V16C13 16.5523 12.5523 17 12 17C11.4477 17 11 16.5523 11 16V11.5C11 10.9477 11.4477 10.5 12 10.5ZM13 8C13 7.44772 12.5523 7 12 7C11.4477 7 11 7.44772 11 8V8.02C11 8.57228 11.4477 9.02 12 9.02C12.5523 9.02 13 8.57228 13 8.02V8Z" fill="currentColor"/>
</svg>
