<svg width="24" height="24" viewBox="0 0 24 24" fill="none" xmlns="http://www.w3.org/2000/svg">
<path fill-rule="evenodd" clip-rule="evenodd" d="M4 12C4 7.58172 7.58172 4 12 4C16.4183 4 20 7.58172 20 12C20 16.4183 16.4183 20 12 20C7.58172 20 4 16.4183 4 12ZM12 2C6.47715 2 2 6.47715 2 12C2 17.5228 6.47715 22 12 22C17.5228 22 22 17.5228 22 12C22 6.47715 17.5228 2 12 2ZM10.5991 6.75778C11.2185 6.52229 11.8872 6.44645 12.5436 6.53725C13.2 6.62805 13.823 6.88257 14.3552 7.27736C14.8874 7.67215 15.3118 8.19452 15.5891 8.79635C15.8664 9.39818 15.9878 10.0601 15.9421 10.7212C15.8965 11.3823 15.6852 12.0212 15.3277 12.5792C14.9703 13.1372 14.4781 13.5962 13.8967 13.9141C13.3153 14.2319 12.6632 14.3983 12.0005 14.398C11.4482 14.3977 11.0008 13.9498 11.001 13.3975C11.0013 12.8452 11.4492 12.3977 12.0015 12.398C12.3286 12.3982 12.6504 12.316 12.9374 12.1592C13.2243 12.0023 13.4672 11.7757 13.6436 11.5003C13.8201 11.225 13.9243 10.9096 13.9469 10.5833C13.9694 10.2571 13.9095 9.93038 13.7726 9.63335C13.6358 9.33632 13.4264 9.07851 13.1637 8.88366C12.901 8.68881 12.5935 8.5632 12.2696 8.51838C11.9456 8.47357 11.6156 8.511 11.3099 8.62722C11.0042 8.74345 10.7327 8.93473 10.5203 9.18345C10.1617 9.60347 9.53047 9.65324 9.11045 9.29462C8.69044 8.93601 8.64066 8.3048 8.99928 7.88479C9.42956 7.38084 9.97974 6.99327 10.5991 6.75778ZM12 15.5C12.5523 15.5 13 15.9477 13 16.5V16.5197C13 17.0719 12.5523 17.5197 12 17.5197C11.4477 17.5197 11 17.0719 11 16.5197V16.5C11 15.9477 11.4477 15.5 12 15.5Z" fill="currentColor"/>
</svg>
