<svg width="24" height="24" viewBox="0 0 24 24" fill="none" xmlns="http://www.w3.org/2000/svg">
<path fill-rule="evenodd" clip-rule="evenodd" d="M12.0203 3C11.468 3 11.0203 3.44772 11.0203 4V5C11.0203 5.03342 11.0219 5.06646 11.0251 5.09904C8.74046 5.56043 7.02027 7.57933 7.02027 10V12C7.02027 12.5756 6.02636 14.1451 5.18271 15.3736C4.71623 16.0529 5.19623 17 6.02027 17H18.0203C18.8443 17 19.3243 16.0529 18.8578 15.3736C18.0142 14.1451 17.0203 12.5756 17.0203 12V10C17.0203 7.57933 15.3001 5.56043 13.0154 5.09904C13.0186 5.06646 13.0203 5.03342 13.0203 5V4C13.0203 3.44772 12.5726 3 12.0203 3ZM15.0203 12V10C15.0203 8.34315 13.6771 7 12.0203 7C10.3634 7 9.02027 8.34315 9.02027 10V12C9.02027 12.585 8.80532 13.1171 8.68905 13.3874C8.5405 13.7328 8.34885 14.0947 8.15331 14.436C8.04759 14.6206 7.93458 14.8098 7.81744 15H16.2231C16.106 14.8098 15.993 14.6206 15.8872 14.436C15.6917 14.0947 15.5 13.7328 15.3515 13.3874C15.2352 13.1171 15.0203 12.585 15.0203 12ZM11.0203 18C11.0203 18.5523 11.468 19 12.0203 19C12.5726 19 13.0203 18.5523 13.0203 18H15.0203C15.0203 19.6569 13.6771 21 12.0203 21C10.3634 21 9.02027 19.6569 9.02027 18H11.0203Z" fill="currentColor"/>
</svg>
