<svg width="24" height="25" viewBox="0 0 24 25" fill="none" xmlns="http://www.w3.org/2000/svg">
<path fill-rule="evenodd" clip-rule="evenodd" d="M12 3.95889C11.4477 3.95889 11 4.40661 11 4.95889V5.95889C11 5.99231 11.0016 6.02535 11.0048 6.05793C8.72018 6.51932 6.99998 8.53822 6.99998 10.9589L7 10.9716V13C7 13.6084 5.88948 15.4972 5.01977 16.8832C4.59421 17.5613 5.07746 18.4589 5.87808 18.4589H18.1219C18.9225 18.4589 19.4058 17.5613 18.9802 16.8832C18.1105 15.4972 17 13.6084 17 13V12.9589V10.9589C17 8.53823 15.2798 6.51934 12.9952 6.05794C12.9984 6.02536 13 5.99232 13 5.95889V4.95889C13 4.40661 12.5523 3.95889 12 3.95889ZM15 12.9589V10.9589C15 9.30204 13.6568 7.95889 12 7.95889C10.3431 7.95889 8.99998 9.30204 8.99998 10.9589L8.99999 10.9666L9 10.9716L9 13C9 13.5901 8.77731 14.1521 8.66078 14.4336C8.50723 14.8045 8.30697 15.206 8.09916 15.5941C7.94853 15.8754 7.78431 16.1674 7.61511 16.4589H16.3849C16.2157 16.1674 16.0515 15.8754 15.9008 15.5941C15.693 15.206 15.4928 14.8045 15.3392 14.4336C15.2227 14.1521 15 13.5901 15 13V12.9589H15ZM11 19.9589C11 20.5112 11.4477 20.9589 12 20.9589C12.5523 20.9589 13 20.5112 13 19.9589H15C15 21.6157 13.6568 22.9589 12 22.9589C10.3431 22.9589 8.99999 21.6157 8.99999 19.9589H11Z" fill="currentColor"/>
</svg>
