<svg width="20" height="19" viewBox="0 0 20 19" fill="none" xmlns="http://www.w3.org/2000/svg">
  <path fill-rule="evenodd" clip-rule="evenodd" d="M0.329189 10.8533C0.0476611 10.2903 0.0476592 9.62752 0.329186 9.06446L3.82917 2.06447C4.16795 1.3869 4.86048 0.958893 5.61803 0.958893H14.382C15.1395 0.958893 15.832 1.3869 16.1708 2.06447L19.6708 9.06446C19.9524 9.62751 19.9524 10.2903 19.6708 10.8533L16.1708 17.8533C15.8321 18.5309 15.1395 18.9589 14.382 18.9589H5.61806C4.86051 18.9589 4.16799 18.5309 3.8292 17.8533L0.329189 10.8533ZM5.61803 2.95889L2.11804 9.95889L5.61806 16.9589H14.382L17.882 9.95889L14.382 2.95889H5.61803ZM6.29294 6.2518C6.68346 5.86128 7.31663 5.86128 7.70715 6.2518L10 8.5447L12.2929 6.2518C12.6835 5.86128 13.3166 5.86128 13.7072 6.2518C14.0977 6.64233 14.0977 7.27549 13.7072 7.66602L11.4143 9.95891L13.7072 12.2518C14.0977 12.6423 14.0977 13.2755 13.7072 13.666C13.3166 14.0565 12.6835 14.0565 12.2929 13.666L10 11.3731L7.70715 13.666C7.31663 14.0565 6.68346 14.0565 6.29294 13.666C5.90241 13.2755 5.90241 12.6423 6.29294 12.2518L8.58583 9.95891L6.29294 7.66602C5.90241 7.27549 5.90241 6.64233 6.29294 6.2518Z" fill="currentColor"/>
</svg>
