<svg width="16" height="16" viewBox="0 0 16 16" fill="none" xmlns="http://www.w3.org/2000/svg">
<path fill-rule="evenodd" clip-rule="evenodd" d="M1.75 8C1.75 4.54822 4.54822 1.75 8 1.75C11.4518 1.75 14.25 4.54822 14.25 8C14.25 11.4518 11.4518 14.25 8 14.25C4.54822 14.25 1.75 11.4518 1.75 8ZM8 0.25C3.71979 0.25 0.25 3.71979 0.25 8C0.25 12.2802 3.71979 15.75 8 15.75C12.2802 15.75 15.75 12.2802 15.75 8C15.75 3.71979 12.2802 0.25 8 0.25ZM6.96717 4.06133C7.4269 3.88654 7.92321 3.83025 8.4104 3.89765C8.89759 3.96504 9.35999 4.15395 9.75501 4.44697C10.15 4.73999 10.4649 5.1277 10.6708 5.57439C10.8766 6.02107 10.9667 6.51237 10.9328 7.00304C10.8989 7.4937 10.7421 7.96794 10.4768 8.38207C10.2115 8.79621 9.84623 9.13693 9.41468 9.37284C8.98312 9.60875 8.49913 9.73227 8.0073 9.73203C7.59309 9.73182 7.25747 9.39586 7.25768 8.98165C7.25789 8.56743 7.59385 8.23182 8.00806 8.23203C8.24819 8.23215 8.48448 8.17184 8.69518 8.05666C8.90588 7.94148 9.08421 7.77513 9.21374 7.57294C9.34327 7.37074 9.41984 7.1392 9.43639 6.89965C9.45294 6.66009 9.40894 6.42022 9.30845 6.20214C9.20796 5.98405 9.0542 5.79476 8.86134 5.65169C8.66848 5.50863 8.44273 5.4164 8.20486 5.3835C7.967 5.35059 7.72469 5.37808 7.50023 5.46341C7.27578 5.54875 7.07641 5.68919 6.92049 5.87181C6.65153 6.18682 6.17812 6.22415 5.86311 5.95519C5.5481 5.68622 5.51077 5.21282 5.77973 4.89781C6.0991 4.52377 6.50745 4.23611 6.96717 4.06133ZM8 10.62C8.41421 10.62 8.75 10.9558 8.75 11.37V11.3845C8.75 11.7988 8.41421 12.1345 8 12.1345C7.58579 12.1345 7.25 11.7988 7.25 11.3845V11.37C7.25 10.9558 7.58579 10.62 8 10.62Z" fill="currentColor"/>
</svg>
