<svg width="24" height="25" viewBox="0 0 24 25" fill="none" xmlns="http://www.w3.org/2000/svg">
<path fill-rule="evenodd" clip-rule="evenodd" d="M9 2.95886C7.89543 2.95886 7 3.85429 7 4.95886V6.95886C7 7.51115 7.44772 7.95886 8 7.95886C8.55228 7.95886 9 7.51115 9 6.95886V4.95886H14.5858L19 9.37308V20.9589H15C14.4477 20.9589 14 21.4066 14 21.9589C14 22.5111 14.4477 22.9589 15 22.9589H19C20.1046 22.9589 21 22.0634 21 20.9589V9.37308C21 8.84264 20.7893 8.33394 20.4142 7.95886L16 3.54465C15.6249 3.16958 15.1162 2.95886 14.5858 2.95886H9ZM8.92 15.4939C10.975 15.8839 11.92 16.9789 11.92 18.3739C11.92 20.0689 10.63 21.2689 8.605 21.4339V22.9639H7.495V21.4339C5.395 21.2689 4.06 20.1289 4 17.9689L6.115 17.7589C6.145 19.0039 6.76 19.5139 7.495 19.6789V17.2789L7.06 17.2039C5.035 16.8589 4.255 15.7339 4.255 14.2339C4.255 12.6139 5.53 11.5039 7.495 11.3389V9.95886H8.605V11.3539C10.465 11.5189 11.815 12.5089 11.815 14.3389L9.715 14.5339C9.715 13.6939 9.28 13.2589 8.605 13.1089V15.4339L8.92 15.4939ZM7.495 13.0789C6.805 13.1989 6.37 13.5739 6.37 14.1289C6.37 14.6239 6.55 14.9839 7.495 15.2239V13.0789ZM8.605 19.6939C9.31 19.5739 9.775 19.1839 9.775 18.5989C9.775 18.0739 9.475 17.6989 8.605 17.4739V19.6939Z" fill="currentColor"/>
</svg>
