<svg width="24" height="25" viewBox="0 0 24 25" fill="none" xmlns="http://www.w3.org/2000/svg">
<path fill-rule="evenodd" clip-rule="evenodd" d="M9 2.95886C7.89543 2.95886 7 3.85429 7 4.95886V7.95886C7 8.51115 7.44772 8.95886 8 8.95886C8.55228 8.95886 9 8.51115 9 7.95886V4.95886H14.5858L19 9.37308V20.9589H16C15.4477 20.9589 15 21.4066 15 21.9589C15 22.5111 15.4477 22.9589 16 22.9589H19C20.1046 22.9589 21 22.0634 21 20.9589V9.37308C21 8.84264 20.7893 8.33394 20.4142 7.95886L16 3.54465C15.6249 3.16958 15.1162 2.95886 14.5858 2.95886H9ZM11.087 18.9509L12.639 20.5189C11.775 21.5589 10.543 22.1509 8.84695 22.1509C6.54295 22.1509 4.70295 20.9029 4.06295 18.4869H2.57495V17.0309H3.85495C3.83895 16.8709 3.83895 16.7109 3.83895 16.5509C3.83895 16.3909 3.83895 16.2309 3.85495 16.0709H2.57495V14.6309H4.07895C4.71895 12.3109 6.55895 11.0629 8.84695 11.0629C10.591 11.0629 11.727 11.6549 12.655 12.7269L11.087 14.2309C10.623 13.6869 9.88695 13.1269 8.84695 13.1269C7.75895 13.1269 6.92695 13.6549 6.47895 14.6309H9.18295V16.0709H6.12695C6.11095 16.2309 6.11095 16.3909 6.11095 16.5509C6.11095 16.7109 6.11095 16.8709 6.12695 17.0309H9.18295V18.4869H6.44695C6.89495 19.5269 7.74295 20.0709 8.84695 20.0709C9.90295 20.0709 10.575 19.5109 11.087 18.9509Z" fill="currentColor"/>
</svg>
