<svg width="24" height="25" viewBox="0 0 24 25" fill="none" xmlns="http://www.w3.org/2000/svg">
<path fill-rule="evenodd" clip-rule="evenodd" d="M7 4.95889C7 3.85432 7.89543 2.95889 9 2.95889H14.5858C15.1162 2.95889 15.6249 3.16961 16 3.54468L20.4142 7.95889C20.7893 8.33397 21 8.84267 21 9.37311V20.9589C21 22.0635 20.1046 22.9589 19 22.9589H17.2632C17.6 22.3755 17.6481 21.6254 17.2632 20.9589H19V9.37311L14.5858 4.95889H9V7.21515C8.38568 6.86244 7.61432 6.86244 7 7.21515V4.95889ZM9.76096 10.12C9.00582 8.71757 6.99422 8.71758 6.23908 10.12L0.913295 20.0107C0.195815 21.3432 1.16089 22.9589 2.67424 22.9589H13.3258C14.8392 22.9589 15.8042 21.3432 15.0867 20.0107L9.76096 10.12ZM8.00002 11.0682L13.3258 20.9589H2.67424L8.00002 11.0682ZM9 14.9589C9 14.4066 8.55228 13.9589 8 13.9589C7.44772 13.9589 7 14.4066 7 14.9589V16.4589C7 17.0112 7.44772 17.4589 8 17.4589C8.55228 17.4589 9 17.0112 9 16.4589V14.9589ZM9 19C9 19.5523 8.55228 20 8 20C7.44772 20 7 19.5523 7 19C7 18.4477 7.44772 18 8 18C8.55228 18 9 18.4477 9 19Z" fill="currentColor"/>
</svg>
