<svg width="24" height="25" viewBox="0 0 24 25" fill="none" xmlns="http://www.w3.org/2000/svg">
<path fill-rule="evenodd" clip-rule="evenodd" d="M7 4.95889C7 3.85432 7.89543 2.95889 9 2.95889H14.5858C15.1162 2.95889 15.6249 3.16961 16 3.54468L20.4142 7.95889C20.7893 8.33397 21 8.84267 21 9.37311V20.9589C21 22.0635 20.1046 22.9589 19 22.9589H17V20.9589H19V9.37311L14.5858 4.95889H9V6.96755L7 6.97491V4.95889ZM7 9.95889C7 9.40661 6.55228 8.95889 6 8.95889C5.44772 8.95889 5 9.40661 5 9.95889V10.9589H4C2.89543 10.9589 2 11.8543 2 12.9589V13.7771V20.9589C2 22.0635 2.89543 22.9589 4 22.9589H13C14.1046 22.9589 15 22.0635 15 20.9589V13.7771V12.9589C15 11.8543 14.1046 10.9589 13 10.9589H12V9.95889C12 9.40661 11.5523 8.95889 11 8.95889C10.4477 8.95889 10 9.40661 10 9.95889V10.9589H7V9.95889ZM13 14.7771H8.5H4V20.9589H13V14.7771ZM12 17.4589C12 17.1828 11.7761 16.9589 11.5 16.9589H9.5C9.22386 16.9589 9 17.1828 9 17.4589V19.4589C9 19.735 9.22386 19.9589 9.5 19.9589H11.5C11.7761 19.9589 12 19.735 12 19.4589V17.4589Z" fill="currentColor"/>
</svg>
