<svg width="24" height="25" viewBox="0 0 24 25" fill="none" xmlns="http://www.w3.org/2000/svg">
<path fill-rule="evenodd" clip-rule="evenodd" d="M9 2.95886C7.89543 2.95886 7 3.85429 7 4.95886V7.95886C7 8.51115 7.44772 8.95886 8 8.95886C8.55228 8.95886 9 8.51115 9 7.95886V4.95886H14.5858L19 9.37308V20.9589H15C14.4477 20.9589 14 21.4066 14 21.9589C14 22.5111 14.4477 22.9589 15 22.9589H19C20.1046 22.9589 21 22.0634 21 20.9589V9.37308C21 8.84264 20.7893 8.33394 20.4142 7.95886L16 3.54465C15.6249 3.16958 15.1162 2.95886 14.5858 2.95886H9ZM7.54519 19.9589H11.9645V21.9589H3.98067V19.9589H5.19035C5.77099 19.5234 6.09357 19.0234 6.09357 18.5072C6.09357 18.1363 5.96454 17.7653 5.77099 17.3782H3.90002V15.6202H4.86777C4.70648 15.2169 4.59357 14.7814 4.59357 14.2976C4.59357 12.2331 6.22261 10.9589 8.28712 10.9589C10.5613 10.9589 11.9323 12.1685 12.0774 14.3137L9.72261 14.4105C9.69035 13.5234 9.14196 13.0234 8.31938 13.0234C7.4968 13.0234 6.9968 13.5072 6.9968 14.2976C6.9968 14.7814 7.14196 15.2169 7.33551 15.6202H10.3839V17.3782H8.22261C8.31938 17.6524 8.3839 17.9427 8.3839 18.2653C8.3839 18.9105 8.07744 19.5395 7.54519 19.9589Z" fill="currentColor"/>
</svg>
