<svg width="24" height="24" viewBox="0 0 24 24" fill="none" xmlns="http://www.w3.org/2000/svg">
<path fill-rule="evenodd" clip-rule="evenodd" d="M7 3.99918C7 2.89461 7.89543 1.99918 9 1.99918H14.5858C15.1162 1.99918 15.6249 2.20989 16 2.58496L20.4142 6.99918C20.7893 7.37425 21 7.88296 21 8.41339V19.9992C21 21.1037 20.1046 21.9992 19 21.9992H17V19.9992H19V8.41339L14.5858 3.99918H9V6.00783L7 6.01519V3.99918ZM7 8.99918C7 8.44689 6.55228 7.99918 6 7.99918C5.44772 7.99918 5 8.44689 5 8.99918V9.99918H4C2.89543 9.99918 2 10.8946 2 11.9992V12.8174V19.9992C2 21.1037 2.89543 21.9992 4 21.9992H13C14.1046 21.9992 15 21.1037 15 19.9992V12.8174V11.9992C15 10.8946 14.1046 9.99918 13 9.99918H12V8.99918C12 8.44689 11.5523 7.99918 11 7.99918C10.4477 7.99918 10 8.44689 10 8.99918V9.99918H7V8.99918ZM13 13.8174H8.5H4V19.9992H13V13.8174Z" fill="currentColor"/>
</svg>
