<svg width="24" height="25" viewBox="0 0 24 25" fill="none" xmlns="http://www.w3.org/2000/svg">
<path d="M12 20.4589V19H9V17.4589H12V15.9589H9L12 10.9589H10L8 14.4589L6 10.9589H4L7 15.9589H4V17.4589H7V19H4V20.4589H7V21.9589H9V20.4589H12Z" fill="currentColor"/>
<path d="M15 21.9589H19C19.5523 21.9589 20 21.5111 20 20.9589V9.37308C20 9.10786 19.8946 8.85351 19.7071 8.66597L15.2929 4.25176C15.1054 4.06422 14.851 3.95886 14.5858 3.95886H9C8.44772 3.95886 8 4.40658 8 4.95886V7.95886" stroke="currentColor" stroke-width="2" stroke-linecap="round"/>
</svg>
