<svg width="24" height="24" viewBox="0 0 24 24" fill="none" xmlns="http://www.w3.org/2000/svg">
<path d="M7.00006 2.95886C5.89549 2.95886 5.00006 3.85429 5.00006 4.95886V9.95886C5.00006 10.5111 5.44778 10.9589 6.00006 10.9589C6.55235 10.9589 7.00006 10.5111 7.00006 9.95886V4.95886H12.5858L17.0001 9.37308V20.9589H16.0001C15.4478 20.9589 15.0001 21.4066 15.0001 21.9589C15.0001 22.5111 15.4478 22.9589 16.0001 22.9589H17.0001C18.1046 22.9589 19.0001 22.0634 19.0001 20.9589V9.37308C19.0001 8.84264 18.7893 8.33393 18.4143 7.95886L14.0001 3.54465C13.625 3.16958 13.1163 2.95886 12.5858 2.95886H7.00006Z" fill="currentColor"/>
<path d="M13.7071 19.2482C13.9931 18.9622 14.0787 18.5321 13.9239 18.1585C13.7691 17.7848 13.4045 17.5411 13 17.5411H11.9792C11.7475 14.9948 9.60673 13 7 13C4.23858 13 2 15.2386 2 18C2 20.7614 4.23858 23 7 23C7.55229 23 8 22.5523 8 22C8 21.4477 7.55229 21 7 21C5.34315 21 4 19.6569 4 18C4 16.3431 5.34315 15 7 15C8.50083 15 9.74426 16.1021 9.96513 17.5411H9C8.59554 17.5411 8.2309 17.7848 8.07612 18.1585C7.92134 18.5321 8.0069 18.9622 8.29289 19.2482L10.2929 21.2482C10.6834 21.6388 11.3166 21.6388 11.7071 21.2482L13.7071 19.2482Z" fill="currentColor"/>
</svg>
