<svg width="32" height="32" viewBox="0 0 32 32" fill="none" xmlns="http://www.w3.org/2000/svg">
<path fill-rule="evenodd" clip-rule="evenodd" d="M7 7H13V13H7L7 7ZM5 7C5 5.89543 5.89543 5 7 5H13C14.1046 5 15 5.89543 15 7V13C15 14.1046 14.1046 15 13 15H7C5.89543 15 5 14.1046 5 13V7ZM7 19H13V25H7V19ZM5 19C5 17.8954 5.89543 17 7 17H13C14.1046 17 15 17.8954 15 19V25C15 26.1046 14.1046 27 13 27H7C5.89543 27 5 26.1046 5 25V19ZM25 7H19V13H25L25 7ZM19 5C17.8954 5 17 5.89543 17 7V13C17 14.1046 17.8954 15 19 15H25C26.1046 15 27 14.1046 27 13V7C27 5.89543 26.1046 5 25 5H19ZM21 18C21 17.4477 21.4477 17 22 17C22.5523 17 23 17.4477 23 18V21H26C26.5523 21 27 21.4477 27 22C27 22.5523 26.5523 23 26 23H23V26C23 26.5523 22.5523 27 22 27C21.4477 27 21 26.5523 21 26V23H18C17.4477 23 17 22.5523 17 22C17 21.4477 17.4477 21 18 21H21V18Z" fill="currentColor"/>
</svg>
