<svg width="32" height="32" viewBox="0 0 32 32" fill="none" xmlns="http://www.w3.org/2000/svg">
<path fill-rule="evenodd" clip-rule="evenodd" d="M27 7.00003H5L5 11H27V7.00003ZM5 5.00003C3.89543 5.00003 3 5.89546 3 7.00003V11C3 12.1046 3.89543 13 5 13L5 25C5 26.1046 5.89543 27 7 27H25C26.1046 27 27 26.1046 27 25V13C28.1046 13 29 12.1046 29 11V7.00003C29 5.89546 28.1046 5.00003 27 5.00003H5ZM7 13L7 25H25V13H7ZM11 16C10.4477 16 10 16.4477 10 17C10 17.5523 10.4477 18 11 18H21C21.5523 18 22 17.5523 22 17C22 16.4477 21.5523 16 21 16H11Z" fill="currentColor"/>
</svg>
