<svg width="24" height="24" viewBox="0 0 24 24" fill="none" xmlns="http://www.w3.org/2000/svg">
<path fill-rule="evenodd" clip-rule="evenodd" d="M20 6H4V8H6H18H20V6ZM2 8C2 9.10457 2.89543 10 4 10L4 18C4 19.1046 4.89543 20 6 20H18C19.1046 20 20 19.1046 20 18V10C21.1046 10 22 9.10457 22 8V6C22 4.89543 21.1046 4 20 4H4C2.89543 4 2 4.89543 2 6V8ZM6 10H18V18H6V10ZM9 12C8.44772 12 8 12.4477 8 13C8 13.5523 8.44772 14 9 14H15C15.5523 14 16 13.5523 16 13C16 12.4477 15.5523 12 15 12H9Z" fill="currentColor"/>
</svg>
