<svg width="24" height="25" viewBox="0 0 24 25" fill="none" xmlns="http://www.w3.org/2000/svg">
<path fill-rule="evenodd" clip-rule="evenodd" d="M11 19.9588C11 20.5111 11.4477 20.9588 12 20.9588C12.5523 20.9588 13 20.5111 13 19.9588L13 8.37304L17.2929 12.6659C17.6834 13.0565 18.3166 13.0565 18.7071 12.6659C19.0976 12.2754 19.0976 11.6423 18.7071 11.2517L12.7071 5.25173C12.3166 4.86121 11.6834 4.86121 11.2929 5.25173L11.2875 5.25716L5.29291 11.2518C4.90238 11.6423 4.90238 12.2755 5.29291 12.666C5.68343 13.0565 6.31659 13.0565 6.70712 12.666L11 8.37311L11 19.9588Z" fill="currentColor"/>
</svg>
