<svg width="24" height="25" viewBox="0 0 24 25" fill="none" xmlns="http://www.w3.org/2000/svg">
<path fill-rule="evenodd" clip-rule="evenodd" d="M13 5.95883C13 5.40655 12.5523 4.95883 12 4.95883C11.4477 4.95883 11 5.40655 11 5.95883L11 17.5446L6.70711 13.2517C6.31659 12.8612 5.68342 12.8612 5.2929 13.2517C4.90237 13.6423 4.90237 14.2754 5.2929 14.666L11.2929 20.6659C11.3918 20.7649 11.5063 20.8387 11.6285 20.8876C11.7315 20.9288 11.843 20.9534 11.9597 20.958C11.9866 20.9591 12.0135 20.9591 12.0403 20.958C12.2826 20.9483 12.5221 20.851 12.7071 20.6659L12.7089 20.6642L12.7107 20.6624L18.7071 14.6659C19.0976 14.2754 19.0976 13.6423 18.7071 13.2517C18.3166 12.8612 17.6834 12.8612 17.2929 13.2517L13 17.5446L13 5.95883Z" fill="currentColor"/>
</svg>
