<svg width="24" height="25" viewBox="0 0 24 25" fill="none" xmlns="http://www.w3.org/2000/svg">
<path fill-rule="evenodd" clip-rule="evenodd" d="M5.00003 11.9589C4.44774 11.9589 4.00003 12.4066 4.00003 12.9589C4.00003 13.5111 4.44774 13.9589 5.00003 13.9589L16.627 13.9589L12.2929 18.2929C11.9024 18.6834 11.9024 19.3166 12.2929 19.7071C12.6834 20.0976 13.3166 20.0976 13.7071 19.7071L19.7042 13.7101L19.7071 13.7071C19.7559 13.6583 19.7987 13.6057 19.8353 13.5503C20.0665 13.2 20.0543 12.7363 19.7986 12.398C19.771 12.3614 19.7405 12.3263 19.7071 12.2929L19.7042 12.29L13.7071 6.29292C13.3166 5.9024 12.6834 5.9024 12.2929 6.29292C11.9024 6.68345 11.9024 7.31661 12.2929 7.70713L16.5446 11.9589L5.00003 11.9589Z" fill="currentColor"/>
</svg>
