<svg width="24" height="25" viewBox="0 0 24 25" fill="none" xmlns="http://www.w3.org/2000/svg">
<path fill-rule="evenodd" clip-rule="evenodd" d="M6.83363 13.0937C5.1739 14.7534 5.1739 17.4444 6.83363 19.1041C8.49336 20.7638 11.1843 20.7638 12.844 19.1041L14.9043 17.0438C15.2948 16.6533 15.928 16.6533 16.3185 17.0438C16.709 17.4344 16.709 18.0675 16.3185 18.458L14.2583 20.5183C11.8175 22.9591 7.86019 22.9591 5.41942 20.5183C2.97864 18.0775 2.97864 14.1202 5.41942 11.6795L8.77817 8.3207L10.1924 6.90649L11.9602 5.13872C13.7175 3.38136 16.5668 3.38136 18.3241 5.13872C20.0815 6.89608 20.0815 9.74532 18.3241 11.5027L15.1421 14.6847L12.1369 17.6899C11.063 18.7638 9.32179 18.7638 8.24784 17.6899C7.1739 16.6159 7.1739 14.8747 8.24784 13.8008L12.6673 9.38136C13.0578 8.99084 13.691 8.99084 14.0815 9.38136C14.472 9.77189 14.472 10.4051 14.0815 10.7956L9.66206 15.215C9.36916 15.5079 9.36916 15.9828 9.66206 16.2757C9.95495 16.5685 10.4298 16.5685 10.7227 16.2757L13.7279 13.2704L16.9099 10.0885C17.8862 9.11216 17.8862 7.52925 16.9099 6.55294C15.9336 5.57662 14.3507 5.57662 13.3744 6.55294L11.6066 8.3207L10.1924 9.73492L6.83363 13.0937Z" fill="currentColor"/>
</svg>
