<svg width="33" height="33" viewBox="0 0 33 33" fill="none" xmlns="http://www.w3.org/2000/svg">
<path fill-rule="evenodd" clip-rule="evenodd" d="M16.4842 6.16995C16.4938 6.16438 16.5061 6.16438 16.5157 6.16995C20.4457 8.44575 24.8046 10.1009 26.4682 10.6984C26.2764 13.4564 24.9835 22.8974 16.5 27.7743C8.01648 22.8974 6.72354 13.4564 6.53174 10.6984C8.19534 10.1009 12.5543 8.44573 16.4842 6.16995ZM17.518 4.43921C16.8884 4.07463 16.1115 4.07463 15.482 4.4392C11.6961 6.63154 7.4553 8.24223 5.83927 8.82203C5.05504 9.1034 4.4715 9.86153 4.53259 10.7789C4.71952 13.5862 6.03368 24.0819 15.5285 29.5228C16.128 29.8663 16.872 29.8663 17.4714 29.5228C26.9663 24.0819 28.2804 13.5862 28.4674 10.7789C28.5285 9.86153 27.9449 9.1034 27.1607 8.82203C25.5446 8.24224 21.3038 6.63156 17.518 4.43921ZM13.0597 20.0386C12.5938 20.3837 12.2125 20.7913 11.9436 21.256C11.5222 20.6427 11.1521 20.0181 10.8272 19.3942C10.9991 19.1949 11.1836 19.0075 11.3784 18.8323C11.5358 18.6906 11.6998 18.557 11.8692 18.4315C11.9527 18.3697 12.0376 18.3096 12.1239 18.2514C12.1686 18.2213 12.2136 18.1917 12.259 18.1626C12.8825 17.7622 13.5707 17.455 14.2794 17.2461L14.2635 17.2354C13.6668 16.8323 13.1848 16.2724 12.8764 15.6148C12.6349 15.0998 12.5 14.5249 12.5 13.9185C12.5 11.7094 14.2908 9.91852 16.5 9.91852C18.7091 9.91852 20.5 11.7094 20.5 13.9185C20.5 14.5249 20.365 15.0998 20.1235 15.6148C19.8125 16.2782 19.3245 16.8422 18.7205 17.2461C18.7833 17.2646 18.8459 17.2838 18.9083 17.3039C19.5507 17.5101 20.1727 17.7976 20.741 18.1626C20.874 18.248 21.0041 18.3377 21.1308 18.4315C21.5097 18.7122 21.8619 19.0338 22.1728 19.3942C21.8478 20.0181 21.4778 20.6427 21.0564 21.256C20.7874 20.7913 20.4061 20.3837 19.9402 20.0386C19.4518 19.6767 18.8839 19.396 18.2906 19.2061C18.2455 19.1917 18.2003 19.1778 18.155 19.1644L18.14 19.16C17.5972 19.0014 17.037 18.9185 16.5 18.9185C15.9628 18.9185 15.4026 19.0015 14.8597 19.1601L14.845 19.1644C14.8006 19.1775 14.7564 19.1911 14.7123 19.2052C14.1883 19.3725 13.6934 19.6077 13.2577 19.8992C13.1903 19.9443 13.1242 19.9908 13.0597 20.0386ZM16.5 11.9185C15.3954 11.9185 14.5 12.814 14.5 13.9185C14.5 15.0231 15.3954 15.9185 16.5 15.9185C17.6045 15.9185 18.5 15.0231 18.5 13.9185C18.5 12.814 17.6045 11.9185 16.5 11.9185Z" fill="currentColor"/>
</svg>
