<svg width="24" height="24" viewBox="0 0 24 24" fill="none" xmlns="http://www.w3.org/2000/svg">
<path fill-rule="evenodd" clip-rule="evenodd" d="M4 6H20V8H4V6ZM4 11V18H20V11H4ZM2 6C2 4.89543 2.89543 4 4 4H20C21.1046 4 22 4.89543 22 6V18C22 19.1046 21.1046 20 20 20H4C2.89543 20 2 19.1046 2 18V6ZM6 15C6 14.4477 6.44772 14 7 14H13C13.5523 14 14 14.4477 14 15C14 15.5523 13.5523 16 13 16H7C6.44772 16 6 15.5523 6 15ZM16 14C15.4477 14 15 14.4477 15 15C15 15.5523 15.4477 16 16 16H17C17.5523 16 18 15.5523 18 15C18 14.4477 17.5523 14 17 14H16Z" fill="currentColor"/>
</svg>
