<svg width="32" height="32" viewBox="0 0 32 32" fill="none" xmlns="http://www.w3.org/2000/svg">
<path fill-rule="evenodd" clip-rule="evenodd" d="M5 8.00003H27V11H5V8.00003ZM5 14L5 24H27V14H5ZM3 8.00003C3 6.89546 3.89543 6.00003 5 6.00003H27C28.1046 6.00003 29 6.89546 29 8.00003V24C29 25.1046 28.1046 26 27 26H5C3.89543 26 3 25.1046 3 24V8.00003ZM7 17C7 16.4477 7.44772 16 8 16H16C16.5523 16 17 16.4477 17 17C17 17.5523 16.5523 18 16 18H8C7.44772 18 7 17.5523 7 17ZM19 16C18.4477 16 18 16.4477 18 17C18 17.5523 18.4477 18 19 18H21C21.5523 18 22 17.5523 22 17C22 16.4477 21.5523 16 21 16H19ZM7 21C7 20.4477 7.44772 20 8 20H11C11.5523 20 12 20.4477 12 21C12 21.5523 11.5523 22 11 22H8C7.44772 22 7 21.5523 7 21ZM14 20C13.4477 20 13 20.4477 13 21C13 21.5523 13.4477 22 14 22H15C15.5523 22 16 21.5523 16 21C16 20.4477 15.5523 20 15 20H14ZM17 21C17 20.4477 17.4477 20 18 20H20C20.5523 20 21 20.4477 21 21C21 21.5523 20.5523 22 20 22H18C17.4477 22 17 21.5523 17 21ZM23 20C22.4477 20 22 20.4477 22 21C22 21.5523 22.4477 22 23 22H24C24.5523 22 25 21.5523 25 21C25 20.4477 24.5523 20 24 20H23Z" fill="currentColor"/>
</svg>
