<svg width="16" height="16" viewBox="0 0 16 16" fill="none" xmlns="http://www.w3.org/2000/svg">
<path fill-rule="evenodd" clip-rule="evenodd" d="M6.75 1C6.75 0.585786 6.41421 0.25 6 0.25C5.58579 0.25 5.25 0.585786 5.25 1V1.75H4.5C2.98122 1.75 1.75 2.98122 1.75 4.5V11.5C1.75 13.0188 2.98122 14.25 4.5 14.25H11.5C13.0188 14.25 14.25 13.0188 14.25 11.5V4.5C14.25 2.98122 13.0188 1.75 11.5 1.75H10.75V1C10.75 0.585786 10.4142 0.25 10 0.25C9.58579 0.25 9.25 0.585786 9.25 1V1.75H6.75V1ZM5.25 3.25V4C5.25 4.41421 5.58579 4.75 6 4.75C6.41421 4.75 6.75 4.41421 6.75 4V3.25H9.25V4C9.25 4.41421 9.58579 4.75 10 4.75C10.4142 4.75 10.75 4.41421 10.75 4V3.25H11.5C12.1904 3.25 12.75 3.80964 12.75 4.5V6.25H3.25V4.5C3.25 3.80964 3.80964 3.25 4.5 3.25H5.25ZM3.25 7.75V11.5C3.25 12.1904 3.80964 12.75 4.5 12.75H11.5C12.1904 12.75 12.75 12.1904 12.75 11.5V7.75H3.25Z" fill="currentColor"/>
</svg>
