<svg width="24" height="25" viewBox="0 0 24 25" fill="none" xmlns="http://www.w3.org/2000/svg">
<path fill-rule="evenodd" clip-rule="evenodd" d="M5.70711 5.29289C5.31658 4.90237 4.68342 4.90237 4.29289 5.29289C3.90237 5.68342 3.90237 6.31658 4.29289 6.70711L18.2929 20.7071C18.6834 21.0976 19.3166 21.0976 19.7071 20.7071C20.0976 20.3166 20.0976 19.6834 19.7071 19.2929L5.70711 5.29289ZM5.29289 15.2929L7.67157 12.9142L9.08579 14.3284L7 16.4142V18H8.58579L10.6716 15.9142L12.0858 17.3284L9.70711 19.7071C9.51957 19.8946 9.26522 20 9 20H6C5.44772 20 5 19.5523 5 19V16C5 15.7348 5.10536 15.4804 5.29289 15.2929ZM17.5858 9L14.9142 11.6716L16.3284 13.0858L19.7071 9.70711C20.0976 9.31658 20.0976 8.68342 19.7071 8.29289L16.7071 5.29289C16.3166 4.90237 15.6834 4.90237 15.2929 5.29289L11.9142 8.67157L13.3284 10.0858L16 7.41421L17.5858 9Z" fill="currentColor"/>
</svg>
