<svg width="21" height="20" viewBox="0 0 21 20" fill="none" xmlns="http://www.w3.org/2000/svg">
<path d="M4 16C4.55228 16 5 15.5523 5 15C5 14.4477 4.55228 14 4 14C3.44772 14 3 14.4477 3 15C3 15.5523 3.44772 16 4 16Z" fill="currentColor"/>
<path fill-rule="evenodd" clip-rule="evenodd" d="M0 1C0 0.447716 0.447715 0 1 0H7C7.55228 0 8 0.447715 8 1V6.7753L12.6019 1.73823C12.9744 1.33049 13.607 1.30193 14.0147 1.67445L18.4444 5.72144C18.8521 6.09395 18.8807 6.72647 18.5081 7.13421L14.0627 12H19.2009C19.7532 12 20.2009 12.4477 20.2009 13V19C20.2009 19.5523 19.7532 20 19.2009 20H1C0.447715 20 0 19.5523 0 19V1ZM2 18V2H6V18H2ZM8.58103 18H18.2009V14L12.2355 14L8.58103 18ZM8 15.6708V9.74047L13.404 3.8255L16.3571 6.52349L8 15.6708Z" fill="currentColor"/>
</svg>
