<svg width="16" height="16" viewBox="0 0 16 16" fill="none" xmlns="http://www.w3.org/2000/svg">
<path fill-rule="evenodd" clip-rule="evenodd" d="M5.1382 2.86192C5.39854 3.12227 5.39854 3.54438 5.13819 3.80473L2.4715 6.47138C2.21114 6.73173 1.78903 6.73173 1.52869 6.47138C1.26834 6.21102 1.26834 5.78891 1.52869 5.52857L4.19539 2.86192C4.45574 2.60157 4.87785 2.60157 5.1382 2.86192Z" fill="currentColor"/>
<path fill-rule="evenodd" clip-rule="evenodd" d="M14.4715 10.4714C14.2112 10.7317 13.7891 10.7317 13.5287 10.4714L10.8621 7.80475C10.6017 7.5444 10.6017 7.12229 10.8621 6.86194C11.1224 6.60159 11.5445 6.60159 11.8049 6.86194L14.4715 9.52859C14.7319 9.78894 14.7319 10.2111 14.4715 10.4714Z" fill="currentColor"/>
<path fill-rule="evenodd" clip-rule="evenodd" d="M5.13819 9.13806C4.87784 9.39841 4.45573 9.39841 4.19538 9.13806L1.52869 6.47138C1.26834 6.21102 1.26834 5.78891 1.52869 5.52857C1.78904 5.26822 2.21117 5.26823 2.47152 5.52858L5.13819 8.19525C5.39854 8.4556 5.39854 8.87771 5.13819 9.13806Z" fill="currentColor"/>
<path fill-rule="evenodd" clip-rule="evenodd" d="M10.8621 13.1381C10.6017 12.8777 10.6017 12.4556 10.8621 12.1953L13.5287 9.52858C13.7891 9.26823 14.2112 9.26824 14.4715 9.52859C14.7319 9.78894 14.7319 10.2111 14.4715 10.4714L11.8049 13.1381C11.5445 13.3984 11.1224 13.3984 10.8621 13.1381Z" fill="currentColor"/>
<path fill-rule="evenodd" clip-rule="evenodd" d="M8.00004 5.97256C8.00004 6.34075 7.70156 6.63923 7.33337 6.63923H2.00004C1.63185 6.63923 1.33337 6.34075 1.33337 5.97256C1.33337 5.60437 1.63185 5.3059 2.00004 5.3059H7.33337C7.70156 5.3059 8.00004 5.60437 8.00004 5.97256Z" fill="currentColor"/>
<path fill-rule="evenodd" clip-rule="evenodd" d="M14.6669 10C14.6669 10.3682 14.3684 10.6667 14.0002 10.6667H8.66687C8.29868 10.6667 8.0002 10.3682 8.0002 10C8.0002 9.63184 8.29868 9.33336 8.66687 9.33336H14.0002C14.3684 9.33336 14.6669 9.63184 14.6669 10Z" fill="currentColor"/>
</svg>
