<svg width="16" height="16" viewBox="0 0 16 16" fill="none" xmlns="http://www.w3.org/2000/svg">
<path d="M8.19329 2.80991L9.19329 3.80962C9.25527 3.87209 9.329 3.92167 9.41024 3.9555C9.49148 3.98934 9.57862 4.00676 9.66663 4.00676C9.75463 4.00676 9.84177 3.98934 9.92301 3.9555C10.0042 3.92167 10.078 3.87209 10.14 3.80962C10.2411 3.70345 10.3045 3.56689 10.3201 3.4211C10.3358 3.2753 10.3029 3.12841 10.2266 3.00319H12.6666C12.8434 3.00319 13.013 2.93297 13.138 2.80798C13.2631 2.68299 13.3333 2.51347 13.3333 2.33671C13.3333 2.15995 13.2631 1.99043 13.138 1.86544C13.013 1.74046 12.8434 1.67024 12.6666 1.67024H10.2266C10.3029 1.54501 10.3358 1.39812 10.3201 1.25233C10.3045 1.10653 10.2411 0.969972 10.14 0.863806C10.078 0.801338 10.0042 0.751757 9.92301 0.717921C9.84177 0.684085 9.75463 0.666664 9.66663 0.666664C9.57862 0.666664 9.49148 0.684085 9.41024 0.717921C9.329 0.751757 9.25527 0.801338 9.19329 0.863806L8.19329 1.86352C8.1326 1.9269 8.08502 2.00164 8.05329 2.08345C7.98661 2.24571 7.98661 2.42771 8.05329 2.58997C8.08502 2.67178 8.1326 2.74652 8.19329 2.80991ZM15.28 5.41582C15.2482 5.33401 15.2007 5.25927 15.14 5.19588L14.14 4.19617C14.078 4.13371 14.0042 4.08412 13.923 4.05029C13.8418 4.01645 13.7546 3.99903 13.6666 3.99903C13.5786 3.99903 13.4915 4.01645 13.4102 4.05029C13.329 4.08412 13.2553 4.13371 13.1933 4.19617C13.0921 4.30234 13.0288 4.4389 13.0131 4.58469C12.9975 4.73049 13.0303 4.87738 13.1066 5.00261H10.6666C10.4898 5.00261 10.3202 5.07282 10.1952 5.19781C10.0702 5.3228 9.99996 5.49232 9.99996 5.66908C9.99996 5.84584 10.0702 6.01536 10.1952 6.14035C10.3202 6.26534 10.4898 6.33555 10.6666 6.33555H13.1066C13.0303 6.46078 12.9975 6.60767 13.0131 6.75347C13.0288 6.89926 13.0921 7.03582 13.1933 7.14199C13.2553 7.20445 13.329 7.25403 13.4102 7.28787C13.4915 7.32171 13.5786 7.33913 13.6666 7.33913C13.7546 7.33913 13.8418 7.32171 13.923 7.28787C14.0042 7.25403 14.078 7.20445 14.14 7.14199L15.14 6.14228C15.2007 6.07889 15.2482 6.00415 15.28 5.92234C15.3466 5.76008 15.3466 5.57808 15.28 5.41582ZM7.33329 6.00232C6.80588 6.00232 6.2903 6.15867 5.85177 6.4516C5.41324 6.74453 5.07145 7.16089 4.86961 7.64802C4.66778 8.13514 4.61497 8.67117 4.71786 9.1883C4.82076 9.70543 5.07473 10.1804 5.44767 10.5533C5.82061 10.9261 6.29577 11.18 6.81305 11.2829C7.33033 11.3857 7.86651 11.3329 8.35378 11.1312C8.84105 10.9294 9.25753 10.5877 9.55054 10.1493C9.84356 9.7109 9.99996 9.19547 9.99996 8.66821C9.99996 7.96117 9.71901 7.28309 9.21891 6.78314C8.71881 6.28319 8.04054 6.00232 7.33329 6.00232ZM7.33329 10.0012C7.06958 10.0012 6.8118 9.92298 6.59253 9.77652C6.37327 9.63005 6.20237 9.42187 6.10145 9.17831C6.00054 8.93474 5.97413 8.66673 6.02558 8.40816C6.07703 8.1496 6.20401 7.91209 6.39048 7.72567C6.57695 7.53926 6.81453 7.41231 7.07317 7.36088C7.33181 7.30944 7.5999 7.33584 7.84354 7.43673C8.08717 7.53761 8.29541 7.70846 8.44192 7.92766C8.58843 8.14687 8.66663 8.40458 8.66663 8.66821C8.66663 9.02173 8.52615 9.36077 8.2761 9.61075C8.02605 9.86072 7.68691 10.0012 7.33329 10.0012ZM13.3333 8.00174C13.1565 8.00174 12.9869 8.07195 12.8619 8.19694C12.7369 8.32193 12.6666 8.49145 12.6666 8.66821V12.0006C12.6666 12.1773 12.5964 12.3469 12.4714 12.4718C12.3463 12.5968 12.1768 12.6671 12 12.6671H2.66663C2.48981 12.6671 2.32025 12.5968 2.19522 12.4718C2.0702 12.3469 1.99996 12.1773 1.99996 12.0006V6.66879C1.99996 6.49203 2.0702 6.32251 2.19522 6.19752C2.32025 6.07253 2.48981 6.00232 2.66663 6.00232H3.99996C4.14617 6.00947 4.29067 5.96831 4.41116 5.8852C4.53165 5.80209 4.62142 5.68164 4.66663 5.54245L5.02663 4.46276C5.0683 4.33439 5.14798 4.22169 5.25511 4.13958C5.36225 4.05746 5.4918 4.0098 5.62663 4.0029H6.66663C6.84344 4.0029 7.01301 3.93268 7.13803 3.80769C7.26305 3.6827 7.33329 3.51318 7.33329 3.33642C7.33329 3.15966 7.26305 2.99014 7.13803 2.86515C7.01301 2.74017 6.84344 2.66995 6.66663 2.66995H5.62663C5.2057 2.6698 4.79545 2.80242 4.45431 3.04893C4.11316 3.29544 3.85852 3.64327 3.72663 4.04288L3.51996 4.66937H2.66663C2.13619 4.66937 1.62749 4.88002 1.25241 5.25499C0.87734 5.62995 0.666626 6.13851 0.666626 6.66879V12.0006C0.666626 12.5309 0.87734 13.0394 1.25241 13.4144C1.62749 13.7893 2.13619 14 2.66663 14H12C12.5304 14 13.0391 13.7893 13.4142 13.4144C13.7892 13.0394 14 12.5309 14 12.0006V8.66821C14 8.49145 13.9297 8.32193 13.8047 8.19694C13.6797 8.07195 13.5101 8.00174 13.3333 8.00174Z" fill="currentColor"/>
</svg>
