<svg width="16" height="16" viewBox="0 0 16 16" fill="none" xmlns="http://www.w3.org/2000/svg">
<path fill-rule="evenodd" clip-rule="evenodd" d="M2.75 8C2.75 5.10051 5.10051 2.75 8 2.75C10.8995 2.75 13.25 5.10051 13.25 8C13.25 10.8995 10.8995 13.25 8 13.25C5.10051 13.25 2.75 10.8995 2.75 8ZM8 1.25C4.27208 1.25 1.25 4.27208 1.25 8C1.25 11.7279 4.27208 14.75 8 14.75C11.7279 14.75 14.75 11.7279 14.75 8C14.75 4.27208 11.7279 1.25 8 1.25ZM6.53033 5.46967C6.23744 5.17678 5.76256 5.17678 5.46967 5.46967C5.17678 5.76256 5.17678 6.23744 5.46967 6.53033L6.93934 8L5.46967 9.46967C5.17678 9.76256 5.17678 10.2374 5.46967 10.5303C5.76256 10.8232 6.23744 10.8232 6.53033 10.5303L8 9.06066L9.46967 10.5303C9.76256 10.8232 10.2374 10.8232 10.5303 10.5303C10.8232 10.2374 10.8232 9.76256 10.5303 9.46967L9.06066 8L10.5303 6.53033C10.8232 6.23744 10.8232 5.76256 10.5303 5.46967C10.2374 5.17678 9.76256 5.17678 9.46967 5.46967L8 6.93934L6.53033 5.46967Z" fill="currentColor"/>
</svg>
