<svg width="24" height="24" viewBox="0 0 24 24" fill="none" xmlns="http://www.w3.org/2000/svg">
<path fill-rule="evenodd" clip-rule="evenodd" d="M8.99997 5.95892C8.99997 4.30207 10.3431 2.95892 12 2.95892C13.6568 2.95892 15 4.30207 15 5.95892V12.9589C15 13.5112 14.5523 13.9589 14 13.9589H9.99997C9.44769 13.9589 8.99997 13.5112 8.99997 12.9589V5.95892ZM12 4.95892C11.4477 4.95892 11 5.40664 11 5.95892V11.9589H13V5.95892C13 5.40664 12.5523 4.95892 12 4.95892Z" fill="currentColor"/>
<path fill-rule="evenodd" clip-rule="evenodd" d="M4.99997 12.9589C4.99997 12.4066 5.44769 11.9589 5.99997 11.9589H18C18.5523 11.9589 19 12.4066 19 12.9589V15.9589C19 16.5112 18.5523 16.9589 18 16.9589H5.99997C5.44769 16.9589 4.99997 16.5112 4.99997 15.9589V12.9589ZM6.99997 13.9589V14.9589H17V13.9589H6.99997Z" fill="currentColor"/>
<path fill-rule="evenodd" clip-rule="evenodd" d="M5.05129 15.6427C5.1874 15.2344 5.56954 14.9589 5.99997 14.9589H18C18.4304 14.9589 18.8125 15.2344 18.9487 15.6427L20.5099 20.3265C20.9416 21.6215 19.9777 22.9589 18.6125 22.9589H5.3874C4.02228 22.9589 3.05834 21.6215 3.49003 20.3265L5.05129 15.6427ZM6.72073 16.9589L5.3874 20.9589H18.6125L17.2792 16.9589H6.72073Z" fill="currentColor"/>
<path d="M7.99997 18.9589C7.99997 18.4066 8.44769 17.9589 8.99997 17.9589L-nan -nanL8.99997 17.9589C9.55226 17.9589 9.99997 18.4066 9.99997 18.9589V21.9589H7.99997V18.9589Z" fill="currentColor"/>
<path d="M11 18.9589C11 18.4066 11.4477 17.9589 12 17.9589L-nan -nanL12 17.9589C12.5523 17.9589 13 18.4066 13 18.9589V21.9589H11V18.9589Z" fill="currentColor"/>
<path d="M14 18.9589C14 18.4066 14.4477 17.9589 15 17.9589L-nan -nanL15 17.9589C15.5523 17.9589 16 18.4066 16 18.9589V21.9589H14V18.9589Z" fill="currentColor"/>
</svg>
