<svg width="24" height="24" viewBox="0 0 24 24" fill="none" xmlns="http://www.w3.org/2000/svg">
<path fill-rule="evenodd" clip-rule="evenodd" d="M8 6C6.89543 6 6 6.89543 6 8C6 8.7431 6.40527 9.39154 7.00683 9.73637C7.0023 9.82367 7 9.91157 7 10C7 10.7188 7.15208 11.4028 7.42551 12.0209C6.43604 12.0946 5.62258 12.3607 5.05074 12.7746C4.41452 13.235 4 13.9291 4 15C4 15.5565 4.11227 15.8949 4.24432 16.1092C4.37243 16.3171 4.56643 16.4856 4.87286 16.6227C4.94978 16.6571 5.03125 16.6886 5.11729 16.7173C5.04027 17.1331 5 17.5618 5 18C5 18.2591 5.01427 18.5154 5.04488 18.7675C4.69647 18.6897 4.36385 18.586 4.05607 18.4483C3.45768 18.1806 2.91945 17.7717 2.54153 17.1582C2.16755 16.5512 2 15.8242 2 15C2 13.3095 2.70476 12.0036 3.87819 11.1544C4.20278 10.9194 4.55619 10.7243 4.93087 10.5654C4.34978 9.87094 4 8.97632 4 8C4 5.79086 5.79086 4 8 4C9.0908 4 10.0796 4.43662 10.8012 5.14463C10.051 5.32922 9.36747 5.68314 8.79334 6.16352C8.55012 6.05831 8.28187 6 8 6ZM19.9439 18.4483C19.6362 18.586 19.3035 18.6897 18.9551 18.7675C18.9857 18.5154 19 18.2591 19 18C19 17.5618 18.9597 17.1331 18.8827 16.7173C18.9688 16.6886 19.0502 16.6571 19.1271 16.6227C19.4336 16.4856 19.6276 16.3171 19.7557 16.1092C19.8877 15.8949 20 15.5565 20 15C20 13.9291 19.5855 13.235 18.9493 12.7746C18.3774 12.3607 17.564 12.0946 16.5745 12.0209C16.8479 11.4028 17 10.7188 17 10C17 9.91157 16.9977 9.82367 16.9932 9.73637C17.5947 9.39154 18 8.7431 18 8C18 6.89543 17.1046 6 16 6C15.7181 6 15.4499 6.05831 15.2067 6.16352C14.6325 5.68314 13.949 5.32922 13.1988 5.14463C13.9204 4.43662 14.9092 4 16 4C18.2091 4 20 5.79086 20 8C20 8.97632 19.6502 9.87094 19.0691 10.5654C19.4438 10.7243 19.7972 10.9194 20.1218 11.1544C21.2952 12.0036 22 13.3095 22 15C22 15.8242 21.8324 16.5512 21.4585 17.1582C21.0805 17.7717 20.5423 18.1806 19.9439 18.4483ZM15.0923 12.5753L15.0691 12.5654C15.496 12.0552 15.7981 11.4371 15.9283 10.7578C15.9754 10.5125 16 10.2591 16 10C16 7.79086 14.2091 6 12 6C9.79086 6 8 7.79086 8 10C8 10.2591 8.02464 10.5125 8.07169 10.7578C8.20016 11.4278 8.49576 12.0383 8.91341 12.5444L8.93087 12.5654C8.59693 12.707 8.27991 12.8774 7.98515 13.0791C7.94916 13.1037 7.91351 13.1288 7.87819 13.1544C7.65633 13.3149 7.4512 13.4918 7.2644 13.6846C6.64889 14.3198 6.23249 15.1273 6.07283 16.0898C6.03412 16.3231 6.0105 16.5656 6.00279 16.8169C6.00093 16.8774 6 16.9384 6 17C6 17.8254 6.16801 18.552 6.54152 19.1582C6.91862 19.7703 7.45594 20.1798 8.05607 20.4483C9.18711 20.9544 10.6546 21 12 21C12.6381 21 13.3013 20.9896 13.9425 20.9255C14.659 20.8538 15.348 20.7149 15.9439 20.4483C16.5441 20.1798 17.0814 19.7703 17.4585 19.1582C17.832 18.552 18 17.8254 18 17C18 15.6287 17.5363 14.5109 16.7356 13.6846C16.6722 13.6192 16.6068 13.5556 16.5392 13.4939C16.4077 13.3737 16.2684 13.2605 16.1218 13.1544C15.804 12.9243 15.4584 12.7324 15.0923 12.5753ZM12 8C13.1046 8 14 8.89543 14 10C14 11.1046 13.1046 12 12 12C10.8954 12 10 11.1046 10 10C10 8.89543 10.8954 8 12 8ZM8 17C8 16.0626 8.31763 15.4141 8.82303 14.9584C8.89523 14.8933 8.97126 14.8321 9.05074 14.7746C9.72976 14.2832 10.7495 14 12 14C13.2505 14 14.2702 14.2832 14.9493 14.7746C15.5851 15.2348 16 15.9287 16 17C16 17.4874 15.9139 17.8073 15.804 18.023C15.7883 18.0538 15.7722 18.0825 15.7557 18.1092C15.6279 18.3166 15.4343 18.4853 15.1271 18.6227C15.0419 18.6609 14.9511 18.6953 14.8547 18.7265C14.6756 18.7844 14.4772 18.8308 14.2593 18.8678C14.1253 18.8905 13.984 18.9097 13.8352 18.9258C13.4755 18.9646 13.0727 18.9852 12.6262 18.9942C12.4262 18.9983 12.2175 19 12 19C11.8242 19 11.6542 18.9989 11.4899 18.9963C11.0511 18.9894 10.6531 18.9723 10.2955 18.9389C10.1174 18.9223 9.94928 18.9016 9.79114 18.8761C9.56101 18.8391 9.35202 18.792 9.16402 18.7325C9.06063 18.6998 8.96358 18.6633 8.87286 18.6227C8.56574 18.4853 8.37209 18.3166 8.24432 18.1092C8.1125 17.8952 8 17.557 8 17Z" fill="currentColor"/>
</svg>
