<svg width="32" height="32" viewBox="0 0 32 32" fill="none" xmlns="http://www.w3.org/2000/svg">
<path fill-rule="evenodd" clip-rule="evenodd" d="M10.6667 7C9.00981 7 7.66667 8.34315 7.66667 10C7.66667 11.1779 8.34554 12.1973 9.33337 12.6882C9.33599 13.515 9.48951 14.307 9.76757 15.0374C8.45188 15.1501 7.34239 15.5146 6.5389 16.0961C5.60107 16.7748 5 17.8022 5 19.3333C5 20.1199 5.15891 20.6359 5.3753 20.9871C5.58774 21.3319 5.90379 21.5967 6.36102 21.8012C6.48865 21.8583 6.62425 21.9096 6.76768 21.9555C6.70115 22.4051 6.66667 22.8652 6.66667 23.3333C6.66667 23.5596 6.67483 23.7843 6.69194 24.0069C6.28673 23.9107 5.90147 23.7867 5.54423 23.6269C4.79503 23.2917 4.13476 22.7865 3.6725 22.0362C3.21419 21.2922 3 20.3877 3 19.3333C3 17.1826 3.89131 15.5433 5.36634 14.4758C5.90262 14.0877 6.50404 13.7834 7.15012 13.5544C6.23415 12.6481 5.66667 11.3903 5.66667 10C5.66667 7.23858 7.90524 5 10.6667 5C11.96 5 13.1387 5.49109 14.0264 6.29697C13.2947 6.52344 12.6168 6.87254 12.0168 7.32026C11.611 7.11539 11.1523 7 10.6667 7ZM26.4558 23.6269C26.0985 23.7867 25.7133 23.9107 25.3081 24.0069C25.3252 23.7843 25.3333 23.5596 25.3333 23.3333C25.3333 22.8652 25.2989 22.4051 25.2323 21.9555C25.3758 21.9096 25.5113 21.8583 25.639 21.8012C26.0962 21.5967 26.4123 21.3319 26.6247 20.9871C26.8411 20.6359 27 20.1199 27 19.3333C27 17.8022 26.3989 16.7748 25.4611 16.0961C24.6576 15.5146 23.5481 15.1501 22.2324 15.0374C22.5105 14.307 22.664 13.515 22.6666 12.6882C23.6545 12.1973 24.3333 11.1779 24.3333 10C24.3333 8.34315 22.9902 7 21.3333 7C20.8477 7 20.389 7.11539 19.9832 7.32026C19.3832 6.87254 18.7053 6.52344 17.9736 6.29697C18.8613 5.49109 20.04 5 21.3333 5C24.0948 5 26.3333 7.23858 26.3333 10C26.3333 11.3903 25.7659 12.6481 24.8499 13.5544C25.496 13.7834 26.0974 14.0877 26.6337 14.4758C28.1087 15.5433 29 17.1826 29 19.3333C29 20.3877 28.7858 21.2922 28.3275 22.0362C27.8652 22.7865 27.205 23.2917 26.4558 23.6269ZM12.4645 16.2022C11.9871 15.7248 11.6057 15.1513 11.352 14.5132C11.1249 13.9419 11 13.3189 11 12.6667C11 9.90524 13.2386 7.66667 16 7.66667C18.7614 7.66667 21 9.90524 21 12.6667C21 13.3189 20.8751 13.9419 20.648 14.5132C20.3909 15.1597 20.0028 15.7399 19.5165 16.2211C19.5696 16.2399 19.6223 16.2592 19.6747 16.279C20.261 16.5006 20.8081 16.7863 21.3003 17.1425C21.3173 17.1548 21.3342 17.1672 21.3511 17.1796C22.7954 18.2475 23.6667 19.8735 23.6667 22C23.6667 23.0551 23.4522 23.9594 22.9942 24.7028C22.5324 25.4523 21.8727 25.9578 21.1224 26.2935C20.8715 26.4058 20.6067 26.5004 20.3309 26.5801C19.8197 26.7279 19.2706 26.8243 18.7018 26.887C18.3135 26.9298 17.916 26.9569 17.515 26.9738C17.3508 26.9807 17.186 26.9858 17.0211 26.9897C16.6803 26.9977 16.3388 27 16 27C15.5785 27 15.1529 26.9964 14.7298 26.9828C14.4726 26.9745 14.2164 26.9626 13.9627 26.9454C13.5379 26.9167 13.12 26.8736 12.716 26.8092C12.2687 26.7379 11.8384 26.6405 11.4347 26.5078C11.2426 26.4447 11.0566 26.3736 10.8776 26.2935C10.1273 25.9578 9.46757 25.4523 9.00583 24.7028C8.54783 23.9594 8.33333 23.0551 8.33333 22C8.33333 19.8735 9.20462 18.2475 10.6489 17.1796C10.6658 17.1672 10.6827 17.1548 10.6997 17.1425C10.7444 17.1101 10.7896 17.0783 10.8353 17.0471C11.3366 16.7042 11.8912 16.4309 12.4835 16.2211L12.4645 16.2022ZM16 15.6667C15.1774 15.6667 14.4321 15.3356 13.8901 14.7994C13.3405 14.2556 13 13.5009 13 12.6667C13 11.0098 14.3431 9.66667 16 9.66667C17.6569 9.66667 19 11.0098 19 12.6667C19 13.5009 18.6595 14.2556 18.1099 14.7994C17.5679 15.3356 16.8226 15.6667 16 15.6667ZM20.1278 18.7627C19.1471 18.0531 17.7108 17.6667 16 17.6667C14.2892 17.6667 12.8529 18.0531 11.8722 18.7627C10.9347 19.4412 10.3333 20.4685 10.3333 22C10.3333 22.787 10.4924 23.3028 10.7086 23.6538C10.9208 23.9982 11.2366 24.2631 11.6943 24.4679C12.6774 24.9077 14.1326 25 16 25C17.8674 25 19.3226 24.9077 20.3057 24.4679C20.7634 24.2631 21.0792 23.9982 21.2914 23.6538C21.5076 23.3028 21.6667 22.787 21.6667 22C21.6667 20.4685 21.0653 19.4412 20.1278 18.7627Z" fill="currentColor"/>
</svg>
