<svg width="20" height="18" viewBox="0 0 20 18" fill="none" xmlns="http://www.w3.org/2000/svg">
<path fill-rule="evenodd" clip-rule="evenodd" d="M6 2.95886C4.89543 2.95886 4 3.85429 4 4.95886C4 5.48561 4.20364 5.9648 4.53648 6.322C4.51238 6.53095 4.5 6.74346 4.5 6.95886C4.5 7.31326 4.53372 7.66119 4.59854 7.9992C4.66376 8.33932 4.76022 8.66815 4.88469 8.98257C4.85204 9.00733 4.81964 9.03241 4.78749 9.05779C4.08355 9.18017 3.49442 9.41235 3.05074 9.73344C2.41452 10.1939 2 10.888 2 11.9589C2 12.5153 2.11227 12.8537 2.24432 13.0681C2.31473 13.1823 2.40503 13.2847 2.52296 13.3765C2.51363 13.4933 2.50714 13.611 2.5035 13.7297C2.50116 13.8057 2.5 13.8821 2.5 13.9589C2.5 14.5294 2.56474 15.0973 2.71759 15.644C2.48744 15.5792 2.26598 15.5011 2.05607 15.4072C1.45768 15.1395 0.919451 14.7306 0.541526 14.1171C0.167551 13.5101 0 12.7831 0 11.9589C0 10.2683 0.704765 8.96243 1.87819 8.11322C2.20278 7.87831 2.55619 7.68314 2.93087 7.52425C2.34978 6.8298 2 5.93518 2 4.95886C2 2.74972 3.79086 0.958862 6 0.958862C6.8735 0.958862 7.6816 1.23885 8.33946 1.71398C7.53495 1.96845 6.81044 2.40291 6.2132 2.97009C6.14315 2.96267 6.07202 2.95886 6 2.95886ZM17.9439 15.4072C17.734 15.5011 17.5126 15.5792 17.2824 15.644C17.4353 15.0973 17.5 14.5293 17.5 13.9589C17.5 13.7617 17.4923 13.5675 17.477 13.3765C17.5949 13.2847 17.6853 13.1824 17.7557 13.0681C17.8877 12.8537 18 12.5153 18 11.9589C18 10.888 17.5855 10.1939 16.9493 9.73344C16.5056 9.41235 15.9164 9.18017 15.2125 9.05779C15.1804 9.0324 15.148 9.00733 15.1153 8.98257C15.2398 8.66815 15.3362 8.33932 15.4015 7.9992C15.4663 7.66119 15.5 7.31326 15.5 6.95886C15.5 6.74346 15.4876 6.53095 15.4635 6.322C15.7964 5.9648 16 5.48561 16 4.95886C16 3.85429 15.1046 2.95886 14 2.95886C13.928 2.95886 13.8568 2.96267 13.7868 2.97009C13.1896 2.40291 12.465 1.96845 11.6605 1.71398C12.3184 1.23885 13.1265 0.958862 14 0.958862C16.2091 0.958862 18 2.74972 18 4.95886C18 5.93518 17.6502 6.8298 17.0691 7.52425C17.4438 7.68314 17.7972 7.87831 18.1218 8.11322C19.2952 8.96243 20 10.2683 20 11.9589C20 12.7831 19.8324 13.5101 19.4585 14.1171C19.0805 14.7306 18.5423 15.1395 17.9439 15.4072ZM13.0923 9.53414L13.0691 9.52425C13.496 9.0141 13.7981 8.39593 13.9283 7.7167C13.9754 7.47132 14 7.21797 14 6.95886C14 4.74972 12.2091 2.95886 10 2.95886C7.79086 2.95886 6 4.74972 6 6.95886C6 7.21797 6.02464 7.47132 6.07169 7.7167C6.20016 8.38663 6.49576 8.99716 6.91341 9.50323L6.93087 9.52425C6.59693 9.66586 6.27991 9.83629 5.98515 10.0379C5.94916 10.0626 5.91351 10.0877 5.87819 10.1132C5.65633 10.2738 5.4512 10.4507 5.2644 10.6435C4.64889 11.2787 4.23249 12.0861 4.07283 13.0487C4.03412 13.282 4.0105 13.5244 4.00279 13.7757C4.00093 13.8363 4 13.8973 4 13.9589C4 14.7842 4.16801 15.5108 4.54152 16.1171C4.91862 16.7292 5.45594 17.1387 6.05607 17.4072C7.18711 17.9132 8.65464 17.9589 10 17.9589C10.6381 17.9589 11.3013 17.9485 11.9425 17.8843C12.659 17.8127 13.348 17.6738 13.9439 17.4072C14.5441 17.1387 15.0814 16.7292 15.4585 16.1171C15.832 15.5108 16 14.7842 16 13.9589C16 12.5875 15.5363 11.4697 14.7356 10.6435C14.6722 10.5781 14.6068 10.5145 14.5392 10.4528C14.4077 10.3325 14.2684 10.2193 14.1218 10.1132C13.804 9.88318 13.4584 9.69123 13.0923 9.53414ZM10 4.95886C11.1046 4.95886 12 5.85429 12 6.95886C12 8.06343 11.1046 8.95886 10 8.95886C8.89543 8.95886 8 8.06343 8 6.95886C8 5.85429 8.89543 4.95886 10 4.95886ZM6 13.9589C6 13.0214 6.31763 12.373 6.82303 11.9172C6.89523 11.8521 6.97126 11.791 7.05074 11.7334C7.72976 11.242 8.74947 10.9589 10 10.9589C11.2505 10.9589 12.2702 11.242 12.9493 11.7334C13.5851 12.1936 14 12.8875 14 13.9589C14 14.4463 13.9139 14.7661 13.804 14.9818C13.7883 15.0126 13.7722 15.0413 13.7557 15.0681C13.6279 15.2755 13.4343 15.4442 13.1271 15.5816C13.0419 15.6197 12.9511 15.6542 12.8547 15.6854C12.6756 15.7433 12.4772 15.7897 12.2593 15.8267C12.1253 15.8494 11.984 15.8686 11.8352 15.8846C11.4755 15.9234 11.0727 15.944 10.6262 15.9531C10.4262 15.9571 10.2175 15.9589 10 15.9589C9.82422 15.9589 9.65418 15.9577 9.48985 15.9552C9.05112 15.9483 8.65313 15.9312 8.29554 15.8978C8.1174 15.8811 7.94928 15.8605 7.79114 15.835C7.56101 15.798 7.35202 15.7509 7.16402 15.6914C7.06063 15.6586 6.96358 15.6222 6.87286 15.5816C6.56574 15.4442 6.37209 15.2755 6.24432 15.0681C6.1125 14.8541 6 14.5159 6 13.9589Z" fill="currentColor"/>
</svg>
