<svg width="24" height="25" viewBox="0 0 24 25" fill="none" xmlns="http://www.w3.org/2000/svg">
<path fill-rule="evenodd" clip-rule="evenodd" d="M13 6.08386C12.4477 6.08386 12 6.53158 12 7.08386C12 7.63615 12.4477 8.08386 13 8.08386H20C20.5522 8.08386 21 7.63615 21 7.08386C21 6.53158 20.5522 6.08386 20 6.08386H13ZM8.70709 18.7071C8.31656 19.0976 7.6834 19.0976 7.29288 18.7071L2.29389 13.7081L2.29291 13.7071L2.29289 13.7071C2.19526 13.6094 2.12204 13.4966 2.07322 13.3763C1.92678 13.0151 2 12.5858 2.2929 12.2929L2.29721 12.2886L7.29288 7.29291C7.6834 6.90238 8.31656 6.90238 8.70709 7.29291C9.09761 7.68343 9.09761 8.3166 8.70709 8.70712L5.41421 12H20C20.5522 12 21 12.4477 21 13C21 13.5523 20.5522 14 20 14H5.41423L8.70709 17.2929C9.09762 17.6834 9.09761 18.3166 8.70709 18.7071ZM12 19.0839C12 18.5316 12.4477 18.0839 13 18.0839H20C20.5522 18.0839 21 18.5316 21 19.0839C21 19.6361 20.5522 20.0839 20 20.0839H13C12.4477 20.0839 12 19.6361 12 19.0839Z" fill="currentColor"/>
</svg>
