<svg width="24" height="25" viewBox="0 0 24 25" fill="none" xmlns="http://www.w3.org/2000/svg">
<path fill-rule="evenodd" clip-rule="evenodd" d="M19 5.95886H5L5 19.9589H8.84211H12.1579H13.4737H19V5.95886ZM5 3.95886H19C20.1046 3.95886 21 4.85429 21 5.95886V19.9589C21 21.0634 20.1049 21.9589 19.0003 21.9589H13.4737H12.1579H8.84211H5C3.89543 21.9589 3 21.0634 3 19.9589V5.95886C3 4.85429 3.89543 3.95886 5 3.95886ZM7 8.95886C7 8.40658 7.44771 7.95886 8 7.95886H16C16.5523 7.95886 17 8.40658 17 8.95886C17 9.51115 16.5523 9.95886 16 9.95886H8C7.44771 9.95886 7 9.51115 7 8.95886ZM8 11.9589C7.44771 11.9589 7 12.4066 7 12.9589C7 13.5111 7.44771 13.9589 8 13.9589H12C12.5523 13.9589 13 13.5111 13 12.9589C13 12.4066 12.5523 11.9589 12 11.9589H8Z" fill="currentColor"/>
</svg>
