<svg width="24" height="25" viewBox="0 0 24 25" fill="none" xmlns="http://www.w3.org/2000/svg">
<path fill-rule="evenodd" clip-rule="evenodd" d="M20 6.95886H4V16.9589H4.9C6.0598 16.9589 7 17.8991 7 19.0589V20.0725L10.5768 17.5177C11.0856 17.1542 11.6952 16.9589 12.3205 16.9589H20V6.95886ZM4 4.95886H20C21.1046 4.95886 22 5.85429 22 6.95886V16.9589C22 18.0634 21.1046 18.9589 20 18.9589H12.3205C12.112 18.9589 11.9088 19.024 11.7392 19.1451L6.58124 22.8294C5.91937 23.3022 5 22.829 5 22.0157V19.0589C5 19.0036 4.95523 18.9589 4.9 18.9589H4C2.89543 18.9589 2 18.0634 2 16.9589V6.95886C2 5.85429 2.89543 4.95886 4 4.95886ZM6 9.95886C6 9.40658 6.44772 8.95886 7 8.95886H17C17.5523 8.95886 18 9.40658 18 9.95886C18 10.5111 17.5523 10.9589 17 10.9589H7C6.44772 10.9589 6 10.5111 6 9.95886ZM7 12.9589C6.44772 12.9589 6 13.4066 6 13.9589C6 14.5111 6.44772 14.9589 7 14.9589H14C14.5523 14.9589 15 14.5111 15 13.9589C15 13.4066 14.5523 12.9589 14 12.9589H7Z" fill="currentColor"/>
</svg>
