<svg width="24" height="25" viewBox="0 0 24 25" fill="none" xmlns="http://www.w3.org/2000/svg">
<path fill-rule="evenodd" clip-rule="evenodd" d="M4.38016 10.9805C4.26517 10.7781 4.17258 10.6012 4.10169 10.4589C4.17258 10.3166 4.26517 10.1396 4.38016 9.93723C4.70064 9.37314 5.18876 8.62261 5.85708 7.87566C7.19435 6.38106 9.19398 4.95886 12 4.95886C14.806 4.95886 16.8057 6.38106 18.1429 7.87566C18.8112 8.62261 19.2994 9.37314 19.6198 9.93723C19.7348 10.1396 19.8274 10.3166 19.8983 10.4589C19.8274 10.6012 19.7348 10.7781 19.6198 10.9805C19.2994 11.5446 18.8112 12.2951 18.1429 13.0421C18.0066 13.1944 17.8634 13.346 17.7131 13.4955C17.8566 13.5955 17.9933 13.7095 18.1213 13.8375C18.4972 14.2134 18.7524 14.6642 18.8871 15.1418C19.1559 14.8888 19.4045 14.6315 19.6334 14.3757C20.419 13.4976 20.9868 12.6231 21.3588 11.9685C21.5453 11.6401 21.6842 11.3643 21.7778 11.1671C21.8247 11.0684 21.8603 10.9892 21.885 10.9327C21.8974 10.9044 21.9071 10.8818 21.914 10.8653L21.9225 10.845L21.9252 10.8384L21.9262 10.836L21.9266 10.835C21.9268 10.8345 21.9269 10.8341 21 10.4589L21.9269 10.8341C22.0244 10.5934 22.0244 10.3243 21.9269 10.0836L21 10.4589C21.9269 10.0836 21.9268 10.0832 21.9266 10.0828L21.9262 10.0818L21.9252 10.0793L21.9225 10.0727L21.914 10.0525C21.9071 10.0359 21.8974 10.0133 21.885 9.98503C21.8603 9.92852 21.8247 9.8493 21.7778 9.75063C21.6842 9.55344 21.5453 9.27759 21.3588 8.94925C20.9868 8.29459 20.419 7.42012 19.6334 6.54207C18.0628 4.78666 15.5624 2.95886 12 2.95886C8.43759 2.95886 5.93722 4.78666 4.3666 6.54207C3.58097 7.42012 3.01317 8.29459 2.64122 8.94925C2.45467 9.27759 2.31581 9.55344 2.22218 9.75063C2.17533 9.8493 2.13968 9.92852 2.11496 9.98503C2.10259 10.0133 2.09294 10.0359 2.08598 10.0525L2.07754 10.0727L2.07481 10.0793L2.07382 10.0818L2.07342 10.0828C2.07325 10.0832 2.07308 10.0836 3 10.4589L2.07308 10.0836C1.97564 10.3243 1.97564 10.5934 2.07308 10.8341L3 10.4589C2.07308 10.8341 2.07325 10.8345 2.07342 10.835L2.07382 10.836L2.07481 10.8384L2.07754 10.845L2.08598 10.8653C2.09294 10.8818 2.10259 10.9044 2.11496 10.9327C2.13968 10.9892 2.17533 11.0684 2.22218 11.1671C2.31581 11.3643 2.45467 11.6401 2.64122 11.9685L2.64741 11.9794C2.76306 11.9658 2.88072 11.9589 3 11.9589H4.99949C4.74875 11.6013 4.54285 11.2669 4.38016 10.9805ZM15 10.4589C15 11.6201 14.3403 12.6271 13.3752 13.1258C13.2978 13.0257 13.2131 12.9294 13.1213 12.8375L10.1213 9.83754C9.86415 9.58037 9.57191 9.37966 9.25999 9.23539C9.72821 8.18841 10.7789 7.45887 12 7.45887C13.6568 7.45887 15 8.80202 15 10.4589ZM7.29289 11.2518C7.68342 10.8612 8.31658 10.8612 8.70711 11.2518L11.7063 14.2509L11.7071 14.2518C12.0976 14.6423 12.0976 15.2754 11.7071 15.666L11.7065 15.6666L8.70711 18.666C8.31658 19.0565 7.68342 19.0565 7.29289 18.666C6.90237 18.2754 6.90237 17.6423 7.29289 17.2518L8.58579 15.9589H3C2.44772 15.9589 2 15.5111 2 14.9589C2 14.4066 2.44772 13.9589 3 13.9589H8.58579L7.29289 12.666C6.90237 12.2754 6.90237 11.6423 7.29289 11.2518ZM16.7071 22.666C16.3166 23.0565 15.6834 23.0565 15.2929 22.666L12.2937 19.6668L12.2929 19.666C11.9024 19.2754 11.9024 18.6423 12.2929 18.2518L12.2935 18.2512L15.2929 15.2518C15.6834 14.8612 16.3166 14.8612 16.7071 15.2518C17.0976 15.6423 17.0976 16.2754 16.7071 16.666L15.4142 17.9589H21C21.5523 17.9589 22 18.4066 22 18.9589C22 19.5111 21.5523 19.9589 21 19.9589H15.4142L16.7071 21.2518C17.0976 21.6423 17.0976 22.2754 16.7071 22.666Z" fill="currentColor"/>
<path fill-rule="evenodd" clip-rule="evenodd" d="M4.38016 10.9805C4.26517 10.7781 4.17258 10.6012 4.10169 10.4589C4.17258 10.3166 4.26517 10.1396 4.38016 9.93723C4.70064 9.37314 5.18876 8.62261 5.85708 7.87566C7.19435 6.38106 9.19398 4.95886 12 4.95886C14.806 4.95886 16.8057 6.38106 18.1429 7.87566C18.8112 8.62261 19.2994 9.37314 19.6198 9.93723C19.7348 10.1396 19.8274 10.3166 19.8983 10.4589C19.8274 10.6012 19.7348 10.7781 19.6198 10.9805C19.2994 11.5446 18.8112 12.2951 18.1429 13.0421C18.0066 13.1944 17.8634 13.346 17.7131 13.4955C17.8566 13.5955 17.9933 13.7095 18.1213 13.8375C18.4972 14.2134 18.7524 14.6642 18.8871 15.1418C19.1559 14.8888 19.4045 14.6315 19.6334 14.3757C20.419 13.4976 20.9868 12.6231 21.3588 11.9685C21.5453 11.6401 21.6842 11.3643 21.7778 11.1671C21.8247 11.0684 21.8603 10.9892 21.885 10.9327C21.8974 10.9044 21.9071 10.8818 21.914 10.8653L21.9225 10.845L21.9252 10.8384L21.9262 10.836L21.9266 10.835C21.9268 10.8345 21.9269 10.8341 21 10.4589L21.9269 10.8341C22.0244 10.5934 22.0244 10.3243 21.9269 10.0836L21 10.4589C21.9269 10.0836 21.9268 10.0832 21.9266 10.0828L21.9262 10.0818L21.9252 10.0793L21.9225 10.0727L21.914 10.0525C21.9071 10.0359 21.8974 10.0133 21.885 9.98503C21.8603 9.92852 21.8247 9.8493 21.7778 9.75063C21.6842 9.55344 21.5453 9.27759 21.3588 8.94925C20.9868 8.29459 20.419 7.42012 19.6334 6.54207C18.0628 4.78666 15.5624 2.95886 12 2.95886C8.43759 2.95886 5.93722 4.78666 4.3666 6.54207C3.58097 7.42012 3.01317 8.29459 2.64122 8.94925C2.45467 9.27759 2.31581 9.55344 2.22218 9.75063C2.17533 9.8493 2.13968 9.92852 2.11496 9.98503C2.10259 10.0133 2.09294 10.0359 2.08598 10.0525L2.07754 10.0727L2.07481 10.0793L2.07382 10.0818L2.07342 10.0828C2.07325 10.0832 2.07308 10.0836 3 10.4589L2.07308 10.0836C1.97564 10.3243 1.97564 10.5934 2.07308 10.8341L3 10.4589C2.07308 10.8341 2.07325 10.8345 2.07342 10.835L2.07382 10.836L2.07481 10.8384L2.07754 10.845L2.08598 10.8653C2.09294 10.8818 2.10259 10.9044 2.11496 10.9327C2.13968 10.9892 2.17533 11.0684 2.22218 11.1671C2.31581 11.3643 2.45467 11.6401 2.64122 11.9685L2.64741 11.9794C2.76306 11.9658 2.88072 11.9589 3 11.9589H4.99949C4.74875 11.6013 4.54285 11.2669 4.38016 10.9805ZM15 10.4589C15 11.6201 14.3403 12.6271 13.3752 13.1258C13.2978 13.0257 13.2131 12.9294 13.1213 12.8375L10.1213 9.83754C9.86415 9.58037 9.57191 9.37966 9.25999 9.23539C9.72821 8.18841 10.7789 7.45887 12 7.45887C13.6568 7.45887 15 8.80202 15 10.4589ZM7.29289 11.2518C7.68342 10.8612 8.31658 10.8612 8.70711 11.2518L11.7063 14.2509L11.7071 14.2518C12.0976 14.6423 12.0976 15.2754 11.7071 15.666L11.7065 15.6666L8.70711 18.666C8.31658 19.0565 7.68342 19.0565 7.29289 18.666C6.90237 18.2754 6.90237 17.6423 7.29289 17.2518L8.58579 15.9589H3C2.44772 15.9589 2 15.5111 2 14.9589C2 14.4066 2.44772 13.9589 3 13.9589H8.58579L7.29289 12.666C6.90237 12.2754 6.90237 11.6423 7.29289 11.2518ZM16.7071 22.666C16.3166 23.0565 15.6834 23.0565 15.2929 22.666L12.2937 19.6668L12.2929 19.666C11.9024 19.2754 11.9024 18.6423 12.2929 18.2518L12.2935 18.2512L15.2929 15.2518C15.6834 14.8612 16.3166 14.8612 16.7071 15.2518C17.0976 15.6423 17.0976 16.2754 16.7071 16.666L15.4142 17.9589H21C21.5523 17.9589 22 18.4066 22 18.9589C22 19.5111 21.5523 19.9589 21 19.9589H15.4142L16.7071 21.2518C17.0976 21.6423 17.0976 22.2754 16.7071 22.666Z" fill="currentColor"/>
</svg>
