<svg width="24" height="24" viewBox="0 0 24 24" fill="none" xmlns="http://www.w3.org/2000/svg">
<path fill-rule="evenodd" clip-rule="evenodd" d="M4 3.5C4 2.67157 4.67157 2 5.5 2H18.5C19.3284 2 20 2.67157 20 3.5V21.5C20 22.3284 19.3284 23 18.5 23H5.5C4.67157 23 4 22.3284 4 21.5V3.5ZM6 4V21H13V16.2C13 16.0895 13.0895 16 13.2 16H15.8C15.9105 16 16 16.0895 16 16.2V21H18V4H6ZM8 6.2C8 6.08954 8.08954 6 8.2 6H10.8C10.9105 6 11 6.08954 11 6.2V8.8C11 8.91046 10.9105 9 10.8 9H8.2C8.08954 9 8 8.91046 8 8.8V6.2ZM13.2 6C13.0895 6 13 6.08954 13 6.2V8.8C13 8.91046 13.0895 9 13.2 9H15.8C15.9105 9 16 8.91046 16 8.8V6.2C16 6.08954 15.9105 6 15.8 6H13.2ZM8 11.2C8 11.0895 8.08954 11 8.2 11H10.8C10.9105 11 11 11.0895 11 11.2V13.8C11 13.9105 10.9105 14 10.8 14H8.2C8.08954 14 8 13.9105 8 13.8V11.2ZM8.2 16C8.08954 16 8 16.0895 8 16.2V18.8C8 18.9105 8.08954 19 8.2 19H10.8C10.9105 19 11 18.9105 11 18.8V16.2C11 16.0895 10.9105 16 10.8 16H8.2ZM13 11.2C13 11.0895 13.0895 11 13.2 11H15.8C15.9105 11 16 11.0895 16 11.2V13.8C16 13.9105 15.9105 14 15.8 14H13.2C13.0895 14 13 13.9105 13 13.8V11.2Z" fill="currentColor"/>
</svg>
