<svg width="16" height="16" viewBox="0 0 16 16" fill="none" xmlns="http://www.w3.org/2000/svg">
<path fill-rule="evenodd" clip-rule="evenodd" d="M4.16671 2.02742C3.61442 2.02742 3.16671 2.47514 3.16671 3.02742V13.3608H2.00004C1.63185 13.3608 1.33337 13.6592 1.33337 14.0274C1.33337 14.3956 1.63185 14.6941 2.00004 14.6941H4.16671H11.8334H14C14.3682 14.6941 14.6667 14.3956 14.6667 14.0274C14.6667 13.6592 14.3682 13.3608 14 13.3608H12.8334V3.02742C12.8334 2.47513 12.3857 2.02742 11.8334 2.02742H4.16671ZM11.5 13.3608V3.36075H4.50004V13.3608H8.50004V10.1608C8.50004 10.0871 8.55974 10.0274 8.63337 10.0274H10.3667C10.4403 10.0274 10.5 10.0871 10.5 10.1608V13.3608H11.5ZM5.63337 4.02742C5.55974 4.02742 5.50004 4.08712 5.50004 4.16075V5.89409C5.50004 5.96772 5.55974 6.02742 5.63337 6.02742H7.36671C7.44035 6.02742 7.50004 5.96772 7.50004 5.89409V4.16075C7.50004 4.08712 7.44035 4.02742 7.36671 4.02742H5.63337ZM5.50004 7.13333C5.50004 7.05969 5.55974 7 5.63337 7H7.36671C7.44035 7 7.50004 7.05969 7.50004 7.13333V8.86666C7.50004 8.9403 7.44035 9 7.36671 9H5.63337C5.55974 9 5.50004 8.9403 5.50004 8.86666V7.13333ZM5.63337 10.0274C5.55974 10.0274 5.50004 10.0871 5.50004 10.1608V11.8941C5.50004 11.9677 5.55974 12.0274 5.63337 12.0274H7.36671C7.44035 12.0274 7.50004 11.9677 7.50004 11.8941V10.1608C7.50004 10.0871 7.44035 10.0274 7.36671 10.0274H5.63337ZM8.63337 4.02742C8.55974 4.02742 8.50004 4.08712 8.50004 4.16075V5.89409C8.50004 5.96772 8.55974 6.02742 8.63337 6.02742H10.3667C10.4403 6.02742 10.5 5.96772 10.5 5.89409V4.16075C10.5 4.08712 10.4403 4.02742 10.3667 4.02742H8.63337ZM8.50004 7.13333C8.50004 7.05969 8.55974 7 8.63337 7H10.3667C10.4403 7 10.5 7.05969 10.5 7.13333V8.86666C10.5 8.9403 10.4403 9 10.3667 9H8.63337C8.55974 9 8.50004 8.9403 8.50004 8.86666V7.13333Z" fill="currentColor"/>
</svg>
