<svg width="24" height="25" viewBox="0 0 24 25" fill="none" xmlns="http://www.w3.org/2000/svg">
<path fill-rule="evenodd" clip-rule="evenodd" d="M10.4852 7.69292L8.6598 5.86747C8.7719 5.8583 8.88535 5.85362 8.99997 5.85362C11.2672 5.85362 13.1052 7.69161 13.1052 9.95889C13.1052 12.2262 11.2672 14.0642 8.99997 14.0642C6.7327 14.0642 4.89471 12.2262 4.89471 9.95889C4.89471 9.84427 4.89939 9.73083 4.90855 9.61873L6.73399 11.4442C7.76987 12.4801 9.44937 12.4801 10.4852 11.4442C11.5211 10.4083 11.5211 8.7288 10.4852 7.69292ZM8.07377 10.1044L5.12613 7.15675L5.11435 7.14472C4.65504 6.66545 3.858 6.79495 3.57405 7.39498C3.20559 8.17359 2.99997 9.04354 2.99997 9.95889C2.99997 13.2726 5.68627 15.9589 8.99997 15.9589C9.55379 15.9589 10.0901 15.8839 10.5992 15.7434L15.936 21.0801C17.1076 22.2517 19.0071 22.2517 20.1786 21.0801C21.3502 19.9086 21.3502 18.0091 20.1786 16.8375L14.8087 11.4676C14.9335 10.9855 15 10.48 15 9.95889C15 6.64518 12.3137 3.95889 8.99997 3.95889C8.08462 3.95889 7.21465 4.16451 6.43605 4.53298C5.83601 4.81693 5.70652 5.61397 6.18579 6.07328L6.19781 6.08505L9.14546 9.0327C9.4414 9.32864 9.4414 9.80845 9.14546 10.1044C8.84952 10.4003 8.36971 10.4003 8.07377 10.1044ZM13.9145 13.4018L18.7644 18.2517C19.155 18.6422 19.155 19.2754 18.7644 19.6659C18.3739 20.0565 17.7407 20.0565 17.3502 19.6659L12.5099 14.8257C13.0537 14.4328 13.529 13.9511 13.9145 13.4018Z" fill="currentColor"/>
</svg>
