<svg width="24" height="25" viewBox="0 0 24 25" fill="none" xmlns="http://www.w3.org/2000/svg">
<path fill-rule="evenodd" clip-rule="evenodd" d="M5 3.95886C3.89543 3.95886 3 4.85429 3 5.95886V13.9589C3 14.5111 3.44772 14.9589 4 14.9589C4.55228 14.9589 5 14.5111 5 13.9589V5.95886H13C13.5523 5.95886 14 5.51115 14 4.95886C14 4.40658 13.5523 3.95886 13 3.95886H5ZM9 8C7.89543 8 7 8.89543 7 10V19C7 20.1046 7.89543 21 9 21H18C19.1046 21 20 20.1046 20 19V10C20 8.89543 19.1046 8 18 8H9ZM9 10H18L18 19H9V10Z" fill="currentColor"/>
</svg>
