<svg width="24" height="25" viewBox="0 0 24 25" fill="none" xmlns="http://www.w3.org/2000/svg">
<path fill-rule="evenodd" clip-rule="evenodd" d="M7.07124 6.65704C8.42966 5.59311 10.1408 4.95886 12 4.95886C16.4183 4.95886 20 8.54058 20 12.9589C20 14.8182 19.3657 16.5293 18.3017 17.8877L7.07124 6.65704ZM5.66219 8.07641C4.61996 9.4273 4 11.1207 4 12.9589C4 17.3771 7.58172 20.9589 12 20.9589C13.8381 20.9589 15.5315 20.3389 16.8823 19.2968L5.66219 8.07641ZM12 2.95886C6.47715 2.95886 2 7.43601 2 12.9589C2 18.4817 6.47715 22.9589 12 22.9589C17.5228 22.9589 22 18.4817 22 12.9589C22 7.43601 17.5228 2.95886 12 2.95886Z" fill="currentColor"/>
</svg>
