<svg width="24" height="25" viewBox="0 0 24 25" fill="none" xmlns="http://www.w3.org/2000/svg">
<path fill-rule="evenodd" clip-rule="evenodd" d="M10 2.95886C9.46957 2.95886 8.96086 3.16958 8.58579 3.54465C8.21071 3.91972 8 4.42843 8 4.95886V6.95886H5.01169H4.99054H4C3.44772 6.95886 3 7.40658 3 7.95886C3 8.51115 3.44772 8.95886 4 8.95886H4.07987L5.00035 20.0046C5.01222 20.7837 5.32687 21.5284 5.87868 22.0802C6.44129 22.6428 7.20435 22.9589 8 22.9589H16C16.7957 22.9589 17.5587 22.6428 18.1213 22.0802C18.6731 21.5284 18.9878 20.7837 18.9997 20.0046L19.9201 8.95886H20C20.5523 8.95886 21 8.51115 21 7.95886C21 7.40658 20.5523 6.95886 20 6.95886H19.0095H18.9883H16V4.95886C16 4.42843 15.7893 3.91972 15.4142 3.54465C15.0391 3.16958 14.5304 2.95886 14 2.95886H10ZM14 6.95886V4.95886H10V6.95886H14ZM9 8.95886H6.0868L6.99655 19.8758C6.99885 19.9034 7 19.9311 7 19.9589C7 20.2241 7.10536 20.4784 7.29289 20.666C7.48043 20.8535 7.73478 20.9589 8 20.9589H16C16.2652 20.9589 16.5196 20.8535 16.7071 20.666C16.8946 20.4784 17 20.2241 17 19.9589C17 19.9311 17.0012 19.9034 17.0035 19.8758L17.9132 8.95886H15H9ZM10 10.9589C10.5523 10.9589 11 11.4066 11 11.9589V17.9589C11 18.5111 10.5523 18.9589 10 18.9589C9.44772 18.9589 9 18.5111 9 17.9589V11.9589C9 11.4066 9.44772 10.9589 10 10.9589ZM15 11.9589C15 11.4066 14.5523 10.9589 14 10.9589C13.4477 10.9589 13 11.4066 13 11.9589V17.9589C13 18.5111 13.4477 18.9589 14 18.9589C14.5523 18.9589 15 18.5111 15 17.9589V11.9589Z" fill="currentColor"/>
</svg>
