<svg width="16" height="14" viewBox="0 0 16 14" fill="none" xmlns="http://www.w3.org/2000/svg">
<path fill-rule="evenodd" clip-rule="evenodd" d="M1 0.75C0.447715 0.75 0 1.19772 0 1.75C0 2.30228 0.447715 2.75 1 2.75H15C15.5523 2.75 16 2.30228 16 1.75C16 1.19772 15.5523 0.75 15 0.75H1ZM1 11.25C0.447715 11.25 0 11.6977 0 12.25C0 12.8023 0.447715 13.25 1 13.25H15C15.5523 13.25 16 12.8023 16 12.25C16 11.6977 15.5523 11.25 15 11.25H1ZM0 5.25C0 4.69772 0.447715 4.25 1 4.25H15C15.5523 4.25 16 4.69772 16 5.25C16 5.80228 15.5523 6.25 15 6.25H1C0.447715 6.25 0 5.80228 0 5.25ZM1 7.75C0.447715 7.75 0 8.19772 0 8.75C0 9.30229 0.447715 9.75 1 9.75H15C15.5523 9.75 16 9.30229 16 8.75C16 8.19772 15.5523 7.75 15 7.75H1Z" fill="currentColor"/>
</svg>
