<svg width="24" height="25" viewBox="0 0 24 25" fill="none" xmlns="http://www.w3.org/2000/svg">
<path fill-rule="evenodd" clip-rule="evenodd" d="M4.38016 13.5216C4.26517 13.3192 4.17258 13.1423 4.10169 13C4.17258 12.8577 4.26517 12.6808 4.38016 12.4784C4.70064 11.9143 5.18876 11.1637 5.85708 10.4168C7.19435 8.9222 9.19398 7.5 12 7.5C14.806 7.5 16.8057 8.9222 18.1429 10.4168C18.8112 11.1637 19.2994 11.9143 19.6198 12.4784C19.7348 12.6808 19.8274 12.8577 19.8983 13C19.8274 13.1423 19.7348 13.3192 19.6198 13.5216C19.2994 14.0857 18.8112 14.8363 18.1429 15.5832C16.8057 17.0778 14.806 18.5 12 18.5C9.19398 18.5 7.19435 17.0778 5.85708 15.5832C5.18876 14.8363 4.70064 14.0857 4.38016 13.5216ZM21.9266 12.6239C21.9268 12.6243 21.9269 12.6247 21 13C21.9269 13.3753 21.9268 13.3757 21.9266 13.3761L21.9262 13.3771L21.9252 13.3795L21.9225 13.3861L21.914 13.4064C21.9071 13.423 21.8974 13.4456 21.885 13.4738C21.8603 13.5303 21.8247 13.6096 21.7778 13.7082C21.6842 13.9054 21.5453 14.1813 21.3588 14.5096C20.9868 15.1643 20.419 16.0387 19.6334 16.9168C18.0628 18.6722 15.5624 20.5 12 20.5C8.43759 20.5 5.93722 18.6722 4.3666 16.9168C3.58097 16.0387 3.01317 15.1643 2.64122 14.5096C2.45467 14.1813 2.31581 13.9054 2.22218 13.7082C2.17533 13.6096 2.13968 13.5303 2.11496 13.4738C2.10259 13.4456 2.09294 13.423 2.08598 13.4064L2.07754 13.3861L2.07481 13.3795L2.07382 13.3771L2.07342 13.3761C2.07325 13.3757 2.07308 13.3753 3 13C2.07308 12.6247 2.07325 12.6243 2.07342 12.6239L2.07382 12.6229L2.07481 12.6205L2.07754 12.6139L2.08598 12.5936C2.09294 12.577 2.10259 12.5544 2.11496 12.5262C2.13968 12.4697 2.17533 12.3904 2.22218 12.2918C2.31581 12.0946 2.45467 11.8187 2.64122 11.4904C3.01317 10.8357 3.58097 9.96126 4.3666 9.08321C5.93722 7.3278 8.43759 5.5 12 5.5C15.5624 5.5 18.0628 7.3278 19.6334 9.08321C20.419 9.96126 20.9868 10.8357 21.3588 11.4904C21.5453 11.8187 21.6842 12.0946 21.7778 12.2918C21.8247 12.3904 21.8603 12.4697 21.885 12.5262C21.8974 12.5544 21.9071 12.577 21.914 12.5936L21.9225 12.6139L21.9252 12.6205L21.9262 12.6229L21.9266 12.6239ZM21 13L21.9269 12.6247C22.0244 12.8654 22.0244 13.1346 21.9269 13.3753L21 13ZM2.07308 12.6247L3 13L2.07308 13.3753C1.97564 13.1346 1.97564 12.8654 2.07308 12.6247ZM15 13C15 14.6569 13.6568 16 12 16C10.3431 16 8.99999 14.6569 8.99999 13C8.99999 11.3432 10.3431 10 12 10C13.6568 10 15 11.3432 15 13Z" fill="currentColor"/>
</svg>
