<svg width="24" height="25" viewBox="0 0 24 25" fill="none" xmlns="http://www.w3.org/2000/svg">
<path fill-rule="evenodd" clip-rule="evenodd" d="M9 8.45886C7.61929 8.45886 6.5 9.57815 6.5 10.9589C6.5 12.3396 7.61929 13.4589 9 13.4589C10.3807 13.4589 11.5 12.3396 11.5 10.9589C11.5 9.57815 10.3807 8.45886 9 8.45886ZM8.5 10.9589C8.5 10.6827 8.72386 10.4589 9 10.4589C9.27614 10.4589 9.5 10.6827 9.5 10.9589C9.5 11.235 9.27614 11.4589 9 11.4589C8.72386 11.4589 8.5 11.235 8.5 10.9589Z" fill="currentColor"/>
<path fill-rule="evenodd" clip-rule="evenodd" d="M15 14.4589C13.6193 14.4589 12.5 15.5782 12.5 16.9589C12.5 18.3396 13.6193 19.4589 15 19.4589C16.3807 19.4589 17.5 18.3396 17.5 16.9589C17.5 15.5782 16.3807 14.4589 15 14.4589ZM14.5 16.9589C14.5 16.6827 14.7239 16.4589 15 16.4589C15.2761 16.4589 15.5 16.6827 15.5 16.9589C15.5 17.235 15.2761 17.4589 15 17.4589C14.7239 17.4589 14.5 17.235 14.5 16.9589Z" fill="currentColor"/>
<path d="M7.29292 18.7071C6.9024 18.3166 6.9024 17.6834 7.29292 17.2929L15.2929 9.29289C15.6834 8.90237 16.3166 8.90237 16.7071 9.29289C17.0977 9.68342 17.0977 10.3166 16.7071 10.7071L8.70714 18.7071C8.31661 19.0976 7.68345 19.0976 7.29292 18.7071Z" fill="currentColor"/>
<path fill-rule="evenodd" clip-rule="evenodd" d="M3 9.7241V21C3 22.1046 3.89543 23 5 23H19C20.1046 23 21 22.1046 21 21V9.7241C21 9.25623 20.836 8.80316 20.5364 8.44373L16.5997 3.71963C16.2197 3.26365 15.6568 3 15.0632 3H8.93675C8.34319 3 7.7803 3.26365 7.40031 3.71963L3.46356 8.44373C3.16403 8.80316 3 9.25623 3 9.7241ZM5 21L5 9.7241L8.93675 5L15.0632 5L19 9.7241L19 21H5Z" fill="currentColor"/>
</svg>
