<svg width="24" height="24" viewBox="0 0 24 24" fill="none" xmlns="http://www.w3.org/2000/svg">
<path d="M7.20711 16.7929C7.59763 17.1834 7.59763 17.8166 7.20711 18.2071C6.81658 18.5976 6.18342 18.5976 5.79289 18.2071L7.20711 16.7929ZM2.79289 15.2071C2.40237 14.8166 2.40237 14.1834 2.79289 13.7929C3.18342 13.4024 3.81658 13.4024 4.20711 13.7929L2.79289 15.2071ZM5.79289 18.2071L2.79289 15.2071L4.20711 13.7929L7.20711 16.7929L5.79289 18.2071Z" fill="currentColor"/>
<path d="M13.5 13.5C14.0523 13.5 14.5 13.9477 14.5 14.5C14.5 15.0523 14.0523 15.5 13.5 15.5V13.5ZM3.5 15.5C2.94771 15.5 2.5 15.0523 2.5 14.5C2.5 13.9477 2.94771 13.5 3.5 13.5V15.5ZM13.5 15.5H3.5V13.5H13.5V15.5Z" fill="currentColor"/>
<path d="M5.79289 10.7929C6.18342 10.4024 6.81658 10.4024 7.20711 10.7929C7.59763 11.1834 7.59763 11.8166 7.20711 12.2071L5.79289 10.7929ZM4.20711 15.2071C3.81658 15.5976 3.18342 15.5976 2.79289 15.2071C2.40237 14.8166 2.40237 14.1834 2.79289 13.7929L4.20711 15.2071ZM7.20711 12.2071L4.20711 15.2071L2.79289 13.7929L5.79289 10.7929L7.20711 12.2071Z" fill="currentColor"/>
<path d="M15.7929 20.7929C15.4024 21.1834 15.4024 21.8166 15.7929 22.2071C16.1834 22.5976 16.8166 22.5976 17.2071 22.2071L15.7929 20.7929ZM20.2071 19.2071C20.5976 18.8166 20.5976 18.1834 20.2071 17.7929C19.8166 17.4024 19.1834 17.4024 18.7929 17.7929L20.2071 19.2071ZM17.2071 22.2071L20.2071 19.2071L18.7929 17.7929L15.7929 20.7929L17.2071 22.2071Z" fill="currentColor"/>
<path d="M17.2071 14.7929C16.8166 14.4024 16.1834 14.4024 15.7929 14.7929C15.4024 15.1834 15.4024 15.8166 15.7929 16.2071L17.2071 14.7929ZM18.7929 19.2071C19.1834 19.5976 19.8166 19.5976 20.2071 19.2071C20.5976 18.8166 20.5976 18.1834 20.2071 17.7929L18.7929 19.2071ZM15.7929 16.2071L18.7929 19.2071L20.2071 17.7929L17.2071 14.7929L15.7929 16.2071Z" fill="currentColor"/>
<path d="M9.5 17.5C8.94772 17.5 8.5 17.9477 8.5 18.5C8.5 19.0523 8.94772 19.5 9.5 19.5V17.5ZM19.5 19.5C20.0523 19.5 20.5 19.0523 20.5 18.5C20.5 17.9477 20.0523 17.5 19.5 17.5V19.5ZM9.5 19.5H19.5V17.5H9.5V19.5Z" fill="currentColor"/>
<path d="M10.5 8.5H20.5" stroke="currentColor" stroke-width="2" stroke-linecap="round"/>
<path d="M20.5 12.5V5.5C20.5 4.94772 20.0523 4.5 19.5 4.5H14C13.7239 4.5 13.5 4.27614 13.5 4V3.5C13.5 2.94772 13.0523 2.5 12.5 2.5H5.5C4.94772 2.5 4.5 2.94772 4.5 3.5V8.5" stroke="currentColor" stroke-width="2" stroke-linecap="round"/>
</svg>
