<svg width="32" height="32" viewBox="0 0 32 32" fill="none" xmlns="http://www.w3.org/2000/svg">
<path fill-rule="evenodd" clip-rule="evenodd" d="M7.00005 3C5.89548 3 5.00005 3.89543 5.00005 5V12C5.00005 12.5523 5.44776 13 6.00005 13C6.55233 13 7.00005 12.5523 7.00005 12V5H18V6.5C18 7.32843 18.6716 8 19.5 8H27V11H14.2286C13.6763 11 13.2286 11.4477 13.2286 12C13.2286 12.5523 13.6763 13 14.2286 13H27V17C27 17.5523 27.4478 18 28 18C28.5523 18 29 17.5523 29 17V8C29 6.89543 28.1046 6 27 6H20V5C20 3.89543 19.1046 3 18 3H7.00005ZM9.92438 14.3103C9.5435 13.9104 8.91052 13.895 8.51059 14.2759L4.31595 18.2708C4.30834 18.2779 4.30082 18.2852 4.29339 18.2926C4.0985 18.4872 4.00028 18.7434 4.00024 19C4.00022 19.1468 4.03232 19.2937 4.09683 19.4294C4.14467 19.5301 4.21023 19.6243 4.2934 19.7074C4.30083 19.7148 4.30834 19.7221 4.31595 19.7292L8.51059 23.7241C8.91052 24.105 9.5435 24.0896 9.92438 23.6897C10.3053 23.2897 10.2898 22.6567 9.8899 22.2759L7.50025 20H19C19.5523 20 20 19.5523 20 19C20 18.4477 19.5523 18 19 18H7.50025L9.8899 15.7241C10.2898 15.3433 10.3053 14.7103 9.92438 14.3103ZM23.4895 19.2759C23.0896 18.895 22.4566 18.9104 22.0757 19.3103C21.6948 19.7103 21.7103 20.3433 22.1102 20.7241L24.4999 23H13C12.4478 23 12 23.4477 12 24C12 24.5523 12.4478 25 13 25H24.4999L22.1102 27.2759C21.7103 27.6567 21.6948 28.2897 22.0757 28.6897C22.4566 29.0896 23.0896 29.105 23.4895 28.7241L27.6782 24.7349C27.8761 24.5522 28 24.2906 28 24C28 23.7091 27.8758 23.4471 27.6775 23.2644L23.4895 19.2759Z" fill="currentColor"/>
</svg>
