<svg width="24" height="25" viewBox="0 0 24 25" fill="none" xmlns="http://www.w3.org/2000/svg">
<path fill-rule="evenodd" clip-rule="evenodd" d="M7 2.95886C5.89543 2.95886 5 3.85429 5 4.95886V9.95886V17.9589V20.9589C5 22.0634 5.89543 22.9589 7 22.9589H17C18.1046 22.9589 19 22.0634 19 20.9589V9.37308C19 8.84264 18.7893 8.33394 18.4142 7.95886L14 3.54465C13.6249 3.16958 13.1162 2.95886 12.5858 2.95886H7ZM7 4.95886H12.5858L17 9.37308V20.9589H7V17.9589V9.95886V4.95886ZM9.5 16.4589C8.94772 16.4589 8.5 16.9066 8.5 17.4589C8.5 18.0111 8.94772 18.4589 9.5 18.4589H12C12.5523 18.4589 13 18.0111 13 17.4589C13 16.9066 12.5523 16.4589 12 16.4589H9.5ZM8.5 13.9589C8.5 13.4066 8.94772 12.9589 9.5 12.9589H14.5C15.0523 12.9589 15.5 13.4066 15.5 13.9589C15.5 14.5111 15.0523 14.9589 14.5 14.9589H9.5C8.94772 14.9589 8.5 14.5111 8.5 13.9589ZM9.5 9.45886C8.94772 9.45886 8.5 9.90658 8.5 10.4589C8.5 11.0111 8.94772 11.4589 9.5 11.4589H13.5C14.0523 11.4589 14.5 11.0111 14.5 10.4589C14.5 9.90658 14.0523 9.45886 13.5 9.45886H9.5Z" fill="currentColor"/>
<path fill-rule="evenodd" clip-rule="evenodd" d="M7 2.95886C5.89543 2.95886 5 3.85429 5 4.95886V9.95886V17.9589V20.9589C5 22.0634 5.89543 22.9589 7 22.9589H17C18.1046 22.9589 19 22.0634 19 20.9589V9.37308C19 8.84264 18.7893 8.33394 18.4142 7.95886L14 3.54465C13.6249 3.16958 13.1162 2.95886 12.5858 2.95886H7ZM7 4.95886H12.5858L17 9.37308V20.9589H7V17.9589V9.95886V4.95886ZM9.5 16.4589C8.94772 16.4589 8.5 16.9066 8.5 17.4589C8.5 18.0111 8.94772 18.4589 9.5 18.4589H12C12.5523 18.4589 13 18.0111 13 17.4589C13 16.9066 12.5523 16.4589 12 16.4589H9.5ZM8.5 13.9589C8.5 13.4066 8.94772 12.9589 9.5 12.9589H14.5C15.0523 12.9589 15.5 13.4066 15.5 13.9589C15.5 14.5111 15.0523 14.9589 14.5 14.9589H9.5C8.94772 14.9589 8.5 14.5111 8.5 13.9589ZM9.5 9.45886C8.94772 9.45886 8.5 9.90658 8.5 10.4589C8.5 11.0111 8.94772 11.4589 9.5 11.4589H13.5C14.0523 11.4589 14.5 11.0111 14.5 10.4589C14.5 9.90658 14.0523 9.45886 13.5 9.45886H9.5Z" fill="currentColor"/>
</svg>
