<svg width="24" height="25" viewBox="0 0 24 25" fill="none" xmlns="http://www.w3.org/2000/svg">
<path fill-rule="evenodd" clip-rule="evenodd" d="M5 4.95886C5 3.85429 5.89543 2.95886 7 2.95886H12.5858C13.1162 2.95886 13.6249 3.16958 14 3.54465L18.4142 7.95886C18.7893 8.33394 19 8.84264 19 9.37308V11.9589H17V9.37308L12.5858 4.95886H7V9.95886V11.9589H5V9.95886V4.95886ZM2 13.9589C2 13.4066 2.44772 12.9589 3 12.9589H21C21.5523 12.9589 22 13.4066 22 13.9589V20.9589C22 21.5111 21.5523 21.9589 21 21.9589H3C2.44772 21.9589 2 21.5111 2 20.9589V13.9589ZM7.38241 18.0009C8.38241 18.0009 9.20641 17.4089 9.20641 16.3049C9.20641 15.2089 8.43841 14.6089 7.43841 14.6089H5.15041V20.2089H6.34241V18.0009H7.38241ZM6.34241 15.6649H7.27041C7.67841 15.6649 7.96641 15.9209 7.96641 16.3129C7.96641 16.6969 7.71841 16.9449 7.28641 16.9449H6.34241V15.6649ZM9.99416 20.2089H11.9862C13.3702 20.2089 14.6742 19.2969 14.6742 17.3689C14.6742 15.4889 13.3702 14.6089 11.9942 14.6089H9.99416V20.2089ZM11.1862 19.1529V15.6649H11.9142C12.8102 15.6649 13.4342 16.3209 13.4342 17.3689C13.4342 18.5049 12.8422 19.1529 11.9382 19.1529H11.1862ZM18.9643 17.7209V16.6729H16.7643V15.6649H19.2043V14.6089H15.5723V20.2089H16.7643V17.7209H18.9643Z" fill="currentColor"/>
<path fill-rule="evenodd" clip-rule="evenodd" d="M5 4.95886C5 3.85429 5.89543 2.95886 7 2.95886H12.5858C13.1162 2.95886 13.6249 3.16958 14 3.54465L18.4142 7.95886C18.7893 8.33394 19 8.84264 19 9.37308V11.9589H17V9.37308L12.5858 4.95886H7V9.95886V11.9589H5V9.95886V4.95886ZM2 13.9589C2 13.4066 2.44772 12.9589 3 12.9589H21C21.5523 12.9589 22 13.4066 22 13.9589V20.9589C22 21.5111 21.5523 21.9589 21 21.9589H3C2.44772 21.9589 2 21.5111 2 20.9589V13.9589ZM7.38241 18.0009C8.38241 18.0009 9.20641 17.4089 9.20641 16.3049C9.20641 15.2089 8.43841 14.6089 7.43841 14.6089H5.15041V20.2089H6.34241V18.0009H7.38241ZM6.34241 15.6649H7.27041C7.67841 15.6649 7.96641 15.9209 7.96641 16.3129C7.96641 16.6969 7.71841 16.9449 7.28641 16.9449H6.34241V15.6649ZM9.99416 20.2089H11.9862C13.3702 20.2089 14.6742 19.2969 14.6742 17.3689C14.6742 15.4889 13.3702 14.6089 11.9942 14.6089H9.99416V20.2089ZM11.1862 19.1529V15.6649H11.9142C12.8102 15.6649 13.4342 16.3209 13.4342 17.3689C13.4342 18.5049 12.8422 19.1529 11.9382 19.1529H11.1862ZM18.9643 17.7209V16.6729H16.7643V15.6649H19.2043V14.6089H15.5723V20.2089H16.7643V17.7209H18.9643Z" fill="currentColor"/>
</svg>
