<svg width="24" height="24" viewBox="0 0 24 24" fill="none" xmlns="http://www.w3.org/2000/svg">
<path fill-rule="evenodd" clip-rule="evenodd" d="M7 2C5.89543 2 5 2.89543 5 4V8C5 8.55228 5.44772 9 6 9C6.55229 9 7 8.55228 7 8V4H12.5858L17 8.41421V20H12C11.4477 20 11 20.4477 11 21C11 21.5523 11.4477 22 12 22H17C18.1046 22 19 21.1046 19 20V8.41421C19 7.88378 18.7893 7.37507 18.4142 7L14 2.58579C13.6249 2.21071 13.1162 2 12.5858 2H7ZM6.2929 15.1214C5.90237 15.5119 5.90237 16.145 6.2929 16.5356C6.68342 16.9261 7.31659 16.9261 7.70711 16.5356L11.2929 12.9498C11.6834 12.5593 11.6834 11.9261 11.2929 11.5356C10.9024 11.145 10.2692 11.145 9.87868 11.5356L6.2929 15.1214ZM13.0429 9.95711C12.1908 9.10499 10.8092 9.10499 9.95711 9.95711L8.70711 11.2071C8.31659 11.5976 7.68342 11.5976 7.2929 11.2071C6.90237 10.8166 6.90237 10.1834 7.2929 9.79289L8.5429 8.54289C10.1761 6.90973 12.8239 6.90973 14.4571 8.54289C16.0903 10.1761 16.0903 12.8239 14.4571 14.4571L13.2071 15.7071C12.8166 16.0976 12.1834 16.0976 11.7929 15.7071C11.4024 15.3166 11.4024 14.6834 11.7929 14.2929L13.0429 13.0429C13.895 12.1908 13.895 10.8092 13.0429 9.95711ZM8.0429 18.0429C7.19078 18.895 5.80923 18.895 4.95711 18.0429C4.10499 17.1908 4.10499 15.8092 4.95711 14.9571L6.20711 13.7071C6.59764 13.3166 6.59764 12.6834 6.20711 12.2929C5.81659 11.9024 5.18342 11.9024 4.7929 12.2929L3.5429 13.5429C1.90973 15.1761 1.90973 17.8239 3.5429 19.4571C5.17606 21.0903 7.82395 21.0903 9.45711 19.4571L10.7071 18.2071C11.0976 17.8166 11.0976 17.1834 10.7071 16.7929C10.3166 16.4024 9.68342 16.4024 9.2929 16.7929L8.0429 18.0429Z" fill="currentColor"/>
</svg>
