<svg width="24" height="24" viewBox="0 0 24 24" fill="none" xmlns="http://www.w3.org/2000/svg">
<path d="M7.00003 2.95886C5.89546 2.95886 5.00003 3.85429 5.00003 4.95886V10.9589C5.00003 11.5111 5.44774 11.9589 6.00003 11.9589C6.55231 11.9589 7.00003 11.5111 7.00003 10.9589V4.95886H12.5858L17 9.37308V20.9589H13C12.4477 20.9589 12 21.4066 12 21.9589C12 22.5111 12.4477 22.9589 13 22.9589H17C18.1046 22.9589 19 22.0634 19 20.9589V9.37308C19 8.84264 18.7893 8.33393 18.4142 7.95886L14 3.54465C13.625 3.16958 13.1162 2.95886 12.5858 2.95886H7.00003Z" fill="currentColor"/>
<path d="M2.29289 16.2518C2.68342 15.8612 3.31658 15.8612 3.70711 16.2518L5.50001 18.0447L7.29292 16.2518C7.68344 15.8612 8.31661 15.8612 8.70713 16.2518C9.09765 16.6423 9.09765 17.2754 8.70713 17.666L6.91423 19.4589L8.70711 21.2518C9.09763 21.6423 9.09763 22.2754 8.70711 22.666C8.31658 23.0565 7.68342 23.0565 7.29289 22.666L5.50001 20.8731L3.70713 22.666C3.31661 23.0565 2.68344 23.0565 2.29292 22.666C1.9024 22.2754 1.9024 21.6423 2.29292 21.2518L4.0858 19.4589L2.29289 17.666C1.90237 17.2754 1.90237 16.6423 2.29289 16.2518Z" fill="currentColor"/>
</svg>
