<svg width="24" height="24" viewBox="0 0 24 24" fill="none" xmlns="http://www.w3.org/2000/svg">
<path fill-rule="evenodd" clip-rule="evenodd" d="M14.7574 7H7V12V17H11.9976C11.9992 17 12.0008 17 12.0024 17H17V13.2426L19 11.2426V17C19 18.1046 18.1046 19 17 19H7C5.89543 19 5 18.1046 5 17V7C5 5.89543 5.89543 5 7 5H16.7574L14.7574 7Z" fill="#312B78"/>
<path fill-rule="evenodd" clip-rule="evenodd" d="M19.7071 6.29289C20.0976 6.68342 20.0976 7.31658 19.7071 7.70711L12.7071 14.7071C12.3166 15.0976 11.6834 15.0976 11.2929 14.7071L9.29289 12.7071C8.90237 12.3166 8.90237 11.6834 9.29289 11.2929C9.68342 10.9024 10.3166 10.9024 10.7071 11.2929L12 12.5858L18.2929 6.29289C18.6834 5.90237 19.3166 5.90237 19.7071 6.29289Z" fill="#50E2D1"/>
</svg>
