<svg width="24" height="25" viewBox="0 0 24 25" fill="none" xmlns="http://www.w3.org/2000/svg">
<path fill-rule="evenodd" clip-rule="evenodd" d="M7 2.95886C5.89543 2.95886 5 3.85429 5 4.95886V7.95886C5 8.51115 5.44772 8.95886 6 8.95886C6.55228 8.95886 7 8.51115 7 7.95886V4.95886H12.5858L17 9.37308V20.9589H12C11.4477 20.9589 11 21.4066 11 21.9589C11 22.5111 11.4477 22.9589 12 22.9589H17C18.1046 22.9589 19 22.0634 19 20.9589V9.37308C19 8.84264 18.7893 8.33394 18.4142 7.95886L14 3.54465C13.6249 3.16958 13.1162 2.95886 12.5858 2.95886H7ZM7 11.9589C7 11.4066 6.55228 10.9589 6 10.9589C5.44772 10.9589 5 11.4066 5 11.9589V19.5446L3.70711 18.2518C3.31658 17.8612 2.68342 17.8612 2.29289 18.2518C1.90237 18.6423 1.90237 19.2754 2.29289 19.666L5.29206 22.6651L5.29289 22.666C5.68342 23.0565 6.31658 23.0565 6.70711 22.666L6.70794 22.6651L9.70711 19.666C10.0976 19.2754 10.0976 18.6423 9.70711 18.2518C9.31658 17.8612 8.68342 17.8612 8.29289 18.2518L7 19.5446V11.9589Z" fill="currentColor"/>
</svg>
