<svg width="24" height="25" viewBox="0 0 24 25" fill="none" xmlns="http://www.w3.org/2000/svg">
<path fill-rule="evenodd" clip-rule="evenodd" d="M6.83354 13.1037C5.17381 14.7634 5.17381 17.4543 6.83354 19.1141C8.26193 20.5425 10.4541 20.7415 12.0954 19.7114C12.2248 20.2129 12.4859 20.6874 12.8787 21.0801L13.1867 21.3881C10.7698 22.924 7.52841 22.6374 5.41933 20.5283C2.97855 18.0875 2.97855 14.1302 5.41933 11.6894L8.77808 8.33069L10.1923 6.91647L11.9601 5.14871C13.7174 3.39135 16.5667 3.39135 18.324 5.14871C19.4695 6.29421 19.8684 7.90362 19.5205 9.37217C19.0746 9.1095 18.5549 8.95883 18 8.95883C17.8483 8.95883 17.6992 8.97009 17.5535 8.99183C17.7823 8.15424 17.5677 7.22084 16.9098 6.56292C15.9335 5.58661 14.3506 5.58661 13.3743 6.56292L11.6065 8.33069L10.1923 9.7449L6.83354 13.1037ZM12.8787 16.8375C13.0524 16.6638 13.2421 16.5158 13.4431 16.3936L15 14.8367V12.0083L13.7278 13.2804L10.7226 16.2856C10.4297 16.5785 9.95486 16.5785 9.66197 16.2856C9.36907 15.9927 9.36907 15.5179 9.66197 15.225L14.0814 10.8056C14.4719 10.415 14.4719 9.78187 14.0814 9.39135C13.6909 9.00082 13.0577 9.00082 12.6672 9.39135L8.24775 13.8108C7.17381 14.8847 7.17381 16.6259 8.24775 17.6999C9.3217 18.7738 11.0629 18.7738 12.1368 17.6999L12.4348 17.4019C12.557 17.2009 12.7049 17.0112 12.8787 16.8375ZM19 11.9589C19 11.4066 18.5523 10.9589 18 10.9589C17.4477 10.9589 17 11.4066 17 11.9589V19.5858L15.7071 18.2929C15.3166 17.9024 14.6834 17.9024 14.2929 18.2929C13.9024 18.6834 13.9024 19.3166 14.2929 19.7071L17.2929 22.7071C17.6834 23.0976 18.3166 23.0976 18.7071 22.7071L21.7071 19.7071C22.0976 19.3166 22.0976 18.6834 21.7071 18.2929C21.3166 17.9024 20.6834 17.9024 20.2929 18.2929L19 19.5858V11.9589Z" fill="currentColor"/>
</svg>
