<svg width="24" height="25" viewBox="0 0 24 25" fill="none" xmlns="http://www.w3.org/2000/svg">
<path fill-rule="evenodd" clip-rule="evenodd" d="M18.7071 3.29289C18.3166 2.90237 17.6834 2.90237 17.2929 3.29289L9.29289 11.2929C9.10536 11.4804 9 11.7348 9 12V15C9 15.5523 9.44771 16 10 16H13C13.2652 16 13.5196 15.8946 13.7071 15.7071L21.7071 7.70711C22.0976 7.31658 22.0976 6.68342 21.7071 6.29289L18.7071 3.29289ZM11 14V12.4142L18 5.41421L19.5858 7L12.5858 14H11ZM6.00001 4.95886C4.89544 4.95886 4.00001 5.85429 4.00001 6.95886L4 18.9588C4 20.0634 4.89543 20.9589 6 20.9589H18C19.1046 20.9589 20 20.0634 20 18.9589V13.9589C20 13.4066 19.5523 12.9589 19 12.9589C18.4477 12.9589 18 13.4066 18 13.9589V18.9589L6 18.9589L6.00001 6.95886H11C11.5523 6.95886 12 6.51115 12 5.95886C12 5.40658 11.5523 4.95886 11 4.95886H6.00001Z" fill="currentColor"/>
</svg>
