<svg width="24" height="25" viewBox="0 0 24 25" fill="none" xmlns="http://www.w3.org/2000/svg">
<path fill-rule="evenodd" clip-rule="evenodd" d="M4 4.95886C2.89543 4.95886 2 5.85429 2 6.95886V18.9589C2 20.0634 2.89543 20.9589 4 20.9589H20C21.1046 20.9589 22 20.0634 22 18.9589V6.95886C22 5.85429 21.1046 4.95886 20 4.95886H4ZM19.964 6.95886H20V7L19.964 6.95886ZM18.5284 6.95886L5.47158 6.95886L12 12.6712L18.5284 6.95886ZM4.036 6.95886H4V7L4.036 6.95886ZM4 8.32877V18.9589H20V8.32877L12.6585 14.7526C12.2815 15.0825 11.7185 15.0825 11.3415 14.7526L4 8.32877Z" fill="currentColor"/>
</svg>
