<svg width="24" height="25" viewBox="0 0 24 25" fill="none" xmlns="http://www.w3.org/2000/svg">
<path fill-rule="evenodd" clip-rule="evenodd" d="M4 6.08386C3.44772 6.08386 3 6.53158 3 7.08386C3 7.63615 3.44772 8.08386 4 8.08386H11C11.5523 8.08386 12 7.63615 12 7.08386C12 6.53158 11.5523 6.08386 11 6.08386H4ZM21.7071 13.707L21.7024 13.7116L16.707 18.707C16.3165 19.0975 15.6833 19.0975 15.2928 18.707C14.9023 18.3165 14.9023 17.6833 15.2928 17.2928L18.5856 14H4C3.44772 14 3 13.5523 3 13C3 12.4477 3.44772 12 4 12H18.5858L15.2928 8.70702C14.9023 8.3165 14.9023 7.68333 15.2928 7.29281C15.6833 6.90228 16.3165 6.90228 16.707 7.2928L21.707 12.2928C22.0976 12.6833 22.0976 13.3165 21.7071 13.707ZM3 19.0839C3 18.5316 3.44772 18.0839 4 18.0839H11C11.5523 18.0839 12 18.5316 12 19.0839C12 19.6361 11.5523 20.0839 11 20.0839H4C3.44772 20.0839 3 19.6361 3 19.0839Z" fill="currentColor"/>
</svg>
