<svg width="24" height="24" viewBox="0 0 24 24" fill="none" xmlns="http://www.w3.org/2000/svg">
<path fill-rule="evenodd" clip-rule="evenodd" d="M16.707 7.29289C17.0976 7.68342 17.0976 8.31658 16.707 8.70711C16.3165 9.09763 15.6834 9.09763 15.2928 8.70711L12.9999 6.41421V16C12.9999 16.5523 12.5522 17 11.9999 17C11.4477 17 10.9999 16.5523 10.9999 16V6.41421L8.70705 8.70711C8.31652 9.09763 7.68336 9.09763 7.29283 8.70711C6.90231 8.31658 6.90231 7.68342 7.29283 7.29289L11.2922 3.29348L11.2928 3.29289C11.6834 2.90237 12.3165 2.90237 12.707 3.29289L12.7079 3.29372L16.707 7.29289ZM4 12C4 11.4477 3.55228 11 3 11C2.44772 11 2 11.4477 2 12V19C2 20.1046 2.89543 21 4 21H20C21.1046 21 22 20.1046 22 19V12C22 11.4477 21.5523 11 21 11C20.4477 11 20 11.4477 20 12V19H4V12Z" fill="currentColor"/>
</svg>
