<svg width="24" height="25" viewBox="0 0 24 25" fill="none" xmlns="http://www.w3.org/2000/svg">
<path fill-rule="evenodd" clip-rule="evenodd" d="M10.6549 4.17477C11.2051 3.05991 12.7949 3.05991 13.3451 4.17477L15.603 8.74975L20.6518 9.48339C21.8821 9.66216 22.3734 11.1741 21.4831 12.0419L17.8297 15.6031L18.6922 20.6314C18.9023 21.8568 17.6162 22.7912 16.5158 22.2127L12 19.8386L7.4842 22.2127C6.38376 22.7912 5.09761 21.8568 5.30778 20.6314L6.17022 15.6031L2.51688 12.0419C1.6266 11.1741 2.11787 9.66216 3.3482 9.48339L8.39699 8.74975L10.6549 4.17477ZM12 5.9684L10.0741 9.87061C9.85563 10.3133 9.43328 10.6202 8.94472 10.6912L4.63838 11.3169L7.75447 14.3544C8.108 14.699 8.26933 15.1955 8.18587 15.6821L7.45026 19.971L11.302 17.946C11.739 17.7163 12.261 17.7163 12.698 17.946L16.5497 19.971L15.8141 15.6821C15.7306 15.1955 15.892 14.699 16.2455 14.3544L19.3616 11.3169L15.0552 10.6912C14.5667 10.6202 14.1443 10.3133 13.9258 9.87061L12 5.9684Z" fill="currentColor"/>
</svg>
