<svg width="32" height="33" viewBox="0 0 32 33" fill="none" xmlns="http://www.w3.org/2000/svg">
<path fill-rule="evenodd" clip-rule="evenodd" d="M16 4C14.3431 4 13 5.34315 13 7C13 8.30622 13.8348 9.41746 15 9.82929V13.126C14.2631 13.3157 13.6083 13.7101 13.1 14.245L9.95856 12.4997C9.98582 12.3372 10 12.1703 10 12C10 10.3431 8.65685 9 7 9C5.34315 9 4 10.3431 4 12C4 13.6569 5.34315 15 7 15C7.76202 15 8.45768 14.7159 8.98684 14.2478L12.1279 15.9928C12.0444 16.3146 12 16.6521 12 17C12 17.3479 12.0444 17.6855 12.1279 18.0073L8.98693 19.7523C8.45776 19.2841 7.76206 19 7 19C5.34315 19 4 20.3431 4 22C4 23.6569 5.34315 25 7 25C8.65685 25 10 23.6569 10 22C10 21.8298 9.98582 21.6629 9.95858 21.5004L13.1001 19.7551C13.6084 20.2899 14.2631 20.6843 15 20.874V24.1707C13.8348 24.5825 13 25.6938 13 27C13 28.6569 14.3431 30 16 30C17.6569 30 19 28.6569 19 27C19 25.6938 18.1652 24.5825 17 24.1707V20.874C17.7369 20.6843 18.3916 20.2899 18.8999 19.7551L22.0414 21.5004C22.0142 21.6629 22 21.8298 22 22C22 23.6569 23.3431 25 25 25C26.6569 25 28 23.6569 28 22C28 20.3431 26.6569 19 25 19C24.2379 19 23.5422 19.2841 23.0131 19.7523L19.8721 18.0073C19.9556 17.6855 20 17.3479 20 17C20 16.6521 19.9556 16.3146 19.8721 15.9929L23.0132 14.2479C23.5424 14.7159 24.238 15 25 15C26.6569 15 28 13.6569 28 12C28 10.3431 26.6569 9 25 9C23.3431 9 22 10.3431 22 12C22 12.1703 22.0142 12.3373 22.0414 12.4998L18.9 14.245C18.3917 13.7101 17.737 13.3157 17 13.126V9.82929C18.1652 9.41746 19 8.30622 19 7C19 5.34315 17.6569 4 16 4ZM15 7C15 6.44772 15.4477 6 16 6C16.5523 6 17 6.44772 17 7C17 7.55228 16.5523 8 16 8C15.4477 8 15 7.55228 15 7ZM6 12C6 11.4477 6.44772 11 7 11C7.55228 11 8 11.4477 8 12C8 12.5523 7.55228 13 7 13C6.44772 13 6 12.5523 6 12ZM24 12C24 11.4477 24.4477 11 25 11C25.5523 11 26 11.4477 26 12C26 12.5523 25.5523 13 25 13C24.4477 13 24 12.5523 24 12ZM14 17C14 15.8954 14.8954 15 16 15C17.1046 15 18 15.8954 18 17C18 18.1046 17.1046 19 16 19C14.8954 19 14 18.1046 14 17ZM6 22C6 21.4477 6.44772 21 7 21C7.55228 21 8 21.4477 8 22C8 22.5523 7.55228 23 7 23C6.44771 23 6 22.5523 6 22ZM24 22C24 21.4477 24.4477 21 25 21C25.5523 21 26 21.4477 26 22C26 22.5523 25.5523 23 25 23C24.4477 23 24 22.5523 24 22ZM15 27C15 26.4477 15.4477 26 16 26C16.5523 26 17 26.4477 17 27C17 27.5523 16.5523 28 16 28C15.4477 28 15 27.5523 15 27ZM19.1758 8.76442C19.4441 8.28163 20.0529 8.10769 20.5356 8.3759L21.4356 8.8759C21.9184 9.14412 22.0924 9.75292 21.8242 10.2357C21.5559 10.7185 20.9471 10.8924 20.4644 10.6242L19.5644 10.1242C19.0816 9.856 18.9076 9.2472 19.1758 8.76442ZM26 16.5001C26 15.9478 25.5523 15.5001 25 15.5001C24.4477 15.5001 24 15.9478 24 16.5001V17.5001C24 18.0523 24.4477 18.5001 25 18.5001C25.5523 18.5001 26 18.0523 26 17.5001V16.5001ZM21.8242 23.7644C22.0924 24.2472 21.9185 24.856 21.4357 25.1242L20.5357 25.6242C20.0529 25.8924 19.4441 25.7185 19.1759 25.2357C18.9077 24.7529 19.0816 24.1441 19.5644 23.8759L20.4644 23.3759C20.9472 23.1077 21.556 23.2816 21.8242 23.7644ZM11.5356 23.3759C11.0529 23.1077 10.4441 23.2816 10.1758 23.7644C9.90763 24.2472 10.0816 24.856 10.5644 25.1242L11.4644 25.6242C11.9471 25.8924 12.5559 25.7185 12.8242 25.2357C13.0924 24.7529 12.9184 24.1441 12.4356 23.8759L11.5356 23.3759ZM7 15.5001C7.55228 15.5001 8 15.9478 8 16.5001V17.5001C8 18.0523 7.55228 18.5001 7 18.5001C6.44772 18.5001 6 18.0523 6 17.5001V16.5001C6 15.9478 6.44772 15.5001 7 15.5001ZM12.4356 10.1242C12.9184 9.85602 13.0923 9.24722 12.8241 8.76443C12.5559 8.28165 11.9471 8.1077 11.4643 8.37591L10.5643 8.87591C10.0815 9.14412 9.90759 9.75293 10.1758 10.2357C10.444 10.7185 11.0528 10.8924 11.5356 10.6242L12.4356 10.1242Z" fill="currentColor"/>
</svg>
