<svg width="16" height="16" viewBox="0 0 16 16" fill="none" xmlns="http://www.w3.org/2000/svg">
<path fill-rule="evenodd" clip-rule="evenodd" d="M2 5.25C2 4.83579 2.33579 4.5 2.75 4.5H13.25C13.6642 4.5 14 4.83579 14 5.25C14 5.66421 13.6642 6 13.25 6H2.75C2.33579 6 2 5.66421 2 5.25ZM4 8.25C4 7.83579 4.33579 7.5 4.75 7.5H11.25C11.6642 7.5 12 7.83579 12 8.25C12 8.66421 11.6642 9 11.25 9H4.75C4.33579 9 4 8.66421 4 8.25ZM6.75 10.5C6.33579 10.5 6 10.8358 6 11.25C6 11.6642 6.33579 12 6.75 12H9.25C9.66421 12 10 11.6642 10 11.25C10 10.8358 9.66421 10.5 9.25 10.5H6.75Z" fill="currentColor"/>
</svg>
