<svg width="24" height="25" viewBox="0 0 24 25" fill="none" xmlns="http://www.w3.org/2000/svg">
<path fill-rule="evenodd" clip-rule="evenodd" d="M14.126 7.95886H5C4.44772 7.95886 4 8.40658 4 8.95886C4 9.51115 4.44772 9.95886 5 9.95886H14.126C14.0438 9.63924 14 9.30416 14 8.95886C14 8.61356 14.0438 8.27848 14.126 7.95886ZM15.3542 11.9589H8C7.44772 11.9589 7 12.4066 7 12.9589C7 13.5111 7.44772 13.9589 8 13.9589H16C16.5523 13.9589 17 13.5111 17 12.9589C17 12.9155 16.9972 12.8727 16.9919 12.8307C16.3757 12.6708 15.8173 12.3676 15.3542 11.9589ZM10 16.9589C10 16.4066 10.4477 15.9589 11 15.9589H13C13.5523 15.9589 14 16.4066 14 16.9589C14 17.5111 13.5523 17.9589 13 17.9589H11C10.4477 17.9589 10 17.5111 10 16.9589Z" fill="#312B78"/>
<path d="M20 8.95886C20 10.0634 19.1046 10.9589 18 10.9589C16.8954 10.9589 16 10.0634 16 8.95886C16 7.85429 16.8954 6.95886 18 6.95886C19.1046 6.95886 20 7.85429 20 8.95886Z" fill="#50E2D1"/>
</svg>
