<svg viewBox="0 0 16 16" fill="none" xmlns="http://www.w3.org/2000/svg">
<path fill="currentColor" fill-rule="evenodd" clip-rule="evenodd" d="M2 1.95886C2 1.40658 1.55228 0.958862 1 0.958862C0.447715 0.958862 0 1.40658 0 1.95886V11.9589C0 12.5111 0.447715 12.9589 1 12.9589C1.55228 12.9589 2 12.5111 2 11.9589V1.95886ZM10.293 1.29283L5.296 6.28983L5.29287 6.29295C5.19524 6.39058 5.12202 6.50338 5.0732 6.62376C4.93491 6.96478 4.99251 7.36665 5.24598 7.65699C5.26093 7.67412 5.27656 7.69086 5.29287 7.70717L5.29568 7.70996L10.2929 12.7071C10.6834 13.0977 11.3166 13.0977 11.7071 12.7071C12.0976 12.3166 12.0976 11.6834 11.7071 11.2929L7.41421 7.00005L11.7072 2.70705C12.0977 2.31652 12.0977 1.68336 11.7072 1.29283C11.3167 0.90231 10.6835 0.90231 10.293 1.29283Z"/>
</svg>
