<svg width="24" height="24" viewBox="0 0 24 24" fill="none" xmlns="http://www.w3.org/2000/svg">
<path fill-rule="evenodd" clip-rule="evenodd" d="M5 2C3.34315 2 2 3.34315 2 5V19C2 20.6569 3.34315 22 5 22H19C20.6569 22 22 20.6569 22 19V5C22 3.34315 20.6569 2 19 2H5ZM4 5C4 4.44772 4.44772 4 5 4H19C19.5523 4 20 4.44772 20 5V19C20 19.5523 19.5523 20 19 20H5C4.44772 20 4 19.5523 4 19V5ZM10.7071 7.79289C10.3166 7.40237 9.68342 7.40237 9.29289 7.79289L5.79372 11.2921L5.79289 11.2929C5.45118 11.6346 5.40847 12.1621 5.66475 12.5502C5.70136 12.6057 5.74408 12.6583 5.79289 12.7071L5.79372 12.7079L9.29289 16.2071C9.68342 16.5976 10.3166 16.5976 10.7071 16.2071C11.0976 15.8166 11.0976 15.1834 10.7071 14.7929L7.91421 12L10.7071 9.20711C11.0976 8.81658 11.0976 8.18342 10.7071 7.79289ZM13.2929 7.79289C13.6834 7.40237 14.3166 7.40237 14.7071 7.79289L18.2063 11.2921L18.2071 11.2929C18.5976 11.6834 18.5976 12.3166 18.2071 12.7071L18.2063 12.7079L14.7071 16.2071C14.3166 16.5976 13.6834 16.5976 13.2929 16.2071C12.9024 15.8166 12.9024 15.1834 13.2929 14.7929L16.0858 12L13.2929 9.20711C12.9024 8.81658 12.9024 8.18342 13.2929 7.79289Z" fill="currentColor"/>
</svg>
