<svg width="24" height="24" viewBox="0 0 24 24" fill="none" xmlns="http://www.w3.org/2000/svg">
<path fill-rule="evenodd" clip-rule="evenodd" d="M5 2C3.34315 2 2 3.34315 2 5V19C2 20.6569 3.34315 22 5 22H19C20.6569 22 22 20.6569 22 19V5C22 3.34315 20.6569 2 19 2H5ZM4 5C4 4.44772 4.44772 4 5 4H19C19.5523 4 20 4.44772 20 5V19C20 19.5523 19.5523 20 19 20H5C4.44772 20 4 19.5523 4 19V5ZM7.24744 10.6585C6.88375 10.2429 6.92587 9.61112 7.34151 9.24744L11.331 5.75666C11.404 5.69075 11.4848 5.63736 11.5704 5.59669C11.7065 5.53192 11.8534 5.49994 12 5.5C12.1466 5.49994 12.2935 5.53192 12.4296 5.59669C12.5152 5.63736 12.596 5.69074 12.6691 5.75665L16.6585 9.24743C17.0742 9.61112 17.1163 10.2429 16.7526 10.6585C16.3889 11.0742 15.7571 11.1163 15.3415 10.7526L12 7.82878L8.65852 10.7526C8.24288 11.1163 7.61112 11.0742 7.24744 10.6585ZM7.34151 14.7526C6.92587 14.3889 6.88375 13.7571 7.24744 13.3415C7.61112 12.9259 8.24288 12.8838 8.65852 13.2474L12 16.1712L15.3415 13.2474C15.7571 12.8838 16.3889 12.9259 16.7526 13.3415C17.1163 13.7571 17.0742 14.3889 16.6585 14.7526L12.669 18.2434C12.596 18.3093 12.5152 18.3627 12.4296 18.4033C12.2926 18.4685 12.1446 18.5005 11.997 18.5C11.8514 18.4996 11.7055 18.4677 11.5704 18.4033C11.4848 18.3627 11.404 18.3093 11.3309 18.2433L7.34151 14.7526Z" fill="currentColor"/>
</svg>
