<svg width="24" height="24" viewBox="0 0 24 24" fill="none" xmlns="http://www.w3.org/2000/svg">
<path fill-rule="evenodd" clip-rule="evenodd" d="M14 3C14 2.44772 14.4477 2 15 2H21C21.5523 2 22 2.44772 22 3V9C22 9.55228 21.5523 10 21 10C20.4477 10 20 9.55228 20 9V5.41421L14.2071 11.2071C13.8166 11.5976 13.1834 11.5976 12.7929 11.2071C12.4024 10.8166 12.4024 10.1834 12.7929 9.79289L18.5858 4H15C14.4477 4 14 3.55228 14 3ZM6 6C6 5.44772 6.44772 5 7 5H11C11.5523 5 12 5.44772 12 6C12 6.55228 11.5523 7 11 7H8V16H17V13C17 12.4477 17.4477 12 18 12C18.5523 12 19 12.4477 19 13V17C19 17.5523 18.5523 18 18 18H7C6.44772 18 6 17.5523 6 17V6ZM4 10C4 9.44772 3.55228 9 3 9C2.44772 9 2 9.44772 2 10V21C2 21.5523 2.44772 22 3 22H14C14.5523 22 15 21.5523 15 21C15 20.4477 14.5523 20 14 20H4V10Z" fill="currentColor" fill-opacity="0.2"/>
<path fill-rule="evenodd" clip-rule="evenodd" d="M15 4C14.4477 4 14 3.55228 14 3C14 2.44772 14.4477 2 15 2H21C21.5523 2 22 2.44772 22 3V9C22 9.55228 21.5523 10 21 10C20.4477 10 20 9.55228 20 9V5.41421L14.2071 11.2071C13.8166 11.5976 13.1834 11.5976 12.7929 11.2071C12.4024 10.8166 12.4024 10.1834 12.7929 9.79289L18.5858 4H15ZM6 6C6 5.44772 6.44772 5 7 5H11C11.5523 5 12 5.44772 12 6C12 6.55228 11.5523 7 11 7H8V16H17V13C17 12.4477 17.4477 12 18 12C18.5523 12 19 12.4477 19 13V17C19 17.5523 18.5523 18 18 18H7C6.44772 18 6 17.5523 6 17V6ZM3 9C3.55228 9 4 9.44772 4 10V20H14C14.5523 20 15 20.4477 15 21C15 21.5523 14.5523 22 14 22H3C2.44772 22 2 21.5523 2 21V10C2 9.44772 2.44772 9 3 9Z" fill="currentColor"/>
</svg>
