<svg width="24" height="24" viewBox="0 0 24 24" fill="none" xmlns="http://www.w3.org/2000/svg">
<path d="M14 3.95886C13.4477 3.95886 13 4.40658 13 4.95886C13 5.51115 13.4477 5.95886 14 5.95886H17.5858L11.7929 11.7518C11.4024 12.1423 11.4024 12.7754 11.7929 13.166C12.1834 13.5565 12.8166 13.5565 13.2071 13.166L19 7.37308V10.9589C19 11.5111 19.4477 11.9589 20 11.9589C20.5523 11.9589 21 11.5111 21 10.9589V4.95886C21 4.40658 20.5523 3.95886 20 3.95886H14Z" fill="currentColor"/>
<path d="M4 5.95886C3.44772 5.95886 3 6.40658 3 6.95886V20.9589C3 21.5111 3.44772 21.9589 4 21.9589H18C18.5523 21.9589 19 21.5111 19 20.9589V15.9589C19 15.4066 18.5523 14.9589 18 14.9589C17.4477 14.9589 17 15.4066 17 15.9589V19.9589H5V7.95886H9C9.55228 7.95886 10 7.51115 10 6.95886C10 6.40658 9.55228 5.95886 9 5.95886H4Z" fill="currentColor"/>
</svg>
