<svg width="24" height="25" viewBox="0 0 24 25" fill="none" xmlns="http://www.w3.org/2000/svg">
<path fill-rule="evenodd" clip-rule="evenodd" d="M5 5.95886H9V9.95886H5V5.95886ZM3 5.95886C3 4.85429 3.89543 3.95886 5 3.95886H9C10.1046 3.95886 11 4.85429 11 5.95886V9.95886C11 11.0634 10.1046 11.9589 9 11.9589H5C3.89543 11.9589 3 11.0634 3 9.95886V5.95886ZM5 15.9589H9V19.9589H5V15.9589ZM3 15.9589C3 14.8543 3.89543 13.9589 5 13.9589H9C10.1046 13.9589 11 14.8543 11 15.9589V19.9589C11 21.0634 10.1046 21.9589 9 21.9589H5C3.89543 21.9589 3 21.0634 3 19.9589V15.9589ZM19 15.9589H15V19.9589H19V15.9589ZM15 13.9589C13.8954 13.9589 13 14.8543 13 15.9589V19.9589C13 21.0634 13.8954 21.9589 15 21.9589H19C20.1046 21.9589 21 21.0634 21 19.9589V15.9589C21 14.8543 20.1046 13.9589 19 13.9589H15ZM15 5.95886H19V9.95886H15V5.95886ZM13 5.95886C13 4.85429 13.8954 3.95886 15 3.95886H19C20.1046 3.95886 21 4.85429 21 5.95886V9.95886C21 11.0634 20.1046 11.9589 19 11.9589H15C13.8954 11.9589 13 11.0634 13 9.95886V5.95886Z" fill="currentColor"/>
</svg>
