<svg width="16" height="16" viewBox="0 0 16 16" fill="none" xmlns="http://www.w3.org/2000/svg">
<path fill-rule="evenodd" clip-rule="evenodd" d="M2.46967 12.709C2.17678 13.0019 2.17678 13.4768 2.46967 13.7696C2.76256 14.0625 3.23744 14.0625 3.53033 13.7696L4.84938 12.4506C5.78604 12.9242 6.84806 13.25 8 13.25C10.2761 13.25 12.2011 11.978 13.5017 10.8074C14.1623 10.2129 14.6887 9.62044 15.0502 9.17686C15.2313 8.95451 15.3722 8.76811 15.469 8.63561C15.5174 8.56931 15.5548 8.51639 15.5808 8.47908C15.5938 8.46041 15.604 8.44564 15.6112 8.43504L15.6198 8.42229L15.6225 8.41833L15.6234 8.41696L15.6238 8.41643C15.6239 8.4162 15.624 8.416 15 7.99998L15.624 8.416C15.792 8.16407 15.792 7.83587 15.624 7.58395L15 7.99998C15.624 7.58395 15.6239 7.58375 15.6238 7.58352L15.6234 7.58299L15.6225 7.58162L15.6198 7.57766L15.6112 7.56491C15.604 7.55431 15.5938 7.53954 15.5808 7.52087C15.5548 7.48356 15.5174 7.43064 15.469 7.36434C15.3722 7.23184 15.2313 7.04544 15.0502 6.8231C14.6887 6.37951 14.1623 5.78705 13.5017 5.19251C13.2678 4.98197 13.0137 4.76815 12.7409 4.55905L13.7834 3.5166C14.0763 3.2237 14.0763 2.74883 13.7834 2.45594C13.4905 2.16304 13.0156 2.16304 12.7227 2.45594L2.46967 12.709ZM11.6697 5.63023L9.90641 7.39356C9.9672 7.58483 10 7.78857 10 7.99998C10 9.10455 9.10457 9.99998 8 9.99998C7.7886 9.99998 7.58486 9.96718 7.39359 9.90639L5.97912 11.3209C6.61767 11.5871 7.29643 11.75 8 11.75C9.72392 11.75 11.2989 10.7719 12.4983 9.69251C13.0877 9.16205 13.5613 8.62951 13.8873 8.22935C13.9548 8.14657 14.0157 8.06969 14.0698 7.99997C14.0157 7.93025 13.9548 7.85339 13.8873 7.77061C13.5613 7.37044 13.0877 6.83791 12.4983 6.30745C12.2389 6.07401 11.962 5.84532 11.6697 5.63023ZM8 4.24998C8.25879 4.24998 8.51422 4.27202 8.76552 4.31313L10.004 3.07467C9.37501 2.87177 8.70431 2.74998 8 2.74998C5.72392 2.74998 3.7989 4.02195 2.49828 5.19251C1.83768 5.78705 1.31126 6.37951 0.949824 6.8231C0.768654 7.04544 0.627752 7.23184 0.531 7.36434C0.482596 7.43064 0.445159 7.48356 0.419175 7.52087C0.406181 7.53953 0.396043 7.55431 0.388823 7.56491L0.380185 7.57766L0.377519 7.58162L0.376602 7.58299L0.376247 7.58352C0.376099 7.58375 0.375962 7.58395 1 7.99998L0.375962 7.58395C0.208013 7.83587 0.208013 8.16408 0.375962 8.416L1 7.99998C0.375962 8.416 0.376099 8.4162 0.376247 8.41643L0.376601 8.41696L0.377519 8.41833L0.380184 8.42229L0.388822 8.43504C0.396043 8.44564 0.40618 8.46042 0.419175 8.47908C0.445158 8.51639 0.482595 8.56931 0.530999 8.63561C0.627751 8.76811 0.768653 8.95451 0.949824 9.17686C1.28932 9.59351 1.77436 10.1415 2.37944 10.6992L3.44109 9.63756C2.8798 9.12543 2.42748 8.6157 2.11268 8.22935C2.04522 8.14656 1.98429 8.0697 1.93015 7.99998C1.98429 7.93025 2.04522 7.85339 2.11268 7.77061C2.43874 7.37044 2.91232 6.83791 3.50172 6.30745C4.7011 5.22801 6.27609 4.24998 8 4.24998Z" fill="currentColor"/>
</svg>
