<svg width="24" height="24" viewBox="0 0 24 24" fill="none" xmlns="http://www.w3.org/2000/svg">
<path fill-rule="evenodd" clip-rule="evenodd" d="M12.6585 2.24742C12.2815 1.91753 11.7185 1.91753 11.3415 2.24742L3.3415 9.24742C3.12448 9.43731 3 9.71164 3 10V19C3 19.7957 3.31607 20.5587 3.87868 21.1213C4.44129 21.6839 5.20435 22 6 22H9H15H18C18.7957 22 19.5587 21.6839 20.1213 21.1213C20.6839 20.5587 21 19.7957 21 19V10C21 9.71164 20.8755 9.43731 20.6585 9.24742L12.6585 2.24742ZM16 20H18C18.2652 20 18.5196 19.8946 18.7071 19.7071C18.8946 19.5196 19 19.2652 19 19V10.4538L12 4.32877L5 10.4538V19C5 19.2652 5.10536 19.5196 5.29289 19.7071C5.48043 19.8946 5.73478 20 6 20H8V13C8 12.4477 8.44772 12 9 12H15C15.5523 12 16 12.4477 16 13V20ZM10 20V14H14V20H10Z" fill="currentColor"/>
</svg>
