<svg width="32" height="32" viewBox="0 0 32 32" fill="none" xmlns="http://www.w3.org/2000/svg">
<path fill-rule="evenodd" clip-rule="evenodd" d="M16.6823 3.26894C16.2981 2.91035 15.7019 2.91035 15.3177 3.26894L5.31768 12.6023C5.11505 12.7914 5 13.0562 5 13.3333V25.3333C5 26.2857 5.35409 27.211 6.0027 27.9029C6.65335 28.5969 7.55015 29 8.5 29H12H20H23.5C24.4498 29 25.3466 28.5969 25.9973 27.9029C26.6459 27.211 27 26.2857 27 25.3333V13.3333C27 13.0562 26.885 12.7914 26.6823 12.6023L16.6823 3.26894ZM21 27H23.5C23.8762 27 24.2512 26.8412 24.5382 26.535C24.8273 26.2267 25 25.7954 25 25.3333V13.7679L16 5.36789L7 13.7679V25.3333C7 25.7954 7.1727 26.2267 7.46177 26.535C7.74879 26.8412 8.12376 27 8.5 27H11V18C11 17.4477 11.4477 17 12 17H20C20.5523 17 21 17.4477 21 18V27ZM13 27V19H19V27H13Z" fill="currentColor"/>
</svg>
