<svg width="24" height="24" viewBox="0 0 24 24" fill="none" xmlns="http://www.w3.org/2000/svg">
<path d="M12 5.5C11.4477 5.5 11 5.94772 11 6.5C11 7.05228 11.4477 7.5 12 7.5C12.5523 7.5 13 7.94772 13 8.5C13 9.05228 13.4477 9.5 14 9.5C14.5523 9.5 15 9.05228 15 8.5C15 6.84315 13.6569 5.5 12 5.5Z" fill="currentColor"/>
<path fill-rule="evenodd" clip-rule="evenodd" d="M16 15.0411V13.665C17.5218 12.4753 18.5 10.6225 18.5 8.54114C18.5 4.95129 15.5899 2.04114 12 2.04114C8.41015 2.04114 5.5 4.95129 5.5 8.54114C5.5 10.6225 6.47823 12.4753 8 13.665V15.0411C8 15.5934 8.44772 16.0411 9 16.0411H15C15.5523 16.0411 16 15.5934 16 15.0411ZM14.7682 12.0893L14 12.6899V14.0411H10V12.6899L9.2318 12.0893C8.17401 11.2624 7.5 9.981 7.5 8.54114C7.5 6.05586 9.51472 4.04114 12 4.04114C14.4853 4.04114 16.5 6.05586 16.5 8.54114C16.5 9.981 15.826 11.2624 14.7682 12.0893Z" fill="currentColor"/>
<path d="M10 20.0411C9.44772 20.0411 9 20.4889 9 21.0411C9 21.5934 9.44772 22.0411 10 22.0411H14C14.5523 22.0411 15 21.5934 15 21.0411C15 20.4889 14.5523 20.0411 14 20.0411H10Z" fill="currentColor"/>
<path d="M8 18.0411C8 17.4889 8.44772 17.0411 9 17.0411H15C15.5523 17.0411 16 17.4889 16 18.0411C16 18.5934 15.5523 19.0411 15 19.0411H9C8.44772 19.0411 8 18.5934 8 18.0411Z" fill="currentColor"/>
</svg>
