<svg width="24" height="25" viewBox="0 0 24 25" fill="none" xmlns="http://www.w3.org/2000/svg">
<path fill-rule="evenodd" clip-rule="evenodd" d="M2 6.95886C2 5.85429 2.89543 4.95886 4 4.95886H20C21.1046 4.95886 22 5.85429 22 6.95886V18.9589C22 20.0634 21.1046 20.9589 20 20.9589H4C2.89543 20.9589 2 20.0634 2 18.9589V6.95886ZM20 6.95886L4 6.95886V18.9589H20V6.95886ZM9.96162 8.9596C10.3263 8.94559 10.6697 9.1314 10.8575 9.44437L13.1985 13.3461L14.2929 12.2518C14.494 12.0506 14.7713 11.9447 15.0553 11.9604C15.3393 11.9761 15.6032 12.1121 15.7809 12.3342L17.7809 14.8342C18.1259 15.2654 18.056 15.8947 17.6247 16.2397C17.1934 16.5847 16.5641 16.5148 16.2191 16.0836L14.9171 14.456L13.7071 15.666C13.4894 15.8837 13.1834 15.989 12.8778 15.9514C12.5722 15.9137 12.3009 15.7374 12.1425 15.4734L10.0798 12.0354L7.89443 16.4061C7.64744 16.9001 7.04676 17.1003 6.55279 16.8533C6.05881 16.6063 5.85858 16.0056 6.10557 15.5116L9.10557 9.51165C9.2688 9.1852 9.59691 8.97361 9.96162 8.9596ZM17 10.9589C17.5523 10.9589 18 10.5111 18 9.95886C18 9.40658 17.5523 8.95886 17 8.95886C16.4477 8.95886 16 9.40658 16 9.95886C16 10.5111 16.4477 10.9589 17 10.9589Z" fill="currentColor"/>
</svg>
