<svg width="24" height="24" viewBox="0 0 24 24" fill="none" xmlns="http://www.w3.org/2000/svg">
<path fill-rule="evenodd" clip-rule="evenodd" d="M12.7079 17.6651L16.707 13.666C17.0976 13.2754 17.0976 12.6423 16.707 12.2518C16.3165 11.8612 15.6834 11.8612 15.2928 12.2518L12.9999 14.5446V4.95886C12.9999 4.40658 12.5522 3.95886 11.9999 3.95886C11.4477 3.95886 10.9999 4.40658 10.9999 4.95886V14.5446L8.70705 12.2518C8.31652 11.8612 7.68336 11.8612 7.29283 12.2518C6.90231 12.6423 6.90231 13.2754 7.29283 13.666L11.292 17.6651L11.2928 17.666C11.6834 18.0565 12.3165 18.0565 12.707 17.666L12.7079 17.6651ZM4 12.9589C4 12.4066 3.55228 11.9589 3 11.9589C2.44772 11.9589 2 12.4066 2 12.9589V19.9589C2 21.0634 2.89543 21.9589 4 21.9589H20C21.1046 21.9589 22 21.0634 22 19.9589V12.9589C22 12.4066 21.5523 11.9589 21 11.9589C20.4477 11.9589 20 12.4066 20 12.9589V19.9589H4V12.9589Z" fill="currentColor"/>
</svg>
