<svg width="24" height="24" viewBox="0 0 24 24" fill="none" xmlns="http://www.w3.org/2000/svg">
<path fill-rule="evenodd" clip-rule="evenodd" d="M13 3C13 2.44772 12.5523 2 12 2C11.4477 2 11 2.44772 11 3V10.5857L9.70711 9.29279C9.31658 8.90227 8.68342 8.90227 8.29289 9.29279C7.90237 9.68331 7.90237 10.3165 8.29289 10.707L11.2921 13.7062L11.2929 13.707C11.6834 14.0975 12.3166 14.0975 12.7071 13.707L12.7079 13.7062L15.7071 10.707C16.0976 10.3165 16.0976 9.68331 15.7071 9.29279C15.3166 8.90227 14.6834 8.90227 14.2929 9.29279L13 10.5857V3ZM2 14C2 12.8954 2.89543 12 4 12H5.44445C6.54902 12 7.44445 12.8954 7.44445 14L7.44445 16H16.5556V14C16.5556 12.8954 17.451 12 18.5556 12H20C21.1046 12 22 12.8954 22 14V20C22 21.1046 21.1046 22 20 22H4C2.89543 22 2 21.1046 2 20V14ZM4 14L4 20L20 20V14H18.5556V16C18.5556 17.1046 17.6601 18 16.5556 18H7.44445C6.33988 18 5.44445 17.1046 5.44445 16V14H4Z" fill="currentColor"/>
</svg>
