<svg width="24" height="25" viewBox="0 0 24 25" fill="none" xmlns="http://www.w3.org/2000/svg">
<path fill-rule="evenodd" clip-rule="evenodd" d="M3 7.95886C3 6.85429 3.89543 5.95886 5 5.95886H19C20.1046 5.95886 21 6.85429 21 7.95886V11.9589C21 12.5111 20.5523 12.9589 20 12.9589C19.4477 12.9589 19 12.5111 19 11.9589V9.27594L12.6508 14.7181C12.2763 15.0391 11.7237 15.0391 11.3492 14.7181L5 9.27594V17.9589H8C8.55228 17.9589 9 18.4066 9 18.9589C9 19.5111 8.55228 19.9589 8 19.9589H5C3.89543 19.9589 3 19.0634 3 17.9589V7.95886ZM6.53659 7.95886L12 12.6418L17.4634 7.95886L6.53659 7.95886ZM17.2929 15.2518C17.6834 14.8612 18.3166 14.8612 18.7071 15.2518L21.7063 18.2509L21.7071 18.2518C22.0976 18.6423 22.0976 19.2754 21.7071 19.666L21.7065 19.6666L18.7071 22.666C18.3166 23.0565 17.6834 23.0565 17.2929 22.666C16.9024 22.2754 16.9024 21.6423 17.2929 21.2518L18.5858 19.9589H12C11.4477 19.9589 11 19.5111 11 18.9589C11 18.4066 11.4477 17.9589 12 17.9589H18.5858L17.2929 16.666C16.9024 16.2754 16.9024 15.6423 17.2929 15.2518Z" fill="currentColor"/>
</svg>
