<svg width="24" height="25" viewBox="0 0 24 25" fill="none" xmlns="http://www.w3.org/2000/svg">
<path fill-rule="evenodd" clip-rule="evenodd" d="M7 2.95886C5.89543 2.95886 5 3.85429 5 4.95886V10.9589C5 11.5111 5.44772 11.9589 6 11.9589C6.55228 11.9589 7 11.5111 7 10.9589V4.95886H12.5858L17 9.37308V20.9589H12C11.4477 20.9589 11 21.4066 11 21.9589C11 22.5111 11.4477 22.9589 12 22.9589H17C18.1046 22.9589 19 22.0634 19 20.9589V9.37308C19 8.84264 18.7893 8.33393 18.4142 7.95886L14 3.54465C13.6249 3.16958 13.1162 2.95886 12.5858 2.95886H7ZM5 21.9589L5 19.9589H3C2.44772 19.9589 2 19.5112 2 18.9589C2 18.4066 2.44772 17.9589 3 17.9589H5L5 15.9589C5 15.4066 5.44771 14.9589 6 14.9589C6.55228 14.9589 7 15.4066 7 15.9589L7 17.9589H9C9.55228 17.9589 10 18.4066 10 18.9589C10 19.5112 9.55228 19.9589 9 19.9589H7L7 21.9589C7 22.5111 6.55229 22.9589 6 22.9589C5.44772 22.9589 5 22.5111 5 21.9589Z" fill="currentColor"/>
</svg>
