<svg width="32" height="33" viewBox="0 0 32 33" fill="none" xmlns="http://www.w3.org/2000/svg">
<path fill-rule="evenodd" clip-rule="evenodd" d="M14 13C14 9.68629 16.6863 7 20 7C23.3137 7 26 9.68629 26 13C26 16.3137 23.3137 19 20 19C19.2725 19 18.5529 18.832 17.8572 18.566L17.2515 18.3343L16.7929 18.7929L14.5858 21H12C11.4477 21 11 21.4477 11 22V24H9C8.44772 24 8 24.4477 8 25V27H6V24.4142L14.2071 16.2071L14.6737 15.7405L14.4282 15.1279C14.1461 14.4242 14 13.775 14 13ZM20 5C15.5817 5 12 8.58172 12 13C12 13.818 12.1232 14.5397 12.3449 15.2409L4.29289 23.2929C4.10536 23.4804 4 23.7348 4 24V28C4 28.5523 4.44772 29 5 29H9C9.55228 29 10 28.5523 10 28V26H12C12.5523 26 13 25.5523 13 25V23H15C15.2652 23 15.5196 22.8946 15.7071 22.7071L17.7656 20.6487C18.4584 20.8608 19.2093 21 20 21C24.4183 21 28 17.4183 28 13C28 8.58172 24.4183 5 20 5ZM22 13C22 11.8954 21.1046 11 20 11C19.7538 11 19.5192 11.0441 19.3027 11.1246L21.8754 13.6973C21.9559 13.4808 22 13.2462 22 13ZM20 9C22.2091 9 24 10.7909 24 13C24 13.7301 23.8035 14.4173 23.4598 15.0084C23.1325 15.5714 22.5704 15.8377 22.0246 15.849C21.5022 15.8599 20.9939 15.6442 20.6239 15.2742L17.7258 12.3761C17.3558 12.0061 17.1401 11.4978 17.151 10.9754C17.1623 10.4296 17.4286 9.86751 17.9916 9.54017C18.5827 9.19651 19.2699 9 20 9Z" fill="currentColor"/>
</svg>
