<svg width="24" height="25" viewBox="0 0 24 25" fill="none" xmlns="http://www.w3.org/2000/svg">
<path fill-rule="evenodd" clip-rule="evenodd" d="M19.5845 3.99007C19.7447 3.99539 19.8841 4.00001 20 4.00001L21 4.00001V5.00001C21 5.11571 21.0046 5.25477 21.0099 5.41464L21.0099 5.41523L21.0099 5.41549C21.0456 6.49192 21.1126 8.51085 20.0194 10.6972C19.5604 11.6153 18.9098 12.5456 18 13.4564V18C18 18.4589 17.6877 18.8589 17.2425 18.9702L13.2425 19.9702C12.9438 20.0448 12.6273 19.9777 12.3846 19.7882C12.1419 19.5987 12 19.308 12 19V17.2859C11.4771 17.5095 10.9249 17.7278 10.3417 17.9398L9.74322 18.1575L9.29289 17.7071L7.29289 15.7071L6.84256 15.2568L7.06021 14.6583C7.27227 14.0751 7.4905 13.5229 7.71415 13H6C5.69206 13 5.4013 12.8582 5.21179 12.6154C5.02229 12.3727 4.95517 12.0562 5.02986 11.7575L6.02986 7.75749C6.14115 7.31232 6.54113 7.00002 7 7.00002H11.5436C12.4544 6.09022 13.3847 5.43964 14.3028 4.98059C16.4892 3.8874 18.5081 3.95437 19.5845 3.99007ZM14 16.3314C14.7394 15.9371 15.4036 15.5306 16 15.1154V17.2192L14 17.7192V16.3314ZM9.88465 9.00002H7.78078L7.28078 11H8.66863C9.06292 10.2607 9.46939 9.59641 9.88465 9.00002ZM9.16224 14.748L10.252 15.8378C15.1674 13.9401 17.2903 11.6833 18.2306 9.8028C18.966 8.33194 19.0344 7.01378 19.0202 5.9798C17.9862 5.96561 16.6681 6.03401 15.1972 6.76944C13.3167 7.70968 11.06 9.83264 9.16224 14.748ZM16 9.95888C16 10.5112 15.5523 10.9589 15 10.9589C14.4477 10.9589 14 10.5112 14 9.95888C14 9.4066 14.4477 8.95888 15 8.95888C15.5523 8.95888 16 9.4066 16 9.95888ZM17 8.95888C17.5523 8.95888 18 8.51117 18 7.95888C18 7.4066 17.5523 6.95888 17 6.95888C16.4477 6.95888 16 7.4066 16 7.95888C16 8.51117 16.4477 8.95888 17 8.95888ZM14 11.9589C14 12.5112 13.5523 12.9589 13 12.9589C12.4477 12.9589 12 12.5112 12 11.9589C12 11.4066 12.4477 10.9589 13 10.9589C13.5523 10.9589 14 11.4066 14 11.9589ZM6.70711 19.7071C7.09763 19.3166 7.09763 18.6834 6.70711 18.2929C6.31658 17.9024 5.68342 17.9024 5.29289 18.2929L3.29289 20.2929C2.90237 20.6834 2.90237 21.3166 3.29289 21.7071C3.68342 22.0977 4.31658 22.0977 4.70711 21.7071L6.70711 19.7071ZM10.7071 19.293C11.0977 19.6835 11.0976 20.3167 10.7071 20.7072L8.7071 22.7071C8.31657 23.0977 7.6834 23.0976 7.29288 22.7071C6.90236 22.3166 6.90237 21.6834 7.2929 21.2929L9.29292 19.2929C9.68345 18.9024 10.3166 18.9024 10.7071 19.293ZM5.70712 15.7072C6.09765 15.3167 6.09765 14.6835 5.70713 14.293C5.31662 13.9024 4.68345 13.9024 4.29292 14.2929L2.2929 16.2929C1.90237 16.6834 1.90236 17.3166 2.29288 17.7071C2.6834 18.0976 3.31657 18.0977 3.7071 17.7071L5.70712 15.7072Z" fill="currentColor"/>
</svg>
