<svg width="24" height="24" viewBox="0 0 24 24" fill="none" xmlns="http://www.w3.org/2000/svg">
<path fill-rule="evenodd" clip-rule="evenodd" d="M5.07821 7.98628C5.90413 6.56503 7.15524 5.42143 8.65736 4.72967C8.50948 4.89608 8.35903 5.07638 8.20871 5.27091C7.59856 6.06051 6.99357 7.08147 6.57147 8.35011C6.14021 8.25648 5.70145 8.15119 5.2558 8.03327L5.07821 7.98628ZM4.29296 9.84733C4.10205 10.5322 4 11.2542 4 12C4 12.7648 4.10731 13.5045 4.30769 14.2049L4.61606 14.0766C4.99418 13.9194 5.49437 13.7548 6.10339 13.6029C6.03666 13.0973 6 12.5632 6 12C6 11.3999 6.04163 10.8328 6.1169 10.298C5.66613 10.1997 5.20836 10.0896 4.74419 9.96673L4.29296 9.84733ZM8.0859 10.6621C8.03054 11.0823 8 11.528 8 12C8 12.4313 8.0255 12.8407 8.07214 13.2287C8.94007 13.1085 9.92166 13.0253 11 13.0049V10.9607C10.0784 10.9122 9.10436 10.8167 8.0859 10.6621ZM13 10.9951V13.0393C13.9216 13.0878 14.8956 13.1833 15.9141 13.3379C15.9695 12.9177 16 12.472 16 12C16 11.5687 15.9745 11.1593 15.9279 10.7713C15.0599 10.8915 14.0783 10.9747 13 10.9951ZM15.4733 8.81432C14.7407 8.90906 13.912 8.97606 13 8.99476V5.23665C13.3267 5.50681 13.7669 5.92198 14.2087 6.4938C14.6683 7.08862 15.1326 7.85581 15.4733 8.81432ZM17.8966 10.3971C17.9633 10.9027 18 11.4368 18 12C18 12.6001 17.9584 13.1672 17.8831 13.702C18.3339 13.8003 18.7916 13.9104 19.2558 14.0333L19.707 14.1527C19.8979 13.4678 20 12.7458 20 12C20 11.2352 19.8927 10.4955 19.6923 9.79514L19.3839 9.92336C19.0058 10.0806 18.5056 10.2452 17.8966 10.3971ZM18.9045 7.9567L18.6161 8.07664C18.3357 8.19323 17.9466 8.32184 17.4596 8.44511C17.0365 7.13234 16.4166 6.08013 15.7913 5.27091C15.641 5.07638 15.4905 4.89608 15.3426 4.72967C16.8343 5.41663 18.0785 6.54916 18.9045 7.9567ZM11 8.95785C10.2288 8.9143 9.41496 8.83508 8.56409 8.71133C8.90091 7.80068 9.34824 7.06716 9.79129 6.4938C10.2331 5.92198 10.6733 5.50681 11 5.23665V8.95785ZM5.38394 15.9234C5.66432 15.8068 6.05337 15.6782 6.54035 15.5549C6.96352 16.8677 7.58341 17.9199 8.20872 18.7291C8.35903 18.9236 8.50949 19.1039 8.65736 19.2703C7.16568 18.5834 5.92153 17.4508 5.09549 16.0433L5.38394 15.9234ZM11 15.0052C10.088 15.0239 9.25931 15.0909 8.52674 15.1857C8.86741 16.1442 9.33165 16.9114 9.79129 17.5062C10.2331 18.078 10.6733 18.4932 11 18.7633V15.0052ZM13 18.7633V15.0421C13.7712 15.0857 14.585 15.1649 15.4359 15.2887C15.0991 16.1993 14.6518 16.9328 14.2087 17.5062C13.7669 18.078 13.3267 18.4932 13 18.7633ZM15.7913 18.7291C16.4014 17.9395 17.0064 16.9185 17.4285 15.6499C17.8598 15.7435 18.2985 15.8488 18.7442 15.9667L18.9218 16.0137C18.0959 17.435 16.8448 18.5786 15.3426 19.2703C15.4905 19.1039 15.641 18.9236 15.7913 18.7291ZM12 2C6.47715 2 2 6.47715 2 12C2 17.5228 6.47715 22 12 22C17.5228 22 22 17.5228 22 12C22 6.47715 17.5228 2 12 2Z" fill="currentColor"/>
<path fill-rule="evenodd" clip-rule="evenodd" d="M5.07821 7.98628C5.90413 6.56503 7.15524 5.42143 8.65736 4.72967C8.50948 4.89608 8.35903 5.07638 8.20871 5.27091C7.59856 6.06051 6.99357 7.08147 6.57147 8.35011C6.14021 8.25648 5.70145 8.15119 5.2558 8.03327L5.07821 7.98628ZM4.29296 9.84733C4.10205 10.5322 4 11.2542 4 12C4 12.7648 4.10731 13.5045 4.30769 14.2049L4.61606 14.0766C4.99418 13.9194 5.49437 13.7548 6.10339 13.6029C6.03666 13.0973 6 12.5632 6 12C6 11.3999 6.04163 10.8328 6.1169 10.298C5.66613 10.1997 5.20836 10.0896 4.74419 9.96673L4.29296 9.84733ZM8.0859 10.6621C8.03054 11.0823 8 11.528 8 12C8 12.4313 8.0255 12.8407 8.07214 13.2287C8.94007 13.1085 9.92166 13.0253 11 13.0049V10.9607C10.0784 10.9122 9.10436 10.8167 8.0859 10.6621ZM13 10.9951V13.0393C13.9216 13.0878 14.8956 13.1833 15.9141 13.3379C15.9695 12.9177 16 12.472 16 12C16 11.5687 15.9745 11.1593 15.9279 10.7713C15.0599 10.8915 14.0783 10.9747 13 10.9951ZM15.4733 8.81432C14.7407 8.90906 13.912 8.97606 13 8.99476V5.23665C13.3267 5.50681 13.7669 5.92198 14.2087 6.4938C14.6683 7.08862 15.1326 7.85581 15.4733 8.81432ZM17.8966 10.3971C17.9633 10.9027 18 11.4368 18 12C18 12.6001 17.9584 13.1672 17.8831 13.702C18.3339 13.8003 18.7916 13.9104 19.2558 14.0333L19.707 14.1527C19.8979 13.4678 20 12.7458 20 12C20 11.2352 19.8927 10.4955 19.6923 9.79514L19.3839 9.92336C19.0058 10.0806 18.5056 10.2452 17.8966 10.3971ZM18.9045 7.9567L18.6161 8.07664C18.3357 8.19323 17.9466 8.32184 17.4596 8.44511C17.0365 7.13234 16.4166 6.08013 15.7913 5.27091C15.641 5.07638 15.4905 4.89608 15.3426 4.72967C16.8343 5.41663 18.0785 6.54916 18.9045 7.9567ZM11 8.95785C10.2288 8.9143 9.41496 8.83508 8.56409 8.71133C8.90091 7.80068 9.34824 7.06716 9.79129 6.4938C10.2331 5.92198 10.6733 5.50681 11 5.23665V8.95785ZM5.38394 15.9234C5.66432 15.8068 6.05337 15.6782 6.54035 15.5549C6.96352 16.8677 7.58341 17.9199 8.20872 18.7291C8.35903 18.9236 8.50949 19.1039 8.65736 19.2703C7.16568 18.5834 5.92153 17.4508 5.09549 16.0433L5.38394 15.9234ZM11 15.0052C10.088 15.0239 9.25931 15.0909 8.52674 15.1857C8.86741 16.1442 9.33165 16.9114 9.79129 17.5062C10.2331 18.078 10.6733 18.4932 11 18.7633V15.0052ZM13 18.7633V15.0421C13.7712 15.0857 14.585 15.1649 15.4359 15.2887C15.0991 16.1993 14.6518 16.9328 14.2087 17.5062C13.7669 18.078 13.3267 18.4932 13 18.7633ZM15.7913 18.7291C16.4014 17.9395 17.0064 16.9185 17.4285 15.6499C17.8598 15.7435 18.2985 15.8488 18.7442 15.9667L18.9218 16.0137C18.0959 17.435 16.8448 18.5786 15.3426 19.2703C15.4905 19.1039 15.641 18.9236 15.7913 18.7291ZM12 2C6.47715 2 2 6.47715 2 12C2 17.5228 6.47715 22 12 22C17.5228 22 22 17.5228 22 12C22 6.47715 17.5228 2 12 2Z" fill="currentColor"/>
</svg>
