<svg viewBox="0 0 32 32" fill="none" xmlns="http://www.w3.org/2000/svg">
  <path fill="currentColor" fill-rule="evenodd" clip-rule="evenodd" d="M12 1.95886C12 1.40658 11.5523 0.958862 11 0.958862C10.4478 0.958862 10 1.40658 10 1.95886V11.9589C10 12.5111 10.4478 12.9589 11 12.9589C11.5523 12.9589 12 12.5111 12 11.9589V1.95886ZM6.70712 6.29282L6.7047 6.29041L1.70711 1.29282C1.31658 0.902297 0.683417 0.902298 0.292894 1.29282C-0.0976312 1.68335 -0.0976312 2.31651 0.292893 2.70704L4.58579 6.99993L0.292905 11.2928C-0.0976192 11.6833 -0.0976188 12.3165 0.292905 12.707C0.68343 13.0976 1.31659 13.0976 1.70712 12.707L6.70712 7.70704C7.09764 7.31651 7.09764 6.68335 6.70712 6.29282Z"/>
</svg>
