<svg width="24" height="24" viewBox="0 0 24 24" fill="none" xmlns="http://www.w3.org/2000/svg">
<path fill-rule="evenodd" clip-rule="evenodd" d="M16.9497 7.05026C16.1687 6.26921 14.9024 6.26921 14.1213 7.05026L12 9.17158C11.6095 9.5621 10.9763 9.5621 10.5858 9.17158C10.1953 8.78105 10.1953 8.14789 10.5858 7.75736L12.7071 5.63604C14.2692 4.07395 16.8019 4.07395 18.364 5.63604C19.926 7.19814 19.926 9.7308 18.364 11.2929L16.2426 13.4142C15.8521 13.8047 15.2189 13.8047 14.8284 13.4142C14.4379 13.0237 14.4379 12.3905 14.8284 12L16.9497 9.87869C17.7308 9.09764 17.7308 7.83131 16.9497 7.05026ZM14.1213 9.87869C14.5118 10.2692 14.5118 10.9024 14.1213 11.2929L11.2929 14.1213C10.9024 14.5118 10.2692 14.5119 9.87867 14.1213C9.48814 13.7308 9.48814 13.0976 9.87867 12.7071L12.7071 9.87869C13.0976 9.48816 13.7308 9.48816 14.1213 9.87869ZM9.87867 16.9498C9.09762 17.7308 7.83129 17.7308 7.05024 16.9498C6.26919 16.1687 6.26919 14.9024 7.05024 14.1213L9.17156 12C9.56209 11.6095 9.56209 10.9763 9.17156 10.5858C8.78104 10.1953 8.14787 10.1953 7.75735 10.5858L5.63603 12.7071C4.07393 14.2692 4.07393 16.8019 5.63603 18.364C7.19813 19.9261 9.73079 19.9261 11.2929 18.364L13.4142 16.2426C13.8047 15.8521 13.8047 15.219 13.4142 14.8284C13.0237 14.4379 12.3905 14.4379 12 14.8284L9.87867 16.9498Z" fill="currentColor"/>
<path fill-rule="evenodd" clip-rule="evenodd" d="M16.9497 7.05026C16.1687 6.26921 14.9024 6.26921 14.1213 7.05026L12 9.17158C11.6095 9.5621 10.9763 9.5621 10.5858 9.17158C10.1953 8.78105 10.1953 8.14789 10.5858 7.75736L12.7071 5.63604C14.2692 4.07395 16.8019 4.07395 18.364 5.63604C19.926 7.19814 19.926 9.7308 18.364 11.2929L16.2426 13.4142C15.8521 13.8047 15.2189 13.8047 14.8284 13.4142C14.4379 13.0237 14.4379 12.3905 14.8284 12L16.9497 9.87869C17.7308 9.09764 17.7308 7.83131 16.9497 7.05026ZM14.1213 9.87869C14.5118 10.2692 14.5118 10.9024 14.1213 11.2929L11.2929 14.1213C10.9024 14.5118 10.2692 14.5119 9.87867 14.1213C9.48814 13.7308 9.48814 13.0976 9.87867 12.7071L12.7071 9.87869C13.0976 9.48816 13.7308 9.48816 14.1213 9.87869ZM9.87867 16.9498C9.09762 17.7308 7.83129 17.7308 7.05024 16.9498C6.26919 16.1687 6.26919 14.9024 7.05024 14.1213L9.17156 12C9.56209 11.6095 9.56209 10.9763 9.17156 10.5858C8.78104 10.1953 8.14787 10.1953 7.75735 10.5858L5.63603 12.7071C4.07393 14.2692 4.07393 16.8019 5.63603 18.364C7.19813 19.9261 9.73079 19.9261 11.2929 18.364L13.4142 16.2426C13.8047 15.8521 13.8047 15.219 13.4142 14.8284C13.0237 14.4379 12.3905 14.4379 12 14.8284L9.87867 16.9498Z" fill="currentColor"/>
</svg>
