<svg width="26" height="25" viewBox="0 0 26 25" fill="none" xmlns="http://www.w3.org/2000/svg">
<rect x="1" y="0.876465" width="24" height="24" stroke="#E6E6E6" stroke-width="0.1"/>
<rect x="3" y="2.89697" width="20" height="20" stroke="#E6E6E6" stroke-width="0.1"/>
<rect x="4" y="3.89697" width="18" height="18" rx="2" stroke="#B8B4E4" stroke-width="0.1"/>
<rect x="5" y="2.89697" width="16" height="20" rx="2" stroke="#B8B4E4" stroke-width="0.1"/>
<rect x="3" y="4.89697" width="20" height="16" rx="2" stroke="#B8B4E4" stroke-width="0.1"/>
<circle cx="13" cy="12.8765" r="10" stroke="#B8B4E4" stroke-width="0.1"/>
<line x1="13" y1="2.87646" x2="13" y2="22.8765" stroke="#B8B4E4" stroke-width="0.1"/>
<line x1="8.99995" y1="2.87646" x2="8.99995" y2="22.8765" stroke="#B8B4E4" stroke-width="0.1"/>
<path d="M3 12.8765L23 12.8765" stroke="#B8B4E4" stroke-width="0.1"/>
<path d="M3 8.87646L23 8.87647" stroke="#B8B4E4" stroke-width="0.1"/>
<path d="M3 16.8765L23 16.8765" stroke="#B8B4E4" stroke-width="0.1"/>
<line x1="17" y1="2.87646" x2="17" y2="22.8765" stroke="#B8B4E4" stroke-width="0.1"/>
<path d="M23 2.87646L3 22.8765" stroke="#B8B4E4" stroke-width="0.1"/>
<path d="M3 2.87646L23 22.8765" stroke="#B8B4E4" stroke-width="0.1"/>
<path fill-rule="evenodd" clip-rule="evenodd" d="M10.8787 5.75514C11.4413 5.19254 12.2044 4.87646 13 4.87646C13.7956 4.87646 14.5587 5.19254 15.1213 5.75514C15.6839 6.31775 16 7.08082 16 7.87646V10.8765H10V7.87646C10 7.08082 10.3161 6.31775 10.8787 5.75514ZM8 10.8765V7.87646C8 6.55038 8.52678 5.27861 9.46447 4.34093C10.4021 3.40325 11.6739 2.87646 13 2.87646C14.3261 2.87646 15.5979 3.40325 16.5355 4.34093C17.4732 5.27861 18 6.55038 18 7.87646V10.8765H19C20.1046 10.8765 21 11.7719 21 12.8765V20.8765C21 21.981 20.1046 22.8765 19 22.8765H7C5.89543 22.8765 5 21.981 5 20.8765V12.8765C5 11.7719 5.89543 10.8765 7 10.8765H8ZM17 12.8765H19V20.8765H7V12.8765H9H17ZM11 16.8765C11 15.7719 11.8954 14.8765 13 14.8765C14.1046 14.8765 15 15.7719 15 16.8765C15 17.981 14.1046 18.8765 13 18.8765C11.8954 18.8765 11 17.981 11 16.8765Z" fill="#312B78"/>
</svg>
