<svg width="63" height="32" viewBox="0 0 63 32" fill="none" xmlns="http://www.w3.org/2000/svg">
<rect width="63" height="32" fill="#312B78"/>
<path fill-rule="evenodd" clip-rule="evenodd" d="M0 27H8.98128V25.213H0V27Z" fill="white"/>
<path fill-rule="evenodd" clip-rule="evenodd" d="M8.91809 27H17.8988V25.213H8.91809V27Z" fill="white" fill-opacity="0.88"/>
<path fill-rule="evenodd" clip-rule="evenodd" d="M17.8223 27H26.803V25.213H17.8223V27Z" fill="white" fill-opacity="0.76"/>
<path fill-rule="evenodd" clip-rule="evenodd" d="M26.803 27H35.7848V25.213H26.803V27Z" fill="white" fill-opacity="0.64"/>
<path fill-rule="evenodd" clip-rule="evenodd" d="M35.7849 27H44.7656V25.213H35.7849V27Z" fill="white" fill-opacity="0.52"/>
<path fill-rule="evenodd" clip-rule="evenodd" d="M44.7523 27H53.7341V25.213H44.7523V27Z" fill="white" fill-opacity="0.4"/>
<path fill-rule="evenodd" clip-rule="evenodd" d="M53.683 27H62.6643V25.213H53.683V27Z" fill="white" fill-opacity="0.28"/>
<path fill-rule="evenodd" clip-rule="evenodd" d="M55.5781 16.7485C57.0939 16.7485 59.0644 12.9838 59.2407 9.86627C58.887 9.77756 58.47 9.68885 58.1285 9.68885C55.8941 9.68885 54.6683 12.0591 54.6683 14.7708C54.6555 16.026 54.9843 16.7479 55.5776 16.7479H55.5781V16.7485ZM62.4498 7.94016C62.2762 8.69085 62.1576 9.45318 62.0949 10.2211L61.5527 16.9253H62.9288L62.7275 19.1686H58.7356C58.887 17.6982 59.1021 16.1524 59.4547 14.7963H59.3921C58.4451 18.0026 56.7646 19.397 54.9206 19.397C53.0133 19.397 51.6372 18.053 51.6372 15.1129C51.6372 10.1451 54.6173 7.45891 58.2305 7.45891C59.3921 7.45891 60.4161 7.66128 61.3376 7.94016H62.4498ZM45.4342 5.21567L48.3261 5L48.1121 7.68734H51.156L50.9536 9.93003H47.8848L47.5821 13.4535C47.5183 14.2385 47.4035 15.2526 47.4035 15.7599C47.4035 16.596 47.7839 16.9508 48.4403 16.9508C49.0713 16.9508 49.7288 16.6592 50.4607 16.3299L50.2217 18.75C49.3888 19.1284 48.4842 19.3232 47.5693 19.321C45.5096 19.321 44.5255 18.2687 44.5255 16.2922C44.5255 15.6961 44.6375 14.8218 44.7012 13.9597L45.004 9.94278H43.4759L43.6777 7.69954H45.2324L45.4336 5.21567H45.4342ZM33.928 7.67403H38.1711C38.058 8.90321 37.9316 10.3608 37.6666 11.7802H37.7553C38.4744 8.45967 40.054 7.55982 41.898 7.55982C42.163 7.55982 42.3527 7.58533 42.6188 7.67403L42.2262 10.4623C42.0743 10.4373 41.923 10.4113 41.7716 10.4113C40.0784 10.4113 38.3363 11.4259 37.4393 19.1558H34.5468C34.6732 17.9266 34.8367 16.4557 34.8999 15.2398L35.2293 9.90508H33.739L33.9275 7.67403H33.928ZM26.0212 12.9212C28.9509 12.5275 29.8102 11.5772 29.8102 10.6148C29.8102 10.0187 29.3684 9.68885 28.6986 9.68885C27.0059 9.68885 26.1465 11.1847 26.0207 12.9212H26.0212ZM31.6543 18.6363C30.6308 19.1176 29.4177 19.3837 28.0416 19.3837C24.7954 19.3837 23.0018 17.8629 23.0018 14.5302C23.0018 10.1962 25.3637 7.44616 29.2037 7.44616C31.743 7.44616 32.8408 8.64928 32.8408 10.2211C32.8408 12.4388 30.7572 14.467 26.0323 14.8218C26.0955 16.4308 27.2837 16.8871 28.5461 16.8871C29.7969 16.8871 30.9978 16.4945 32.0585 16.0127L31.6537 18.6363H31.6543ZM21.4971 18.6363C20.5506 19.1686 19.4645 19.3837 18.3412 19.3837C15.3218 19.3837 13.2626 17.8002 13.2626 14.1121C13.2626 9.53693 16.0669 7.44616 19.3265 7.44616C20.463 7.44616 21.4721 7.62358 22.3692 7.92741L22.1058 11.3621H19.7434V9.82857C19.6308 9.73986 19.3908 9.7016 19.1756 9.7016C17.8993 9.7016 16.2837 10.7162 16.2837 13.7063C16.2837 15.8608 17.3815 16.8998 19.1124 16.8998C19.984 16.8998 20.8944 16.6337 21.7904 16.1524L21.4987 18.6363H21.4982H21.4971ZM4.48537 16.7479C6.00063 16.7479 7.97054 12.9838 8.14796 9.86627C7.79312 9.77756 7.37729 9.68885 7.03632 9.68885C4.80084 9.68885 3.57443 12.0591 3.57443 14.7708C3.56279 16.026 3.89046 16.7479 4.48426 16.7479H4.48537ZM11.3559 7.94016C11.1824 8.69085 11.0638 9.45318 11.0011 10.2211L10.4594 16.9253H11.8344L11.6337 19.1686H7.6412C7.79256 17.6982 8.00769 16.1524 8.36197 14.7963H8.27326C7.32629 18.0026 5.64524 19.397 3.8023 19.397C1.89505 19.397 0.517838 18.053 0.517838 15.1129C0.517838 10.1451 3.49903 7.45891 7.11117 7.45891C8.27381 7.45891 9.2973 7.66128 10.2188 7.94016H11.3554H11.3559Z" fill="white"/>
</svg>
