<svg width="79" height="32" viewBox="0 0 79 32" fill="none" xmlns="http://www.w3.org/2000/svg">
<rect width="79" height="32" fill="#312B78"/>
<path d="M20.2807 19.7716C21.0166 20.2028 21.8483 20.444 22.7007 20.4736C24.0006 20.4736 24.6267 19.8236 24.6267 18.9852C24.6267 18.1467 24.1111 17.6398 22.7852 17.1436C20.961 16.4785 20.1139 15.5036 20.1139 14.299C20.1139 12.6806 21.4376 11.3568 23.5803 11.3568C24.4366 11.3351 25.2823 11.5503 26.0241 11.9786L25.5908 13.2785C24.9701 12.9093 24.2635 12.7091 23.5413 12.6979C22.458 12.6979 21.8839 13.3197 21.8839 14.065C21.8839 14.9143 22.4645 15.2869 23.7688 15.7831C25.4868 16.433 26.3989 17.2996 26.3989 18.8162C26.3989 20.5949 25.0124 21.8493 22.6704 21.8493C21.6866 21.8605 20.7166 21.618 19.8539 21.1452L20.2807 19.7716Z" fill="white"/>
<path d="M36.5642 6.91342V19.0243C36.5642 19.9169 36.5837 20.9308 36.6487 21.6241H35.0108L34.9285 19.8909H34.8808C34.3218 21.0067 33.1194 21.8581 31.4837 21.8581C29.0594 21.8581 27.1766 19.8064 27.1766 16.7646C27.1572 13.4087 29.2478 11.3808 31.67 11.3808C33.2234 11.3808 34.2698 12.1044 34.7031 12.8974H34.7443V6.91342H36.5642ZM34.7421 15.6727C34.7475 15.4076 34.7213 15.1429 34.6642 14.8841C34.5314 14.2854 34.1975 13.7503 33.7182 13.3679C33.2388 12.9855 32.6429 12.7789 32.0297 12.7825C30.1448 12.7825 29.0312 14.4486 29.0312 16.6454C29.0312 18.695 30.0451 20.3719 31.9928 20.3719C32.6185 20.366 33.2236 20.1478 33.7089 19.753C34.1943 19.3582 34.5311 18.8102 34.6642 18.1988C34.7247 17.9405 34.7524 17.6755 34.7465 17.4102L34.7421 15.6727Z" fill="white"/>
<path d="M39.8815 11.5931L41.2291 16.6671C41.4977 17.7851 41.7664 18.8337 41.9549 19.8779H42.0155C42.2474 18.8597 42.5723 17.7851 42.8973 16.6823L44.533 11.5866H46.0669L47.6203 16.5978C47.9908 17.7786 48.2833 18.8532 48.5108 19.8693H48.5714C48.7668 18.7727 49.0229 17.6877 49.3384 16.6195L50.7683 11.5888H52.5687L49.3449 21.6155H47.6875L46.1471 16.8318C45.7961 15.6922 45.4971 14.6999 45.2588 13.517H45.2177C44.9785 14.6445 44.6739 15.757 44.3056 16.8491L42.6915 21.6155H41.0341L38.001 11.5931H39.8815Z" fill="white"/>
<path d="M57.4736 21.8429C54.7828 21.8429 52.6704 19.854 52.6704 16.6866C52.6704 13.3306 54.8868 11.3656 57.6404 11.3656C60.5197 11.3656 62.4653 13.4563 62.4653 16.5003C62.4653 20.2267 59.8763 21.8429 57.4953 21.8429H57.4736ZM57.5343 20.4737C59.2675 20.4737 60.5782 18.8379 60.5782 16.5609C60.5782 14.8624 59.729 12.7305 57.5754 12.7305C55.4219 12.7305 54.5141 14.7194 54.5141 16.6303C54.5141 18.8271 55.7555 20.4802 57.5126 20.4802L57.5343 20.4737Z" fill="white"/>
<path d="M63.9647 14.7191C63.9647 13.5383 63.943 12.5222 63.8823 11.5906H65.4747L65.557 13.5578H65.6199C66.0748 12.2124 67.1928 11.3631 68.4147 11.3631C68.5827 11.3615 68.7502 11.3819 68.913 11.4238V13.1202C68.6971 13.0961 68.4802 13.0831 68.263 13.0812C66.9783 13.0812 66.0662 14.0518 65.8192 15.3994C65.7765 15.6862 65.7555 15.9759 65.7564 16.266V21.6129H63.9365L63.9647 14.7191Z" fill="white"/>
<path d="M71.9286 11.5932L73.3563 13.7272C73.729 14.3078 74.0388 14.8105 74.3703 15.3629H74.4331C74.7646 14.7823 75.0961 14.2645 75.4492 13.7272L76.8379 11.5932H78.8246L75.4145 16.4375L78.9156 21.6155H76.8444L75.3734 19.358C74.9812 18.7795 74.6498 18.2184 74.2901 17.6248H74.2489C73.9175 18.2249 73.5643 18.7622 73.1917 19.358L71.7423 21.6155H69.7361L73.2957 16.5003L69.9072 11.5932H71.9286Z" fill="white"/>
<path d="M7.84931 7.83398L5.5918 28H9.16873L11.5736 7.83398H7.84931Z" fill="white"/>
<path d="M1.43424 21.7496H4.83135L3.47727 14.0758H0L1.43424 21.7496Z" fill="white"/>
<path d="M16.4352 0L11.8075 21.7411H15.4451L20.3068 0H16.4352Z" fill="white"/>
</svg>
