<svg width="16" height="16" viewBox="0 0 16 16" fill="none" xmlns="http://www.w3.org/2000/svg">
<path fill-rule="evenodd" clip-rule="evenodd" d="M9.33341 2.91663C9.74763 2.91663 10.0834 3.25241 10.0834 3.66663C10.0834 4.08084 9.74763 4.41663 9.33341 4.41663H5.66675C5.52868 4.41663 5.41675 4.52855 5.41675 4.66663V11.3333C5.41675 11.4714 5.52868 11.5833 5.66675 11.5833H9.33341C9.74763 11.5833 10.0834 11.9191 10.0834 12.3333C10.0834 12.7475 9.74763 13.0833 9.33341 13.0833H5.66675C4.70025 13.0833 3.91675 12.2998 3.91675 11.3333V4.66663C3.91675 3.70013 4.70025 2.91663 5.66675 2.91663H9.33341ZM8.33341 7.24997C7.9192 7.24997 7.58341 7.58576 7.58341 7.99997C7.58341 8.41418 7.9192 8.74997 8.33341 8.74997H12.1893L11.4696 9.46964C11.1767 9.76253 11.1767 10.2374 11.4696 10.5303C11.7625 10.8232 12.2374 10.8232 12.5302 10.5303L14.5211 8.5395C14.6623 8.40311 14.7501 8.2118 14.7501 7.99997C14.7501 7.78814 14.6623 7.59683 14.5211 7.46044L12.5302 5.46964C12.2374 5.17675 11.7625 5.17675 11.4696 5.46964C11.1767 5.76253 11.1767 6.23741 11.4696 6.5303L12.1893 7.24997H8.33341Z" fill="currentColor"/>
</svg>
