<svg width="376" height="240" viewBox="0 0 376 240" fill="none" xmlns="http://www.w3.org/2000/svg">
<g clip-path="url(#clip0_9285_662738)">
<path fill-rule="evenodd" clip-rule="evenodd" d="M161.127 1.15406C167.354 0.156031 173.667 -0.19776 179.966 0.0982924C201.956 1.02425 224.923 8.80406 243.108 18.8627C268.048 32.6512 288.578 53.3483 304.261 76.9762C311.346 87.6464 317.066 99.7733 317.222 112.581C317.641 146.855 284.666 156.406 257.614 164.241C256.388 164.596 255.175 164.947 253.977 165.297C233.883 171.168 213.116 174.961 192.157 175.494C167.932 176.106 143.378 172.157 120.958 162.802C100.838 154.408 75.1017 140.368 64.2037 120.739C58.2066 109.933 56.5825 96.1473 62.3662 85.2233C70.6739 69.5194 91.195 63.3348 107.447 60.2223C108.177 60.0829 108.912 59.949 109.65 59.8146C115.11 58.8207 120.695 57.8041 124.974 54.3608C131.713 48.9492 132.95 40.6204 134.193 32.2495C135.152 25.7975 136.114 19.3204 139.602 14.1348C144.477 6.88868 152.62 2.56175 161.127 1.15406ZM275.277 236.371C275.277 238.372 227.339 239.994 168.206 239.994C109.072 239.994 61.1344 238.372 61.1344 236.371C61.1344 234.37 109.072 232.748 168.206 232.748C227.339 232.748 275.277 234.37 275.277 236.371Z" fill="#D4D2EF"/>
<path d="M222.232 100.252C222.356 99.436 222.457 98.0774 221.834 97.5956C221.656 97.4396 221.443 97.3308 221.212 97.279C220.982 97.2273 220.742 97.2344 220.515 97.2996C220.288 97.3648 220.081 97.4861 219.914 97.6522C219.746 97.8184 219.622 98.0241 219.555 98.2504L219.246 99.0783C218.306 98.5187 216.921 96.9235 217.591 91.4802C217.703 90.5629 217.166 89.6312 216.388 89.3947C216.105 89.3115 215.801 89.3355 215.535 89.4622C215.269 89.5889 215.059 89.8093 214.945 90.0812C214.945 90.1072 214.925 90.1389 214.914 90.1649C214.829 89.9086 214.687 89.675 214.499 89.482C214.31 89.2891 214.08 89.1417 213.826 89.0514C213.541 88.9648 213.235 88.9872 212.965 89.114C212.696 89.2409 212.484 89.4632 212.369 89.7379C212.334 89.8167 212.305 89.8976 212.28 89.9802C212.102 89.7893 211.879 89.6464 211.631 89.5649C211.348 89.4823 211.045 89.5067 210.779 89.6333C210.513 89.7599 210.303 89.9799 210.189 90.2514C210.109 90.4237 210.057 90.6078 210.036 90.7966C210.036 90.8687 210.036 90.9351 210.013 91.0072L209.938 90.9754C209.653 90.8882 209.346 90.9102 209.077 91.0372C208.807 91.1641 208.595 91.3869 208.481 91.662C208.401 91.8334 208.35 92.0165 208.328 92.2043C208.148 93.5782 208.096 94.9659 208.172 96.3495C208.171 96.3696 208.171 96.3899 208.172 96.4101C208.208 96.9769 208.275 97.5412 208.374 98.1004C208.741 100.653 212.548 103.728 214.57 107.36L221.3 106.128L222.232 100.252Z" fill="#FAB59F"/>
<path d="M222.232 100.252L223.155 95.5503C223.19 95.3709 223.186 95.1859 223.143 95.0082C223.1 94.8304 223.019 94.664 222.906 94.5202C222.793 94.3765 222.651 94.2588 222.488 94.1753C222.325 94.0917 222.146 94.0442 221.964 94.0359C221.712 94.0247 221.463 94.0887 221.247 94.2197C221.032 94.3507 220.861 94.5428 220.755 94.7715L219.296 97.9244C218.005 98.4894 216.872 99.3619 215.996 100.466C215.12 101.569 214.528 102.871 214.271 104.256L222.232 100.252Z" fill="#FAB59F"/>
<path d="M229.472 120.511L222.137 102.915L212.124 106.154L218.663 123.635C219.376 125.571 223.446 128.167 226.668 126.719C229.175 125.591 230.372 122.94 229.472 120.511Z" fill="#20C0AE"/>
<path d="M241.691 126.635L227.972 117.139C225.457 115.697 221.888 116.251 219.803 118.408C217.616 120.67 217.974 124.247 220.458 125.931L233.228 135.566C235.602 137.176 237.379 137.562 239.911 135.774C243.454 133.27 245.216 128.654 241.691 126.635Z" fill="#20C0AE"/>
<path fill-rule="evenodd" clip-rule="evenodd" d="M181.994 56.7091C181.994 60.5884 178.85 63.7331 174.97 63.7331C171.091 63.7331 167.946 60.5884 167.946 56.7091C167.946 52.8298 171.091 49.6851 174.97 49.6851C178.85 49.6851 181.994 52.8298 181.994 56.7091ZM176.883 56.7091C176.883 57.7653 176.027 58.6216 174.97 58.6216C173.914 58.6216 173.058 57.7653 173.058 56.7091C173.058 55.6528 173.914 54.7966 174.97 54.7966C176.027 54.7966 176.883 55.6528 176.883 56.7091Z" fill="#211C4E"/>
<path fill-rule="evenodd" clip-rule="evenodd" d="M194.941 52.3589C195.529 55.0349 195.566 57.8027 195.05 60.4935L198.555 61.8666L195.67 69.1272L192.327 67.7916L192.183 67.7339C190.715 70.0187 188.804 71.9863 186.564 73.5205L186.506 73.558L187.992 77.0195L180.82 80.106L179.332 76.6445H179.28C178.357 76.8441 177.421 76.9819 176.479 77.057C176.341 77.0743 176.193 77.0743 176.052 77.0743L175.683 77.0945C175.559 77.1089 175.406 77.1089 175.27 77.1089H174.708H174.379H174.059C173.172 77.0628 172.288 76.9607 171.414 76.8032L171.194 76.7628L169.804 80.2589L162.552 77.3743L163.942 73.8781C161.635 72.4016 159.65 70.4735 158.107 68.2099L154.645 69.6955L151.565 62.5128L155.009 61.033C154.42 58.357 154.383 55.5889 154.902 52.8983L151.417 51.5108L154.302 44.2503L157.778 45.6378C159.253 43.3285 161.184 41.3447 163.452 39.808L161.99 36.4041L169.164 33.3205L170.632 36.7416C173.308 36.1545 176.076 36.1182 178.767 36.6349L180.151 33.1733L187.406 36.058L186.021 39.5195C188.33 40.9923 190.315 42.9188 191.857 45.182L195.295 43.7051L198.385 50.882L194.941 52.3589ZM184.141 46.4404C183.946 46.2632 183.749 46.0833 183.543 45.9205C183.454 45.8656 183.353 45.7849 183.269 45.7156C183.001 45.508 182.73 45.306 182.442 45.1214L182.369 45.081C182.231 44.9916 182.087 44.9051 181.942 44.8214L178.227 53.8474C178.253 53.8762 178.279 53.9051 178.302 53.931C178.317 53.9478 178.332 53.9683 178.346 53.9876C178.354 53.9982 178.361 54.0084 178.368 54.0176C178.438 54.1012 178.501 54.1849 178.562 54.2714C178.559 54.2789 178.559 54.287 178.562 54.2945C178.863 54.7433 179.078 55.2441 179.196 55.7714V55.7945C179.201 55.8139 179.205 55.8332 179.209 55.8525C179.229 55.939 179.248 56.024 179.248 56.1089L179.266 56.2185C179.283 56.3051 179.283 56.3887 179.283 56.4724V56.5387L188.271 60.2541C188.355 59.9541 188.424 59.6512 188.485 59.3455C188.489 59.3179 188.496 59.2909 188.505 59.2647C188.563 58.9596 188.599 58.6521 188.636 58.3422C188.639 58.3122 188.643 58.2822 188.646 58.2522C188.651 58.208 188.659 58.163 188.667 58.1175C188.68 58.0473 188.693 57.9761 188.693 57.906C188.724 57.6407 188.724 57.3725 188.724 57.1072V57.107C188.742 56.9224 188.747 56.7233 188.742 56.5301C188.739 56.4454 188.733 56.3613 188.726 56.2772C188.718 56.1694 188.71 56.0617 188.71 55.9531C188.708 55.9163 188.706 55.8795 188.704 55.8427C188.692 55.6119 188.68 55.3826 188.655 55.1512C188.64 55.0527 188.623 54.9542 188.606 54.8539L188.597 54.8022C188.548 54.4647 188.499 54.1272 188.43 53.7983C188.422 53.7747 188.415 53.7506 188.41 53.7262C188.036 52.0421 187.352 50.4425 186.391 49.0099C186.378 48.9879 186.365 48.9667 186.35 48.9464C186.157 48.6637 185.952 48.3983 185.739 48.133C185.667 48.032 185.594 47.9339 185.519 47.8445C185.353 47.6436 185.166 47.4484 184.983 47.256L184.98 47.2531C184.919 47.1943 184.861 47.1302 184.803 47.0652C184.733 46.9869 184.662 46.9074 184.582 46.8349C184.549 46.8052 184.516 46.7757 184.484 46.7464C184.371 46.6443 184.261 46.544 184.146 46.4455L184.141 46.4404ZM163.38 49.2349L163.328 49.3272C163.227 49.4974 163.129 49.6589 163.008 49.8118L172.005 53.5272C172.033 53.5011 172.068 53.4709 172.1 53.4445C172.127 53.4212 172.151 53.4009 172.164 53.3887C172.179 53.3735 172.197 53.3592 172.215 53.3454C172.227 53.3356 172.239 53.3261 172.25 53.3166C172.286 53.2901 172.321 53.2631 172.356 53.2362C172.405 53.1987 172.454 53.1615 172.504 53.1262L172.53 53.1118C172.974 52.8111 173.472 52.5968 173.995 52.4801H174.027C174.111 52.4615 174.193 52.4485 174.277 52.4351C174.297 52.4319 174.318 52.4286 174.339 52.4253C174.356 52.4171 174.365 52.4173 174.377 52.4176C174.39 52.418 174.409 52.4186 174.451 52.408C174.532 52.3878 174.616 52.3878 174.699 52.3878H174.887C174.93 52.3835 174.973 52.3835 175.017 52.3878L178.706 43.4455C178.331 43.3272 177.953 43.232 177.569 43.157H177.494C177.205 43.1017 176.907 43.0639 176.612 43.0265C176.569 43.021 176.525 43.0154 176.482 43.0099C176.438 43.0055 176.395 42.9987 176.351 42.9918C176.28 42.9806 176.209 42.9695 176.139 42.9695C175.867 42.932 175.599 42.932 175.331 42.932C175.138 42.9176 174.942 42.9147 174.754 42.9176C174.666 42.9189 174.577 42.9267 174.486 42.9345C174.384 42.9433 174.281 42.9522 174.177 42.9522C174.117 42.9555 174.056 42.9583 173.996 42.9611C173.792 42.9707 173.589 42.9803 173.387 43.007C173.32 43.0134 173.253 43.0242 173.187 43.035C173.134 43.0437 173.08 43.0525 173.026 43.0589C172.692 43.108 172.363 43.157 172.034 43.2291C172 43.2361 171.966 43.2447 171.933 43.2551C170.264 43.6351 168.68 44.3197 167.26 45.2743C167.231 45.2885 167.203 45.3049 167.176 45.3233C166.899 45.5137 166.634 45.7214 166.371 45.9291C166.341 45.9519 166.311 45.9745 166.281 45.997C166.213 46.0483 166.145 46.0991 166.083 46.1512C165.939 46.2817 165.794 46.4186 165.649 46.556C165.601 46.6009 165.554 46.6459 165.506 46.6906C165.447 46.7499 165.384 46.8064 165.321 46.8633C165.24 46.9365 165.158 47.0104 165.082 47.0916C164.995 47.1838 164.913 47.2771 164.832 47.3693C164.787 47.4215 164.741 47.4733 164.695 47.5243C164.675 47.5469 164.655 47.5695 164.634 47.5922C164.475 47.7686 164.316 47.9456 164.17 48.1272C164.119 48.1883 164.072 48.2548 164.024 48.322C164.002 48.3532 163.98 48.3846 163.957 48.4156C163.912 48.4774 163.868 48.5389 163.823 48.6004C163.673 48.8062 163.522 49.0128 163.38 49.2349ZM165.915 67.093C166.07 67.2321 166.226 67.3707 166.392 67.5003C166.405 67.5109 166.419 67.5214 166.433 67.532C166.513 67.5933 166.595 67.6556 166.637 67.7368C166.691 67.7761 166.745 67.8155 166.799 67.855C167.015 68.0128 167.231 68.1707 167.462 68.3137C167.476 68.3249 167.492 68.3342 167.508 68.3438C167.522 68.3516 167.535 68.3595 167.548 68.3685C167.773 68.5099 168.007 68.6455 168.238 68.7724L171.927 59.8445L171.91 59.8243C171.866 59.7832 171.825 59.7399 171.786 59.6945C171.728 59.6367 171.675 59.5789 171.621 59.5186L171.613 59.5099L171.546 59.4205C171.527 59.3944 171.506 59.3685 171.486 59.3426C171.441 59.2853 171.395 59.2272 171.353 59.1637L171.339 59.1435C171.039 58.6964 170.825 58.1976 170.707 57.6724C170.709 57.6628 170.709 57.6531 170.707 57.6435C170.703 57.6262 170.699 57.609 170.695 57.5917C170.675 57.5051 170.655 57.4186 170.655 57.332V57.2195C170.644 57.1362 170.637 57.0525 170.635 56.9685V56.7868V56.7464L161.692 53.0483C161.594 53.3858 161.514 53.732 161.444 54.081C161.442 54.0937 161.438 54.1064 161.434 54.1191C161.428 54.1382 161.421 54.1572 161.421 54.1762C161.358 54.508 161.32 54.8397 161.283 55.1772C161.277 55.2224 161.269 55.2668 161.261 55.311C161.247 55.3853 161.234 55.459 161.234 55.5349C161.202 55.7974 161.202 56.0685 161.202 56.3339C161.188 56.5214 161.185 56.7233 161.188 56.9108C161.189 56.9979 161.195 57.0861 161.202 57.1754C161.209 57.2784 161.217 57.3827 161.217 57.4878C161.219 57.5255 161.221 57.5632 161.223 57.6009C161.235 57.8285 161.247 58.0558 161.271 58.281C161.278 58.3257 161.287 58.3696 161.297 58.4133C161.313 58.4881 161.329 58.5622 161.329 58.6387C161.378 58.9733 161.427 59.3051 161.496 59.6368L161.519 59.7262C161.898 61.3997 162.583 62.9888 163.539 64.4137C163.553 64.441 163.569 64.467 163.588 64.4916C163.778 64.7685 163.983 65.0368 164.193 65.3022C164.203 65.3144 164.212 65.3265 164.22 65.3386C164.285 65.4261 164.347 65.5095 164.416 65.5907C164.55 65.7457 164.697 65.899 164.845 66.0533C164.882 66.0913 164.919 66.1294 164.955 66.1676C165.007 66.2212 165.059 66.278 165.11 66.3353C165.189 66.4228 165.269 66.5114 165.356 66.5916C165.428 66.658 165.5 66.7221 165.572 66.7863C165.644 66.8505 165.717 66.9147 165.789 66.981C165.831 67.0183 165.873 67.0557 165.915 67.093ZM186.553 64.1611C186.567 64.1427 186.584 64.1212 186.584 64.1051L186.595 64.1022C186.708 63.9265 186.81 63.7487 186.905 63.5829C186.922 63.5527 186.939 63.5229 186.956 63.4935L178.014 59.7897C177.999 59.8059 177.983 59.8193 177.967 59.8326C177.954 59.843 177.941 59.8533 177.93 59.8647C177.872 59.9275 177.81 59.9854 177.742 60.0378L177.656 60.107C177.575 60.1733 177.492 60.2368 177.402 60.2974C177.398 60.2985 177.395 60.3004 177.392 60.3028C177.39 60.3044 177.388 60.3062 177.387 60.3081C177.386 60.3093 177.385 60.3105 177.385 60.3118C176.934 60.6136 176.431 60.8288 175.902 60.9464H175.879C175.803 60.9633 175.726 60.9756 175.649 60.9877C175.621 60.9921 175.592 60.9966 175.565 61.0012C175.548 61.0025 175.532 61.0061 175.516 61.0097C175.496 61.0141 175.476 61.0185 175.455 61.0185C175.383 61.0229 175.311 61.0229 175.239 61.0185L171.512 70.0445C171.774 70.1166 172.04 70.1801 172.311 70.232C172.346 70.2366 172.381 70.2443 172.415 70.2551C172.739 70.3178 173.07 70.3551 173.398 70.3922L173.41 70.3935C173.454 70.3988 173.499 70.4069 173.544 70.415C173.62 70.4288 173.697 70.4426 173.773 70.4426C174.036 70.4772 174.298 70.4772 174.564 70.4772C174.748 70.4916 174.947 70.4916 175.14 70.4916H175.141C175.238 70.4916 175.335 70.4836 175.431 70.4757C175.527 70.4678 175.623 70.4599 175.717 70.4599C175.753 70.458 175.788 70.4562 175.823 70.4544C176.058 70.4422 176.289 70.4302 176.519 70.4051C176.609 70.3939 176.7 70.3775 176.79 70.3614C176.816 70.3566 176.842 70.3519 176.868 70.3474C177.206 70.3041 177.543 70.2522 177.872 70.1801C177.897 70.1768 177.921 70.17 177.944 70.1599C179.629 69.7864 181.23 69.1016 182.664 68.1407L182.73 68.1003C183.007 67.9099 183.278 67.6993 183.543 67.4887C183.579 67.4622 183.615 67.4367 183.649 67.4117C183.713 67.366 183.774 67.3218 183.832 67.2753C184.008 67.1242 184.18 66.9621 184.351 66.8006C184.376 66.777 184.401 66.7535 184.426 66.7301C184.484 66.671 184.546 66.6153 184.61 66.5587C184.689 66.4883 184.769 66.4165 184.844 66.3349C184.947 66.2234 185.043 66.1136 185.139 66.0042C185.17 65.9692 185.2 65.9342 185.231 65.8993C185.413 65.7003 185.592 65.5041 185.756 65.2935C185.795 65.2446 185.83 65.1941 185.865 65.1441C185.898 65.0968 185.931 65.0499 185.967 65.0051C186.029 64.9145 186.094 64.8246 186.158 64.7343C186.289 64.5515 186.42 64.3674 186.543 64.1743C186.546 64.1702 186.55 64.1657 186.553 64.1611ZM176.883 56.7089C176.883 57.7652 176.027 58.6214 174.97 58.6214C173.914 58.6214 173.058 57.7652 173.058 56.7089C173.058 55.6527 173.914 54.7964 174.97 54.7964C176.027 54.7964 176.883 55.6527 176.883 56.7089Z" fill="#312B78"/>
<path fill-rule="evenodd" clip-rule="evenodd" d="M216.039 103.489C217.928 106.893 219.106 110.646 219.5 114.52L224.794 114.987L223.813 126.041L218.514 125.571C217.444 129.311 215.623 132.794 213.163 135.808L216.573 139.913L208.063 147.038L204.78 143.112L204.642 142.947C201.266 144.813 197.551 145.982 193.715 146.383H193.617L193.141 151.705L182.096 150.727L182.569 145.402L182.497 145.382C181.207 145.009 179.945 144.55 178.718 144.006C178.533 143.922 178.351 143.833 178.17 143.741L177.699 143.513C177.521 143.429 177.345 143.346 177.172 143.253C176.935 143.132 176.704 142.999 176.473 142.867L176.067 142.636C175.934 142.564 175.801 142.492 175.669 142.411C174.589 141.757 173.552 141.034 172.565 140.247L172.323 140.051L168.224 143.478L161.113 134.969L165.212 131.539C163.324 128.136 162.147 124.385 161.75 120.514L156.434 120.041L157.424 108.987L162.746 109.471C163.816 105.73 165.637 102.246 168.097 99.2311L164.675 95.1551L173.191 88.0359L176.6 92.1148C180.004 90.2233 183.757 89.0455 187.631 88.6532L188.101 83.3657L199.152 84.3465L198.685 89.6167V89.6311C200.548 90.1643 202.352 90.8843 204.071 91.7801C205.791 92.6832 207.416 93.7558 208.923 94.9821L212.993 91.5782L220.112 100.085L216.039 103.489ZM206.941 121.428V121.428V121.422C207.428 119.387 207.534 117.28 207.252 115.206V115.102C207.195 114.693 207.108 114.289 207.016 113.882C207.004 113.829 206.993 113.771 206.981 113.712C206.966 113.63 206.949 113.545 206.929 113.467C206.852 113.195 206.766 112.926 206.681 112.658C206.668 112.616 206.654 112.574 206.641 112.532C206.621 112.467 206.602 112.401 206.583 112.335C206.535 112.173 206.488 112.01 206.43 111.854C206.381 111.721 206.326 111.59 206.27 111.459C206.235 111.375 206.199 111.29 206.165 111.205C206.137 111.138 206.11 111.07 206.083 111.002C205.987 110.765 205.891 110.527 205.781 110.302C205.748 110.233 205.71 110.164 205.673 110.095C205.642 110.038 205.611 109.982 205.582 109.924L205.582 109.924C205.392 109.555 205.201 109.186 204.988 108.831C204.97 108.808 204.954 108.784 204.939 108.759C203.834 106.973 202.407 105.408 200.73 104.144L200.658 104.086C200.326 103.838 199.98 103.613 199.631 103.391C199.571 103.353 199.511 103.313 199.451 103.272C199.391 103.232 199.331 103.192 199.271 103.154C199.05 103.02 198.829 102.907 198.609 102.794C198.541 102.76 198.473 102.725 198.405 102.69C198.3 102.634 198.196 102.58 198.091 102.526C197.988 102.473 197.885 102.419 197.779 102.364C197.62 102.28 197.456 102.212 197.293 102.145C197.238 102.122 197.182 102.099 197.127 102.075C197.057 102.046 196.987 102.017 196.917 101.987C196.687 101.891 196.456 101.794 196.222 101.712C196.146 101.68 196.056 101.655 195.965 101.629C195.914 101.615 195.863 101.6 195.815 101.585C195.42 101.458 195.024 101.331 194.624 101.233L194.525 101.216C192.483 100.734 190.37 100.636 188.292 100.927H188.197C187.784 100.988 187.38 101.074 186.974 101.164C186.912 101.179 186.845 101.192 186.777 101.205C186.703 101.218 186.628 101.232 186.558 101.25C186.323 101.314 186.091 101.388 185.858 101.462C185.777 101.488 185.696 101.513 185.615 101.539C185.553 101.558 185.491 101.577 185.43 101.596C185.27 101.644 185.111 101.693 184.949 101.749C184.794 101.803 184.641 101.868 184.49 101.932C184.422 101.961 184.353 101.99 184.285 102.018C183.974 102.142 183.685 102.257 183.397 102.396C183.324 102.43 183.252 102.47 183.179 102.509C183.12 102.541 183.061 102.573 183.001 102.603C182.638 102.782 182.274 102.97 181.928 103.18L181.822 103.252C180.05 104.348 178.496 105.762 177.238 107.423L177.163 107.513C176.918 107.842 176.696 108.188 176.476 108.534C176.445 108.582 176.413 108.629 176.381 108.675C176.331 108.75 176.28 108.824 176.234 108.9C176.111 109.102 176.008 109.304 175.904 109.506C175.86 109.593 175.816 109.679 175.77 109.766C175.663 109.973 175.556 110.178 175.444 110.392C175.357 110.555 175.288 110.724 175.219 110.893C175.198 110.944 175.177 110.995 175.155 111.046C175.124 111.121 175.093 111.196 175.061 111.271C174.967 111.495 174.872 111.72 174.792 111.949C174.764 112.024 174.74 112.106 174.716 112.188C174.699 112.248 174.682 112.309 174.662 112.368C174.538 112.757 174.414 113.149 174.316 113.547C174.29 113.588 174.29 113.631 174.29 113.671C173.814 115.699 173.716 117.796 174.001 119.859V119.98C174.062 120.384 174.148 120.785 174.238 121.189C174.252 121.252 174.265 121.318 174.277 121.384C174.291 121.461 174.306 121.539 174.324 121.616C174.383 121.821 174.447 122.024 174.512 122.225C174.546 122.333 174.58 122.44 174.613 122.547C174.638 122.627 174.662 122.706 174.686 122.786C174.731 122.934 174.776 123.081 174.826 123.225C174.88 123.378 174.945 123.529 175.009 123.678C175.038 123.746 175.067 123.813 175.095 123.88C175.109 123.916 175.123 123.952 175.138 123.988C175.244 124.255 175.351 124.523 175.475 124.777C175.512 124.856 175.555 124.935 175.597 125.013C175.624 125.063 175.651 125.113 175.677 125.164C175.865 125.53 176.055 125.896 176.269 126.246L176.332 126.341C177.429 128.117 178.845 129.675 180.509 130.936L180.599 131.008C180.911 131.241 181.242 131.454 181.572 131.665L181.623 131.697C181.672 131.729 181.721 131.762 181.77 131.796C181.841 131.844 181.912 131.892 181.986 131.937C182.207 132.071 182.427 132.184 182.648 132.297C182.716 132.331 182.784 132.366 182.851 132.401C182.912 132.433 182.973 132.466 183.033 132.499C183.182 132.578 183.331 132.659 183.48 132.73C183.614 132.794 183.753 132.85 183.892 132.906C183.973 132.938 184.053 132.97 184.132 133.004C184.172 133.021 184.212 133.038 184.252 133.055C184.512 133.165 184.77 133.275 185.035 133.368C185.11 133.396 185.191 133.419 185.274 133.443C185.334 133.46 185.395 133.478 185.453 133.497C185.843 133.624 186.235 133.748 186.633 133.846L186.754 133.87C188.78 134.346 190.877 134.444 192.939 134.158L193.066 134.144C193.47 134.086 193.871 133.999 194.269 133.91C194.329 133.897 194.39 133.885 194.449 133.874C194.535 133.857 194.62 133.841 194.704 133.821C194.957 133.757 195.206 133.679 195.455 133.601C195.512 133.583 195.57 133.564 195.627 133.546C195.706 133.522 195.786 133.498 195.865 133.473C196.018 133.427 196.17 133.381 196.314 133.33C196.452 133.281 196.587 133.224 196.722 133.167C196.801 133.133 196.88 133.1 196.96 133.068C197.032 133.038 197.104 133.009 197.177 132.98C197.41 132.886 197.646 132.792 197.866 132.684C197.935 132.651 198.002 132.614 198.07 132.576C198.126 132.545 198.183 132.514 198.241 132.485C198.61 132.295 198.979 132.104 199.334 131.888C199.359 131.873 199.383 131.857 199.406 131.839C201.193 130.736 202.758 129.309 204.022 127.633C204.03 127.623 204.038 127.613 204.046 127.603C204.059 127.588 204.072 127.574 204.082 127.558C204.33 127.226 204.555 126.877 204.777 126.528C204.81 126.478 204.843 126.428 204.877 126.379C204.923 126.31 204.969 126.242 205.011 126.173C205.139 125.967 205.244 125.761 205.35 125.555C205.392 125.473 205.435 125.39 205.478 125.308C205.511 125.246 205.545 125.184 205.578 125.122C205.656 124.978 205.734 124.834 205.804 124.685C205.88 124.525 205.946 124.36 206.012 124.195C206.034 124.14 206.056 124.085 206.078 124.03C206.097 123.986 206.116 123.942 206.134 123.898C206.243 123.643 206.351 123.388 206.445 123.127C206.47 123.06 206.492 122.983 206.514 122.906C206.532 122.842 206.551 122.776 206.572 122.715C206.699 122.322 206.823 121.927 206.921 121.529C206.941 121.495 206.941 121.46 206.941 121.428ZM197.929 115.896C197.97 116.077 198.007 116.259 198.033 116.441C198.034 116.444 198.034 116.447 198.035 116.45C198.037 116.462 198.038 116.476 198.048 116.487C198.177 117.414 198.132 118.357 197.915 119.268V119.311C197.872 119.49 197.817 119.666 197.759 119.842C197.751 119.867 197.743 119.892 197.736 119.917C197.726 119.954 197.715 119.991 197.701 120.026C197.655 120.162 197.58 120.338 197.54 120.43C197.499 120.522 197.459 120.615 197.416 120.719C197.373 120.82 197.342 120.878 197.275 121L197.272 121.007C197.247 121.052 197.223 121.097 197.2 121.143C197.156 121.227 197.112 121.31 197.064 121.391C197.05 121.413 197.035 121.435 197.02 121.456C196.999 121.487 196.979 121.517 196.96 121.549L196.96 121.55C196.859 121.705 196.758 121.861 196.648 122.011C196.638 122.02 196.63 122.031 196.623 122.043C196.056 122.792 195.354 123.429 194.554 123.921L194.522 123.944C194.364 124.039 194.199 124.125 194.035 124.209L193.868 124.298C193.776 124.342 193.664 124.387 193.572 124.424C193.531 124.441 193.493 124.456 193.464 124.469L193.464 124.469C193.369 124.509 193.273 124.549 193.175 124.587C193.124 124.606 193.077 124.62 193.026 124.634C192.979 124.647 192.929 124.661 192.87 124.682C192.746 124.725 192.596 124.771 192.457 124.806L192.264 124.846C192.234 124.853 192.204 124.859 192.174 124.865C192.025 124.897 191.876 124.929 191.727 124.95H191.67C190.748 125.077 189.811 125.032 188.906 124.818H188.854C188.709 124.783 188.568 124.738 188.426 124.693C188.393 124.683 188.36 124.672 188.326 124.662L188.139 124.604C188.003 124.555 187.833 124.486 187.738 124.443C187.673 124.413 187.609 124.386 187.543 124.358C187.513 124.346 187.482 124.332 187.449 124.319C187.379 124.288 187.328 124.261 187.261 124.225C187.232 124.209 187.199 124.192 187.161 124.171C187.146 124.164 187.132 124.156 187.117 124.149C187.005 124.09 186.89 124.03 186.78 123.964C186.747 123.945 186.714 123.923 186.682 123.9C186.66 123.886 186.638 123.871 186.616 123.857C186.601 123.847 186.586 123.838 186.571 123.828C186.433 123.74 186.293 123.65 186.16 123.551L186.12 123.517C185.377 122.954 184.745 122.259 184.256 121.466C184.246 121.452 184.236 121.437 184.227 121.422C184.132 121.267 184.046 121.102 183.962 120.941C183.95 120.918 183.938 120.895 183.925 120.871C183.907 120.837 183.888 120.802 183.873 120.768C183.828 120.676 183.782 120.562 183.744 120.469C183.729 120.43 183.714 120.395 183.702 120.367C183.69 120.337 183.676 120.307 183.663 120.278C183.634 120.213 183.605 120.147 183.581 120.078C183.565 120.03 183.553 119.988 183.54 119.943C183.526 119.894 183.512 119.842 183.489 119.775C183.446 119.648 183.399 119.498 183.365 119.36C183.362 119.348 183.358 119.337 183.355 119.325C183.34 119.272 183.324 119.219 183.324 119.167C183.284 118.988 183.247 118.809 183.221 118.627C183.219 118.61 183.219 118.593 183.221 118.575C183.093 117.654 183.137 116.717 183.35 115.812C183.349 115.793 183.349 115.773 183.35 115.754C183.394 115.578 183.448 115.402 183.506 115.229C183.514 115.205 183.521 115.181 183.527 115.157C183.538 115.118 183.55 115.079 183.564 115.042C183.61 114.906 183.685 114.73 183.725 114.638C183.766 114.546 183.806 114.453 183.849 114.349C183.886 114.262 183.914 114.209 183.964 114.117C183.973 114.1 183.983 114.081 183.994 114.061C184.012 114.027 184.03 113.992 184.048 113.958C184.097 113.863 184.146 113.769 184.201 113.68C184.222 113.646 184.243 113.615 184.264 113.583C184.279 113.561 184.294 113.539 184.308 113.516C184.409 113.348 184.507 113.207 184.617 113.06C184.628 113.047 184.639 113.034 184.648 113.02C185.211 112.278 185.906 111.647 186.697 111.156L186.743 111.124C186.898 111.029 187.06 110.946 187.224 110.865C187.241 110.856 187.257 110.847 187.273 110.838C187.315 110.814 187.357 110.79 187.4 110.77C187.476 110.733 187.571 110.695 187.653 110.662C187.709 110.639 187.76 110.618 187.796 110.602C187.885 110.562 187.995 110.516 188.084 110.481C188.166 110.449 188.257 110.423 188.348 110.396L188.373 110.389C188.505 110.346 188.652 110.299 188.794 110.262L188.981 110.224C189.16 110.184 189.342 110.144 189.526 110.118H189.57C190.497 109.987 191.44 110.031 192.35 110.247H192.397C192.575 110.294 192.751 110.348 192.927 110.406L193.109 110.461C193.247 110.51 193.38 110.568 193.513 110.625L193.513 110.625L193.801 110.746C193.868 110.776 193.914 110.801 193.972 110.832C194.006 110.85 194.043 110.87 194.09 110.894C194.22 110.96 194.349 111.026 194.473 111.101C194.505 111.12 194.536 111.141 194.567 111.162C194.589 111.178 194.612 111.193 194.635 111.208C194.791 111.306 194.947 111.407 195.094 111.517L195.125 111.543C195.875 112.108 196.513 112.809 197.006 113.608L197.026 113.643C197.122 113.798 197.208 113.963 197.292 114.13C197.302 114.15 197.313 114.17 197.324 114.189C197.344 114.225 197.365 114.26 197.381 114.297C197.445 114.43 197.517 114.606 197.554 114.701C197.569 114.738 197.584 114.775 197.599 114.811C197.623 114.869 197.647 114.928 197.67 114.99C197.69 115.045 197.704 115.092 197.719 115.144C197.732 115.187 197.745 115.234 197.765 115.293C197.808 115.422 197.854 115.57 197.889 115.711C197.892 115.722 197.895 115.733 197.899 115.744C197.914 115.794 197.929 115.846 197.929 115.896Z" fill="#211C4E"/>
<path fill-rule="evenodd" clip-rule="evenodd" d="M259.963 63.9896V54.7156H255.52C254.908 51.52 253.649 48.483 251.822 45.7906L254.961 42.655L248.404 36.1041L245.268 39.231C242.577 37.4064 239.542 36.1491 236.349 35.5358V31.1079H227.072V35.5445C223.878 36.1552 220.841 37.4094 218.147 39.231L215.006 36.0896L208.446 42.6464L211.59 45.7906C209.768 48.4843 208.514 51.5211 207.904 54.7156H203.441V63.9896H207.904C208.521 67.1825 209.78 70.2168 211.605 72.9089L208.438 76.0675L214.989 82.6243L218.162 79.4656L218.378 79.6098C219.257 80.1937 220.173 80.7188 221.121 81.1819C221.237 81.2396 221.352 81.2916 221.467 81.3406L221.825 81.5021L221.936 81.5532L221.937 81.5534C222.102 81.6291 222.267 81.7051 222.434 81.7733C222.584 81.8368 222.722 81.8916 222.892 81.9493L223.302 82.105C223.458 82.1656 223.616 82.2262 223.778 82.2839C224.84 82.6464 225.925 82.9356 227.026 83.1493H227.087V87.6175H236.355V83.1579H236.436C239.594 82.5316 242.594 81.278 245.26 79.4714L245.389 79.5983L248.413 82.6214L254.966 76.0618L251.816 72.9118C253.643 70.221 254.901 67.1861 255.514 63.9925L259.963 63.9896ZM248.349 62.5271C248.349 62.556 248.349 62.5848 248.335 62.6137C248.267 62.9581 248.181 63.3004 248.095 63.6407L248.095 63.641L248.046 63.8339C248.031 63.8906 248.017 63.9492 248.003 64.0076L248.003 64.0082C247.983 64.0922 247.963 64.1757 247.939 64.2521C247.869 64.4858 247.784 64.7163 247.698 64.9472L247.698 64.9496C247.668 65.0286 247.639 65.1076 247.611 65.1868C247.585 65.2582 247.56 65.33 247.534 65.4017L247.534 65.4019C247.482 65.5529 247.429 65.7036 247.368 65.8502C247.326 65.9517 247.279 66.0538 247.232 66.1559L247.232 66.1563C247.179 66.2718 247.126 66.3874 247.08 66.5021C247.036 66.5939 246.992 66.6876 246.949 66.7822L246.949 66.7824C246.855 66.985 246.759 67.1911 246.653 67.3877C246.612 67.4662 246.565 67.5413 246.519 67.6165L246.519 67.6171C246.49 67.6634 246.461 67.7098 246.434 67.757C246.226 68.1204 246.015 68.4839 245.782 68.83C245.776 68.8404 245.769 68.8505 245.761 68.8604C245.756 68.8672 245.751 68.874 245.746 68.8809L245.746 68.881C245.737 68.8917 245.729 68.9025 245.721 68.9137C244.526 70.66 243.017 72.1692 241.27 73.3646L241.187 73.4252C240.843 73.6589 240.483 73.8666 240.122 74.0743C240.066 74.1059 240.011 74.1392 239.956 74.1725C239.886 74.2151 239.815 74.2575 239.744 74.2964C239.456 74.4521 239.167 74.5848 238.859 74.7233C238.81 74.746 238.761 74.7692 238.713 74.7924C238.546 74.872 238.38 74.9514 238.21 75.0118C238.082 75.057 237.953 75.1051 237.824 75.1534C237.73 75.1882 237.636 75.2231 237.543 75.257C237.469 75.2838 237.395 75.3112 237.321 75.3385L237.32 75.3386C237.084 75.4257 236.848 75.5127 236.609 75.5829C236.539 75.6036 236.465 75.6213 236.392 75.6387C236.323 75.6552 236.255 75.6714 236.193 75.6896C235.787 75.8021 235.383 75.9089 234.973 75.9781C234.941 75.9781 234.91 75.9781 234.878 75.9954C232.791 76.3863 230.65 76.3863 228.564 75.9954H228.474C228.13 75.9275 227.787 75.8412 227.447 75.7554L227.254 75.707C227.198 75.6919 227.141 75.6783 227.084 75.6647L227.084 75.6647C226.999 75.6445 226.915 75.6244 226.839 75.6002C226.595 75.5294 226.357 75.4416 226.118 75.3537C226.076 75.3382 226.034 75.3226 225.992 75.3072C225.961 75.2962 225.931 75.2852 225.901 75.2743C225.832 75.2491 225.762 75.2248 225.693 75.2005C225.54 75.1469 225.387 75.0935 225.24 75.0319C225.102 74.9739 224.957 74.9049 224.813 74.8359L224.813 74.8359L224.812 74.8359C224.735 74.7987 224.657 74.7616 224.58 74.7262C224.533 74.7034 224.485 74.6809 224.437 74.6585C224.403 74.6426 224.369 74.6268 224.335 74.6109L224.334 74.6108C224.123 74.5127 223.912 74.4141 223.714 74.3021C223.635 74.26 223.558 74.2125 223.479 74.1649C223.449 74.1461 223.418 74.1273 223.387 74.1088C223.367 74.0971 223.348 74.0856 223.328 74.0743C222.97 73.8695 222.613 73.6618 222.272 73.431L222.168 73.356C220.423 72.1723 218.912 70.6759 217.712 68.9425C217.697 68.9205 217.681 68.8996 217.665 68.8791C217.659 68.8707 217.653 68.8622 217.646 68.8539C217.644 68.8507 217.642 68.8476 217.639 68.8445C217.409 68.5012 217.201 68.1406 216.993 67.78C216.961 67.723 216.926 67.6665 216.891 67.6101L216.891 67.6095L216.891 67.6092C216.849 67.5404 216.806 67.4717 216.768 67.4021C216.615 67.1137 216.48 66.8252 216.341 66.5166C216.312 66.4523 216.282 66.3882 216.251 66.3242C216.18 66.1728 216.108 66.0216 216.053 65.8675C216.004 65.7295 215.951 65.5869 215.899 65.4448C215.868 65.3611 215.838 65.2777 215.808 65.1954C215.795 65.1592 215.781 65.1231 215.768 65.087C215.758 65.0595 215.748 65.0321 215.738 65.0046C215.647 64.7602 215.557 64.5161 215.482 64.2666C215.462 64.198 215.445 64.128 215.429 64.0584L215.428 64.0577C215.411 63.984 215.393 63.9107 215.372 63.8396L215.35 63.7573L215.35 63.7568C215.251 63.3834 215.151 63.0097 215.084 62.631C215.084 62.5935 215.084 62.5531 215.066 62.5156C214.68 60.4431 214.68 58.317 215.066 56.2444C215.066 56.2069 215.066 56.1666 215.084 56.1291C215.146 55.8063 215.227 55.4872 215.309 55.1689L215.311 55.1607C215.332 55.0805 215.352 55.0005 215.372 54.9204C215.392 54.8518 215.409 54.7819 215.425 54.7122L215.426 54.7115C215.443 54.6379 215.461 54.5645 215.482 54.4935C215.559 54.2423 215.65 53.993 215.742 53.7441L215.742 53.7432L215.744 53.7374C215.766 53.6798 215.787 53.6222 215.808 53.5646C215.833 53.4959 215.857 53.4267 215.881 53.3573L215.882 53.3537L215.882 53.3535C215.936 53.1999 215.99 53.0456 216.053 52.8954C216.094 52.7975 216.139 52.7001 216.183 52.6031L216.184 52.6025C216.239 52.4825 216.294 52.363 216.341 52.2435C216.456 52.0049 216.578 51.7525 216.696 51.5108L216.697 51.5075L216.768 51.3608C216.808 51.2863 216.853 51.2137 216.897 51.1414L216.897 51.1412L216.897 51.1404C216.93 51.087 216.963 51.0338 216.993 50.98C217.201 50.6194 217.409 50.2589 217.639 49.9185L217.712 49.8175C218.9 48.0835 220.4 46.5843 222.134 45.3954L222.238 45.3204C222.57 45.0942 222.916 44.895 223.265 44.6941L223.299 44.6743C223.353 44.6436 223.407 44.6108 223.46 44.5779C223.533 44.5335 223.605 44.489 223.68 44.4493C223.968 44.2935 224.257 44.1608 224.565 44.0223C224.614 43.9996 224.663 43.9764 224.711 43.9532C224.878 43.8736 225.045 43.7942 225.214 43.7339C225.379 43.6755 225.548 43.6122 225.717 43.5489L225.887 43.4858C225.922 43.4731 225.956 43.4602 225.991 43.4474L226.068 43.4193C226.315 43.328 226.562 43.237 226.813 43.1627C226.899 43.1363 226.988 43.1152 227.076 43.0942L227.076 43.0942C227.132 43.0809 227.187 43.0677 227.242 43.0531C227.643 42.9435 228.044 42.8368 228.451 42.7646L228.566 42.7444C230.634 42.3608 232.755 42.3608 234.823 42.7444L234.953 42.7646C235.322 42.8358 235.686 42.9309 236.049 43.026L236.153 43.0531C236.219 43.0716 236.285 43.0876 236.351 43.1037L236.351 43.1037C236.43 43.1229 236.509 43.1421 236.589 43.1656C236.829 43.2376 237.069 43.3255 237.306 43.4127L237.306 43.4127C237.373 43.4373 237.439 43.4617 237.506 43.4858C237.579 43.5127 237.653 43.5388 237.727 43.5648L237.727 43.5648C237.881 43.6196 238.036 43.6742 238.187 43.7368C238.31 43.7882 238.429 43.8432 238.546 43.8978L238.546 43.8978L238.547 43.898C238.64 43.9413 238.733 43.9844 238.827 44.0252C238.921 44.0703 239.018 44.1151 239.115 44.1603L239.115 44.1604C239.318 44.2541 239.525 44.35 239.721 44.455C239.797 44.4966 239.87 44.5412 239.943 44.5859C239.992 44.6157 240.041 44.6454 240.09 44.6743C240.457 44.8819 240.817 45.0925 241.166 45.3262L241.244 45.3839C242.989 46.5743 244.497 48.0787 245.692 49.8204C245.714 49.8461 245.734 49.8731 245.753 49.9012C245.987 50.2473 246.197 50.6108 246.405 50.9743C246.433 51.0228 246.463 51.0708 246.492 51.1188L246.492 51.119L246.492 51.1192C246.538 51.1937 246.584 51.2681 246.624 51.3435C246.78 51.632 246.913 51.9204 247.051 52.232C247.074 52.2807 247.097 52.3293 247.12 52.3779L247.12 52.3781C247.2 52.5449 247.279 52.7112 247.34 52.881C247.417 53.1002 247.501 53.3252 247.585 53.5473C247.605 53.6032 247.626 53.659 247.646 53.7149L247.648 53.7198L247.648 53.7201C247.741 53.9713 247.833 54.2233 247.911 54.4791C247.932 54.554 247.951 54.6322 247.969 54.7098L247.969 54.7102L247.969 54.7105C247.985 54.7761 248 54.8411 248.017 54.9031C248.127 55.3041 248.234 55.7079 248.306 56.1175C248.306 56.1493 248.306 56.181 248.32 56.2098C248.722 58.2955 248.732 60.4378 248.349 62.5271ZM240.212 57.6925C240.171 57.4848 240.116 57.2772 240.062 57.0723C240.053 57.0435 240.046 57.0146 240.039 56.9857C240.028 56.9425 240.018 56.8992 240.004 56.856C239.967 56.7256 239.92 56.5989 239.873 56.4714L239.839 56.38C239.824 56.3361 239.81 56.2988 239.798 56.2655C239.767 56.1786 239.746 56.1189 239.713 56.0397C239.679 55.9611 239.642 55.881 239.604 55.8006C239.589 55.7688 239.574 55.7369 239.56 55.705L239.537 55.6549C239.484 55.5407 239.41 55.3792 239.34 55.2522C239.322 55.218 239.301 55.1846 239.281 55.1507L239.281 55.1504C239.263 55.1215 239.245 55.0923 239.228 55.0618C239.121 54.8772 239.014 54.6925 238.896 54.5137C238.885 54.5009 238.874 54.4875 238.864 54.4733C238.253 53.5789 237.48 52.8062 236.586 52.1945L236.545 52.1656C236.382 52.0533 236.209 51.9534 236.038 51.8543L235.997 51.831C235.971 51.8169 235.946 51.8013 235.92 51.7856C235.883 51.7629 235.846 51.7401 235.807 51.7214C235.691 51.6578 235.57 51.6014 235.449 51.5452C235.416 51.5299 235.384 51.5147 235.351 51.4993C235.302 51.4761 235.262 51.4568 235.227 51.4398C235.152 51.4037 235.099 51.3777 235.022 51.3464C234.953 51.3182 234.882 51.2932 234.811 51.2681C234.766 51.2522 234.721 51.2363 234.676 51.2195C234.561 51.1762 234.364 51.1041 234.206 51.055L233.984 50.9973L233.984 50.9973C233.779 50.9425 233.574 50.8877 233.369 50.8502H233.303C232.246 50.6541 231.161 50.6541 230.104 50.8502H230.043C229.836 50.8906 229.631 50.9454 229.426 51.0031L229.207 51.0579C229.07 51.1003 228.933 51.1512 228.798 51.2015L228.797 51.2016L228.734 51.2252C228.667 51.2499 228.615 51.2677 228.569 51.2836C228.507 51.3049 228.455 51.3228 228.39 51.3493C228.313 51.3812 228.236 51.4186 228.16 51.4559C228.126 51.4725 228.093 51.489 228.059 51.505C228.029 51.5192 227.992 51.536 227.952 51.5545L227.952 51.5545C227.845 51.6037 227.713 51.6648 227.606 51.7214L227.41 51.8368C227.225 51.9435 227.043 52.0502 226.867 52.1685L226.815 52.206C225.928 52.8135 225.161 53.5803 224.554 54.4675L224.516 54.5195C224.398 54.6925 224.291 54.8772 224.185 55.0618C224.167 55.095 224.148 55.1267 224.128 55.1585C224.109 55.1902 224.089 55.2219 224.072 55.255C223.991 55.4022 223.925 55.5435 223.853 55.7079C223.818 55.7881 223.792 55.8422 223.769 55.8897L223.768 55.89C223.744 55.9397 223.724 55.9821 223.7 56.0397C223.673 56.1047 223.65 56.1717 223.626 56.2384L223.625 56.2404C223.608 56.2883 223.591 56.3361 223.573 56.3829C223.56 56.4185 223.547 56.454 223.534 56.4894L223.534 56.4899C223.489 56.6121 223.444 56.7338 223.406 56.8589C223.395 56.8972 223.386 56.9355 223.377 56.9742L223.377 56.9745C223.369 57.0086 223.36 57.043 223.351 57.0781C223.296 57.2829 223.241 57.4877 223.201 57.6954C223.2 57.7146 223.2 57.7339 223.201 57.7531C223.002 58.8131 223.002 59.9008 223.201 60.9608C223.199 60.98 223.199 60.9993 223.201 61.0185C223.241 61.2262 223.296 61.4339 223.351 61.6387C223.361 61.6729 223.369 61.7077 223.377 61.7423C223.386 61.7806 223.395 61.8186 223.406 61.855C223.444 61.9802 223.489 62.1018 223.534 62.224L223.534 62.2245C223.547 62.2599 223.56 62.2954 223.573 62.331C223.588 62.3718 223.603 62.4127 223.617 62.4534L223.617 62.4551L223.618 62.4553C223.643 62.529 223.669 62.6022 223.7 62.6743C223.749 62.7863 223.801 62.8956 223.852 63.0048L223.853 63.006C223.871 63.0447 223.889 63.0833 223.907 63.1219L223.907 63.1221C223.96 63.236 224.012 63.349 224.072 63.4589C224.091 63.4951 224.113 63.5304 224.134 63.5654C224.151 63.5945 224.169 63.6233 224.185 63.6522C224.291 63.8368 224.398 64.0214 224.516 64.1973L224.554 64.2464C225.161 65.1336 225.928 65.9005 226.815 66.5079L226.867 66.5483C227.019 66.6501 227.175 66.7412 227.331 66.8326L227.407 66.8772C227.433 66.8922 227.46 66.9081 227.486 66.924C227.526 66.9479 227.566 66.9718 227.606 66.9925C227.75 67.0704 227.894 67.1397 228.053 67.2089C228.128 67.2417 228.182 67.2681 228.23 67.2917C228.284 67.3177 228.33 67.3404 228.39 67.3647C228.481 67.4007 228.567 67.4314 228.654 67.4624L228.728 67.4887C228.771 67.5041 228.814 67.5198 228.857 67.5354C228.973 67.578 229.089 67.6201 229.207 67.656L229.42 67.7108C229.628 67.7685 229.836 67.8233 230.046 67.8637H230.089C231.156 68.0656 232.251 68.0656 233.317 67.8637H233.366C233.577 67.8233 233.785 67.7685 233.992 67.7108L234.203 67.656C234.334 67.6161 234.464 67.5685 234.593 67.5211L234.682 67.4887C234.715 67.4768 234.749 67.4651 234.783 67.4534C234.863 67.4254 234.945 67.3972 235.022 67.3647C235.099 67.3324 235.177 67.2945 235.254 67.2569C235.278 67.2452 235.302 67.2335 235.326 67.222C235.336 67.2176 235.345 67.2132 235.354 67.2089C235.369 67.2017 235.386 67.1938 235.404 67.1854C235.422 67.1772 235.441 67.1685 235.461 67.1594L235.461 67.1592C235.567 67.1101 235.7 67.0491 235.807 66.9925C235.85 66.9702 235.891 66.9443 235.932 66.9187C235.941 66.9133 235.95 66.9079 235.958 66.9025C235.972 66.8939 235.986 66.8854 236 66.8772C236.185 66.7733 236.369 66.6666 236.545 66.5454L236.589 66.5166C237.481 65.9043 238.252 65.1327 238.864 64.2406L238.896 64.1973C239.014 64.0185 239.121 63.8339 239.228 63.6493C239.235 63.6376 239.242 63.6259 239.249 63.6142L239.266 63.5858C239.292 63.5435 239.317 63.5012 239.34 63.4589C239.421 63.3118 239.488 63.1704 239.56 63.006L239.595 62.9325C239.636 62.8473 239.677 62.7616 239.713 62.6743C239.745 62.5941 239.774 62.5125 239.802 62.4315L239.802 62.4307C239.814 62.3983 239.825 62.366 239.837 62.3339C239.897 62.1752 239.958 62.0166 240.004 61.855C240.022 61.8022 240.034 61.7477 240.047 61.6927C240.051 61.6757 240.055 61.6586 240.059 61.6416C240.116 61.4339 240.171 61.2291 240.212 61.0185V60.9723C240.411 59.9056 240.411 58.8112 240.212 57.7445V57.6925ZM237.252 60.407V60.4358C237.226 60.5743 237.189 60.7098 237.151 60.8425C237.151 60.8811 237.137 60.9217 237.124 60.9593L237.116 60.981C237.092 61.0633 237.062 61.1438 237.033 61.224L237.007 61.2954C236.994 61.3297 236.985 61.3574 236.976 61.3817L236.976 61.3819C236.959 61.4311 236.947 61.4664 236.926 61.5147C236.894 61.5868 236.86 61.6589 236.825 61.731C236.816 61.7502 236.805 61.7735 236.794 61.799L236.793 61.7994C236.761 61.8695 236.722 61.9561 236.684 62.0195C236.675 62.035 236.666 62.0505 236.656 62.0662L236.656 62.0665C236.641 62.0915 236.626 62.117 236.612 62.1435C236.542 62.2647 236.47 62.3829 236.392 62.4983C236.386 62.5084 236.38 62.518 236.372 62.5272C235.975 63.1094 235.472 63.6122 234.889 64.0098L234.864 64.03C234.748 64.1079 234.627 64.1771 234.506 64.2462L234.506 64.2464C234.488 64.2563 234.471 64.2674 234.453 64.2786C234.43 64.2933 234.406 64.3083 234.382 64.3214C234.323 64.3536 234.261 64.3825 234.201 64.4108C234.165 64.4281 234.128 64.4452 234.093 64.4627L233.877 64.5637L233.652 64.6445L233.6 64.664L233.599 64.6641C233.515 64.6956 233.429 64.7278 233.343 64.7541L233.205 64.7887C233.069 64.8262 232.934 64.8608 232.798 64.8897H232.766C232.07 65.0194 231.357 65.0194 230.661 64.8897H230.632C230.496 64.8608 230.361 64.8262 230.225 64.7887L230.087 64.7541C230.009 64.7303 229.931 64.7016 229.853 64.6729C229.827 64.6634 229.801 64.6538 229.775 64.6445L229.553 64.5637L229.334 64.4627L229.274 64.4349C229.196 64.3987 229.119 64.3628 229.045 64.3214L228.915 64.2464L228.915 64.2463C228.797 64.1771 228.679 64.1079 228.564 64.03C228.551 64.0223 228.54 64.0136 228.529 64.0041C227.952 63.6088 227.453 63.11 227.058 62.5329L227.032 62.4983C226.971 62.4101 226.917 62.3166 226.863 62.2233L226.863 62.2232C226.848 62.1975 226.833 62.1719 226.818 62.1464L226.797 62.1112C226.778 62.0807 226.76 62.0508 226.743 62.0195C226.708 61.9536 226.676 61.8878 226.645 61.8237C226.629 61.7923 226.614 61.7613 226.599 61.731C226.553 61.6387 226.53 61.5897 226.501 61.5147C226.487 61.4772 226.473 61.4404 226.459 61.4036C226.446 61.3668 226.432 61.33 226.417 61.2925C226.389 61.2175 226.342 61.0877 226.311 60.9839C226.311 60.9489 226.299 60.9154 226.287 60.8812C226.282 60.8675 226.277 60.8537 226.273 60.8397L226.253 60.7642L226.253 60.764C226.225 60.6565 226.196 60.5485 226.175 60.4387V60.3983C226.045 59.7082 226.045 58.9999 226.175 58.3098V58.2723C226.197 58.1579 226.227 58.0434 226.257 57.9307L226.257 57.9304L226.273 57.8685C226.273 57.8342 226.286 57.7983 226.298 57.7632C226.303 57.7511 226.307 57.739 226.311 57.7272C226.342 57.6233 226.38 57.5195 226.417 57.4156L226.441 57.349L226.441 57.3488C226.463 57.2878 226.477 57.2481 226.501 57.1935C226.517 57.1574 226.533 57.1214 226.55 57.0853C226.567 57.0493 226.583 57.0132 226.599 56.9772C226.631 56.905 226.691 56.7781 226.743 56.6887C226.76 56.6573 226.778 56.6275 226.797 56.5969L226.818 56.5618L226.836 56.5307C226.899 56.4203 226.961 56.3125 227.032 56.207L227.058 56.1752C227.453 55.5973 227.952 55.0976 228.529 54.7012L228.564 54.6752C228.679 54.5973 228.797 54.5281 228.918 54.4618L229.045 54.3868C229.109 54.3519 229.176 54.3197 229.24 54.2883L229.241 54.2881C229.272 54.2728 229.303 54.2577 229.334 54.2425L229.55 54.1416C229.61 54.1176 229.674 54.0957 229.737 54.0741L229.737 54.0741L229.775 54.0608C229.797 54.0531 229.824 54.0431 229.854 54.0321L229.855 54.0319L229.855 54.0319C229.925 54.0059 230.011 53.9743 230.084 53.9541L230.225 53.9166C230.361 53.8791 230.493 53.8445 230.629 53.8185H230.666C231.356 53.6887 232.063 53.6887 232.752 53.8185H232.795C232.931 53.8445 233.064 53.8791 233.196 53.9166L233.34 53.9541C233.425 53.9775 233.508 54.0087 233.59 54.0396L233.59 54.0397L233.646 54.0608C233.686 54.0756 233.718 54.0867 233.747 54.0968C233.792 54.1123 233.829 54.1252 233.874 54.1445C233.949 54.1762 234.015 54.2079 234.088 54.2425C234.104 54.2505 234.124 54.2595 234.145 54.2693L234.145 54.2694L234.145 54.2695C234.216 54.3025 234.307 54.3446 234.376 54.3868C234.398 54.3976 234.419 54.4108 234.441 54.4243L234.441 54.4243C234.46 54.4361 234.48 54.4481 234.5 54.4589C234.621 54.5281 234.742 54.5973 234.858 54.6752L234.884 54.6954C235.465 55.0938 235.968 55.5965 236.366 56.1781L236.387 56.207C236.464 56.3223 236.537 56.4435 236.606 56.5647C236.61 56.5728 236.615 56.581 236.62 56.5892C236.625 56.5966 236.629 56.604 236.633 56.6115L236.634 56.6118C236.649 56.6368 236.664 56.6622 236.678 56.6887C236.71 56.7477 236.739 56.809 236.767 56.8691C236.785 56.9058 236.802 56.9421 236.819 56.9772L236.819 56.9774C236.865 57.0696 236.891 57.1215 236.92 57.1935C236.949 57.2654 236.975 57.3401 237.001 57.4148L237.001 57.4156C237.009 57.44 237.021 57.4703 237.033 57.5037L237.033 57.5039L237.033 57.5041C237.059 57.5731 237.089 57.6553 237.111 57.7272C237.111 57.7597 237.122 57.7922 237.134 57.8257C237.139 57.8398 237.144 57.854 237.148 57.8685L237.164 57.9305L237.164 57.9308C237.194 58.0435 237.224 58.1579 237.246 58.2723V58.3041C237.38 59.0025 237.38 59.7201 237.246 60.4185L237.252 60.407ZM235.289 58.4154C235.31 58.4951 235.33 58.573 235.345 58.6531C235.348 58.6626 235.348 58.6725 235.345 58.682C235.432 59.1394 235.432 59.6091 235.345 60.0666V60.0868C235.328 60.1762 235.305 60.2656 235.279 60.355C235.278 60.3594 235.277 60.3628 235.277 60.3659C235.273 60.383 235.273 60.3856 235.256 60.4445C235.242 60.4933 235.22 60.5508 235.203 60.5977C235.195 60.6172 235.189 60.6348 235.184 60.6493C235.178 60.6656 235.172 60.6819 235.167 60.6983C235.156 60.731 235.145 60.7637 235.132 60.7964C235.122 60.8209 235.112 60.8396 235.102 60.8605C235.091 60.8815 235.08 60.9045 235.065 60.9377C235.037 61.0041 235.005 61.0704 234.973 61.1339C234.955 61.1597 234.939 61.1867 234.924 61.2147C234.917 61.2269 234.91 61.2392 234.902 61.2515C234.863 61.3177 234.824 61.3851 234.78 61.4483C234.78 61.4507 234.779 61.4532 234.779 61.4556C234.779 61.4599 234.779 61.4642 234.78 61.4685C234.517 61.85 234.186 62.1803 233.805 62.4435H233.785C233.71 62.4954 233.632 62.5416 233.551 62.5877L233.47 62.6339C233.43 62.6556 233.39 62.675 233.349 62.6943C233.325 62.7058 233.301 62.7172 233.277 62.7291L233.133 62.7954C233.109 62.8058 233.088 62.8124 233.065 62.8199C233.042 62.8269 233.018 62.8348 232.986 62.8473C232.919 62.8733 232.85 62.8993 232.781 62.9195L232.691 62.9425C232.602 62.9685 232.513 62.9916 232.423 63.0089H232.403C231.945 63.0954 231.476 63.0954 231.018 63.0089H231.001C230.909 62.9916 230.822 62.9685 230.733 62.9425L230.64 62.9195C230.592 62.9052 230.534 62.8838 230.487 62.8663C230.468 62.859 230.45 62.8524 230.436 62.8473C230.421 62.8422 230.406 62.8372 230.392 62.8323C230.357 62.8209 230.324 62.8096 230.291 62.7954L230.147 62.7291L229.954 62.6368L229.87 62.5848C229.791 62.5422 229.714 62.495 229.639 62.4435H229.616C229.237 62.1823 228.908 61.8538 228.647 61.4743L228.63 61.4512C228.581 61.3762 228.535 61.2983 228.488 61.2175C228.483 61.2069 228.476 61.1959 228.469 61.1845C228.459 61.168 228.448 61.151 228.439 61.1339C228.405 61.0712 228.374 61.0066 228.347 60.9406C228.324 60.8945 228.301 60.8483 228.281 60.7993C228.261 60.7502 228.249 60.7185 228.226 60.6521C228.219 60.6309 228.211 60.6051 228.203 60.579C228.187 60.5238 228.17 60.4669 228.154 60.4473C228.131 60.4185 228.131 60.3868 228.131 60.355C228.108 60.2685 228.085 60.1791 228.067 60.0896V60.0637C227.984 59.6098 227.984 59.1445 228.067 58.6906V58.6646C228.083 58.5843 228.103 58.5064 228.124 58.4265L228.131 58.3993C228.142 58.3848 228.142 58.3791 228.142 58.3683C228.142 58.3574 228.142 58.3416 228.154 58.307C228.17 58.2575 228.191 58.1993 228.208 58.1522C228.215 58.1333 228.221 58.1162 228.226 58.1021C228.229 58.0938 228.232 58.0853 228.235 58.0768C228.249 58.0355 228.264 57.9933 228.281 57.955C228.29 57.9343 228.298 57.9171 228.308 57.8984C228.319 57.8755 228.331 57.8503 228.347 57.8137C228.376 57.7473 228.425 57.6493 228.439 57.6204C228.447 57.606 228.455 57.5923 228.464 57.5786C228.473 57.5649 228.481 57.5512 228.488 57.5368C228.498 57.5202 228.508 57.5035 228.518 57.4868C228.554 57.4248 228.591 57.3622 228.63 57.3031L228.647 57.2829C228.907 56.9021 229.236 56.5733 229.616 56.3137L229.639 56.2964C229.698 56.2558 229.758 56.2205 229.819 56.185C229.836 56.175 229.853 56.1651 229.87 56.155L229.954 56.106C230.017 56.0714 230.098 56.031 230.147 56.0108C230.179 55.9978 230.21 55.9836 230.241 55.9697C230.258 55.9621 230.275 55.9545 230.291 55.9473C230.317 55.9363 230.338 55.9287 230.364 55.9199C230.385 55.9125 230.408 55.9043 230.438 55.8925C230.505 55.8666 230.571 55.8406 230.64 55.8204L230.736 55.7973C230.822 55.7743 230.912 55.7512 230.998 55.7339H231.024C231.478 55.6502 231.943 55.6502 232.397 55.7339H232.423C232.492 55.745 232.559 55.763 232.627 55.7812C232.648 55.7866 232.668 55.7921 232.688 55.7973L232.784 55.8204C232.839 55.8374 232.895 55.8585 232.953 55.8802C232.964 55.8843 232.975 55.8884 232.986 55.8925L233.133 55.9473C233.171 55.9609 233.195 55.9727 233.236 55.9924C233.247 55.9978 233.26 56.0039 233.274 56.0108C233.293 56.02 233.312 56.0289 233.331 56.0378C233.378 56.0597 233.425 56.0814 233.47 56.106L233.551 56.155C233.631 56.1977 233.709 56.2449 233.785 56.2964H233.802C234.186 56.5589 234.517 56.8905 234.78 57.2743V57.2916C234.832 57.3665 234.878 57.4472 234.924 57.5279L234.924 57.5281L234.973 57.6089C235 57.6617 235.03 57.7265 235.053 57.775L235.065 57.8022C235.088 57.8512 235.112 57.9002 235.132 57.9464C235.152 57.9925 235.163 58.0214 235.187 58.0906C235.195 58.1159 235.204 58.1409 235.213 58.1657C235.228 58.2087 235.243 58.2515 235.256 58.2954L235.282 58.3877L235.289 58.4154Z" fill="#50E2D1"/>
<path d="M251.52 98.6194C251.52 98.6194 256.977 111.092 247.481 125.019C247.481 125.019 238.689 117.519 231.48 121.451C229.063 116.38 232.345 103.584 232.345 103.584L232.997 97.6992L251.52 98.6194Z" fill="#211C4E"/>
<path d="M226.741 222.338L213.145 221.539L210.953 224.62C210.953 224.62 201.722 223.853 199.415 229.628C199.392 229.685 199.371 229.743 199.351 229.801C199.339 229.819 199.331 229.839 199.328 229.861L225.731 232.013L226.741 222.338Z" fill="#B9F3ED"/>
<path fill-rule="evenodd" clip-rule="evenodd" d="M215.775 227.135C215.894 227.214 216.034 227.256 216.177 227.256C216.273 227.256 216.369 227.237 216.457 227.199C216.546 227.162 216.626 227.107 216.693 227.039C216.761 226.97 216.814 226.889 216.85 226.8C216.886 226.711 216.904 226.616 216.903 226.52C216.902 226.424 216.881 226.329 216.844 226.241C214.84 221.52 206.853 223.85 206.237 224.038C206.221 224.042 206.206 224.047 206.191 224.052C206.015 224.113 205.869 224.239 205.782 224.404C205.692 224.575 205.674 224.775 205.732 224.96C205.79 225.145 205.919 225.299 206.09 225.389C206.214 225.454 206.352 225.481 206.489 225.47C207.695 225.425 211.216 225.637 212.075 227.121C212.139 227.233 212.231 227.327 212.342 227.391C212.454 227.456 212.581 227.49 212.71 227.49C212.831 227.487 212.95 227.454 213.056 227.395C213.141 227.348 213.215 227.286 213.276 227.21C213.336 227.135 213.381 227.048 213.408 226.956C213.435 226.863 213.443 226.766 213.432 226.67C213.421 226.574 213.391 226.481 213.344 226.397C212.911 225.636 212.163 225.115 211.314 224.759C213.532 224.792 214.942 225.491 215.505 226.812C215.561 226.944 215.655 227.056 215.775 227.135Z" fill="#211C4E"/>
<path d="M225.731 231.872L199.328 229.72C199.273 229.72 199.141 229.988 199.12 230.031C199.052 230.168 199.001 230.314 198.97 230.464C198.927 230.651 198.927 230.846 198.97 231.034C199.014 231.222 199.1 231.397 199.221 231.546C199.402 231.771 199.617 231.965 199.859 232.123C200.029 232.238 200.23 232.298 200.436 232.296C200.796 232.275 201.088 232.027 201.396 231.869C201.569 231.771 201.766 231.723 201.965 231.733C202.164 231.742 202.355 231.807 202.518 231.921C202.591 231.97 202.663 232.025 202.732 232.082C204.373 233.481 204.541 231.15 205.945 232.35C207.875 233.998 207.61 231.165 209.387 232.639C211.164 234.113 211.057 231.655 212.716 232.899C214.288 234.549 214.79 231.941 216.304 233.152C217.888 234.704 218.254 232.108 219.817 233.712C221.153 234.693 221.701 232.584 223.19 233.77C223.322 233.93 223.49 234.058 223.68 234.141C223.871 234.225 224.078 234.263 224.286 234.251C224.658 234.174 224.988 233.962 225.212 233.654C225.478 233.091 225.653 232.49 225.731 231.872Z" fill="#73E8DA"/>
<path d="M251.343 220.422L237.745 221.097L235.899 224.397C235.899 224.397 227.574 225.041 226.282 231.502C226.236 231.727 226.077 233.002 226.521 233.896L252.708 229.884L251.343 220.422Z" fill="#B9F3ED"/>
<path fill-rule="evenodd" clip-rule="evenodd" d="M231.32 226.405C231.421 226.456 231.533 226.483 231.647 226.483C231.722 226.483 231.797 226.471 231.869 226.448C231.907 226.437 235.815 225.228 238.7 227.285C238.822 227.373 238.97 227.421 239.121 227.42C239.276 227.421 239.428 227.373 239.554 227.281C239.68 227.19 239.773 227.061 239.821 226.913C239.868 226.765 239.867 226.605 239.817 226.458C239.768 226.311 239.672 226.183 239.545 226.093C238.519 225.363 237.408 224.968 236.347 224.776C236.464 224.765 236.582 224.758 236.7 224.752C238.353 224.675 239.995 225.067 241.434 225.883C241.519 225.929 241.611 225.957 241.707 225.967C241.802 225.977 241.898 225.968 241.99 225.941C242.082 225.913 242.168 225.868 242.242 225.808C242.316 225.747 242.378 225.673 242.424 225.589C242.47 225.504 242.498 225.412 242.508 225.317C242.518 225.221 242.509 225.125 242.482 225.033C242.454 224.941 242.409 224.855 242.349 224.781C242.288 224.707 242.214 224.645 242.13 224.599C240.44 223.65 238.516 223.2 236.581 223.302C234.667 223.403 232.82 224.04 231.252 225.14C231.234 225.151 231.218 225.162 231.202 225.175M231.097 226.233C231.134 226.275 231.176 226.314 231.222 226.347C231.253 226.369 231.286 226.389 231.32 226.405M231.097 226.233C231.035 226.162 230.987 226.079 230.956 225.989L231.097 226.233ZM231.105 225.265C231.133 225.232 231.165 225.203 231.2 225.176L231.105 225.265ZM231.105 225.265C231.033 225.344 230.979 225.44 230.948 225.544C230.904 225.689 230.907 225.845 230.956 225.989" fill="#211C4E"/>
<path d="M252.708 229.884L226.521 233.896C226.466 233.896 226.403 234.185 226.391 234.245C226.356 234.395 226.34 234.548 226.345 234.701C226.347 234.894 226.392 235.084 226.478 235.256C226.564 235.429 226.688 235.579 226.841 235.696C227.069 235.873 227.323 236.013 227.594 236.112C227.788 236.188 228.001 236.2 228.203 236.146C228.549 236.042 228.78 235.734 229.039 235.509C229.184 235.374 229.364 235.283 229.559 235.246C229.753 235.209 229.954 235.228 230.138 235.301C230.223 235.33 230.305 235.366 230.384 235.408C232.308 236.391 231.93 234.081 233.574 234.926C235.833 236.08 234.921 233.389 236.986 234.41C239.052 235.431 238.388 233.066 240.289 233.891C242.199 235.134 242.086 232.48 243.837 233.314C245.736 234.467 245.493 231.848 247.386 233.048C248.911 233.691 248.955 231.514 250.677 232.324C250.843 232.449 251.037 232.533 251.242 232.57C251.446 232.607 251.657 232.596 251.857 232.538C252.199 232.377 252.469 232.095 252.615 231.747C252.746 231.135 252.777 230.506 252.708 229.884Z" fill="#73E8DA"/>
<path d="M244.544 157.336L230.147 223.203L211.469 222.197L226.876 154.821L244.544 157.336Z" fill="#C2C2C2"/>
<path d="M252.748 161.409L255.151 221.398H236.219L232.037 159.958L252.748 161.409Z" fill="#E6E6E6"/>
<path d="M214.827 127.313C214.386 126.615 213.566 125.525 212.782 125.583C212.545 125.581 212.313 125.64 212.105 125.753C211.897 125.865 211.721 126.028 211.593 126.227C211.465 126.425 211.388 126.653 211.371 126.889C211.354 127.125 211.397 127.361 211.495 127.576L211.804 128.401C210.728 128.597 208.631 128.306 205.565 123.759C205.048 122.995 204.03 122.646 203.289 122.981C203.016 123.102 202.799 123.32 202.679 123.592C202.559 123.865 202.545 124.172 202.64 124.455C202.64 124.481 202.663 124.509 202.671 124.538C202.44 124.401 202.18 124.318 201.911 124.296C201.643 124.275 201.373 124.315 201.122 124.414C200.85 124.535 200.633 124.753 200.513 125.026C200.393 125.298 200.379 125.606 200.473 125.888C200.498 125.971 200.528 126.052 200.566 126.131C200.306 126.102 200.044 126.14 199.804 126.243C199.532 126.365 199.316 126.583 199.196 126.855C199.077 127.128 199.063 127.435 199.158 127.717C199.208 127.9 199.289 128.072 199.397 128.228L199.518 128.401C199.495 128.401 199.466 128.415 199.443 128.427C199.171 128.548 198.954 128.766 198.834 129.038C198.714 129.311 198.7 129.618 198.794 129.901C198.848 130.084 198.929 130.257 199.037 130.414C199.801 131.567 200.67 132.646 201.633 133.639L201.676 133.68C202.074 134.089 202.496 134.474 202.94 134.833C204.892 136.518 209.782 136.333 213.693 137.741L217.96 132.393L214.827 127.313Z" fill="#FAB59F"/>
<path d="M214.827 127.313L212.421 123.174C212.33 123.015 212.206 122.879 212.056 122.773C211.907 122.667 211.737 122.594 211.558 122.56C211.378 122.526 211.193 122.531 211.016 122.574C210.838 122.618 210.672 122.699 210.529 122.813C210.332 122.97 210.186 123.183 210.11 123.423C210.034 123.663 210.031 123.921 210.102 124.163L211.077 127.501C210.475 128.775 210.194 130.177 210.258 131.585C210.323 132.993 210.73 134.364 211.446 135.578L214.827 127.313Z" fill="#FAB59F"/>
<path d="M244.596 120.615C244.596 120.615 253.749 125.989 255.321 166.368C255.321 166.368 236.346 167.597 223.215 163.936L235.861 121.732C235.861 121.732 240.157 124.019 244.596 120.615Z" fill="#50E2D1"/>
<path fill-rule="evenodd" clip-rule="evenodd" d="M230.075 135.634L233.865 124.93C234.014 124.159 234.097 123.372 234.175 122.635C234.421 120.295 234.613 118.473 236.704 119.357C238.259 120.024 241.472 119.868 243.162 118.959C244.163 118.421 244.404 118.504 245.334 118.826C245.415 118.855 245.501 118.884 245.594 118.916C246.127 119.093 246.043 119.861 245.955 120.651C245.886 121.277 245.815 121.917 246.047 122.291C246.204 122.543 246.379 122.81 246.561 123.086C247.619 124.696 248.908 126.657 248.219 128.242L240.618 145.746C240.166 147.335 239.157 148.703 237.784 149.605C237.171 150.073 236.475 150.423 235.731 150.634C234.841 150.886 233.906 150.934 232.995 150.775C232.084 150.615 231.221 150.252 230.47 149.712L211.524 138.938L217.253 128.758L230.075 135.634Z" fill="#50E2D1"/>
<path d="M236.173 153.765C236.079 153.764 235.986 153.738 235.905 153.69L222.01 145.521C221.888 145.45 221.8 145.333 221.764 145.197C221.728 145.06 221.748 144.915 221.819 144.794C221.89 144.672 222.007 144.584 222.143 144.548C222.28 144.512 222.425 144.532 222.546 144.603L235.98 152.501L245.404 135.975C245.438 135.915 245.484 135.862 245.539 135.819C245.595 135.776 245.657 135.745 245.725 135.726C245.792 135.708 245.862 135.702 245.931 135.711C246.001 135.72 246.067 135.742 246.128 135.776C246.189 135.811 246.242 135.857 246.285 135.912C246.327 135.967 246.359 136.03 246.377 136.097C246.396 136.164 246.401 136.235 246.392 136.304C246.384 136.373 246.361 136.44 246.327 136.5L236.632 153.497C236.597 153.558 236.55 153.612 236.494 153.655C236.438 153.698 236.374 153.729 236.306 153.748C236.262 153.758 236.218 153.764 236.173 153.765Z" fill="#211C4E"/>
<path d="M236.675 113.853L236.174 120.326C235.998 122.599 237.258 123.915 239.427 124.059C241.279 124.18 243.382 123.439 243.466 121.428L243.754 111.205L236.675 113.853Z" fill="#FAB59F"/>
<path d="M236.283 118.821C236.283 118.821 241.297 117.462 243.783 112.622C244.675 110.891 236.704 113.199 236.704 113.199L236.283 118.821Z" fill="#B88575"/>
<path d="M238.481 115.887C234.783 115.613 231.959 112.374 232.089 109.253L232.395 102.716C232.556 98.7987 235.7 95.7035 239.496 95.7237C243.385 95.741 247.187 99.0151 247.149 103.028L246.861 108.119C246.578 112.697 242.92 115.907 238.481 115.887Z" fill="#FAB59F"/>
<path d="M236.589 113.181C236.235 113.176 235.888 113.087 235.575 112.923C235.261 112.759 234.991 112.523 234.786 112.235C234.754 112.192 234.739 112.137 234.746 112.084C234.752 112.03 234.779 111.981 234.821 111.946C234.863 111.913 234.917 111.898 234.971 111.904C235.025 111.91 235.075 111.936 235.109 111.978C235.267 112.197 235.469 112.379 235.702 112.514C235.935 112.649 236.194 112.733 236.462 112.76C236.847 112.789 237.23 112.695 237.558 112.492C237.586 112.455 237.626 112.429 237.671 112.417C237.716 112.406 237.764 112.41 237.806 112.428C237.833 112.44 237.856 112.456 237.876 112.477C237.896 112.498 237.911 112.523 237.92 112.55C237.93 112.577 237.934 112.606 237.932 112.634C237.931 112.663 237.923 112.691 237.91 112.717C237.838 112.875 237.374 113.112 236.877 113.172C236.782 113.182 236.685 113.185 236.589 113.181Z" fill="#211C4E"/>
<path d="M236.727 110.4C236.693 110.401 236.659 110.394 236.629 110.377L235.868 109.973L235.827 109.944C235.748 109.873 235.696 109.777 235.68 109.672C235.665 109.566 235.686 109.459 235.741 109.368L236.571 107.178C236.594 107.132 236.634 107.095 236.682 107.076C236.73 107.057 236.783 107.057 236.832 107.076C236.88 107.094 236.92 107.13 236.943 107.176C236.966 107.222 236.972 107.275 236.958 107.325L236.121 109.535C236.115 109.55 236.107 109.564 236.098 109.578C236.095 109.584 236.093 109.591 236.093 109.598C236.093 109.605 236.095 109.612 236.098 109.619L236.733 109.956L237.258 109.696C237.283 109.682 237.31 109.673 237.338 109.669C237.367 109.666 237.396 109.668 237.423 109.676C237.451 109.685 237.476 109.699 237.498 109.717C237.52 109.736 237.537 109.758 237.55 109.784C237.563 109.81 237.57 109.838 237.571 109.867C237.572 109.895 237.567 109.924 237.557 109.95C237.547 109.977 237.531 110.001 237.511 110.022C237.49 110.042 237.466 110.058 237.44 110.069L236.819 110.374C236.791 110.39 236.76 110.399 236.727 110.4Z" fill="#211C4E"/>
<path fill-rule="evenodd" clip-rule="evenodd" d="M234.9 105.95C234.972 105.852 235.014 105.736 235.02 105.615C235.028 105.454 234.971 105.296 234.863 105.176C234.755 105.056 234.604 104.984 234.443 104.975C234.322 104.968 234.202 104.997 234.097 105.059C233.993 105.121 233.91 105.212 233.857 105.321C233.805 105.43 233.786 105.553 233.804 105.673C233.821 105.792 233.873 105.905 233.955 105.995C234.036 106.084 234.142 106.148 234.259 106.178C234.376 106.208 234.5 106.202 234.614 106.161C234.728 106.121 234.828 106.047 234.9 105.95ZM240.491 106.789C240.553 106.684 240.582 106.564 240.575 106.443C240.567 106.282 240.496 106.132 240.377 106.024C240.258 105.916 240.101 105.859 239.941 105.866C239.82 105.871 239.702 105.911 239.604 105.983C239.506 106.055 239.432 106.154 239.39 106.268C239.349 106.382 239.342 106.506 239.371 106.623C239.4 106.741 239.464 106.848 239.554 106.929C239.643 107.011 239.755 107.064 239.875 107.082C239.996 107.1 240.118 107.081 240.228 107.029C240.337 106.977 240.429 106.893 240.491 106.789Z" fill="#211C4E"/>
<path fill-rule="evenodd" clip-rule="evenodd" d="M232.354 103.584C232.164 103.03 233.866 102.554 233.866 102.554C234.469 102.329 235.069 102.286 235.1 102.675C235.132 103.065 234.57 103.321 233.401 103.673C232.233 104.025 232.354 103.584 232.354 103.584ZM239.511 103.555C239.799 103.036 241.53 104.103 241.53 104.103C242.113 104.4 242.828 104.971 242.563 105.254C242.297 105.537 241.418 105.144 240.376 104.527C239.335 103.91 239.511 103.555 239.511 103.555Z" fill="#211C4E"/>
<path fill-rule="evenodd" clip-rule="evenodd" d="M247.337 110.02C249.325 108.808 250.814 106.926 251.534 104.712H251.548C251.99 103.341 252.123 101.889 251.938 100.46C251.752 99.0311 251.253 97.6611 250.476 96.448C249.699 95.2349 248.663 94.2088 247.442 93.4431C246.222 92.6775 244.847 92.1913 243.417 92.0195C241.986 91.8476 240.536 91.9943 239.169 92.4491C237.801 92.9038 236.552 93.6554 235.509 94.6498C234.916 95.2158 234.398 95.8524 233.967 96.5438C233.348 96.3565 232.519 96.5292 231.587 97.8523C230.704 99.1071 230.721 100.737 231.01 102.179C231.085 102.543 231.766 105.367 232.314 104.501C232.395 104.353 232.45 104.192 232.475 104.025C232.638 103.204 232.762 102.38 232.886 101.555L232.887 101.546C232.925 101.29 232.964 101.034 233.003 100.779C233.266 99.9213 233.711 99.2277 234.488 99.5345C234.924 99.8942 235.575 100.336 235.974 100.606L235.974 100.606L235.974 100.606L235.975 100.607C236.143 100.72 236.266 100.804 236.309 100.838C237.823 102.023 239.372 103.206 241.219 103.774L241.614 103.884C241.985 103.978 242.575 104.188 243.271 104.435L243.308 104.448C243.71 104.821 243.975 105.367 244.226 105.883C244.632 106.719 245.001 107.478 245.851 107.302C246.416 107.184 246.541 108.048 246.657 108.843C246.767 109.603 246.869 110.302 247.337 110.02ZM236.458 118.432V118.432L236.459 118.436C236.46 118.587 236.462 118.695 236.462 118.728C236.454 119.811 236.551 120.892 236.75 121.956C236.756 121.985 236.767 122.052 236.782 122.145L236.782 122.145C236.865 122.649 237.072 123.909 237.177 123.909C235.231 123.894 233.357 123.171 231.904 121.875C231.391 121.397 231.195 120.805 231.024 120.145C230.496 118.125 230.517 115.42 230.756 112.792C231.189 108.075 233.58 114.615 233.58 114.615L235.343 116.346L236.462 116.478C236.434 116.478 236.451 117.813 236.458 118.432ZM242.56 123.716C242.525 123.825 241.856 125.683 241.824 125.666C243.5 126.528 245.592 125.784 247.028 124.751C248.759 123.511 249.65 121.535 250.49 119.64C251.296 117.826 251.924 115.938 252.365 114.003C254.367 105.13 247.135 117.693 247.135 117.693L243.581 117.292C243.769 117.312 242.646 123.427 242.56 123.716Z" fill="#211C4E"/>
<path d="M250.253 108.243C250.256 108.946 249.981 109.622 249.488 110.124C248.994 110.625 248.323 110.911 247.619 110.92C247.272 110.913 246.929 110.838 246.611 110.698C246.293 110.558 246.006 110.357 245.766 110.106C245.526 109.855 245.338 109.558 245.213 109.234C245.088 108.91 245.028 108.564 245.038 108.217C245.034 107.513 245.309 106.837 245.803 106.335C246.296 105.833 246.968 105.546 247.671 105.537C248.019 105.545 248.361 105.621 248.679 105.761C248.997 105.901 249.284 106.102 249.524 106.354C249.764 106.605 249.952 106.902 250.077 107.226C250.202 107.55 250.262 107.896 250.253 108.243Z" fill="#FAB59F"/>
<path d="M246.748 109.616C246.65 109.615 246.553 109.594 246.463 109.556C246.373 109.517 246.291 109.461 246.223 109.391C246.154 109.321 246.1 109.238 246.063 109.147C246.027 109.056 246.009 108.958 246.01 108.86C246.01 108.733 246.044 107.588 246.875 106.907C247.132 106.704 247.432 106.561 247.752 106.489C248.072 106.417 248.405 106.418 248.724 106.492C248.917 106.531 249.086 106.643 249.197 106.805C249.307 106.968 249.35 107.166 249.317 107.36C249.283 107.553 249.175 107.726 249.016 107.84C248.856 107.955 248.659 108.003 248.465 107.975C248.038 107.9 247.888 108.021 247.839 108.061C247.64 108.288 247.528 108.579 247.524 108.88C247.522 108.98 247.499 109.077 247.459 109.168C247.419 109.259 247.361 109.341 247.289 109.409C247.217 109.477 247.132 109.531 247.039 109.566C246.946 109.602 246.848 109.619 246.748 109.616Z" fill="#211C4E"/>
<path d="M137.361 133.774L142.089 132.139C142.268 132.077 142.459 132.055 142.649 132.074C142.838 132.093 143.021 132.152 143.185 132.248C143.349 132.344 143.491 132.474 143.6 132.629C143.71 132.784 143.784 132.962 143.819 133.148C143.869 133.407 143.84 133.674 143.738 133.916C143.635 134.158 143.463 134.364 143.242 134.507L140.193 136.472C139.797 137.889 139.06 139.189 138.045 140.256C137.031 141.323 135.771 142.125 134.375 142.593L137.361 133.774Z" fill="#FBCDBF"/>
<path d="M137.361 133.774C138.186 133.526 139.576 133.226 140.164 133.8C140.351 133.961 140.494 134.167 140.581 134.398C140.668 134.629 140.695 134.878 140.66 135.122C140.625 135.366 140.53 135.597 140.382 135.795C140.235 135.993 140.04 136.15 139.815 136.252L139.008 136.694C139.723 137.582 141.572 138.782 147.105 137.299C148.037 137.049 149.081 137.473 149.436 138.243C149.567 138.524 149.589 138.844 149.497 139.14C149.405 139.437 149.207 139.689 148.94 139.847C148.914 139.864 148.882 139.878 148.856 139.893C149.133 139.943 149.395 140.055 149.622 140.222C149.848 140.388 150.035 140.604 150.165 140.853C150.297 141.135 150.318 141.456 150.226 141.753C150.134 142.05 149.934 142.302 149.666 142.46C149.591 142.51 149.512 142.554 149.43 142.59C149.653 142.745 149.832 142.955 149.952 143.199C150.083 143.48 150.106 143.801 150.014 144.098C149.922 144.395 149.723 144.647 149.456 144.805C149.289 144.914 149.106 144.995 148.914 145.045L148.7 145.099C148.716 145.122 148.731 145.147 148.743 145.172C148.875 145.453 148.897 145.774 148.805 146.07C148.712 146.367 148.512 146.618 148.244 146.775C148.08 146.886 147.897 146.967 147.705 147.015C146.311 147.399 144.885 147.655 143.444 147.779H143.384C142.792 147.823 142.197 147.835 141.604 147.814C138.91 147.814 135.177 144.315 131.13 142.751L131.418 135.615L137.361 133.774Z" fill="#FBCDBF"/>
<path fill-rule="evenodd" clip-rule="evenodd" d="M116.366 129.556L101.237 117.479C100.429 116.604 99.4295 115.929 98.3166 115.506C97.2037 115.083 96.0078 114.924 94.8231 115.042C93.6383 115.16 92.4971 115.551 91.4892 116.185C90.4812 116.818 89.6341 117.677 89.0145 118.694C88.0921 120.206 87.7198 121.991 87.9605 123.746C88.2012 125.501 89.0401 127.12 90.3356 128.328L106.732 139.659C107.395 140.26 108.158 140.726 108.978 141.042C109.764 141.42 110.621 141.634 111.494 141.67L134.012 145.004L135.855 132.944L116.366 129.556Z" fill="#211C4E"/>
<path d="M104.514 220.705H118.735L120.832 224.048C120.832 224.048 128.358 224.493 128.064 233.493H105.114L104.514 220.705Z" fill="#D4D2EF"/>
<path d="M128.551 230.899H104.317V233.496H128.551V230.899Z" fill="#9B96D9"/>
<path d="M114.979 226.385C114.832 226.386 114.687 226.344 114.564 226.264C114.395 226.153 114.276 225.98 114.234 225.782C114.192 225.584 114.23 225.378 114.339 225.208C116.044 222.586 120.745 223.264 120.947 223.295C121.046 223.31 121.142 223.345 121.227 223.396C121.313 223.448 121.388 223.516 121.447 223.597C121.507 223.678 121.55 223.769 121.574 223.866C121.598 223.964 121.603 224.065 121.588 224.164C121.573 224.263 121.538 224.358 121.487 224.444C121.435 224.53 121.367 224.604 121.286 224.664C121.206 224.723 121.114 224.766 121.017 224.79C120.92 224.814 120.819 224.819 120.719 224.804C119.629 224.64 116.589 224.544 115.619 226.039C115.55 226.145 115.455 226.232 115.343 226.293C115.231 226.353 115.106 226.385 114.979 226.385Z" fill="#211C4E"/>
<path d="M76.9598 213.565L89.9694 219.306L90.5463 223.212C90.5463 223.212 97.2531 226.653 93.3502 234.77L72.356 225.508L76.9598 213.565Z" fill="#D4D2EF"/>
<path d="M94.82 232.594L72.6489 222.811L71.6008 225.186L93.772 234.969L94.82 232.594Z" fill="#9B96D9"/>
<path d="M90.5376 223.973C90.3935 223.973 90.2524 223.932 90.1308 223.855C89.1991 223.278 86.4558 221.954 84.9674 222.929C84.8836 222.989 84.7884 223.032 84.6877 223.054C84.587 223.077 84.4827 223.079 84.3812 223.06C84.2797 223.041 84.1831 223.002 84.0971 222.945C84.0112 222.887 83.9377 222.813 83.8812 222.727C83.8247 222.641 83.7862 222.544 83.7681 222.442C83.7501 222.34 83.7528 222.236 83.7761 222.136C83.7994 222.035 83.8429 221.94 83.9039 221.857C83.9648 221.774 84.042 221.704 84.1308 221.651C86.7501 219.94 90.7654 222.459 90.9472 222.568C91.0867 222.657 91.1936 222.788 91.252 222.942C91.3103 223.097 91.3169 223.266 91.2707 223.425C91.2244 223.583 91.1279 223.722 90.9957 223.821C90.8635 223.92 90.7027 223.973 90.5376 223.973Z" fill="#211C4E"/>
<path fill-rule="evenodd" clip-rule="evenodd" d="M80.8888 190.933L76.96 213.566L89.9696 219.306L93.8407 194.421L80.8888 190.933ZM98.9753 198.413L104.514 220.705H118.735L112.23 196.376L98.9753 198.413Z" fill="#FBCDBF"/>
<path fill-rule="evenodd" clip-rule="evenodd" d="M77.0781 205.667L82.5387 146.697L102.122 155.49L101.826 157.399L104.095 157.414L118.989 213.017L101.433 213.43L95.7647 196.501L93.3041 212.374L77.0781 205.667Z" fill="#1A1829"/>
<path fill-rule="evenodd" clip-rule="evenodd" d="M75.333 206.146L76.4032 199.01L95.5945 207.476L94.3888 214.641L75.333 206.146ZM100.031 214.575L98.1301 207.612H119.107L120.896 214.656L100.031 214.575Z" fill="#312B78"/>
<path fill-rule="evenodd" clip-rule="evenodd" d="M168.659 123.407C169.219 123.389 169.777 123.326 170.327 123.217L150.235 95.0195C149.658 97.9215 148.992 100.815 148.216 103.673C147.733 105.454 147.392 107.03 147.074 108.502C146.127 112.888 145.381 116.34 141.659 121.466C141.345 121.899 141.004 122.369 140.642 122.868C138.068 126.42 134.451 131.41 132.117 134.415C131.396 135.342 130.678 136.27 129.962 137.198C121.876 147.653 113.444 157.938 105.063 168.161C102.95 170.739 100.84 173.312 98.7391 175.884C98.1146 176.724 97.4265 177.517 96.7357 178.312L96.6449 178.417C95.1507 180.148 96.273 182.161 97.2459 183.905C97.336 184.066 97.4249 184.225 97.5103 184.382C98.4291 186.091 99.7424 187.555 101.341 188.654C103.416 190.058 105.844 190.852 108.348 190.945C110.598 190.971 111.401 189.692 112.383 188.127C112.566 187.835 112.756 187.532 112.963 187.226C114.182 185.419 115.396 183.608 116.604 181.795C117.165 180.951 117.727 180.106 118.288 179.262C120.049 176.613 121.81 173.963 123.593 171.338L123.881 170.917C128.638 163.898 133.551 156.996 138.538 150.147C138.923 149.618 139.308 149.089 139.693 148.56C144.221 142.337 148.755 136.104 153.429 129.99C156.581 125.862 161.638 124.512 166.502 123.577C167.208 123.413 167.936 123.356 168.659 123.407ZM102.897 179.505C102.177 179.756 101.547 180.216 101.087 180.825C100.472 181.643 100.207 182.672 100.349 183.685C100.491 184.698 101.03 185.614 101.846 186.231C102.455 186.691 103.188 186.959 103.95 187.002C104.712 187.046 105.47 186.862 106.127 186.475C106.785 186.087 107.313 185.514 107.645 184.826C107.977 184.139 108.097 183.368 107.991 182.613C107.885 181.857 107.557 181.149 107.049 180.579C106.541 180.01 105.875 179.604 105.136 179.412C104.397 179.221 103.618 179.253 102.897 179.505Z" fill="#9B96D9"/>
<path d="M190.631 98.4091C191.298 99.1273 190.744 100.411 190.426 101.161C189.945 102.269 189.437 103.402 188.889 104.473C187.246 107.675 185.196 110.651 182.791 113.328C181.933 114.288 181.018 115.196 180.051 116.046L173.534 107.193C174.91 106.541 176.26 105.84 177.616 105.113C179.02 104.41 180.385 103.63 181.703 102.776C182.987 101.894 184.248 100.976 185.563 100.137C186.558 99.5197 189.524 97.212 190.631 98.4091Z" fill="#9B96D9"/>
<path fill-rule="evenodd" clip-rule="evenodd" d="M139.343 150.136L139.611 149.764L127.092 140.328C119.39 150.146 111.183 160.18 103.18 169.966C101.091 172.52 99.0162 175.057 96.9677 177.568C96.261 178.503 95.5052 179.383 94.7379 180.266C93.1395 182.112 94.3291 184.243 95.3649 186.098C95.4619 186.272 95.5575 186.443 95.6494 186.612C96.6282 188.432 98.0276 189.993 99.7312 191.164C101.94 192.648 104.52 193.485 107.179 193.578C109.586 193.61 110.441 192.247 111.488 190.579C111.684 190.268 111.886 189.946 112.106 189.62C113.404 187.695 114.697 185.767 115.983 183.834C116.554 182.977 117.124 182.119 117.695 181.262C119.597 178.402 121.499 175.541 123.425 172.696L123.731 172.246C128.797 164.781 134.032 157.428 139.343 150.136ZM102.897 179.505C102.176 179.756 101.547 180.216 101.087 180.825C100.472 181.643 100.207 182.672 100.349 183.685C100.491 184.698 101.029 185.614 101.846 186.231C102.455 186.69 103.187 186.959 103.949 187.002C104.712 187.046 105.469 186.862 106.127 186.475C106.785 186.087 107.313 185.514 107.645 184.826C107.977 184.139 108.097 183.368 107.991 182.612C107.885 181.857 107.557 181.149 107.049 180.579C106.541 180.01 105.875 179.604 105.136 179.412C104.397 179.221 103.618 179.253 102.897 179.505Z" fill="#B9F3ED"/>
<path d="M181.446 85.3618C177.901 84.9868 164.139 82.5897 159.546 84.9608C154.954 87.332 151.426 92.0858 150.238 95.0166L151.435 96.6954L170.326 123.217L182.153 119.412C182.215 119.392 182.271 119.357 182.317 119.311C182.363 119.265 182.397 119.208 182.417 119.147C182.437 119.085 182.442 119.019 182.432 118.955C182.422 118.891 182.396 118.83 182.358 118.777L168.327 99.7185C168.073 99.3695 168.293 98.657 168.48 98.3512C169.063 97.4689 169.788 96.6891 170.626 96.0435C171.042 95.7118 171.492 95.4147 171.924 95.1204C172.357 94.8262 172.66 94.5089 173.078 94.2781C173.595 93.9897 174.117 93.7185 174.633 93.4387C175.671 92.8791 176.713 92.3262 177.757 91.7801C179.188 91.0358 180.63 90.3108 182.084 89.6051C182.617 89.3435 183.153 89.0849 183.694 88.8291C183.694 88.8291 184.992 85.7397 181.446 85.3618Z" fill="#7E78CF"/>
<path d="M152.355 107.977L157.277 115.166C157.427 115.388 157.65 115.551 157.907 115.627C158.165 115.703 158.44 115.687 158.687 115.581L168.071 111.635C168.235 111.568 168.382 111.464 168.499 111.33C168.617 111.197 168.702 111.039 168.748 110.868C168.795 110.696 168.801 110.517 168.766 110.342C168.732 110.168 168.658 110.004 168.55 109.864L163.069 102.571C162.911 102.358 162.684 102.205 162.426 102.139C162.169 102.074 161.896 102.099 161.655 102.211L152.823 106.249C152.666 106.319 152.527 106.423 152.415 106.553C152.304 106.683 152.223 106.837 152.178 107.002C152.133 107.168 152.126 107.341 152.157 107.51C152.187 107.678 152.255 107.838 152.355 107.977Z" fill="#B8B4E4"/>
<path d="M106.538 99.7012C106.538 99.7012 109.357 102.693 105.211 105.707L106.538 99.7012Z" fill="#211C4E"/>
<path d="M102.038 111.782L101.412 118.339C101.196 120.646 99.7076 121.737 97.5153 121.512C95.6432 121.313 93.673 120.208 93.947 118.186L95.4153 107.919L102.038 111.782Z" fill="#FBCDBF"/>
<path d="M101.583 116.827C101.583 116.827 96.8088 114.603 95.1501 109.327C94.5588 107.443 102.128 111.116 102.128 111.116L101.583 116.827Z" fill="#B8968C"/>
<path d="M98.4161 113.258C102.143 113.771 105.628 111.152 106.161 108.025L107.24 101.474C107.909 97.5686 105.446 93.8186 101.676 93.0369C97.8161 92.235 93.3507 94.6753 92.5401 98.6648L91.7584 103.779C91.0516 108.38 93.9997 112.341 98.4161 113.258Z" fill="#FBCDBF"/>
<path fill-rule="evenodd" clip-rule="evenodd" d="M106.608 101.334C106.778 100.765 105.033 100.356 105.033 100.356C104.401 100.151 103.798 100.131 103.786 100.526C103.775 100.921 104.349 101.161 105.549 101.469C106.749 101.778 106.608 101.334 106.608 101.334ZM100.596 100.503C100.504 99.9174 98.4845 100.402 98.4845 100.402C97.8268 100.506 96.9355 100.826 97.1057 101.184C97.2758 101.541 98.2278 101.429 99.4422 101.166C100.657 100.904 100.596 100.503 100.596 100.503Z" fill="#211C4E"/>
<path d="M101.3 110.446C100.99 110.455 100.682 110.397 100.398 110.274C100.113 110.151 99.8591 109.968 99.6531 109.736C99.5521 109.618 99.3906 109.399 99.4252 109.235C99.4338 109.183 99.4616 109.136 99.503 109.103C99.5443 109.071 99.5964 109.055 99.6488 109.059C99.7013 109.063 99.7503 109.087 99.7863 109.125C99.8224 109.163 99.8427 109.214 99.8435 109.266C99.8983 109.405 100.366 110.08 101.43 110.019C101.486 110.017 101.54 110.036 101.582 110.073C101.623 110.111 101.648 110.163 101.652 110.218C101.654 110.246 101.65 110.274 101.641 110.3C101.632 110.326 101.618 110.351 101.6 110.371C101.581 110.392 101.558 110.409 101.533 110.421C101.508 110.433 101.481 110.439 101.453 110.44L101.3 110.446Z" fill="#211C4E"/>
<path fill-rule="evenodd" clip-rule="evenodd" d="M99.8924 103.528C99.8513 103.413 99.8453 103.287 99.8752 103.168C99.8951 103.09 99.9303 103.015 99.9789 102.95C100.028 102.884 100.089 102.829 100.158 102.788C100.228 102.746 100.306 102.718 100.386 102.706C100.467 102.694 100.549 102.699 100.628 102.718C100.747 102.748 100.854 102.813 100.937 102.904C101.019 102.995 101.072 103.108 101.09 103.23C101.108 103.351 101.09 103.475 101.037 103.586C100.984 103.697 100.9 103.789 100.795 103.852C100.69 103.915 100.568 103.945 100.445 103.939C100.323 103.933 100.205 103.891 100.107 103.818C100.008 103.744 99.9336 103.644 99.8924 103.528ZM104.972 103.586C104.921 103.474 104.904 103.35 104.923 103.229C104.936 103.149 104.964 103.072 105.007 103.002C105.049 102.933 105.105 102.872 105.171 102.825C105.237 102.777 105.312 102.743 105.391 102.724C105.47 102.705 105.553 102.702 105.633 102.716C105.754 102.735 105.867 102.79 105.957 102.873C106.047 102.956 106.11 103.065 106.139 103.184C106.167 103.303 106.16 103.429 106.117 103.544C106.074 103.659 105.999 103.759 105.899 103.831C105.8 103.902 105.681 103.943 105.558 103.948C105.436 103.952 105.315 103.92 105.21 103.856C105.106 103.792 105.023 103.698 104.972 103.586Z" fill="#211C4E"/>
<path d="M102.304 107.625C102.259 107.626 102.216 107.612 102.179 107.586C102.143 107.56 102.116 107.523 102.102 107.481C102.085 107.428 102.09 107.37 102.116 107.321C102.141 107.271 102.185 107.233 102.237 107.215L102.783 107.039C102.786 107.033 102.788 107.025 102.788 107.018C102.788 107.01 102.786 107.003 102.783 106.996C102.774 106.978 102.768 106.958 102.765 106.939L102.641 105.764C102.639 105.711 102.657 105.658 102.692 105.617C102.727 105.576 102.776 105.551 102.83 105.545C102.883 105.54 102.937 105.555 102.98 105.587C103.022 105.62 103.051 105.668 103.06 105.721L103.181 106.875C103.213 106.976 103.211 107.084 103.173 107.183C103.135 107.282 103.064 107.364 102.973 107.417L102.935 107.435L102.359 107.622C102.34 107.625 102.322 107.626 102.304 107.625Z" fill="#211C4E"/>
<path fill-rule="evenodd" clip-rule="evenodd" d="M103.514 91.7762C103.326 91.6139 103.117 91.4744 102.892 91.3616C102.535 91.1814 102.145 91.0735 101.745 91.0441C101.345 91.0148 100.944 91.0645 100.563 91.1904C100.183 91.3163 99.831 91.516 99.5278 91.778C99.349 91.9325 99.1892 92.107 99.0512 92.2976L94.7694 91.9212C93.0098 91.5635 90.4425 92.4577 90.4425 95.2529L90.2319 101.853L92.8079 103.35C92.8079 103.35 96.3329 101.011 95.4906 97.7626L105.529 99.4525C106.379 99.6753 107.276 99.6475 108.111 99.3716C108.967 99.0892 109.719 98.5593 110.274 97.8491C110.828 97.1389 111.159 96.2803 111.226 95.3818C111.292 94.4833 111.09 93.5853 110.646 92.8014C110.202 92.0175 109.536 91.3829 108.731 90.9779C107.652 90.4358 106.402 90.3439 105.256 90.7225C104.597 90.94 104.003 91.3026 103.514 91.7762Z" fill="#211C4E"/>
<path d="M88.1375 103.405C87.9852 104.102 88.1147 104.831 88.4979 105.433C88.881 106.035 89.4866 106.461 90.1827 106.619C90.5288 106.685 90.8847 106.682 91.2298 106.611C91.5749 106.539 91.9024 106.4 92.1935 106.201C92.4847 106.003 92.7336 105.748 92.9262 105.453C93.1187 105.158 93.251 104.828 93.3154 104.481C93.4677 103.784 93.3382 103.055 92.955 102.453C92.5719 101.851 91.9663 101.425 91.2702 101.268C90.9241 101.201 90.5682 101.204 90.2231 101.276C89.878 101.347 89.5505 101.486 89.2594 101.685C88.9682 101.884 88.7192 102.138 88.5267 102.433C88.3342 102.728 88.2019 103.059 88.1375 103.405Z" fill="#FBCDBF"/>
<path d="M91.4808 105.531C91.4301 105.537 91.3788 105.537 91.328 105.531C91.1304 105.491 90.9565 105.375 90.8446 105.207C90.7327 105.04 90.6918 104.835 90.7308 104.637C90.7867 104.341 90.7377 104.035 90.5924 103.772C90.552 103.72 90.428 103.567 89.9895 103.549C89.8895 103.546 89.7912 103.523 89.7002 103.481C89.6092 103.439 89.5272 103.38 89.459 103.307C89.3909 103.234 89.3378 103.148 89.3029 103.054C89.2679 102.96 89.2518 102.861 89.2554 102.761C89.259 102.66 89.2822 102.562 89.3238 102.471C89.3654 102.38 89.4245 102.298 89.4978 102.23C89.5711 102.162 89.657 102.109 89.7508 102.074C89.8446 102.039 89.9443 102.023 90.0443 102.026C90.3775 102.02 90.7077 102.089 91.0104 102.229C91.3131 102.368 91.5804 102.574 91.7924 102.831C92.4616 103.679 92.251 104.822 92.2251 104.948C92.1853 105.115 92.09 105.264 91.9548 105.37C91.8196 105.476 91.6525 105.533 91.4808 105.531Z" fill="#211C4E"/>
<path fill-rule="evenodd" clip-rule="evenodd" d="M127.87 150.554L132.875 150.52C133.066 150.518 133.255 150.559 133.428 150.637C133.602 150.715 133.757 150.83 133.883 150.974C134.008 151.118 134.101 151.287 134.155 151.47C134.209 151.653 134.223 151.845 134.196 152.034C134.159 152.295 134.045 152.538 133.869 152.734C133.693 152.93 133.462 153.069 133.207 153.133L129.69 154.019C129.503 154.294 129.3 154.557 129.084 154.809C129.93 155.747 131.784 156.748 135.973 157.019C136.934 157.082 137.788 157.815 137.88 158.66C137.914 158.969 137.832 159.279 137.649 159.531C137.467 159.783 137.197 159.957 136.893 160.021C136.864 160.021 136.83 160.021 136.798 160.039C137.045 160.175 137.257 160.365 137.419 160.596C137.581 160.826 137.688 161.09 137.733 161.369C137.766 161.677 137.683 161.988 137.501 162.239C137.319 162.491 137.05 162.665 136.746 162.73C136.658 162.753 136.569 162.768 136.478 162.776C136.636 162.996 136.735 163.252 136.766 163.52C136.801 163.83 136.719 164.14 136.537 164.392C136.354 164.644 136.084 164.819 135.78 164.882C135.592 164.932 135.397 164.95 135.203 164.937C135.128 164.937 135.059 164.937 134.984 164.92C134.987 164.931 134.99 164.942 134.992 164.953C134.996 164.969 134.999 164.984 135.001 165C135.036 165.309 134.954 165.62 134.771 165.872C134.589 166.124 134.319 166.298 134.014 166.362C133.826 166.412 133.632 166.43 133.438 166.417C131.993 166.333 130.559 166.117 129.154 165.77L129.096 165.753C128.521 165.606 127.955 165.427 127.4 165.217C125.937 164.72 124.517 163.024 122.943 161.143C121.774 159.746 120.519 158.247 119.098 157.062L121.665 150.396L127.87 150.554C127.87 150.554 127.87 150.554 127.87 150.554Z" fill="#FBCDBF"/>
<path d="M92.0029 114.961C92.0029 114.961 81.35 117.531 78.627 158.409C78.627 158.409 92.0664 162.43 106.031 159.669L104.56 120.046C104.56 120.046 99.3731 113.544 92.0029 114.961Z" fill="#312B78"/>
<path fill-rule="evenodd" clip-rule="evenodd" d="M108.703 138.997L103.38 121.973C103.199 120.797 102.749 119.679 102.063 118.707C101.378 117.735 100.476 116.935 99.4291 116.37C98.3822 115.805 97.2186 115.49 96.0296 115.451C94.8406 115.412 93.6588 115.649 92.5768 116.143C90.9652 116.879 89.657 118.149 88.8734 119.737C88.0897 121.326 87.8787 123.137 88.2759 124.863L95.5191 143.432C95.6949 144.15 95.9788 144.83 96.356 145.451C96.5696 145.85 96.8256 146.227 97.1205 146.575C97.745 147.312 98.5279 147.898 99.4105 148.289L119.124 159.672L125.271 149.135L108.703 138.997Z" fill="#312B78"/>
<path d="M105.339 152.242C105.255 152.241 105.173 152.221 105.099 152.184L96.5059 147.814C96.3851 147.754 96.2914 147.651 96.2434 147.525L89.8367 128.498C89.8009 128.367 89.8166 128.227 89.8806 128.107C89.9446 127.987 90.0521 127.896 90.181 127.852C90.31 127.809 90.4507 127.816 90.5743 127.873C90.698 127.93 90.7953 128.032 90.8463 128.158L97.1924 146.966L105.59 151.235C105.695 151.29 105.779 151.379 105.828 151.487C105.878 151.595 105.889 151.717 105.861 151.833C105.834 151.948 105.768 152.052 105.675 152.126C105.582 152.2 105.466 152.241 105.347 152.242H105.339Z" fill="#211C4E"/>
</g>
<defs>
<clipPath id="clip0_9285_662738">
<rect width="375" height="240" fill="white" transform="translate(0.5)"/>
</clipPath>
</defs>
</svg>
