<svg width="24" height="25" viewBox="0 0 24 25" fill="none" xmlns="http://www.w3.org/2000/svg">
<path fill-rule="evenodd" clip-rule="evenodd" d="M4 4.95886C2.89543 4.95886 2 5.85429 2 6.95886V18.9589C2 20.0634 2.89543 20.9589 4 20.9589H20C21.1046 20.9589 22 20.0634 22 18.9589V10.9589C22 10.4066 21.5523 9.95886 21 9.95886C20.4477 9.95886 20 10.4066 20 10.9589V18.9589H4V11.9589H9C9.82843 11.9589 10.5 11.2873 10.5 10.4589C10.5 9.63043 9.82843 8.95886 9 8.95886H4V6.95886L8 6.95886C8.55228 6.95886 9 6.51115 9 5.95886C9 5.40658 8.55228 4.95886 8 4.95886H4ZM6 15.9589C6 15.4066 6.44772 14.9589 7 14.9589H13C13.5523 14.9589 14 15.4066 14 15.9589C14 16.5111 13.5523 16.9589 13 16.9589H7C6.44772 16.9589 6 16.5111 6 15.9589ZM16 14.9589C15.4477 14.9589 15 15.4066 15 15.9589C15 16.5111 15.4477 16.9589 16 16.9589H17C17.5523 16.9589 18 16.5111 18 15.9589C18 15.4066 17.5523 14.9589 17 14.9589H16Z" fill="#312B78"/>
<path fill-rule="evenodd" clip-rule="evenodd" d="M21.7071 3.25176C22.0976 3.64228 22.0976 4.27544 21.7071 4.66597L15.7071 10.666C15.3166 11.0565 14.6834 11.0565 14.2929 10.666L11.2929 7.66597C10.9024 7.27544 10.9024 6.64228 11.2929 6.25176C11.6834 5.86123 12.3166 5.86123 12.7071 6.25176L15 8.54465L20.2929 3.25176C20.6834 2.86123 21.3166 2.86123 21.7071 3.25176Z" fill="#50E2D1"/>
</svg>
