<svg width="24" height="25" viewBox="0 0 24 25" fill="none" xmlns="http://www.w3.org/2000/svg">
<path fill-rule="evenodd" clip-rule="evenodd" d="M5 4.95886C5 3.85429 5.89543 2.95886 7 2.95886H12.5858C13.1162 2.95886 13.6249 3.16958 14 3.54465L18.4142 7.95886C18.7893 8.33394 19 8.84264 19 9.37308V20.9589C19 22.0634 18.1046 22.9589 17 22.9589H14C13.4477 22.9589 13 22.5111 13 21.9589C13 21.4066 13.4477 20.9589 14 20.9589H17V9.37308L12.5858 4.95886H7V13.9589C7 14.5111 6.55228 14.9589 6 14.9589C5.44772 14.9589 5 14.5111 5 13.9589V4.95886Z" fill="#312B78"/>
<path fill-rule="evenodd" clip-rule="evenodd" d="M12.7071 15.2518C13.0976 15.6423 13.0976 16.2754 12.7071 16.666L6.70711 22.666C6.31658 23.0565 5.68342 23.0565 5.29289 22.666L2.29289 19.666C1.90237 19.2754 1.90237 18.6423 2.29289 18.2518C2.68342 17.8612 3.31658 17.8612 3.70711 18.2518L6 20.5446L11.2929 15.2518C11.6834 14.8612 12.3166 14.8612 12.7071 15.2518Z" fill="#50E2D1"/>
</svg>
