<svg width="206" height="160" viewBox="0 0 206 160" fill="none" xmlns="http://www.w3.org/2000/svg">
<g clip-path="url(#clip0_7212_4889)">
<path d="M72.6907 156.9C92.3901 156.9 108.36 153.875 108.36 150.143C108.36 146.411 92.3901 143.386 72.6907 143.386C52.9913 143.386 37.0217 146.411 37.0217 150.143C37.0217 153.875 52.9913 156.9 72.6907 156.9Z" fill="#E6E6E6"/>
<path d="M119.766 22.5638C106.657 22.1101 94.1719 17.8768 82.2498 13.2466C70.3277 8.61627 58.5191 3.48771 45.724 1.03483C37.4944 -0.543027 28.0819 -0.767857 21.4525 3.63962C15.0702 7.89317 13.0082 15.2153 11.9003 22.0149C11.0658 27.1313 10.5756 32.5171 12.8603 37.3074C14.4483 40.6333 17.2638 43.4285 19.2123 46.6146C25.9916 57.6981 21.1993 71.3661 13.8549 82.1884C10.4115 87.2643 6.41116 92.1133 3.75168 97.5113C1.09221 102.909 -0.137269 109.115 2.19003 114.637C4.49504 120.106 9.99021 124.205 15.9431 127.092C28.0333 132.955 42.2746 134.633 56.1715 135.585C86.9246 137.687 117.84 136.778 148.674 135.864C160.086 135.528 171.546 135.185 182.771 133.421C189.006 132.441 195.441 130.885 199.968 127.13C205.712 122.364 207.136 114.295 203.285 108.319C196.828 98.2931 178.979 95.8038 174.46 85.0463C171.977 79.1238 174.527 72.5288 178.139 67.0377C185.884 55.2553 198.866 44.9192 199.548 31.4537C200.018 22.2053 193.778 12.9427 184.128 8.56563C174.015 3.97788 159.988 4.55515 152.53 12.1487C144.844 19.959 131.342 22.9669 119.766 22.5638Z" fill="#F5F5F5"/>
<path d="M109.35 73.2704L103.146 69.0877L106.275 64.4291L89.8889 63.1226L84.0007 67.6759L76.63 63.5439L70.4826 64.2832L70.4097 62.6628C70.3336 60.9736 70.1638 59.2898 69.9013 57.6193C69.9276 57.113 69.9458 56.5317 69.9438 55.8997C69.9438 53.2362 69.5833 49.7057 67.9993 47.3521L68.3639 44.0749L65.4067 40.5809C65.8816 39.6349 66.4231 38.7238 67.0271 37.8546C67.1284 37.7087 67.2296 37.5669 67.339 37.4292C71.1773 37.1517 74.2054 33.996 74.2054 30.1374C74.2054 29.9592 74.2054 29.7809 74.1852 29.6047C74.1852 29.5338 74.171 29.4609 74.1629 29.39C74.5376 29.5926 74.9164 29.7951 75.2952 29.9977C75.366 30.0989 75.4471 30.2002 75.5362 30.3197L75.5544 30.342L75.6678 30.4818L75.7043 30.5243C75.7448 30.5729 75.7873 30.6195 75.8299 30.6681L75.8582 30.7005C75.9656 30.82 76.079 30.9415 76.2006 31.061C76.215 31.0728 76.2286 31.0857 76.2411 31.0995L76.393 31.2413L76.4355 31.2798C76.5651 31.3953 76.7029 31.5067 76.8406 31.612L76.8852 31.6444L77.0594 31.7639L77.1161 31.8003C77.1829 31.8409 77.2518 31.8834 77.3186 31.9219L77.3429 31.9361C77.4219 31.9786 77.5029 32.0191 77.584 32.0576L77.6245 32.0738C77.6933 32.1035 77.7609 32.1319 77.827 32.1589L77.8898 32.1811C77.9607 32.2054 78.0296 32.2277 78.1025 32.248L78.147 32.2601C78.2362 32.2824 78.3253 32.3006 78.4164 32.3148H78.4266C78.5124 32.3287 78.599 32.3375 78.6858 32.3412H78.7446C78.8222 32.3452 78.8999 32.3452 78.9775 32.3412H79.0281C79.1253 32.3356 79.222 32.3241 79.3178 32.3067C79.771 32.2471 80.2061 32.091 80.5939 31.849C80.6926 31.7829 80.7801 31.7016 80.8531 31.6079C81.2582 31.0772 80.8126 30.4959 80.8126 30.4959C80.6546 30.1192 79.6297 29.8538 79.6297 29.8538C79.6297 29.8538 76.3889 28.5008 76.3889 27.4233C76.3889 26.3457 75.5787 20.7553 67.2154 19.4772C67.2154 19.4772 61.775 19.1714 60.2457 22.084L60.2133 22.4243C59.7637 22.7059 59.391 23.271 58.9474 23.4371C58.7557 23.4782 58.5709 23.5464 58.3985 23.6396V23.6011C58.3473 23.6459 58.3053 23.7003 58.2749 23.7612C58.1796 23.9507 58.1225 24.1572 58.1068 24.3688C58.0612 24.6273 57.9714 24.876 57.8415 25.1041C57.8052 25.1689 57.7646 25.2311 57.7199 25.2904L57.6855 25.3451C57.9206 25.3634 58.1568 25.3252 58.3742 25.2337C58.3399 25.511 58.2719 25.7831 58.1716 26.0439C58.3004 26.0481 58.4276 26.0151 58.5382 25.9491C58.6488 25.883 58.7381 25.7866 58.7955 25.6712V25.655L58.8218 25.6185C58.8727 25.5248 58.9148 25.4264 58.9474 25.3248L58.9251 25.3491C58.9656 25.2175 59.0021 25.0838 59.0466 24.9542C59.067 24.8812 59.1007 24.8125 59.1459 24.7516C59.1999 24.6971 59.266 24.6561 59.3389 24.6318C59.4117 24.6075 59.4892 24.6007 59.5652 24.6119L59.4821 26.368H59.5186C59.4698 26.4957 59.4102 26.619 59.3403 26.7366C59.0527 27.2025 58.5301 27.5205 58.3377 28.0309C58.2547 28.2771 58.223 28.5376 58.2445 28.7965C58.2445 28.9484 58.2628 29.1024 58.2749 29.2543V29.2421C58.3033 29.6472 58.3114 30.0321 58.0926 30.3582C57.9427 30.581 57.7017 30.7491 57.6187 31.0023C57.5957 31.0729 57.5854 31.1469 57.5883 31.2211C57.6045 31.443 57.6509 31.6618 57.726 31.8712C57.7269 31.8672 57.7269 31.8631 57.726 31.8591C57.7765 32.0132 57.7883 32.1774 57.7604 32.3371C57.6693 32.7422 57.1771 33.0805 57.2014 33.4673C57.2 33.5182 57.2076 33.5689 57.2237 33.6172C57.3184 33.8062 57.4824 33.9513 57.6814 34.0223C57.9937 34.1999 58.3524 34.279 58.7104 34.2492C58.8446 34.2249 58.9743 34.1805 59.0952 34.1175C58.9535 34.4436 58.8076 34.7657 58.6598 35.0715C58.6375 35.1201 58.6132 35.1687 58.5889 35.2174C58.5889 35.2174 57.3371 34.3808 56.6262 36.0863C56.4186 36.4407 56.2702 36.8266 56.1866 37.2287C56.151 37.3895 56.1008 37.5468 56.0367 37.6986C55.7211 38.2329 55.2487 38.6572 54.6837 38.9139C53.2335 39.5783 47.3757 46.8842 47.2724 48.776C47.2217 49.5145 47.0969 50.246 46.8997 50.9595C46.4386 52.6397 46.3201 54.3956 46.5513 56.1225C46.6237 56.6806 46.7437 57.2315 46.9099 57.7692C47.5317 59.659 47.9469 63.1854 47.9469 63.1854L48.6194 69.3065C48.5944 70.1513 48.631 70.9968 48.7288 71.8363C48.0421 72.6202 45.2854 75.8873 46.3387 76.7765C47.1489 77.4773 48.5667 77.3619 49.3627 77.2181C48.6923 78.8769 47.637 81.7612 47.4973 83.7422C47.2947 86.6731 47.8436 90.5559 48.7125 92.0467C49.5815 93.5375 52.4779 97.3616 52.4779 97.3616C52.4779 97.3616 52.3422 102.608 53.3773 104.514C54.4123 106.42 54.8295 110.373 54.8295 110.373C54.8295 110.373 55.7957 113.711 55.3116 114.939C54.8275 116.166 56.2089 117.187 54.7586 118.003C53.3084 118.82 51.453 137.217 51.453 137.217C51.453 137.217 50.7056 149.275 51.453 149.889C51.493 149.918 51.5358 149.943 51.5807 149.964V154.015C51.5807 154.015 51.0621 154.865 53.1707 155.038C54.6148 155.153 58.7084 155.414 61.1369 155.566L63.0186 155.684C63.0186 155.684 67.4747 156.571 69.4435 155.684C71.4123 154.797 74.9022 154.817 74.3837 152.473C74.3149 152.154 74.2229 151.841 74.1082 151.536C73.539 150.081 72.5729 149.915 70.7925 149.51C70.6892 149.488 70.5899 149.467 70.4988 149.451C68.6232 149.125 68.0074 149.998 66.9562 148.862C66.0427 147.879 63.1341 146.78 62.1436 146.431C62.1679 146.358 62.1983 146.287 62.2226 146.213C61.9421 146.165 61.6813 146.038 61.4711 145.846L64.1549 146.016L65.753 146.115C65.753 146.115 69.5407 146.871 71.2219 146.115C72.903 145.36 75.8603 145.38 75.4187 143.389C75.3605 143.118 75.2827 142.851 75.1858 142.591C74.7017 141.355 73.8793 141.22 72.3663 140.877C72.2792 140.859 72.1982 140.841 72.1172 140.827C70.5231 140.549 70.0005 141.291 69.1073 140.326C68.3416 139.504 65.9252 138.582 65.0563 138.269C65.0563 137.819 64.4486 137.179 64.0658 136.537C63.6161 135.787 64.4466 133.164 64.4466 133.164L64.9206 122.281C65.1011 122.201 65.292 122.146 65.4877 122.119C65.4877 122.119 67.6307 120.074 67.1466 117.894C67.0479 117.235 66.9965 116.57 66.9926 115.903C67.6975 115.249 68.6677 114.283 68.9432 113.687C69.3929 112.717 68.9432 108.016 68.9432 108.016V90.0394L72.5283 90.402L75.7813 90.7362L76.7717 90.8375L80.0247 91.1656L87.5008 91.9211L94.2376 90.6451L97.1523 90.0941L103.146 88.9599V74.2953L109.35 73.2704ZM60.0067 24.6767L59.5895 24.6321C59.7272 24.6382 59.873 24.6645 60.0067 24.6767Z" fill="url(#paint0_linear_7212_4889)"/>
<path d="M94.8094 82.792C92.7839 85.6905 85.5022 84.1552 85.5022 84.1552L79.8592 78.8747L79.0996 78.1597L80.3736 75.4536C80.3736 75.4536 80.7787 75.565 81.4735 75.7635C85.1214 76.8228 96.5189 80.3553 94.8094 82.792Z" fill="#EFB7B9"/>
<path opacity="0.1" d="M81.4695 75.7635C81.2203 76.6304 80.5377 77.9288 79.8592 78.8747L79.0996 78.1597L80.3737 75.4536C80.3737 75.4536 80.7828 75.565 81.4695 75.7635Z" fill="black"/>
<path d="M62.1153 45.2467C62.1153 45.2467 56.9138 47.5538 57.169 53.2191C57.3526 56.8689 57.7503 60.5049 58.36 64.1081C58.36 64.1081 57.2966 72.6335 61.7243 74.8311C66.1521 77.0288 70.2497 78.8355 70.2497 78.8355C70.2497 78.8355 77.1768 79.5809 78.0377 79.8888C78.8985 80.1967 81.5884 75.4894 81.0921 74.7562C80.5959 74.0229 74.2379 72.4856 73.4277 71.2622C72.6175 70.0388 70.7439 69.2833 70.7439 69.2833C70.7439 69.2833 68.8095 68.1125 68.6779 67.0552C68.5462 65.9979 69.0566 65.21 69.1863 64.7462C69.3159 64.2823 69.644 59.804 69.644 59.804C69.644 59.804 71.8275 43.8633 62.1153 45.2467Z" fill="#F1F0FA"/>
<path opacity="0.1" d="M65.5486 63.8762C65.5486 63.8762 58.4128 65.0713 59.1035 67.5687C59.1035 67.5687 61.6941 64.8728 65.5486 63.8762Z" fill="black"/>
<path opacity="0.1" d="M65.603 64.8862C65.603 64.8862 61.6796 68.0885 62.4472 68.2526C63.2149 68.4167 65.603 64.8862 65.603 64.8862Z" fill="black"/>
<path opacity="0.1" d="M67.4886 66.0034C67.4886 66.0034 66.4374 68.1565 67.0835 68.0107C67.7296 67.8648 67.4886 66.0034 67.4886 66.0034Z" fill="black"/>
<path opacity="0.1" d="M81.7322 75.9932L81.2988 75.8696C81.4223 75.4645 81.4568 75.1364 81.3555 74.9845C80.8593 74.2512 74.5053 72.7159 73.6971 71.4905C72.8889 70.2651 71.0133 69.5116 71.0133 69.5116C71.0133 69.5116 69.079 68.3408 68.9473 67.2835C68.8157 66.2262 69.3261 65.4383 69.4557 64.9745C69.5853 64.5106 69.9135 60.0302 69.9135 60.0302C69.9135 60.0302 72.0909 44.0916 62.3786 45.475C62.3786 45.475 57.1772 47.7841 57.4303 53.4494C57.614 57.0993 58.0124 60.7353 58.6234 64.3385C58.6234 64.3385 57.56 72.8638 61.9877 75.0614C66.4154 77.2591 70.513 79.0658 70.513 79.0658C70.513 79.0658 77.4382 79.8092 78.3011 80.1191C78.6272 80.2366 79.2166 79.6309 79.7938 78.7985L80.122 79.1043L85.765 84.3828C85.765 84.3828 93.0467 85.9201 95.0722 83.0216C96.7837 80.5829 85.3883 77.0505 81.7322 75.9932Z" fill="black"/>
<path d="M59.1217 23.9843C58.9234 24.023 58.7335 24.0964 58.5606 24.201C58.3581 24.3691 58.3581 24.6567 58.3074 24.9079C58.248 25.2573 58.1094 25.5884 57.9023 25.8761C58.1328 25.893 58.364 25.8548 58.5768 25.7647C58.5422 26.0419 58.4742 26.3139 58.3743 26.5749C58.5005 26.5781 58.6249 26.5448 58.7327 26.4791C58.8405 26.4133 58.927 26.3179 58.9819 26.2042C59.0891 25.976 59.1739 25.7379 59.2351 25.4933C59.2541 25.4201 59.2872 25.3513 59.3323 25.2907C59.5187 25.0699 59.8651 25.1692 60.1527 25.1975C60.392 25.2177 60.6324 25.1735 60.849 25.0695C61.0655 24.9655 61.2503 24.8055 61.3842 24.6061C61.69 24.1423 61.7083 22.9553 60.9791 22.8297C60.2175 22.7042 59.7435 23.7534 59.1217 23.9843Z" fill="#965D7B"/>
<g opacity="0.1">
<path opacity="0.1" d="M58.541 24.4505C58.5592 24.3512 58.5714 24.2479 58.5936 24.1487C58.4012 24.3168 58.3911 24.6024 58.3405 24.8556C58.3149 25.0017 58.2749 25.1448 58.2209 25.283C58.3804 25.0288 58.4891 24.746 58.541 24.4505Z" fill="black"/>
<path opacity="0.1" d="M58.6053 26.1244C58.7062 25.8638 58.7742 25.5916 58.8079 25.3142C58.6051 25.3996 58.3855 25.4377 58.1658 25.4256C58.1018 25.5681 58.0238 25.7038 57.9329 25.8307C58.1625 25.8485 58.3931 25.811 58.6053 25.7213C58.5717 25.9988 58.5036 26.2709 58.4028 26.5315C58.5289 26.5345 58.6533 26.5011 58.761 26.4354C58.8687 26.3697 58.9553 26.2744 59.0104 26.1609C59.0609 26.0688 59.1016 25.9717 59.132 25.8712C59.0725 25.9543 58.9931 26.021 58.9011 26.0653C58.809 26.1095 58.7073 26.1299 58.6053 26.1244Z" fill="black"/>
<path opacity="0.1" d="M60.3835 24.7462C60.0958 24.7179 59.7475 24.6186 59.5611 24.8394C59.5168 24.9005 59.4838 24.9691 59.4639 25.042C59.4457 25.0946 59.4295 25.1493 59.4153 25.204C59.6077 25.0521 59.9196 25.1331 60.1809 25.1595C60.4202 25.179 60.6604 25.1345 60.8768 25.0306C61.0932 24.9266 61.2781 24.767 61.4124 24.568C61.4738 24.4697 61.5196 24.3624 61.5481 24.25C61.4094 24.4217 61.2307 24.5567 61.0276 24.6432C60.8246 24.7298 60.6034 24.7651 60.3835 24.7462Z" fill="black"/>
</g>
<path d="M65.2181 40.7124L68.307 44.4272L67.9039 48.1763L64.1709 42.3328L65.2181 40.7124Z" fill="#F1F0FA"/>
<path opacity="0.1" d="M68.3049 44.4272L67.9262 47.9535L67.9019 48.1763L64.5335 42.902L64.1709 42.3328L64.2762 42.1687L65.2161 40.7124L65.4247 40.9636L68.3049 44.4272Z" fill="black"/>
<path d="M69.9094 35.6836C68.8643 35.9833 67.8657 37.0123 66.9968 38.262C66.4094 39.1243 65.8842 40.0272 65.425 40.964C65.1394 41.5352 64.8882 42.0841 64.6796 42.5622L64.5337 42.9024C64.1813 43.7349 63.9848 44.2919 63.9848 44.2919C63.9848 44.2919 55.9841 38.2762 57.2501 37.8711C57.6754 37.7354 58.2345 36.8239 58.7874 35.6755L58.8563 35.5296C59.2067 34.7924 59.551 33.97 59.8569 33.1963C60.4828 31.6062 60.9466 30.2249 60.9466 30.2249C60.9466 30.2249 73.0996 34.7721 69.9094 35.6836Z" fill="#EFB7B9"/>
<path d="M74.696 29.8855C74.696 29.8855 76.5433 33.2276 79.0245 32.7718C81.5058 32.3161 80.4849 30.9772 80.4849 30.9772L74.696 29.8855Z" fill="#211C4E"/>
<path d="M71.1161 145.571C69.4795 146.319 65.7789 145.571 65.7789 145.571L64.2192 145.474C62.1938 145.345 58.8031 145.126 57.604 145.029C55.8539 144.885 56.2833 144.168 56.2833 144.168V139.835L64.7742 137.684C64.7742 137.684 68.1305 138.833 69.0501 139.835C69.923 140.791 70.4335 140.056 71.9911 140.331C72.068 140.346 72.1491 140.362 72.2341 140.382C73.7127 140.72 74.5148 140.854 74.9888 142.079C75.0841 142.337 75.1605 142.601 75.2177 142.869C75.6552 144.842 72.7506 144.828 71.1161 145.571Z" fill="#A36468"/>
<path opacity="0.1" d="M74.9888 142.079C74.6846 142.269 74.3647 142.433 74.0328 142.569C72.9188 143.078 71.8594 143.698 70.7332 144.178C69.6071 144.658 68.3938 145 67.1744 144.909C66.5364 144.862 65.8842 144.706 65.2745 144.889C64.8975 145.034 64.5424 145.231 64.2192 145.474C62.1938 145.344 58.8031 145.126 57.604 145.028C55.8539 144.885 56.2833 144.168 56.2833 144.168V143.661C56.3461 143.661 56.417 143.643 56.4981 143.637C56.9172 143.63 57.3346 143.692 57.7336 143.821C58.6127 144.06 59.4877 144.295 60.3668 144.53C60.4391 144.257 60.5661 144.002 60.7402 143.78C60.9143 143.558 61.1318 143.373 61.3795 143.238C61.8812 142.972 62.4444 142.842 63.012 142.863C64.3752 142.881 65.6655 143.528 67.0266 143.592C67.4071 143.627 67.7902 143.563 68.1386 143.406C68.3249 143.313 68.489 143.177 68.6713 143.074C68.963 142.933 69.2713 142.829 69.5888 142.764C70.4814 142.542 71.3578 142.259 72.2119 141.917C72.4549 141.822 72.7385 141.65 72.7061 141.391C72.6635 141.046 72.1227 141.006 71.9809 140.69C71.9559 140.633 71.9444 140.571 71.9472 140.509C71.95 140.446 71.9671 140.386 71.9972 140.331C72.0741 140.345 72.1551 140.362 72.2402 140.382C73.7128 140.72 74.5148 140.854 74.9888 142.079Z" fill="black"/>
<path d="M69.387 155.052C67.4628 155.931 63.1079 155.052 63.1079 155.052L61.2749 154.945C58.901 154.793 54.9027 154.539 53.4909 154.42C51.431 154.25 51.9373 153.407 51.9373 153.407V148.301L61.9291 145.769C61.9291 145.769 65.8788 147.12 66.9604 148.301C67.9874 149.425 68.5808 148.56 70.422 148.884C70.5132 148.9 70.6084 148.921 70.7076 148.943C72.4475 149.348 73.3914 149.5 73.9484 150.942C74.0612 151.245 74.1512 151.556 74.2178 151.872C74.7201 154.193 71.3112 154.175 69.387 155.052Z" fill="#A36468"/>
<path opacity="0.1" d="M73.9444 150.943C73.5864 151.166 73.2104 151.359 72.8202 151.52C71.5097 152.117 70.262 152.847 68.9373 153.412C67.6127 153.977 66.1847 154.378 64.7486 154.272C63.9992 154.218 63.2315 154.029 62.5206 154.248C62.0751 154.422 61.6559 154.656 61.2749 154.945C58.901 154.793 54.9027 154.54 53.4909 154.42C51.431 154.25 51.9373 153.408 51.9373 153.408V152.812C52.0212 152.798 52.1057 152.789 52.1905 152.784C52.684 152.775 53.1755 152.848 53.6448 153L56.7418 153.835C56.8281 153.513 56.9791 153.212 57.1856 152.951C57.3921 152.689 57.6498 152.472 57.9429 152.314C58.5333 151.999 59.1966 151.847 59.8651 151.872C61.4693 151.895 62.9864 152.654 64.5886 152.731C65.0348 152.772 65.4839 152.697 65.893 152.514C66.1138 152.403 66.2981 152.243 66.5209 152.123C66.8635 151.956 67.2264 151.833 67.6005 151.759C68.6451 151.495 69.6709 151.162 70.6712 150.762C70.9568 150.649 71.291 150.446 71.2525 150.142C71.2018 149.737 70.5658 149.689 70.3977 149.316C70.3694 149.249 70.3565 149.176 70.36 149.103C70.3635 149.03 70.3833 148.959 70.418 148.895C70.5091 148.911 70.6043 148.931 70.7036 148.954C72.4435 149.342 73.3873 149.5 73.9444 150.943Z" fill="black"/>
<path d="M65.0326 120.013L64.4918 132.739C64.4918 132.739 63.6816 135.338 64.1211 136.081C64.5606 136.824 65.302 137.566 65.0326 138.005C64.7632 138.445 61.5224 143.197 60.4752 141.374C59.428 139.551 58.395 131.651 58.395 131.651L59.3612 121.894L65.0326 120.013Z" fill="#211C4E"/>
<path d="M67.3774 88.3054L68.8803 90.3147V107.791C68.8803 107.791 69.3198 112.449 68.8803 113.411C68.4407 114.374 66.2127 116.298 66.2127 116.298L64.3391 106.677L64.7442 96.4986L67.3774 88.3054Z" fill="#211C4E"/>
<path opacity="0.1" d="M65.0326 120.013L64.4918 132.739C64.4918 132.739 63.6816 135.338 64.1211 136.081C64.5606 136.824 65.302 137.566 65.0326 138.005C64.7632 138.445 61.5224 143.197 60.4752 141.374C59.428 139.551 58.395 131.651 58.395 131.651L59.3612 121.894L65.0326 120.013Z" fill="black"/>
<path opacity="0.1" d="M67.3774 88.3054L68.8803 90.3147V107.791C68.8803 107.791 69.3198 112.449 68.8803 113.411C68.4407 114.374 66.2127 116.298 66.2127 116.298L64.3391 106.677L64.7442 96.4986L67.3774 88.3054Z" fill="#211C4E"/>
<path d="M68.8807 80.8522V90.3051L67.1934 97.6638C67.1934 97.6638 66.6526 115.421 67.1246 117.58C67.5965 119.74 65.5042 121.767 65.5042 121.767C65.5042 121.767 64.2889 121.903 64.2889 122.847C64.2889 123.791 62.2634 126.493 62.2634 126.493L62.3302 131.759C62.3302 131.759 63.2093 141.617 61.8583 143.507C60.5073 145.397 62.3302 145.668 62.3302 145.668C60.643 151.204 52.541 149.922 51.8098 149.314C51.0786 148.706 51.8098 136.756 51.8098 136.756C51.8098 136.756 53.6206 118.526 55.0384 117.716C56.4563 116.906 55.1073 115.893 55.5793 114.678C56.0512 113.463 55.1073 110.155 55.1073 110.155C55.1073 110.155 54.7022 106.238 53.6895 104.348C52.6767 102.458 52.8104 97.2587 52.8104 97.2587C52.8104 97.2587 49.9747 93.4771 49.1321 91.9924C48.2895 90.5077 47.7467 86.6593 47.9492 83.7547C48.0869 81.792 49.1179 78.934 49.7722 77.2893C50.0861 76.5014 50.313 75.991 50.313 75.991L50.5054 76.0416L61.5686 78.9381L68.8807 80.8522Z" fill="#211C4E"/>
<path opacity="0.1" d="M69.909 35.6833C68.8639 35.9831 67.8653 37.0121 66.9964 38.2618H66.7695C65.4959 38.2627 64.2445 37.9274 63.142 37.2897C62.0395 36.652 61.1248 35.7345 60.4905 34.6301C60.2254 34.1724 60.0121 33.6867 59.8545 33.1819C60.4804 31.5918 60.9442 30.2104 60.9442 30.2104C60.9442 30.2104 73.0992 34.7719 69.909 35.6833Z" fill="black"/>
<path d="M74.0106 30.6189C74.0124 31.7272 73.7598 32.8211 73.2722 33.8163C72.7846 34.8116 72.0751 35.6817 71.1983 36.3595C70.3215 37.0373 69.3008 37.5049 68.2148 37.7261C67.1288 37.9473 66.0066 37.9163 64.9345 37.6354C63.8624 37.3546 62.8691 36.8314 62.031 36.1062C61.193 35.3809 60.5326 34.473 60.1007 33.4524C59.6689 32.4317 59.477 31.3255 59.54 30.219C59.603 29.1126 59.9192 28.0353 60.4641 27.0702C60.6836 26.6781 60.94 26.3078 61.2297 25.9643C61.7074 25.3953 62.2688 24.9022 62.8947 24.5019C63.9519 23.8301 65.1653 23.444 66.4164 23.3814C67.6674 23.3187 68.9133 23.5817 70.0323 24.1446C71.1513 24.7075 72.1052 25.551 72.8007 26.5928C73.4963 27.6345 73.9096 28.8389 74.0005 30.0882C74.0045 30.2665 74.0106 30.4427 74.0106 30.6189Z" fill="#EFB7B9"/>
<path opacity="0.1" d="M67.9265 47.9529L67.9022 48.1758L64.5338 42.9095C64.1813 43.7419 63.9848 44.299 63.9848 44.299C63.9848 44.299 55.9841 38.2751 57.2501 37.87C57.6754 37.7343 58.2345 36.8229 58.7874 35.6744L58.8563 35.5286C59.4437 37.2786 62.8566 40.7766 64.2765 42.1783C64.4406 42.3403 64.5763 42.474 64.6816 42.5712L64.8983 42.7738L65.0118 42.8872C65.5283 43.4199 67.7077 45.7695 67.9265 47.9529Z" fill="black"/>
<path d="M70.4436 65.8234L70.075 77.6867L70.0102 79.7993C70.0102 79.7993 65.6432 79.3942 61.5679 78.9486C58.2866 78.5901 55.1937 78.2032 54.7177 77.9763C54.11 77.6907 52.8076 77.47 51.7807 77.3302C50.9867 77.2229 50.3629 77.1661 50.3629 77.1661C50.3629 77.1661 50.1299 77.235 49.7714 77.2998C48.9896 77.4416 47.6163 77.5571 46.8162 76.8623C45.7933 75.9731 48.4812 72.7425 49.1516 71.9667L49.2995 71.7986L49.0463 69.4591L48.388 63.3928C48.388 63.3928 47.9829 59.8988 47.3753 58.0252C47.2128 57.4925 47.0956 56.9471 47.0248 56.3947C46.7991 54.6835 46.9147 52.9445 47.3651 51.2783C47.5576 50.5703 47.6797 49.845 47.7297 49.113C47.831 47.2394 53.553 39.9983 54.9709 39.34C55.6087 39.0426 56.1219 38.5308 56.4211 37.8938C56.5199 37.6935 56.594 37.482 56.6419 37.2639C57.2495 34.6307 58.7869 35.6759 58.7869 35.6759C59.1576 37.7358 64.8958 43.1884 64.8958 43.1884L65.0092 43.3019C65.5784 43.8852 68.1143 46.6237 67.934 48.9611C67.898 49.8311 68.0279 50.7 68.3169 51.5213C69.484 55.1965 70.155 59.0112 70.312 62.8641L70.4436 65.8234Z" fill="#F1F0FA"/>
<path opacity="0.1" d="M62.314 51.7344C62.314 51.7344 60.8962 55.1777 59.8328 55.7347C58.7694 56.2917 62.8204 56.9095 62.314 51.7344Z" fill="black"/>
<path opacity="0.1" d="M63.3763 58.167C63.3763 58.167 60.1355 58.5721 60.1355 59.1797C60.1355 59.7874 63.3763 58.167 63.3763 58.167Z" fill="black"/>
<path opacity="0.1" d="M66.7696 62.116C66.7696 62.116 62.0603 72.1422 60.7437 72.446C59.4272 72.7498 66.7696 62.116 66.7696 62.116Z" fill="black"/>
<path opacity="0.1" d="M64.8071 43.6962L60.9121 45.3895L56.2109 38.2881C56.3097 38.0878 56.3839 37.8763 56.4317 37.6582C57.0394 35.025 58.5767 36.0702 58.5767 36.0702C58.9474 38.1301 64.6856 43.5827 64.6856 43.5827L64.8071 43.6962Z" fill="black"/>
<path d="M65.0098 43.2906L61.1147 44.9839L56.4136 37.8826C56.5124 37.6823 56.5865 37.4708 56.6344 37.2526C57.242 34.6195 58.7794 35.6646 58.7794 35.6646C59.15 37.7246 64.8882 43.1772 64.8882 43.1772L65.0098 43.2906Z" fill="#F1F0FA"/>
<path opacity="0.1" d="M70.0103 79.7978C70.0103 79.7978 65.6433 79.3927 61.568 78.9471L68.88 80.8612V83.0893C68.56 83.3789 68.2825 83.5288 68.1022 83.4518C67.2596 83.0974 60.3831 81.9834 60.3831 81.9834C60.3831 81.9834 56.3888 79.9579 52.0785 77.5273C51.9739 77.4693 51.8725 77.4057 51.7747 77.3369C51.2721 76.9956 50.8391 76.5619 50.4987 76.0588C49.7026 74.9063 49.3137 73.4256 49.1456 71.9734C49.0511 71.1411 49.0159 70.3031 49.0403 69.4658C49.0612 68.5164 49.1478 67.5696 49.2996 66.6321C48.8827 63.0013 48.6798 59.3491 48.6919 55.6944C48.7426 50.0231 54.0595 47.9976 54.0595 47.9976C63.8325 47.1367 60.8024 62.9356 60.8024 62.9356C60.8024 62.9356 60.2372 67.3917 60.0833 67.8474C59.9294 68.3032 59.3764 69.0627 59.4513 70.1261C59.5263 71.1895 61.3938 72.4615 61.3938 72.4615C61.3938 72.4615 63.2167 73.3163 63.9682 74.5822C64.5151 75.5159 68.0678 76.7819 70.0751 77.6853L70.0103 79.7978Z" fill="black"/>
<path opacity="0.1" d="M73.2839 26.1234C73.2876 26.457 73.2185 26.7874 73.0813 27.0916C72.9775 27.3398 72.857 27.5807 72.7208 27.8126C72.5076 28.2394 72.205 28.6152 71.8336 28.9145C71.3657 29.2487 70.7743 29.3419 70.2132 29.4776C69.6522 29.6133 69.0688 29.83 68.7488 30.3081C68.5753 30.6153 68.4593 30.9517 68.4065 31.3005C68.3528 31.6491 68.2136 31.979 68.0014 32.2606C67.8909 32.3981 67.7378 32.495 67.5662 32.5361C67.3946 32.5772 67.2143 32.5601 67.0534 32.4875C66.8841 32.3733 66.7556 32.2079 66.6868 32.0155C66.4559 31.495 66.3972 30.9177 66.304 30.3567C66.2108 29.7956 66.0792 29.2183 65.7348 28.7667C65.3905 28.315 64.7808 28.0172 64.24 28.1934C64.059 28.2631 63.894 28.3687 63.7547 28.5037C63.6155 28.6387 63.505 28.8005 63.4298 28.9793C63.2802 29.3373 63.1774 29.7131 63.124 30.0974C62.8728 31.472 62.5764 32.8386 62.2348 34.197C62.2244 34.2527 62.2015 34.3053 62.168 34.3509C62.1141 34.4046 62.0414 34.4351 61.9654 34.436C61.5117 34.4968 61.0762 34.1788 60.6185 34.2132C60.5713 34.2164 60.5245 34.2238 60.4787 34.2355C59.7386 32.9492 59.4118 31.4665 59.5426 29.9883C59.6734 28.5101 60.2554 27.1078 61.2099 25.9715L61.2463 25.9613C61.5509 25.8532 61.8276 25.6789 62.0565 25.4509C62.3489 25.1583 62.6197 24.8449 62.8667 24.5131L63.0288 24.3106C63.4944 23.7497 64.0247 23.2459 64.6087 22.8097C64.7681 22.6791 64.9509 22.5801 65.1475 22.518C65.3156 22.4852 65.488 22.4798 65.6579 22.5018C66.3574 22.5858 67.0626 22.6122 67.7664 22.5808C68.2568 22.5037 68.7511 22.4537 69.2471 22.4309C70.5292 22.4674 71.623 23.3728 72.4332 24.3653C72.8686 24.8737 73.2575 25.459 73.2839 26.1234Z" fill="black"/>
<path d="M59.5188 27.2627C59.2373 27.7245 58.7289 28.0385 58.5385 28.5448C58.2589 29.2801 58.7309 30.1956 58.2974 30.8519C58.1536 31.0727 57.9166 31.2367 57.8356 31.4899C57.6979 31.9173 58.0746 32.373 57.9774 32.8126C57.8802 33.2521 57.3009 33.6228 57.4548 34.0522C57.5458 34.2394 57.7054 34.3845 57.9004 34.4573C58.2073 34.6333 58.5606 34.7117 58.9132 34.6821C59.4661 34.5909 59.8773 34.0481 60.4384 34.0076C60.8941 33.9752 61.3296 34.2912 61.7833 34.2324C61.8594 34.2298 61.9316 34.1987 61.9859 34.1453C62.0203 34.1002 62.0432 34.0474 62.0527 33.9914C62.393 32.6343 62.6901 31.2678 62.9439 29.8918C62.9956 29.5074 63.0978 29.1315 63.2477 28.7737C63.3235 28.5953 63.4342 28.4338 63.5734 28.2988C63.7125 28.1639 63.8773 28.0581 64.0579 27.9878C64.5987 27.8136 65.2064 28.1094 65.5528 28.561C65.8991 29.0127 66.0308 29.59 66.1239 30.1511C66.2171 30.7121 66.2759 31.2894 66.5047 31.8099C66.5743 32.003 66.7034 32.169 66.8734 32.2839C67.1772 32.4601 67.5864 32.3204 67.8193 32.0571C68.0327 31.7753 68.172 31.4445 68.2244 31.0949C68.2772 30.7467 68.3932 30.411 68.5667 30.1045C68.8867 29.6265 69.4721 29.4097 70.0311 29.274C70.5902 29.1383 71.1796 29.0431 71.6515 28.7089C72.0224 28.4099 72.325 28.0349 72.5387 27.6091C72.8385 27.0865 73.118 26.5193 73.0937 25.9178C73.0674 25.2615 72.6785 24.6761 72.2632 24.1657C71.453 23.1732 70.3572 22.2678 69.0751 22.2334C68.579 22.2541 68.0846 22.3042 67.5945 22.3833C66.8906 22.4149 66.1853 22.3878 65.4859 22.3023C65.3159 22.2819 65.1437 22.2881 64.9755 22.3205C64.7788 22.3806 64.5962 22.4798 64.4387 22.6122C63.8542 23.0477 63.3232 23.5508 62.8568 24.111C62.5561 24.5097 62.23 24.8886 61.8805 25.2453C61.6515 25.4737 61.3748 25.6486 61.0703 25.7578C60.8678 25.8145 60.6652 25.774 60.4728 25.8368C59.8753 26.0251 59.7963 26.8049 59.5188 27.2627Z" fill="#965D7B"/>
<path opacity="0.1" d="M79.0245 32.7698C77.4041 33.0676 76.0612 31.7571 75.3179 30.801C75.0896 30.5107 74.8818 30.2048 74.696 29.8855L80.258 30.9347L80.4829 30.9772C80.4829 30.9772 81.5058 32.3161 79.0245 32.7698Z" fill="black"/>
<g opacity="0.1">
<path opacity="0.1" d="M57.9763 32.2346C57.999 31.9697 57.9587 31.7032 57.8588 31.4568C57.8588 31.477 57.8406 31.4973 57.8345 31.5176C57.7474 31.789 57.8649 32.0705 57.9399 32.3521C57.956 32.3142 57.9682 32.2749 57.9763 32.2346Z" fill="black"/>
<path opacity="0.1" d="M58.4589 28.9175C58.4381 29.1976 58.4435 29.479 58.4751 29.7581C58.4959 29.478 58.4905 29.1966 58.4589 28.9175Z" fill="black"/>
<path opacity="0.1" d="M72.5262 27.0242C72.313 27.4509 72.0104 27.8268 71.639 28.1261C71.1711 28.4603 70.5817 28.5535 70.0186 28.6892C69.4555 28.8249 68.8742 29.0416 68.5542 29.5196C68.381 29.827 68.265 30.1633 68.2118 30.5121C68.1591 30.8616 68.0198 31.1923 67.8067 31.4742C67.5738 31.7375 67.1647 31.8793 66.8608 31.7011C66.6908 31.5862 66.5617 31.4202 66.4922 31.2271C66.2633 30.7066 66.2026 30.1313 66.1114 29.5682C66.0203 29.0052 65.8846 28.4299 65.5402 27.9782C65.1959 27.5265 64.5862 27.2288 64.0454 27.405C63.8646 27.475 63.6996 27.5806 63.5605 27.7157C63.4213 27.8507 63.3107 28.0123 63.2352 28.1909C63.0853 28.5486 62.9831 28.9246 62.9314 29.309C62.6789 30.685 62.3818 32.0515 62.0402 33.4086C62.0307 33.4645 62.0077 33.5174 61.9733 33.5625C61.9191 33.6159 61.8468 33.647 61.7708 33.6496C61.3171 33.7084 60.8816 33.3924 60.4258 33.4248C59.8648 33.4653 59.4536 34.0081 58.9006 34.0972C58.5479 34.1289 58.1941 34.0503 57.8879 33.8724C57.7471 33.8118 57.6208 33.7221 57.5172 33.6091C57.4698 33.677 57.4385 33.7547 57.4255 33.8365C57.4125 33.9182 57.4182 34.0018 57.4423 34.081C57.5315 34.2696 57.6917 34.4152 57.8879 34.4861C58.1941 34.6641 58.5479 34.7426 58.9006 34.711C59.4536 34.6218 59.8648 34.079 60.4258 34.0385C60.8816 34.0061 61.3171 34.3221 61.7708 34.2633C61.8468 34.2607 61.9191 34.2296 61.9733 34.1762C62.0077 34.1311 62.0307 34.0783 62.0402 34.0223C62.3804 32.672 62.6775 31.3054 62.9314 29.9227C62.9831 29.5383 63.0853 29.1624 63.2352 28.8046C63.3107 28.626 63.4213 28.4644 63.5605 28.3294C63.6996 28.1944 63.8646 28.0887 64.0454 28.0187C64.5862 27.8425 65.1939 28.1403 65.5402 28.592C65.8866 29.0436 66.0182 29.6209 66.1114 30.182C66.2046 30.743 66.2633 31.3203 66.4922 31.8408C66.5617 32.0339 66.6908 32.1999 66.8608 32.3148C67.1647 32.491 67.5738 32.3513 67.8067 32.088C68.0198 31.806 68.1591 31.4753 68.2118 31.1258C68.265 30.777 68.381 30.4408 68.5542 30.1334C68.8742 29.6553 69.4596 29.4406 70.0186 29.3029C70.5776 29.1652 71.1671 29.074 71.639 28.7398C72.0104 28.4405 72.313 28.0647 72.5262 27.6379C72.8259 27.1174 73.1055 26.5503 73.0812 25.9487C73.0772 25.8713 73.0691 25.7943 73.0568 25.7178C72.9591 26.1814 72.7794 26.6238 72.5262 27.0242Z" fill="black"/>
</g>
<path opacity="0.1" d="M73.089 27.0852C73.6084 28.0087 73.9163 29.0361 73.9903 30.0931C72.1856 29.0803 70.4883 27.9683 69.6315 27.5815C68.1387 26.907 62.5564 27.0082 60.458 27.071C60.6775 26.6789 60.9339 26.3086 61.2236 25.9651C61.7031 25.3956 62.2666 24.9025 62.8947 24.5027C63.7264 23.9748 64.6571 23.6221 65.6298 23.4661C66.6025 23.3102 67.5968 23.3542 68.5519 23.5955C69.507 23.8369 70.4029 24.2704 71.1847 24.8698C71.9665 25.4691 72.618 26.2215 73.0991 27.0812L73.089 27.0852Z" fill="black"/>
<path opacity="0.1" d="M79.5309 31.911C78.5566 32.2108 76.9666 31.6315 75.3179 30.801C75.0896 30.5107 74.8818 30.2048 74.696 29.8855L80.2581 30.9347C80.6267 31.1859 80.7199 31.5444 79.5309 31.911Z" fill="black"/>
<path d="M67.202 20.0634C67.202 20.0634 61.8851 19.7596 60.3902 22.6459L60.1492 25.2041L59.7441 25.1595L59.6631 26.8994C59.6631 26.8994 67.7894 26.545 69.6387 27.3795C71.4879 28.214 77.2343 32.4189 79.5372 31.71C81.8402 31.0011 79.3347 30.3428 79.3347 30.3428C79.3347 30.3428 76.1648 28.9999 76.1648 27.9466C76.1648 26.8934 75.3789 21.3293 67.202 20.0634Z" fill="#211C4E"/>
<path opacity="0.1" d="M56.9458 114.896C56.9458 114.896 60.3385 118.187 61.807 117.934C61.807 117.934 57.6547 117.579 56.9458 114.896Z" fill="black"/>
<path opacity="0.1" d="M56.2366 116.422C56.2366 116.422 56.5404 118.115 57.3506 117.949C58.1608 117.783 56.2366 116.422 56.2366 116.422Z" fill="black"/>
<path opacity="0.1" d="M61.5535 144.721C61.5535 144.721 56.7368 148.468 57.5491 148.57C58.3613 148.671 61.5535 144.721 61.5535 144.721Z" fill="black"/>
<path d="M67.9971 70.3512L83.5934 67.8132V82.5791L68.7749 81.8033L67.9971 70.3512Z" fill="#625AC4"/>
<path opacity="0.05" d="M67.9971 70.3512L83.5934 67.8132V82.5791L68.7749 81.8033L67.9971 70.3512Z" fill="black"/>
<path d="M83.5938 67.8132L102.297 69.2128L101.262 82.0626L83.5938 82.5791V67.8132Z" fill="#625AC4"/>
<path opacity="0.1" d="M83.5938 67.8132L102.297 69.2128L101.262 82.0626L83.5938 82.5791V67.8132Z" fill="black"/>
<path d="M89.4943 63.0769L83.7439 67.5836L102.447 68.9833L105.504 64.3712L89.4943 63.0769Z" fill="#625AC4"/>
<path d="M62.5 65.2012L76.5407 63.4917L83.7434 67.5852L68.1471 70.1232L62.5 65.2012Z" fill="#625AC4"/>
<path d="M87.1628 71.4196V91.6077L79.8569 90.8583L76.6788 90.5342L75.7107 90.4329L72.5347 90.1068L68.1475 89.6572V70.1233L83.7418 71.1847L87.1628 71.4196Z" fill="#625AC4"/>
<path d="M102.448 68.9844V88.6722L96.592 89.7963L93.7442 90.3432L87.1633 91.6071V71.419L102.448 68.9844Z" fill="#625AC4"/>
<path opacity="0.05" d="M102.297 69.2129V88.9007L96.4414 90.0249L93.5935 90.5717L87.0127 91.8356V71.6475L102.297 69.2129Z" fill="black"/>
<path d="M62.3496 74.6011L67.9967 70.3516L87.012 71.6479L84.2128 76.3632L62.3496 74.6011Z" fill="#625AC4"/>
<path opacity="0.1" d="M62.3496 74.6011L67.9967 70.3516L87.012 71.6479L84.2128 76.3632L62.3496 74.6011Z" fill="white"/>
<path d="M102.297 69.2129L87.0127 71.6475L91.9873 76.1036L108.359 73.3571L102.297 69.2129Z" fill="#625AC4"/>
<path opacity="0.1" d="M102.297 69.2129L87.0127 71.6475L91.9873 76.1036L108.359 73.3571L102.297 69.2129Z" fill="white"/>
<path opacity="0.1" d="M96.4414 90.0259L93.5935 90.5728V86.3658L96.2611 85.6934L96.4414 90.0259Z" fill="white"/>
<path opacity="0.1" d="M79.7063 88.3027V91.0857L76.5283 90.7617V88.3027H79.7063Z" fill="white"/>
<path opacity="0.1" d="M75.5605 89.1807V90.6613L72.3845 90.3352V89.1807H75.5605Z" fill="white"/>
<path opacity="0.1" d="M85.1006 86.8273C82.9232 89.6124 75.7327 87.6882 75.7327 87.6882L70.3894 82.114L69.6643 81.3585L71.0822 78.7253C71.0822 78.7253 71.4873 78.859 72.1638 79.094C75.7448 80.3457 86.9337 84.4838 85.1006 86.8273Z" fill="black"/>
<path d="M84.898 86.4218C82.7206 89.2068 75.5301 87.2826 75.5301 87.2826L70.1868 81.7085L69.4617 80.953L70.8795 78.3198C70.8795 78.3198 71.2846 78.4535 71.9611 78.6885C75.5422 79.9402 86.7311 84.0783 84.898 86.4218Z" fill="#EFB7B9"/>
<path opacity="0.1" d="M71.9526 78.6885C71.6569 79.5392 70.9054 80.799 70.1783 81.7085L69.4531 80.953L70.871 78.3198C70.871 78.3198 71.2781 78.4535 71.9526 78.6885Z" fill="black"/>
<path d="M54.2624 47.1883C54.2624 47.1883 48.9454 49.2138 48.8948 54.8852C48.8827 58.5398 49.0856 62.192 49.5024 65.8228C49.5024 65.8228 47.9833 74.2793 52.2875 76.7099C56.5917 79.1405 60.592 81.166 60.592 81.166C60.592 81.166 67.4686 82.28 68.3132 82.6345C69.1578 82.9889 72.0928 78.4316 71.6371 77.672C71.1813 76.9124 64.9205 75.0389 64.1772 73.7729C63.4338 72.507 61.6027 71.6542 61.6027 71.6542C61.6027 71.6542 59.7352 70.3802 59.6603 69.3168C59.5854 68.2534 60.1363 67.4939 60.2923 67.0381C60.4482 66.5824 61.0133 62.1263 61.0133 62.1263C61.0133 62.1263 64.0354 46.3173 54.2624 47.1883Z" fill="#F1F0FA"/>
<path opacity="0.1" d="M56.6928 65.9646C56.6928 65.9646 49.5023 66.7748 50.0593 69.3067C50.0593 69.3067 52.7917 66.7525 56.6928 65.9646Z" fill="black"/>
<path opacity="0.1" d="M56.6931 66.9775C56.6931 66.9775 52.6117 69.9651 53.3612 70.1677C54.1106 70.3702 56.6931 66.9775 56.6931 66.9775Z" fill="black"/>
<path opacity="0.1" d="M58.5161 68.1931C58.5161 68.1931 57.3514 70.2875 58.0097 70.1781C58.668 70.0687 58.5161 68.1931 58.5161 68.1931Z" fill="black"/>
<path d="M133.382 22.7656C133.382 22.7656 125.685 22.3017 126.584 27.7017C126.584 27.7017 126.404 28.6557 127.269 29.0892C127.269 29.0892 127.283 28.6841 128.059 28.8238C128.335 28.8703 128.616 28.8839 128.895 28.8644C129.274 28.8391 129.634 28.6904 129.92 28.441C129.92 28.441 132.086 27.5478 132.928 24.0072C132.928 24.0072 133.552 23.2335 133.536 23.035L132.235 23.592C132.235 23.592 132.679 24.5298 132.329 25.3096C132.329 25.3096 132.288 23.6264 132.037 23.6649C131.986 23.6649 131.362 23.991 131.362 23.991C131.362 23.991 132.126 25.6236 131.549 26.8125C131.549 26.8125 131.768 24.7992 131.123 24.1085L130.208 24.6432C130.208 24.6432 131.101 26.3305 130.496 27.7078C130.496 27.7078 130.652 25.5952 130.016 24.7729L129.185 25.419C129.185 25.419 130.026 27.0839 129.513 28.2263C129.513 28.2263 129.446 25.7674 129.005 25.581C129.005 25.581 128.28 26.2211 128.17 26.4844C128.17 26.4844 128.744 27.6997 128.387 28.3296C128.387 28.3296 128.168 26.691 127.982 26.6829C127.982 26.6829 127.259 27.7686 127.184 28.5058C127.219 27.8185 127.433 27.1523 127.806 26.5735C127.389 26.6524 127.004 26.8517 126.7 27.1467C126.7 27.1467 126.811 26.3791 127.984 26.3122C127.984 26.3122 128.592 25.4879 128.741 25.4372C128.741 25.4372 127.575 25.34 126.868 25.6539C126.868 25.6539 127.49 24.9308 128.956 25.2488L129.766 24.5804C129.766 24.5804 128.231 24.3779 127.579 24.6027C127.579 24.6027 128.328 23.9627 129.987 24.4285L130.878 23.8958C130.878 23.8958 129.57 23.6122 128.79 23.7155C128.79 23.7155 129.612 23.272 131.14 23.752L131.778 23.4664C131.778 23.4664 130.818 23.278 130.538 23.2477C130.259 23.2173 130.242 23.1403 130.242 23.1403C130.85 23.0392 131.473 23.1094 132.043 23.3429C132.043 23.3429 133.41 22.8507 133.382 22.7656Z" fill="#20C0AE"/>
<path d="M156.768 49.7719C156.768 49.7719 149.071 49.3081 149.971 54.7081C149.971 54.7081 149.79 55.6621 150.655 56.0955C150.655 56.0955 150.669 55.6904 151.447 55.8302C151.723 55.8767 152.004 55.8903 152.284 55.8707C152.658 55.8436 153.013 55.6957 153.296 55.4494C153.296 55.4494 155.464 54.5541 156.306 51.0136C156.306 51.0136 156.928 50.2418 156.904 50.0433L155.603 50.5983C155.603 50.5983 156.047 51.5361 155.699 52.316C155.699 52.316 155.656 50.6328 155.407 50.6713C155.356 50.6713 154.73 50.9974 154.73 50.9974C154.73 50.9974 155.496 52.6319 154.919 53.8189C154.919 53.8189 155.138 51.8055 154.491 51.1148L153.586 51.6435C153.586 51.6435 154.479 53.3307 153.874 54.7081C153.874 54.7081 154.03 52.5955 153.394 51.7731L152.565 52.4213C152.565 52.4213 153.404 54.0842 152.893 55.2266C152.893 55.2266 152.826 52.7676 152.385 52.5813C152.385 52.5813 151.66 53.2214 151.548 53.4847C151.548 53.4847 152.124 54.7 151.767 55.3299C151.767 55.3299 151.548 53.6913 151.362 53.6832C151.362 53.6832 150.639 54.7688 150.564 55.5061C150.6 54.8187 150.815 54.1526 151.188 53.5738C150.771 53.6528 150.385 53.8521 150.08 54.147C150.08 54.147 150.193 53.3793 151.366 53.3125C151.366 53.3125 151.964 52.4881 152.124 52.4375C152.124 52.4375 150.957 52.3403 150.25 52.6542C150.25 52.6542 150.872 51.9311 152.336 52.2592L153.147 51.5908C153.147 51.5908 151.609 51.3883 150.959 51.6131C150.959 51.6131 151.708 50.973 153.367 51.4389L154.259 50.9062C154.259 50.9062 152.948 50.6247 152.168 50.7259C152.168 50.7259 152.993 50.2824 154.52 50.7624L155.158 50.4768C155.158 50.4768 154.198 50.2884 153.916 50.2581C153.635 50.2277 153.62 50.1507 153.62 50.1507C154.229 50.0495 154.853 50.1197 155.423 50.3532C155.423 50.3532 156.792 49.857 156.768 49.7719Z" fill="#20C0AE"/>
<path d="M110.01 44.9775C110.01 44.9775 111.783 37.4649 106.306 37.4386C106.306 37.4386 105.396 37.0983 104.823 37.8761C104.823 37.8761 105.214 37.9592 104.949 38.7005C104.857 38.9626 104.796 39.2345 104.766 39.5107C104.727 39.8872 104.812 40.2662 105.007 40.5903C105.007 40.5903 105.52 42.8791 108.856 44.3131C108.856 44.3131 109.512 45.0585 109.71 45.0666L109.386 43.6913C109.386 43.6913 108.386 43.9688 107.677 43.4888C107.677 43.4888 109.344 43.7338 109.346 43.4888C109.346 43.4381 109.143 42.7677 109.143 42.7677C109.143 42.7677 107.403 43.2417 106.33 42.4699C106.33 42.4699 108.276 43.029 109.068 42.5125L108.704 41.5159C108.704 41.5159 106.881 42.1094 105.633 41.2769C105.633 41.2769 107.689 41.7914 108.609 41.3053L108.112 40.3776C108.112 40.3776 106.33 40.9204 105.291 40.2216C105.291 40.2216 107.721 40.5741 107.985 40.173C107.985 40.173 107.478 39.3486 107.237 39.1947C107.237 39.1947 105.949 39.5553 105.382 39.0955C105.382 39.0955 107.033 39.1583 107.071 38.9841C107.071 38.9841 106.125 38.0868 105.404 37.8842C106.076 38.0372 106.697 38.3625 107.205 38.8281C107.198 38.4036 107.067 37.9904 106.828 37.6391C106.828 37.6391 107.565 37.8822 107.436 39.057C107.436 39.057 108.145 39.7862 108.167 39.9522C108.167 39.9522 108.461 38.82 108.272 38.0685C108.272 38.0685 108.88 38.8058 108.307 40.1933L108.825 41.1149C108.825 41.1149 109.295 39.6363 109.176 38.9557C109.176 38.9557 109.68 39.8024 108.937 41.3579L109.311 42.3282C109.311 42.3282 109.812 41.0845 109.844 40.3027C109.844 40.3027 110.142 41.1898 109.407 42.6138L109.581 43.2903C109.581 43.2903 109.929 42.3768 110.006 42.1054C110.083 41.8339 110.162 41.8319 110.162 41.8319C110.159 42.4481 109.984 43.0513 109.658 43.5738C109.658 43.5738 109.923 44.9876 110.01 44.9775Z" fill="#20C0AE"/>
<path d="M93.1541 47.5385C93.1541 47.5385 86.9723 42.9143 84.7625 47.9234C84.7625 47.9234 84.088 48.6222 84.5721 49.4587C84.5721 49.4587 84.803 49.1326 85.3823 49.6734C85.5875 49.8643 85.8146 50.0302 86.0588 50.1676C86.3896 50.3518 86.7716 50.4229 87.1465 50.3702C87.1465 50.3702 89.4475 50.8137 92.0968 48.3204C92.0968 48.3204 93.0427 48.0165 93.1319 47.8383L91.7363 47.5932C91.7363 47.5932 91.5905 48.6201 90.8714 49.0799C90.8714 49.0799 91.7606 47.6499 91.5297 47.5466C91.4831 47.5243 90.7863 47.4453 90.7863 47.4453C90.7863 47.4453 90.5271 49.2318 89.3928 49.9063C89.3928 49.9063 90.683 48.3447 90.523 47.4129L89.4637 47.3562C89.4637 47.3562 89.2834 49.2582 88.0195 50.0765C88.0195 50.0765 89.3097 48.3973 89.2348 47.3603L88.1856 47.4453C88.1856 47.4453 87.9729 49.2946 86.9176 49.9671C86.9176 49.9671 88.2119 47.8768 87.9466 47.4798C87.9466 47.4798 86.9885 47.6155 86.7515 47.7735C86.7515 47.7735 86.5672 49.0981 85.9191 49.4344C85.9191 49.4344 86.6381 47.9456 86.4923 47.8423C86.4923 47.8423 85.2912 48.3507 84.8192 48.93C85.2275 48.3754 85.7734 47.9369 86.4032 47.658C86.0114 47.4952 85.5806 47.4501 85.1635 47.5284C85.1635 47.5284 85.678 46.9491 86.6948 47.5385C86.6948 47.5385 87.6468 47.18 87.8089 47.2246C87.8089 47.2246 86.8872 46.5015 86.1236 46.3759C86.1236 46.3759 87.0432 46.1126 88.0863 47.1861L89.1376 47.0787C89.1376 47.0787 87.9689 46.066 87.2984 45.8958C87.2984 45.8958 88.2767 45.7723 89.4049 47.0727L90.442 47.1192C90.442 47.1192 89.5042 46.1632 88.7973 45.8189C88.7973 45.8189 89.727 45.8999 90.7397 47.1415L91.4304 47.2529C91.4304 47.2529 90.7316 46.5683 90.5129 46.3901C90.2941 46.2118 90.3245 46.1369 90.3245 46.1369C90.888 46.3864 91.3711 46.7875 91.7201 47.2955C91.7201 47.2955 93.1278 47.6216 93.1541 47.5385Z" fill="#20C0AE"/>
<path d="M113.734 4.5758C113.734 4.5758 107.553 -0.0504339 105.343 4.96064C105.343 4.96064 104.668 5.65944 105.152 6.49597C105.152 6.49597 105.383 6.16987 105.963 6.71067C106.169 6.90058 106.397 7.06576 106.641 7.20287C106.972 7.38721 107.354 7.45834 107.729 7.40542C107.729 7.40542 110.03 7.849 112.679 5.35359C112.679 5.35359 113.625 5.05179 113.712 4.87152L112.317 4.63049C112.317 4.63049 112.173 5.65741 111.452 6.1172C111.452 6.1172 112.343 4.6872 112.112 4.5839C112.065 4.56162 111.369 4.48263 111.369 4.48263C111.369 4.48263 111.101 6.27316 109.967 6.9436C109.967 6.9436 111.255 5.38195 111.097 4.45022L110.038 4.39351C110.038 4.39351 109.856 6.29545 108.594 7.11172C108.594 7.11172 109.884 5.43259 109.809 4.39553L108.762 4.4806C108.762 4.4806 108.547 6.3319 107.492 7.00437C107.492 7.00437 108.788 4.91406 108.523 4.51706C108.523 4.51706 107.565 4.65277 107.328 4.81076C107.328 4.81076 107.143 6.13543 106.495 6.47166C106.495 6.47166 107.214 4.98292 107.069 4.8776C107.069 4.8776 105.867 5.38802 105.395 5.96731C105.803 5.41207 106.349 4.97347 106.979 4.6953C106.587 4.53125 106.155 4.48617 105.738 4.56567C105.738 4.56567 106.254 3.98638 107.271 4.5758C107.271 4.5758 108.223 4.21526 108.385 4.26185C108.385 4.26185 107.464 3.53875 106.7 3.41114C106.7 3.41114 107.617 3.14985 108.661 4.22134L109.712 4.11399C109.712 4.11399 108.545 3.10124 107.873 2.92907C107.873 2.92907 108.851 2.80754 109.981 4.10791L111.018 4.15247C111.018 4.15247 110.08 3.19644 109.372 2.85413C109.372 2.85413 110.303 2.93515 111.316 4.17678L112.005 4.28818C112.005 4.28818 111.304 3.61166 111.085 3.43747C110.866 3.26328 110.897 3.18631 110.897 3.18631C111.46 3.43556 111.944 3.83671 112.292 4.34489C112.292 4.34489 113.7 4.65277 113.734 4.5758Z" fill="#20C0AE"/>
<path d="M137.356 10.4358C137.356 10.4358 134.885 3.12171 130.224 5.99589C130.224 5.99589 129.272 6.19844 129.198 7.15245C129.198 7.15245 129.572 7.01471 129.738 7.7844C129.8 8.05819 129.893 8.32394 130.016 8.57637C130.183 8.91609 130.456 9.19251 130.794 9.36429C130.794 9.36429 132.438 11.0353 136.036 10.4824C136.036 10.4824 136.986 10.77 137.16 10.6707L136.147 9.67622C136.147 9.67622 135.446 10.4398 134.591 10.4094C134.591 10.4094 136.137 9.73698 136.009 9.52025C135.983 9.47772 135.454 9.01793 135.454 9.01793C135.454 9.01793 134.227 10.3406 132.91 10.2535C132.91 10.2535 134.857 9.6985 135.254 8.83564L134.415 8.1895C134.415 8.1895 133.188 9.65191 131.683 9.60735C131.683 9.60735 133.708 8.95717 134.221 8.05785L133.309 7.53324C133.309 7.53324 132.094 8.93691 130.834 8.89235C130.834 8.89235 133.086 7.90593 133.093 7.42792C133.093 7.42792 132.228 6.99649 131.942 6.99244C131.942 6.99244 131.039 7.97885 130.322 7.88973C130.322 7.88973 131.756 7.0694 131.695 6.90129C131.695 6.90129 130.419 6.64 129.7 6.85065C130.35 6.62421 131.048 6.57184 131.725 6.69874C131.494 6.34204 131.164 6.06049 130.775 5.88854C130.775 5.88854 131.529 5.70422 132.033 6.76558C132.033 6.76558 133.022 7.01066 133.127 7.13827C133.127 7.13827 132.779 6.02222 132.222 5.48344C132.222 5.48344 133.127 5.78929 133.374 7.26993L134.302 7.7763C134.302 7.7763 133.919 6.27541 133.457 5.7508C133.457 5.7508 134.334 6.20452 134.525 7.91606L135.355 8.54194C135.355 8.54194 135.124 7.22132 134.735 6.5367C134.735 6.5367 135.456 7.13219 135.586 8.73031L136.09 9.21238C136.09 9.21238 135.904 8.25229 135.827 7.98088C135.75 7.70946 135.813 7.69123 135.813 7.69123C136.135 8.21667 136.305 8.82095 136.305 9.43721C136.305 9.43721 137.285 10.4884 137.356 10.4358Z" fill="#20C0AE"/>
<path d="M121.229 10.7968C121.229 10.7968 113.552 9.94207 114.186 15.3886C114.186 15.3886 113.958 16.3325 114.794 16.8065C114.794 16.8065 114.828 16.4014 115.604 16.5837C115.878 16.6427 116.158 16.6705 116.439 16.6667C116.818 16.6599 117.184 16.5297 117.482 16.296C117.482 16.296 119.692 15.5122 120.723 12.0182C120.723 12.0182 121.383 11.2789 121.369 11.0784L120.042 11.5685C120.042 11.5685 120.447 12.5266 120.042 13.2882C120.042 13.2882 120.085 11.605 119.84 11.6313C119.789 11.6313 119.149 11.923 119.149 11.923C119.149 11.923 119.829 13.594 119.193 14.7587C119.193 14.7587 119.513 12.7575 118.904 12.0364L117.962 12.5225C117.962 12.5225 118.772 14.2543 118.094 15.5993C118.094 15.5993 118.357 13.4968 117.763 12.6441L116.903 13.2517C116.903 13.2517 117.656 14.9552 117.087 16.0712C117.087 16.0712 117.146 13.6123 116.714 13.4036C116.714 13.4036 115.957 14.0113 115.833 14.2625C115.833 14.2625 116.346 15.498 115.959 16.1158C115.959 16.1158 115.823 14.4691 115.645 14.4528C115.645 14.4528 114.867 15.5 114.754 16.2393C114.824 15.5539 115.072 14.8989 115.475 14.3394C115.054 14.3975 114.66 14.577 114.34 14.8559C114.34 14.8559 114.49 14.0964 115.665 14.0883C115.665 14.0883 116.303 13.2963 116.475 13.2538C116.475 13.2538 115.315 13.0978 114.591 13.3753C114.591 13.3753 115.25 12.6826 116.696 13.0856L117.549 12.4598C117.549 12.4598 116.007 12.1478 115.355 12.3504C115.355 12.3504 116.137 11.7427 117.769 12.2997L118.687 11.8116C118.687 11.8116 117.393 11.4632 116.609 11.526C116.609 11.526 117.454 11.1209 118.954 11.682L119.607 11.4288C119.607 11.4288 118.657 11.1918 118.377 11.1472C118.098 11.1027 118.087 11.0257 118.087 11.0257C118.7 10.9555 119.32 11.0564 119.878 11.3174C119.878 11.3174 121.243 10.8819 121.229 10.7968Z" fill="#20C0AE"/>
<path d="M188.395 70.3797C188.395 70.3797 180.722 69.5249 181.356 74.9654C181.356 74.9654 181.127 75.9093 181.964 76.3832C181.964 76.3832 181.998 75.9781 182.774 76.1584C183.048 76.2194 183.328 76.2473 183.608 76.2415C183.987 76.2357 184.354 76.1054 184.652 75.8708C184.652 75.8708 186.861 75.0869 187.882 71.595C187.882 71.595 188.543 70.8536 188.528 70.6551L187.202 71.1433C187.202 71.1433 187.607 72.1034 187.202 72.865C187.202 72.865 187.244 71.1797 186.999 71.2081C186.949 71.2081 186.308 71.4977 186.308 71.4977C186.308 71.4977 186.989 73.1688 186.353 74.3334C186.353 74.3334 186.673 72.3343 186.063 71.6112L185.121 72.0993C185.121 72.0993 185.932 73.8311 185.255 75.176C185.255 75.176 185.516 73.0736 184.923 72.2188L184.062 72.8265C184.062 72.8265 184.816 74.5299 184.246 75.6439C184.246 75.6439 184.305 73.185 183.874 72.9784C183.874 72.9784 183.118 73.586 182.993 73.8372C182.993 73.8372 183.507 75.0727 183.118 75.6905C183.118 75.6905 182.983 74.0438 182.804 74.0276C182.804 74.0276 182.027 75.0748 181.913 75.8141C181.983 75.1286 182.232 74.4736 182.634 73.9142C182.214 73.9712 181.819 74.1508 181.5 74.4307C181.5 74.4307 181.65 73.6691 182.825 73.661C182.825 73.661 183.465 72.869 183.635 72.8285C183.635 72.8285 182.474 72.6705 181.751 72.948C181.751 72.948 182.409 72.2573 183.858 72.6604L184.708 72.0345C184.708 72.0345 183.185 71.7469 182.523 71.9454C182.523 71.9454 183.305 71.3377 184.937 71.8927L185.855 71.4066C185.855 71.4066 184.56 71.0582 183.777 71.121C183.777 71.121 184.621 70.7159 186.122 71.277L186.774 71.0218C186.774 71.0218 185.824 70.7848 185.545 70.7422C185.265 70.6997 185.255 70.6207 185.255 70.6207C185.867 70.5492 186.487 70.6495 187.046 70.9104C187.046 70.9104 188.415 70.4668 188.395 70.3797Z" fill="#20C0AE"/>
<path d="M200.124 77.5459C200.124 77.5459 192.452 76.6932 193.086 82.1316C193.086 82.1316 192.859 83.0755 193.693 83.5495C193.693 83.5495 193.728 83.1444 194.504 83.3267C194.777 83.3862 195.056 83.4134 195.336 83.4077C195.713 83.4 196.078 83.2707 196.375 83.0391C196.375 83.0391 198.583 82.2552 199.604 78.7612C199.604 78.7612 200.266 78.0219 200.25 77.8214L198.923 78.3095C198.923 78.3095 199.328 79.2696 198.923 80.0312C198.923 80.0312 198.966 78.348 198.721 78.3743C198.67 78.3743 198.03 78.664 198.03 78.664C198.03 78.664 198.711 80.335 198.075 81.4997C198.075 81.4997 198.395 79.5005 197.785 78.7794L196.843 79.2656C196.843 79.2656 197.653 80.9974 196.977 82.3423C196.977 82.3423 197.238 80.2398 196.645 79.3871L195.784 79.9947C195.784 79.9947 196.537 81.6982 195.97 82.8142C195.97 82.8142 196.027 80.3532 195.595 80.1466C195.595 80.1466 194.84 80.7543 194.714 81.0055C194.714 81.0055 195.229 82.241 194.84 82.8588C194.84 82.8588 194.704 81.2121 194.526 81.1959C194.526 81.1959 193.748 82.243 193.637 82.9823C193.707 82.2972 193.955 81.6423 194.356 81.0824C193.935 81.1405 193.541 81.32 193.222 81.5989C193.222 81.5989 193.373 80.8373 194.548 80.8313C194.548 80.8313 195.186 80.0393 195.358 79.9968C195.358 79.9968 194.198 79.8408 193.475 80.1183C193.475 80.1183 194.133 79.4256 195.581 79.8286L196.432 79.2028C196.432 79.2028 194.909 78.9151 194.246 79.1136C194.246 79.1136 195.028 78.506 196.661 79.063L197.578 78.5749C197.578 78.5749 196.284 78.2265 195.5 78.2893C195.5 78.2893 196.345 77.8842 197.846 78.4452L198.498 78.192C198.498 78.192 197.548 77.9551 197.27 77.9105C196.993 77.8659 196.979 77.789 196.979 77.789C197.591 77.7187 198.211 77.8197 198.769 78.0806C198.769 78.0806 200.145 77.633 200.124 77.5459Z" fill="#20C0AE"/>
<path d="M174.083 17.184C174.083 17.184 167.901 12.5598 165.691 17.5689C165.691 17.5689 165.017 18.2677 165.501 19.1042C165.501 19.1042 165.732 18.7781 166.311 19.3189C166.516 19.5098 166.743 19.6757 166.988 19.8131C167.318 19.9972 167.7 20.0683 168.075 20.0157C168.075 20.0157 170.376 20.4593 173.028 17.9659C173.028 17.9659 173.971 17.662 174.061 17.4838L172.669 17.2326C172.669 17.2326 172.523 18.2596 171.804 18.7194C171.804 18.7194 172.693 17.2894 172.462 17.1861C172.416 17.1638 171.721 17.0848 171.721 17.0848C171.721 17.0848 171.46 18.8713 170.326 19.5458C170.326 19.5458 171.616 17.9841 171.456 17.0524L170.396 16.9957C170.396 16.9957 170.216 18.8976 168.952 19.7159C168.952 19.7159 170.245 18.0368 170.168 16.9997L169.118 17.0848C169.118 17.0848 168.916 18.9341 167.85 19.6065C167.85 19.6065 169.147 17.5162 168.879 17.1192C168.879 17.1192 167.921 17.2549 167.684 17.4129C167.684 17.4129 167.502 18.7376 166.854 19.0738C166.854 19.0738 167.571 17.5851 167.425 17.4818C167.425 17.4818 166.224 17.9902 165.752 18.5695C166.16 18.0148 166.706 17.5764 167.336 17.2975C166.944 17.1346 166.513 17.0896 166.096 17.1678C166.096 17.1678 166.613 16.5885 167.63 17.178C167.63 17.178 168.58 16.8194 168.742 16.864C168.742 16.864 167.82 16.1409 167.056 16.0153C167.056 16.0153 167.976 15.752 169.019 16.8255L170.07 16.7182C170.07 16.7182 168.904 15.7054 168.231 15.5353C168.231 15.5353 169.209 15.4117 170.338 16.7121L171.377 16.7587C171.377 16.7587 170.437 15.8026 169.73 15.4583C169.73 15.4583 170.662 15.5393 171.672 16.781L172.363 16.8924C172.363 16.8924 171.664 16.2077 171.446 16.0295C171.227 15.8513 171.259 15.7925 171.259 15.7925C171.822 16.0425 172.304 16.4435 172.653 16.9511C172.653 16.9511 174.056 17.2671 174.083 17.184Z" fill="#20C0AE"/>
<path d="M178.859 50.5681C178.859 50.5681 176.728 43.1487 171.936 45.8123C171.936 45.8123 170.975 45.9601 170.856 46.9202C170.856 46.9202 171.237 46.8007 171.368 47.5765C171.417 47.8552 171.499 48.1271 171.611 48.3867C171.762 48.7357 172.022 49.026 172.353 49.2131C172.353 49.2131 173.921 50.955 177.538 50.5661C177.538 50.5661 178.474 50.8942 178.652 50.8051L177.694 49.764C177.694 49.764 176.959 50.4972 176.108 50.4284C176.108 50.4284 177.68 49.8207 177.558 49.604C177.534 49.5594 177.028 49.0754 177.028 49.0754C177.028 49.0754 175.743 50.3433 174.431 50.1955C174.431 50.1955 176.402 49.7296 176.835 48.891L176.025 48.2064C176.025 48.2064 174.733 49.6121 173.232 49.5027C173.232 49.5027 175.274 48.9417 175.837 48.0687L174.949 47.5036C174.949 47.5036 173.663 48.8505 172.416 48.7492C172.416 48.7492 174.71 47.8641 174.739 47.3881C174.739 47.3881 173.892 46.9182 173.607 46.902C173.607 46.902 172.661 47.8459 171.942 47.7243C171.942 47.7243 173.412 46.9688 173.359 46.7987C173.359 46.7987 172.096 46.4807 171.368 46.6569C172.027 46.4616 172.725 46.4414 173.394 46.5982C173.18 46.2317 172.863 45.9359 172.482 45.7475C172.482 45.7475 173.244 45.5955 173.698 46.6792C173.698 46.6792 174.672 46.9668 174.773 47.1005C174.773 47.1005 174.476 45.9682 173.943 45.4072C173.943 45.4072 174.834 45.7515 175.014 47.2423L175.918 47.7912C175.918 47.7912 175.602 46.2721 175.164 45.7373C175.164 45.7373 176.019 46.2295 176.134 47.9471L176.945 48.6095C176.945 48.6095 176.772 47.2808 176.416 46.584C176.416 46.584 177.111 47.2119 177.167 48.812L177.649 49.3184C177.649 49.3184 177.508 48.3502 177.447 48.0748C177.386 47.7993 177.447 47.7608 177.447 47.7608C177.747 48.2996 177.89 48.9112 177.862 49.527C177.862 49.527 178.786 50.6168 178.859 50.5681Z" fill="#20C0AE"/>
<path d="M131.377 67.2873C131.377 67.2873 127.239 60.7692 123.396 64.6703C123.396 64.6703 122.517 65.0754 122.671 66.0375C122.671 66.0375 123.005 65.8147 123.35 66.5237C123.473 66.7749 123.627 67.0102 123.807 67.2245C124.049 67.5169 124.38 67.7219 124.749 67.8078C124.749 67.8078 126.744 69.0393 130.107 67.6458C130.107 67.6458 131.097 67.6985 131.243 67.5627L130.028 66.8336C130.028 66.8336 129.527 67.745 128.691 67.9172C128.691 67.9172 130.032 66.9045 129.852 66.7181C129.817 66.6817 129.193 66.3616 129.193 66.3616C129.193 66.3616 128.316 67.9375 127.016 68.1663C127.016 68.1663 128.776 67.1637 128.958 66.236L127.988 65.8087C127.988 65.8087 127.143 67.5202 125.673 67.8342C125.673 67.8342 127.476 66.7222 127.769 65.7256L126.757 65.4339C126.757 65.4339 125.902 67.0888 124.676 67.342C124.676 67.342 126.629 65.8472 126.522 65.3813C126.522 65.3813 125.578 65.1686 125.306 65.2334C125.306 65.2334 124.664 66.4062 123.939 66.4913C123.939 66.4913 125.138 65.3529 125.039 65.203C125.039 65.203 123.737 65.2537 123.088 65.6284C123.667 65.2538 124.333 65.0373 125.021 65.0005C124.713 64.709 124.326 64.514 123.909 64.4394C123.909 64.4394 124.595 64.0809 125.327 64.9924C125.327 64.9924 126.339 64.9924 126.479 65.0937C126.479 65.0937 125.871 64.0809 125.205 63.7022C125.205 63.7022 126.157 63.7832 126.749 65.1625L127.771 65.4339C127.771 65.4339 127.04 64.0667 126.471 63.6758C126.471 63.6758 127.429 63.9067 128.023 65.5251L128.979 65.9302C128.979 65.9302 128.44 64.7048 127.899 64.1316C127.899 64.1316 128.742 64.5367 129.246 66.0578L129.854 66.4082C129.854 66.4082 129.448 65.519 129.305 65.2739C129.161 65.0289 129.218 64.9721 129.218 64.9721C129.656 65.4051 129.965 65.9514 130.111 66.55C130.111 66.55 131.322 67.3561 131.377 67.2873Z" fill="#20C0AE"/>
<path d="M158.573 33.9836C158.573 33.9836 154.638 27.342 150.674 31.1216C150.674 31.1216 149.783 31.5064 149.908 32.4665C149.908 32.4665 150.247 32.2518 150.571 32.9709C150.687 33.2265 150.833 33.4672 151.006 33.6879C151.239 33.9866 151.563 34.2002 151.93 34.2955C151.93 34.2955 153.884 35.5878 157.289 34.2955C157.289 34.2955 158.278 34.3786 158.428 34.2469L157.239 33.4813C157.239 33.4813 156.712 34.3745 155.869 34.5224C155.869 34.5224 157.241 33.5441 157.068 33.3598C157.032 33.3213 156.42 32.981 156.42 32.981C156.42 32.981 155.495 34.5305 154.192 34.7189C154.192 34.7189 155.983 33.7709 156.191 32.8514L155.235 32.4017C155.235 32.4017 154.338 34.0889 152.857 34.3583C152.857 34.3583 154.695 33.3031 155.019 32.3166L154.018 31.9926C154.018 31.9926 153.111 33.613 151.879 33.8358C151.879 33.8358 153.876 32.4017 153.783 31.9338C153.783 31.9338 152.847 31.6908 152.568 31.7475C152.568 31.7475 151.889 32.9 151.162 32.9628C151.162 32.9628 152.396 31.8649 152.302 31.711C152.302 31.711 150.998 31.7211 150.34 32.0756C150.929 31.7199 151.602 31.5244 152.29 31.5085C151.991 31.2074 151.61 31.0004 151.195 30.913C151.195 30.913 151.893 30.5747 152.612 31.5085C152.612 31.5085 153.625 31.5429 153.761 31.6462C153.761 31.6462 153.188 30.6334 152.531 30.2162C152.531 30.2162 153.479 30.3256 154.028 31.7232L155.041 32.027C155.041 32.027 154.354 30.6375 153.795 30.2283C153.795 30.2283 154.747 30.4896 155.29 32.1242L156.232 32.5637C156.232 32.5637 155.732 31.3221 155.219 30.7408C155.219 30.7408 156.048 31.1722 156.507 32.7076L157.101 33.0762C157.101 33.0762 156.72 32.1748 156.586 31.9257C156.453 31.6766 156.509 31.6219 156.509 31.6219C156.934 32.0681 157.226 32.6235 157.354 33.2261C157.354 33.2261 158.515 34.0505 158.573 33.9836Z" fill="#20C0AE"/>
<path d="M133.674 47.9506C133.674 47.9506 133.877 40.2334 128.515 41.3211C128.515 41.3211 127.555 41.1733 127.15 42.0523C127.15 42.0523 127.555 42.0523 127.442 42.8321C127.404 43.1102 127.4 43.3917 127.429 43.6707C127.466 44.0491 127.626 44.405 127.885 44.6834C127.885 44.6834 128.851 46.8183 132.418 47.5434C132.418 47.5434 133.21 48.141 133.409 48.1085L132.801 46.8284C132.801 46.8284 131.879 47.3024 131.087 46.9803C131.087 46.9803 132.769 46.8811 132.722 46.634C132.722 46.5834 132.374 45.9676 132.374 45.9676C132.374 45.9676 130.765 46.7879 129.56 46.2491C129.56 46.2491 131.586 46.4011 132.248 45.7347L131.683 44.8374C131.683 44.8374 130.026 45.7853 128.629 45.2263C128.629 45.2263 130.745 45.3113 131.547 44.649L130.873 43.8388C130.873 43.8388 129.238 44.7341 128.08 44.2601C128.08 44.2601 130.535 44.1122 130.713 43.6646C130.713 43.6646 130.048 42.9618 129.781 42.8544C129.781 42.8544 128.594 43.4621 127.946 43.1339C127.946 43.1339 129.566 42.8625 129.576 42.6822C129.576 42.6822 128.469 41.9956 127.721 41.945C128.41 41.9573 129.084 42.15 129.676 42.504C129.583 42.09 129.372 41.712 129.068 41.4163C129.068 41.4163 129.84 41.5034 129.945 42.6721C129.945 42.6721 130.79 43.2433 130.844 43.4013C130.844 43.4013 130.903 42.2326 130.565 41.5358C130.565 41.5358 131.31 42.1333 131.031 43.6079L131.726 44.4059C131.726 44.4059 131.883 42.8625 131.63 42.2204C131.63 42.2204 132.295 42.9476 131.886 44.6206L132.447 45.4936C132.447 45.4936 132.686 44.175 132.558 43.3993C132.558 43.3993 133.028 44.2095 132.598 45.7509L132.906 46.3788C132.906 46.3788 133.062 45.4126 133.083 45.1311C133.103 44.8495 133.18 44.8313 133.18 44.8313C133.302 45.4355 133.253 46.0617 133.04 46.6401C133.04 46.6401 133.585 47.9769 133.674 47.9506Z" fill="#20C0AE"/>
</g>
<defs>
<linearGradient id="paint0_linear_7212_4889" x1="46.128" y1="87.7891" x2="109.35" y2="87.7891" gradientUnits="userSpaceOnUse">
<stop stop-color="#808080" stop-opacity="0.25"/>
<stop offset="0.54" stop-color="#808080" stop-opacity="0.12"/>
<stop offset="1" stop-color="#808080" stop-opacity="0.1"/>
</linearGradient>
<clipPath id="clip0_7212_4889">
<rect width="204.482" height="160" fill="white" transform="translate(0.961426)"/>
</clipPath>
</defs>
</svg>
