<svg width="150" height="162" viewBox="0 0 150 162" fill="none" xmlns="http://www.w3.org/2000/svg">
  <path d="M95.1483 91.5743L30.3074 108.272C28.1079 108.835 25.7746 108.504 23.8194 107.349C21.8642 106.195 20.4468 104.312 19.8781 102.114L0.268491 25.9634C-0.295251 23.7639 0.0364795 21.4306 1.19091 19.4754C2.34534 17.5202 4.22819 16.1028 6.42639 15.5341L66.7502 0L82.1903 6.91201L101.306 81.1451C101.87 83.3445 101.538 85.6778 100.384 87.633C99.2293 89.5882 97.3465 91.0056 95.1483 91.5743Z" fill="#F0F0F0"/>
  <path d="M7.04122 17.9216C5.47583 18.3266 4.13501 19.3359 3.31292 20.7283C2.49082 22.1206 2.25459 23.7822 2.65604 25.3485L22.2656 101.499C22.6706 103.064 23.68 104.405 25.0723 105.227C26.4647 106.049 28.1263 106.285 29.6926 105.884L94.5334 89.1867C96.0988 88.7817 97.4396 87.7724 98.2617 86.38C99.0838 84.9877 99.3201 83.3261 98.9186 81.7598L80.0989 8.67698L66.5299 2.60254L7.04122 17.9216Z" fill="white"/>
  <path d="M82.0255 7.30532L71.9905 9.88945C71.258 10.0781 70.4804 9.968 69.829 9.58338C69.1776 9.19876 68.7057 8.57112 68.517 7.83854L66.6084 0.426826C66.6001 0.394377 66.601 0.36023 66.6112 0.328302C66.6213 0.296373 66.6403 0.267956 66.6659 0.246307C66.6914 0.224658 66.7226 0.210655 66.7558 0.205903C66.7889 0.201152 66.8228 0.205844 66.8534 0.219442L82.0534 6.96975C82.0872 6.98478 82.1156 7.00996 82.1344 7.0418C82.1533 7.07364 82.1618 7.11056 82.1587 7.14745C82.1556 7.18433 82.1412 7.21935 82.1173 7.24764C82.0935 7.27593 82.0614 7.29609 82.0255 7.30532Z" fill="#F0F0F0"/>
  <path d="M76.7461 72.3356L47.2249 79.9376C47.0436 79.9843 46.8548 79.9949 46.6693 79.9686C46.4839 79.9423 46.3054 79.8798 46.1442 79.7846C45.9829 79.6894 45.842 79.5633 45.7294 79.4136C45.6168 79.2639 45.5349 79.0935 45.4882 78.9122C45.4415 78.7308 45.4309 78.542 45.4572 78.3566C45.4835 78.1711 45.546 77.9927 45.6412 77.8314C45.7364 77.6701 45.8625 77.5292 46.0122 77.4166C46.1619 77.3041 46.3323 77.2221 46.5136 77.1754L76.0348 69.5734C76.2161 69.5267 76.4049 69.5161 76.5904 69.5424C76.7758 69.5687 76.9543 69.6312 77.1155 69.7264C77.2768 69.8216 77.4177 69.9477 77.5303 70.0974C77.6429 70.2471 77.7248 70.4175 77.7715 70.5988C77.8182 70.7802 77.8288 70.969 77.8025 71.1544C77.7762 71.3399 77.7137 71.5183 77.6185 71.6796C77.5233 71.8409 77.3972 71.9818 77.2475 72.0944C77.0978 72.2069 76.9274 72.2889 76.7461 72.3356Z" fill="#E6E6E6"/>
  <path d="M83.6436 75.5296L48.4254 84.5987C48.0591 84.693 47.6703 84.638 47.3446 84.4457C47.0189 84.2534 46.7829 83.9395 46.6886 83.5733C46.5943 83.207 46.6493 82.8182 46.8417 82.4925C47.034 82.1668 47.3478 81.9308 47.7141 81.8365L82.9323 72.7674C83.2984 72.6735 83.6869 72.7287 84.0124 72.9211C84.3378 73.1134 84.5735 73.4271 84.6678 73.7932C84.7621 74.1593 84.7071 74.5478 84.5151 74.8734C84.323 75.199 84.0096 75.435 83.6436 75.5296Z" fill="#E6E6E6"/>
  <path d="M35.1762 89.0941C37.9601 89.0941 40.2169 86.8373 40.2169 84.0534C40.2169 81.2695 37.9601 79.0127 35.1762 79.0127C32.3923 79.0127 30.1355 81.2695 30.1355 84.0534C30.1355 86.8373 32.3923 89.0941 35.1762 89.0941Z" fill="#E6E6E6"/>
  <path d="M73.6073 59.1439L34.4003 69.2364C33.2672 69.5267 32.0652 69.3557 31.058 68.7609C30.0509 68.1661 29.3208 67.1961 29.0279 66.0636L20.8116 34.1451C20.5212 33.012 20.6922 31.81 21.287 30.8029C21.8818 29.7957 22.8519 29.0656 23.9843 28.7727L63.1913 18.6802C64.3244 18.3899 65.5264 18.5609 66.5336 19.1557C67.5407 19.7505 68.2708 20.7205 68.5637 21.8529L76.78 53.7715C77.0704 54.9046 76.8994 56.1065 76.3046 57.1137C75.7098 58.1209 74.7397 58.851 73.6073 59.1439Z" fill="white"/>
  <path d="M73.6073 59.1439L34.4003 69.2364C33.2672 69.5267 32.0652 69.3557 31.058 68.7609C30.0509 68.1661 29.3208 67.1961 29.0279 66.0636L20.8116 34.1451C20.5212 33.012 20.6922 31.81 21.287 30.8029C21.8818 29.7957 22.8519 29.0656 23.9843 28.7727L63.1913 18.6802C64.3244 18.3899 65.5264 18.5609 66.5336 19.1557C67.5407 19.7505 68.2708 20.7205 68.5637 21.8529L76.78 53.7715C77.0704 54.9046 76.8994 56.1065 76.3046 57.1137C75.7098 58.1209 74.7397 58.851 73.6073 59.1439ZM24.1137 29.2754C23.1145 29.5338 22.2586 30.178 21.7338 31.0667C21.209 31.9554 21.0581 33.0159 21.3142 34.0157L29.5306 65.9342C29.789 66.9335 30.4332 67.7893 31.3219 68.3142C32.2105 68.839 33.2711 68.9899 34.2709 68.7337L73.4779 58.6412C74.4771 58.3828 75.333 57.7386 75.8579 56.8499C76.3827 55.9612 76.5336 54.9007 76.2774 53.9009L68.061 21.9823C67.8026 20.9831 67.1584 20.1272 66.2697 19.6024C65.3811 19.0776 64.3205 18.9267 63.3207 19.1829L24.1137 29.2754Z" fill="#E6E6E6"/>
  <path d="M61.2022 29.4128L41.4149 34.5063C41.2419 34.5546 41.0571 34.5354 40.8977 34.4526C40.7383 34.3698 40.6163 34.2296 40.5563 34.0603C40.5284 33.9719 40.5188 33.8787 40.5281 33.7864C40.5374 33.6941 40.5654 33.6047 40.6104 33.5236C40.6554 33.4425 40.7164 33.3715 40.7898 33.3147C40.8632 33.258 40.9473 33.2168 41.0372 33.1937L61.1794 28.0088C61.993 28.4211 61.7789 29.2643 61.202 29.4128L61.2022 29.4128Z" fill="#F0F0F0"/>
  <path d="M62.0957 32.8835L42.3085 37.977C42.1355 38.0253 41.9506 38.0061 41.7912 37.9233C41.6318 37.8405 41.5098 37.7003 41.4499 37.531C41.4219 37.4426 41.4124 37.3494 41.4217 37.2571C41.431 37.1648 41.459 37.0754 41.504 36.9943C41.5489 36.9132 41.61 36.8422 41.6834 36.7854C41.7567 36.7287 41.8409 36.6875 41.9307 36.6644L62.0729 31.4795C62.8866 31.8918 62.6725 32.735 62.0955 32.8835L62.0957 32.8835Z" fill="#F0F0F0"/>
  <path d="M38.5396 41.0538L32.5007 42.6083C32.3034 42.6588 32.0942 42.6291 31.9189 42.5255C31.7436 42.422 31.6165 42.2532 31.5656 42.056L29.7311 34.9297C29.6806 34.7324 29.7103 34.5232 29.8138 34.3479C29.9174 34.1726 30.0862 34.0455 30.2834 33.9945L36.3222 32.44C36.5195 32.3896 36.7287 32.4193 36.904 32.5229C37.0793 32.6264 37.2063 32.7952 37.2574 32.9923L39.0918 40.1187C39.1424 40.3159 39.1126 40.5251 39.0091 40.7004C38.9055 40.8758 38.7367 41.0028 38.5396 41.0538V41.0538Z" fill="#E6E6E6"/>
  <path d="M63.8673 40.0046L33.6683 47.7783C33.4953 47.8266 33.3105 47.8074 33.1511 47.7246C32.9917 47.6418 32.8697 47.5016 32.8097 47.3323C32.7818 47.2439 32.7722 47.1507 32.7815 47.0584C32.7908 46.9661 32.8188 46.8767 32.8638 46.7956C32.9088 46.7145 32.9699 46.6435 33.0432 46.5868C33.1166 46.53 33.2008 46.4888 33.2906 46.4657L63.8448 38.6006C64.6584 39.0129 64.4443 39.8561 63.8674 40.0046L63.8673 40.0046Z" fill="#F0F0F0"/>
  <path d="M64.7612 43.4763L34.5621 51.25C34.3892 51.2983 34.2043 51.2791 34.0449 51.1963C33.8855 51.1135 33.7635 50.9733 33.7035 50.804C33.6756 50.7156 33.666 50.6224 33.6753 50.5301C33.6846 50.4378 33.7126 50.3484 33.7576 50.2673C33.8026 50.1862 33.8637 50.1151 33.937 50.0584C34.0104 50.0017 34.0946 49.9605 34.1844 49.9374L64.7386 42.0723C65.5522 42.4845 65.3381 43.3278 64.7612 43.4763V43.4763Z" fill="#F0F0F0"/>
  <path d="M65.6542 46.946L35.4552 54.7197C35.2822 54.768 35.0973 54.7488 34.9379 54.666C34.7786 54.5833 34.6566 54.443 34.5966 54.2737C34.5687 54.1853 34.5591 54.0921 34.5684 53.9998C34.5777 53.9075 34.6057 53.8181 34.6507 53.737C34.6957 53.6559 34.7567 53.5849 34.8301 53.5282C34.9035 53.4714 34.9876 53.4302 35.0774 53.4071L65.6316 45.542C66.4453 45.9543 66.2312 46.7975 65.6542 46.946Z" fill="#F0F0F0"/>
  <path d="M66.5478 50.4177L36.3488 58.1914C36.1758 58.2397 35.9909 58.2205 35.8315 58.1377C35.6721 58.0549 35.5501 57.9147 35.4901 57.7454C35.4622 57.657 35.4526 57.5638 35.4619 57.4715C35.4712 57.3792 35.4992 57.2898 35.5442 57.2087C35.5892 57.1276 35.6503 57.0565 35.7237 56.9998C35.797 56.9431 35.8812 56.9019 35.971 56.8788L66.5252 49.0137C67.3388 49.4259 67.1248 50.2692 66.5478 50.4177L66.5478 50.4177Z" fill="#F0F0F0"/>
  <path d="M67.4411 53.8874L37.2421 61.6611C37.0691 61.7094 36.8842 61.6902 36.7248 61.6074C36.5654 61.5247 36.4434 61.3844 36.3835 61.2151C36.3555 61.1267 36.3459 61.0335 36.3552 60.9412C36.3645 60.8489 36.3925 60.7595 36.4375 60.6784C36.4825 60.5974 36.5436 60.5263 36.617 60.4695C36.6903 60.4128 36.7745 60.3717 36.8643 60.3485L67.4185 52.4834C68.2322 52.8957 68.018 53.7389 67.4411 53.8874Z" fill="#F0F0F0"/>
  <path d="M35.5482 85.82C35.4384 85.8484 35.3223 85.8404 35.2175 85.7972L35.211 85.7945L33.8378 85.2123C33.7741 85.1853 33.7163 85.1461 33.6678 85.0967C33.6192 85.0474 33.5809 84.989 33.555 84.9248C33.529 84.8607 33.516 84.792 33.5166 84.7228C33.5172 84.6536 33.5315 84.5852 33.5586 84.5215C33.5857 84.4578 33.625 84.4001 33.6744 84.3517C33.7238 84.3032 33.7823 84.265 33.8465 84.2391C33.9107 84.2133 33.9794 84.2004 34.0486 84.2011C34.1178 84.2018 34.1862 84.2162 34.2498 84.2434L35.1396 84.6219L36.3056 81.8789C36.3327 81.8153 36.372 81.7577 36.4213 81.7093C36.4706 81.6609 36.529 81.6226 36.5931 81.5968C36.6571 81.5709 36.7257 81.558 36.7948 81.5586C36.8639 81.5593 36.9322 81.5735 36.9958 81.6006L36.996 81.6006L36.989 81.6186L36.9963 81.6006C37.1246 81.6553 37.226 81.7587 37.2782 81.8882C37.3303 82.0176 37.329 82.1624 37.2745 82.2909L35.9028 85.516C35.871 85.5904 35.8224 85.6564 35.761 85.709C35.6996 85.7616 35.6268 85.7993 35.5485 85.8192L35.5482 85.82Z" fill="white"/>
  <path d="M120.019 120.593H53.0625C50.7919 120.591 48.615 119.687 47.0095 118.082C45.404 116.476 44.5009 114.299 44.4983 112.029V33.3942C44.5009 31.1237 45.404 28.9468 47.0095 27.3413C48.615 25.7358 50.7919 24.8326 53.0625 24.8301H115.354L128.583 35.3741V112.029C128.58 114.299 127.677 116.476 126.072 118.082C124.466 119.687 122.289 120.591 120.019 120.593Z" fill="#E6E6E6"/>
  <path d="M53.0624 27.2959C51.4454 27.2977 49.8953 27.9408 48.7519 29.0842C47.6086 30.2275 46.9654 31.7777 46.9636 33.3946V112.029C46.9654 113.646 47.6086 115.196 48.7519 116.34C49.8953 117.483 51.4454 118.126 53.0624 118.128H120.019C121.636 118.126 123.186 117.483 124.329 116.34C125.472 115.196 126.116 113.646 126.117 112.029V36.5622L114.492 27.2959H53.0624Z" fill="white"/>
  <path d="M106.996 50.1609H76.5114C76.1331 50.1609 75.7704 50.0107 75.5029 49.7432C75.2355 49.4757 75.0852 49.113 75.0852 48.7348C75.0852 48.3565 75.2355 47.9938 75.5029 47.7263C75.7704 47.4588 76.1331 47.3086 76.5114 47.3086H106.996C107.374 47.3086 107.737 47.4588 108.004 47.7263C108.272 47.9938 108.422 48.3565 108.422 48.7348C108.422 49.113 108.272 49.4757 108.004 49.7432C107.737 50.0107 107.374 50.1609 106.996 50.1609Z" fill="#625AC4"/>
  <path d="M112.879 54.9734H76.5114C76.1335 54.9729 75.7712 54.8224 75.5042 54.555C75.2371 54.2876 75.0872 53.9252 75.0872 53.5473C75.0872 53.1693 75.2371 52.8069 75.5042 52.5395C75.7712 52.2721 76.1335 52.1216 76.5114 52.1211H112.879C113.066 52.1208 113.252 52.1575 113.425 52.2291C113.598 52.3007 113.756 52.4057 113.888 52.5381C114.021 52.6706 114.126 52.8279 114.198 53.001C114.27 53.1742 114.307 53.3598 114.307 53.5473C114.307 53.7347 114.27 53.9203 114.198 54.0935C114.126 54.2666 114.021 54.4239 113.888 54.5564C113.756 54.6888 113.598 54.7939 113.425 54.8654C113.252 54.937 113.066 54.9737 112.879 54.9734Z" fill="#625AC4"/>
  <path d="M106.996 68.8779H76.5125C76.1343 68.8779 75.7715 69.0282 75.5041 69.2956C75.2367 69.563 75.0864 69.9258 75.0864 70.304C75.0864 70.6822 75.2367 71.0449 75.5041 71.3124C75.7715 71.5798 76.1343 71.7301 76.5125 71.7301H106.996C107.374 71.7301 107.737 71.5798 108.004 71.3124C108.272 71.0449 108.422 70.6822 108.422 70.304C108.422 69.9258 108.272 69.563 108.004 69.2956C107.737 69.0282 107.374 68.8779 106.996 68.8779Z" fill="#C2C2C2"/>
  <path d="M112.879 73.6924H76.5125C76.1343 73.6924 75.7715 73.8426 75.5041 74.1101C75.2367 74.3775 75.0864 74.7402 75.0864 75.1185C75.0864 75.4967 75.2367 75.8594 75.5041 76.1268C75.7715 76.3943 76.1343 76.5445 76.5125 76.5445H112.879C113.257 76.5445 113.62 76.3943 113.887 76.1268C114.155 75.8594 114.305 75.4967 114.305 75.1185C114.305 74.7402 114.155 74.3775 113.887 74.1101C113.62 73.8426 113.257 73.6924 112.879 73.6924Z" fill="#C2C2C2"/>
  <path d="M106.996 93.3015H76.5114C76.1331 93.3015 75.7704 93.1513 75.5029 92.8838C75.2355 92.6164 75.0852 92.2536 75.0852 91.8754C75.0852 91.4971 75.2355 91.1344 75.5029 90.8669C75.7704 90.5995 76.1331 90.4492 76.5114 90.4492H106.996C107.374 90.4492 107.737 90.5995 108.004 90.8669C108.272 91.1344 108.422 91.4971 108.422 91.8754C108.422 92.2536 108.272 92.6164 108.004 92.8838C107.737 93.1513 107.374 93.3015 106.996 93.3015Z" fill="#C2C2C2"/>
  <path d="M112.879 98.116H76.5114C76.1335 98.1155 75.7712 97.965 75.5042 97.6976C75.2371 97.4302 75.0872 97.0677 75.0872 96.6898C75.0872 96.3119 75.2371 95.9495 75.5042 95.6821C75.7712 95.4147 76.1335 95.2642 76.5114 95.2637H112.879C113.066 95.2634 113.252 95.3001 113.425 95.3717C113.598 95.4432 113.756 95.5482 113.888 95.6807C114.021 95.8132 114.126 95.9705 114.198 96.1436C114.27 96.3168 114.307 96.5024 114.307 96.6898C114.307 96.8773 114.27 97.0629 114.198 97.2361C114.126 97.4092 114.021 97.5665 113.888 97.699C113.756 97.8314 113.598 97.9364 113.425 98.008C113.252 98.0796 113.066 98.1163 112.879 98.116Z" fill="#C2C2C2"/>
  <path d="M63.8171 56.182C66.601 56.182 68.8578 53.9252 68.8578 51.1413C68.8578 48.3574 66.601 46.1006 63.8171 46.1006C61.0332 46.1006 58.7764 48.3574 58.7764 51.1413C58.7764 53.9252 61.0332 56.182 63.8171 56.182Z" fill="#625AC4"/>
  <path d="M63.3175 53.0642C63.2041 53.0644 63.0938 53.0277 63.003 52.9596L62.9974 52.9554L61.8128 52.0492C61.7577 52.0072 61.7115 51.9548 61.6768 51.8949C61.642 51.835 61.6195 51.7689 61.6103 51.7002C61.6012 51.6316 61.6057 51.5619 61.6235 51.495C61.6414 51.4281 61.6722 51.3654 61.7144 51.3104C61.7565 51.2555 61.809 51.2094 61.869 51.1748C61.9289 51.1402 61.9951 51.1177 62.0638 51.1087C62.1324 51.0998 62.2022 51.1044 62.269 51.1224C62.3359 51.1404 62.3985 51.1714 62.4534 51.2136L63.2207 51.802L65.0339 49.4365C65.0759 49.3817 65.1283 49.3357 65.1882 49.3011C65.248 49.2665 65.3141 49.2441 65.3826 49.235C65.4511 49.226 65.5207 49.2305 65.5875 49.2483C65.6542 49.2662 65.7168 49.297 65.7716 49.3391L65.7718 49.3392L65.7605 49.3548L65.7721 49.3392C65.8827 49.4242 65.9551 49.5497 65.9734 49.688C65.9916 49.8264 65.9542 49.9663 65.8694 50.0771L63.7367 52.8582C63.6874 52.9223 63.624 52.9742 63.5513 53.0098C63.4787 53.0454 63.3989 53.0638 63.318 53.0635L63.3175 53.0642Z" fill="white"/>
  <path d="M69.3757 72.7108C69.376 73.3728 69.2458 74.0285 68.9927 74.6402C68.7395 75.2519 68.3683 75.8078 67.9003 76.276C67.4323 76.7443 66.8766 77.1157 66.265 77.3692C65.6534 77.6227 64.9979 77.7532 64.3359 77.7533C64.2926 77.7542 64.2492 77.7524 64.2061 77.7481C63.215 77.7227 62.2534 77.4055 61.4416 76.8363C60.6298 76.2671 60.0039 75.4711 59.6422 74.548C59.2806 73.6249 59.1992 72.6155 59.4083 71.6464C59.6174 70.6772 60.1076 69.7913 60.8177 69.0993C61.5278 68.4074 62.4262 67.9403 63.4005 67.7564C64.3747 67.5725 65.3816 67.68 66.295 68.0655C67.2085 68.451 67.988 69.0973 68.5359 69.9236C69.0839 70.7498 69.376 71.7193 69.3757 72.7108Z" fill="#C2C2C2"/>
  <path d="M63.8171 99.3226C66.601 99.3226 68.8578 97.0658 68.8578 94.2819C68.8578 91.498 66.601 89.2412 63.8171 89.2412C61.0332 89.2412 58.7764 91.498 58.7764 94.2819C58.7764 97.0658 61.0332 99.3226 63.8171 99.3226Z" fill="#C2C2C2"/>
  <path d="M128.325 35.7134H117.963C117.206 35.7134 116.481 35.4129 115.946 34.878C115.411 34.3431 115.111 33.6176 115.111 32.8611V25.2076C115.111 25.1741 115.12 25.1412 115.138 25.1128C115.156 25.0845 115.181 25.0617 115.211 25.0471C115.241 25.0325 115.275 25.0267 115.308 25.0304C115.342 25.034 115.373 25.047 115.4 25.0678L128.436 35.3954C128.465 35.4184 128.486 35.4498 128.497 35.4854C128.507 35.5209 128.506 35.5588 128.494 35.5937C128.482 35.6287 128.459 35.659 128.429 35.6804C128.398 35.7019 128.362 35.7134 128.325 35.7134Z" fill="#C2C2C2"/>
  <path d="M69.3758 72.711C69.376 73.3731 69.2458 74.0287 68.9927 74.6404C68.7395 75.2521 68.3683 75.808 67.9003 76.2762C67.4323 76.7445 66.8767 77.116 66.2651 77.3694C65.6535 77.6229 64.9979 77.7534 64.3359 77.7535C64.2926 77.7544 64.2492 77.7526 64.2061 77.7483C63.5549 76.1241 63.3039 74.367 63.4742 72.6254C63.6444 70.8837 64.2311 69.2086 65.1845 67.7412C66.3571 67.9422 67.4208 68.5512 68.1878 69.4607C68.9547 70.3701 69.3755 71.5214 69.3758 72.711Z" fill="#625AC4"/>
  <path d="M75.0852 70.3053C75.0859 69.9269 75.2365 69.5643 75.504 69.2967C75.7715 69.0292 76.1342 68.8786 76.5126 68.8779H84.1087C84.5524 69.7803 84.8677 70.7403 85.0456 71.7301H76.5126C76.1345 71.73 75.7719 71.5799 75.5043 71.3128C75.2367 71.0457 75.086 70.6834 75.0852 70.3053Z" fill="#625AC4"/>
  <path d="M85.222 73.6924C85.2225 74.6557 85.0951 75.6148 84.8431 76.5445H76.5125C76.1343 76.5445 75.7715 76.3943 75.5041 76.1268C75.2367 75.8594 75.0864 75.4967 75.0864 75.1185C75.0864 74.7402 75.2367 74.3775 75.5041 74.1101C75.7715 73.8426 76.1343 73.6924 76.5125 73.6924H85.222Z" fill="#625AC4"/>
  <path d="M104.017 91.2816C103.802 91.6342 103.456 91.8868 103.054 91.9841C102.653 92.0813 102.229 92.0151 101.877 91.8001L83.7092 80.7185C83.5346 80.612 83.3827 80.4722 83.2622 80.307C83.1416 80.1418 83.0548 79.9545 83.0067 79.7558C82.9585 79.5571 82.95 79.3508 82.9816 79.1487C83.0131 78.9467 83.0842 78.7529 83.1907 78.5783C83.2971 78.4037 83.437 78.2518 83.6022 78.1313C83.7673 78.0108 83.9546 77.924 84.1534 77.8758C84.3521 77.8277 84.5584 77.8191 84.7604 77.8507C84.9625 77.8823 85.1563 77.9533 85.3309 78.0598L103.499 89.1414C103.851 89.3565 104.104 89.7028 104.201 90.1041C104.298 90.5055 104.232 90.929 104.017 91.2816Z" fill="#211C4E"/>
  <path d="M85.8493 80.2006C84.5663 82.304 82.6885 83.9796 80.4532 85.0157C78.2179 86.0518 75.7255 86.4018 73.2913 86.0214C70.8571 85.641 68.5903 84.5474 66.7777 82.8787C64.965 81.2101 63.6879 79.0414 63.1078 76.6469C62.5277 74.2524 62.6707 71.7396 63.5186 69.4264C64.3666 67.1132 65.8815 65.1033 67.8717 63.6511C69.8619 62.1988 72.2381 61.3693 74.6998 61.2675C77.1614 61.1657 79.598 61.7961 81.7013 63.0791C84.5189 64.8021 86.538 67.5723 87.3156 70.7821C88.0933 73.9919 87.5659 77.3791 85.8493 80.2006ZM67.2385 68.8487C66.2763 70.4262 65.8034 72.2537 65.8798 74.0999C65.9562 75.9461 66.5783 77.7283 67.6675 79.2209C68.7567 80.7136 70.2641 81.8498 71.999 82.4857C73.7339 83.1217 75.6185 83.229 77.4143 82.7939C79.2102 82.3588 80.8367 81.401 82.0882 80.0415C83.3397 78.682 84.16 76.9819 84.4452 75.1563C84.7305 73.3306 84.4681 71.4613 83.691 69.7849C82.9139 68.1084 81.6572 66.7 80.0796 65.7378C77.9635 64.4503 75.4231 64.0548 73.0158 64.638C70.6084 65.2212 68.5307 66.7355 67.2385 68.8487Z" fill="#211C4E"/>
  <path d="M125.761 75.7111C129.282 75.7111 132.135 72.8573 132.135 69.337C132.135 65.8167 129.282 62.9629 125.761 62.9629C122.241 62.9629 119.387 65.8167 119.387 69.337C119.387 72.8573 122.241 75.7111 125.761 75.7111Z" fill="#A0616A"/>
  <path d="M125.349 105.07C125.226 104.687 125.186 104.283 125.23 103.883C125.274 103.483 125.403 103.097 125.607 102.75C125.811 102.404 126.086 102.104 126.413 101.871C126.741 101.638 127.115 101.477 127.509 101.398C127.634 101.373 127.761 101.358 127.888 101.351L134.602 90.575L128.469 84.7444C128.235 84.5217 128.047 84.2547 127.916 83.9589C127.786 83.6631 127.715 83.3444 127.708 83.0211C127.701 82.6978 127.759 82.3765 127.877 82.0755C127.995 81.7745 128.172 81.5 128.397 81.2677C128.622 81.0354 128.89 80.8499 129.187 80.7221C129.484 80.5942 129.804 80.5264 130.127 80.5226C130.45 80.5189 130.771 80.5792 131.071 80.7001C131.371 80.8211 131.644 81.0002 131.874 81.2272L140.342 89.577L140.359 89.5978C140.621 89.9963 140.747 90.4687 140.72 90.9449C140.692 91.421 140.511 91.8755 140.205 92.2409L130.797 103.367C130.825 103.456 130.849 103.547 130.867 103.639C130.946 104.033 130.94 104.44 130.851 104.832C130.761 105.224 130.59 105.593 130.348 105.915C130.106 106.236 129.799 106.503 129.447 106.697C129.095 106.891 128.705 107.009 128.304 107.043C128.223 107.05 128.143 107.053 128.063 107.053C127.459 107.051 126.872 106.858 126.385 106.502C125.897 106.145 125.535 105.645 125.349 105.07Z" fill="#A0616A"/>
  <path d="M115.263 158.049L112.081 158.049L110.568 145.776L115.264 145.777L115.263 158.049Z" fill="#A0616A"/>
  <path d="M116.074 161.133L105.815 161.133V161.003C105.815 160.478 105.919 159.959 106.119 159.475C106.32 158.99 106.614 158.55 106.985 158.179C107.356 157.808 107.796 157.514 108.28 157.314C108.765 157.113 109.284 157.01 109.809 157.01H109.809L116.075 157.01L116.074 161.133Z" fill="#211C4E"/>
  <path d="M146.887 153.649L144.154 155.277L136.574 145.507L140.609 143.104L146.887 153.649Z" fill="#A0616A"/>
  <path d="M149.162 155.884L140.347 161.133L140.281 161.021C140.013 160.571 139.836 160.072 139.76 159.553C139.685 159.034 139.712 158.505 139.841 157.997C139.97 157.489 140.198 157.011 140.511 156.59C140.825 156.17 141.218 155.816 141.669 155.547L141.669 155.547L147.053 152.342L149.162 155.884Z" fill="#211C4E"/>
  <path d="M110.167 152.643C108.035 127.546 106.767 104.231 114.559 94.7202L114.619 94.6465L127.731 99.8916L127.753 99.9385C127.797 100.035 132.158 109.627 131.141 116.079L134.375 130.957L144.921 148.615C145.006 148.757 145.06 148.916 145.079 149.08C145.098 149.245 145.081 149.411 145.031 149.569C144.981 149.727 144.897 149.872 144.787 149.995C144.676 150.118 144.54 150.216 144.389 150.283L139.806 152.3C139.547 152.412 139.257 152.428 138.988 152.344C138.718 152.259 138.488 152.081 138.34 151.841L126.868 133.135L120.388 118.787C120.353 118.709 120.293 118.645 120.218 118.605C120.143 118.564 120.056 118.55 119.972 118.563C119.888 118.577 119.81 118.618 119.751 118.68C119.692 118.742 119.656 118.821 119.647 118.906L116.055 152.669C116.025 152.956 115.889 153.222 115.675 153.414C115.46 153.607 115.182 153.714 114.893 153.713H111.331C111.038 153.712 110.757 153.601 110.542 153.403C110.327 153.206 110.193 152.935 110.167 152.643Z" fill="#211C4E"/>
  <path d="M114.603 94.9192L114.54 94.8893L114.531 94.8206C114.041 91.3923 114.621 87.5832 116.254 83.499C117.059 81.5001 118.555 79.8569 120.47 78.8688C122.385 77.8807 124.592 77.6135 126.687 78.1158C127.894 78.4132 129.026 78.9581 130.012 79.7159C130.997 80.4738 131.815 81.428 132.412 82.5182C133.002 83.5973 133.361 84.7871 133.467 86.0122C133.573 87.2374 133.424 88.4712 133.028 89.6355C130.969 95.6564 128.298 101.29 128.271 101.346L128.215 101.464L114.603 94.9192Z" fill="#625AC4"/>
  <path d="M100.297 86.3806C100.612 86.1313 100.977 85.9515 101.367 85.8531C101.757 85.7546 102.164 85.7397 102.56 85.8093C102.956 85.8789 103.333 86.0314 103.666 86.2569C103.999 86.4823 104.281 86.7756 104.493 87.1176C104.56 87.2261 104.618 87.3392 104.669 87.4559L117.114 89.9713L120.428 82.1847C120.555 81.8872 120.739 81.6177 120.97 81.3918C121.201 81.1659 121.475 80.9881 121.776 80.8686C122.076 80.7491 122.397 80.6903 122.721 80.6956C123.044 80.701 123.363 80.7703 123.659 80.8996C123.956 81.0289 124.223 81.2156 124.447 81.449C124.671 81.6824 124.846 81.9578 124.963 82.2593C125.08 82.5608 125.136 82.8825 125.127 83.2057C125.119 83.5289 125.047 83.8473 124.915 84.1425L120.059 94.9983L120.046 95.0215C119.764 95.4064 119.366 95.6903 118.91 95.831C118.454 95.9717 117.966 95.9618 117.516 95.8026L103.8 90.8871C103.726 90.9446 103.649 90.9983 103.57 91.0478C103.228 91.2596 102.845 91.3968 102.446 91.4504C102.048 91.5039 101.642 91.4726 101.256 91.3585C100.871 91.2444 100.513 91.0501 100.208 90.7883C99.9024 90.5265 99.6558 90.2031 99.484 89.8393C99.449 89.7659 99.4175 89.6916 99.3894 89.6164C99.1804 89.0503 99.1556 88.4326 99.3185 87.8515C99.4814 87.2704 99.8237 86.7556 100.297 86.3806Z" fill="#A0616A"/>
  <path d="M148.788 76.163C148.174 75.0752 147.28 74.0788 146.097 73.6767C144.57 73.1574 142.916 73.7103 141.346 74.0795C140.136 74.3639 138.872 74.538 137.653 74.298C136.434 74.0579 135.257 73.3483 134.703 72.2363C133.887 70.6004 134.574 68.6496 134.524 66.8221C134.499 65.8272 134.248 64.8512 133.79 63.9674C133.333 63.0837 132.68 62.3154 131.883 61.7204C131.085 61.1254 130.163 60.7193 129.185 60.5326C128.208 60.3459 127.2 60.3836 126.24 60.6427C124.736 60.2088 123.375 60.1687 122.445 61.3245C121.275 61.3245 120.153 61.7894 119.325 62.6167C118.498 63.4441 118.033 64.5663 118.033 65.7364H122.252C122.052 66.8121 122.28 67.9233 122.888 68.8327C123.633 69.9268 124.928 70.7183 125.177 72.0181C125.419 73.2777 124.563 74.4728 123.665 75.3884C122.767 76.304 121.725 77.2112 121.444 78.4627C121.272 79.4128 121.468 80.3927 121.99 81.2045C122.512 82.0065 123.159 82.7194 123.907 83.3159C127.277 86.203 131.282 88.2519 135.595 89.2953C138.633 90.0266 141.955 90.2162 144.775 88.8709C145.903 88.3327 146.908 87.5684 147.728 86.6253C148.548 85.6822 149.166 84.5806 149.542 83.3888C149.918 82.1971 150.046 80.9406 149.916 79.6976C149.786 78.4546 149.402 77.2515 148.788 76.163Z" fill="#211C4E"/>
  <path d="M149.741 161.403H100.432C100.363 161.403 100.297 161.375 100.248 161.327C100.199 161.278 100.172 161.212 100.172 161.143C100.172 161.074 100.199 161.008 100.248 160.96C100.297 160.911 100.363 160.884 100.432 160.884H149.741C149.809 160.884 149.875 160.911 149.924 160.96C149.973 161.008 150 161.074 150 161.143C150 161.212 149.973 161.278 149.924 161.327C149.875 161.375 149.809 161.403 149.741 161.403Z" fill="#E6E6E6"/>
</svg>
