<svg width="24" height="25" viewBox="0 0 24 25" fill="none" xmlns="http://www.w3.org/2000/svg">
<path fill-rule="evenodd" clip-rule="evenodd" d="M2 6.95886C2 5.85429 2.89543 4.95886 4 4.95886H8C8.26522 4.95886 8.51957 5.06422 8.70711 5.25176L10.4142 6.95886H20C21.1046 6.95886 22 7.85429 22 8.95886V18.9589C22 20.0634 21.1046 20.9589 20 20.9589H13.2838L14.1213 20.1213C14.4598 19.7829 14.7004 19.3837 14.8433 18.9589H20V8.95886H10C9.73478 8.95886 9.48043 8.85351 9.29289 8.66597L7.58579 6.95886L4 6.95886V11.1708C3.35413 10.9431 2.64587 10.9431 2 11.1708V6.95886ZM2.29289 13.2929C2.68342 12.9024 3.31658 12.9024 3.70711 13.2929L7.70711 17.2929C8.09763 17.6834 8.09763 18.3166 7.70711 18.7071L3.70711 22.7071C3.31658 23.0976 2.68342 23.0976 2.29289 22.7071C1.90237 22.3166 1.90237 21.6834 2.29289 21.2929L5.58579 18L2.29289 14.7071C1.90237 14.3166 1.90237 13.6834 2.29289 13.2929ZM7.29289 14.7071C6.90237 14.3166 6.90237 13.6834 7.29289 13.2929C7.68342 12.9024 8.31658 12.9024 8.70711 13.2929L12.7071 17.2929C13.0976 17.6834 13.0976 18.3166 12.7071 18.7071L8.70711 22.7071C8.31658 23.0976 7.68342 23.0976 7.29289 22.7071C6.90237 22.3166 6.90237 21.6834 7.29289 21.2929L10.5858 18L7.29289 14.7071Z" fill="currentColor"/>
</svg>
