<svg width="24" height="25" viewBox="0 0 24 25" fill="none" xmlns="http://www.w3.org/2000/svg">
<path fill-rule="evenodd" clip-rule="evenodd" d="M6.70711 7.25176C6.31658 6.86123 5.68342 6.86123 5.29289 7.25176C4.90237 7.64228 4.90237 8.27544 5.29289 8.66597L9.58579 12.9589L5.29289 17.2518C4.90237 17.6423 4.90237 18.2754 5.29289 18.666C5.68342 19.0565 6.31658 19.0565 6.70711 18.666L11.7071 13.666C12.0976 13.2754 12.0976 12.6423 11.7071 12.2518L6.70711 7.25176ZM13.7071 7.25176C13.3166 6.86123 12.6834 6.86123 12.2929 7.25176C11.9024 7.64228 11.9024 8.27544 12.2929 8.66597L16.5858 12.9589L12.2929 17.2518C11.9024 17.6423 11.9024 18.2754 12.2929 18.666C12.6834 19.0565 13.3166 19.0565 13.7071 18.666L18.7071 13.666C19.0976 13.2754 19.0976 12.6423 18.7071 12.2518L13.7071 7.25176Z" fill="currentColor"/>
</svg>
