<svg width="24" height="25" viewBox="0 0 24 25" fill="none" xmlns="http://www.w3.org/2000/svg">
<path fill-rule="evenodd" clip-rule="evenodd" d="M10.2929 7.25176C10.6834 6.86123 11.3166 6.86123 11.7071 7.25176C12.0976 7.64228 12.0976 8.27544 11.7071 8.66597L7.41421 12.9589L11.7071 17.2518C12.0976 17.6423 12.0976 18.2754 11.7071 18.666C11.3166 19.0565 10.6834 19.0565 10.2929 18.666L5.29289 13.666C4.90237 13.2754 4.90237 12.6423 5.29289 12.2518L10.2929 7.25176ZM17.2929 7.25176C17.6834 6.86123 18.3166 6.86123 18.7071 7.25176C19.0976 7.64228 19.0976 8.27544 18.7071 8.66597L14.4142 12.9589L18.7071 17.2518C19.0976 17.6423 19.0976 18.2754 18.7071 18.666C18.3166 19.0565 17.6834 19.0565 17.2929 18.666L12.2929 13.666C11.9024 13.2754 11.9024 12.6423 12.2929 12.2518L17.2929 7.25176Z" fill="currentColor"/>
</svg>
