<svg width="32" height="33" viewBox="0 0 32 33" fill="none" xmlns="http://www.w3.org/2000/svg">
<path fill-rule="evenodd" clip-rule="evenodd" d="M22.997 25.4881C21.0956 27.0573 18.6579 28 16 28C13.0582 28 10.3861 26.8452 8.41235 24.9642C6.31007 22.9607 5 20.1333 5 17C5 10.9249 9.92487 6 16 6C22.0751 6 27 10.9249 27 17C27 20.1334 25.6899 22.9607 23.5876 24.9642C23.3971 25.1458 23.2001 25.3205 22.997 25.4881ZM29 17C29 24.1797 23.1797 30 16 30C8.8203 30 3 24.1797 3 17C3 9.8203 8.8203 4 16 4C23.1797 4 29 9.8203 29 17ZM10.3333 23.9185C10.3333 23.9436 10.3335 23.9683 10.3338 23.9928C9.66028 23.4464 9.06727 22.8047 8.57528 22.0881C8.92812 20.8382 9.65202 19.8353 10.6489 19.0982C10.6657 19.0857 10.6827 19.0734 10.6997 19.0611C10.7444 19.0287 10.7896 18.9969 10.8352 18.9656C11.3366 18.6227 11.8912 18.3495 12.4834 18.1396L12.4644 18.1207C11.987 17.6433 11.6057 17.0698 11.352 16.4317C11.1249 15.8605 11 15.2374 11 14.5852C11 11.8238 13.2386 9.58521 16 9.58521C18.7614 9.58521 21 11.8238 21 14.5852C21 15.2374 20.8751 15.8605 20.648 16.4317C20.3909 17.0783 20.0028 17.6585 19.5165 18.1396C19.5696 18.1584 19.6223 18.1777 19.6747 18.1975C20.2609 18.4191 20.8081 18.7048 21.3003 19.0611C21.3173 19.0734 21.3342 19.0857 21.3511 19.0982C22.3479 19.8353 23.0719 20.8382 23.4247 22.0882C22.9327 22.8047 22.3397 23.4464 21.6662 23.9928C21.6665 23.9683 21.6666 23.9436 21.6666 23.9185C21.6666 22.3871 21.0653 21.3598 20.1277 20.6813C19.1471 19.9716 17.7107 19.5852 16 19.5852C14.2892 19.5852 12.8528 19.9716 11.8722 20.6813C10.9347 21.3598 10.3333 22.3871 10.3333 23.9185ZM16 11.5852C14.3431 11.5852 13 12.9284 13 14.5852C13 15.4194 13.3405 16.1741 13.8901 16.7179C14.4321 17.2541 15.1774 17.5852 16 17.5852C16.8226 17.5852 17.5679 17.2541 18.1099 16.7179C18.6595 16.1741 19 15.4194 19 14.5852C19 12.9284 17.6568 11.5852 16 11.5852Z" fill="currentColor"/>
</svg>
