<svg width="24" height="24" viewBox="0 0 24 24" fill="none" xmlns="http://www.w3.org/2000/svg">
<path fill-rule="evenodd" clip-rule="evenodd" d="M16 6C16 7.10457 16.8954 8 18 8C19.1046 8 20 7.10457 20 6C20 4.89543 19.1046 4 18 4C16.8954 4 16 4.89543 16 6ZM18 2C15.7909 2 14 3.79086 14 6C14 6.09281 14.0032 6.18489 14.0094 6.27612L9.35848 7.82643C9.37976 7.85924 9.40057 7.89239 9.42091 7.92585C8.71936 6.77126 7.44975 6 6 6C3.79086 6 2 7.79086 2 10C2 12.2091 3.79086 14 6 14C8.20914 14 10 12.2091 10 10C10 9.58685 9.93736 9.18832 9.82106 8.81341C9.91124 9.1041 9.96916 9.409 9.99062 9.7239L14.6415 8.17359C14.9699 8.67984 15.4095 9.10717 15.9259 9.42091C15.8924 9.40057 15.8592 9.37976 15.8264 9.35848L14.2761 14.0094C14.1849 14.0032 14.0928 14 14 14C13.2582 14 12.5636 14.2019 11.968 14.5538L9.44619 12.032C9.10203 12.6144 8.61442 13.102 8.03198 13.4462L10.5538 15.968C10.2019 16.5635 10 17.2582 10 18C10 20.2091 11.7909 22 14 22C16.2091 22 18 20.2091 18 18C18 16.5923 17.2728 15.3544 16.1736 14.6415L17.7239 9.99063C17.8151 9.99685 17.9072 10 18 10C20.2091 10 22 8.20914 22 6C22 3.79086 20.2091 2 18 2ZM6 12C4.89543 12 4 11.1046 4 10C4 8.89543 4.89543 8 6 8C7.10457 8 8 8.89543 8 10C8 11.1046 7.10457 12 6 12ZM14 20C12.8954 20 12 19.1046 12 18C12 16.8954 12.8954 16 14 16C15.1046 16 16 16.8954 16 18C16 19.1046 15.1046 20 14 20Z" fill="currentColor"/>
</svg>
