<svg width="24" height="24" viewBox="0 0 24 24" fill="none" xmlns="http://www.w3.org/2000/svg">
<path fill-rule="evenodd" clip-rule="evenodd" d="M4 4.95886C2.89543 4.95886 2 5.85429 2 6.95886V12.9589C2 13.5111 2.44772 13.9589 3 13.9589C3.55228 13.9589 4 13.5111 4 12.9589V6.95886H7.58579L9.29289 8.66597C9.48043 8.85351 9.73478 8.95886 10 8.95886H20V18.9589H14C13.4477 18.9589 13 19.4066 13 19.9589C13 20.5111 13.4477 20.9589 14 20.9589H20C21.1046 20.9589 22 20.0634 22 18.9589V8.95886C22 7.85429 21.1046 6.95886 20 6.95886H10.4142L8.70711 5.25176C8.51957 5.06422 8.26522 4.95886 8 4.95886H4ZM7 13C7.55228 13 8 13.4477 8 14V17H11C11.5523 17 12 17.4477 12 18C12 18.5523 11.5523 19 11 19H8V22C8 22.5523 7.55228 23 7 23C6.44772 23 6 22.5523 6 22V19H3C2.44772 19 2 18.5523 2 18C2 17.4477 2.44772 17 3 17H6V14C6 13.4477 6.44772 13 7 13Z" fill="currentColor"/>
<path d="M4 4.95886C2.89543 4.95886 2 5.85429 2 6.95886V12.9589C2 13.5111 2.44772 13.9589 3 13.9589C3.55228 13.9589 4 13.5111 4 12.9589V6.95886H7.58579L9.29289 8.66597C9.48043 8.85351 9.73478 8.95886 10 8.95886H20V18.9589H14C13.4477 18.9589 13 19.4066 13 19.9589C13 20.5111 13.4477 20.9589 14 20.9589H20C21.1046 20.9589 22 20.0634 22 18.9589V8.95886C22 7.85429 21.1046 6.95886 20 6.95886H10.4142L8.70711 5.25176C8.51957 5.06422 8.26522 4.95886 8 4.95886H4Z" fill="currentColor"/>
<path d="M7 13C7.55228 13 8 13.4477 8 14V17H11C11.5523 17 12 17.4477 12 18C12 18.5523 11.5523 19 11 19H8V22C8 22.5523 7.55228 23 7 23C6.44772 23 6 22.5523 6 22V19H3C2.44772 19 2 18.5523 2 18C2 17.4477 2.44772 17 3 17H6V14C6 13.4477 6.44772 13 7 13Z" fill="currentColor"/>
</svg>
