<svg width="24" height="24" viewBox="0 0 24 24" fill="none" xmlns="http://www.w3.org/2000/svg">
<path d="M16.6501 5.04168C16.2349 4.68188 16.1916 4.04889 16.5535 3.62785L17.7172 2.2737C18.079 1.85267 18.7089 1.80303 19.1241 2.16283C19.5393 2.52263 19.5826 3.15562 19.2208 3.57665L18.057 4.9308C17.6952 5.35184 17.0653 5.40148 16.6501 5.04168Z" fill="currentColor"/>
<path fill-rule="evenodd" clip-rule="evenodd" d="M16.1352 15.8438C15.3076 15.5573 14.35 15.2486 13.5947 15.0693C13.0644 14.9435 12.6337 14.8815 12.4178 14.9359L12.409 14.9382L8.25795 16.0757C5.5986 16.8044 2.8762 15.2328 2.17731 12.5655C1.47841 9.89815 3.06766 7.14514 5.72701 6.41645L9.87811 5.27891C10.3902 5.13858 11.6752 3.73837 12.6622 2.58942C13.1991 1.96451 14.2244 2.18111 14.4322 2.97394L17.48 14.6058C17.6877 15.3986 16.9056 16.1105 16.1352 15.8438ZM4.1062 12.0369C4.5243 13.6326 6.15048 14.574 7.7415 14.1436L6.22443 8.35376C4.63611 8.79449 3.68811 10.4413 4.1062 12.0369ZM8.15333 7.8252L9.67038 13.615L11.9021 13.0035C12.4775 12.8458 13.0621 12.9284 13.3255 12.9685C13.6873 13.0236 14.0805 13.1147 14.4578 13.2146C14.6646 13.2693 14.8786 13.3298 15.0951 13.394L12.9593 5.24279C12.8032 5.40909 12.6475 5.57092 12.4951 5.72406C12.2172 6.00341 11.9212 6.28339 11.6348 6.51611C11.4421 6.67272 11.0294 7.0011 10.5135 7.17439L10.5145 7.17821L8.15333 7.8252Z" fill="currentColor"/>
<path d="M19.9685 8.729C20.5012 8.58305 20.8195 8.03163 20.6795 7.49738C20.5395 6.96313 19.9942 6.64836 19.4616 6.79431L18.0845 7.17164C17.5519 7.31759 17.2336 7.869 17.3735 8.40325C17.5135 8.9375 18.0588 9.25228 18.5915 9.10633L19.9685 8.729Z" fill="currentColor"/>
<path d="M18.9975 12.9554C18.4783 12.7758 18.2063 12.2055 18.3899 11.6816C18.5736 11.1577 19.1434 10.8786 19.6626 11.0582L21.3325 11.6359C21.8517 11.8155 22.1238 12.3858 21.9401 12.9097C21.7564 13.4336 21.1867 13.7127 20.6674 13.5331L18.9975 12.9554Z" fill="currentColor"/>
<path d="M7.59874 20.1357L7.03014 17.9657L8.95904 17.4372L9.52764 19.6072C9.59041 19.8468 9.83494 19.9879 10.0738 19.9225C10.3127 19.857 10.4554 19.6098 10.3926 19.3702L9.82404 17.2001L11.7529 16.6716L12.3215 18.8416C12.6643 20.1497 11.8849 21.4998 10.5807 21.8572C9.27657 22.2145 7.94148 21.4438 7.59874 20.1357Z" fill="currentColor"/>
</svg>
