<svg width="16" height="16" viewBox="0 0 16 16" fill="none" xmlns="http://www.w3.org/2000/svg">
<path fill-rule="evenodd" clip-rule="evenodd" d="M1.55275 8.59628C1.36507 8.22091 1.36507 7.77908 1.55275 7.40371L3.88607 2.73705C4.11193 2.28534 4.57361 2 5.07864 2H10.9213C11.4263 2 11.888 2.28534 12.1138 2.73705L14.4472 7.40371C14.6349 7.77908 14.6349 8.22091 14.4472 8.59628L12.1139 13.2629C11.888 13.7147 11.4263 14 10.9213 14H5.07866C4.57363 14 4.11195 13.7147 3.88609 13.263L1.55275 8.59628ZM5.07864 3.33333L2.74532 8L5.07866 12.6667H10.9213L13.2546 8L10.9213 3.33333H5.07864ZM5.52858 5.52861C5.78893 5.26826 6.21104 5.26826 6.47139 5.52861L7.99999 7.0572L9.52858 5.52861C9.78893 5.26826 10.211 5.26826 10.4714 5.52861C10.7317 5.78896 10.7317 6.21107 10.4714 6.47142L8.9428 8.00001L10.4714 9.52861C10.7317 9.78896 10.7317 10.2111 10.4714 10.4714C10.211 10.7318 9.78893 10.7318 9.52858 10.4714L7.99999 8.94282L6.47139 10.4714C6.21104 10.7318 5.78893 10.7318 5.52858 10.4714C5.26824 10.2111 5.26824 9.78896 5.52858 9.52861L7.05718 8.00001L5.52858 6.47142C5.26824 6.21107 5.26824 5.78896 5.52858 5.52861Z" fill="currentColor"/>
</svg>
