<svg width="24" height="24" viewBox="0 0 24 24" fill="none" xmlns="http://www.w3.org/2000/svg">
<path fill-rule="evenodd" clip-rule="evenodd" d="M12.7071 2.29289C12.5607 2.14645 12.3801 2.05492 12.191 2.01831C12.131 2.00669 12.0701 2.0006 12.0092 2.00004C11.7502 1.99768 11.4905 2.0953 11.2929 2.29289L11.2922 2.29361L8.29289 5.29289C7.90237 5.68342 7.90237 6.31658 8.29289 6.70711C8.68342 7.09763 9.31658 7.09763 9.70711 6.70711L11 5.41421V12.9999C11 13.5521 11.4477 13.9999 12 13.9999C12.5523 13.9999 13 13.5521 13 12.9999V5.41421L14.2929 6.70711C14.6834 7.09763 15.3166 7.09763 15.7071 6.70711C16.0976 6.31658 16.0976 5.68342 15.7071 5.29289L12.7079 2.29372L12.7071 2.29289ZM2 14C2 12.8954 2.89543 12 4 12H5.44445C6.54902 12 7.44445 12.8954 7.44445 14L7.44445 16H16.5556V14C16.5556 12.8954 17.451 12 18.5556 12H20C21.1046 12 22 12.8954 22 14V20C22 21.1046 21.1046 22 20 22H4C2.89543 22 2 21.1046 2 20V14ZM4 14L4 20L20 20V14H18.5556V16C18.5556 17.1045 17.6601 18 16.5556 18H7.44445C6.33988 18 5.44445 17.1046 5.44445 16V14H4Z" fill="currentColor"/>
</svg>
