<svg width="24" height="25" viewBox="0 0 24 25" fill="none" xmlns="http://www.w3.org/2000/svg">
<path fill-rule="evenodd" clip-rule="evenodd" d="M4 4.54102C2.89543 4.54102 2 5.43645 2 6.54102V17.541C2 18.6456 2.89543 19.541 4 19.541H8C8.55228 19.541 9 19.0933 9 18.541C9 17.9887 8.55228 17.541 8 17.541H4V11.541H19V12.041C19 12.5933 19.4477 13.041 20 13.041C20.5523 13.041 21 12.5933 21 12.041V6.54102C21 5.43645 20.1046 4.54102 19 4.54102H4ZM19 8.54102V6.54102H4V8.54102H19ZM6 14.4999C6 13.9476 6.44772 13.4999 7 13.4999H12.5C13.0523 13.4999 13.5 13.9476 13.5 14.4999C13.5 15.0522 13.0523 15.4999 12.5 15.4999H7C6.44772 15.4999 6 15.0522 6 14.4999ZM18.7071 14.7928C18.3166 14.4022 17.6834 14.4022 17.2929 14.7928C16.9024 15.1833 16.9024 15.8165 17.2929 16.207L18.5858 17.4999H12C11.4477 17.4999 11 17.9476 11 18.4999C11 19.0522 11.4477 19.4999 12 19.4999H18.5858L17.2929 20.7928C16.9024 21.1833 16.9024 21.8165 17.2929 22.207C17.6834 22.5975 18.3166 22.5975 18.7071 22.207L21.7065 19.2076L21.7071 19.207C22.0976 18.8165 22.0976 18.1833 21.7071 17.7928L21.7063 17.7919L18.7071 14.7928Z" fill="currentColor"/>
</svg>
