<svg width="11" height="10" viewBox="0 0 11 10" fill="none" xmlns="http://www.w3.org/2000/svg">
<path fill-rule="evenodd" clip-rule="evenodd" d="M6.83331 1.33333C6.83331 0.781044 6.3856 0.333328 5.83331 0.333328C5.28103 0.333328 4.83331 0.781044 4.83331 1.33333L4.83331 3.66666H1.83331C1.28103 3.66666 0.833313 4.11438 0.833313 4.66666C0.833313 5.21895 1.28103 5.66666 1.83331 5.66666H4.83331L4.83331 8.66666C4.83331 9.21895 5.28103 9.66666 5.83331 9.66666C6.3856 9.66666 6.83331 9.21895 6.83331 8.66666V5.66666H9.16665C9.71893 5.66666 10.1666 5.21895 10.1666 4.66666C10.1666 4.11438 9.71893 3.66666 9.16665 3.66666H6.83331V1.33333Z" fill="currentColor"/>
</svg>
