<svg width="24" height="24" viewBox="0 0 24 24" fill="none" xmlns="http://www.w3.org/2000/svg">
<path fill-rule="evenodd" clip-rule="evenodd" d="M11 2C9.89543 2 9 2.89543 9 4V4.5818C8.31982 4.85711 7.68651 5.223 7.11497 5.66424L6.59398 5.36344C5.63739 4.81116 4.41421 5.13891 3.86193 6.09549L2.81758 7.90436C2.26529 8.86095 2.59305 10.0841 3.54963 10.6364L4.07013 10.9369C4.02385 11.2851 4 11.64 4 12C4 12.3538 4.02304 12.7027 4.06776 13.0451L3.54132 13.3491C2.58473 13.9013 2.25698 15.1245 2.80927 16.0811L3.663 15.5882L2.80927 16.0811L3.87022 17.9187C4.42251 18.8753 5.64569 19.2031 6.60227 18.6508L7.12908 18.3466C7.69693 18.783 8.32541 19.1452 9 19.4182V20C9 21.1046 9.89543 22 11 22H13C14.1046 22 15 21.1046 15 20V19.4182C15.6792 19.1433 16.3116 18.7781 16.8825 18.3377L17.4045 18.6391C18.3611 19.1914 19.5843 18.8636 20.1366 17.9071L21.1839 16.0931C21.7362 15.1365 21.4084 13.9133 20.4518 13.361L19.9303 13.0599C19.9763 12.7128 20 12.3589 20 12C20 11.6477 19.9772 11.3003 19.9328 10.9593L20.4608 10.6545C21.4174 10.1022 21.7451 8.879 21.1928 7.92241L20.1277 6.07745C19.5754 5.12086 18.3522 4.79312 17.3956 5.3454L16.8672 5.65049C16.3003 5.2154 15.6731 4.85424 15 4.5818V4C15 2.89543 14.1046 2 13 2H11ZM11 4H13V5.28988V6.03561L13.7148 6.24833C14.6067 6.5138 15.413 6.98183 16.0796 7.60031L16.6206 8.10224L17.2597 7.73325L18.3956 7.07745L19.4608 8.92241L18.3263 9.5774L17.6879 9.94599L17.8511 10.6649C17.9484 11.0933 18 11.54 18 12C18 12.4656 17.9472 12.9176 17.8476 13.3508L17.6819 14.0712L18.3221 14.4408L19.4518 15.0931L18.4045 16.9071L17.2734 16.254L16.6325 15.884L16.0914 16.3887C15.4224 17.0127 14.612 17.4846 13.7148 17.7517L13 17.9644V18.7101V20H11V18.7101V17.9644L10.2853 17.7517C9.39198 17.4858 8.58473 17.0168 7.91753 16.397L7.37648 15.8944L6.73693 16.2636L5.60227 16.9187L4.54132 15.0811L5.67464 14.4268L6.31346 14.058L6.14968 13.3387C6.05187 12.9092 6 12.4613 6 12C6 11.5335 6.05305 11.0806 6.15303 10.6467L6.31906 9.92594L5.67855 9.55614L4.54963 8.90436L5.59398 7.09549L6.72432 7.74809L7.36551 8.11828L7.90671 7.61305C8.576 6.98826 9.38715 6.51562 10.2853 6.24833L11 6.03561V5.28988V4ZM14 12C14 13.1046 13.1046 14 12 14C10.8954 14 10 13.1046 10 12C10 10.8954 10.8954 10 12 10C13.1046 10 14 10.8954 14 12ZM16 12C16 14.2091 14.2092 16 12 16C9.79088 16 8.00001 14.2091 8.00001 12C8.00001 9.79086 9.79088 8 12 8C14.2092 8 16 9.79086 16 12Z" fill="currentColor"/>
</svg>
