<svg width="24" height="25" viewBox="0 0 24 25" fill="none" xmlns="http://www.w3.org/2000/svg">
<path d="M6 19C6.55228 19 7 18.5523 7 18C7 17.4477 6.55228 17 6 17C5.44772 17 5 17.4477 5 18C5 18.5523 5.44772 19 6 19Z" fill="currentColor"/>
<path fill-rule="evenodd" clip-rule="evenodd" d="M2 4C2 3.44772 2.44772 3 3 3H9C9.55228 3 10 3.44772 10 4V9.7753L14.6019 4.73823C14.9744 4.33049 15.607 4.30193 16.0147 4.67445L20.4444 8.72144C20.8521 9.09395 20.8807 9.72647 20.5081 10.1342L16.0627 15H21.2009C21.7532 15 22.2009 15.4477 22.2009 16V22C22.2009 22.5523 21.7532 23 21.2009 23H3C2.44772 23 2 22.5523 2 22V4ZM4 21V5H8V21H4ZM10.581 21H20.2009V17L14.2355 17L10.581 21ZM10 18.6708V12.7405L15.404 6.8255L18.3571 9.52349L10 18.6708Z" fill="currentColor"/>
</svg>
