<svg width="24" height="25" viewBox="0 0 24 25" fill="none" xmlns="http://www.w3.org/2000/svg">
<path d="M2 4C2 3.44772 2.44772 3 3 3H5.16542C6.132 3 6.96026 3.69125 7.13316 4.64223L8.83458 14L18.2192 14L19.7192 8H10C9.44772 8 9 7.55228 9 7C9 6.44772 9.44772 6 10 6H19.7192C21.0204 6 21.9751 7.22278 21.6595 8.48507L20.1595 14.4851C19.9369 15.3754 19.137 16 18.2192 16H8.83458C7.868 16 7.03974 15.3088 6.86684 14.3578L5.16542 5H3C2.44772 5 2 4.55228 2 4Z" fill="currentColor"/>
<path fill-rule="evenodd" clip-rule="evenodd" d="M9 23C10.6569 23 12 21.6569 12 20C12 18.3431 10.6569 17 9 17C7.34315 17 6 18.3431 6 20C6 21.6569 7.34315 23 9 23ZM9 21C9.55228 21 10 20.5523 10 20C10 19.4477 9.55228 19 9 19C8.44772 19 8 19.4477 8 20C8 20.5523 8.44772 21 9 21Z" fill="currentColor"/>
<path fill-rule="evenodd" clip-rule="evenodd" d="M20 20C20 21.6569 18.6569 23 17 23C15.3431 23 14 21.6569 14 20C14 18.3431 15.3431 17 17 17C18.6569 17 20 18.3431 20 20ZM18 20C18 20.5523 17.5523 21 17 21C16.4477 21 16 20.5523 16 20C16 19.4477 16.4477 19 17 19C17.5523 19 18 19.4477 18 20Z" fill="currentColor"/>
</svg>
