<svg width="24" height="25" viewBox="0 0 24 25" fill="none" xmlns="http://www.w3.org/2000/svg">
<path fill-rule="evenodd" clip-rule="evenodd" d="M7.29289 8.66597C6.90237 8.27544 6.90237 7.64228 7.29289 7.25176L11.2929 3.25176C11.6834 2.86123 12.3166 2.86123 12.7071 3.25176L16.7071 7.25176C17.0976 7.64228 17.0976 8.27544 16.7071 8.66597C16.3166 9.05649 15.6834 9.05649 15.2929 8.66597L12 5.37308L8.70711 8.66597C8.31658 9.05649 7.68342 9.05649 7.29289 8.66597ZM16.7071 17.2518C17.0976 17.6423 17.0976 18.2754 16.7071 18.666L12.7071 22.666C12.3166 23.0565 11.6834 23.0565 11.2929 22.666L7.29289 18.666C6.90237 18.2754 6.90237 17.6423 7.29289 17.2518C7.68342 16.8612 8.31658 16.8612 8.70711 17.2518L12 20.5446L15.2929 17.2518C15.6834 16.8612 16.3166 16.8612 16.7071 17.2518ZM4 11.9589C3.44772 11.9589 3 12.4066 3 12.9589C3 13.5111 3.44772 13.9589 4 13.9589H20C20.5523 13.9589 21 13.5111 21 12.9589C21 12.4066 20.5523 11.9589 20 11.9589H4Z" fill="currentColor"/>
</svg>
