<svg width="24" height="25" viewBox="0 0 24 25" fill="none" xmlns="http://www.w3.org/2000/svg">
<path fill-rule="evenodd" clip-rule="evenodd" d="M12.2071 2.25176C11.8166 1.86123 11.1834 1.86123 10.7929 2.25176C10.4024 2.64228 10.4024 3.27544 10.7929 3.66597L12.0858 4.95886H12C7.58172 4.95886 4 8.54058 4 12.9589C4 17.3771 7.58172 20.9589 12 20.9589C16.4183 20.9589 20 17.3771 20 12.9589C20 12.4066 19.5523 11.9589 19 11.9589C18.4477 11.9589 18 12.4066 18 12.9589C18 16.2726 15.3137 18.9589 12 18.9589C8.68629 18.9589 6 16.2726 6 12.9589C6 9.64515 8.68629 6.95886 12 6.95886H12.0858L10.7929 8.25176C10.4024 8.64228 10.4024 9.27544 10.7929 9.66597C11.1834 10.0565 11.8166 10.0565 12.2071 9.66597L15.2071 6.66597C15.5976 6.27544 15.5976 5.64228 15.2071 5.25176L12.2071 2.25176Z" fill="currentColor"/>
</svg>
