<svg width="24" height="24" viewBox="0 0 24 24" fill="none" xmlns="http://www.w3.org/2000/svg">
<path fill-rule="evenodd" clip-rule="evenodd" d="M3 5C3 3.89543 3.89543 3 5 3H8.5H13.5H15.1716C15.9672 3 16.7303 3.31607 17.2929 3.87868L20.1213 6.70711C20.6839 7.26972 21 8.03278 21 8.82843V19C21 20.1046 20.1046 21 19 21H15.5H8.5H5C3.89543 21 3 20.1046 3 19V5ZM9 19H15V14H9V19ZM17 19V13.5C17 12.6716 16.3284 12 15.5 12H8.5C7.67157 12 7 12.6716 7 13.5V19H5V5H7V7.5C7 8.32843 7.67157 9 8.5 9H13.5C14.3284 9 15 8.32843 15 7.5V5H15.1716C15.4368 5 15.6911 5.10536 15.8787 5.29289L18.7071 8.12132C18.8946 8.30886 19 8.56321 19 8.82843V19H17ZM9 5H13V7H9V5Z" fill="currentColor"/>
</svg>
