<svg width="48" height="48" viewBox="0 0 48 48" fill="none" xmlns="http://www.w3.org/2000/svg">
<path fill-rule="evenodd" clip-rule="evenodd" d="M12 5.99951H16V9.99951H12C10.8954 9.99951 10 10.8949 10 11.9995L10 15.9995H6V11.9995C6 8.6858 8.68629 5.99951 12 5.99951ZM32 5.99951V9.99951H36C37.1046 9.99951 38 10.8949 38 11.9995V15.9995L42 15.9995V11.9995C42 8.6858 39.3137 5.99951 36 5.99951H32ZM38 35.9995C38 37.1041 37.1046 37.9995 36 37.9995H32V41.9995H36C39.3137 41.9995 42 39.3132 42 35.9995V31.9995H38V35.9995ZM10 35.9995L10 31.9995H6V35.9995C6 39.3132 8.68629 41.9995 12 41.9995H16V37.9995H12C10.8954 37.9995 10 37.1041 10 35.9995ZM16 14.9172C14.8954 14.9172 14 15.8127 14 16.9172C14 18.0218 14.8954 18.9172 16 18.9172H32C33.1046 18.9172 34 18.0218 34 16.9172C34 15.8127 33.1046 14.9172 32 14.9172H16ZM6 21.9995C4.89543 21.9995 4 22.8949 4 23.9995C4 25.1041 4.89543 25.9995 6 25.9995H42C43.1046 25.9995 44 25.1041 44 23.9995C44 22.8949 43.1046 21.9995 42 21.9995H6ZM16 28.9172C14.8954 28.9172 14 29.8127 14 30.9172C14 32.0218 14.8954 32.9172 16 32.9172H32C33.1046 32.9172 34 32.0218 34 30.9172C34 29.8127 33.1046 28.9172 32 28.9172H16Z" fill="currentColor"/>
</svg>
