<svg width="24" height="24" viewBox="0 0 24 24" fill="none" xmlns="http://www.w3.org/2000/svg">
<path fill-rule="evenodd" clip-rule="evenodd" d="M14 10C14 12.2091 12.2091 14 10 14C7.79086 14 6 12.2091 6 10C6 7.79086 7.79086 6 10 6C12.2091 6 14 7.79086 14 10ZM13.7133 14.7133C12.6918 15.5191 11.4021 16 10 16C6.68629 16 4 13.3137 4 10C4 6.68629 6.68629 4 10 4C13.3137 4 16 6.68629 16 10C16 11.1903 15.6534 12.2997 15.0556 13.2327C15.0781 13.2516 15.1001 13.2717 15.1213 13.2929L19.364 17.5355C19.7545 17.9261 19.7545 18.5592 19.364 18.9497C18.9734 19.3403 18.3403 19.3403 17.9497 18.9497L13.7133 14.7133Z" fill="currentColor"/>
</svg>
