<svg width="16" height="16" viewBox="0 0 16 16" fill="none" xmlns="http://www.w3.org/2000/svg">
<path fill-rule="evenodd" clip-rule="evenodd" d="M3.5 6.75C3.5 4.95507 4.95507 3.5 6.75 3.5C8.54493 3.5 10 4.95507 10 6.75C10 8.54493 8.54493 10 6.75 10C4.95507 10 3.5 8.54493 3.5 6.75ZM6.75 2C4.12665 2 2 4.12665 2 6.75C2 9.37335 4.12665 11.5 6.75 11.5C7.79101 11.5 8.75381 11.1651 9.53654 10.5972L12.7197 13.7803C13.0126 14.0732 13.4874 14.0732 13.7803 13.7803C14.0732 13.4874 14.0732 13.0126 13.7803 12.7197L10.5972 9.53654C11.1651 8.75381 11.5 7.79101 11.5 6.75C11.5 4.12665 9.37335 2 6.75 2Z" fill="currentColor"/>
</svg>
