<svg width="32" height="33" viewBox="0 0 32 33" fill="none" xmlns="http://www.w3.org/2000/svg">
<path fill-rule="evenodd" clip-rule="evenodd" d="M15.9842 6.16995C15.9938 6.16438 16.0061 6.16438 16.0157 6.16995C19.9457 8.44575 24.3046 10.1009 25.9682 10.6984C25.7764 13.4564 24.4835 22.8974 16 27.7743C7.51648 22.8974 6.22354 13.4564 6.03174 10.6984C7.69534 10.1009 12.0543 8.44573 15.9842 6.16995ZM17.018 4.43921C16.3884 4.07463 15.6115 4.07463 14.982 4.4392C11.1961 6.63154 6.9553 8.24223 5.33927 8.82203C4.55504 9.1034 3.9715 9.86153 4.03259 10.7789C4.21952 13.5862 5.53368 24.0819 15.0285 29.5228C15.628 29.8663 16.372 29.8663 16.9714 29.5228C26.4663 24.0819 27.7804 13.5862 27.9674 10.7789C28.0285 9.86153 27.4449 9.1034 26.6607 8.82203C25.0446 8.24224 20.8038 6.63156 17.018 4.43921ZM21.7071 14.6659C22.0976 14.2754 22.0976 13.6422 21.7071 13.2517C21.3166 12.8612 20.6834 12.8612 20.2929 13.2517L15 18.5446L12.7071 16.2517C12.3166 15.8612 11.6834 15.8612 11.2929 16.2517C10.9023 16.6422 10.9023 17.2754 11.2929 17.6659L14.2929 20.6659C14.6834 21.0564 15.3166 21.0564 15.7071 20.6659L21.7071 14.6659Z" fill="currentColor"/>
</svg>
