<svg width="376" height="240" viewBox="0 0 376 240" fill="none" xmlns="http://www.w3.org/2000/svg">
<path fill-rule="evenodd" clip-rule="evenodd" d="M161.127 1.15111C167.228 0.141491 173.554 -0.172932 179.966 0.0982222C201.956 1.02418 224.929 8.80399 243.114 18.8598C268.048 32.6482 288.578 53.3453 304.259 76.9732C311.343 87.6463 317.064 99.7703 317.219 112.578C317.639 146.852 284.667 156.402 257.617 164.236C256.389 164.592 255.174 164.944 253.974 165.294C233.88 171.167 213.114 174.961 192.154 175.491C167.926 176.106 143.375 172.157 120.956 162.802C100.838 154.408 75.0991 140.371 64.201 120.741C58.2039 109.936 56.5827 96.1473 62.3635 85.2232C70.6741 69.5251 91.1923 63.3348 107.444 60.2223C108.17 60.0833 108.902 59.9497 109.637 59.8157C115.094 58.8198 120.693 57.798 124.974 54.3607C131.713 48.9491 132.95 40.6203 134.194 32.2494C135.152 25.7974 136.114 19.3204 139.602 14.1348C144.477 6.88572 152.62 2.5588 161.127 1.15111ZM330.226 236.371C330.226 238.372 269.459 239.994 194.499 239.994C119.539 239.994 58.772 238.372 58.772 236.371C58.772 234.37 119.539 232.748 194.499 232.748C269.459 232.748 330.226 234.37 330.226 236.371Z" fill="#D4D2EF"/>
<path d="M270.61 233.797H298.876V127.219H270.61V233.797Z" fill="#211C4E"/>
<path d="M218.593 233.797H270.611V127.219H218.593V233.797Z" fill="#4A41B4"/>
<path d="M229.164 127.22L288.307 127.22V123.934H229.164V127.22Z" fill="#312B78"/>
<path d="M299.165 234.087H270.322V126.929H299.165V234.087ZM270.901 233.51H298.591V127.506H270.901V233.51Z" fill="#211C4E"/>
<path d="M270.901 234.087H218.306V126.929H270.901V234.087ZM218.883 233.51H270.324V127.506H218.883V233.51Z" fill="#211C4E"/>
<path d="M228.93 127.454V123.698H288.544V127.454H228.93ZM229.398 126.984H288.071V124.168H229.398V126.984Z" fill="#211C4E"/>
<path d="M221.846 141.9H266.713V131.538H221.846V141.9Z" fill="#312B78"/>
<path d="M239.283 134.125H264.823V133.251H239.283V134.125Z" fill="#4A41B4"/>
<path d="M239.283 135.64H264.823V134.766H239.283V135.64Z" fill="#4A41B4"/>
<path d="M239.283 137.158H264.823V136.284H239.283V137.158Z" fill="#4A41B4"/>
<path d="M239.283 138.673H264.823V137.799H239.283V138.673Z" fill="#4A41B4"/>
<path d="M239.283 140.188H264.823V139.313H239.283V140.188Z" fill="#4A41B4"/>
<path d="M232.637 134.986C233.117 134.986 233.505 134.597 233.505 134.117C233.505 133.638 233.117 133.249 232.637 133.249C232.158 133.249 231.769 133.638 231.769 134.117C231.769 134.597 232.158 134.986 232.637 134.986Z" fill="#F1F0FA"/>
<path d="M226.051 134.117C226.051 134.596 226.441 134.986 226.92 134.986C227.399 134.986 227.788 134.596 227.788 134.117C227.788 133.638 227.399 133.249 226.92 133.249C226.438 133.249 226.051 133.638 226.051 134.117Z" fill="#F1F0FA"/>
<path d="M223.19 136.719C223.19 137.198 223.579 137.587 224.058 137.587C224.537 137.587 224.926 137.198 224.926 136.719C224.926 136.24 224.537 135.851 224.058 135.851C223.579 135.851 223.19 136.24 223.19 136.719Z" fill="#F1F0FA"/>
<path d="M231.769 139.321C231.769 139.8 232.158 140.189 232.637 140.189C233.116 140.189 233.505 139.8 233.505 139.321C233.505 138.842 233.116 138.453 232.637 138.453C232.158 138.453 231.769 138.842 231.769 139.321Z" fill="#F1F0FA"/>
<path d="M234.627 134.117C234.627 134.596 235.017 134.986 235.496 134.986C235.975 134.986 236.364 134.596 236.364 134.117C236.364 133.638 235.975 133.249 235.496 133.249C235.017 133.249 234.627 133.638 234.627 134.117Z" fill="#50E2D1"/>
<path d="M229.776 134.986C230.255 134.986 230.644 134.597 230.644 134.117C230.644 133.638 230.255 133.249 229.776 133.249C229.296 133.249 228.907 133.638 228.907 134.117C228.907 134.597 229.296 134.986 229.776 134.986Z" fill="#50E2D1"/>
<path d="M223.19 134.117C223.19 134.596 223.579 134.986 224.058 134.986C224.537 134.986 224.926 134.596 224.926 134.117C224.926 133.638 224.537 133.249 224.058 133.249C223.579 133.249 223.19 133.638 223.19 134.117Z" fill="#50E2D1"/>
<path d="M234.627 136.719C234.627 137.198 235.017 137.587 235.496 137.587C235.975 137.587 236.364 137.198 236.364 136.719C236.364 136.24 235.975 135.851 235.496 135.851C235.017 135.851 234.627 136.24 234.627 136.719Z" fill="#50E2D1"/>
<path d="M231.769 136.719C231.769 137.198 232.158 137.587 232.637 137.587C233.116 137.587 233.505 137.198 233.505 136.719C233.505 136.24 233.116 135.851 232.637 135.851C232.158 135.851 231.769 136.24 231.769 136.719Z" fill="#50E2D1"/>
<path d="M228.91 136.719C228.91 137.198 229.3 137.587 229.778 137.587C230.257 137.587 230.647 137.198 230.647 136.719C230.647 136.24 230.257 135.851 229.778 135.851C229.297 135.851 228.91 136.24 228.91 136.719Z" fill="#50E2D1"/>
<path d="M226.051 136.719C226.051 137.198 226.441 137.587 226.92 137.587C227.399 137.587 227.788 137.198 227.788 136.719C227.788 136.24 227.399 135.851 226.92 135.851C226.438 135.851 226.051 136.24 226.051 136.719Z" fill="#50E2D1"/>
<path d="M234.627 139.321C234.627 139.8 235.017 140.189 235.496 140.189C235.975 140.189 236.364 139.8 236.364 139.321C236.364 138.842 235.975 138.453 235.496 138.453C235.017 138.453 234.627 138.842 234.627 139.321Z" fill="#50E2D1"/>
<path d="M228.91 139.321C228.91 139.8 229.3 140.189 229.778 140.189C230.257 140.189 230.647 139.8 230.647 139.321C230.647 138.842 230.257 138.453 229.778 138.453C229.297 138.453 228.91 138.842 228.91 139.321Z" fill="#50E2D1"/>
<path d="M223.19 139.321C223.19 139.8 223.579 140.189 224.058 140.189C224.537 140.189 224.926 139.8 224.926 139.321C224.926 138.842 224.537 138.453 224.058 138.453C223.579 138.453 223.19 138.842 223.19 139.321Z" fill="#50E2D1"/>
<path d="M237.508 140.189H238.007V133.252H237.508V140.189Z" fill="#211C4E"/>
<path d="M221.846 154.569H266.713V144.208H221.846V154.569Z" fill="#312B78"/>
<path d="M239.283 146.795H264.823V145.921H239.283V146.795Z" fill="#4A41B4"/>
<path d="M239.283 148.31H264.823V147.436H239.283V148.31Z" fill="#4A41B4"/>
<path d="M239.283 149.827H264.823V148.953H239.283V149.827Z" fill="#4A41B4"/>
<path d="M239.283 151.342H264.823V150.468H239.283V151.342Z" fill="#4A41B4"/>
<path d="M239.283 152.857H264.823V151.983H239.283V152.857Z" fill="#4A41B4"/>
<path d="M232.637 147.655C233.117 147.655 233.505 147.266 233.505 146.787C233.505 146.307 233.117 145.918 232.637 145.918C232.158 145.918 231.769 146.307 231.769 146.787C231.769 147.266 232.158 147.655 232.637 147.655Z" fill="#F1F0FA"/>
<path d="M226.051 146.787C226.051 147.266 226.441 147.655 226.92 147.655C227.399 147.655 227.788 147.266 227.788 146.787C227.788 146.308 227.399 145.918 226.92 145.918C226.438 145.918 226.051 146.308 226.051 146.787Z" fill="#F1F0FA"/>
<path d="M223.19 149.389C223.19 149.867 223.579 150.257 224.058 150.257C224.537 150.257 224.926 149.867 224.926 149.389C224.926 148.91 224.537 148.52 224.058 148.52C223.579 148.52 223.19 148.91 223.19 149.389Z" fill="#F1F0FA"/>
<path d="M231.769 151.991C231.769 152.469 232.158 152.859 232.637 152.859C233.116 152.859 233.505 152.469 233.505 151.991C233.505 151.512 233.116 151.122 232.637 151.122C232.158 151.122 231.769 151.512 231.769 151.991Z" fill="#F1F0FA"/>
<path d="M234.627 146.787C234.627 147.266 235.017 147.655 235.496 147.655C235.975 147.655 236.364 147.266 236.364 146.787C236.364 146.308 235.975 145.918 235.496 145.918C235.017 145.918 234.627 146.308 234.627 146.787Z" fill="#50E2D1"/>
<path d="M229.776 147.655C230.255 147.655 230.644 147.266 230.644 146.787C230.644 146.307 230.255 145.918 229.776 145.918C229.296 145.918 228.907 146.307 228.907 146.787C228.907 147.266 229.296 147.655 229.776 147.655Z" fill="#50E2D1"/>
<path d="M223.19 146.787C223.19 147.266 223.579 147.655 224.058 147.655C224.537 147.655 224.926 147.266 224.926 146.787C224.926 146.308 224.537 145.918 224.058 145.918C223.579 145.918 223.19 146.308 223.19 146.787Z" fill="#50E2D1"/>
<path d="M234.627 149.389C234.627 149.867 235.017 150.257 235.496 150.257C235.975 150.257 236.364 149.867 236.364 149.389C236.364 148.91 235.975 148.52 235.496 148.52C235.017 148.52 234.627 148.91 234.627 149.389Z" fill="#50E2D1"/>
<path d="M231.769 149.389C231.769 149.867 232.158 150.257 232.637 150.257C233.116 150.257 233.505 149.867 233.505 149.389C233.505 148.91 233.116 148.52 232.637 148.52C232.158 148.52 231.769 148.91 231.769 149.389Z" fill="#50E2D1"/>
<path d="M228.91 149.389C228.91 149.867 229.3 150.257 229.778 150.257C230.257 150.257 230.647 149.867 230.647 149.389C230.647 148.91 230.257 148.52 229.778 148.52C229.297 148.52 228.91 148.91 228.91 149.389Z" fill="#50E2D1"/>
<path d="M226.051 149.389C226.051 149.867 226.441 150.257 226.92 150.257C227.399 150.257 227.788 149.867 227.788 149.389C227.788 148.91 227.399 148.52 226.92 148.52C226.438 148.52 226.051 148.91 226.051 149.389Z" fill="#50E2D1"/>
<path d="M234.627 151.991C234.627 152.469 235.017 152.859 235.496 152.859C235.975 152.859 236.364 152.469 236.364 151.991C236.364 151.512 235.975 151.122 235.496 151.122C235.017 151.122 234.627 151.512 234.627 151.991Z" fill="#50E2D1"/>
<path d="M228.91 151.991C228.91 152.469 229.3 152.859 229.778 152.859C230.257 152.859 230.647 152.469 230.647 151.991C230.647 151.512 230.257 151.122 229.778 151.122C229.297 151.122 228.91 151.512 228.91 151.991Z" fill="#50E2D1"/>
<path d="M223.19 151.991C223.19 152.469 223.579 152.859 224.058 152.859C224.537 152.859 224.926 152.469 224.926 151.991C224.926 151.512 224.537 151.122 224.058 151.122C223.579 151.122 223.19 151.512 223.19 151.991Z" fill="#50E2D1"/>
<path d="M237.508 152.859H238.007V145.921H237.508V152.859Z" fill="#211C4E"/>
<path d="M221.846 167.238H266.713V156.877H221.846V167.238Z" fill="#312B78"/>
<path d="M239.283 159.464H264.823V158.59H239.283V159.464Z" fill="#4A41B4"/>
<path d="M239.283 160.979H264.823V160.105H239.283V160.979Z" fill="#4A41B4"/>
<path d="M239.283 162.496H264.823V161.622H239.283V162.496Z" fill="#4A41B4"/>
<path d="M239.283 164.011H264.823V163.137H239.283V164.011Z" fill="#4A41B4"/>
<path d="M239.283 165.526H264.823V164.652H239.283V165.526Z" fill="#4A41B4"/>
<path d="M232.637 160.324C233.117 160.324 233.505 159.935 233.505 159.456C233.505 158.976 233.117 158.587 232.637 158.587C232.158 158.587 231.769 158.976 231.769 159.456C231.769 159.935 232.158 160.324 232.637 160.324Z" fill="#F1F0FA"/>
<path d="M226.051 159.456C226.051 159.935 226.441 160.324 226.92 160.324C227.399 160.324 227.788 159.935 227.788 159.456C227.788 158.977 227.399 158.587 226.92 158.587C226.438 158.587 226.051 158.977 226.051 159.456Z" fill="#F1F0FA"/>
<path d="M223.19 162.058C223.19 162.536 223.579 162.926 224.058 162.926C224.537 162.926 224.926 162.536 224.926 162.058C224.926 161.579 224.537 161.189 224.058 161.189C223.579 161.189 223.19 161.579 223.19 162.058Z" fill="#F1F0FA"/>
<path d="M231.769 164.66C231.769 165.138 232.158 165.528 232.637 165.528C233.116 165.528 233.505 165.138 233.505 164.66C233.505 164.181 233.116 163.791 232.637 163.791C232.158 163.791 231.769 164.181 231.769 164.66Z" fill="#F1F0FA"/>
<path d="M234.627 159.456C234.627 159.935 235.017 160.324 235.496 160.324C235.975 160.324 236.364 159.935 236.364 159.456C236.364 158.977 235.975 158.587 235.496 158.587C235.017 158.587 234.627 158.977 234.627 159.456Z" fill="#50E2D1"/>
<path d="M229.776 160.324C230.255 160.324 230.644 159.935 230.644 159.456C230.644 158.976 230.255 158.587 229.776 158.587C229.296 158.587 228.907 158.976 228.907 159.456C228.907 159.935 229.296 160.324 229.776 160.324Z" fill="#50E2D1"/>
<path d="M223.19 159.456C223.19 159.935 223.579 160.324 224.058 160.324C224.537 160.324 224.926 159.935 224.926 159.456C224.926 158.977 224.537 158.587 224.058 158.587C223.579 158.587 223.19 158.977 223.19 159.456Z" fill="#50E2D1"/>
<path d="M234.627 162.058C234.627 162.536 235.017 162.926 235.496 162.926C235.975 162.926 236.364 162.536 236.364 162.058C236.364 161.579 235.975 161.189 235.496 161.189C235.017 161.189 234.627 161.579 234.627 162.058Z" fill="#50E2D1"/>
<path d="M231.769 162.058C231.769 162.536 232.158 162.926 232.637 162.926C233.116 162.926 233.505 162.536 233.505 162.058C233.505 161.579 233.116 161.189 232.637 161.189C232.158 161.189 231.769 161.579 231.769 162.058Z" fill="#50E2D1"/>
<path d="M228.91 162.058C228.91 162.536 229.3 162.926 229.778 162.926C230.257 162.926 230.647 162.536 230.647 162.058C230.647 161.579 230.257 161.189 229.778 161.189C229.297 161.189 228.91 161.579 228.91 162.058Z" fill="#50E2D1"/>
<path d="M226.051 162.058C226.051 162.536 226.441 162.926 226.92 162.926C227.399 162.926 227.788 162.536 227.788 162.058C227.788 161.579 227.399 161.189 226.92 161.189C226.438 161.189 226.051 161.579 226.051 162.058Z" fill="#50E2D1"/>
<path d="M234.627 164.66C234.627 165.138 235.017 165.528 235.496 165.528C235.975 165.528 236.364 165.138 236.364 164.66C236.364 164.181 235.975 163.791 235.496 163.791C235.017 163.791 234.627 164.181 234.627 164.66Z" fill="#50E2D1"/>
<path d="M228.91 164.66C228.91 165.138 229.3 165.528 229.778 165.528C230.257 165.528 230.647 165.138 230.647 164.66C230.647 164.181 230.257 163.791 229.778 163.791C229.297 163.791 228.91 164.181 228.91 164.66Z" fill="#50E2D1"/>
<path d="M223.19 164.66C223.19 165.138 223.579 165.528 224.058 165.528C224.537 165.528 224.926 165.138 224.926 164.66C224.926 164.181 224.537 163.791 224.058 163.791C223.579 163.791 223.19 164.181 223.19 164.66Z" fill="#50E2D1"/>
<path d="M237.508 165.528H238.007V158.59H237.508V165.528Z" fill="#211C4E"/>
<path d="M221.846 179.908H266.713V169.546H221.846V179.908Z" fill="#312B78"/>
<path d="M239.283 172.133H264.823V171.259H239.283V172.133Z" fill="#4A41B4"/>
<path d="M239.283 173.648H264.823V172.774H239.283V173.648Z" fill="#4A41B4"/>
<path d="M239.283 175.166H264.823V174.292H239.283V175.166Z" fill="#4A41B4"/>
<path d="M239.283 176.681H264.823V175.807H239.283V176.681Z" fill="#4A41B4"/>
<path d="M239.283 178.195H264.823V177.321H239.283V178.195Z" fill="#4A41B4"/>
<path d="M232.637 172.993C233.117 172.993 233.505 172.605 233.505 172.125C233.505 171.646 233.117 171.257 232.637 171.257C232.158 171.257 231.769 171.646 231.769 172.125C231.769 172.605 232.158 172.993 232.637 172.993Z" fill="#F1F0FA"/>
<path d="M226.051 172.125C226.051 172.604 226.441 172.993 226.92 172.993C227.399 172.993 227.788 172.604 227.788 172.125C227.788 171.646 227.399 171.257 226.92 171.257C226.438 171.257 226.051 171.646 226.051 172.125Z" fill="#F1F0FA"/>
<path d="M223.19 174.727C223.19 175.206 223.579 175.595 224.058 175.595C224.537 175.595 224.926 175.206 224.926 174.727C224.926 174.248 224.537 173.859 224.058 173.859C223.579 173.859 223.19 174.248 223.19 174.727Z" fill="#F1F0FA"/>
<path d="M231.769 177.329C231.769 177.808 232.158 178.197 232.637 178.197C233.116 178.197 233.505 177.808 233.505 177.329C233.505 176.85 233.116 176.461 232.637 176.461C232.158 176.461 231.769 176.85 231.769 177.329Z" fill="#F1F0FA"/>
<path d="M234.627 172.125C234.627 172.604 235.017 172.993 235.496 172.993C235.975 172.993 236.364 172.604 236.364 172.125C236.364 171.646 235.975 171.257 235.496 171.257C235.017 171.257 234.627 171.646 234.627 172.125Z" fill="#50E2D1"/>
<path d="M229.776 172.993C230.255 172.993 230.644 172.605 230.644 172.125C230.644 171.646 230.255 171.257 229.776 171.257C229.296 171.257 228.907 171.646 228.907 172.125C228.907 172.605 229.296 172.993 229.776 172.993Z" fill="#50E2D1"/>
<path d="M223.19 172.125C223.19 172.604 223.579 172.993 224.058 172.993C224.537 172.993 224.926 172.604 224.926 172.125C224.926 171.646 224.537 171.257 224.058 171.257C223.579 171.257 223.19 171.646 223.19 172.125Z" fill="#50E2D1"/>
<path d="M234.627 174.727C234.627 175.206 235.017 175.595 235.496 175.595C235.975 175.595 236.364 175.206 236.364 174.727C236.364 174.248 235.975 173.859 235.496 173.859C235.017 173.859 234.627 174.248 234.627 174.727Z" fill="#50E2D1"/>
<path d="M231.769 174.727C231.769 175.206 232.158 175.595 232.637 175.595C233.116 175.595 233.505 175.206 233.505 174.727C233.505 174.248 233.116 173.859 232.637 173.859C232.158 173.859 231.769 174.248 231.769 174.727Z" fill="#50E2D1"/>
<path d="M228.91 174.727C228.91 175.206 229.3 175.595 229.778 175.595C230.257 175.595 230.647 175.206 230.647 174.727C230.647 174.248 230.257 173.859 229.778 173.859C229.297 173.859 228.91 174.248 228.91 174.727Z" fill="#50E2D1"/>
<path d="M226.051 174.727C226.051 175.206 226.441 175.595 226.92 175.595C227.399 175.595 227.788 175.206 227.788 174.727C227.788 174.248 227.399 173.859 226.92 173.859C226.438 173.859 226.051 174.248 226.051 174.727Z" fill="#50E2D1"/>
<path d="M234.627 177.329C234.627 177.808 235.017 178.197 235.496 178.197C235.975 178.197 236.364 177.808 236.364 177.329C236.364 176.85 235.975 176.461 235.496 176.461C235.017 176.461 234.627 176.85 234.627 177.329Z" fill="#50E2D1"/>
<path d="M228.91 177.329C228.91 177.808 229.3 178.197 229.778 178.197C230.257 178.197 230.647 177.808 230.647 177.329C230.647 176.85 230.257 176.461 229.778 176.461C229.297 176.461 228.91 176.85 228.91 177.329Z" fill="#50E2D1"/>
<path d="M223.19 177.329C223.19 177.808 223.579 178.197 224.058 178.197C224.537 178.197 224.926 177.808 224.926 177.329C224.926 176.85 224.537 176.461 224.058 176.461C223.579 176.461 223.19 176.85 223.19 177.329Z" fill="#50E2D1"/>
<path d="M237.508 178.197H238.007V171.26H237.508V178.197Z" fill="#211C4E"/>
<path d="M221.846 192.577H266.713V182.216H221.846V192.577Z" fill="#312B78"/>
<path d="M239.283 184.803H264.823V183.929H239.283V184.803Z" fill="#4A41B4"/>
<path d="M239.283 186.318H264.823V185.444H239.283V186.318Z" fill="#4A41B4"/>
<path d="M239.283 187.835H264.823V186.961H239.283V187.835Z" fill="#4A41B4"/>
<path d="M239.283 189.35H264.823V188.476H239.283V189.35Z" fill="#4A41B4"/>
<path d="M239.283 190.865H264.823V189.991H239.283V190.865Z" fill="#4A41B4"/>
<path d="M232.637 185.663C233.117 185.663 233.505 185.274 233.505 184.795C233.505 184.315 233.117 183.926 232.637 183.926C232.158 183.926 231.769 184.315 231.769 184.795C231.769 185.274 232.158 185.663 232.637 185.663Z" fill="#F1F0FA"/>
<path d="M226.051 184.795C226.051 185.273 226.441 185.663 226.92 185.663C227.399 185.663 227.788 185.273 227.788 184.795C227.788 184.316 227.399 183.926 226.92 183.926C226.438 183.926 226.051 184.316 226.051 184.795Z" fill="#F1F0FA"/>
<path d="M223.19 187.396C223.19 187.875 223.579 188.265 224.058 188.265C224.537 188.265 224.926 187.875 224.926 187.396C224.926 186.918 224.537 186.528 224.058 186.528C223.579 186.528 223.19 186.918 223.19 187.396Z" fill="#F1F0FA"/>
<path d="M231.769 189.998C231.769 190.477 232.158 190.867 232.637 190.867C233.116 190.867 233.505 190.477 233.505 189.998C233.505 189.52 233.116 189.13 232.637 189.13C232.158 189.13 231.769 189.52 231.769 189.998Z" fill="#F1F0FA"/>
<path d="M234.627 184.795C234.627 185.273 235.017 185.663 235.496 185.663C235.975 185.663 236.364 185.273 236.364 184.795C236.364 184.316 235.975 183.926 235.496 183.926C235.017 183.926 234.627 184.316 234.627 184.795Z" fill="#50E2D1"/>
<path d="M229.776 185.663C230.255 185.663 230.644 185.274 230.644 184.795C230.644 184.315 230.255 183.926 229.776 183.926C229.296 183.926 228.907 184.315 228.907 184.795C228.907 185.274 229.296 185.663 229.776 185.663Z" fill="#50E2D1"/>
<path d="M223.19 184.795C223.19 185.273 223.579 185.663 224.058 185.663C224.537 185.663 224.926 185.273 224.926 184.795C224.926 184.316 224.537 183.926 224.058 183.926C223.579 183.926 223.19 184.316 223.19 184.795Z" fill="#50E2D1"/>
<path d="M234.627 187.396C234.627 187.875 235.017 188.265 235.496 188.265C235.975 188.265 236.364 187.875 236.364 187.396C236.364 186.918 235.975 186.528 235.496 186.528C235.017 186.528 234.627 186.918 234.627 187.396Z" fill="#50E2D1"/>
<path d="M231.769 187.396C231.769 187.875 232.158 188.265 232.637 188.265C233.116 188.265 233.505 187.875 233.505 187.396C233.505 186.918 233.116 186.528 232.637 186.528C232.158 186.528 231.769 186.918 231.769 187.396Z" fill="#50E2D1"/>
<path d="M228.91 187.396C228.91 187.875 229.3 188.265 229.778 188.265C230.257 188.265 230.647 187.875 230.647 187.396C230.647 186.918 230.257 186.528 229.778 186.528C229.297 186.528 228.91 186.918 228.91 187.396Z" fill="#50E2D1"/>
<path d="M226.051 187.396C226.051 187.875 226.441 188.265 226.92 188.265C227.399 188.265 227.788 187.875 227.788 187.396C227.788 186.918 227.399 186.528 226.92 186.528C226.438 186.528 226.051 186.918 226.051 187.396Z" fill="#50E2D1"/>
<path d="M234.627 189.998C234.627 190.477 235.017 190.867 235.496 190.867C235.975 190.867 236.364 190.477 236.364 189.998C236.364 189.52 235.975 189.13 235.496 189.13C235.017 189.13 234.627 189.52 234.627 189.998Z" fill="#50E2D1"/>
<path d="M228.91 189.998C228.91 190.477 229.3 190.867 229.778 190.867C230.257 190.867 230.647 190.477 230.647 189.998C230.647 189.52 230.257 189.13 229.778 189.13C229.297 189.13 228.91 189.52 228.91 189.998Z" fill="#50E2D1"/>
<path d="M223.19 189.998C223.19 190.477 223.579 190.867 224.058 190.867C224.537 190.867 224.926 190.477 224.926 189.998C224.926 189.52 224.537 189.13 224.058 189.13C223.579 189.13 223.19 189.52 223.19 189.998Z" fill="#50E2D1"/>
<path d="M237.508 190.867H238.007V183.929H237.508V190.867Z" fill="#211C4E"/>
<path d="M221.846 205.246H266.713V194.885H221.846V205.246Z" fill="#312B78"/>
<path d="M239.283 197.472H264.823V196.598H239.283V197.472Z" fill="#4A41B4"/>
<path d="M239.283 198.987H264.823V198.112H239.283V198.987Z" fill="#4A41B4"/>
<path d="M239.283 200.504H264.823V199.63H239.283V200.504Z" fill="#4A41B4"/>
<path d="M239.283 202.019H264.823V201.145H239.283V202.019Z" fill="#4A41B4"/>
<path d="M239.283 203.534H264.823V202.66H239.283V203.534Z" fill="#4A41B4"/>
<path d="M232.637 198.332C233.117 198.332 233.505 197.943 233.505 197.463C233.505 196.984 233.117 196.595 232.637 196.595C232.158 196.595 231.769 196.984 231.769 197.463C231.769 197.943 232.158 198.332 232.637 198.332Z" fill="#F1F0FA"/>
<path d="M226.051 197.463C226.051 197.942 226.441 198.332 226.92 198.332C227.399 198.332 227.788 197.942 227.788 197.463C227.788 196.985 227.399 196.595 226.92 196.595C226.438 196.595 226.051 196.985 226.051 197.463Z" fill="#F1F0FA"/>
<path d="M223.19 200.065C223.19 200.544 223.579 200.934 224.058 200.934C224.537 200.934 224.926 200.544 224.926 200.065C224.926 199.587 224.537 199.197 224.058 199.197C223.579 199.197 223.19 199.587 223.19 200.065Z" fill="#F1F0FA"/>
<path d="M231.769 202.667C231.769 203.146 232.158 203.536 232.637 203.536C233.116 203.536 233.505 203.146 233.505 202.667C233.505 202.188 233.116 201.799 232.637 201.799C232.158 201.799 231.769 202.188 231.769 202.667Z" fill="#F1F0FA"/>
<path d="M234.627 197.463C234.627 197.942 235.017 198.332 235.496 198.332C235.975 198.332 236.364 197.942 236.364 197.463C236.364 196.985 235.975 196.595 235.496 196.595C235.017 196.595 234.627 196.985 234.627 197.463Z" fill="#50E2D1"/>
<path d="M229.776 198.332C230.255 198.332 230.644 197.943 230.644 197.463C230.644 196.984 230.255 196.595 229.776 196.595C229.296 196.595 228.907 196.984 228.907 197.463C228.907 197.943 229.296 198.332 229.776 198.332Z" fill="#50E2D1"/>
<path d="M223.19 197.463C223.19 197.942 223.579 198.332 224.058 198.332C224.537 198.332 224.926 197.942 224.926 197.463C224.926 196.985 224.537 196.595 224.058 196.595C223.579 196.595 223.19 196.985 223.19 197.463Z" fill="#50E2D1"/>
<path d="M234.627 200.065C234.627 200.544 235.017 200.934 235.496 200.934C235.975 200.934 236.364 200.544 236.364 200.065C236.364 199.587 235.975 199.197 235.496 199.197C235.017 199.197 234.627 199.587 234.627 200.065Z" fill="#50E2D1"/>
<path d="M231.769 200.065C231.769 200.544 232.158 200.934 232.637 200.934C233.116 200.934 233.505 200.544 233.505 200.065C233.505 199.587 233.116 199.197 232.637 199.197C232.158 199.197 231.769 199.587 231.769 200.065Z" fill="#50E2D1"/>
<path d="M228.91 200.065C228.91 200.544 229.3 200.934 229.778 200.934C230.257 200.934 230.647 200.544 230.647 200.065C230.647 199.587 230.257 199.197 229.778 199.197C229.297 199.197 228.91 199.587 228.91 200.065Z" fill="#50E2D1"/>
<path d="M226.051 200.065C226.051 200.544 226.441 200.934 226.92 200.934C227.399 200.934 227.788 200.544 227.788 200.065C227.788 199.587 227.399 199.197 226.92 199.197C226.438 199.197 226.051 199.587 226.051 200.065Z" fill="#50E2D1"/>
<path d="M234.627 202.667C234.627 203.146 235.017 203.536 235.496 203.536C235.975 203.536 236.364 203.146 236.364 202.667C236.364 202.188 235.975 201.799 235.496 201.799C235.017 201.799 234.627 202.188 234.627 202.667Z" fill="#50E2D1"/>
<path d="M228.91 202.667C228.91 203.146 229.3 203.536 229.778 203.536C230.257 203.536 230.647 203.146 230.647 202.667C230.647 202.188 230.257 201.799 229.778 201.799C229.297 201.799 228.91 202.188 228.91 202.667Z" fill="#50E2D1"/>
<path d="M223.19 202.667C223.19 203.146 223.579 203.536 224.058 203.536C224.537 203.536 224.926 203.146 224.926 202.667C224.926 202.188 224.537 201.799 224.058 201.799C223.579 201.799 223.19 202.188 223.19 202.667Z" fill="#50E2D1"/>
<path d="M237.508 203.536H238.007V196.598H237.508V203.536Z" fill="#211C4E"/>
<path d="M221.846 217.916H266.713V207.554H221.846V217.916Z" fill="#312B78"/>
<path d="M239.283 210.141H264.823V209.267H239.283V210.141Z" fill="#4A41B4"/>
<path d="M239.283 211.656H264.823V210.782H239.283V211.656Z" fill="#4A41B4"/>
<path d="M239.283 213.174H264.823V212.3H239.283V213.174Z" fill="#4A41B4"/>
<path d="M239.283 214.688H264.823V213.814H239.283V214.688Z" fill="#4A41B4"/>
<path d="M239.283 216.203H264.823V215.329H239.283V216.203Z" fill="#4A41B4"/>
<path d="M232.637 211.001C233.117 211.001 233.505 210.612 233.505 210.133C233.505 209.653 233.117 209.265 232.637 209.265C232.158 209.265 231.769 209.653 231.769 210.133C231.769 210.612 232.158 211.001 232.637 211.001Z" fill="#F1F0FA"/>
<path d="M226.051 210.133C226.051 210.612 226.441 211.001 226.92 211.001C227.399 211.001 227.788 210.612 227.788 210.133C227.788 209.654 227.399 209.265 226.92 209.265C226.438 209.265 226.051 209.654 226.051 210.133Z" fill="#F1F0FA"/>
<path d="M223.19 212.735C223.19 213.214 223.579 213.603 224.058 213.603C224.537 213.603 224.926 213.214 224.926 212.735C224.926 212.256 224.537 211.867 224.058 211.867C223.579 211.867 223.19 212.256 223.19 212.735Z" fill="#F1F0FA"/>
<path d="M231.769 215.337C231.769 215.816 232.158 216.205 232.637 216.205C233.116 216.205 233.505 215.816 233.505 215.337C233.505 214.858 233.116 214.468 232.637 214.468C232.158 214.468 231.769 214.858 231.769 215.337Z" fill="#F1F0FA"/>
<path d="M234.627 210.133C234.627 210.612 235.017 211.001 235.496 211.001C235.975 211.001 236.364 210.612 236.364 210.133C236.364 209.654 235.975 209.265 235.496 209.265C235.017 209.265 234.627 209.654 234.627 210.133Z" fill="#50E2D1"/>
<path d="M229.776 211.001C230.255 211.001 230.644 210.612 230.644 210.133C230.644 209.653 230.255 209.265 229.776 209.265C229.296 209.265 228.907 209.653 228.907 210.133C228.907 210.612 229.296 211.001 229.776 211.001Z" fill="#50E2D1"/>
<path d="M223.19 210.133C223.19 210.612 223.579 211.001 224.058 211.001C224.537 211.001 224.926 210.612 224.926 210.133C224.926 209.654 224.537 209.265 224.058 209.265C223.579 209.265 223.19 209.654 223.19 210.133Z" fill="#50E2D1"/>
<path d="M234.627 212.735C234.627 213.214 235.017 213.603 235.496 213.603C235.975 213.603 236.364 213.214 236.364 212.735C236.364 212.256 235.975 211.867 235.496 211.867C235.017 211.867 234.627 212.256 234.627 212.735Z" fill="#50E2D1"/>
<path d="M231.769 212.735C231.769 213.214 232.158 213.603 232.637 213.603C233.116 213.603 233.505 213.214 233.505 212.735C233.505 212.256 233.116 211.867 232.637 211.867C232.158 211.867 231.769 212.256 231.769 212.735Z" fill="#50E2D1"/>
<path d="M228.91 212.735C228.91 213.214 229.3 213.603 229.778 213.603C230.257 213.603 230.647 213.214 230.647 212.735C230.647 212.256 230.257 211.867 229.778 211.867C229.297 211.867 228.91 212.256 228.91 212.735Z" fill="#50E2D1"/>
<path d="M226.051 212.735C226.051 213.214 226.441 213.603 226.92 213.603C227.399 213.603 227.788 213.214 227.788 212.735C227.788 212.256 227.399 211.867 226.92 211.867C226.438 211.867 226.051 212.256 226.051 212.735Z" fill="#50E2D1"/>
<path d="M234.627 215.337C234.627 215.816 235.017 216.205 235.496 216.205C235.975 216.205 236.364 215.816 236.364 215.337C236.364 214.858 235.975 214.468 235.496 214.468C235.017 214.468 234.627 214.858 234.627 215.337Z" fill="#50E2D1"/>
<path d="M228.91 215.337C228.91 215.816 229.3 216.205 229.778 216.205C230.257 216.205 230.647 215.816 230.647 215.337C230.647 214.858 230.257 214.468 229.778 214.468C229.297 214.468 228.91 214.858 228.91 215.337Z" fill="#50E2D1"/>
<path d="M223.19 215.337C223.19 215.816 223.579 216.205 224.058 216.205C224.537 216.205 224.926 215.816 224.926 215.337C224.926 214.858 224.537 214.468 224.058 214.468C223.579 214.468 223.19 214.858 223.19 215.337Z" fill="#50E2D1"/>
<path d="M237.508 216.205H238.007V209.268H237.508V216.205Z" fill="#211C4E"/>
<path d="M221.846 230.584H266.713V220.223H221.846V230.584Z" fill="#312B78"/>
<path d="M239.283 222.81H264.823V221.936H239.283V222.81Z" fill="#4A41B4"/>
<path d="M239.283 224.325H264.823V223.451H239.283V224.325Z" fill="#4A41B4"/>
<path d="M239.283 225.843H264.823V224.969H239.283V225.843Z" fill="#4A41B4"/>
<path d="M239.283 227.357H264.823V226.483H239.283V227.357Z" fill="#4A41B4"/>
<path d="M239.283 228.872H264.823V227.998H239.283V228.872Z" fill="#4A41B4"/>
<path d="M232.637 223.67C233.117 223.67 233.505 223.281 233.505 222.802C233.505 222.322 233.117 221.934 232.637 221.934C232.158 221.934 231.769 222.322 231.769 222.802C231.769 223.281 232.158 223.67 232.637 223.67Z" fill="#F1F0FA"/>
<path d="M226.051 222.802C226.051 223.281 226.441 223.67 226.92 223.67C227.399 223.67 227.788 223.281 227.788 222.802C227.788 222.323 227.399 221.934 226.92 221.934C226.438 221.934 226.051 222.323 226.051 222.802Z" fill="#F1F0FA"/>
<path d="M223.19 225.404C223.19 225.883 223.579 226.272 224.058 226.272C224.537 226.272 224.926 225.883 224.926 225.404C224.926 224.925 224.537 224.536 224.058 224.536C223.579 224.536 223.19 224.925 223.19 225.404Z" fill="#F1F0FA"/>
<path d="M231.769 228.006C231.769 228.485 232.158 228.874 232.637 228.874C233.116 228.874 233.505 228.485 233.505 228.006C233.505 227.527 233.116 227.137 232.637 227.137C232.158 227.137 231.769 227.527 231.769 228.006Z" fill="#F1F0FA"/>
<path d="M234.627 222.802C234.627 223.281 235.017 223.67 235.496 223.67C235.975 223.67 236.364 223.281 236.364 222.802C236.364 222.323 235.975 221.934 235.496 221.934C235.017 221.934 234.627 222.323 234.627 222.802Z" fill="#50E2D1"/>
<path d="M229.776 223.67C230.255 223.67 230.644 223.281 230.644 222.802C230.644 222.322 230.255 221.934 229.776 221.934C229.296 221.934 228.907 222.322 228.907 222.802C228.907 223.281 229.296 223.67 229.776 223.67Z" fill="#50E2D1"/>
<path d="M223.19 222.802C223.19 223.281 223.579 223.67 224.058 223.67C224.537 223.67 224.926 223.281 224.926 222.802C224.926 222.323 224.537 221.934 224.058 221.934C223.579 221.934 223.19 222.323 223.19 222.802Z" fill="#50E2D1"/>
<path d="M234.627 225.404C234.627 225.883 235.017 226.272 235.496 226.272C235.975 226.272 236.364 225.883 236.364 225.404C236.364 224.925 235.975 224.536 235.496 224.536C235.017 224.536 234.627 224.925 234.627 225.404Z" fill="#50E2D1"/>
<path d="M231.769 225.404C231.769 225.883 232.158 226.272 232.637 226.272C233.116 226.272 233.505 225.883 233.505 225.404C233.505 224.925 233.116 224.536 232.637 224.536C232.158 224.536 231.769 224.925 231.769 225.404Z" fill="#50E2D1"/>
<path d="M228.91 225.404C228.91 225.883 229.3 226.272 229.778 226.272C230.257 226.272 230.647 225.883 230.647 225.404C230.647 224.925 230.257 224.536 229.778 224.536C229.297 224.536 228.91 224.925 228.91 225.404Z" fill="#50E2D1"/>
<path d="M226.051 225.404C226.051 225.883 226.441 226.272 226.92 226.272C227.399 226.272 227.788 225.883 227.788 225.404C227.788 224.925 227.399 224.536 226.92 224.536C226.438 224.536 226.051 224.925 226.051 225.404Z" fill="#50E2D1"/>
<path d="M234.627 228.006C234.627 228.485 235.017 228.874 235.496 228.874C235.975 228.874 236.364 228.485 236.364 228.006C236.364 227.527 235.975 227.137 235.496 227.137C235.017 227.137 234.627 227.527 234.627 228.006Z" fill="#50E2D1"/>
<path d="M228.91 228.006C228.91 228.485 229.3 228.874 229.778 228.874C230.257 228.874 230.647 228.485 230.647 228.006C230.647 227.527 230.257 227.137 229.778 227.137C229.297 227.137 228.91 227.527 228.91 228.006Z" fill="#50E2D1"/>
<path d="M223.19 228.006C223.19 228.485 223.579 228.874 224.058 228.874C224.537 228.874 224.926 228.485 224.926 228.006C224.926 227.527 224.537 227.137 224.058 227.137C223.579 227.137 223.19 227.527 223.19 228.006Z" fill="#50E2D1"/>
<path d="M237.508 228.874H238.007V221.937H237.508V228.874Z" fill="#211C4E"/>
<path d="M221.846 154.592H266.713V144.231H221.846V154.592Z" fill="#211C4E"/>
<path d="M211.461 154.592H256.328V144.231H211.461V154.592Z" fill="#312B78"/>
<path d="M228.898 146.818H254.438V145.944H228.898V146.818Z" fill="#4A41B4"/>
<path d="M228.898 148.333H254.438V147.459H228.898V148.333Z" fill="#4A41B4"/>
<path d="M228.898 149.85H254.438V148.976H228.898V149.85Z" fill="#4A41B4"/>
<path d="M228.898 151.365H254.438V150.491H228.898V151.365Z" fill="#4A41B4"/>
<path d="M228.898 152.88H254.438V152.006H228.898V152.88Z" fill="#4A41B4"/>
<path d="M222.252 147.678C222.732 147.678 223.121 147.289 223.121 146.81C223.121 146.33 222.732 145.941 222.252 145.941C221.773 145.941 221.384 146.33 221.384 146.81C221.384 147.289 221.773 147.678 222.252 147.678Z" fill="#F1F0FA"/>
<path d="M215.667 146.81C215.667 147.289 216.056 147.678 216.535 147.678C217.014 147.678 217.403 147.289 217.403 146.81C217.403 146.331 217.014 145.941 216.535 145.941C216.053 145.941 215.667 146.331 215.667 146.81Z" fill="#F1F0FA"/>
<path d="M212.805 149.412C212.805 149.89 213.195 150.28 213.673 150.28C214.152 150.28 214.542 149.89 214.542 149.412C214.542 148.933 214.152 148.543 213.673 148.543C213.195 148.543 212.805 148.933 212.805 149.412Z" fill="#F1F0FA"/>
<path d="M221.384 152.014C221.384 152.492 221.773 152.882 222.252 152.882C222.731 152.882 223.121 152.492 223.121 152.014C223.121 151.535 222.731 151.145 222.252 151.145C221.773 151.145 221.384 151.535 221.384 152.014Z" fill="#F1F0FA"/>
<path d="M224.243 146.81C224.243 147.289 224.632 147.678 225.111 147.678C225.59 147.678 225.979 147.289 225.979 146.81C225.979 146.331 225.59 145.941 225.111 145.941C224.632 145.941 224.243 146.331 224.243 146.81Z" fill="#50E2D1"/>
<path d="M219.391 147.678C219.87 147.678 220.259 147.289 220.259 146.81C220.259 146.33 219.87 145.941 219.391 145.941C218.911 145.941 218.522 146.33 218.522 146.81C218.522 147.289 218.911 147.678 219.391 147.678Z" fill="#50E2D1"/>
<path d="M212.805 146.81C212.805 147.289 213.195 147.678 213.673 147.678C214.152 147.678 214.542 147.289 214.542 146.81C214.542 146.331 214.152 145.941 213.673 145.941C213.195 145.941 212.805 146.331 212.805 146.81Z" fill="#50E2D1"/>
<path d="M224.243 149.412C224.243 149.89 224.632 150.28 225.111 150.28C225.59 150.28 225.979 149.89 225.979 149.412C225.979 148.933 225.59 148.543 225.111 148.543C224.632 148.543 224.243 148.933 224.243 149.412Z" fill="#50E2D1"/>
<path d="M221.384 149.412C221.384 149.89 221.773 150.28 222.252 150.28C222.731 150.28 223.121 149.89 223.121 149.412C223.121 148.933 222.731 148.543 222.252 148.543C221.773 148.543 221.384 148.933 221.384 149.412Z" fill="#50E2D1"/>
<path d="M218.525 149.412C218.525 149.89 218.915 150.28 219.394 150.28C219.872 150.28 220.262 149.89 220.262 149.412C220.262 148.933 219.872 148.543 219.394 148.543C218.912 148.543 218.525 148.933 218.525 149.412Z" fill="#50E2D1"/>
<path d="M215.667 149.412C215.667 149.89 216.056 150.28 216.535 150.28C217.014 150.28 217.403 149.89 217.403 149.412C217.403 148.933 217.014 148.543 216.535 148.543C216.053 148.543 215.667 148.933 215.667 149.412Z" fill="#50E2D1"/>
<path d="M224.243 152.014C224.243 152.492 224.632 152.882 225.111 152.882C225.59 152.882 225.979 152.492 225.979 152.014C225.979 151.535 225.59 151.145 225.111 151.145C224.632 151.145 224.243 151.535 224.243 152.014Z" fill="#50E2D1"/>
<path d="M218.525 152.014C218.525 152.492 218.915 152.882 219.394 152.882C219.872 152.882 220.262 152.492 220.262 152.014C220.262 151.535 219.872 151.145 219.394 151.145C218.912 151.145 218.525 151.535 218.525 152.014Z" fill="#50E2D1"/>
<path d="M212.805 152.014C212.805 152.492 213.195 152.882 213.673 152.882C214.152 152.882 214.542 152.492 214.542 152.014C214.542 151.535 214.152 151.145 213.673 151.145C213.195 151.145 212.805 151.535 212.805 152.014Z" fill="#50E2D1"/>
<path d="M227.123 152.882H227.622V145.944H227.123V152.882Z" fill="#211C4E"/>
<path d="M181.775 156.006C183.509 156.012 184.902 157.289 186.102 158.4C187.313 159.519 188.459 160.708 189.615 161.879C191.897 164.189 194.283 166.506 197.19 168.017C200.167 169.561 203.502 169.962 206.787 169.362C210.249 168.733 213.37 167.039 215.972 164.7C217.547 163.284 218.917 161.671 220.244 160.024C220.911 159.196 221.637 158.417 222.278 157.572C222.858 156.808 223.25 155.937 223.25 154.964C223.25 154.408 222.385 154.408 222.385 154.964C222.385 155.784 222.021 156.499 221.528 157.137C220.951 157.881 220.311 158.573 219.716 159.306C218.548 160.745 217.371 162.17 216.036 163.46C213.558 165.848 210.615 167.634 207.237 168.392C204.07 169.105 200.747 168.839 197.831 167.377C194.961 165.937 192.624 163.693 190.388 161.435C189.122 160.157 187.879 158.853 186.549 157.641C185.211 156.421 183.682 155.155 181.775 155.146C181.218 155.138 181.218 156.003 181.775 156.006Z" fill="#50E2D1"/>
<path d="M223.238 154.963V152.779H222.407V154.963H223.238Z" fill="#1A1829"/>
<path d="M182.176 154.843C184.864 155.339 187.117 157.064 188.718 159.231C190.564 161.729 191.505 164.706 192.125 167.717C192.8 170.997 193.117 174.343 193.925 177.597C194.649 180.519 195.771 183.502 197.848 185.743C198.95 186.932 200.286 187.777 201.705 188.535C203.199 189.334 204.887 190.26 205.446 191.977C205.619 192.505 206.456 192.277 206.28 191.746C205.256 188.619 201.621 187.941 199.36 186C197.017 183.989 195.76 181.053 194.958 178.136C193.239 171.868 193.585 164.786 189.777 159.233C188.035 156.689 185.499 154.581 182.404 154.009C181.862 153.908 181.628 154.742 182.176 154.843Z" fill="#E6E6E6"/>
<path d="M206.875 193.251L206.085 191.215L205.31 191.515L206.1 193.551L206.875 193.251Z" fill="#1A1829"/>
<path d="M142.008 105.897C142.008 105.897 145.377 108.491 141.633 112.255L142.008 105.897Z" fill="#211C4E"/>
<path d="M138.509 113.282C138.44 114.857 139.622 116.192 141.148 116.267C142.674 116.34 143.966 115.122 144.036 113.547C144.105 111.972 142.922 110.637 141.396 110.562C139.87 110.49 138.578 111.707 138.509 113.282Z" fill="#FBBFAC"/>
<path d="M137.185 120.046L137.341 126.865C137.401 129.26 136.002 130.569 133.72 130.601C131.77 130.627 129.61 129.73 129.644 127.615L129.898 116.873L137.185 120.046Z" fill="#FBCDBF"/>
<path d="M137.32 125.279C137.32 125.279 132.137 123.574 129.789 118.356C128.949 116.492 137.182 119.342 137.182 119.342L137.32 125.279Z" fill="#B8968C"/>
<path d="M135.183 122.077C139.077 121.997 142.218 118.754 142.256 115.466L142.299 108.589C142.348 104.47 139.221 101.048 135.237 100.858C131.159 100.662 126.987 103.884 126.803 108.098L126.834 113.458C126.858 118.284 130.515 121.855 135.183 122.077Z" fill="#FBCDBF"/>
<path d="M128.012 112.593C128.012 112.593 131.24 109.63 129.852 106.443L141.209 106.552L139.547 99.7935L128.173 100.587C126.315 100.503 123.829 101.836 124.285 104.697L125.141 111.485L128.012 112.593Z" fill="#211C4E"/>
<path d="M136.386 100.408C135.592 102.892 136.965 105.548 139.449 106.339C141.933 107.132 144.59 105.759 145.38 103.275C146.173 100.792 144.8 98.1348 142.316 97.3444C139.833 96.5512 137.179 97.9243 136.386 100.408Z" fill="#211C4E"/>
<path d="M132.422 100.743C131.891 102.407 132.812 104.187 134.473 104.715C136.138 105.245 137.917 104.325 138.445 102.664C138.976 100.999 138.056 99.2223 136.394 98.6916C134.73 98.1608 132.953 99.0781 132.422 100.743Z" fill="#211C4E"/>
<path d="M123.252 113.403C123.183 114.964 124.354 116.288 125.865 116.36C127.377 116.432 128.655 115.226 128.724 113.666C128.793 112.105 127.622 110.781 126.111 110.709C124.599 110.64 123.318 111.845 123.252 113.403Z" fill="#FBCDBF"/>
<path d="M126.892 115.047C127.313 115.047 127.662 114.716 127.68 114.292C127.685 114.156 127.714 112.956 126.892 112.197C126.555 111.886 125.952 111.54 124.974 111.658C124.541 111.71 124.233 112.105 124.285 112.538C124.336 112.971 124.729 113.279 125.164 113.227C125.62 113.172 125.77 113.311 125.819 113.357C126.073 113.591 126.105 114.11 126.102 114.225C126.082 114.661 126.422 115.03 126.858 115.05C126.869 115.047 126.881 115.047 126.892 115.047Z" fill="#211C4E"/>
<path d="M131.891 108.629C131.891 108.629 134.003 108.266 134.066 108.88C134.066 108.88 134.101 109.296 132.832 109.486C131.562 109.673 130.564 109.723 130.414 109.342C130.267 108.958 131.205 108.69 131.891 108.629Z" fill="#211C4E"/>
<path d="M137.966 108.517C137.966 108.517 139.818 108.621 139.746 109.235C139.746 109.235 139.971 109.662 138.69 109.561C137.412 109.463 136.784 109.319 136.723 108.915C136.662 108.511 137.285 108.422 137.966 108.517Z" fill="#211C4E"/>
<path d="M137.813 111.84C137.813 112.195 138.099 112.483 138.454 112.483C138.809 112.483 139.097 112.198 139.097 111.843C139.097 111.488 138.811 111.199 138.457 111.199C138.105 111.197 137.816 111.485 137.813 111.84Z" fill="#211C4E"/>
<path d="M131.813 111.704C131.782 112.056 132.041 112.371 132.396 112.402C132.748 112.434 133.062 112.174 133.094 111.82C133.126 111.468 132.866 111.153 132.511 111.122C132.157 111.093 131.845 111.352 131.813 111.704Z" fill="#211C4E"/>
<path d="M136.16 115.428C136.195 115.428 136.227 115.42 136.259 115.405L136.815 115.12C136.83 115.114 136.841 115.105 136.853 115.094C137.029 114.952 137.078 114.704 136.977 114.505L136.665 113.351C136.634 113.236 136.515 113.167 136.4 113.199C136.285 113.23 136.215 113.349 136.247 113.464L136.564 114.644C136.57 114.664 136.579 114.681 136.587 114.701C136.596 114.716 136.596 114.733 136.587 114.748L136.06 115.019C135.953 115.074 135.91 115.203 135.964 115.313C136.005 115.385 136.08 115.428 136.16 115.428Z" fill="#211C4E"/>
<path d="M135.509 117.237C135.483 117.237 135.454 117.231 135.428 117.22C134.265 116.744 133.163 117.024 133.152 117.026C133.036 117.058 132.918 116.986 132.886 116.871C132.858 116.755 132.927 116.637 133.042 116.608C133.094 116.594 134.297 116.291 135.592 116.822C135.702 116.868 135.757 116.995 135.71 117.104C135.673 117.188 135.592 117.237 135.509 117.237Z" fill="#211C4E"/>
<path d="M148.224 221.484H162.956L165.128 224.948C165.128 224.948 172.925 225.407 172.619 234.733H148.847L148.224 221.484Z" fill="#D4D2EF"/>
<path d="M173.121 232.042H148.019V234.73H173.121V232.042Z" fill="#9B96D9"/>
<path d="M159.061 227.368C159.321 227.368 159.572 227.241 159.725 227.008C160.732 225.462 163.879 225.56 165.007 225.727C165.436 225.79 165.84 225.493 165.904 225.063C165.97 224.631 165.673 224.23 165.24 224.163C165.035 224.132 160.163 223.428 158.398 226.145C158.161 226.511 158.265 227.002 158.629 227.238C158.764 227.328 158.914 227.368 159.061 227.368Z" fill="#211C4E"/>
<path d="M148.224 221.484L142.484 198.389L156.215 196.281L162.953 221.484H148.224Z" fill="#FBCDBF"/>
<path d="M121.931 221.484L127.671 198.389L113.938 196.281L107.199 221.484H121.931Z" fill="#FBCDBF"/>
<path d="M121.931 221.484H107.199L105.027 224.948C105.027 224.948 97.2299 225.407 97.5356 234.733H121.308L121.931 221.484Z" fill="#D4D2EF"/>
<path d="M97.0319 234.732L122.134 234.732L122.134 232.044L97.0319 232.044L97.0319 234.732Z" fill="#9B96D9"/>
<path d="M111.091 227.368C111.238 227.368 111.388 227.328 111.52 227.241C111.887 227.005 111.991 226.514 111.751 226.148C109.986 223.434 105.114 224.137 104.909 224.166C104.476 224.233 104.182 224.634 104.245 225.066C104.312 225.499 104.716 225.793 105.145 225.73C106.273 225.562 109.423 225.462 110.427 227.011C110.58 227.241 110.834 227.368 111.091 227.368Z" fill="#211C4E"/>
<path d="M125.554 155.778L145.034 213.947L163.215 213.52L147.788 155.923L125.554 155.778Z" fill="#1A1829"/>
<path d="M144.601 155.778L125.121 213.947L106.939 213.52L122.366 155.923L144.601 155.778Z" fill="#1A1829"/>
<path d="M141.61 207.92L143.58 215.132L165.191 215.219L163.339 207.92H141.61Z" fill="#312B78"/>
<path d="M128.542 207.92L126.575 215.132L104.963 215.219L106.815 207.92H128.542Z" fill="#312B78"/>
<path d="M146.923 128.732L157.296 143.414C158.773 146.365 157.717 149.957 154.876 151.638C151.896 153.401 147.886 152.38 146.112 149.406L134.712 135.418C133.016 132.577 133.553 128.937 135.996 126.707C139.406 123.588 144.852 124.598 146.923 128.732Z" fill="#312B78"/>
<path d="M129.419 124.881C129.419 124.881 125.678 134.833 125.395 161.645C125.395 161.645 139.385 165.542 153.477 161.204L146.236 127.627C146.236 127.627 141.713 121.503 129.419 124.881Z" fill="#312B78"/>
<path d="M139.91 124.217C139.91 124.217 144.987 134.836 145.27 161.645C145.27 161.645 134.658 165.756 120.566 161.417L123.255 127.612C123.255 127.612 130.593 122.339 139.91 124.217Z" fill="#312B78"/>
<path d="M119.277 140.123L133.077 151.829L127.169 159.092L113.568 148.131C110.903 146.414 110.531 142.664 112.804 140.458C114.572 138.744 117.338 138.6 119.277 140.123Z" fill="#312B78"/>
<path d="M130.362 137.008L119.92 148.105C117.719 149.83 114.558 149.559 112.683 147.485C110.715 145.307 110.885 141.805 113.055 139.829L122.744 127.996C124.815 126.11 127.931 125.939 130.195 127.589C133.362 129.897 133.446 134.59 130.362 137.008Z" fill="#312B78"/>
<path d="M151.899 154.459C151.668 154.459 151.452 154.321 151.363 154.093L145.426 138.903C145.311 138.606 145.458 138.271 145.755 138.156C146.052 138.04 146.387 138.187 146.502 138.482L152.439 153.672C152.554 153.969 152.407 154.304 152.11 154.419C152.04 154.448 151.968 154.459 151.899 154.459Z" fill="#211C4E"/>
<path d="M131.381 150.969C131.248 150.969 131.115 150.923 131.008 150.831L122.986 144.006L129.454 137.132C129.673 136.901 130.036 136.889 130.27 137.106C130.501 137.325 130.512 137.688 130.296 137.922L124.659 143.913L131.758 149.951C132.001 150.159 132.03 150.522 131.825 150.764C131.707 150.9 131.545 150.969 131.381 150.969Z" fill="#211C4E"/>
<path d="M168.258 157.93H129.212V159.678H168.258V157.93Z" fill="#C2C2C2"/>
<path d="M144.74 159.678H182.794L185.961 133.835H147.907L144.74 159.678Z" fill="#848484"/>
<path d="M163.034 146.758C163.011 148.036 164.029 149.075 165.31 149.075C166.588 149.075 167.644 148.036 167.667 146.758C167.69 145.477 166.672 144.442 165.391 144.442C164.11 144.442 163.057 145.477 163.034 146.758Z" fill="white"/>
<path d="M134.88 153.217C135.529 153.341 136.582 153.629 136.781 154.229C137.049 155.045 136.536 155.761 135.673 155.775L134.967 155.787C135.137 156.646 135.97 158.12 140.26 159.075C140.981 159.237 141.543 159.894 141.512 160.543C141.489 161.051 141.111 161.406 140.603 161.458C140.58 161.461 140.554 161.458 140.531 161.461C140.88 161.749 141.099 162.165 141.079 162.58C141.056 163.088 140.678 163.443 140.17 163.494C140.104 163.5 140.035 163.503 139.963 163.497C140.058 163.688 140.113 163.893 140.101 164.097C140.078 164.605 139.7 164.96 139.192 165.012C139.051 165.026 138.898 165.018 138.74 164.983C138.682 164.971 138.63 164.954 138.575 164.943C138.575 164.966 138.581 164.986 138.578 165.006C138.555 165.514 138.177 165.868 137.669 165.92C137.528 165.935 137.375 165.926 137.217 165.892C136.031 165.629 134.975 165.294 134.046 164.896V164.899C134.046 164.899 134.029 164.891 134.003 164.879C133.565 164.692 133.158 164.487 132.78 164.27C130.948 163.31 129.65 159.609 127.449 157.108L130.184 152.357L134.88 153.217Z" fill="#FBCDBF"/>
<path d="M134.88 153.217L138.679 153.782C139.296 153.874 139.686 154.492 139.501 155.086C139.38 155.481 139.034 155.764 138.621 155.801L135.849 156.058C135.849 156.058 133.565 158.769 129.719 158.155L134.88 153.217Z" fill="#FBCDBF"/>
<path d="M185.612 144.972C185.565 144.848 185.496 144.739 185.418 144.638C185.439 144.629 185.462 144.623 185.482 144.617C186.731 144.159 187.478 143.057 187.146 142.163C187.091 142.015 187.011 141.886 186.91 141.767C187.562 141.228 187.879 140.484 187.642 139.843C187.55 139.59 187.377 139.379 187.152 139.22C187.839 138.724 188.173 137.916 187.911 137.201C187.579 136.304 186.448 135.897 185.381 136.29C184.314 136.682 183.716 137.726 184.048 138.623C184.132 138.851 184.267 139.044 184.44 139.206C183.402 139.725 182.819 140.7 183.116 141.511C183.171 141.658 183.252 141.79 183.353 141.906C182.701 142.445 182.384 143.19 182.62 143.83C182.707 144.066 182.863 144.263 183.062 144.418C182.43 144.834 182.115 145.546 182.349 146.175C182.629 146.934 183.584 147.277 184.487 146.945C185.387 146.614 185.891 145.731 185.612 144.972Z" fill="#FBCDBF"/>
</svg>
