<svg width="24" height="25" viewBox="0 0 24 25" fill="none" xmlns="http://www.w3.org/2000/svg">
<path fill-rule="evenodd" clip-rule="evenodd" d="M9 2.95886C9.55228 2.95886 10 3.40658 10 3.95886V5H14V3.95886C14 3.40658 14.4477 2.95886 15 2.95886C15.5523 2.95886 16 3.40658 16 3.95886V5H19C20.1046 5 21 5.89543 21 7V9.47441C20.383 9.0614 19.7121 8.72266 19 8.47098V7H16V7.95886C15.3211 7.95886 14.6597 8.03404 14.0238 8.17652C14.0082 8.10645 14 8.03362 14 7.95886V7H10V7.95886C10 8.51115 9.55228 8.95886 9 8.95886C8.44772 8.95886 8 8.51115 8 7.95886V7H5V10.4589H9.77503C9.16201 11.0461 8.63191 11.7192 8.20404 12.4589H5V21H7.9561C8.32302 21.7289 8.78612 22.4012 9.32873 23H5C3.89543 23 3 22.1046 3 21V7C3 5.89543 3.89543 5 5 5H8V3.95886C8 3.40658 8.44772 2.95886 9 2.95886ZM16 20.9589C18.2091 20.9589 20 19.168 20 16.9589C20 14.7497 18.2091 12.9589 16 12.9589C13.7909 12.9589 12 14.7497 12 16.9589C12 19.168 13.7909 20.9589 16 20.9589ZM16 22.9589C19.3137 22.9589 22 20.2726 22 16.9589C22 13.6452 19.3137 10.9589 16 10.9589C12.6863 10.9589 10 13.6452 10 16.9589C10 20.2726 12.6863 22.9589 16 22.9589ZM18.9424 17.5441C18.8266 18.1261 18.5409 18.6606 18.1213 19.0802L16 16.9589V13.9589C16.5933 13.9589 17.1734 14.1348 17.6667 14.4645C18.1601 14.7941 18.5446 15.2626 18.7716 15.8108C18.9987 16.359 19.0581 16.9622 18.9424 17.5441Z" fill="currentColor"/>
</svg>
