<svg width="24" height="24" viewBox="0 0 24 24" fill="none" xmlns="http://www.w3.org/2000/svg">
<path fill-rule="evenodd" clip-rule="evenodd" d="M10.875 5C10.875 4.93096 10.931 4.875 11 4.875H13C13.069 4.875 13.125 4.93096 13.125 5V7.1716C13.125 7.52551 13.3382 7.84456 13.6652 7.97999C13.9921 8.11543 14.3685 8.04057 14.6187 7.79032L16.1543 6.25475C16.2031 6.20593 16.2822 6.20593 16.3311 6.25475L16.925 5.66078L16.3311 6.25475L17.7453 7.66896C17.7941 7.71778 17.7941 7.79692 17.7453 7.84574L16.2097 9.38128C15.9595 9.63153 15.8846 10.0079 16.0201 10.3348C16.1555 10.6618 16.4746 10.875 16.8285 10.875H19C19.069 10.875 19.125 10.931 19.125 11V13C19.125 13.069 19.069 13.125 19 13.125H16.8282C16.4743 13.125 16.1552 13.3382 16.0198 13.6652C15.8844 13.9921 15.9592 14.3685 16.2095 14.6187L17.745 16.1542C17.7938 16.2031 17.7938 16.2822 17.745 16.331L16.3308 17.7452C16.282 17.7941 16.2028 17.7941 16.154 17.7452L14.6187 16.2099C14.3685 15.9597 13.9921 15.8848 13.6652 16.0202C13.3382 16.1557 13.125 16.4747 13.125 16.8286V19C13.125 19.069 13.069 19.125 13 19.125H11C10.931 19.125 10.875 19.069 10.875 19V16.8285C10.875 16.4746 10.6618 16.1555 10.3348 16.0201C10.0079 15.8846 9.63153 15.9595 9.38128 16.2097L7.84578 17.7452C7.79697 17.7941 7.71782 17.7941 7.66901 17.7452L6.25479 16.331L5.66082 16.925L6.25479 16.331C6.20598 16.2822 6.20598 16.2031 6.25479 16.1542L7.79032 14.6187C8.04057 14.3685 8.11543 13.9921 7.97999 13.6652C7.84456 13.3382 7.52551 13.125 7.1716 13.125H5C4.93096 13.125 4.875 13.069 4.875 13V11C4.875 10.931 4.93096 10.875 5 10.875H7.17136C7.52526 10.875 7.84432 10.6618 7.97975 10.3348C8.11518 10.0079 8.04032 9.63153 7.79007 9.38128L6.25454 7.84574C6.20572 7.79693 6.20572 7.71778 6.25454 7.66897L7.66875 6.25475C7.71757 6.20594 7.79671 6.20594 7.84553 6.25475L9.38128 7.79051C9.63153 8.04076 10.0079 8.11562 10.3348 7.98018C10.6618 7.84475 10.875 7.52569 10.875 7.17179V5ZM11 3.125C9.96447 3.125 9.125 3.96447 9.125 5V5.05935L9.08296 5.01732C8.35073 4.28508 7.16355 4.28508 6.43131 5.01732L5.0171 6.43153C4.28487 7.16376 4.28487 8.35095 5.0171 9.08318L5.05892 9.125H5C3.96447 9.125 3.125 9.96447 3.125 11V13C3.125 14.0355 3.96447 14.875 5 14.875H5.05916L5.01736 14.9168C4.28512 15.649 4.28512 16.8362 5.01736 17.5685L6.43157 18.9827L7.05029 18.364L6.43157 18.9827C7.1638 19.7149 8.35099 19.7149 9.08322 18.9827L9.125 18.9409V19C9.125 20.0355 9.96447 20.875 11 20.875H13C14.0355 20.875 14.875 20.0355 14.875 19V18.9411L14.9166 18.9827C15.6488 19.7149 16.836 19.7149 17.5682 18.9827L18.9825 17.5685C19.7147 16.8362 19.7147 15.649 18.9825 14.9168L18.9406 14.875H19C20.0355 14.875 20.875 14.0355 20.875 13V11C20.875 9.96447 20.0355 9.125 19 9.125H18.9409L18.9827 9.08318C19.7149 8.35094 19.7149 7.16376 18.9827 6.43153L18.364 7.05024L18.9827 6.43153L17.5685 5.01731C16.8363 4.28508 15.6491 4.28508 14.9169 5.01731L14.875 5.05916V5C14.875 3.96447 14.0355 3.125 13 3.125H11ZM10.75 12C10.75 12.6904 11.3096 13.25 12 13.25C12.6904 13.25 13.25 12.6904 13.25 12C13.25 11.3096 12.6904 10.75 12 10.75C11.3096 10.75 10.75 11.3096 10.75 12ZM9 12C9 13.6569 10.3431 15 12 15C13.6569 15 15 13.6569 15 12C15 10.3431 13.6569 9 12 9C10.3431 9 9 10.3431 9 12Z" fill="currentColor"/>
</svg>
