<svg width="32" height="32" viewBox="0 0 32 32" fill="none" xmlns="http://www.w3.org/2000/svg">
<path fill-rule="evenodd" clip-rule="evenodd" d="M14 6C14 5.44772 14.4477 5 15 5H17C17.5523 5 18 5.44772 18 6V8.75737C18 9.16183 18.2436 9.52647 18.6173 9.68125C18.991 9.83603 19.4211 9.75048 19.7071 9.46448L21.6568 7.51474C22.0474 7.12421 22.6805 7.12421 23.0711 7.51474L23.7782 6.80763L23.0711 7.51474L24.4853 8.92895C24.8758 9.31948 24.8758 9.95264 24.4853 10.3432L22.5355 12.2929C22.2495 12.5789 22.164 13.009 22.3188 13.3827C22.4736 13.7564 22.8382 14 23.2427 14H26C26.5523 14 27 14.4477 27 15V17C27 17.5523 26.5523 18 26 18H23.2426C22.8382 18 22.4736 18.2436 22.3188 18.6173C22.164 18.991 22.2495 19.4211 22.5355 19.7071L24.4853 21.6569C24.8758 22.0474 24.8758 22.6805 24.4853 23.0711L23.0711 24.4853C22.6806 24.8758 22.0474 24.8758 21.6569 24.4853L19.7071 22.5355C19.4211 22.2495 18.991 22.164 18.6173 22.3187C18.2436 22.4735 18 22.8382 18 23.2426V26C18 26.5523 17.5523 27 17 27H15C14.4477 27 14 26.5523 14 26V23.2427C14 22.8382 13.7564 22.4736 13.3827 22.3188C13.009 22.164 12.5789 22.2495 12.2929 22.5355L10.3431 24.4853L11.0502 25.1924L10.3431 24.4853C9.95261 24.8758 9.31945 24.8758 8.92892 24.4853L7.51471 23.0711C7.12419 22.6806 7.12419 22.0474 7.51471 21.6569L9.46448 19.7071C9.75048 19.4211 9.83603 18.991 9.68125 18.6173C9.52647 18.2436 9.16183 18 8.75737 18H6C5.44772 18 5 17.5523 5 17V15C5 14.4477 5.44772 14 6 14H8.75737C9.16184 14 9.52647 13.7564 9.68125 13.3827C9.83603 13.009 9.75048 12.5789 9.46448 12.2929L7.51474 10.3432C7.12421 9.95263 7.12421 9.31946 7.51474 8.92894L8.92895 7.51472C9.31948 7.1242 9.95264 7.1242 10.3432 7.51472L12.2929 9.46445C12.5789 9.75045 13.009 9.83601 13.3827 9.68123C13.7564 9.52645 14 9.16181 14 8.75735V6ZM15 3C13.3431 3 12 4.34314 12 6V6.34313L11.7574 6.10051C10.5858 4.92894 8.68631 4.92894 7.51474 6.10051L6.10052 7.51472C4.92895 8.6863 4.92895 10.5858 6.10052 11.7574L6.34316 12H6C4.34315 12 3 13.3431 3 15V17C3 18.6569 4.34314 20 6 20H6.34316L6.1005 20.2427C4.92892 21.4142 4.92892 23.3137 6.1005 24.4853L7.51471 25.8995C8.68628 27.0711 10.5858 27.0711 11.7574 25.8995L12 25.6569V26C12 27.6569 13.3431 29 15 29H17C18.6569 29 20 27.6569 20 26V25.6568L20.2427 25.8995C21.4142 27.0711 23.3137 27.0711 24.4853 25.8995L25.8995 24.4853C27.0711 23.3137 27.0711 21.4142 25.8995 20.2426L25.6569 20H26C27.6569 20 29 18.6569 29 17V15C29 13.3431 27.6569 12 26 12H25.6569L25.8995 11.7574C27.0711 10.5858 27.0711 8.68631 25.8995 7.51474L25.1924 8.22184L25.8995 7.51474L24.4853 6.10053C23.3137 4.92895 21.4142 4.92895 20.2426 6.10052L20 6.34316V6C20 4.34315 18.6569 3 17 3H15ZM13 16C13 17.6569 14.3431 19 16 19C17.6569 19 19 17.6569 19 16C19 14.3431 17.6569 13 16 13C14.3431 13 13 14.3431 13 16ZM11 16C11 18.7614 13.2386 21 16 21C18.7614 21 21 18.7614 21 16C21 13.2386 18.7614 11 16 11C13.2386 11 11 13.2386 11 16Z" fill="currentColor"/>
</svg>
