<svg width="16" height="16" viewBox="0 0 16 16" fill="none" xmlns="http://www.w3.org/2000/svg">
<path fill-rule="evenodd" clip-rule="evenodd" d="M2.11268 8.22937C2.04522 8.14658 1.98429 8.06972 1.93015 8C1.98429 7.93027 2.04522 7.85341 2.11268 7.77063C2.43874 7.37046 2.91232 6.83793 3.50172 6.30747C4.7011 5.22803 6.27609 4.25 8 4.25C9.72392 4.25 11.2989 5.22803 12.4983 6.30747C13.0877 6.83793 13.5613 7.37046 13.8873 7.77063C13.9548 7.85341 14.0157 7.93027 14.0698 7.99999C14.0157 8.06971 13.9548 8.14659 13.8873 8.22937C13.5613 8.62953 13.0877 9.16207 12.4983 9.69253C11.2989 10.772 9.72392 11.75 8 11.75C6.27609 11.75 4.7011 10.772 3.50172 9.69253C2.91232 9.16207 2.43874 8.62953 2.11268 8.22937ZM15.6238 7.58354C15.6239 7.58377 15.624 7.58397 15 8C15.624 8.41602 15.6239 8.41622 15.6238 8.41645L15.6234 8.41698L15.6225 8.41835L15.6198 8.42231L15.6112 8.43506C15.604 8.44566 15.5938 8.46043 15.5808 8.4791C15.5548 8.51641 15.5174 8.56933 15.469 8.63563C15.3722 8.76813 15.2313 8.95453 15.0502 9.17688C14.6887 9.62046 14.1623 10.2129 13.5017 10.8075C12.2011 11.978 10.2761 13.25 8 13.25C5.72392 13.25 3.7989 11.978 2.49828 10.8075C1.83768 10.2129 1.31126 9.62046 0.949824 9.17688C0.768653 8.95453 0.627751 8.76813 0.530999 8.63563C0.482595 8.56933 0.445158 8.51641 0.419175 8.4791C0.406181 8.46044 0.396043 8.44566 0.388822 8.43506L0.380184 8.42231L0.377519 8.41835L0.376601 8.41698L0.376247 8.41645C0.376099 8.41622 0.375962 8.41602 1 8C0.375962 7.58397 0.376099 7.58377 0.376247 7.58354L0.376602 7.58301L0.377519 7.58164L0.380185 7.57768L0.388823 7.56493C0.396043 7.55433 0.406181 7.53955 0.419175 7.52089C0.445159 7.48358 0.482596 7.43066 0.531 7.36436C0.627752 7.23186 0.768654 7.04546 0.949824 6.82312C1.31126 6.37953 1.83768 5.78707 2.49828 5.19253C3.7989 4.02197 5.72392 2.75 8 2.75C10.2761 2.75 12.2011 4.02197 13.5017 5.19253C14.1623 5.78707 14.6887 6.37953 15.0502 6.82312C15.2313 7.04546 15.3722 7.23186 15.469 7.36436C15.5174 7.43066 15.5548 7.48358 15.5808 7.52089C15.5938 7.53956 15.604 7.55433 15.6112 7.56493L15.6198 7.57768L15.6225 7.58164L15.6234 7.58301L15.6238 7.58354ZM15 8L15.624 7.58397C15.792 7.83589 15.792 8.16409 15.624 8.41602L15 8ZM0.375962 7.58397L1 8L0.375962 8.41602C0.208013 8.1641 0.208013 7.83589 0.375962 7.58397ZM10 8C10 9.10457 9.10457 10 8 10C6.89543 10 6 9.10457 6 8C6 6.89543 6.89543 6 8 6C9.10457 6 10 6.89543 10 8Z" fill="currentColor"/>
</svg>
