<svg width="10" height="16" viewBox="0 0 10 16" fill="none" xmlns="http://www.w3.org/2000/svg">
  <path fill-rule="evenodd" clip-rule="evenodd" d="M5.70711 0.292893C5.31658 -0.0976311 4.68342 -0.0976311 4.29289 0.292893L0.292893 4.29289C-0.0976311 4.68342 -0.0976311 5.31658 0.292893 5.70711C0.683417 6.09763 1.31658 6.09763 1.70711 5.70711L5 2.41421L8.29289 5.70711C8.68342 6.09763 9.31658 6.09763 9.70711 5.70711C10.0976 5.31658 10.0976 4.68342 9.70711 4.29289L5.70711 0.292893ZM1.70711 10.2929C1.31658 9.90237 0.683417 9.90237 0.292893 10.2929C-0.0976311 10.6834 -0.0976311 11.3166 0.292893 11.7071L4.29289 15.7071C4.68342 16.0976 5.31658 16.0976 5.70711 15.7071L9.70711 11.7071C10.0976 11.3166 10.0976 10.6834 9.70711 10.2929C9.31658 9.90237 8.68342 9.90237 8.29289 10.2929L5 13.5858L1.70711 10.2929Z" fill="currentColor"/>
</svg>
