<svg width="24" height="25" viewBox="0 0 24 25" fill="none" xmlns="http://www.w3.org/2000/svg">
<path fill-rule="evenodd" clip-rule="evenodd" d="M6 4.95886C4.89543 4.95886 4 5.85429 4 6.95886C4 8.06343 4.89543 8.95886 6 8.95886C6.53418 8.95886 7.01945 8.74944 7.37818 8.40822C7.38939 8.39584 7.40095 8.38368 7.41289 8.37175C7.42482 8.35982 7.43698 8.34825 7.44936 8.33704C7.79058 7.97831 8 7.49304 8 6.95886C8 5.85429 7.10457 4.95886 6 4.95886ZM9.44618 8.99083C9.79807 8.39532 10 7.70067 10 6.95886C10 4.74972 8.20914 2.95886 6 2.95886C3.79086 2.95886 2 4.74972 2 6.95886C2 9.168 3.79086 10.9589 6 10.9589C6.74181 10.9589 7.43645 10.7569 8.03197 10.405L10.6064 12.9794L8.05774 15.528C7.45654 15.1667 6.75254 14.9589 6 14.9589C3.79086 14.9589 2 16.7497 2 18.9589C2 21.168 3.79086 22.9589 6 22.9589C8.20914 22.9589 10 21.168 10 18.9589C10 18.2278 9.80388 17.5425 9.46138 16.9528L20.7071 5.70711C21.0976 5.31658 21.0976 4.68342 20.7071 4.29289C20.3166 3.90237 19.6834 3.90237 19.2929 4.29289L12.0206 11.5652L9.44618 8.99083ZM6 16.9589C4.89543 16.9589 4 17.8543 4 18.9589C4 20.0634 4.89543 20.9589 6 20.9589C7.10457 20.9589 8 20.0634 8 18.9589C8 17.8543 7.10457 16.9589 6 16.9589ZM13.7929 14.7929C14.1834 14.4024 14.8166 14.4024 15.2071 14.7929L20.7071 20.2929C21.0976 20.6834 21.0976 21.3166 20.7071 21.7071C20.3166 22.0976 19.6834 22.0976 19.2929 21.7071L13.7929 16.2071C13.4024 15.8166 13.4024 15.1834 13.7929 14.7929Z" fill="currentColor"/>
</svg>
