<svg width="24" height="25" viewBox="0 0 24 25" fill="none" xmlns="http://www.w3.org/2000/svg">
<path fill-rule="evenodd" clip-rule="evenodd" d="M10 3.95886C10 3.40658 9.55228 2.95886 9 2.95886C8.44772 2.95886 8 3.40658 8 3.95886V5H5C3.89543 5 3 5.89543 3 7V21C3 22.1046 3.89543 23 5 23H10.019C9.50884 22.3994 9.08064 21.727 8.75174 21H5V12.4589H9.65556C10.2302 11.68 10.9346 11.0026 11.7369 10.4589H5V7H8V7.95886C8 8.51115 8.44772 8.95886 9 8.95886C9.55228 8.95886 10 8.51115 10 7.95886V7H14V7.95886C14 8.51115 14.4477 8.95886 15 8.95886C15.5523 8.95886 16 8.51115 16 7.95886V7H19V9.3736C19.7109 9.59203 20.3821 9.90119 21 10.2876V7C21 5.89543 20.1046 5 19 5H16V3.95886C16 3.40658 15.5523 2.95886 15 2.95886C14.4477 2.95886 14 3.40658 14 3.95886V5H10V3.95886ZM10.0761 17.8415C9.92137 17.4679 10.0069 17.0378 10.2929 16.7518L12.2929 14.7518C12.6834 14.3612 13.3166 14.3612 13.7071 14.7518L15.7071 16.7518C15.9931 17.0378 16.0787 17.4679 15.9239 17.8415C15.7691 18.2152 15.4045 18.4589 15 18.4589H14.0349C14.2558 19.8979 15.4992 21 17 21C18.6569 21 20 19.6569 20 18C20 16.3431 18.6569 15 17 15C16.4477 15 16 14.5523 16 14C16 13.4477 16.4477 13 17 13C19.7615 13 22 15.2386 22 18C22 20.7614 19.7615 23 17 23C14.3933 23 12.2525 21.0052 12.0208 18.4589H11C10.5956 18.4589 10.2309 18.2152 10.0761 17.8415Z" fill="currentColor"/>
</svg>
