<svg width="24" height="25" viewBox="0 0 24 25" fill="none" xmlns="http://www.w3.org/2000/svg">
<path fill-rule="evenodd" clip-rule="evenodd" d="M22.7071 11.6694C23.0976 12.0599 23.0976 12.693 22.7071 13.0836L19.7071 16.0836C19.3166 16.4741 18.6834 16.4741 18.2929 16.0836L15.2929 13.0836C14.9024 12.693 14.9024 12.0599 15.2929 11.6694C15.6834 11.2788 16.3166 11.2788 16.7071 11.6694L18 12.9623V12.8765C18 9.56276 15.3137 6.87646 12 6.87646C10.7239 6.87646 9.54356 7.27373 8.5721 7.95134C8.11912 8.2673 7.49578 8.15623 7.17981 7.70325C6.86385 7.25028 6.97493 6.62693 7.4279 6.31097C8.72411 5.40683 10.3016 4.87646 12 4.87646C16.4183 4.87646 20 8.45819 20 12.8765V12.9623L21.2929 11.6694C21.6834 11.2788 22.3166 11.2788 22.7071 11.6694ZM1.29289 14.0836C0.902369 13.693 0.902369 13.0599 1.29289 12.6694L4.29289 9.66936C4.68342 9.27883 5.31658 9.27883 5.70711 9.66936L8.70711 12.6694C9.09763 13.0599 9.09763 13.693 8.70711 14.0836C8.31658 14.4741 7.68342 14.4741 7.29289 14.0836L6 12.7907V12.8765C6 16.1902 8.68629 18.8765 12 18.8765C13.2761 18.8765 14.4564 18.4792 15.4279 17.8016C15.8809 17.4856 16.5042 17.5967 16.8202 18.0497C17.1361 18.5027 17.0251 19.126 16.5721 19.442C15.2759 20.3461 13.6984 20.8765 12 20.8765C7.58172 20.8765 4 17.2947 4 12.8765V12.7907L2.70711 14.0836C2.31658 14.4741 1.68342 14.4741 1.29289 14.0836Z" fill="currentColor"/>
</svg>
