<svg width="24" height="24" viewBox="0 0 24 24" fill="none" xmlns="http://www.w3.org/2000/svg">
<path fill-rule="evenodd" clip-rule="evenodd" d="M8.72076 4.95886C7.8599 4.95886 7.09562 5.50972 6.82339 6.32641L6.27924 7.95886H5C3.34315 7.95886 2 9.30201 2 10.9589V18.9589C2 20.6157 3.34315 21.9589 5 21.9589H19C20.6569 21.9589 22 20.6157 22 18.9589V10.9589C22 9.30201 20.6569 7.95886 19 7.95886H17.7208L17.1766 6.32641C16.9044 5.50972 16.1401 4.95886 15.2792 4.95886H8.72076ZM8.72076 6.95886H15.2792L15.8234 8.59132C16.0956 9.408 16.8599 9.95886 17.7208 9.95886H19C19.5523 9.95886 20 10.4066 20 10.9589V18.9589C20 19.5111 19.5523 19.9589 19 19.9589H5C4.44772 19.9589 4 19.5111 4 18.9589V10.9589C4 10.4066 4.44772 9.95886 5 9.95886H6.63962C7.28527 9.95886 7.85847 9.54572 8.06265 8.9332L8.72076 6.95886ZM10 13.9589C10 12.8543 10.8954 11.9589 12 11.9589C13.1046 11.9589 14 12.8543 14 13.9589C14 15.0634 13.1046 15.9589 12 15.9589C10.8954 15.9589 10 15.0634 10 13.9589ZM12 9.95886C9.79086 9.95886 8 11.7497 8 13.9589C8 16.168 9.79086 17.9589 12 17.9589C14.2091 17.9589 16 16.168 16 13.9589C16 11.7497 14.2091 9.95886 12 9.95886Z" fill="currentColor"/>
</svg>
