<svg width="32" height="32" viewBox="0 0 32 32" fill="none" xmlns="http://www.w3.org/2000/svg">
<path fill-rule="evenodd" clip-rule="evenodd" d="M14 3H18C19.3062 3 20.4175 3.83481 20.8293 5H23C24.1046 5 25 5.89543 25 7V25C25 26.1046 24.1046 27 23 27H9C7.89543 27 7 26.1046 7 25V7C7 5.89543 7.89543 5 9 5H11.1707C11.5825 3.83481 12.6938 3 14 3ZM18 9C19.3062 9 20.4175 8.16519 20.8293 7H23V25H9L9 7H11.1707C11.5825 8.16519 12.6938 9 14 9H18ZM14 5C13.4477 5 13 5.44772 13 6C13 6.55228 13.4477 7 14 7H18C18.5523 7 19 6.55228 19 6C19 5.44772 18.5523 5 18 5H14ZM12 11C11.4477 11 11 11.4477 11 12C11 12.5523 11.4477 13 12 13H20C20.5523 13 21 12.5523 21 12C21 11.4477 20.5523 11 20 11H12ZM11 16C11 15.4477 11.4477 15 12 15H20C20.5523 15 21 15.4477 21 16C21 16.5523 20.5523 17 20 17H12C11.4477 17 11 16.5523 11 16ZM12 19C11.4477 19 11 19.4477 11 20C11 20.5523 11.4477 21 12 21H20C20.5523 21 21 20.5523 21 20C21 19.4477 20.5523 19 20 19H12Z" fill="currentColor"/>
</svg>
