<svg width="24" height="25" viewBox="0 0 24 25" fill="none" xmlns="http://www.w3.org/2000/svg">
<path d="M11 17C11 16.4477 11.4477 16 12 16L17 16C17.5523 16 18 16.4477 18 17C18 17.5523 17.5523 18 17 18L12 18C11.4477 18 11 17.5523 11 17Z" fill="currentColor"/>
<path d="M12 12C11.4477 12 11 12.4477 11 13C11 13.5523 11.4477 14 12 14L17 14C17.5523 14 18 13.5523 18 13C18 12.4477 17.5523 12 17 12L12 12Z" fill="currentColor"/>
<path fill-rule="evenodd" clip-rule="evenodd" d="M4 22C2.89543 22 2 21.1046 2 20V6C2 4.89543 2.89543 4 4 4H20C21.1046 4 22 4.89543 22 6V20C22 21.1046 21.1046 22 20 22H4ZM20 6H4V8H20V6ZM4 20V10H7L7 20H4ZM9 20L9 10H20V20H9Z" fill="currentColor"/>
</svg>
