<svg width="16" height="16" viewBox="0 0 16 16" fill="none" xmlns="http://www.w3.org/2000/svg">
<path fill-rule="evenodd" clip-rule="evenodd" d="M3.33343 7.33333C2.96524 7.33333 2.66677 7.63181 2.66677 8C2.66677 8.36819 2.96524 8.66667 3.33343 8.66667L11.0847 8.66667L8.19536 11.556C7.93501 11.8164 7.93501 12.2385 8.19536 12.4988C8.45571 12.7592 8.87782 12.7592 9.13817 12.4988L13.1362 8.50082L13.1382 8.49885C13.1707 8.4663 13.1992 8.43123 13.2236 8.39427C13.3778 8.16076 13.3696 7.85161 13.1992 7.62609C13.1807 7.60169 13.1604 7.57827 13.1382 7.55603L13.1362 7.55406L9.13817 3.55604C8.87782 3.29569 8.45571 3.29569 8.19536 3.55604C7.93501 3.81639 7.93501 4.2385 8.19536 4.49885L11.0298 7.33333L3.33343 7.33333Z" fill="currentColor"/>
</svg>
