<svg width="66" height="10" viewBox="0 0 66 10" fill="none" xmlns="http://www.w3.org/2000/svg">
<path fill-rule="evenodd" clip-rule="evenodd" d="M29.08 2.66183V2.93092H28.3528V4.10183H29.08V7.81819H30.4837V4.09455H31.5455V2.92364H30.4837V2.65456C30.4837 2.22547 30.6728 1.97819 31.16 1.97819H31.5455V0.690918H31.16C29.7564 0.690918 29.08 1.28729 29.08 2.66183ZM42.411 2.82183C42.9128 2.82183 43.3346 2.98183 43.6473 3.23637H43.6546V0.77092H45.0655V7.81819H43.7491V7.34546C43.4364 7.66546 42.9782 7.89819 42.4255 7.89819C41.2837 7.89819 40.2146 7.04001 40.2146 5.35274C40.2146 3.67274 41.2691 2.82183 42.411 2.82183ZM42.6728 6.64001C43.2037 6.64001 43.64 6.27637 43.6473 5.65092V5.05455C43.6328 4.46546 43.2255 4.08001 42.6728 4.08001C42.12 4.08001 41.64 4.47274 41.64 5.35274C41.64 6.24728 42.12 6.64001 42.6728 6.64001ZM1.34913 7.29456V7.81819H0.0400391V0.821829H1.44368V3.28001C1.75641 3.0182 2.16368 2.85819 2.67277 2.85819C3.82186 2.85819 4.86914 3.7091 4.86914 5.37456C4.86914 7.04728 3.80732 7.89819 2.67277 7.89819C2.09823 7.89819 1.63277 7.65092 1.34913 7.29456ZM3.44368 5.37456C3.44368 4.5091 2.9564 4.1091 2.41822 4.1091C1.88004 4.1091 1.45095 4.48001 1.44368 5.07638V5.68001C1.45095 6.27637 1.88004 6.65456 2.41822 6.65456C2.9564 6.64729 3.44368 6.26183 3.44368 5.37456ZM7.09459 9.62183H5.72731L6.84004 6.9091L5.09459 2.93092H6.52731L7.55276 5.41092L8.51277 2.93092H9.89458L7.09459 9.62183ZM21.6619 3.52001C21.9673 3.09092 22.4473 2.81456 23.0946 2.81456C24.091 2.81456 24.8328 3.41819 24.8255 4.74183V7.81819H23.4146V5.03274C23.4146 4.35637 23.08 4.08001 22.571 4.08001C22.2 4.08001 21.851 4.30547 21.6619 4.72728V7.81819H20.2437V2.93092H21.6619V3.52001ZM27.48 2.93092H26.0691V7.81819H27.48V2.93092ZM32.3237 2.93092H33.7346V7.81819H32.3237V2.93092ZM39.5164 5.20001C39.4655 3.72365 38.5128 2.80729 37.1673 2.80729C35.8582 2.80729 34.7091 3.75274 34.7091 5.35274C34.7091 7.05456 35.9091 7.93456 37.2619 7.93456C38.331 7.93456 39.0655 7.51274 39.4582 6.81456L38.4982 6.16729C38.2437 6.5891 37.8291 6.82183 37.3273 6.82183C36.68 6.82183 36.1564 6.40001 36.1128 5.70183H39.5164C39.531 5.62183 39.531 5.49092 39.5164 5.20001ZM36.1491 4.79274C36.2 4.18183 36.6509 3.89092 37.131 3.89092C37.611 3.89092 38.0619 4.17455 38.091 4.79274H36.1491ZM51.2255 5.36728C51.2255 3.68001 50.1782 2.82183 49.0146 2.82183C48.4328 2.82183 47.9819 3.04728 47.6764 3.40365V2.93092H46.36V9.68729H47.771V7.44002C48.0837 7.71638 48.5055 7.8982 49.0073 7.8982C50.1564 7.8982 51.2255 7.04728 51.2255 5.36728ZM48.76 6.64001C48.2219 6.64001 47.7855 6.2691 47.7782 5.65819V5.04729C47.7855 4.45092 48.2219 4.07274 48.76 4.07274C49.2982 4.07274 49.7928 4.46547 49.7928 5.36001C49.7928 6.24729 49.2982 6.64001 48.76 6.64001ZM51.9091 5.34547C51.9091 3.69456 53.16 2.80001 54.4255 2.80001C55.7419 2.80001 56.9419 3.68728 56.9419 5.34547C56.9419 7.01092 55.7055 7.92729 54.4255 7.92729C53.1091 7.92729 51.9091 7.02547 51.9091 5.34547ZM53.3419 5.34547C53.3419 6.22547 53.8582 6.68365 54.4255 6.68365C55.0073 6.68365 55.5091 6.22547 55.5091 5.34547C55.5091 4.49456 54.9928 4.05092 54.4255 4.05092C53.851 4.05092 53.3419 4.48001 53.3419 5.34547ZM61.72 6.34911C61.72 5.3382 60.9419 4.94547 59.9819 4.80001C59.371 4.71274 59 4.63274 59 4.31274C59 4.0291 59.2619 3.84001 59.6909 3.84001C60.12 3.84001 60.3964 4.01456 60.5055 4.4291L61.7055 4.12365C61.4873 3.36728 60.8837 2.80729 59.7055 2.80729C58.52 2.80729 57.6546 3.4182 57.6546 4.37092C57.6546 5.30183 58.3382 5.69456 59.3419 5.87638C59.9382 5.9782 60.3528 6.10183 60.3528 6.4291C60.3528 6.74183 60.0255 6.88729 59.6255 6.88729C59.1237 6.88729 58.8037 6.63274 58.651 6.15274L57.4509 6.49456C57.6982 7.42547 58.44 7.92729 59.6182 7.92729C60.8546 7.92002 61.72 7.30183 61.72 6.34911ZM16.6946 6.73456C17.2182 6.73456 17.5309 6.40002 17.5309 5.85456V2.92365H18.9491V5.84729C18.9491 6.61092 18.7891 7.03274 18.3673 7.38911C17.9528 7.7382 17.3782 7.92729 16.6946 7.92729C15.9819 7.92729 15.3637 7.73093 14.9637 7.36002C14.6 7.02547 14.4182 6.5382 14.4182 5.85456V2.93092H15.8364V5.76729C15.8364 6.34183 16.1782 6.73456 16.6946 6.73456ZM32.3237 0.690918H33.7637V1.98547H32.3237V0.690918ZM27.48 0.690918H26.04V1.98547H27.48V0.690918ZM65.2473 6.55274V7.68728C65.2473 7.68728 64.8109 7.84729 64.28 7.77456C63.3128 7.61456 62.84 7.01819 62.84 5.89092V4.10183H62.1419V2.93092H62.8473V1.62183H64.2219V2.93092H65.4364V4.10183H64.2073V5.89092C64.2073 6.31274 64.3964 6.55274 64.8691 6.55274H65.2473Z" fill="currentColor"/>
</svg>
