<svg width="84" height="22" viewBox="0 0 84 22" fill="none" xmlns="http://www.w3.org/2000/svg">
<path fill-rule="evenodd" clip-rule="evenodd" d="M3.77828 16.1854C4.49101 17.0873 5.60374 17.6545 7.0001 17.6545C9.74919 17.6545 12.331 15.5891 12.331 11.5164C12.331 7.46545 9.8001 5.39999 7.0001 5.39999C5.76374 5.39999 4.76737 5.77817 4.01101 6.41817V0.447266H0.600098V17.4654H3.77828V16.1854ZM8.86919 11.5091C8.86919 13.6691 7.68374 14.6145 6.38192 14.6145C5.0801 14.6145 4.03283 13.72 4.01101 12.2436V10.7745C4.03283 9.32726 5.0801 8.42545 6.38192 8.42545C7.68374 8.42545 8.86919 9.37817 8.86919 11.5091ZM14.4692 13.9745C14.4692 16.2727 16.3601 17.6982 18.5201 17.6982C19.7274 17.6982 20.6947 17.2982 21.6983 16.44L21.771 16.3673L21.7928 17.4582H25.0656V9.6618C25.0656 6.84726 23.1237 5.32726 19.9456 5.32726C17.4074 5.32726 15.2983 6.4618 14.6365 8.64362L17.6256 9.4509C17.9383 8.51999 18.6946 8.02544 19.8074 8.02544C20.8983 8.02544 21.6328 8.47635 21.7492 9.39999L18.4765 10.2509C15.8437 10.9418 14.4692 11.9382 14.4692 13.9745ZM21.0728 14.3818C20.3892 14.8327 19.9092 15.0218 19.3201 15.0218C18.6146 15.0218 17.851 14.6145 17.8437 13.7709C17.8437 12.9927 18.4619 12.6582 19.8365 12.28L21.7346 11.7564L21.7128 13.9818L21.0728 14.3818ZM31.8365 9.99635V17.4654H28.4256V5.65453H31.8365V7.07999C32.571 6.03999 33.7346 5.37089 35.2983 5.37089C37.7128 5.37089 39.4946 6.83999 39.4946 10.04V17.4582H36.0837V10.7236C36.0837 9.08726 35.2765 8.42544 34.0474 8.42544C33.1383 8.43271 32.2874 8.97817 31.8365 9.99635ZM50.4692 21.9673H53.8801H53.8874V5.65454H50.7092V6.7309C49.931 5.89454 48.8619 5.39999 47.4874 5.39999C44.7383 5.39999 42.1783 7.46545 42.1783 11.5164C42.1783 15.5891 44.7601 17.6545 47.5092 17.6545C48.7165 17.6545 49.7346 17.2545 50.4692 16.6364V21.9673ZM50.4692 12.2218C50.4401 13.7345 49.4001 14.6145 48.1201 14.6145C46.7892 14.6145 45.6328 13.6691 45.6328 11.5091C45.6328 9.3709 46.7892 8.42545 48.1201 8.42545C49.451 8.42545 50.4474 9.34908 50.4692 10.7745V12.2218ZM64.7819 16.0182C64.0255 17.0582 62.9128 17.6982 61.371 17.6982C59.0219 17.6982 57.2692 16.3018 57.2692 13.1673V5.65453H60.6801V12.4545C60.6801 14.04 61.5819 14.6582 62.651 14.6582C63.4801 14.6582 64.3092 14.1345 64.7819 13.1673V5.65453H68.1928V17.4582H64.7819V16.0182ZM75.1165 21.96V16.5345C75.8728 17.2036 76.891 17.6545 78.1056 17.6473C80.8547 17.6473 83.4365 15.5818 83.4365 11.5309C83.4365 7.45818 80.9056 5.39272 78.1056 5.39272C76.7092 5.39272 75.6183 5.93818 74.8837 6.78908V5.65454H71.7056V21.96H75.1165ZM79.9746 11.5309C79.9746 13.6691 78.7892 14.6145 77.4874 14.6145C76.1783 14.6145 75.1383 13.72 75.1165 12.2436V10.7745C75.1383 9.32727 76.1855 8.42545 77.4874 8.42545C78.7892 8.42545 79.9746 9.3709 79.9746 11.5309Z" fill="currentColor"/>
</svg>
