<svg width="24" height="25" viewBox="0 0 24 25" fill="none" xmlns="http://www.w3.org/2000/svg">
<path fill-rule="evenodd" clip-rule="evenodd" d="M7 2.95886C5.89543 2.95886 5 3.85429 5 4.95886V7.95886C5 8.51115 5.44772 8.95886 6 8.95886C6.55228 8.95886 7 8.51115 7 7.95886V4.95886H12.5858L17 9.37308V20.9589H10C9.44772 20.9589 9 21.4066 9 21.9589C9 22.5111 9.44772 22.9589 10 22.9589H17C18.1046 22.9589 19 22.0634 19 20.9589V9.37308C19 8.84264 18.7893 8.33394 18.4142 7.95886L14 3.54465C13.6249 3.16958 13.1162 2.95886 12.5858 2.95886H7ZM2.29289 14.2518C1.90237 14.6423 1.90237 15.2754 2.29289 15.666C2.68342 16.0565 3.31658 16.0565 3.70711 15.666L5 14.3731V21.9589C5 22.5111 5.44772 22.9589 6 22.9589C6.55228 22.9589 7 22.5111 7 21.9589V14.3731L8.29289 15.666C8.68342 16.0565 9.31658 16.0565 9.70711 15.666C10.0976 15.2754 10.0976 14.6423 9.70711 14.2518L6.7077 11.2523C6.31717 10.8618 5.68342 10.8612 5.29289 11.2518L5.29206 11.2526L2.29289 14.2518Z" fill="currentColor"/>
</svg>
