<svg width="24" height="24" viewBox="0 0 24 24" fill="none" xmlns="http://www.w3.org/2000/svg">
<path fill-rule="evenodd" clip-rule="evenodd" d="M8.71098 10.5712C8.14503 10.7929 7.61723 11.0833 7.14459 11.4498C7.08091 11.4991 7.01846 11.5497 6.95727 11.6015C6.04588 12.3728 5.41409 13.4099 5.1453 14.6882C5.04968 15.143 5 15.6282 5 16.1429C5 17.1541 5.19136 18.0231 5.6046 18.7418C6.02017 19.4646 6.61845 19.9625 7.30877 20.2967C7.31421 20.2993 7.31965 20.302 7.32509 20.3046C8.64784 20.9387 10.3782 21 12 21C12.2027 21 12.4071 20.999 12.6122 20.9961C13.0072 20.9905 13.4047 20.9776 13.7976 20.9504C14.0168 20.9352 14.2345 20.9155 14.4496 20.8901C15.2502 20.7955 16.0135 20.6216 16.6749 20.3046C17.3721 19.9704 17.9766 19.4703 18.3954 18.7418C18.8086 18.0231 19 17.1541 19 16.1429C19 14.1814 18.2783 12.6472 17.0427 11.6015C16.9815 11.5497 16.9191 11.4991 16.8554 11.4498C16.4037 11.0995 15.9016 10.8188 15.364 10.6011C15.3391 10.591 15.3141 10.5811 15.289 10.5712C15.7483 10.0796 16.0987 9.48482 16.3016 8.82548C16.4306 8.40645 16.5 7.96133 16.5 7.5C16.5 5.01472 14.4853 3 12 3C9.51472 3 7.5 5.01472 7.5 7.5C7.5 7.96133 7.56942 8.40645 7.69839 8.82547C7.87338 9.39405 8.158 9.91459 8.52758 10.3624C8.58658 10.4339 8.64775 10.5035 8.71098 10.5712ZM15.6176 13.0208C14.7609 12.3623 13.5065 12 12 12C10.4864 12 9.22719 12.3657 8.37013 13.0303C7.5497 13.6664 7 14.6491 7 16.1429C7 16.9078 7.14479 17.4082 7.33842 17.7449C7.36188 17.7857 7.38667 17.8252 7.41287 17.8634C7.59626 18.1311 7.84828 18.3375 8.18963 18.5011C8.58364 18.69 9.06839 18.8109 9.64224 18.8863C10.1537 18.9535 10.736 18.9845 11.388 18.9953C11.5856 18.9986 11.7896 19 12 19C13.687 19 14.96 18.9087 15.8104 18.5011C15.8348 18.4894 15.8587 18.4775 15.8822 18.4654C16.2343 18.2834 16.4857 18.0509 16.6616 17.7449C16.6858 17.7028 16.7092 17.6582 16.7317 17.6107C16.8891 17.2789 17 16.8121 17 16.1429C17 14.6491 16.4503 13.6664 15.6299 13.0303C15.6258 13.0271 15.6217 13.024 15.6176 13.0208ZM14.5 7.5C14.5 6.11929 13.3807 5 12 5C10.6193 5 9.5 6.11929 9.5 7.5C9.5 8.88071 10.6193 10 12 10C13.3807 10 14.5 8.88071 14.5 7.5Z" fill="currentColor"/>
</svg>
