<svg width="16" height="16" viewBox="0 0 16 16" fill="none" xmlns="http://www.w3.org/2000/svg">
<path fill-rule="evenodd" clip-rule="evenodd" d="M5.80736 7.04749C5.43006 7.19525 5.07819 7.38886 4.7631 7.63318C4.72065 7.6661 4.67901 7.69982 4.63822 7.73434C4.03062 8.24855 3.60943 8.93994 3.43024 9.79216C3.3665 10.0953 3.33337 10.4188 3.33337 10.7619C3.33337 11.4361 3.46094 12.0154 3.73644 12.4946C4.01349 12.9764 4.41234 13.3084 4.87256 13.5311C4.87618 13.5329 4.87981 13.5346 4.88344 13.5364C5.76527 13.9591 6.91887 14 8.00004 14C8.13519 14 8.27147 13.9994 8.4082 13.9974C8.67152 13.9937 8.93654 13.9851 9.19846 13.9669C9.34458 13.9568 9.48974 13.9436 9.6331 13.9267C10.1669 13.8636 10.6757 13.7477 11.1166 13.5364C11.5815 13.3136 11.9844 12.9802 12.2636 12.4946C12.5391 12.0154 12.6667 11.4361 12.6667 10.7619C12.6667 9.45424 12.1856 8.43146 11.3619 7.73434C11.3211 7.69982 11.2794 7.6661 11.237 7.63318C10.9358 7.39968 10.6011 7.21251 10.2427 7.0674C10.2261 7.06067 10.2094 7.05404 10.1927 7.04749C10.4989 6.71971 10.7325 6.32321 10.8678 5.88365C10.9538 5.6043 11 5.30755 11 5C11 3.34315 9.6569 2 8.00004 2C6.34319 2 5.00004 3.34315 5.00004 5C5.00004 5.30755 5.04632 5.6043 5.1323 5.88365C5.24896 6.2627 5.43871 6.60973 5.6851 6.90828C5.72443 6.95594 5.76521 7.00237 5.80736 7.04749ZM10.4118 8.68057C9.84061 8.24151 9.00434 8 8.00004 8C6.99095 8 6.1515 8.24382 5.58012 8.68686C5.03317 9.11097 4.66671 9.76606 4.66671 10.7619C4.66671 11.2718 4.76324 11.6054 4.89232 11.8299C4.90796 11.8571 4.92449 11.8835 4.94195 11.9089C5.06421 12.0874 5.23223 12.225 5.45979 12.3341C5.72247 12.46 6.04563 12.5406 6.4282 12.5908C6.76919 12.6356 7.15738 12.6563 7.59201 12.6635C7.72376 12.6657 7.85978 12.6667 8.00004 12.6667C9.12474 12.6667 9.97335 12.6058 10.5403 12.3341C10.5565 12.3263 10.5725 12.3183 10.5881 12.3102C10.8229 12.1889 10.9905 12.0339 11.1078 11.8299C11.1239 11.8019 11.1395 11.7721 11.1545 11.7405C11.2595 11.5193 11.3334 11.2081 11.3334 10.7619C11.3334 9.76606 10.9669 9.11097 10.42 8.68686C10.4172 8.68476 10.4145 8.68266 10.4118 8.68057ZM9.66671 5C9.66671 4.07953 8.92052 3.33333 8.00004 3.33333C7.07957 3.33333 6.33337 4.07953 6.33337 5C6.33337 5.92047 7.07957 6.66667 8.00004 6.66667C8.92052 6.66667 9.66671 5.92047 9.66671 5Z" fill="currentColor"/>
</svg>
