<svg width="24" height="24" viewBox="0 0 24 24" fill="none" xmlns="http://www.w3.org/2000/svg">
<path d="M6 2C4.89543 2 4 2.89369 4 3.9961V19.9649C4 21.0673 4.89543 21.961 6 21.961H14C14.5523 21.961 15 21.5142 15 20.963C15 20.4118 14.5523 19.9649 14 19.9649H6V3.9961H14.5194L18 8.3384V14.0175C18 14.5688 18.4477 15.0156 19 15.0156C19.5523 15.0156 20 14.5688 20 14.0175V8.3384C20 7.88514 19.8454 7.44538 19.5617 7.09145L16.0811 2.74915C15.7016 2.27564 15.1269 2 14.5194 2H6Z" fill="currentColor"/>
<path fill-rule="evenodd" clip-rule="evenodd" d="M9 6.53216C7.61929 6.53216 6.5 7.64927 6.5 9.02729C6.5 10.4053 7.61929 11.5224 9 11.5224C10.3807 11.5224 11.5 10.4053 11.5 9.02729C11.5 7.64927 10.3807 6.53216 9 6.53216ZM8.5 9.02729C8.5 8.75169 8.72386 8.52826 9 8.52826C9.27614 8.52826 9.5 8.75169 9.5 9.02729C9.5 9.30289 9.27614 9.52632 9 9.52632C8.72386 9.52632 8.5 9.30289 8.5 9.02729Z" fill="currentColor"/>
<path fill-rule="evenodd" clip-rule="evenodd" d="M15 12.5205C13.6193 12.5205 12.5 13.6376 12.5 15.0156C12.5 16.3936 13.6193 17.5107 15 17.5107C16.3807 17.5107 17.5 16.3936 17.5 15.0156C17.5 13.6376 16.3807 12.5205 15 12.5205ZM14.5 15.0156C14.5 14.74 14.7239 14.5166 15 14.5166C15.2761 14.5166 15.5 14.74 15.5 15.0156C15.5 15.2912 15.2761 15.5146 15 15.5146C14.7239 15.5146 14.5 15.2912 14.5 15.0156Z" fill="currentColor"/>
<path d="M7.79082 16.2183C7.40144 15.8274 7.4033 15.1954 7.79497 14.8068L14.795 7.8614C15.1866 7.47279 15.8198 7.47464 16.2092 7.86555C16.5986 8.25646 16.5967 8.88838 16.205 9.277L9.20503 16.2224C8.81336 16.611 8.18019 16.6092 7.79082 16.2183Z" fill="currentColor"/>
<path d="M18.7071 17.304C18.3166 16.9143 17.6834 16.9143 17.2929 17.304C16.9024 17.6938 16.9024 18.3257 17.2929 18.7155L18.5858 20.0058L17.2929 21.2962C16.9024 21.686 16.9024 22.3179 17.2929 22.7077C17.6834 23.0974 18.3166 23.0974 18.7071 22.7077L20 21.4173L21.2929 22.7077C21.6834 23.0974 22.3166 23.0974 22.7071 22.7077C23.0976 22.3179 23.0976 21.686 22.7071 21.2962L21.4142 20.0058L22.7071 18.7155C23.0976 18.3257 23.0976 17.6938 22.7071 17.304C22.3166 16.9143 21.6834 16.9143 21.2929 17.304L20 18.5944L18.7071 17.304Z" fill="#C21F3A"/>
</svg>
