<svg width="24" height="25" viewBox="0 0 24 25" fill="none" xmlns="http://www.w3.org/2000/svg">
<path fill-rule="evenodd" clip-rule="evenodd" d="M10 5.87646C10 4.7719 10.8954 3.87646 12 3.87646C13.1046 3.87646 14 4.7719 14 5.87646C14 6.98103 13.1046 7.87646 12 7.87646C10.8954 7.87646 10 6.98103 10 5.87646ZM10 12.8765C10 11.7719 10.8954 10.8765 12 10.8765C13.1046 10.8765 14 11.7719 14 12.8765C14 13.981 13.1046 14.8765 12 14.8765C10.8954 14.8765 10 13.981 10 12.8765ZM12 17.8765C10.8954 17.8765 10 18.7719 10 19.8765C10 20.981 10.8954 21.8765 12 21.8765C13.1046 21.8765 14 20.981 14 19.8765C14 18.7719 13.1046 17.8765 12 17.8765Z" fill="currentColor"/>
</svg>
