<svg width="22" height="19" viewBox="0 0 22 19" fill="none" xmlns="http://www.w3.org/2000/svg">
<path fill-rule="evenodd" clip-rule="evenodd" d="M9.25201 1.0878C10.014 -0.283824 11.9866 -0.283821 12.7486 1.0878L21.0491 16.0287C21.7897 17.3617 20.8258 19 19.3008 19H2.69984C1.17487 19 0.210933 17.3617 0.951523 16.0287L9.25201 1.0878ZM11.0003 2.05908L2.69984 17H19.3008L11.0003 2.05908ZM11.0003 5.99996C11.5526 5.99996 12.0003 6.44767 12.0003 6.99996V11.5C12.0003 12.0522 11.5526 12.5 11.0003 12.5C10.448 12.5 10.0003 12.0522 10.0003 11.5V6.99996C10.0003 6.44767 10.448 5.99996 11.0003 5.99996ZM12.0003 15C12.0003 14.4477 11.5526 14 11.0003 14C10.448 14 10.0003 14.4477 10.0003 15V15.02C10.0003 15.5722 10.448 16.02 11.0003 16.02C11.5526 16.02 12.0003 15.5722 12.0003 15.02V15Z" fill="currentColor"/>
</svg>
