<svg width="24" height="25" viewBox="0 0 24 25" fill="none" xmlns="http://www.w3.org/2000/svg">
<path fill-rule="evenodd" clip-rule="evenodd" d="M16 12C16 14.7614 13.7614 17 11 17C8.23858 17 6 14.7614 6 12C6 9.23858 8.23858 7 11 7C13.7614 7 16 9.23858 16 12ZM15.1922 17.6064C14.0236 18.4816 12.5723 19 11 19C7.13401 19 4 15.866 4 12C4 8.13401 7.13401 5 11 5C14.866 5 18 8.13401 18 12C18 13.5723 17.4816 15.0236 16.6064 16.1922L19.7071 19.2929C20.0976 19.6834 20.0976 20.3166 19.7071 20.7071C19.3166 21.0976 18.6834 21.0976 18.2929 20.7071L15.1922 17.6064ZM11 8.45886C11.5523 8.45886 12 8.90658 12 9.45886V10.9589H13.5C14.0523 10.9589 14.5 11.4066 14.5 11.9589C14.5 12.5111 14.0523 12.9589 13.5 12.9589H12V14.4589C12 15.0111 11.5523 15.4589 11 15.4589C10.4477 15.4589 10 15.0111 10 14.4589V12.9589H8.5C7.94772 12.9589 7.5 12.5111 7.5 11.9589C7.5 11.4066 7.94772 10.9589 8.5 10.9589H10V9.45886C10 8.90658 10.4477 8.45886 11 8.45886Z" fill="currentColor"/>
</svg>
