<svg width="16" height="16" viewBox="0 0 16 16" fill="none" xmlns="http://www.w3.org/2000/svg">
<path fill-rule="evenodd" clip-rule="evenodd" d="M12 7C12 9.76142 9.76142 12 7 12C4.23858 12 2 9.76142 2 7C2 4.23858 4.23858 2 7 2C9.76142 2 12 4.23858 12 7ZM11.1922 12.6064C10.0236 13.4816 8.57234 14 7 14C3.13401 14 0 10.866 0 7C0 3.13401 3.13401 0 7 0C10.866 0 14 3.13401 14 7C14 8.57234 13.4816 10.0236 12.6064 11.1922L15.7071 14.2929C16.0976 14.6834 16.0976 15.3166 15.7071 15.7071C15.3166 16.0976 14.6834 16.0976 14.2929 15.7071L11.1922 12.6064ZM7 3.45886C7.55228 3.45886 8 3.90658 8 4.45886V5.95886H9.5C10.0523 5.95886 10.5 6.40658 10.5 6.95886C10.5 7.51115 10.0523 7.95886 9.5 7.95886H8V9.45886C8 10.0111 7.55228 10.4589 7 10.4589C6.44771 10.4589 6 10.0111 6 9.45886V7.95886H4.5C3.94772 7.95886 3.5 7.51115 3.5 6.95886C3.5 6.40658 3.94772 5.95886 4.5 5.95886H6V4.45886C6 3.90658 6.44772 3.45886 7 3.45886Z" fill="currentColor"/>
<line x1="1" y1="14.5858" x2="14.435" y2="1.15076" stroke="currentColor" stroke-width="2" stroke-linecap="round"/>
</svg>
