<svg width="24" height="25" viewBox="0 0 24 25" fill="none" xmlns="http://www.w3.org/2000/svg">
<path fill-rule="evenodd" clip-rule="evenodd" d="M11 17C13.7614 17 16 14.7614 16 12C16 9.23858 13.7614 7 11 7C8.23858 7 6 9.23858 6 12C6 14.7614 8.23858 17 11 17ZM11 19C12.5723 19 14.0236 18.4816 15.1922 17.6064L18.2929 20.7071C18.6834 21.0976 19.3166 21.0976 19.7071 20.7071C20.0976 20.3166 20.0976 19.6834 19.7071 19.2929L16.6064 16.1922C17.4816 15.0236 18 13.5723 18 12C18 8.13401 14.866 5 11 5C7.13401 5 4 8.13401 4 12C4 15.866 7.13401 19 11 19ZM8.5 10.9589C7.94772 10.9589 7.5 11.4066 7.5 11.9589C7.5 12.5111 7.94772 12.9589 8.5 12.9589H13.5C14.0523 12.9589 14.5 12.5111 14.5 11.9589C14.5 11.4066 14.0523 10.9589 13.5 10.9589H8.5Z" fill="currentColor"/>
</svg>
