<svg width="48" height="48" viewBox="0 0 48 48" fill="none" xmlns="http://www.w3.org/2000/svg">
<path d="M24 48C37.2548 48 48 37.2548 48 24C48 10.7452 37.2548 0 24 0C10.7452 0 0 10.7452 0 24C0 37.2548 10.7452 48 24 48Z" fill="#F0F0F0"/>
<path d="M40.7942 6.85725C36.4655 2.616 30.5388 0 24 0C21.913 0 15.8068 2.616 11.4783 6.85725H40.7942Z" fill="#6DA544"/>
<path d="M24 20.5714H47.7551C47.4088 18.1503 46.7016 15.8459 45.689 13.7142H22.9565L24 20.5714Z" fill="#6DA544"/>
<path d="M2.31103 34.2857H45.689C46.7017 32.1541 47.4088 29.8496 47.7551 27.4285H0.244873C0.591279 29.8497 1.29825 32.1542 2.31103 34.2857Z" fill="#6DA544"/>
<path d="M7.20581 41.1428C11.5345 45.3841 17.4612 48.0001 24 48.0001C30.5388 48.0001 36.4655 45.3841 40.7942 41.1428H7.20581Z" fill="#6DA544"/>
<path d="M24 0C11.9094 0 1.90875 8.94103 0.244873 20.5715H24V0Z" fill="#D80027"/>
<path d="M12 18.4L10.9565 16.3132V12.1392L13.5652 10.0522L16.1739 12.1392V15.2696L17.2174 14.2262V16.3132L15.1304 18.4H12Z" fill="#F0F0F0"/>
<path d="M6.38769 12L6.66397 12.8503H7.55797L6.83469 13.376L7.11106 14.2262L6.38769 13.7006L5.66431 14.2262L5.94069 13.376L5.21741 12.8503H6.11141L6.38769 12Z" fill="#F0F0F0"/>
<path d="M8.47473 9.91296L8.75101 10.7633H9.6451L8.92172 11.2889L9.19801 12.1392L8.47473 11.6137L7.75144 12.1392L8.02782 11.2889L7.30444 10.7633H8.19835L8.47473 9.91296Z" fill="#F0F0F0"/>
<path d="M10.5616 7.82605L10.8379 8.67636H11.7318L11.0086 9.20202L11.2848 10.0522L10.5616 9.52677L9.83826 10.0522L10.1145 9.20202L9.39136 8.67636H10.2853L10.5616 7.82605Z" fill="#F0F0F0"/>
<path d="M20.7428 12L20.4665 12.8503H19.5726L20.2958 13.376L20.0195 14.2262L20.7428 13.7006L21.4662 14.2262L21.1899 13.376L21.9131 12.8503H21.0192L20.7428 12Z" fill="#F0F0F0"/>
<path d="M18.6559 9.91296L18.3796 10.7633H17.4857L18.2089 11.2889L17.9326 12.1392L18.6559 11.6137L19.3793 12.1392L19.1029 11.2889L19.8262 10.7633H18.9323L18.6559 9.91296Z" fill="#F0F0F0"/>
<path d="M16.569 7.82605L16.2926 8.67636H15.3987L16.1219 9.20202L15.8456 10.0522L16.569 9.52677L17.2922 10.0522L17.016 9.20202L17.7392 8.67636H16.8452L16.569 7.82605Z" fill="#F0F0F0"/>
<path d="M13.5653 6.78259L13.2889 7.63291H12.395L13.1182 8.15847L12.8419 9.00869L13.5653 8.48322L14.2886 9.00869L14.0123 8.15847L14.7355 7.63291H13.8416L13.5653 6.78259Z" fill="#F0F0F0"/>
</svg>
