<svg width="48" height="48" viewBox="0 0 48 48" fill="none" xmlns="http://www.w3.org/2000/svg">
<g clip-path="url(#clip0)">
<path d="M0 24C0 25.6439 0.16575 27.2491 0.480656 28.8L24 30.2609L47.5194 28.8C47.8344 27.2491 48 25.6439 48 24C48 22.3561 47.8342 20.7509 47.5194 19.2L24 17.7391L0.480656 19.2C0.16575 20.7509 0 22.3561 0 24Z" fill="#0052B4"/>
<path d="M47.5195 28.8H0.480713C2.70437 39.7547 12.3892 48 24.0001 48C35.6109 48 45.2957 39.7547 47.5195 28.8Z" fill="#F0F0F0"/>
<path d="M0.480713 19.2H47.5196C45.2957 8.24531 35.6111 0 24.0001 0C12.389 0 2.70437 8.24531 0.480713 19.2Z" fill="black"/>
<path d="M34.4347 19.2H13.5652L17.8289 17.1943L15.5584 13.0651L20.1883 13.9506L20.7751 9.2735L23.9999 12.7136L27.2249 9.2735L27.8114 13.9506L32.4415 13.0651L30.1711 17.1945L34.4347 19.2Z" fill="#FFDA44"/>
<path d="M0 24C0 37.2548 10.7452 48 24 48L4.79962 9.59918C1.78612 13.6107 0 18.5966 0 24Z" fill="#A2001D"/>
<path d="M24 48C37.2548 48 48 37.2548 48 24C48 18.5966 46.2139 13.6107 43.2004 9.59918L24 48Z" fill="#A2001D"/>
</g>
<defs>
<clipPath id="clip0">
<rect width="48" height="48" fill="white"/>
</clipPath>
</defs>
</svg>
