<svg width="48" height="48" viewBox="0 0 48 48" fill="none" xmlns="http://www.w3.org/2000/svg">
<path d="M24 48C37.2548 48 48 37.2548 48 24C48 10.7452 37.2548 0 24 0C10.7452 0 0 10.7452 0 24C0 37.2548 10.7452 48 24 48Z" fill="#F0F0F0"/>
<path d="M0 24C0 33.097 5.06156 41.0114 12.5217 45.0818V2.91815C5.06156 6.98859 0 14.903 0 24Z" fill="#D80027"/>
<path d="M0 24C0 35.0887 7.52072 44.4192 17.7391 47.1732V0.826782C7.52072 3.58078 0 12.9113 0 24Z" fill="#0052B4"/>
<path d="M8.60875 8.34778V12.2608C8.60875 14.2058 10.1854 15.7825 12.1305 15.7825C14.0755 15.7825 15.6522 14.2058 15.6522 12.2608V8.34778H8.60875Z" fill="#D80027"/>
<path d="M12.1305 13.6956C11.3393 13.6956 10.6957 13.052 10.6957 12.2609V10.4348H13.5653V12.2609C13.5653 13.052 12.9216 13.6956 12.1305 13.6956Z" fill="#F0F0F0"/>
<path d="M26.0871 25.0434H19.8262C19.8262 23.8908 18.8918 22.9564 17.7392 22.9564C16.5867 22.9564 15.6523 23.8908 15.6523 25.0434H9.39135C9.39135 26.196 10.3953 27.1304 11.5478 27.1304H11.4783C11.4783 28.283 12.4125 29.2173 13.5653 29.2173C13.5653 30.37 14.4995 31.3043 15.6523 31.3043H19.8262C20.9788 31.3043 21.9132 30.37 21.9132 29.2173C23.0657 29.2173 24.0001 28.283 24.0001 27.1304H23.9307C25.0831 27.1304 26.0871 26.196 26.0871 25.0434Z" fill="#FFDA44"/>
<path d="M26.9447 21.7038L26.3968 22.581L27.0614 23.373L26.0579 23.1231L25.51 24L25.4377 22.9683L24.4342 22.718L25.3933 22.3307L25.3211 21.299L25.9859 22.0913L26.9447 21.7038Z" fill="#FFDA44"/>
<path d="M23.7477 19.0211L23.5329 20.0328L24.4285 20.5498L23.3999 20.6584L23.1849 21.6697L22.7641 20.7249L21.7356 20.8329L22.5043 20.1409L22.0837 19.1962L22.9792 19.7133L23.7477 19.0211Z" fill="#FFDA44"/>
<path d="M19.8258 17.5939L19.9697 18.6181L20.9881 18.7976L20.0587 19.251L20.2026 20.2752L19.4842 19.5312L18.5546 19.9846L19.0402 19.0714L18.3217 18.3276L19.3403 18.507L19.8258 17.5939Z" fill="#FFDA44"/>
<path d="M15.6524 17.5939L16.138 18.507L17.1564 18.3275L16.438 19.0716L16.9235 19.9847L15.9941 19.5312L15.2756 20.275L15.4196 19.251L14.4901 18.7977L15.5085 18.6181L15.6524 17.5939Z" fill="#FFDA44"/>
<path d="M11.7306 19.0211L12.4992 19.7133L13.3947 19.1962L12.9743 20.1412L13.7426 20.833L12.7143 20.7249L12.2934 21.6697L12.0787 20.6582L11.0501 20.5502L11.9456 20.0329L11.7306 19.0211Z" fill="#FFDA44"/>
<path d="M8.53372 21.7038L9.49288 22.0914L10.1573 21.2991L10.0855 22.331L11.0443 22.7184L10.0407 22.9684L9.96828 24L9.42069 23.1232L8.41719 23.3732L9.08197 22.581L8.53372 21.7038Z" fill="#FFDA44"/>
</svg>
