<svg width="48" height="48" viewBox="0 0 48 48" fill="none" xmlns="http://www.w3.org/2000/svg">
<g clip-path="url(#clip0)">
<path d="M24.0009 0.000976562C37.2557 0.000976562 48.0009 10.7462 48.0009 24.0009C48.0009 37.2557 37.2557 48.0009 24.0009 48.0009C10.7462 48.0009 0.000976562 37.2557 0.000976562 24.0009" fill="#FFDA44"/>
<path d="M23.4784 10.6668H43.9575C42.609 8.65237 40.9634 6.85424 39.0837 5.33344H23.4784V10.6668Z" fill="#D80027"/>
<path d="M23.4784 21.3334H47.8519C47.6474 19.4841 47.2329 17.6985 46.6326 16.0002H23.4784V21.3334Z" fill="#D80027"/>
<path d="M1.36763 32.0001H46.6324C47.2327 30.3018 47.6472 28.5159 47.8518 26.6666H0.148315C0.35269 28.516 0.767252 30.3019 1.36763 32.0001Z" fill="#D80027"/>
<path d="M8.91631 42.6666H39.0835C40.9631 41.1459 42.6088 39.3476 43.9573 37.3333H4.04272C5.39122 39.3476 7.03672 41.1458 8.91631 42.6666Z" fill="#D80027"/>
<path d="M24 0.000976562C10.7452 0.000976562 -9.37492e-05 10.7462 6.1345e-10 24.0011C5.47743 24.0009 10.7452 24.0011 24 24.0011L24 0.000976562Z" fill="#4A1F63"/>
<path d="M19.8262 12.5217V14.6087H18.7827V12.5217H16.6958V14.6087H15.6523V10.4348H11.4784V14.6087H10.4349V12.5217H8.34799V14.6087H7.30447V12.5217H5.21741V18.7825H21.9131V12.5217H19.8262Z" fill="#F0F0F0"/>
</g>
<defs>
<clipPath id="clip0">
<rect width="48" height="48" fill="white"/>
</clipPath>
</defs>
</svg>
