<svg width="48" height="48" viewBox="0 0 48 48" fill="none" xmlns="http://www.w3.org/2000/svg">
<path d="M24 48C37.2548 48 48 37.2548 48 24C48 10.7452 37.2548 0 24 0C10.7452 0 0 10.7452 0 24C0 37.2548 10.7452 48 24 48Z" fill="#F0F0F0"/>
<path d="M0.203308 27.1304C0.761683 31.416 2.45125 35.3456 4.96159 38.6114L17.7392 27.1304H0.203308Z" fill="#D80027"/>
<path d="M20.8696 47.7969V30.261L9.38861 43.0386C12.6546 45.549 16.584 47.2386 20.8696 47.7969Z" fill="#D80027"/>
<path d="M20.8696 0.203186C16.584 0.761561 12.6546 2.45112 9.38861 4.96147L20.8696 17.7392V0.203186Z" fill="#D80027"/>
<path d="M0.203308 20.8696H17.7392L4.9615 9.38861C2.45115 12.6545 0.761589 16.584 0.203308 20.8696Z" fill="#D80027"/>
<path d="M27.1306 0.203186V17.7391L38.6117 4.96147C35.3458 2.45131 31.4162 0.761467 27.1306 0.203186Z" fill="#D80027"/>
<path d="M47.7969 20.8696C47.2385 16.584 45.549 12.6545 43.0386 9.38849L30.261 20.8696H47.7969Z" fill="#D80027"/>
<path d="M30.261 27.1304L43.0387 38.6115C45.549 35.3456 47.2386 31.416 47.797 27.1304H30.261Z" fill="#D80027"/>
<path d="M27.1306 47.7969C31.4161 47.2385 35.3458 45.549 38.6116 43.0385L27.1306 30.261V47.7969Z" fill="#D80027"/>
<path d="M43.0403 38.6134L28.4272 24.0001L28.4271 24L43.0403 9.38666C42.4102 8.56766 41.7207 7.77978 40.9705 7.02941C40.2203 6.27922 39.4324 5.58969 38.6133 4.95959L24 19.5729H23.9999L9.38663 4.95959C8.56763 5.58978 7.77966 6.27913 7.02929 7.02941C6.2791 7.77978 5.58957 8.56766 4.95947 9.38675L19.5728 23.9999L19.5728 24L4.95957 38.6134C5.58975 39.4323 6.27919 40.2203 7.02938 40.9707C7.77966 41.7208 8.56763 42.4104 9.38672 43.0405L23.9999 28.4272L38.6133 43.0405C39.4322 42.4103 40.2202 41.7208 40.9705 40.9707C41.7208 40.2203 42.4102 39.4323 43.0403 38.6134Z" fill="#496E2D"/>
<path d="M27.1304 47.7968V27.1307V27.1305H47.7968C47.9304 26.1057 48 25.061 48 24C48 22.9391 47.9303 21.8944 47.7968 20.8697H27.1306L27.1305 20.8696V0.20325C26.1058 0.0698438 25.0612 0 24 0C22.939 9.375e-05 21.8943 0.0698438 20.8696 0.20325L20.8697 20.8694V20.8696H0.20325C0.06975 21.8943 0 22.939 0 24C9.375e-05 25.0612 0.06975 26.1057 0.20325 27.1304H20.8695L20.8696 47.7968C21.8944 47.9303 22.9388 48 24 48C25.0612 48 26.1058 47.9303 27.1304 47.7968Z" fill="#F0F0F0"/>
</svg>
