<svg width="48" height="48" viewBox="0 0 48 48" fill="none" xmlns="http://www.w3.org/2000/svg">
<g clip-path="url(#clip0)">
<path d="M7.02893 40.9707C-2.34363 31.5982 -2.34363 16.4022 7.02893 7.02958C16.4015 -2.34308 31.5975 -2.34298 40.9702 7.02958C40.9702 7.03286 47.3422 28.5974 37.9695 37.9702C28.5971 47.3428 7.0355 40.9773 7.02893 40.9707Z" fill="#FFDA44"/>
<path d="M7.02939 40.9706C16.402 50.3432 31.598 50.3432 40.9706 40.9706C50.3433 31.5981 50.3432 16.4021 40.9706 7.02948L7.02939 40.9706Z" fill="#FF9811"/>
<path d="M37.5765 13.5652V9.39124H29.5763L28.965 10.0024C26.7911 12.1764 27.1568 14.7125 27.4238 16.5642C27.6714 18.282 27.7011 18.94 27.0623 19.579C26.4235 20.2177 25.7653 20.188 24.0477 19.9403C22.1959 19.6734 19.6599 19.3076 17.4859 21.4815C15.312 23.6554 15.6779 26.1913 15.9451 28.043C16.1929 29.7606 16.2227 30.4186 15.5841 31.0571C14.9454 31.6957 14.2872 31.666 12.5699 31.4182C11.9004 31.3215 11.208 31.2218 10.4689 31.2135L10.4231 35.3873C10.8856 35.3924 11.4143 35.4685 11.974 35.5494C12.6366 35.6451 13.3866 35.7533 14.1765 35.7533C14.9952 35.7533 15.8563 35.6365 16.7068 35.2693V38.6088H22.9678V35.4784H19.8373V33.3914H21.9243V30.261H20.2563C20.3354 29.2483 20.1963 28.2786 20.0763 27.4472C19.8285 25.7296 19.7987 25.0716 20.4373 24.4331C21.0762 23.7943 21.7341 23.824 23.452 24.0716C24.8013 24.2662 26.5139 24.512 28.1852 23.7905V27.1305H34.4461V24.0001H31.3157V21.9131H33.4027V18.7827H31.7348C31.814 17.77 31.675 16.8003 31.555 15.9686C31.382 14.7685 31.3153 14.0857 31.5088 13.5653H37.5765V13.5652Z" fill="#F0F0F0"/>
</g>
<defs>
<clipPath id="clip0">
<rect width="48" height="48" fill="white"/>
</clipPath>
</defs>
</svg>
