<svg width="48" height="48" viewBox="0 0 48 48" fill="none" xmlns="http://www.w3.org/2000/svg">
<path d="M24 48C37.2548 48 48 37.2548 48 24C48 10.7452 37.2548 0 24 0C10.7452 0 0 10.7452 0 24C0 37.2548 10.7452 48 24 48Z" fill="#F0F0F0"/>
<path d="M7.02933 7.02938C1.88573 12.173 -0.434298 19.0705 0.0675453 25.7967L25.7966 0.0676902C19.0704 -0.434247 12.1729 1.88578 7.02933 7.02938Z" fill="#FFDA44"/>
<path d="M8.56976 42.3816C17.9992 50.3149 32.0954 49.8457 40.9707 40.9705C49.846 32.0953 50.3152 17.999 42.3818 8.56964L8.56976 42.3816Z" fill="#0052B4"/>
<path d="M23.9145 23.0333L25.9827 21.913L23.9145 20.7927C23.4316 17.6558 20.953 15.1771 17.816 14.6943L16.6956 12.626L15.5753 14.6942C12.4384 15.177 9.95988 17.6557 9.47688 20.7926L7.40857 21.913L9.47679 23.0333C9.95969 26.1703 12.4383 28.649 15.5752 29.1318L16.6956 31.2001L17.8159 29.1319C20.953 28.649 23.4316 26.1703 23.9145 23.0333ZM16.6957 26.087C14.3905 26.087 12.5218 24.2184 12.5218 21.913C12.5218 19.6077 14.3904 17.7391 16.6957 17.7391C19.001 17.7391 20.8697 19.6077 20.8697 21.913C20.8697 24.2184 19.0009 26.087 16.6957 26.087Z" fill="black"/>
<path d="M16.6957 18.7826L17.5994 20.3478H19.4068L18.503 21.913L19.4068 23.4783H17.5994L16.6957 25.0434L15.7921 23.4783H13.9848L14.8884 21.913L13.9848 20.3478H15.7921L16.6957 18.7826Z" fill="#D80027"/>
</svg>
