<svg width="48" height="48" viewBox="0 0 48 48" fill="none" xmlns="http://www.w3.org/2000/svg">
<g clip-path="url(#clip0)">
<path d="M0 24C0 10.7452 10.7452 0 24 0C37.2547 0 48 10.7452 48 24H0Z" fill="#F0F0F0"/>
<path d="M17.7392 22.688L16.4271 24.0001H17.7392V22.688Z" fill="#0052B4"/>
<path d="M30.2609 22.688V24H31.5729L30.2609 22.688Z" fill="#0052B4"/>
<path d="M0.692438 18.261C0.241031 20.1 0 22.0218 0 24H7.57284L13.3118 18.261H0.692438Z" fill="#0052B4"/>
<path d="M34.6881 18.261L40.4271 24H48.0001C48.0001 22.0218 47.759 20.1 47.3077 18.261H34.6881Z" fill="#0052B4"/>
<path d="M33.2123 18.261H30.2609L35.9999 24H38.9514L33.2123 18.261Z" fill="#D80027"/>
<path d="M17.7391 21.2122V18.261H17.7389L11.9999 24H14.9513L17.7391 21.2122Z" fill="#D80027"/>
<path d="M11.2427 3.66962C10.2534 4.29174 9.31285 4.9838 8.42776 5.73915H13.3121L11.2427 3.66962Z" fill="#0052B4"/>
<path d="M39.5722 5.73915C38.6871 4.98371 37.7466 4.29165 36.7574 3.66962L34.688 5.73915H39.5722Z" fill="#0052B4"/>
<path d="M27.1303 15.1304H46.3069C45.3996 12.8505 44.1525 10.7432 42.6288 8.8695H27.1304H27.1303V0.203156C26.1056 0.06975 25.0609 0 23.9999 0C22.9388 0 21.8942 0.06975 20.8695 0.203156V8.86941V8.8695H5.37105C3.84733 10.7432 2.60027 12.8505 1.69296 15.1304H20.8693H20.8694V24H27.1303V15.1305V15.1304Z" fill="#D80027"/>
<path d="M17.739 5.7391V5.739L14.1209 2.12091C13.452 2.42344 12.8001 2.75672 12.1657 3.117L14.7878 5.7391H17.739Z" fill="#D80027"/>
<path d="M30.2607 5.73908L33.8789 2.12099C33.1907 1.80983 32.485 1.53083 31.7641 1.28436L30.2607 2.78783V5.73908Z" fill="#D80027"/>
<path d="M48 24C48 37.2548 37.2547 48 24 48C10.7452 48 0 37.2548 0 24C1.04344 24 48 24 48 24Z" fill="#F0F0F0"/>
<path d="M43.9997 27.0609C41.9997 27.0609 41.9997 25.2322 39.9997 25.2322C37.9997 25.2322 37.9997 27.0609 35.9998 27.0609C33.9999 27.0609 33.9998 25.2322 32 25.2322C30 25.2322 30 27.0609 27.9999 27.0609C25.9999 27.0609 25.9998 25.2322 23.9996 25.2322C21.9997 25.2322 21.9997 27.0609 19.9998 27.0609C18.0001 27.0609 18.0001 25.2322 16.0001 25.2322C14 25.2322 14 27.0609 11.9998 27.0609C9.99965 27.0609 9.99965 25.2322 7.99949 25.2322C5.99981 25.2322 5.99981 27.0609 3.99984 27.0609C2.01065 27.0609 1.99912 25.2524 0.0312119 25.2331C0.0866181 26.3309 0.217681 27.4086 0.415868 28.4626C2.00999 28.6969 2.14959 30.2609 3.99993 30.2609C5.9999 30.2609 5.9999 28.4324 7.99959 28.4324C9.99974 28.4324 9.99974 30.2609 11.9999 30.2609C14.0001 30.2609 14.0001 28.4324 16.0002 28.4324C18.0002 28.4324 18.0002 30.2609 19.9999 30.2609C21.9998 30.2609 21.9998 28.4324 23.9997 28.4324C25.9999 28.4324 25.9999 30.2609 28 30.2609C30.0002 30.2609 30.0002 28.4324 32.0001 28.4324C34 28.4324 34 30.2609 35.9999 30.2609C37.9998 30.2609 37.9999 28.4324 39.9997 28.4324C41.9999 28.4324 41.9999 30.2609 43.9998 30.2609C45.8503 30.2609 45.9899 28.697 47.5841 28.4627C47.7824 27.4086 47.9133 26.331 47.969 25.2332C46.0007 25.2526 45.989 27.0609 43.9997 27.0609Z" fill="#0052B4"/>
<path d="M39.9997 31.4932C37.9997 31.4932 37.9997 33.3219 35.9998 33.3219C34 33.3219 33.9999 31.4932 32 31.4932C30 31.4932 30 33.3219 28 33.3219C25.9998 33.3219 25.9998 31.4932 23.9997 31.4932C21.9997 31.4932 21.9997 33.3219 19.9998 33.3219C18.0001 33.3219 18.0001 31.4932 16.0002 31.4932C14 31.4932 14 33.3219 11.9998 33.3219C9.99968 33.3219 9.99968 31.4932 7.99953 31.4932C5.99984 31.4932 5.99984 33.3219 3.99987 33.3219C2.57084 33.3219 2.16265 32.3885 1.31656 31.8552C1.87981 33.4826 2.61256 35.0307 3.49503 36.4778C3.6485 36.5062 3.81556 36.5218 3.99987 36.5218C5.99984 36.5218 5.99984 34.6933 7.99953 34.6933C9.99968 34.6933 9.99968 36.5218 11.9998 36.5218C14 36.5218 14 34.6933 16.0002 34.6933C18.0001 34.6933 18.0001 36.5218 19.9998 36.5218C21.9998 36.5218 21.9998 34.6933 23.9997 34.6933C25.9998 34.6933 25.9998 36.5218 28 36.5218C30.0001 36.5218 30.0001 34.6933 32 34.6933C34 34.6933 34 36.5218 35.9998 36.5218C37.9997 36.5218 37.9998 34.6933 39.9997 34.6933C41.9998 34.6933 41.9998 36.5218 43.9997 36.5218C44.1841 36.5218 44.3513 36.5062 44.5047 36.4778C45.3872 35.0307 46.12 33.4826 46.6834 31.8553C45.8372 32.3883 45.429 33.3219 43.9997 33.3219C41.9998 33.3219 41.9998 31.4932 39.9997 31.4932Z" fill="#0052B4"/>
<path d="M47.987 23.2468C47.9891 23.3135 47.9914 23.3801 47.9929 23.4471C47.9914 23.3802 47.989 23.3135 47.987 23.2468Z" fill="#F0F0F0"/>
<path d="M0.00707626 23.4461C0.00867001 23.3793 0.01092 23.3126 0.0129825 23.2458C0.0110138 23.3126 0.00857626 23.3794 0.00707626 23.4461Z" fill="#F0F0F0"/>
<path d="M0 24C0 23.8148 0.0028125 23.6304 0.00703125 23.4461C0.00271875 23.6304 0 23.8148 0 24Z" fill="#F0F0F0"/>
<path d="M0 24C0 24.4372 0.012375 24.8715 0.0357188 25.3028C1.99913 25.3249 2.01216 27.1304 3.99994 27.1304C5.99991 27.1304 5.99991 25.3019 7.99959 25.3019C9.99975 25.3019 9.99975 27.1304 11.9999 27.1304C14.0001 27.1304 14.0001 25.3019 16.0002 25.3019C18.0002 25.3019 18.0002 27.1304 19.9999 27.1304C21.9998 27.1304 21.9998 25.3019 23.9997 25.3019C25.9999 25.3019 25.9999 27.1304 28 27.1304C30.0002 27.1304 30.0002 25.3019 32.0001 25.3019C34 25.3019 34 27.1304 35.9999 27.1304C37.9998 27.1304 37.9999 25.3019 39.9997 25.3019C41.9999 25.3019 41.9999 27.1304 43.9998 27.1304C45.9878 27.1304 46.0008 25.3249 47.9646 25.3028C47.9876 24.8714 48 24.4372 48 24H0Z" fill="#F0F0F0"/>
<path d="M47.9929 23.4461C47.9971 23.6302 47.9999 23.8147 47.9999 24C47.9999 23.8148 47.9972 23.6304 47.9929 23.4461Z" fill="#F0F0F0"/>
<path d="M39.9997 37.754C37.9997 37.754 37.9997 39.5827 35.9998 39.5827C34 39.5827 33.9999 37.754 32 37.754C30 37.754 30 39.5827 28 39.5827C25.9998 39.5827 25.9998 37.754 23.9997 37.754C21.9997 37.754 21.9997 39.5827 19.9998 39.5827C18.0001 39.5827 18.0001 37.754 16.0002 37.754C14 37.754 14 39.5827 11.9998 39.5827C9.99968 39.5827 9.99968 37.754 7.99953 37.754C6.61822 37.754 6.19081 38.6263 5.39956 39.166C7.49853 41.7372 10.1207 43.8638 13.1024 45.3865L24 44.8375L34.8975 45.3864C37.8792 43.8636 40.5013 41.7373 42.6003 39.1661C41.8087 38.6265 41.3813 37.754 39.9997 37.754Z" fill="#0052B4"/>
<path d="M37.3109 38.3263L30.0101 39.7227L29.0851 32.3479L24 37.7718L18.915 32.3478L17.9896 39.7226L10.6892 38.3262L14.2695 44.8373L13.1002 45.3873C16.371 47.0577 20.0753 48 24 48C27.9246 48 31.629 47.0577 34.8997 45.3875L33.7309 44.8376L37.3109 38.3263Z" fill="#FFDA44"/>
</g>
<defs>
<clipPath id="clip0">
<rect width="48" height="48" fill="white"/>
</clipPath>
</defs>
</svg>
