<svg width="48" height="48" viewBox="0 0 48 48" fill="none" xmlns="http://www.w3.org/2000/svg">
<path d="M24 48C37.2548 48 48 37.2548 48 24C48 10.7452 37.2548 0 24 0C10.7452 0 0 10.7452 0 24C0 37.2548 10.7452 48 24 48Z" fill="#F0F0F0"/>
<path d="M43.9997 26.8723C41.9997 26.8723 41.9997 25.0436 39.9996 25.0436C37.9997 25.0436 37.9997 26.8723 35.9998 26.8723C33.9999 26.8723 33.9998 25.0436 32 25.0436C30 25.0436 30 26.8723 27.9999 26.8723C25.9999 26.8723 25.9998 25.0436 23.9996 25.0436C21.9997 25.0436 21.9996 26.8723 19.9998 26.8723C18.0001 26.8723 18.0001 25.0436 16.0001 25.0436C14 25.0436 14 26.8723 11.9998 26.8723C9.99965 26.8723 9.99965 25.0436 7.99949 25.0436C5.99981 25.0436 5.99981 26.8723 3.99984 26.8723C2.01065 26.8723 1.99912 25.0637 0.0312119 25.0444C0.0866181 26.1421 0.217681 27.22 0.415868 28.274C2.00999 28.5081 2.14959 30.0721 4.00002 30.0721C5.99999 30.0721 5.99999 28.2436 7.99968 28.2436C9.99984 28.2436 9.99984 30.0721 12 30.0721C14.0001 30.0721 14.0001 28.2436 16.0003 28.2436C18.0003 28.2436 18.0003 30.0721 20 30.0721C21.9999 30.0721 21.9999 28.2436 23.9998 28.2436C26 28.2436 26 30.0721 28.0001 30.0721C30.0003 30.0721 30.0003 28.2436 32.0001 28.2436C34.0001 28.2436 34.0001 30.0721 36 30.0721C38 30.0721 38 28.2436 39.9998 28.2436C42 28.2436 42 30.0721 43.9999 30.0721C45.8504 30.0721 45.99 28.5082 47.5842 28.274C47.7825 27.2199 47.9134 26.1422 47.9691 25.0444C46.0007 25.0638 45.989 26.8723 43.9997 26.8723Z" fill="#0052B4"/>
<path d="M39.9995 31.3044C37.9995 31.3044 37.9995 33.1331 35.9996 33.1331C33.9997 33.1331 33.9996 31.3044 31.9998 31.3044C29.9998 31.3044 29.9998 33.1331 27.9997 33.1331C25.9996 33.1331 25.9996 31.3044 23.9994 31.3044C21.9995 31.3044 21.9995 33.1331 19.9996 33.1331C17.9999 33.1331 17.9999 31.3044 15.9999 31.3044C13.9998 31.3044 13.9998 33.1331 11.9996 33.1331C9.99946 33.1331 9.99946 31.3044 7.9993 31.3044C5.99961 31.3044 5.99961 33.1331 3.99964 33.1331C2.52636 33.1331 2.13739 32.1414 1.23524 31.619C1.78161 33.252 2.49927 34.8063 3.36599 36.2617C3.55367 36.307 3.76236 36.333 3.99955 36.333C5.99952 36.333 5.99952 34.5045 7.99921 34.5045C9.99936 34.5045 9.99936 36.333 11.9995 36.333C13.9997 36.333 13.9997 34.5045 15.9998 34.5045C17.9998 34.5045 17.9998 36.333 19.9995 36.333C21.9995 36.333 21.9995 34.5045 23.9993 34.5045C25.9995 34.5045 25.9995 36.333 27.9996 36.333C29.9998 36.333 29.9998 34.5045 31.9997 34.5045C33.9996 34.5045 33.9996 36.333 35.9995 36.333C37.9994 36.333 37.9995 34.5045 39.9994 34.5045C41.9995 34.5045 41.9995 36.333 43.9994 36.333C44.2368 36.333 44.4456 36.307 44.6334 36.2616C45.5002 34.8063 46.2178 33.252 46.7641 31.6191C45.8619 32.1415 45.4729 33.1332 43.9994 33.1332C41.9996 33.1331 41.9996 31.3044 39.9995 31.3044Z" fill="#0052B4"/>
<path d="M47.4415 18.8382C45.9796 19.1417 45.7932 20.6113 43.9995 20.6113C41.9996 20.6113 41.9996 18.7826 39.9995 18.7826C37.9995 18.7826 37.9995 20.6113 35.9997 20.6113C33.9998 20.6113 33.9997 18.7826 31.9998 18.7826C29.9999 18.7826 29.9999 20.6113 27.9998 20.6113C25.9997 20.6113 25.9996 18.7826 23.9995 18.7826C22.9188 18.7826 22.422 19.3164 21.8781 19.8073V23.0072C22.422 22.5165 22.9187 21.9827 23.9995 21.9827C25.9996 21.9827 25.9996 23.8112 27.9998 23.8112C30 23.8112 30 21.9827 31.9998 21.9827C33.9998 21.9827 33.9998 23.8112 35.9997 23.8112C37.9995 23.8112 37.9996 21.9827 39.9995 21.9827C41.9997 21.9827 41.9997 23.8112 43.9995 23.8112C45.8501 23.8112 45.9897 22.2473 47.5839 22.0131C47.6861 22.0131 47.8003 22.0121 47.9172 22.0107C47.8286 20.9313 47.6683 19.8723 47.4415 18.8382Z" fill="#0052B4"/>
<path d="M45.6884 13.7133C45.2739 14.0614 44.7949 14.3505 43.9997 14.3505C41.9997 14.3505 41.9997 12.5218 39.9996 12.5218C37.9997 12.5218 37.9997 14.3505 35.9998 14.3505C33.9999 14.3505 33.9998 12.5218 32 12.5218C30 12.5218 30 14.3505 27.9999 14.3505C25.9999 14.3505 25.9998 12.5218 23.9996 12.5218C22.919 12.5218 22.4221 13.0556 21.8782 13.5465V16.7464C22.4221 16.2557 22.9189 15.7219 23.9996 15.7219C25.9998 15.7219 25.9998 17.5504 27.9999 17.5504C29.9999 17.5504 29.9999 15.7219 31.9999 15.7219C33.9998 15.7219 33.9998 17.5504 35.9997 17.5504C37.9996 17.5504 37.9996 15.7219 39.9995 15.7219C41.9997 15.7219 41.9997 17.5504 43.9996 17.5504C45.4187 17.5504 45.832 16.6312 46.6664 16.0967C46.382 15.2813 46.0555 14.4859 45.6884 13.7133Z" fill="#0052B4"/>
<path d="M40.1703 6.26574C40.1148 6.26274 40.0583 6.26086 39.9995 6.26086C37.9995 6.26086 37.9995 8.08955 35.9996 8.08955C33.9997 8.08955 33.9997 6.26086 31.9998 6.26086C29.9998 6.26086 29.9998 8.08955 27.9997 8.08955C25.9995 8.08955 25.9995 6.26086 23.9994 6.26086C22.9187 6.26086 22.4218 6.79468 21.878 7.28555V10.4855C22.4218 9.99474 22.9186 9.46102 23.9994 9.46102C25.9995 9.46102 25.9995 11.2895 27.9997 11.2895C29.9998 11.2895 29.9998 9.46102 31.9997 9.46102C33.9997 9.46102 33.9997 11.2895 35.9996 11.2895C37.9994 11.2895 37.9995 9.46102 39.9994 9.46102C41.9995 9.46102 41.9996 11.2895 43.9994 11.2895C44.1226 11.2895 44.2376 11.2822 44.3466 11.2692C43.1849 9.4163 41.7783 7.73283 40.1703 6.26574Z" fill="#0052B4"/>
<path d="M30.1344 0.792558C29.5854 1.28643 29.0893 1.82887 28 1.82887C25.9998 1.82887 25.9998 0.000370605 23.9998 0.000183105H23.9994C22.9651 0.000276855 22.4658 0.489371 21.9479 0.961777V4.16184C22.4657 3.68943 22.9652 3.20025 23.9998 3.20025C25.9999 3.20025 25.9999 5.02875 28.0001 5.02875C30.0001 5.02875 30.0001 3.20025 32.0001 3.20025C34.0001 3.20025 34.0001 5.02875 35.9999 5.02875C36.8391 5.02875 37.3259 4.70662 37.7564 4.33293C35.4749 2.73403 32.9025 1.52221 30.1344 0.792558Z" fill="#0052B4"/>
<path d="M27.9997 45.6547C25.9995 45.6547 25.9995 43.826 23.9994 43.826C21.9994 43.826 21.9994 45.6547 19.9995 45.6547C17.9998 45.6547 17.9999 43.826 15.9999 43.826C14.4679 43.826 14.1086 44.898 13.1261 45.4003C15.8354 46.7797 18.8417 47.659 22.0236 47.9184C22.5157 47.4688 23.0156 47.0261 23.9994 47.0261C24.9835 47.0261 25.4834 47.4688 25.9755 47.9185C29.1575 47.6592 32.164 46.7798 34.8734 45.4004C33.8908 44.8981 33.5315 43.8259 31.9997 43.8259C29.9999 43.826 29.9999 45.6547 27.9997 45.6547Z" fill="#0052B4"/>
<path d="M35.9996 39.3939C33.9997 39.3939 33.9997 37.5652 31.9998 37.5652C29.9998 37.5652 29.9998 39.3939 27.9998 39.3939C25.9996 39.3939 25.9996 37.5652 23.9995 37.5652C21.9995 37.5652 21.9995 39.3939 19.9996 39.3939C17.9999 39.3939 17.9999 37.5652 16 37.5652C13.9998 37.5652 13.9998 39.3939 11.9996 39.3939C9.99949 39.3939 9.99949 37.5652 7.99933 37.5652C6.56112 37.5652 6.15724 38.5112 5.2999 39.0423C5.83727 39.7096 6.40858 40.3484 7.01318 40.954C7.28402 40.8383 7.60183 40.7653 7.99924 40.7653C9.9994 40.7653 9.9994 42.5938 11.9996 42.5938C13.9997 42.5938 13.9997 40.7653 15.9999 40.7653C17.9998 40.7653 17.9998 42.5938 19.9995 42.5938C21.9995 42.5938 21.9995 40.7653 23.9994 40.7653C25.9995 40.7653 25.9995 42.5938 27.9997 42.5938C29.9998 42.5938 29.9998 40.7653 31.9997 40.7653C33.9996 40.7653 33.9997 42.5938 35.9996 42.5938C37.9994 42.5938 37.9995 40.7653 39.9994 40.7653C40.3973 40.7653 40.7151 40.8383 40.9861 40.9542C41.5908 40.3485 42.1621 39.7097 42.6995 39.0424C41.8421 38.5114 41.4382 37.5653 39.9995 37.5653C37.9995 37.5652 37.9995 39.3939 35.9996 39.3939Z" fill="#0052B4"/>
<path d="M23.9358 24.0001H24.0001C24.0001 23.9785 24.0001 23.9575 24.0001 23.9359C23.9787 23.9573 23.9573 23.9787 23.9358 24.0001Z" fill="#F0F0F0"/>
<path d="M24 12.5216V19.5729L15.6522 11.4782L24 12.5216Z" fill="#0052B4"/>
<path d="M12.5218 23.9999H19.5727L12.5217 14.6086L11.4782 21.913L12.5218 23.9999Z" fill="#0052B4"/>
<path d="M24 12.5217C24 8.29875 24 5.53172 24 0H23.996C10.743 0.00225 0 10.7465 0 24H12.5218V16.949L19.5728 24H23.9359C23.9572 23.9786 23.9786 23.9573 24.0001 23.9358C24.0001 22.3189 24.0001 20.8762 24.0001 19.5729L16.9489 12.5217H24Z" fill="#F0F0F0"/>
<path d="M12.1419 3.13043C8.38827 5.26784 5.26771 8.3884 3.1303 12.1421V24H9.39121V9.39153V9.39134H23.9999C23.9999 7.41668 23.9999 5.53549 23.9999 3.13043H12.1419Z" fill="#D80027"/>
<path d="M24.0001 21.0486L15.473 12.5218H12.5218V12.522L23.9999 24H24.0001C24.0001 24 24.0001 21.9649 24.0001 21.0486Z" fill="#D80027"/>
<path d="M31.3043 12.5218H40.6956L35.9999 17.2174L31.3043 12.5218Z" fill="#6DA544"/>
<path d="M37.0434 16.174H34.9565V21.913H37.0434V16.174Z" fill="#A2001D"/>
<path d="M37.0434 31.3044H34.9565V37.0435H37.0434V31.3044Z" fill="#A2001D"/>
<path d="M42.2611 28.1739C42.2611 26.4451 40.8595 25.0435 39.1307 25.0435C38.3288 25.0435 37.5977 25.3454 37.0437 25.8412V24H38.0872V21.913H37.0437V20.8696H34.9568V21.913H33.9133V24H34.9568V25.8412C34.4028 25.3454 33.6717 25.0435 32.8698 25.0435C31.1409 25.0435 29.7394 26.4451 29.7394 28.1739C29.7394 29.1008 30.1426 29.9333 30.7828 30.5066V32.3479H41.2176V30.5066C41.8579 29.9333 42.2611 29.1008 42.2611 28.1739Z" fill="#FFDA44"/>
<path d="M39.1304 27.1304C38.8013 27.1304 38.5708 27.275 38.4353 27.3961L37.0434 28.6422H34.9566L33.5647 27.3961C33.4292 27.275 33.1988 27.1304 32.8696 27.1304C32.2943 27.1304 31.8262 27.5985 31.8262 28.1739C31.8262 28.5792 32.0447 28.8352 32.1749 28.9519L32.8697 29.574V30.2608H39.1306V29.574L39.8254 28.9519C39.9556 28.8353 40.1741 28.5792 40.1741 28.1739C40.1739 27.5985 39.7058 27.1304 39.1304 27.1304Z" fill="#D80027"/>
</svg>
