<svg width="48" height="48" viewBox="0 0 48 48" fill="none" xmlns="http://www.w3.org/2000/svg">
<g clip-path="url(#clip0)">
<path d="M24.0002 47.9966C37.2531 47.9966 47.9967 37.253 47.9967 24.0001C47.9967 10.7473 37.2531 0.00366211 24.0002 0.00366211C10.7473 0.00366211 0.00372314 10.7473 0.00372314 24.0001C0.00372314 37.253 10.7473 47.9966 24.0002 47.9966Z" fill="#F0F0F0"/>
<path d="M3.21844 12.0018C2.13532 13.8776 1.33636 15.8387 0.804321 17.8362L40.9356 41.0062C42.3996 39.5466 43.6986 37.874 44.7814 35.9983L3.21844 12.0018Z" fill="black"/>
<path d="M35.9983 3.21847C26.3966 -2.32499 14.5576 -0.477422 7.06424 6.99386L47.1955 30.1636C49.9193 19.9389 45.5998 8.76203 35.9983 3.21847Z" fill="#FFDA44"/>
<path d="M12.0019 44.7816C21.6035 50.325 33.4428 48.4775 40.9359 41.0063L0.804489 17.8362C-1.9191 28.0613 2.40024 39.2381 12.0019 44.7816Z" fill="#FFDA44"/>
<path d="M30.7819 21.3917C30.7819 25.137 27.7456 28.1734 24.0002 28.1734C20.2548 28.1734 17.2186 25.1371 17.2186 21.3917C17.2186 20.2239 17.5138 19.1251 18.0337 18.1657C16.5621 19.6707 15.6536 21.7288 15.6536 24C15.6536 28.6097 19.3904 32.3466 24.0002 32.3466C28.61 32.3466 32.3469 28.6098 32.3469 24C32.3469 21.7288 31.4384 19.6707 29.9667 18.1657C30.4866 19.1253 30.7819 20.2239 30.7819 21.3917Z" fill="#D80027"/>
<path d="M25.5655 13.5669H22.4355V29.2168H25.5655V13.5669Z" fill="#D80027"/>
<path d="M29.2166 16.6968H18.7834C18.7834 17.4171 19.4109 18.001 20.1311 18.001H20.0876C20.0876 18.7213 20.6716 19.3051 21.3918 19.3051C21.3918 20.0254 21.9758 20.6093 22.696 20.6093H25.3043C26.0246 20.6093 26.6085 20.0254 26.6085 19.3051C27.3288 19.3051 27.9126 18.7213 27.9126 18.001H27.8692C28.5892 18.0009 29.2166 17.4172 29.2166 16.6968Z" fill="#D80027"/>
<path d="M31.3038 30.2601H16.6972V33.3901H31.3038V30.2601Z" fill="#D80027"/>
<path d="M33.3902 31.3034H27.1303V34.4334H33.3902V31.3034Z" fill="#D80027"/>
<path d="M20.8704 31.3034H14.6104V34.4334H20.8704V31.3034Z" fill="#D80027"/>
</g>
<defs>
<clipPath id="clip0">
<rect width="48" height="48" fill="white"/>
</clipPath>
</defs>
</svg>
