<svg width="48" height="48" viewBox="0 0 48 48" fill="none" xmlns="http://www.w3.org/2000/svg">
<path d="M24 48C37.2548 48 48 37.2548 48 24C48 10.7452 37.2548 0 24 0C10.7452 0 0 10.7452 0 24C0 37.2548 10.7452 48 24 48Z" fill="#F0F0F0"/>
<path d="M24 48C31.2742 48 37.792 44.7634 42.1933 39.6522H5.80682C10.2081 44.7634 16.7259 48 24 48Z" fill="#0052B4"/>
<path d="M48 24C48 10.7452 37.2547 0 24 0C10.7452 0 0 10.7452 0 24C0 26.1663 0.28875 28.2646 0.826781 30.2609H47.1733C47.7113 28.2646 48 26.1663 48 24Z" fill="#0052B4"/>
<path d="M1.90747 33.3912C2.37013 34.4784 2.91097 35.5239 3.5225 36.5216H44.4774C45.0887 35.5238 45.6296 34.4783 46.0924 33.3912H1.90747Z" fill="#D80027"/>
<path d="M17.1553 25.5652L17.5438 26.7609H18.8011L17.784 27.5L18.1725 28.6957L17.1553 27.9566L16.1381 28.6957L16.5267 27.5L15.5096 26.7609H16.7669L17.1553 25.5652Z" fill="#FFDA44"/>
<path d="M17.1553 41.2173L17.5438 42.4131H18.8011L17.784 43.152L18.1725 44.3477L17.1553 43.6088L16.1381 44.3477L16.5267 43.152L15.5096 42.4131H16.7669L17.1553 41.2173Z" fill="#FFDA44"/>
<path d="M9.86926 35.924L10.2578 37.1196H11.515L10.4979 37.8585L10.8864 39.0544L9.86926 38.3154L8.85207 39.0544L9.24076 37.8585L8.22357 37.1196H9.48076L9.86926 35.924Z" fill="#FFDA44"/>
<path d="M12.6521 27.1304L13.0406 28.3262H14.2978L13.2808 29.0652L13.6693 30.2609L12.6521 29.5219L11.6349 30.2609L12.0236 29.0652L11.0063 28.3262H12.2636L12.6521 27.1304Z" fill="#FFDA44"/>
<path d="M8.22357 32.0545L9.48057 32.0546L9.86917 30.8586L10.2578 32.0545L11.515 32.0544L10.4979 32.7935L10.8864 33.9892L9.86917 33.2502L8.85207 33.989L9.24057 32.7934L8.22357 32.0545Z" fill="#FFDA44"/>
<path d="M11.635 42.5542L12.0235 41.3587L11.0062 40.6198H12.2635L12.6521 39.424L13.0407 40.6197H14.2979L13.2807 41.3586L13.6692 42.5545L12.652 41.8154L11.635 42.5542Z" fill="#FFDA44"/>
<path d="M24.4384 35.924L24.05 37.1196H22.7927L23.8097 37.8585L23.4212 39.0544L24.4384 38.3154L25.4556 39.0544L25.067 37.8585L26.0842 37.1196H24.8269L24.4384 35.924Z" fill="#FFDA44"/>
<path d="M21.6555 27.1304L21.2671 28.3262H20.0098L21.0268 29.0652L20.6383 30.2609L21.6555 29.5219L22.6727 30.2609L22.2841 29.0652L23.3013 28.3262H22.044L21.6555 27.1304Z" fill="#FFDA44"/>
<path d="M26.0842 32.0545L24.8271 32.0546L24.4385 30.8586L24.05 32.0545L22.7927 32.0544L23.8098 32.7935L23.4212 33.9892L24.4385 33.2502L25.4556 33.989L25.0671 32.7934L26.0842 32.0545Z" fill="#FFDA44"/>
<path d="M22.6726 42.5542L22.2842 41.3587L23.3014 40.6198H22.0441L21.6555 39.424L21.267 40.6197H20.0097L21.0269 41.3586L20.6384 42.5545L21.6556 41.8154L22.6726 42.5542Z" fill="#FFDA44"/>
</svg>
