<svg width="48" height="48" viewBox="0 0 48 48" fill="none" xmlns="http://www.w3.org/2000/svg">
<path d="M48 24C48 37.2547 37.2547 48 24 48C10.7452 48 0 37.2547 0 24C0 24.0057 24 0.002625 24 0C37.2547 0 48 10.7452 48 24Z" fill="#0052B4"/>
<path d="M23.9359 24.0001H24.0001C24.0001 23.9785 24.0001 23.9575 24.0001 23.9359C23.9787 23.9573 23.9573 23.9787 23.9359 24.0001Z" fill="#F0F0F0"/>
<path d="M24 12.5217C24 8.29875 24 5.53172 24 0H23.996C10.7429 0.00225 0 10.7465 0 24H12.5217V16.949L19.5728 24H23.9359C23.9572 23.9786 23.9786 23.9573 24.0001 23.9358C24.0001 22.3189 24.0001 20.8762 24.0001 19.5729L16.9489 12.5217H24Z" fill="#F0F0F0"/>
<path d="M34.4346 17.7392C36.7398 17.7392 38.6085 15.8705 38.6085 13.5653C38.6085 11.2601 36.7398 9.39136 34.4346 9.39136C32.1294 9.39136 30.2606 11.2601 30.2606 13.5653C30.2606 15.8705 32.1294 17.7392 34.4346 17.7392Z" fill="#6DA544"/>
<path d="M12.1419 3.13043C8.38828 5.26784 5.26762 8.3884 3.13031 12.1421V24H9.39122V9.39153V9.39134H23.9999C23.9999 7.41668 23.9999 5.53549 23.9999 3.13043H12.1419Z" fill="#D80027"/>
<path d="M23.9998 21.0486L15.4728 12.5218H12.5215V12.522L23.9996 24H23.9998C23.9998 24 23.9998 21.9649 23.9998 21.0486Z" fill="#D80027"/>
<path d="M41.739 12.5218H27.1303V18.7827H41.739V12.5218Z" fill="#D80027"/>
<path d="M27.1303 28.174V32.3479H29.3263C30.643 33.6383 32.4454 34.4349 34.4347 34.4349C36.4239 34.4349 38.2263 33.6383 39.543 32.3479H39.652H41.739V28.174H27.1303Z" fill="#FFDA44"/>
<path d="M27.1303 17.7391V24C27.1303 29.5912 34.4347 31.3043 34.4347 31.3043C34.4347 31.3043 41.739 29.5912 41.739 24V17.7391H27.1303Z" fill="#338AF3"/>
<path d="M34.4343 21.0833C32.6083 21.0833 32.6083 22.7529 30.7824 22.7529C28.9564 22.7529 28.9564 21.0833 27.1304 21.0833V24.005C28.9564 24.005 28.9564 25.6746 30.7824 25.6746C32.6083 25.6746 32.6083 24.005 34.4343 24.005C36.2605 24.005 36.2605 25.6746 38.0867 25.6746C39.913 25.6746 39.9129 24.005 41.7391 24.005V21.0833C39.913 21.0833 39.913 22.7529 38.0867 22.7529C36.2605 22.7529 36.2605 21.0833 34.4343 21.0833Z" fill="#F3F3F3"/>
<path d="M34.4343 15.2347C32.6083 15.2347 32.6083 16.9043 30.7824 16.9043C28.9564 16.9043 28.9564 15.2347 27.1304 15.2347V18.1565C28.9564 18.1565 28.9564 19.8261 30.7824 19.8261C32.6083 19.8261 32.6083 18.1565 34.4343 18.1565C36.2605 18.1565 36.2605 19.8261 38.0867 19.8261C39.913 19.8261 39.9129 18.1565 41.7391 18.1565V15.2347C39.913 15.2347 39.913 16.9043 38.0867 16.9043C36.2605 16.9043 36.2605 15.2347 34.4343 15.2347Z" fill="#F3F3F3"/>
</svg>
