<svg width="48" height="48" viewBox="0 0 48 48" fill="none" xmlns="http://www.w3.org/2000/svg">
<g clip-path="url(#clip0)">
<path d="M24 48C37.2548 48 48 37.2548 48 24C48 10.7452 37.2548 0 24 0C10.7452 0 0 10.7452 0 24C0 37.2548 10.7452 48 24 48Z" fill="#F0F0F0"/>
<path d="M45.082 12.5217C41.9808 6.83778 36.648 2.54694 30.2611 0.8255L29.2177 12.5217H45.082Z" fill="#0052B4"/>
<path d="M2.91821 12.5217H18.7826L17.7392 0.8255C11.3522 2.54694 6.01956 6.83787 2.91821 12.5217Z" fill="#0052B4"/>
<path d="M29.2175 24V35.4783H45.0819C46.9424 32.0685 48.0002 28.1578 48.0002 24H29.2175Z" fill="#6DA544"/>
<path d="M18.7826 24H0C0 28.1578 1.05778 32.0685 2.91816 35.4783H18.7825V24H18.7826Z" fill="#6DA544"/>
<path d="M2.91821 35.4782C6.01956 41.1622 11.3522 45.453 17.7392 47.1745L18.7826 36.9455L2.91821 35.4782Z" fill="#FFDA44"/>
<path d="M30.2611 47.1745C36.648 45.453 41.9808 41.1622 45.082 35.4782L29.2177 36.9453L30.2611 47.1745Z" fill="#FFDA44"/>
<path d="M29.2175 36.9453L45.082 35.4782H29.2175V36.9453Z" fill="#FFDA44"/>
<path d="M18.7827 35.4782H2.91821L18.7827 36.9453V35.4782Z" fill="#FFDA44"/>
<path d="M24.0002 0C21.8339 0 19.7356 0.28875 17.7393 0.826781V47.1733C19.7356 47.7113 21.8339 48 24.0002 48C26.1665 48 28.2648 47.7113 30.2611 47.1732V0.826781C28.2648 0.28875 26.1665 0 24.0002 0Z" fill="#D80027"/>
<path d="M12.9093 5.21741L13.5567 7.21025H15.6523L13.9571 8.44194L14.6046 10.4348L12.9093 9.20319L11.214 10.4348L11.8617 8.44194L10.1665 7.21025H12.2619L12.9093 5.21741Z" fill="#FFDA44"/>
</g>
<defs>
<clipPath id="clip0">
<rect width="48" height="48" fill="white"/>
</clipPath>
</defs>
</svg>
