<svg width="48" height="48" viewBox="0 0 48 48" fill="none" xmlns="http://www.w3.org/2000/svg">
<path d="M24 48C37.2548 48 48 37.2548 48 24C48 10.7452 37.2548 0 24 0C10.7452 0 0 10.7452 0 24C0 37.2548 10.7452 48 24 48Z" fill="#F0F0F0"/>
<path d="M24 0C17.3726 0 11.3726 2.68631 7.02942 7.02938L24 24V0Z" fill="black"/>
<path d="M0 24C0 30.6275 2.68631 36.6275 7.02938 40.9706L24 24H0Z" fill="black"/>
<path d="M24 48C30.6275 48 36.6275 45.3137 40.9706 40.9706L24 24V48Z" fill="black"/>
<path d="M48 24C48 17.3726 45.3137 11.3726 40.9706 7.02942L24 24H48Z" fill="black"/>
<path d="M15.6522 16.6957L24 17.7394L32.3478 16.6957V11.687L29.0087 13.3566L24 8.34778L18.9913 13.3566L15.6522 11.687V16.6957Z" fill="#FFDA44"/>
<path d="M24 36.5217C19.397 36.5217 15.6522 32.7769 15.6522 28.1739V19.8265L18.7826 16.6959H29.2174L32.3478 19.8265V28.1739C32.3478 32.7769 28.603 36.5217 24 36.5217Z" fill="#D80027"/>
<path d="M23.9998 33.3913C21.1229 33.3913 18.7825 31.0508 18.7825 28.174V19.8263H29.2172V28.1739C29.2172 31.0508 26.8767 33.3913 23.9998 33.3913Z" fill="#F0F0F0"/>
<path d="M18.7826 16.6956H15.6522V19.826H18.7826V16.6956Z" fill="#FFDA44"/>
<path d="M32.3479 16.6956H29.2175V19.826H32.3479V16.6956Z" fill="#FFDA44"/>
<path d="M32.3479 23.4782H29.2175V26.6086H32.3479V23.4782Z" fill="#FFDA44"/>
<path d="M18.7826 23.4782H15.6522V26.6086H18.7826V23.4782Z" fill="#FFDA44"/>
<path d="M23.9998 33.3913C23.4546 33.3913 22.9289 33.3069 22.4346 33.1511V36.3724C22.9419 36.4692 23.4647 36.5218 23.9998 36.5218C24.5349 36.5218 25.0577 36.4692 25.5651 36.3724V33.1511C25.0707 33.3068 24.5451 33.3913 23.9998 33.3913Z" fill="#FFDA44"/>
<path d="M18.8526 29.0208L16.3543 31.5191C16.7874 32.5052 17.4054 33.392 18.165 34.1354L20.3775 31.9229C19.5879 31.1601 19.0379 30.1513 18.8526 29.0208Z" fill="#FFDA44"/>
<path d="M31.6458 31.5192L29.1476 29.021C28.9621 30.1514 28.4122 31.1601 27.6227 31.9232L29.8352 34.1357C30.5946 33.3922 31.2127 32.5054 31.6458 31.5192Z" fill="#FFDA44"/>
<path d="M22.9565 21.5653V23.3044C22.9565 23.8806 23.4236 24.3478 23.9999 24.3478C24.5762 24.3478 25.0434 23.8806 25.0434 23.3044V21.5653H22.9565Z" fill="#0052B4"/>
<path d="M22.9565 28.5219V30.2609C22.9565 30.8371 23.4236 31.3043 23.9999 31.3043C24.5762 31.3043 25.0434 30.8371 25.0434 30.2609V28.5219H22.9565Z" fill="#0052B4"/>
<path d="M26.0868 25.0435V26.7827C26.0868 27.3589 26.5539 27.8261 27.1302 27.8261C27.7065 27.8261 28.1737 27.3589 28.1737 26.7827V25.0435H26.0868Z" fill="#0052B4"/>
<path d="M22.9565 25.0435V26.7827C22.9565 27.3589 23.4236 27.8261 23.9999 27.8261C24.5762 27.8261 25.0434 27.3589 25.0434 26.7827V25.0435H22.9565Z" fill="#0052B4"/>
<path d="M19.826 25.0435V26.7827C19.826 27.3589 20.2932 27.8261 20.8695 27.8261C21.4458 27.8261 21.9129 27.3589 21.9129 26.7827V25.0435H19.826Z" fill="#0052B4"/>
</svg>
