<svg width="48" height="48" viewBox="0 0 48 48" fill="none" xmlns="http://www.w3.org/2000/svg">
<path d="M24 48C37.2548 48 48 37.2548 48 24C48 10.7452 37.2548 0 24 0C10.7452 0 0 10.7452 0 24C0 37.2548 10.7452 48 24 48Z" fill="#6DA544"/>
<path d="M36.8423 34.4348L37.5009 35.8118L38.9882 35.4682L38.3222 36.8417L39.5182 37.7901L38.029 38.1257L38.0333 39.6522L36.8423 38.6972L35.6515 39.6522L35.6557 38.1257L34.1666 37.7901L35.3626 36.8417L34.6966 35.4682L36.1838 35.8118L36.8423 34.4348Z" fill="#FFDA44"/>
<path d="M30.7157 19.826L31.3744 21.2031L32.8616 20.8594L32.1955 22.233L33.3915 23.1814L31.9024 23.517L31.9066 25.0434L30.7157 24.0885L29.5249 25.0434L29.5289 23.517L28.0399 23.1814L29.2359 22.233L28.5698 20.8594L30.0572 21.2031L30.7157 19.826Z" fill="#FFDA44"/>
<path d="M36.8424 11.4782L37.501 12.8553L38.9882 12.5114L38.3223 13.8851L39.5182 14.8335L38.0291 15.1691L38.0331 16.6956L36.8424 15.7406L35.6516 16.6956L35.6557 15.1691L34.1667 14.8335L35.3626 13.8851L34.6966 12.5114L36.1838 12.8553L36.8424 11.4782Z" fill="#FFDA44"/>
<path d="M42.1939 17.7391L42.8525 19.1162L44.3398 18.7724L43.6737 20.146L44.8697 21.0944L43.3807 21.43L43.3848 22.9565L42.1939 22.0015L41.0031 22.9565L41.0071 21.43L39.5182 21.0944L40.7142 20.146L40.0481 18.7724L41.5353 19.1162L42.1939 17.7391Z" fill="#FFDA44"/>
<path d="M38.3669 25.0435L38.885 26.6379H40.5614L39.2051 27.6232L39.7232 29.2174L38.3669 28.2322L37.0108 29.2174L37.5287 27.6232L36.1725 26.6379H37.8489L38.3669 25.0435Z" fill="#FFDA44"/>
<path d="M26.6086 30.7825C22.8627 30.7825 19.8259 27.7458 19.8259 23.9999C19.8259 20.254 22.8626 17.2173 26.6086 17.2173C27.7766 17.2173 28.8756 17.5127 29.835 18.0325C28.3299 16.5605 26.2716 15.652 23.9998 15.652C19.3895 15.652 15.6521 19.3895 15.6521 23.9998C15.6521 28.6102 19.3895 32.3476 23.9998 32.3476C26.2715 32.3476 28.3299 31.4392 29.8349 29.9671C28.8756 30.4871 27.7766 30.7825 26.6086 30.7825Z" fill="#FFDA44"/>
<path d="M15.0922 9.39129C14.3703 8.14404 13.0227 7.30432 11.478 7.30432C9.93342 7.30432 8.58577 8.14404 7.86389 9.39129H15.0922Z" fill="#FFDA44"/>
<path d="M15.1063 9.41541L11.4782 13.0434L7.85019 9.41541C7.50341 10.0239 7.30438 10.7277 7.30438 11.4783C7.30438 13.7835 9.1731 15.6522 11.4783 15.6522C13.7835 15.6522 15.6523 13.7836 15.6523 11.4783C15.6522 10.7277 15.453 10.0239 15.1063 9.41541Z" fill="#FFDA44"/>
<path d="M10.4346 12V15.5207C10.768 15.6065 11.1177 15.6521 11.478 15.6521C11.8383 15.6521 12.188 15.6064 12.5214 15.5207V12H10.4346Z" fill="#A2001D"/>
</svg>
