<svg width="48" height="48" viewBox="0 0 48 48" fill="none" xmlns="http://www.w3.org/2000/svg">
<path d="M48 24C48 37.2547 37.2547 48 24 48C10.7452 48 0 37.2547 0 24C0 24.0057 24 0.002625 24 0C37.2547 0 48 10.7452 48 24Z" fill="#0052B4"/>
<path d="M23.9358 24.0001H24.0001C24.0001 23.9785 24.0001 23.9575 24.0001 23.9359C23.9787 23.9573 23.9573 23.9787 23.9358 24.0001Z" fill="#F0F0F0"/>
<path d="M24 12.5217C24 8.29875 24 5.53172 24 0H23.996C10.7429 0.00225 0 10.7465 0 24H12.5217V16.949L19.5728 24H23.9359C23.9572 23.9786 23.9786 23.9573 24.0001 23.9358C24.0001 22.3189 24.0001 20.8762 24.0001 19.5729L16.9489 12.5217H24Z" fill="#F0F0F0"/>
<path d="M12.1419 3.13043C8.38828 5.26784 5.26762 8.3884 3.13031 12.1421V24H9.39122V9.39153V9.39134H23.9999C23.9999 7.41668 23.9999 5.53549 23.9999 3.13043H12.1419Z" fill="#D80027"/>
<path d="M24.0001 21.0486L15.473 12.5218H12.5218V12.522L23.9999 24H24.0001C24.0001 24 24.0001 21.9649 24.0001 21.0486Z" fill="#D80027"/>
<path d="M32.3478 24L32.792 25.3665H34.2287L33.0664 26.211L33.5104 27.5776L32.3478 26.733L31.1854 27.5776L31.6294 26.211L30.4671 25.3665H31.9038L32.3478 24Z" fill="#F0F0F0"/>
<path d="M26.4449 26.4452L27.7251 27.0974L28.7411 26.0814L28.5163 27.5006L29.7966 28.1529L28.3774 28.3775L28.1527 29.7969L27.5003 28.5166L26.0812 28.7414L27.0973 27.7254L26.4449 26.4452Z" fill="#F0F0F0"/>
<path d="M24 32.3477L25.3665 31.9037L25.3667 30.4671L26.211 31.6293L27.5776 31.1852L26.733 32.3477L27.5776 33.5103L26.211 33.0663L25.3667 34.2286V32.7919L24 32.3477Z" fill="#F0F0F0"/>
<path d="M26.4449 38.2506L27.0971 36.9703L26.0812 35.9545L27.5004 36.1792L28.1527 34.8989L28.3774 36.3181L29.7966 36.5427L28.5163 37.1951L28.7411 38.6144L27.7251 37.5982L26.4449 38.2506Z" fill="#F0F0F0"/>
<path d="M32.3478 40.6956L31.9038 39.329H30.467L31.6294 38.4845L31.1854 37.118L32.3478 37.9625L33.5104 37.118L33.0664 38.4845L34.2287 39.329H32.792L32.3478 40.6956Z" fill="#F0F0F0"/>
<path d="M38.2507 38.2506L36.9704 37.5985L35.9545 38.6144L36.1793 37.1951L34.899 36.5429L36.3182 36.3181L36.543 34.8989L37.1952 36.1792L38.6144 35.9545L37.5983 36.9704L38.2507 38.2506Z" fill="#F0F0F0"/>
<path d="M40.6959 32.3477L39.3293 32.7919V34.2286L38.4848 33.0662L37.1183 33.5103L37.9628 32.3477L37.1183 31.1852L38.4848 31.6293L39.3293 30.4671V31.9037L40.6959 32.3477Z" fill="#F0F0F0"/>
<path d="M38.2507 26.4452L37.5985 27.7253L38.6144 28.7413L37.1952 28.5165L36.543 29.7968L36.3182 28.3775L34.899 28.1527L36.1793 27.5005L35.9545 26.0814L36.9705 27.0973L38.2507 26.4452Z" fill="#F0F0F0"/>
</svg>
