<svg width="48" height="48" viewBox="0 0 48 48" fill="none" xmlns="http://www.w3.org/2000/svg">
<path d="M24 48C37.2548 48 48 37.2548 48 24C48 10.7452 37.2548 0 24 0C10.7452 0 0 10.7452 0 24C0 37.2548 10.7452 48 24 48Z" fill="#FCFCFC"/>
<path d="M32.3564 20.3281C32.3564 15.2521 28.2415 11.1373 23.1656 11.1373C19.4199 11.1373 16.1999 13.3789 14.7681 16.593L13.6346 20.7025L14.678 21.746L12.591 25.9199L14.678 26.9634L13.6346 28.0068V29.0502L14.678 30.0937V32.1806L15.7215 33.2241L18.8519 32.1806C18.8519 32.1806 18.8519 33.2241 19.8953 34.2676C20.9387 35.311 21.9824 37.3981 21.9824 37.3981C21.9824 37.3981 25.1128 38.4415 27.1997 35.3111C29.2867 32.1807 31.3737 31.1372 31.3737 31.1372L29.3622 27.114C31.2017 25.4337 32.3564 23.0162 32.3564 20.3281Z" fill="black"/>
<path d="M33.1055 23.8428C37.3457 23.1275 38.052 14.8245 38.052 14.8245H32.2086C35.2346 22.1288 32.0673 22.6202 32.0673 22.6202C31.6382 22.3009 16.2821 15.0263 15.7954 14.8413C15.6781 14.9983 15.2464 15.4105 14.7216 16.6939C14.1967 17.9774 14.0678 19.132 14.0678 19.132C14.3137 19.2922 30.6218 24.9867 31.0528 25.0341C31.9083 25.5934 32.9609 27.266 32.3726 32.2252L37.9971 30.6401C37.9973 30.6401 36.0884 25.5623 33.1055 23.8428Z" fill="#ACABB1"/>
</svg>
