<svg width="48" height="48" viewBox="0 0 48 48" fill="none" xmlns="http://www.w3.org/2000/svg">
<path d="M24 48C37.2548 48 48 37.2548 48 24C48 10.7452 37.2548 0 24 0C10.7452 0 0 10.7452 0 24C0 37.2548 10.7452 48 24 48Z" fill="#FFDA44"/>
<path d="M24 48C31.875 48 38.864 44.2071 43.2402 38.3485H4.75978C9.13603 44.2071 16.125 48 24 48Z" fill="#0052B4"/>
<path d="M48 24C48 10.7452 37.2547 0 24 0C10.7452 0 0 10.7452 0 24C0 26.8381 0.493969 29.5605 1.39838 32.0877H46.6015C47.506 29.5605 48 26.8381 48 24Z" fill="#0052B4"/>
<path d="M16.427 15.392L17.722 19.3775H21.913L18.5225 21.8411L19.8175 25.8268L16.427 23.3634L13.0366 25.8268L14.3317 21.8411L10.9413 19.3775H15.1321L16.427 15.392Z" fill="#F0F0F0"/>
<path d="M9.22989 11.2181L10.0069 13.6095H12.5215L10.4873 15.0875L11.2643 17.479L9.22989 16.0009L7.1956 17.479L7.9727 15.0875L5.93851 13.6095H8.45307L9.22989 11.2181Z" fill="#F0F0F0"/>
</svg>
