<svg width="48" height="48" viewBox="0 0 48 48" fill="none" xmlns="http://www.w3.org/2000/svg">
<g clip-path="url(#clip0)">
<path d="M24 48C37.2548 48 48 37.2548 48 24C48 10.7452 37.2548 0 24 0C10.7452 0 0 10.7452 0 24C0 37.2548 10.7452 48 24 48Z" fill="#F0F0F0"/>
<path d="M21.913 24C21.913 24 7.04345 40.9739 7.02939 40.9705C11.3725 45.3137 17.3725 48 24 48C37.2548 48 48 37.2548 48 24H21.913Z" fill="#D80027"/>
<path d="M7.02893 7.02942C-2.34363 16.402 -2.34363 31.598 7.02893 40.9707C10.902 37.0976 14.627 33.3726 23.9996 24L7.02893 7.02942Z" fill="#0052B4"/>
</g>
<defs>
<clipPath id="clip0">
<rect width="48" height="48" fill="white"/>
</clipPath>
</defs>
</svg>
