<svg width="48" height="48" viewBox="0 0 48 48" fill="none" xmlns="http://www.w3.org/2000/svg">
<g clip-path="url(#clip0)">
<path d="M45.3349 12.9953C44.2259 10.8466 42.7723 8.82985 40.9712 7.02873C39.1699 5.22751 37.1531 3.77391 35.0045 2.66504L18.0968 18.0969L2.66492 35.0046C3.77389 37.1532 5.22748 39.1701 7.0286 40.9712C8.82973 42.7723 10.8466 44.2259 12.9951 45.3349L29.9029 29.903L45.3349 12.9953Z" fill="#FFDA44"/>
<path d="M7.02874 40.9713C8.03552 41.9781 9.10981 42.876 10.2366 43.6666L43.6663 10.2366C42.8759 9.10987 41.978 8.03559 40.9712 7.0288C39.9643 6.02202 38.8901 5.12418 37.7634 4.33368L4.33362 37.7634C5.12402 38.89 6.02187 39.9645 7.02874 40.9713Z" fill="#D80027"/>
<path d="M7.0287 7.02868C-0.543205 14.6006 -1.9968 25.9723 2.66501 35.0046L35.0046 2.66508C25.9722 -1.99663 14.6005 -0.542852 7.0287 7.02868Z" fill="#338AF3"/>
<path d="M40.9711 40.9713C48.5429 33.3995 49.9964 22.0278 45.3349 12.9955L12.9952 45.335C22.0276 49.9967 33.3994 48.5432 40.9711 40.9713Z" fill="#338AF3"/>
<path d="M12.7902 7.30359L14.0853 11.2896H18.2763L14.8857 13.7529L16.1808 17.7388L12.7902 15.2753L9.39946 17.7388L10.6947 13.7529L7.30396 11.2896H11.495L12.7902 7.30359Z" fill="#FFDA44"/>
</g>
<defs>
<clipPath id="clip0">
<rect width="48" height="48" fill="white"/>
</clipPath>
</defs>
</svg>
