<svg width="48" height="48" viewBox="0 0 48 48" fill="none" xmlns="http://www.w3.org/2000/svg">
<g clip-path="url(#clip0)">
<path d="M24 48C37.2548 48 48 37.2548 48 24C48 10.7452 37.2548 0 24 0C10.7452 0 0 10.7452 0 24C0 37.2548 10.7452 48 24 48Z" fill="#FFDA44"/>
<path d="M23.9999 0C18.124 0 12.7421 2.11284 8.57007 5.61881L34.4347 24L8.57007 42.3812C12.7421 45.8872 18.124 48 23.9999 48C37.2547 48 47.9999 37.2547 47.9999 24C47.9999 10.7452 37.2547 0 23.9999 0Z" fill="#D80027"/>
<path d="M7.02893 7.02939C-2.34363 16.4019 -2.34363 31.598 7.02893 40.9706C10.902 37.0975 14.627 33.3726 23.9996 24L7.02893 7.02939Z" fill="black"/>
<path d="M6.65404 18.502L10.3065 21.9588L14.7229 19.5528L12.5643 24.095L16.2169 27.5518L11.23 26.9023L9.0711 31.4444L8.14795 26.5008L3.16101 25.8511L7.5772 23.4454L6.65404 18.502Z" fill="#F0F0F0"/>
</g>
<defs>
<clipPath id="clip0">
<rect width="48" height="48" fill="white"/>
</clipPath>
</defs>
</svg>
