<svg width="48" height="48" viewBox="0 0 48 48" fill="none" xmlns="http://www.w3.org/2000/svg">
<path d="M24 48C37.2548 48 48 37.2548 48 24C48 10.7452 37.2548 0 24 0C10.7452 0 0 10.7452 0 24C0 37.2548 10.7452 48 24 48Z" fill="#0052B4"/>
<path d="M24.0004 9.39136L24.7775 11.7828H27.2919L25.2576 13.2608L26.0347 15.6523L24.0004 14.1742L21.966 15.6523L22.7431 13.2608L20.7089 11.7828H23.2233L24.0004 9.39136Z" fill="#FFDA44"/>
<path d="M13.6702 13.6701L15.9108 14.8116L17.6888 13.0337L17.2953 15.5171L19.5359 16.6587L17.0523 17.0521L16.659 19.5357L15.5174 17.2952L13.0339 17.6887L14.8119 15.9107L13.6702 13.6701Z" fill="#FFDA44"/>
<path d="M9.3916 24.0001L11.7831 23.223V20.7085L13.2609 22.7429L15.6525 21.9658L14.1744 24.0001L15.6525 26.0344L13.2609 25.2574L11.7831 27.2917V24.7772L9.3916 24.0001Z" fill="#FFDA44"/>
<path d="M13.6702 34.33L14.8118 32.0894L13.0339 30.3114L15.5175 30.705L16.6589 28.4645L17.0523 30.948L19.5358 31.3414L17.2955 32.483L17.6888 34.9664L15.9108 33.1884L13.6702 34.33Z" fill="#FFDA44"/>
<path d="M24.0004 38.6088L23.2232 36.2173H20.7089L22.7432 34.7393L21.966 32.3481L24.0004 33.8259L26.0347 32.3481L25.2576 34.7393L27.2919 36.2173H24.7774L24.0004 38.6088Z" fill="#FFDA44"/>
<path d="M34.33 34.33L32.0895 33.1885L30.3114 34.9665L30.7049 32.4829L28.4645 31.3414L30.948 30.948L31.3414 28.4645L32.4828 30.705L34.9663 30.3114L33.1883 32.0896L34.33 34.33Z" fill="#FFDA44"/>
<path d="M38.6088 24.0001L36.2173 24.7772V27.2917L34.7394 25.2573L32.3481 26.0344L33.8261 24.0001L32.3481 21.9658L34.7395 22.7429L36.2173 20.7085V23.2231L38.6088 24.0001Z" fill="#FFDA44"/>
<path d="M34.33 13.6701L33.1884 15.9107L34.9664 17.6887L32.4828 17.2951L31.3414 19.5356L30.948 17.0521L28.4645 16.6586L30.7049 15.5171L30.3114 13.0338L32.0896 14.8117L34.33 13.6701Z" fill="#FFDA44"/>
</svg>
