<svg width="48" height="48" viewBox="0 0 48 48" fill="none" xmlns="http://www.w3.org/2000/svg">
<path d="M48 24C48 37.2547 37.2547 48 24 48C10.7452 48 0 37.2547 0 24C0 24.0057 24 0.002625 24 0C37.2547 0 48 10.7452 48 24Z" fill="#0052B4"/>
<path d="M23.9358 24.0001H24C24 23.9785 24 23.9575 24 23.9359C23.9786 23.9573 23.9573 23.9787 23.9358 24.0001Z" fill="#F0F0F0"/>
<path d="M24 12.5217C24 8.29875 24 5.53172 24 0H23.996C10.743 0.00225 0 10.7465 0 24H12.5217V16.949L19.5728 24H23.9359C23.9572 23.9786 23.9786 23.9573 24.0001 23.9358C24.0001 22.3189 24.0001 20.8762 24.0001 19.5729L16.9489 12.5217H24Z" fill="#F0F0F0"/>
<path d="M12.1419 3.1304C8.38822 5.26781 5.26766 8.38837 3.13025 12.142V24H9.39116V9.3915V9.39131H23.9998C23.9998 7.41665 23.9998 5.53546 23.9998 3.1304H12.1419Z" fill="#D80027"/>
<path d="M24 21.0486L15.4732 12.5218H12.5219V12.5219L23.9999 23.9999H24C24 23.9999 24 21.9649 24 21.0486Z" fill="#D80027"/>
<path d="M38.6085 28.174V29.2174H30.2607V28.174H27.1302V32.3478H29.2172V33.3913H39.6521V32.3478H41.7389V28.174H38.6085Z" fill="#FFDA44"/>
<path d="M27.1302 12.5218V24.0001C27.1302 29.5912 34.4346 31.3044 34.4346 31.3044C34.4346 31.3044 41.7389 29.5912 41.7389 24.0001V12.5218H27.1302Z" fill="#338AF3"/>
<path d="M34.4342 21.0833C32.6083 21.0833 32.6083 22.7529 30.7823 22.7529C28.9563 22.7529 28.9563 21.0833 27.1304 21.0833V24.005C28.9563 24.005 28.9563 25.6746 30.7823 25.6746C32.6083 25.6746 32.6083 24.005 34.4342 24.005C36.2604 24.005 36.2604 25.6746 38.0867 25.6746C39.9129 25.6746 39.9128 24.005 41.7391 24.005V21.0833C39.9129 21.0833 39.9129 22.7529 38.0867 22.7529C36.2604 22.7529 36.2604 21.0833 34.4342 21.0833Z" fill="#F3F3F3"/>
<path d="M34.4342 15.2347C32.6083 15.2347 32.6083 16.9043 30.7823 16.9043C28.9563 16.9043 28.9563 15.2347 27.1304 15.2347V18.1564C28.9563 18.1564 28.9563 19.826 30.7823 19.826C32.6083 19.826 32.6083 18.1564 34.4342 18.1564C36.2604 18.1564 36.2604 19.826 38.0867 19.826C39.9129 19.826 39.9128 18.1564 41.7391 18.1564V15.2347C39.9129 15.2347 39.9129 16.9043 38.0867 16.9043C36.2604 16.9043 36.2604 15.2347 34.4342 15.2347Z" fill="#F3F3F3"/>
</svg>
