<svg width="48" height="48" viewBox="0 0 48 48" fill="none" xmlns="http://www.w3.org/2000/svg">
<path d="M24 48C37.2548 48 48 37.2548 48 24C48 10.7452 37.2548 0 24 0C10.7452 0 0 10.7452 0 24C0 37.2548 10.7452 48 24 48Z" fill="#F0F0F0"/>
<path d="M2.91821 12.5217H45.0818C41.0114 5.06147 33.0971 0 24.0001 0C14.903 0 6.98874 5.06147 2.91821 12.5217Z" fill="#D80027"/>
<path d="M24.0001 47.9999C33.0971 47.9999 41.0114 42.9385 45.0819 35.4782H2.91821C6.98874 42.9385 14.903 47.9999 24.0001 47.9999Z" fill="#D80027"/>
<path d="M32.3478 24C32.3478 28.6104 28.6103 31.3043 24 31.3043C19.3897 31.3043 15.6522 28.6104 15.6522 24C15.6522 19.3895 19.3897 15.6522 24 15.6522C28.6103 15.6522 32.3478 19.3895 32.3478 24Z" fill="#FFDA44"/>
<path d="M32.3478 24C32.3478 28.6104 28.6103 32.3478 24 32.3478C19.3897 32.3478 15.6522 28.6104 15.6522 24" fill="#0052B4"/>
<path d="M20.8699 21.913H18.783V26.087H20.8699V21.913Z" fill="#D80027"/>
<path d="M29.2177 21.913H27.1307V26.087H29.2177V21.913Z" fill="#D80027"/>
<path d="M25.0435 18.7826H22.9565V26.087H25.0435V18.7826Z" fill="#D80027"/>
</svg>
