<svg width="48" height="48" viewBox="0 0 48 48" fill="none" xmlns="http://www.w3.org/2000/svg">
<g clip-path="url(#clip0)">
<path d="M48 23.9999C48 21.0643 47.472 18.252 46.5072 15.6522L24 14.6086L1.49278 15.6521C0.528094 18.252 0 21.0643 0 23.9999C0 26.9356 0.528094 29.7479 1.49278 32.3477L24 33.3913L46.5072 32.3478C47.472 29.7479 48 26.9356 48 23.9999Z" fill="#F0F0F0"/>
<path d="M24.0001 48C34.3193 48 43.1163 41.487 46.5074 32.3478H1.49292C4.88395 41.487 13.681 48 24.0001 48Z" fill="#0052B4"/>
<path d="M1.49292 15.6522H46.5075C43.1163 6.513 34.3193 0 24.0001 0C13.681 0 4.88395 6.513 1.49292 15.6522Z" fill="#6DA544"/>
</g>
<defs>
<clipPath id="clip0">
<rect width="48" height="48" fill="white"/>
</clipPath>
</defs>
</svg>
