<svg width="48" height="48" viewBox="0 0 48 48" fill="none" xmlns="http://www.w3.org/2000/svg">
<path d="M24 48C37.2548 48 48 37.2548 48 24C48 10.7452 37.2548 0 24 0C10.7452 0 0 10.7452 0 24C0 37.2548 10.7452 48 24 48Z" fill="#F0F0F0"/>
<path d="M23.9996 48C30.0856 48 35.6414 45.7335 39.8721 42H8.1272C12.3579 45.7335 17.9137 48 23.9996 48Z" fill="#D80027"/>
<path d="M0.755737 30C1.30371 32.1287 2.13677 34.1428 3.21114 36H44.7881C45.8624 34.1428 46.6955 32.1287 47.2435 30L23.9996 28.174L0.755737 30Z" fill="#0052B4"/>
<path d="M47.2434 18C46.6954 15.8713 45.8624 13.8572 44.788 12L23.9995 11.4783C23.9995 7.28644 23.9995 3.32484 23.9995 0C22.2166 0 20.4791 0.194531 18.807 0.56325C18.775 0.570375 3.12988 12.9111 3.12988 24C3.52991 24.0696 23.9995 26.087 23.9995 26.087C23.9995 26.087 23.9995 21.5156 23.9995 18H47.2434Z" fill="#0052B4"/>
<path d="M24 14.9739V2.97391H16.3992L18.8083 0.564819C8.91853 2.74601 1.31963 11.0264 0.156562 21.2609C0.054375 22.1599 0 23.0735 0 24C2.50434 24 12.1566 24 12.1566 24V19.2166L16.9873 24H25.5734L16.3991 14.9739H24Z" fill="#F0F0F0"/>
<path d="M24.011 24L14.9849 14.9739H12.1566V14.974L21.1825 24H9.13041V12H44.7885C43.4818 9.74127 41.817 7.71589 39.8725 5.99999H9.13041V5.16327C6.70903 7.07736 4.66603 9.44811 3.13041 12.1457V24H0C0 26.0718 0.2625 28.0823 0.756094 30H47.2439C47.7375 28.0822 48 26.0718 48 24H24.011Z" fill="#D80027"/>
</svg>
