<svg width="48" height="48" viewBox="0 0 48 48" fill="none" xmlns="http://www.w3.org/2000/svg">
<path d="M24 48C37.2548 48 48 37.2548 48 24C48 10.7452 37.2548 0 24 0C10.7452 0 0 10.7452 0 24C0 37.2548 10.7452 48 24 48Z" fill="#D80027"/>
<path d="M26.4783 18.1563C25.9329 20.425 24.9638 19.9923 24.4882 21.9708C21.6867 21.2973 19.9613 18.4801 20.6349 15.6783C21.3082 12.8768 24.1256 11.1514 26.9273 11.825C25.976 15.7819 26.9663 16.1273 26.4783 18.1563Z" fill="#F0F0F0"/>
<path d="M19.2085 19.8375C21.1976 21.0572 20.4866 21.8454 22.2212 22.9092C20.7148 25.3655 17.5025 26.1356 15.046 24.6294C12.5897 23.1231 11.8193 19.9106 13.3257 17.4542C16.795 19.5816 17.4292 18.7466 19.2085 19.8375Z" fill="#F0F0F0"/>
<path d="M18.5604 27.271C20.3352 25.7562 20.8648 26.6759 22.4125 25.355C24.2833 27.5466 24.023 30.8398 21.8315 32.7106C19.6398 34.5814 16.3466 34.3209 14.4761 32.1294C17.5711 29.4873 16.9729 28.6258 18.5604 27.271Z" fill="#F0F0F0"/>
<path d="M25.4303 30.1842C24.5378 28.0282 25.5762 27.8084 24.7982 25.9285C27.4606 24.8266 30.5123 26.0917 31.6142 28.7541C32.7161 31.4165 31.4508 34.4682 28.7884 35.5701C27.2325 31.8099 26.2285 32.1126 25.4303 30.1842Z" fill="#F0F0F0"/>
<path d="M30.3238 24.5509C27.9976 24.7334 28.1092 23.6778 26.0809 23.837C25.8556 20.9646 28.002 18.4529 30.8746 18.2274C33.7471 18.0025 36.2586 20.1486 36.4838 23.0213C32.4266 23.3394 32.4042 24.3878 30.3238 24.5509Z" fill="#F0F0F0"/>
</svg>
