<svg width="48" height="48" viewBox="0 0 48 48" fill="none" xmlns="http://www.w3.org/2000/svg">
<path d="M24 48C37.2548 48 48 37.2548 48 24C48 10.7452 37.2548 0 24 0C10.7452 0 0 10.7452 0 24C0 37.2548 10.7452 48 24 48Z" fill="#D80027"/>
<path d="M32.8869 16.0886L31.1906 22.1421L26.1009 21.2023L22.8247 14.449L13.974 17.5897L13.2761 15.6228L10.9604 15.3376L12.7052 20.2546L18.7961 18.697L20.527 23.5747L16.3165 29.7886L23.4618 35.883L22.1075 37.4708L23.0182 39.619L26.4043 35.6492L22.0098 31.1533L25.3686 27.2155L32.8553 27.7549L34.5605 18.5196L36.6128 18.8986L38.018 17.0358L32.8869 16.0886Z" fill="#F0F0F0"/>
</svg>
