<svg width="48" height="48" viewBox="0 0 48 48" fill="none" xmlns="http://www.w3.org/2000/svg">
<path d="M24 48C37.2548 48 48 37.2548 48 24C48 10.7452 37.2548 0 24 0C10.7452 0 0 10.7452 0 24C0 37.2548 10.7452 48 24 48Z" fill="#0052B4"/>
<path d="M10.5421 14.6088L11.0602 16.2033H12.7364L11.3803 17.1885L11.8983 18.7827L10.5421 17.7975L9.18581 18.7827L9.70397 17.1885L8.34778 16.2033H10.0239L10.5421 14.6088Z" fill="#F0F0F0"/>
<path d="M15.7601 13.0436L16.2781 14.638H17.9544L16.5983 15.6232L17.1163 17.2174L15.7601 16.2322L14.4039 17.2174L14.9219 15.6232L13.5659 14.638H15.2421L15.7601 13.0436Z" fill="#F0F0F0"/>
<path d="M20.9771 11.4783L21.4952 13.0727H23.1714L21.8153 14.0581L22.3333 15.6523L20.9771 14.667L19.6209 15.6523L20.139 14.0581L18.7829 13.0727H20.4591L20.9771 11.4783Z" fill="#F0F0F0"/>
<path d="M37.4583 14.6088L36.9402 16.2033H35.264L36.6202 17.1885L36.1021 18.7827L37.4583 17.7975L38.8146 18.7827L38.2964 17.1885L39.6526 16.2033H37.9764L37.4583 14.6088Z" fill="#F0F0F0"/>
<path d="M32.2412 13.0436L31.7232 14.638H30.0469L31.4031 15.6232L30.8851 17.2174L32.2412 16.2322L33.5974 17.2174L33.0794 15.6232L34.4355 14.638H32.7592L32.2412 13.0436Z" fill="#F0F0F0"/>
<path d="M27.0224 11.4783L26.5044 13.0727H24.8281L26.1842 14.0581L25.6663 15.6523L27.0224 14.667L28.3786 15.6523L27.8606 14.0581L29.2167 13.0727H27.5404L27.0224 11.4783Z" fill="#F0F0F0"/>
<path d="M28.1731 25.0434L23.9992 19.826L21.9122 20.8695V22.9564L18.7818 25.0434H16.6948V27.7396C19.7537 28.9782 21.9122 31.9753 21.9122 35.4783H23.9992V33.3913L26.0861 31.3043L28.1731 33.3913L30.2601 31.3043V29.2173L32.347 26.0869L28.1731 25.0434Z" fill="#FFDA44"/>
</svg>
