<svg width="48" height="48" viewBox="0 0 48 48" fill="none" xmlns="http://www.w3.org/2000/svg">
<path d="M45.6182 13.5653C41.7362 5.53734 33.5147 0 23.9997 0C14.4846 0 6.2631 5.53734 2.3811 13.5653L23.9997 15.6522L45.6182 13.5653Z" fill="#D80027"/>
<path d="M2.3811 34.4348C6.2631 42.4627 14.4846 48 23.9997 48C33.5147 48 41.7362 42.4627 45.6182 34.4348L23.9997 32.3478L2.3811 34.4348Z" fill="#D80027"/>
<path d="M45.6186 13.5652H2.38144C0.85575 16.7204 0 20.2602 0 24C0 27.7397 0.85575 31.2796 2.38144 34.4347H45.6185C47.1443 31.2796 48 27.7397 48 24C48 20.2602 47.1443 16.7204 45.6186 13.5652Z" fill="#0052B4"/>
<path d="M24 32.3478C28.6104 32.3478 32.3478 28.6103 32.3478 24C32.3478 19.3896 28.6104 15.6522 24 15.6522C19.3897 15.6522 15.6522 19.3896 15.6522 24C15.6522 28.6103 19.3897 32.3478 24 32.3478Z" fill="#F0F0F0"/>
</svg>
