<svg width="48" height="48" viewBox="0 0 48 48" fill="none" xmlns="http://www.w3.org/2000/svg">
<path d="M34.4342 2.38144C31.279 0.85575 27.7393 0 23.9995 0C20.2597 0 16.72 0.85575 13.5648 2.38144L11.4778 24L13.5648 45.6186C16.72 47.1442 20.2597 48 23.9995 48C27.7393 48 31.279 47.1442 34.4342 45.6186L36.5212 24L34.4342 2.38144Z" fill="#FFDA44"/>
<path d="M13.5653 2.38227C5.53734 6.26418 0 14.485 0 24C0 33.515 5.53734 41.7358 13.5653 45.6177V2.38227Z" fill="#0052B4"/>
<path d="M34.4341 2.38227V45.6177C42.4619 41.7358 47.9993 33.515 47.9993 24C47.9993 14.485 42.4619 6.26418 34.4341 2.38227Z" fill="#0052B4"/>
<path d="M30.7826 26.0869L32.3478 28.1739V19.826L30.7826 21.913H26.087V17.2173L28.1739 15.6522H19.8261L21.913 17.2173V21.913H17.2174L15.6522 19.826V28.1739L17.2174 26.0869H21.913V30.7826L19.8261 32.3478H28.1739L26.087 30.7826V26.0869H30.7826Z" fill="#D80027"/>
<path d="M30.2611 22.9565H25.0436V17.7391H22.9567V22.9565H17.7393V25.0434H22.9567V30.2609H25.0436V25.0434H30.2611V22.9565Z" fill="#F0F0F0"/>
</svg>
