<svg width="48" height="48" viewBox="0 0 48 48" fill="none" xmlns="http://www.w3.org/2000/svg">
<path d="M24 48C37.2548 48 48 37.2548 48 24C48 10.7452 37.2548 0 24 0C10.7452 0 0 10.7452 0 24C0 37.2548 10.7452 48 24 48Z" fill="#338AF3"/>
<path d="M36.5221 26.087H11.4787V29.2174H36.5221V26.087Z" fill="#818085"/>
<path d="M15.6522 16.6957L24 17.7393L32.3478 16.6957V11.687L29.0087 13.3566L24 8.34781L18.9913 13.3566L15.6522 11.687V16.6957Z" fill="#FFDA44"/>
<path d="M13.5655 32.348H10.435V26.6088L11.4785 25.0434L10.435 23.4783V19.8262H13.5655V32.348Z" fill="#F0F0F0"/>
<path d="M37.5655 32.348H34.435V19.8262H37.5655V23.4782L36.522 25.0697L37.5655 26.609V32.348Z" fill="#F0F0F0"/>
<path d="M37.5654 23.4782H10.435V26.6086H37.5654V23.4782Z" fill="#ACABB1"/>
<path d="M24 36.5217C19.3969 36.5217 15.6522 32.7769 15.6522 28.1739V16.6957H32.3478V28.1739C32.3478 32.7769 28.603 36.5217 24 36.5217Z" fill="#F0F0F0"/>
<path d="M24.0003 33.3913C21.1234 33.3913 18.783 31.0508 18.783 28.1739V19.8263H29.2177V28.1739C29.2177 31.0508 26.8772 33.3913 24.0003 33.3913Z" fill="#0052B4"/>
<path d="M18.7826 16.6956H15.6522V19.826H18.7826V16.6956Z" fill="#D80027"/>
<path d="M32.3475 16.6956H29.2171V19.826H32.3475V16.6956Z" fill="#D80027"/>
<path d="M32.3475 23.4782H29.2171V26.6086H32.3475V23.4782Z" fill="#D80027"/>
<path d="M18.7826 23.4782H15.6522V26.6086H18.7826V23.4782Z" fill="#D80027"/>
<path d="M25.5654 16.6956H22.435V19.826H25.5654V16.6956Z" fill="#D80027"/>
<path d="M24.0002 33.3913C23.455 33.3913 22.9293 33.3069 22.435 33.1511V36.3724C22.9424 36.4692 23.4651 36.5218 24.0002 36.5218C24.5354 36.5218 25.0581 36.4692 25.5655 36.3724V33.1511C25.0711 33.3068 24.5455 33.3913 24.0002 33.3913Z" fill="#D80027"/>
<path d="M18.8521 29.0209L16.3538 31.5191C16.7869 32.5053 17.4049 33.392 18.1645 34.1355L20.377 31.923C19.5874 31.1601 19.0374 30.1514 18.8521 29.0209Z" fill="#D80027"/>
<path d="M31.6463 31.5192L29.148 29.021C28.9626 30.1514 28.4126 31.1601 27.6232 31.9232L29.8357 34.1357C30.595 33.3922 31.2131 32.5054 31.6463 31.5192Z" fill="#D80027"/>
</svg>
