<svg width="48" height="48" viewBox="0 0 48 48" fill="none" xmlns="http://www.w3.org/2000/svg">
<path d="M24 48C37.2548 48 48 37.2548 48 24C48 10.7452 37.2548 0 24 0C10.7452 0 0 10.7452 0 24C0 37.2548 10.7452 48 24 48Z" fill="#338AF3"/>
<path d="M23.9986 10.4348L25.0345 13.6234H28.3874L25.675 15.5941L26.7109 18.7827L23.9986 16.812L21.2861 18.7827L22.3223 15.5941L19.6098 13.6234H22.9626L23.9986 10.4348Z" fill="#F0F0F0"/>
<path d="M10.4341 24.0003L13.6228 22.9641V19.6113L15.5935 22.3238L18.782 21.2878L16.8114 24.0003L18.782 26.7125L15.5935 25.6763L13.6228 28.3888V25.0361L10.4341 24.0003Z" fill="#F0F0F0"/>
<path d="M23.9987 37.5653L22.9627 34.3767H19.6098L22.3224 32.4059L21.2864 29.2174L23.9987 31.188L26.711 29.2174L25.6749 32.4059L28.3874 34.3767H25.0347L23.9987 37.5653Z" fill="#F0F0F0"/>
<path d="M37.5649 24L34.3763 25.036V28.3888L32.4056 25.6763L29.2171 26.7124L31.1877 24L29.2171 21.2877L32.4056 22.3238L34.3763 19.6113V22.964L37.5649 24Z" fill="#F0F0F0"/>
</svg>
