<svg width="48" height="48" viewBox="0 0 48 48" fill="none" xmlns="http://www.w3.org/2000/svg">
<path d="M24 48C37.2548 48 48 37.2548 48 24C48 10.7452 37.2548 0 24 0C10.7452 0 0 10.7452 0 24C0 37.2548 10.7452 48 24 48Z" fill="#0052B4"/>
<path d="M34.3001 25.6744C34.3884 25.1291 34.435 24.5699 34.435 24C34.435 24.5699 34.3884 25.1291 34.3001 25.6744L38.609 24L34.3001 22.3258L31.9334 21.4062L28.0883 19.9121L26.5942 16.0669C29.1136 16.8928 31.1074 18.8865 31.9333 21.4061L34.3 22.3257C33.5848 17.9104 30.0897 14.4152 25.6746 13.7001L24.0003 9.39136L22.3259 13.7002C17.9107 14.4155 14.4157 17.9105 13.7004 22.3258L9.3916 24L13.7005 25.6744C14.4158 30.0897 17.9108 33.5847 22.326 34.2999L24.0003 38.6087L25.6747 34.2999C30.0898 33.5847 33.5849 30.0896 34.3001 25.6744ZM26.476 21.5244L24.0003 24H32.847L26.4759 26.4758L24.0003 24V32.8469L21.5245 26.4757L24.0003 24H15.1536L21.5245 21.5244L24.0003 24V15.1533L26.476 21.5244ZM21.4063 16.067L19.9121 19.9122L16.0672 21.4063C16.893 18.8865 18.8868 16.893 21.4063 16.067ZM16.0673 26.594L19.9121 28.0881L21.4063 31.9331C18.8868 31.1071 16.8932 29.1135 16.0673 26.594ZM26.5943 31.9331L28.0883 28.0881L31.9333 26.594C31.1074 29.1135 29.1138 31.1071 26.5943 31.9331Z" fill="#F0F0F0"/>
<path d="M32.8467 24H24L26.4757 26.4757L32.8467 24Z" fill="#0052B4"/>
<path d="M15.1533 24.0001H24L21.5243 21.5244L15.1533 24.0001Z" fill="#0052B4"/>
<path d="M24.0002 32.8468V24L21.5244 26.4757L24.0002 32.8468Z" fill="#0052B4"/>
<path d="M24 24.0001L26.4757 21.5244L24 15.1533V24.0001Z" fill="#0052B4"/>
<path d="M25.0445 3.13037H22.9575V7.30431H25.0445V3.13037Z" fill="#F0F0F0"/>
<path d="M7.3048 22.9565H3.13086V25.0435H7.3048V22.9565Z" fill="#F0F0F0"/>
<path d="M25.0445 40.6956H22.9575V44.8695H25.0445V40.6956Z" fill="#F0F0F0"/>
<path d="M44.8707 22.9565H40.6968V25.0435H44.8707V22.9565Z" fill="#F0F0F0"/>
</svg>
