<svg width="48" height="48" viewBox="0 0 48 48" fill="none" xmlns="http://www.w3.org/2000/svg">
<path d="M34.434 2.38144C31.2788 0.85575 27.739 0 23.9993 0C20.2595 0 16.7198 0.85575 13.5645 2.38144L11.4775 24L13.5645 45.6186C16.7198 47.1442 20.2595 48 23.9993 48C27.739 48 31.2788 47.1442 34.434 45.6186L36.521 24L34.434 2.38144Z" fill="#F0F0F0"/>
<path d="M13.5653 2.38232C5.53734 6.26414 0 14.485 0 24C0 33.5151 5.53734 41.7359 13.5653 45.6178V2.38232Z" fill="#6DA544"/>
<path d="M34.4341 2.38232V45.6178C42.462 41.7359 47.9993 33.515 47.9993 24C47.9993 14.4851 42.462 6.26414 34.4341 2.38232Z" fill="#6DA544"/>
<path d="M30.2611 31.3043L24.0002 11.4783L17.7393 31.3043H22.4349V36.5217H25.5654V31.3043H30.2611Z" fill="#6DA544"/>
</svg>
