<svg width="48" height="48" viewBox="0 0 48 48" fill="none" xmlns="http://www.w3.org/2000/svg">
<path d="M24 48C37.2548 48 48 37.2548 48 24C48 10.7452 37.2548 0 24 0C10.7452 0 0 10.7452 0 24C0 37.2548 10.7452 48 24 48Z" fill="#F0F0F0"/>
<path d="M24.0013 0C16.7272 0 10.2094 3.23662 5.80811 8.34778H42.1945C37.7933 3.23662 31.2755 0 24.0013 0Z" fill="#0052B4"/>
<path d="M42.1945 39.6522H5.80811C10.2094 44.7634 16.7272 48 24.0013 48C31.2755 48 37.7933 44.7634 42.1945 39.6522Z" fill="#0052B4"/>
<path d="M44.4774 11.4783H3.52256C1.28859 15.1237 0 19.4112 0 24C0 28.5888 1.28859 32.8763 3.52256 36.5217H44.4774C46.7114 32.8763 48 28.5888 48 24C48 19.4112 46.7114 15.1237 44.4774 11.4783Z" fill="#D80027"/>
<path d="M14.765 33.2348C19.8652 33.2348 23.9998 29.1002 23.9998 24C23.9998 18.8998 19.8652 14.7653 14.765 14.7653C9.66481 14.7653 5.53027 18.8998 5.53027 24C5.53027 29.1002 9.66481 33.2348 14.765 33.2348Z" fill="#F0F0F0"/>
<path d="M14.7656 14.7653L16.8375 21.1422H23.5536L18.1183 25.0837L20.2065 31.4797L14.7656 27.5195L9.33295 31.4723L11.4129 25.0837L5.98242 21.1422H12.6935L14.7656 14.7653Z" fill="#D80027"/>
</svg>
