<svg width="48" height="48" viewBox="0 0 48 48" fill="none" xmlns="http://www.w3.org/2000/svg">
<path d="M24 48C37.2548 48 48 37.2548 48 24C48 10.7452 37.2548 0 24 0C10.7452 0 0 10.7452 0 24C0 37.2548 10.7452 48 24 48Z" fill="#F0F0F0"/>
<path d="M5.80775 8.34778C4.96559 9.32587 4.20106 10.3724 3.52344 11.4782H44.4783C43.8007 10.3724 43.0362 9.32578 42.194 8.34778H5.80775Z" fill="#D80027"/>
<path d="M5.80668 39.6523H42.193C43.0352 38.6742 43.7997 37.6276 44.4773 36.5219H3.52246C4.19999 37.6275 4.96452 38.6742 5.80668 39.6523Z" fill="#D80027"/>
<path d="M20.9295 19.6111L22.8987 22.3247L26.0878 21.2906L24.1155 24.0019L26.0845 26.7154L22.8965 25.6774L20.9243 28.3886L20.9263 25.036L17.7383 23.998L20.9275 22.964L20.9295 19.6111Z" fill="#D80027"/>
<path d="M15.5556 30.7826C11.8097 30.7826 8.77296 27.7458 8.77296 24C8.77296 20.2541 11.8097 17.2173 15.5556 17.2173C16.7235 17.2173 17.8226 17.5127 18.782 18.0326C17.2768 16.5606 15.2184 15.6521 12.9469 15.6521C8.33646 15.6521 4.59912 19.3895 4.59912 23.9999C4.59912 28.6102 8.33656 32.3477 12.9469 32.3477C15.2184 32.3477 17.2768 31.4391 18.782 29.9672C17.8226 30.4873 16.7236 30.7826 15.5556 30.7826Z" fill="#D80027"/>
</svg>
