<svg width="48" height="48" viewBox="0 0 48 48" fill="none" xmlns="http://www.w3.org/2000/svg">
<path d="M47.1732 30.2609C47.7113 28.2646 48 26.1663 48 24C48 21.8337 47.7113 19.7354 47.1732 17.7391L21.913 0.0913086C17.2236 0.495371 12.9202 2.24756 9.39131 4.9589L0.826781 17.7391C0.28875 19.7354 0 21.8337 0 24C0 26.1536 0.285281 28.2404 0.817313 30.2262L9.39122 43.0411C12.9201 45.7524 17.2235 47.5047 21.9129 47.9087L47.1732 30.2609Z" fill="#FFDA44"/>
<path d="M0.827393 30.2609C2.21602 35.4133 5.27658 39.879 9.39192 43.0411V30.2609H0.827393Z" fill="#D80027"/>
<path d="M21.9137 47.9087C22.6016 47.968 23.2974 48 24.0007 48C35.0893 48 44.4199 40.4793 47.1739 30.2609H21.9137V47.9087Z" fill="#D80027"/>
<path d="M47.1739 17.7391C44.4199 7.52072 35.0893 0 24.0007 0C23.2974 0 22.6016 0.0320625 21.9137 0.0913125V17.7391H47.1739Z" fill="#D80027"/>
<path d="M9.39192 4.95889C5.27658 8.12108 2.21602 12.5867 0.827393 17.7391H9.39192V4.95889Z" fill="#D80027"/>
<path d="M47.7968 20.8696H18.7827H18.7826V0.57045C16.5647 1.06226 14.462 1.85942 12.5217 2.91814V20.8695H0.203156C0.06975 21.8943 0 22.939 0 24C0 25.0609 0.06975 26.1057 0.203156 27.1304H12.5216H12.5217V45.0817C14.462 46.1404 16.5647 46.9377 18.7826 47.4294V27.1307V27.1305H47.7968C47.9303 26.1057 48 25.0609 48 24C48 22.939 47.9303 21.8943 47.7968 20.8696Z" fill="#0052B4"/>
</svg>
