<svg width="48" height="48" viewBox="0 0 48 48" fill="none" xmlns="http://www.w3.org/2000/svg">
<g clip-path="url(#clip0)">
<path d="M40.9703 40.9705C31.5977 50.3431 16.4018 50.3431 7.02904 40.9705C-2.34352 31.598 -2.34352 16.4019 7.02914 7.02928C16.4017 -2.34329 30.1219 -0.867567 39.4945 8.50509C48.8669 17.8777 50.3428 31.598 40.9703 40.9705Z" fill="black"/>
<path d="M7.02997 7.02971C16.4025 -2.34286 31.5984 -2.34267 40.9711 7.0298C50.3437 16.4024 50.3437 31.5983 40.9711 40.971" fill="#A2001D"/>
<path d="M18.3424 32.3478L18.7309 33.5436H19.9882L18.971 34.2825L19.3596 35.4783L18.3424 34.7393L17.3252 35.4783L17.7137 34.2825L16.6966 33.5436H17.9538L18.3424 32.3478Z" fill="#F0F0F0"/>
<path d="M15.1306 20.8696L15.7783 22.8625H17.8736L16.1783 24.0941L16.8259 26.087L15.1306 24.8552L13.4354 26.087L14.083 24.0941L12.3876 22.8625H14.4831L15.1306 20.8696Z" fill="#F0F0F0"/>
<path d="M15.1306 35.4783L15.7781 37.4713H17.8736L16.1781 38.7028L16.8259 40.6957L15.1306 39.4639L13.4354 40.6957L14.0828 38.7028L12.3876 37.4713H14.4829L15.1306 35.4783Z" fill="#F0F0F0"/>
<path d="M21.2583 26.0871L21.9061 28.08H24.0014L22.3061 29.3115L22.9536 31.3044L21.2583 30.0727L19.5632 31.3044L20.2108 29.3115L18.5155 28.08H20.6109L21.2583 26.0871Z" fill="#F0F0F0"/>
<path d="M9.00441 26.0871L9.65213 28.08H11.7473L10.0522 29.3115L10.6996 31.3044L9.00441 30.0727L7.30913 31.3044L7.95685 29.3115L6.26147 28.08H8.35688L9.00441 26.0871Z" fill="#F0F0F0"/>
<path d="M40.1762 17.7714C39.1036 16.6988 37.7099 16.0651 36.2123 15.9563L40.6954 12.4694C38.9099 10.684 36.5168 9.87763 34.1817 10.0482C33.9022 9.04353 33.3692 8.0946 32.5792 7.30457L30.8083 10.8463C30.6922 10.6346 30.5451 10.4353 30.3656 10.256C29.3468 9.23722 27.6951 9.23722 26.6764 10.256C25.6577 11.2748 25.6575 12.9265 26.6764 13.9453C26.8557 14.1246 27.055 14.2717 27.2667 14.3879L23.725 16.1588C24.5153 16.9491 25.4648 17.4824 26.47 17.7618C26.2989 20.0969 27.1044 22.4896 28.89 24.2752L32.8069 19.2391C33.1015 18.949 33.4907 18.7888 33.9047 18.7888C34.3228 18.7888 34.7158 18.9515 35.0114 19.2473C35.3071 19.5429 35.4699 19.936 35.4699 20.354C35.4699 20.7721 35.3071 21.1651 35.0114 21.4608L36.4872 22.9366C37.1769 22.2468 37.5569 21.3297 37.5569 20.3541C37.5569 19.5559 37.3023 18.7971 36.8322 18.1697C37.5172 18.3526 38.1645 18.7109 38.7008 19.2473C40.3283 20.8747 40.3283 23.5228 38.7008 25.1501L40.1766 26.6259C41.359 25.4433 42.0103 23.8711 42.0103 22.1987C42.01 20.5261 41.3587 18.9539 40.1762 17.7714Z" fill="#FFDA44"/>
</g>
<defs>
<clipPath id="clip0">
<rect width="48" height="48" fill="white"/>
</clipPath>
</defs>
</svg>
