<svg width="48" height="48" viewBox="0 0 48 48" fill="none" xmlns="http://www.w3.org/2000/svg">
<path d="M24 48C37.2548 48 48 37.2548 48 24C48 10.7452 37.2548 0 24 0C10.7452 0 0 10.7452 0 24C0 37.2548 10.7452 48 24 48Z" fill="#FCFCFC"/>
<path d="M31.3027 19.826V21.913H34.1669C32.9716 23.5743 31.3795 24.9305 29.5296 25.8437C29.055 25.3506 28.3887 25.0434 27.6505 25.0434C26.4059 25.0434 25.3657 25.9152 25.1051 27.0814C24.7405 27.1134 24.3714 27.1304 23.9983 27.1304C23.6253 27.1304 23.2562 27.1132 22.8915 27.0814C22.631 25.9153 21.5907 25.0434 20.3462 25.0434C19.6079 25.0434 18.9418 25.3506 18.4671 25.8437C16.6172 24.9305 15.0251 23.5742 13.8298 21.913H16.694V19.826H9.38965C9.38965 27.8941 15.9303 34.4347 23.9983 34.4347C32.0666 34.4347 38.607 27.8941 38.607 19.826H31.3027Z" fill="#D80027"/>
</svg>
