<svg width="48" height="48" viewBox="0 0 48 48" fill="none" xmlns="http://www.w3.org/2000/svg">
<g clip-path="url(#clip0)">
<path d="M24 48C37.2548 48 48 37.2548 48 24C48 10.7452 37.2548 0 24 0C10.7452 0 0 10.7452 0 24C0 37.2548 10.7452 48 24 48Z" fill="#F0F0F0"/>
<path d="M24 -8.26619e-05C23.9776 -0.0169577 -0.00637373 23.9936 1.27064e-06 23.9999C1.27064e-06 10.7452 10.7452 -8.26619e-05 24 -8.26619e-05Z" fill="#D80027"/>
<path d="M24 -8.26619e-05C24.0224 -0.0169577 48.0064 23.9935 48 23.9999C48 10.7452 37.2548 -8.26619e-05 24 -8.26619e-05Z" fill="#D80027"/>
<path d="M24 48C23.9776 48.0169 -0.00637373 24.0064 1.27064e-06 24C1.27064e-06 37.2548 10.7452 48 24 48Z" fill="#0052B4"/>
<path d="M24 48C24.0224 48.0169 48.0064 24.0064 48 24C48 37.2548 37.2547 48 24 48Z" fill="#0052B4"/>
<path d="M23.9993 12.5218L26.5895 20.4933H34.9712L28.1901 25.4198L30.7803 33.3914L23.9993 28.4647L17.2184 33.3914L19.8085 25.4198L13.0276 20.4933H21.4092L23.9993 12.5218Z" fill="#FFDA44"/>
</g>
<defs>
<clipPath id="clip0">
<rect width="48" height="48" fill="white"/>
</clipPath>
</defs>
</svg>
