<svg width="48" height="48" viewBox="0 0 48 48" fill="none" xmlns="http://www.w3.org/2000/svg">
<path d="M24 48C37.2548 48 48 37.2548 48 24C48 10.7452 37.2548 0 24 0C10.7452 0 0 10.7452 0 24C0 37.2548 10.7452 48 24 48Z" fill="#F0F0F0"/>
<path d="M23.9997 0C14.4846 0 6.2631 5.53734 2.3811 13.5653H45.6181C41.7362 5.53734 33.5146 0 23.9997 0Z" fill="#0052B4"/>
<path d="M23.9997 48C33.5146 48 41.7362 42.4627 45.6182 34.4348H2.3811C6.2631 42.4627 14.4846 48 23.9997 48Z" fill="#0052B4"/>
<path d="M19.1804 25.0434L24.0001 16.6956L28.8198 25.0434H19.1804Z" fill="#FFDA44"/>
<path d="M30.2594 27.7998L23.9985 30.9302L17.7375 27.7998V23.6259H30.2594V27.7998Z" fill="#6DA544"/>
<path d="M29.9037 17.0538L27.6901 19.2673C28.6343 20.2115 29.2184 21.5158 29.2184 22.9566C29.2184 25.8381 26.8824 28.1739 24.001 28.1739C21.1196 28.1739 18.7836 25.838 18.7836 22.9566C18.7836 21.5158 19.3677 20.2115 20.3118 19.2673L18.0983 17.0538C16.5875 18.5643 15.6532 20.6512 15.6532 22.9566C15.6532 27.567 19.3906 31.3043 24.001 31.3043C28.6113 31.3043 32.3488 27.5669 32.3488 22.9566C32.3487 20.6512 31.4144 18.5643 29.9037 17.0538Z" fill="#FFDA44"/>
</svg>
