<svg width="48" height="48" viewBox="0 0 48 48" fill="none" xmlns="http://www.w3.org/2000/svg">
<g clip-path="url(#clip0)">
<path d="M24 48C37.2548 48 48 37.2548 48 24C48 10.7452 37.2548 0 24 0C10.7452 0 0 10.7452 0 24C0 37.2548 10.7452 48 24 48Z" fill="#FFDA44"/>
<path d="M14.6094 15.6522H46.5078C43.1169 6.513 34.3197 0 24.0007 0C17.3731 0 11.3738 2.68678 7.03088 7.03022L14.6094 15.6522Z" fill="#6DA544"/>
<path d="M14.6094 32.3478H46.5078C43.1169 41.487 34.3197 48 24.0007 48C17.3731 48 11.3738 45.3132 7.03088 40.9698L14.6094 32.3478Z" fill="#6DA544"/>
<path d="M7.02893 7.02939C-2.34363 16.4019 -2.34363 31.598 7.02893 40.9706C10.902 37.0975 14.627 33.3726 23.9996 24L7.02893 7.02939Z" fill="#D80027"/>
<path d="M30.475 19.826L31.5111 23.0147H34.8637L32.1514 24.9853L33.1874 28.1739L30.475 26.2032L27.7626 28.1739L28.7986 24.9853L26.0863 23.0147H29.439L30.475 19.826Z" fill="black"/>
<path d="M40.9093 19.826L41.9452 23.0147H45.2979L42.5856 24.9853L43.6215 28.1739L40.9093 26.2032L38.1968 28.1739L39.2328 24.9853L36.5204 23.0147H39.8731L40.9093 19.826Z" fill="black"/>
</g>
<defs>
<clipPath id="clip0">
<rect width="48" height="48" fill="white"/>
</clipPath>
</defs>
</svg>
