<svg width="48" height="48" viewBox="0 0 48 48" fill="none" xmlns="http://www.w3.org/2000/svg">
<path d="M24 48C37.2548 48 48 37.2548 48 24C48 10.7452 37.2548 0 24 0C10.7452 0 0 10.7452 0 24C0 37.2548 10.7452 48 24 48Z" fill="#F0F0F0"/>
<path d="M47.7968 20.8696H27.1306H27.1305V0.203156C26.1057 0.06975 25.061 0 24 0C22.939 0 21.8943 0.06975 20.8696 0.203156V20.8694V20.8695H0.203156C0.06975 21.8943 0 22.939 0 24C0 25.061 0.06975 26.1057 0.203156 27.1304H20.8694H20.8695V47.7968C21.8943 47.9303 22.939 48 24 48C25.061 48 26.1057 47.9303 27.1304 47.7968V27.1307V27.1305H47.7968C47.9303 26.1057 48 25.061 48 24C48 22.939 47.9303 21.8943 47.7968 20.8696Z" fill="#D80027"/>
<path d="M35.478 8.34781C33.533 8.34781 31.8989 9.67803 31.4355 11.4782L35.478 12.5217L39.5204 11.4782C39.057 9.67812 37.4229 8.34781 35.478 8.34781Z" fill="black"/>
<path d="M31.3042 17.7392L36.5216 18.7826V16.5642C37.9883 16.1866 39.1427 15.0319 39.5202 13.5652L35.4781 12.5218H30.2607L31.3042 15.6522V17.7392Z" fill="black"/>
<path d="M39.5205 11.4782H30.2607V13.5652V15.6521H31.3042V13.5652H39.5202C39.6061 13.2317 39.6521 12.882 39.6521 12.5217C39.6521 12.1614 39.6064 11.8117 39.5205 11.4782Z" fill="#ACABB1"/>
<path d="M13.566 8.34781C11.6211 8.34781 9.98693 9.67803 9.52362 11.4782L13.566 12.5217L17.6084 11.4782C17.1451 9.67812 15.511 8.34781 13.566 8.34781Z" fill="black"/>
<path d="M9.39131 17.7392L14.6087 18.7826V16.5642C16.0754 16.1866 17.2298 15.0319 17.6074 13.5652L13.5652 12.5218H8.34778L9.39122 15.6522V17.7392H9.39131Z" fill="black"/>
<path d="M17.6077 11.4782H8.34778V13.5652V15.6521H9.39122V13.5652H17.6073C17.6932 13.2317 17.7391 12.882 17.7391 12.5217C17.7391 12.1614 17.6935 11.8117 17.6077 11.4782Z" fill="#ACABB1"/>
<path d="M35.478 29.2174C33.533 29.2174 31.8989 30.5476 31.4355 32.3478L35.478 33.3913L39.5204 32.3478C39.057 30.5476 37.4229 29.2174 35.478 29.2174Z" fill="black"/>
<path d="M31.3042 38.6086L36.5216 39.652V37.4336C37.9883 37.056 39.1427 35.9013 39.5202 34.4347L35.4781 33.3912H30.2607L31.3042 36.5216V38.6086Z" fill="black"/>
<path d="M39.5205 32.3478H30.2607V34.4347V36.5217H31.3042V34.4347H39.5202C39.6061 34.1013 39.6521 33.7516 39.6521 33.3913C39.6521 33.031 39.6064 32.6813 39.5205 32.3478Z" fill="#ACABB1"/>
<path d="M13.566 29.2174C11.6211 29.2174 9.98693 30.5476 9.52362 32.3478L13.566 33.3913L17.6084 32.3478C17.1451 30.5476 15.511 29.2174 13.566 29.2174Z" fill="black"/>
<path d="M9.39131 38.6086L14.6087 39.652V37.4336C16.0754 37.056 17.2298 35.9013 17.6074 34.4347L13.5652 33.3912H8.34778L9.39122 36.5216V38.6086H9.39131Z" fill="black"/>
<path d="M17.6077 32.3478H8.34778V34.4347V36.5217H9.39122V34.4347H17.6073C17.6932 34.1013 17.7391 33.7516 17.7391 33.3913C17.7391 33.031 17.6935 32.6813 17.6077 32.3478Z" fill="#ACABB1"/>
</svg>
