<svg width="48" height="48" viewBox="0 0 48 48" fill="none" xmlns="http://www.w3.org/2000/svg">
<path d="M24 48C37.2548 48 48 37.2548 48 24C48 10.7452 37.2548 0 24 0C10.7452 0 0 10.7452 0 24C0 37.2548 10.7452 48 24 48Z" fill="#6DA544"/>
<path d="M13.5659 28.6957C13.5659 30.4245 14.9675 31.8261 16.6963 31.8261H26.0876C26.0876 33.2668 27.2556 34.4348 28.6963 34.4348H31.8267C33.2675 34.4348 34.4354 33.2668 34.4354 31.8261V28.6957H13.5659Z" fill="#F0F0F0"/>
<path d="M34.6955 13.5661V20.8704C34.6955 22.0212 33.7593 22.9574 32.6085 22.9574V26.0878C35.4854 26.0878 37.8259 23.7472 37.8259 20.8704V13.5661H34.6955Z" fill="#F0F0F0"/>
<path d="M12.2614 20.8704C12.2614 22.0212 11.3252 22.9574 10.1744 22.9574V26.0878C13.0513 26.0878 15.3918 23.7472 15.3918 20.8704V13.5661H12.2614V20.8704Z" fill="#F0F0F0"/>
<path d="M33.1304 13.5661H30V20.8704H33.1304V13.5661Z" fill="#F0F0F0"/>
<path d="M25.3052 17.7391C25.3052 18.0268 25.0711 18.2608 24.7835 18.2608C24.4958 18.2608 24.2617 18.0267 24.2617 17.7391V13.5651H21.1313V17.7391C21.1313 18.0268 20.8972 18.2608 20.6096 18.2608C20.322 18.2608 20.0879 18.0267 20.0879 17.7391V13.5651H16.9574V17.7391C16.9574 19.7529 18.5958 21.3913 20.6096 21.3913C21.3852 21.3913 22.1045 21.1475 22.6966 20.7335C23.2886 21.1474 24.008 21.3913 24.7836 21.3913C24.9397 21.3913 25.0933 21.3803 25.2443 21.3611C25.0225 22.2751 24.1994 22.9564 23.2183 22.9564V26.0868C26.0952 26.0868 28.4357 23.7463 28.4357 20.8695V17.7391V13.5651H25.3053V17.7391H25.3052Z" fill="#F0F0F0"/>
<path d="M21.6531 22.9565H16.9574V26.0869H21.6531V22.9565Z" fill="#F0F0F0"/>
</svg>
