<svg width="48" height="48" viewBox="0 0 48 48" fill="none" xmlns="http://www.w3.org/2000/svg">
<g clip-path="url(#clip0)">
<path d="M24 48C37.2548 48 48 37.2548 48 24C48 10.7452 37.2548 0 24 0C10.7452 0 0 10.7452 0 24C0 37.2548 10.7452 48 24 48Z" fill="#F0F0F0"/>
<path d="M38.6101 4.96125C34.5632 1.85053 29.4974 0 23.9986 0C18.4998 0 13.4339 1.85062 9.38702 4.96125L23.9986 19.5728L38.6101 4.96125Z" fill="#0052B4"/>
<path d="M4.96116 9.38846C1.85062 13.4354 0 18.5011 0 24C0 29.4988 1.85062 34.5646 4.96125 38.6116L19.5728 24L4.96116 9.38846Z" fill="#0052B4"/>
<path d="M9.38702 43.0387C13.434 46.1495 18.4998 48 23.9986 48C29.4974 48 34.5632 46.1494 38.6102 43.0387L23.9986 28.4272L9.38702 43.0387Z" fill="#0052B4"/>
<path d="M43.04 38.6115C46.1507 34.5646 48.0012 29.4988 48.0012 24C48.0012 18.5011 46.1507 13.4354 43.04 9.38846L28.4285 24L43.04 38.6115Z" fill="#0052B4"/>
</g>
<defs>
<clipPath id="clip0">
<rect width="48" height="48" fill="white"/>
</clipPath>
</defs>
</svg>
