<svg width="48" height="48" viewBox="0 0 48 48" fill="none" xmlns="http://www.w3.org/2000/svg">
<path d="M10.4732 43.8261C14.325 46.459 18.9822 48 24.0001 48C29.018 48 33.6753 46.459 37.527 43.8261L24.0001 41.7391L10.4732 43.8261Z" fill="#D80027"/>
<path d="M37.527 4.17394C33.6753 1.54097 29.018 0 24.0001 0C18.9822 0 14.3248 1.54097 10.4732 4.17394L24.0001 6.26091L37.527 4.17394Z" fill="#D80027"/>
<path d="M10.4732 43.8261C14.325 46.459 18.9822 48 24.0001 48C29.018 48 33.6753 46.459 37.527 43.8261L24.0001 41.7391L10.4732 43.8261Z" fill="#D80027"/>
<path d="M37.527 4.17394C33.6753 1.54097 29.018 0 24.0001 0C18.9822 0 14.3248 1.54097 10.4732 4.17394L24.0001 6.26091L37.527 4.17394Z" fill="#D80027"/>
<path d="M47.9397 22.4348C47.3711 15.0276 42.8704 7.82608 37.5277 4.17386H10.4739C4.55489 8.2202 0.539864 14.8472 0.051239 22.4348L24.0008 24L47.9397 22.4348Z" fill="#0052B4"/>
<path d="M0.051239 25.5653C0.539864 33.1529 4.5548 39.7798 10.4738 43.8262H37.5276C43.4469 39.7799 47.4616 33.1529 47.9503 25.5653L24.0008 24L0.051239 25.5653Z" fill="#0052B4"/>
<path d="M47.9389 22.4347H25.5653V3.1304H22.4348V22.4347H0.0505312C0.01725 22.9522 0 23.4741 0 24C0 24.5258 0.0171563 25.0477 0.0504375 25.5652H22.4348V44.8696H25.5653V25.5652H47.9497C47.9828 25.0477 48 24.5258 48 24C48 23.4779 47.9789 22.9558 47.9389 22.4347Z" fill="#D80027"/>
<path d="M9.39148 24L24.0001 14.8179L38.6089 24L24.0001 33.1821L9.39148 24Z" fill="#F0F0F0"/>
<path d="M15.6522 28.1739H34.4347L30.2609 21.913L28.1739 24L26.0869 22.9566L24 26.087H19.826L17.7391 24L15.6522 28.1739Z" fill="#6DA544"/>
<path d="M23.9994 17.7391L24.5174 19.3333H26.1936L24.8375 20.3187L25.3556 21.913L23.9994 20.9277L22.6432 21.913L23.1612 20.3187L21.8051 19.3333H23.4813L23.9994 17.7391Z" fill="#FFDA44"/>
<path d="M23.9996 12.1945L5.21707 24L23.9996 35.8056L42.7823 24L23.9996 12.1945ZM11.0997 24L23.9996 15.8919L36.8997 24L23.9996 32.1082L11.0997 24Z" fill="#D80027"/>
</svg>
