<svg width="48" height="48" viewBox="0 0 48 48" fill="none" xmlns="http://www.w3.org/2000/svg">
<g clip-path="url(#clip0)">
<path d="M21.9126 26.087C21.9126 26.087 7.04302 7.02609 7.02896 7.02947C11.372 2.68631 17.3721 0 23.9996 0C37.2543 0 47.9996 10.7452 47.9996 24L21.9126 26.087Z" fill="#D80027"/>
<path d="M21.9126 24C21.9126 24 7.04302 40.9739 7.02896 40.9705C11.372 45.3137 17.3721 48 23.9996 48C37.2543 48 47.9996 37.2548 47.9996 24H21.9126Z" fill="#0052B4"/>
<path d="M7.02893 7.02939C-2.34363 16.4019 -2.34363 31.598 7.02893 40.9706C10.902 37.0975 14.627 33.3726 23.9996 24L7.02893 7.02939Z" fill="#F0F0F0"/>
<path d="M2.63234 24.0001C2.61921 24.1724 2.61031 24.3461 2.61031 24.5217C2.61031 28.2676 5.64706 31.3044 9.39293 31.3044C13.1388 31.3044 16.1756 28.2676 16.1756 24.5217C16.1756 24.3461 16.1666 24.1723 16.1535 24.0001H2.63234Z" fill="#FFDA44"/>
<path d="M9.3939 20.8696C10.5465 20.8696 11.4809 19.9352 11.4809 18.7826C11.4809 17.63 10.5465 16.6956 9.3939 16.6956C8.2413 16.6956 7.30693 17.63 7.30693 18.7826C7.30693 19.9352 8.2413 20.8696 9.3939 20.8696Z" fill="#FFDA44"/>
<path d="M4.69662 18.2609V25.0435C4.69662 28.6379 9.39228 29.7392 9.39228 29.7392C9.39228 29.7392 14.0879 28.6379 14.0879 25.0435V18.2609H4.69662Z" fill="#D80027"/>
<path d="M9.39297 27.555C8.52184 27.2415 6.78194 26.4403 6.78194 25.0434V20.3478H11.9994V25.0434C11.9994 26.4449 10.2597 27.2441 9.39297 27.555Z" fill="#338AF3"/>
<path d="M10.4361 22.9566V21.9131L9.39261 21.3914L8.34908 21.9131V22.9566L7.82736 23.4783V25.5653H10.9579V23.4783L10.4361 22.9566Z" fill="#F3F3F3"/>
</g>
<defs>
<clipPath id="clip0">
<rect width="48" height="48" fill="white"/>
</clipPath>
</defs>
</svg>
