<svg width="48" height="48" viewBox="0 0 48 48" fill="none" xmlns="http://www.w3.org/2000/svg">
<g clip-path="url(#clip0)">
<path d="M46.5072 32.3477C47.4719 29.7478 48 26.9356 48 23.9999C48 21.0643 47.4719 18.2521 46.5072 15.6522L24 13.5652L1.49278 15.6522C0.528094 18.2521 0 21.0643 0 23.9999C0 26.9356 0.528094 29.7478 1.49278 32.3477L24 34.4347L46.5072 32.3477Z" fill="#F0F0F0"/>
<path d="M24.0001 48C34.3192 48 43.1163 41.487 46.5072 32.3478H1.4928C4.88392 41.487 13.6809 48 24.0001 48Z" fill="#D80027"/>
<path d="M24.0001 0C13.6809 0 4.88392 6.513 1.4928 15.6522H46.5073C43.1163 6.513 34.3192 0 24.0001 0Z" fill="#496E2D"/>
<path d="M23.9997 18.7826L25.2946 22.7682H29.4855L26.0951 25.2316L27.3902 29.2173L23.9997 26.7542L20.6091 29.2173L21.9043 25.2316L18.5138 22.7682H22.7047L23.9997 18.7826Z" fill="black"/>
<path d="M31.1297 4.69568V9.56515C31.1297 10.3325 30.5057 10.9565 29.7385 10.9565V13.0435C31.6564 13.0435 33.2167 11.4832 33.2167 9.56515V4.69568H31.1297Z" fill="#F0F0F0"/>
<path d="M16.1734 9.56515C16.1734 10.3325 15.5493 10.9565 14.782 10.9565V13.0435C16.7 13.0435 18.2603 11.4832 18.2603 9.56515V4.69568H16.1734V9.56515Z" fill="#F0F0F0"/>
<path d="M30.0857 4.69568H27.9987V9.56515H30.0857V4.69568Z" fill="#F0F0F0"/>
<path d="M24.8694 7.47818C24.8694 7.66999 24.7134 7.82608 24.5216 7.82608C24.3298 7.82608 24.1737 7.66999 24.1737 7.47818V4.69568H22.0868V7.47818C22.0868 7.66999 21.9308 7.82608 21.7389 7.82608C21.5471 7.82608 21.3911 7.66999 21.3911 7.47818V4.69568H19.3042V7.47818C19.3042 8.82087 20.3963 9.91305 21.7389 9.91305C22.256 9.91305 22.7356 9.75059 23.1302 9.47468C23.525 9.75059 24.0045 9.91305 24.5215 9.91305C24.6257 9.91305 24.7281 9.90574 24.8288 9.8929C24.6808 10.5022 24.1321 10.9565 23.4781 10.9565V13.0435C25.396 13.0435 26.9563 11.4832 26.9563 9.56515V7.47818V4.69568H24.8693L24.8694 7.47818Z" fill="#F0F0F0"/>
<path d="M22.4338 10.9565H19.3034V13.0435H22.4338V10.9565Z" fill="#F0F0F0"/>
</g>
<defs>
<clipPath id="clip0">
<rect width="48" height="48" fill="white"/>
</clipPath>
</defs>
</svg>
