<svg width="48" height="48" viewBox="0 0 48 48" fill="none" xmlns="http://www.w3.org/2000/svg">
<path d="M24 48C37.2548 48 48 37.2548 48 24C48 10.7452 37.2548 0 24 0C10.7452 0 0 10.7452 0 24C0 37.2548 10.7452 48 24 48Z" fill="#F0F0F0"/>
<path d="M32.3478 24C32.3478 26.087 28.6103 31.3043 24 31.3043C19.3896 31.3043 15.6522 26.087 15.6522 24C15.6522 19.3896 19.3896 15.6522 24 15.6522C28.6103 15.6522 32.3478 19.3896 32.3478 24Z" fill="#D80027"/>
<path d="M32.3478 24C32.3478 28.6104 28.6103 32.3478 24 32.3478C19.3896 32.3478 15.6522 28.6104 15.6522 24" fill="#0052B4"/>
<path d="M35.0679 29.1652L32.8543 31.3787L34.33 32.8544L36.5436 30.6408L35.0679 29.1652Z" fill="black"/>
<path d="M31.3784 32.8546L29.1649 35.0681L30.6406 36.5438L32.8541 34.3303L31.3784 32.8546Z" fill="black"/>
<path d="M39.4954 33.5912L37.2819 35.8047L38.7576 37.2804L40.9711 35.0669L39.4954 33.5912Z" fill="black"/>
<path d="M35.8046 37.2814L33.5911 39.4949L35.0668 40.9706L37.2803 38.7571L35.8046 37.2814Z" fill="black"/>
<path d="M37.2812 31.3783L35.0677 33.5918L36.5434 35.0675L38.7569 32.854L37.2812 31.3783Z" fill="black"/>
<path d="M33.5922 35.0678L31.3787 37.2813L32.8544 38.757L35.0679 36.5435L33.5922 35.0678Z" fill="black"/>
<path d="M31.3795 10.7181L37.2822 16.6208L38.7579 15.1452L32.8552 9.24244L31.3795 10.7181Z" fill="black"/>
<path d="M29.1664 12.9325L31.3799 15.1461L32.8555 13.6704L30.642 11.4569L29.1664 12.9325Z" fill="black"/>
<path d="M32.8542 16.6215L35.0677 18.835L36.5433 17.3593L34.3298 15.1458L32.8542 16.6215Z" fill="black"/>
<path d="M33.5917 8.50542L35.8052 10.7189L37.2809 9.24324L35.0674 7.02973L33.5917 8.50542Z" fill="black"/>
<path d="M37.2814 12.1948L39.4949 14.4083L40.9706 12.9326L38.7571 10.7191L37.2814 12.1948Z" fill="black"/>
<path d="M14.4079 39.4951L8.50519 33.5923L7.02949 35.068L12.9322 40.9708L14.4079 39.4951Z" fill="black"/>
<path d="M16.6217 37.2808L14.4081 35.0673L12.9325 36.5429L15.146 38.7564L16.6217 37.2808Z" fill="black"/>
<path d="M12.9324 33.592L10.7189 31.3785L9.24321 32.8542L11.4567 35.0677L12.9324 33.592Z" fill="black"/>
<path d="M18.8343 35.0676L12.9316 29.1649L11.4559 30.6406L17.3586 36.5433L18.8343 35.0676Z" fill="black"/>
<path d="M8.50506 14.4078L14.4078 8.50504L12.9321 7.02934L7.02936 12.9321L8.50506 14.4078Z" fill="black"/>
<path d="M10.7176 16.6207L16.6203 10.718L15.1446 9.24226L9.24189 15.145L10.7176 16.6207Z" fill="black"/>
<path d="M12.9328 18.8353L18.8355 12.9326L17.3599 11.4569L11.4572 17.3596L12.9328 18.8353Z" fill="black"/>
</svg>
