<svg width="48" height="48" viewBox="0 0 48 48" fill="none" xmlns="http://www.w3.org/2000/svg">
<g clip-path="url(#clip0)">
<path d="M0.001 4.17398H0V43.8261H0.001V24.0002V4.17398Z" fill="#FF9811"/>
<path d="M24 47.9999C37.2548 47.9999 47.9999 37.2548 47.9999 24C47.9999 10.7451 37.2548 0 24 0C10.7451 0 0 10.7451 0 24C0 37.2548 10.7451 47.9999 24 47.9999Z" fill="#FFDA44"/>
<path d="M18.7827 4.17398H10.4731C10.1049 4.4257 9.74451 4.68773 9.39136 4.95895L7.30438 24L9.39136 43.041C9.74451 43.3123 10.1049 43.5744 10.4731 43.826H18.7827V4.17398Z" fill="#FF9811"/>
<path d="M-0.000793457 24.0001C-0.000793457 31.7575 3.68059 38.654 9.39054 43.0412V4.95901C3.68059 9.34634 -0.000793457 16.2428 -0.000793457 24.0001Z" fill="#6DA544"/>
<path d="M38.6086 14.631V15.2315L38.6309 15.2349L38.6086 14.631Z" fill="#FFDA44"/>
<path d="M46.0869 30.2609H41.5651L39.6521 32.3479V36.5218H35.4781V34.4349H37.5651V30.2609H28.1738V32.8696H26.0868V27.8979C25.4465 27.3247 25.0434 26.4922 25.0434 25.5652V12.0001C25.0434 10.2712 26.4449 8.86965 28.1738 8.86965V28.174H32.3477L33.7799 26.9805C33.5297 26.3847 33.3912 25.7304 33.3912 25.0436V21.9132H30.2608V15.6524H36.5216C36.5216 14.6089 38.0868 13.5654 38.0868 13.5654C38.0868 13.5654 39.6521 14.6088 39.6521 15.6524V17.2176V21.9133C40.813 21.9271 42.6574 21.897 44.6501 21.9133C44.1266 20.9983 43.8259 19.9126 43.8259 18.7829C43.8259 16.9415 44.6209 15.2861 45.8864 14.1405C44.0624 10.0984 41.1518 6.65199 37.5268 4.17398H21.913V43.8262H37.5269C41.9349 40.813 45.2864 36.3682 46.9124 31.1615L46.0869 30.2609Z" fill="#A2001D"/>
</g>
<defs>
<clipPath id="clip0">
<rect width="48" height="48" fill="white"/>
</clipPath>
</defs>
</svg>
