<svg width="48" height="48" viewBox="0 0 48 48" fill="none" xmlns="http://www.w3.org/2000/svg">
<path d="M24 48C37.2548 48 48 37.2548 48 24C48 10.7452 37.2548 0 24 0C10.7452 0 0 10.7452 0 24C0 37.2548 10.7452 48 24 48Z" fill="#F0F0F0"/>
<path d="M42.8515 19.3043H34.9559C34.9559 17.8636 33.788 16.6956 32.3472 16.6956L30.2603 20.8695C30.2603 20.8695 32.4864 27.1304 32.4168 27.1304H35.0254C36.4662 27.1304 37.6341 25.9625 37.6341 24.5217C39.0749 24.5217 40.2428 23.3539 40.2428 21.913H40.1559C41.5966 21.913 42.8515 20.7451 42.8515 19.3043Z" fill="#ACABB1"/>
<path d="M5.14758 19.3043H13.0432C13.0432 17.8636 14.2112 16.6956 15.6519 16.6956L17.7389 20.8695C17.7389 20.8695 15.5127 27.1304 15.5824 27.1304H12.9737C11.5329 27.1304 10.365 25.9625 10.365 24.5217C8.92421 24.5217 7.75635 23.3539 7.75635 21.913H7.84323C6.40242 21.913 5.14758 20.7451 5.14758 19.3043Z" fill="#ACABB1"/>
<path d="M32.3478 33.3912V34.4347H15.6522V33.3912H11.4783V37.5651H15.6522V38.6086H32.3478V37.5651H36.5217V33.3912H32.3478Z" fill="#FFDA44"/>
<path d="M15.6527 16.6956V27.1303C15.6527 33.5202 24.0005 35.4782 24.0005 35.4782C24.0005 35.4782 32.3483 33.5202 32.3483 27.1303V16.6956L24.0005 15.6522L15.6527 16.6956Z" fill="#0052B4"/>
<path d="M32.3475 20.87H15.6519V27.1309H32.3475V20.87Z" fill="#D80027"/>
<path d="M28.1744 11.4782V13.0434L27.1309 13.5652L26.0875 12.5216V9.39117H21.9136V12.5216L20.8701 13.5652L19.8266 13.0434V11.4782H15.6527V16.6955H32.3484V11.4782H28.1744Z" fill="#FFDA44"/>
</svg>
