<svg width="48" height="48" viewBox="0 0 48 48" fill="none" xmlns="http://www.w3.org/2000/svg">
<g clip-path="url(#clip0)">
<path d="M24 48C37.2548 48 48 37.2548 48 24C48 10.7452 37.2548 0 24 0C10.7452 0 0 10.7452 0 24C0 37.2548 10.7452 48 24 48Z" fill="#F0F0F0"/>
<path d="M23.9993 0C13.6801 0 4.8831 6.513 1.49207 15.6522H46.5066C43.1155 6.513 34.3184 0 23.9993 0Z" fill="#D80027"/>
<path d="M23.9993 48C34.3184 48 43.1155 41.487 46.5065 32.3478H1.49207C4.8831 41.487 13.6801 48 23.9993 48Z" fill="black"/>
<path d="M14.3409 18.2609L15.6358 22.2464H19.8267L16.4363 24.71L17.7313 28.6957L14.3409 26.2324L10.9504 28.6957L12.2454 24.71L8.85498 22.2464H13.0459L14.3409 18.2609Z" fill="#6DA544"/>
<path d="M33.6603 18.2609L34.9553 22.2464H39.1463L35.7557 24.71L37.0508 28.6957L33.6603 26.2324L30.2698 28.6957L31.5649 24.71L28.1744 22.2464H32.3653L33.6603 18.2609Z" fill="#6DA544"/>
</g>
<defs>
<clipPath id="clip0">
<rect width="48" height="48" fill="white"/>
</clipPath>
</defs>
</svg>
