<svg width="48" height="48" viewBox="0 0 48 48" fill="none" xmlns="http://www.w3.org/2000/svg">
<g clip-path="url(#clip0)">
<path d="M24 48C37.2548 48 48 37.2548 48 24C48 10.7452 37.2548 0 24 0C10.7452 0 0 10.7452 0 24C0 37.2548 10.7452 48 24 48Z" fill="#FFDA44"/>
<path d="M7.02904 40.9706C8.03583 41.9774 9.11001 42.8752 10.2368 43.6657L43.6652 10.2372C42.8749 9.11041 41.977 8.03622 40.9702 7.02944C39.9633 6.02266 38.8892 5.12491 37.7625 4.33441L4.33411 37.7629C5.12442 38.8894 6.02236 39.9637 7.02904 40.9706Z" fill="black"/>
<path d="M7.02771 7.02937C-0.543722 14.601 -1.99732 25.972 2.66421 35.0042L35.0025 2.66596C25.9704 -1.99557 14.5992 -0.541879 7.02771 7.02937Z" fill="#6DA544"/>
<path d="M40.9713 40.9707C48.5427 33.3992 49.9962 22.028 45.3349 12.9958L12.9966 45.3342C22.0286 49.9957 33.3998 48.5421 40.9713 40.9707Z" fill="#338AF3"/>
</g>
<defs>
<clipPath id="clip0">
<rect width="48" height="48" fill="white"/>
</clipPath>
</defs>
</svg>
