<svg width="48" height="48" viewBox="0 0 48 48" fill="none" xmlns="http://www.w3.org/2000/svg">
<path d="M24 48C37.2548 48 48 37.2548 48 24C48 10.7452 37.2548 0 24 0C10.7452 0 0 10.7452 0 24C0 37.2548 10.7452 48 24 48Z" fill="#F0F0F0"/>
<path d="M10.4732 4.17394C14.3249 1.54087 18.9822 0 24.0001 0C29.018 0 33.6753 1.54087 37.527 4.17394L24.0001 5.21737L10.4732 4.17394Z" fill="#FFDA44"/>
<path d="M7.03069 40.9693L18.0971 29.9031L24 19.8261L29.9022 29.9024L40.9693 40.9693C45.3128 36.6264 48 30.6275 48 24C48 15.763 43.8498 8.49611 37.5269 4.17395H10.4731C4.15022 8.49611 0 15.763 0 24C0 30.6275 2.68725 36.6264 7.03069 40.9693Z" fill="#D80027"/>
<path d="M46.176 33.1895L28.6288 25.9184L29.9006 29.9013L40.9685 40.9692C43.1784 38.7596 44.9595 36.1213 46.176 33.1895Z" fill="#0052B4"/>
<path d="M48 24C48 20.7445 47.3512 17.641 46.1768 14.8105L24 24H48Z" fill="#0052B4"/>
<path d="M40.9693 7.0307C39.9144 5.97601 38.7623 5.01854 37.5269 4.17395H32.2155L24 24L40.9693 7.0307Z" fill="#0052B4"/>
<path d="M23.9999 4.17395H15.7845L23.9999 24V4.17395Z" fill="#0052B4"/>
<path d="M7.03046 7.0307C4.82059 9.24039 3.03962 11.8786 1.82312 14.8105L23.9998 24L7.03046 7.0307Z" fill="#0052B4"/>
<path d="M0 24C0 27.2555 0.648844 30.3591 1.82325 33.1895L24 24H0Z" fill="#0052B4"/>
<path d="M10.4732 43.826C14.3248 46.4591 18.9822 48 24.0001 48C29.018 48 33.6753 46.4591 37.527 43.826H10.4732Z" fill="#FFDA44"/>
<path d="M24 24L29.9028 29.9028C31.4136 28.3921 32.3479 26.3052 32.3479 24C32.3479 19.3896 28.6104 15.6522 24.0001 15.6522C19.3898 15.6522 15.6522 19.3896 15.6522 24C15.6522 26.3051 16.5865 28.3921 18.0973 29.9028L24 24Z" fill="#FFDA44"/>
<path d="M27.6523 36.0001C27.6523 38.0171 26.017 38.6087 24.0001 38.6087C21.9831 38.6087 20.3478 38.0171 20.3478 36.0001C20.3478 33.983 21.9831 32.3478 24.0001 32.3478C26.017 32.3478 27.6523 33.983 27.6523 36.0001Z" fill="#FFDA44"/>
<path d="M27.6522 36C27.6522 38.017 26.0169 39.6522 24 39.6522C21.9831 39.6522 20.3478 38.017 20.3478 36" fill="#0052B4"/>
</svg>
