<svg width="48" height="48" viewBox="0 0 48 48" fill="none" xmlns="http://www.w3.org/2000/svg">
<path d="M47.172 17.7391C44.418 7.52072 35.0874 0 23.9988 0C12.9101 0 3.57956 7.52072 0.825562 17.7391L23.9988 18.7826L47.172 17.7391Z" fill="#A2001D"/>
<path d="M0.825562 30.2609C3.57956 40.4792 12.9101 48 23.9988 48C35.0874 48 44.418 40.4793 47.172 30.2609L23.9988 29.2174L0.825562 30.2609Z" fill="#A2001D"/>
<path d="M47.1732 17.7391H0.826781C0.28875 19.7353 0 21.8337 0 24C0 26.1663 0.28875 28.2647 0.826781 30.2609H47.1733C47.7113 28.2647 48 26.1663 48 24C48 21.8337 47.7113 19.7353 47.1732 17.7391Z" fill="#6DA544"/>
</svg>
