<svg width="48" height="48" viewBox="0 0 48 48" fill="none" xmlns="http://www.w3.org/2000/svg">
<g clip-path="url(#clip0)">
<path d="M12.9946 2.66492C10.846 3.77389 8.82918 5.22748 7.02806 7.0286C5.22684 8.82982 3.77324 10.8467 2.66437 12.9952L18.0963 29.9029L35.004 45.3349C37.1526 44.2259 39.1695 42.7723 40.9706 40.9713C42.7718 39.17 44.2253 37.1532 45.3343 35.0046L29.9024 18.0968L12.9946 2.66492Z" fill="#F0F0F0"/>
<path d="M40.9716 40.9713C41.9784 39.9645 42.8763 38.8902 43.6668 37.7634L10.237 4.3335C9.1102 5.1239 8.03592 6.02184 7.02914 7.02862C6.02236 8.0354 5.12442 9.10968 4.33392 10.2366L37.7638 43.6663C38.8905 42.8759 39.9648 41.9781 40.9716 40.9713Z" fill="black"/>
<path d="M7.02868 40.9714C14.6006 48.5433 25.9722 49.9968 35.0046 45.3349L2.66509 12.9953C-1.99663 22.0277 -0.542852 33.3994 7.02868 40.9714Z" fill="#D80027"/>
<path d="M40.9711 7.02855C33.3992 -0.543257 22.0276 -1.99676 12.9952 2.66477L45.3347 35.0046C49.9965 25.9721 48.543 14.6004 40.9711 7.02855Z" fill="#D80027"/>
</g>
<defs>
<clipPath id="clip0">
<rect width="48" height="48" fill="white"/>
</clipPath>
</defs>
</svg>
