<svg width="48" height="48" viewBox="0 0 48 48" fill="none" xmlns="http://www.w3.org/2000/svg">
<g clip-path="url(#clip0)">
<path d="M24 48C37.2548 48 48 37.2548 48 24C48 10.7452 37.2548 0 24 0C10.7452 0 0 10.7452 0 24C0 37.2548 10.7452 48 24 48Z" fill="#F0F0F0"/>
<path d="M13.5659 32.3478L15.6529 46.5074C18.2528 47.4722 21.065 48 24.0007 48C34.3197 48 43.1169 41.487 46.5078 32.3478H13.5659Z" fill="black"/>
<path d="M13.5659 15.6522L15.6529 1.49259C18.2528 0.527812 21.065 0 24.0007 0C34.3197 0 43.1169 6.513 46.5078 15.6522H13.5659Z" fill="#6DA544"/>
<path d="M0 24C0 34.3192 6.51309 43.1162 15.6522 46.5072V1.4928C6.51309 4.88383 0 13.6809 0 24Z" fill="#A2001D"/>
</g>
<defs>
<clipPath id="clip0">
<rect width="48" height="48" fill="white"/>
</clipPath>
</defs>
</svg>
