<svg width="48" height="48" viewBox="0 0 48 48" fill="none" xmlns="http://www.w3.org/2000/svg">
<path d="M24 48C37.2548 48 48 37.2548 48 24C48 10.7452 37.2548 0 24 0C10.7452 0 0 10.7452 0 24C0 37.2548 10.7452 48 24 48Z" fill="#338AF3"/>
<path d="M23.9361 15.6522C19.3256 15.6522 15.5883 19.3896 15.5883 23.9999C15.5883 28.6103 19.3257 32.3477 23.9361 32.3477C28.5464 32.3477 32.2839 28.6103 32.2839 23.9999C32.2839 19.3896 28.5463 15.6522 23.9361 15.6522ZM21.8491 23.9999C21.8491 22.8474 22.7834 21.913 23.9361 21.913C25.0887 21.913 26.0231 22.8474 26.0231 23.9999C26.0231 25.1526 25.0887 26.0869 23.9361 26.0869C22.7834 26.0869 21.8491 25.1526 21.8491 23.9999ZM26.0999 20.43C25.776 20.2333 25.4229 20.0804 25.049 19.9772V17.8397C25.9904 18.0087 26.8583 18.3873 27.6032 18.9268L26.0999 20.43ZM22.9621 19.9415C22.5705 20.0352 22.2006 20.1839 21.8607 20.3792L20.3504 18.8689C21.1139 18.3343 22.0015 17.9651 22.9621 17.8148V19.9415ZM21.8606 27.6207C22.2005 27.8158 22.5704 27.9647 22.962 28.0583V30.1849C22.0013 30.0348 21.1139 29.6653 20.3504 29.1308L21.8606 27.6207ZM25.0491 28.0227C25.4229 27.9194 25.7761 27.7667 26.0999 27.5699L27.6031 29.0732C26.8582 29.6126 25.9904 29.9913 25.049 30.1603V28.0228H25.0491V28.0227ZM27.5567 26.0756C27.7406 25.7556 27.8843 25.4095 27.9785 25.0435H30.1087C29.952 25.9774 29.5888 26.8408 29.0671 27.5857L27.5567 26.0756ZM27.9785 22.9565C27.8843 22.5904 27.7406 22.2446 27.5567 21.9245L29.067 20.4142C29.5887 21.1592 29.952 22.0225 30.1086 22.9564H27.9784V22.9565H27.9785ZM18.8628 20.3329L20.3661 21.8362C20.1571 22.1803 19.9965 22.5568 19.8936 22.9565H17.7634C17.9259 21.9884 18.3102 21.0961 18.8628 20.3329ZM17.7634 25.0434H19.8936C19.9964 25.4431 20.157 25.8196 20.3661 26.1637L18.8628 27.667C18.3102 26.9038 17.9259 26.0115 17.7634 25.0434Z" fill="#F0F0F0"/>
<path d="M37.498 23.9999C37.498 20.2893 36.0076 16.9273 33.5935 14.4782L31.38 16.6917C33.2276 18.5742 34.3676 21.1539 34.3676 23.9999C34.3676 29.7629 29.6958 34.4347 23.9329 34.4347C18.1698 34.4347 13.4981 29.7629 13.4981 23.9999C13.4981 21.1183 14.666 18.5096 16.5544 16.6214L14.3409 14.4079C11.886 16.8627 10.3677 20.2541 10.3677 23.9999C10.3677 30.2076 14.5375 35.4414 20.2289 37.0532C19.6049 38.2386 19.7 39.731 20.5914 40.8433C21.7621 39.9051 22.9742 38.9336 24.0025 38.1098C25.0307 38.9337 26.2429 39.9051 27.4135 40.8433C28.3137 39.7199 28.4023 38.2086 27.7576 37.0175C33.3868 35.3661 37.498 30.1635 37.498 23.9999Z" fill="#F0F0F0"/>
</svg>
