<svg width="48" height="48" viewBox="0 0 48 48" fill="none" xmlns="http://www.w3.org/2000/svg">
<path d="M24 48C37.2548 48 48 37.2548 48 24C48 10.7452 37.2548 0 24 0C10.7452 0 0 10.7452 0 24C0 37.2548 10.7452 48 24 48Z" fill="#F0F0F0"/>
<path d="M48 24C48 37.2548 37.2547 48 24 48C10.7452 48 0 37.2548 0 24" fill="#496E2D"/>
<path d="M41.5326 16.7009C40.6743 14.2669 38.3552 12.5218 35.6275 12.5218H30.2609C26.8031 12.5218 24 15.3249 24 18.7827C24 19.9124 24.3007 20.9981 24.8242 21.9131C22.8313 21.8968 20.987 21.9269 19.8261 21.9131C19.8261 19.4985 19.8261 16.4225 19.8261 15.7789L20.0726 15.5324C21.1794 14.4256 20.8103 12.5809 20.8103 12.5809C20.8103 12.5809 18.9659 12.212 17.8591 13.3189L16.5692 14.6088H15.1304C11.9607 14.6088 9.39131 17.1783 9.39131 20.3478H13.5652V25.0435C13.5652 25.7303 13.7037 26.3846 13.9539 26.9805L12.5217 28.1739H10.4347V26.0869H8.34778V30.2609H17.7391V34.4348H15.6521V36.5218H19.8261V32.3478L21.739 30.0522H26.2609L28.1738 32.3478V34.4348H26.0869V36.5218H34.4347V25.0434C34.4347 23.3146 35.8362 21.913 37.5651 21.913C37.6095 21.913 37.6536 21.9146 37.6976 21.9164C37.6112 21.5819 37.5651 21.2312 37.5651 20.8696C37.5653 18.6337 39.3233 16.8086 41.5326 16.7009ZM30.2609 34.4347V30.0521H30.4348L32.3478 32.3477V34.4347H30.2609Z" fill="#D80027"/>
</svg>
