<svg width="48" height="48" viewBox="0 0 48 48" fill="none" xmlns="http://www.w3.org/2000/svg">
<g clip-path="url(#clip0)">
<path d="M2.38144 13.5652C0.85575 16.7204 0 20.2601 0 23.9999C0 27.7397 0.85575 31.2794 2.38144 34.4347L24 36.5216L45.6186 34.4347C47.1442 31.2794 48 27.7397 48 23.9999C48 20.2601 47.1442 16.7204 45.6186 13.5652L24 11.4782L2.38144 13.5652Z" fill="#F0F0F0"/>
<path d="M2.38306 34.4348C6.26487 42.4627 14.4858 48 24.0008 48C33.5157 48 41.7367 42.4627 45.6185 34.4348H2.38306Z" fill="#496E2D"/>
<path d="M2.38306 13.5653H45.6185C41.7367 5.53734 33.5158 0 24.0008 0C14.4857 0 6.26487 5.53734 2.38306 13.5653Z" fill="black"/>
<path d="M7.02893 7.02942C-2.34363 16.402 -2.34363 31.598 7.02893 40.9707C10.902 37.0976 14.627 33.3726 23.9996 24L7.02893 7.02942Z" fill="#D80027"/>
<path d="M30.2612 24C30.2612 20.5033 32.7187 17.5822 36.0003 16.8656C35.496 16.7554 34.9726 16.6957 34.4351 16.6957C30.4009 16.6957 27.1307 19.9659 27.1307 24C27.1307 28.0342 30.4009 31.3044 34.4351 31.3044C34.9725 31.3044 35.4959 31.2446 36.0003 31.1345C32.7187 30.4179 30.2612 27.4967 30.2612 24Z" fill="#D80027"/>
<path d="M36.3068 19.3044L37.3431 22.4932H40.6957L37.9833 24.4636L39.0194 27.6523L36.3068 25.6816L33.5946 27.6523L34.6308 24.4636L31.9182 22.4932H35.2708L36.3068 19.3044Z" fill="#D80027"/>
</g>
<defs>
<clipPath id="clip0">
<rect width="48" height="48" fill="white"/>
</clipPath>
</defs>
</svg>
