<svg width="48" height="48" viewBox="0 0 48 48" fill="none" xmlns="http://www.w3.org/2000/svg">
<g clip-path="url(#clip0)">
<path d="M13.5652 45.6186C16.7204 47.1442 20.2601 48 23.9999 48C27.7397 48 31.2794 47.1442 34.4347 45.6186L36.5216 24L34.4347 2.38144C31.2794 0.85575 27.7397 0 23.9999 0C20.2601 0 16.7204 0.85575 13.5652 2.38144L11.4782 24L13.5652 45.6186Z" fill="#FFDA44"/>
<path d="M34.4348 45.6177C42.4627 41.7359 48 33.5149 48 24C48 14.485 42.4627 6.26408 34.4348 2.38226V45.6177Z" fill="#D80027"/>
<path d="M13.5653 45.6177V2.38226C5.53734 6.26408 0 14.4849 0 24C0 33.515 5.53734 41.7359 13.5653 45.6177Z" fill="#0052B4"/>
<path d="M24 32.3478C24 28.518 24 24 24 24H30.2609V27.1304C30.2609 27.6742 29.2175 29.667 26.6419 31.3043C25.6664 31.9246 24.6566 32.1241 24 32.3478Z" fill="#D80027"/>
<path d="M24 17.7391H17.7391V24H24V17.7391Z" fill="#D80027"/>
<path d="M27.1304 15.6522C27.1304 14.4995 26.196 13.5652 25.0434 13.5652C24.6628 13.5652 24.3071 13.6687 24 13.8466C23.6928 13.6687 23.3372 13.5652 22.9566 13.5652C21.804 13.5652 20.8696 14.4995 20.8696 15.6522H15.6522V26.0868C15.6522 29.9714 18.7372 32.218 21.1564 33.3825C20.9753 33.6917 20.8696 34.0505 20.8696 34.4348C20.8696 35.5874 21.804 36.5218 22.9566 36.5218C23.3372 36.5218 23.6929 36.4183 24 36.2403C24.3072 36.4183 24.6628 36.5218 25.0434 36.5218C26.196 36.5218 27.1304 35.5874 27.1304 34.4348C27.1304 34.0505 27.0247 33.6917 26.8435 33.3825C29.2628 32.218 32.3478 29.9715 32.3478 26.0868V15.6522H27.1304ZM29.2174 26.0868C29.2174 26.6307 29.2174 28.2854 26.6419 29.9229C25.6663 30.5431 24.6566 30.9453 24 31.1689C23.3434 30.9453 22.3337 30.5431 21.3581 29.9229C18.7826 28.2854 18.7826 26.6307 18.7826 26.0868V18.7826H29.2174V26.0868Z" fill="#FF9811"/>
</g>
<defs>
<clipPath id="clip0">
<rect width="48" height="48" fill="white"/>
</clipPath>
</defs>
</svg>
