<svg width="48" height="48" viewBox="0 0 48 48" fill="none" xmlns="http://www.w3.org/2000/svg">
<g clip-path="url(#clip0)">
<path d="M34.4347 2.38144C31.2795 0.85575 27.7397 0 24 0C20.2603 0 16.7205 0.85575 13.5652 2.38144L11.4783 24L13.5652 45.6186C16.7205 47.1442 20.2603 48 24 48C27.7397 48 31.2795 47.1442 34.4347 45.6186L36.5217 24L34.4347 2.38144Z" fill="#D80027"/>
<path d="M13.5653 2.38226C5.53744 6.26417 0 14.485 0 24C0 33.5149 5.53744 41.7358 13.5653 45.6177V2.38226Z" fill="black"/>
<path d="M34.4348 2.38226V45.6177C42.4626 41.7358 48.0001 33.5149 48.0001 24C48.0001 14.485 42.4626 6.26417 34.4348 2.38226Z" fill="#496E2D"/>
<path d="M24 15.6522C19.3896 15.6522 15.6522 19.3897 15.6522 24C15.6522 28.6103 19.3897 32.3478 24 32.3478C28.6103 32.3478 32.3478 28.6103 32.3478 24C32.3478 19.3897 28.6104 15.6522 24 15.6522ZM24 29.2174C21.1185 29.2174 18.7826 26.8814 18.7826 24C18.7826 21.1186 21.1186 18.7826 24 18.7826C26.8814 18.7826 29.2174 21.1186 29.2174 24C29.2174 26.8814 26.8815 29.2174 24 29.2174Z" fill="#FFDA44"/>
<path d="M24.0001 20.8696C22.8474 20.8696 21.9131 21.8039 21.9131 22.9566V26.087H26.087V22.9566C26.087 21.8039 25.1527 20.8696 24.0001 20.8696Z" fill="#FFDA44"/>
</g>
<defs>
<clipPath id="clip0">
<rect width="48" height="48" fill="white"/>
</clipPath>
</defs>
</svg>
