<svg width="48" height="48" viewBox="0 0 48 48" fill="none" xmlns="http://www.w3.org/2000/svg">
<path d="M48 24C48 37.2547 37.2547 48 24 48C10.7452 48 0 37.2547 0 24C0 24.0057 24 0.002625 24 0C37.2547 0 48 10.7452 48 24Z" fill="#0052B4"/>
<path d="M23.9359 24.0001H24.0001C24.0001 23.9785 24.0001 23.9575 24.0001 23.9359C23.9787 23.9573 23.9573 23.9787 23.9359 24.0001Z" fill="#F0F0F0"/>
<path d="M24 12.5217C24 8.29875 24 5.53172 24 0H23.996C10.7429 0.00225 0 10.7465 0 24H12.5217V16.949L19.5728 24H23.9359C23.9572 23.9786 23.9786 23.9573 24.0001 23.9358C24.0001 22.3189 24.0001 20.8762 24.0001 19.5729L16.9489 12.5217H24Z" fill="#F0F0F0"/>
<path d="M12.1419 3.13043C8.38828 5.26784 5.26762 8.3884 3.13031 12.1421V24H9.39122V9.39153V9.39134H23.9999C23.9999 7.41668 23.9999 5.53549 23.9999 3.13043H12.1419Z" fill="#D80027"/>
<path d="M23.9998 21.0486L15.4728 12.5218H12.5215V12.522L23.9996 24H23.9998C23.9998 24 23.9998 21.9649 23.9998 21.0486Z" fill="#D80027"/>
<path d="M40.5879 27.5132C41.278 26.5637 41.739 25.4042 41.739 24V13.5653C40.8669 14.2204 39.7832 14.6087 38.6086 14.6087C36.9018 14.6087 35.3865 13.789 34.4347 12.5219C33.4827 13.789 31.9674 14.6087 30.2607 14.6087C29.086 14.6087 28.0023 14.2203 27.1303 13.5654V24C27.1303 25.4042 27.5913 26.5637 28.2814 27.5132H40.5879Z" fill="#F3F3F3"/>
<path d="M38.4172 22.0642C38.7495 21.2536 39.0078 20.0689 39.0078 19.4793C39.0078 18.5319 37.7728 17.764 37.7728 17.764C37.7728 17.764 36.5377 18.5319 36.5377 19.4793C36.5377 20.069 36.7962 21.2537 37.1283 22.0642L36.4153 23.6739C36.8343 23.8444 37.2924 23.9391 37.7729 23.9391C38.2533 23.9391 38.7113 23.8443 39.1305 23.6739L38.4172 22.0642Z" fill="#FF9811"/>
<path d="M33.5901 16.8517C32.7224 16.9693 31.5671 17.3382 31.0565 17.6329C30.2361 18.1067 30.1885 19.5601 30.1885 19.5601C30.1885 19.5601 31.4712 20.2457 32.2915 19.772C32.8022 19.4772 33.6988 18.6612 34.2344 17.9682L35.9853 17.7807C35.9233 17.3328 35.776 16.8887 35.5361 16.4727C35.2957 16.0567 34.9849 15.7072 34.6277 15.4294L33.5901 16.8517Z" fill="#FF9811"/>
<path d="M31.4899 23.6386C32.0254 24.3313 32.9224 25.1472 33.4331 25.4421C34.2535 25.9157 35.5361 25.2303 35.5361 25.2303C35.5361 25.2303 35.4883 23.7767 34.6681 23.303C34.1572 23.0082 33.0021 22.6396 32.1342 22.5223L31.0967 21.0998C30.7396 21.3775 30.4287 21.7272 30.1884 22.1428C29.9483 22.5589 29.8013 23.0028 29.7391 23.451L31.4899 23.6386Z" fill="#FF9811"/>
<path d="M28.0233 27.1307C29.9722 30.2577 34.4348 31.3044 34.4348 31.3044C34.4348 31.3044 38.8973 30.2577 40.8463 27.1307H28.0233Z" fill="#338AF3"/>
</svg>
