<svg width="48" height="48" viewBox="0 0 48 48" fill="none" xmlns="http://www.w3.org/2000/svg">
<path d="M24 48C37.2548 48 48 37.2548 48 24C48 10.7452 37.2548 0 24 0C10.7452 0 0 10.7452 0 24C0 37.2548 10.7452 48 24 48Z" fill="#D80027"/>
<path d="M37.5652 17.8133H28.8722C29.4088 17.2514 29.7391 16.4906 29.7391 15.6522C29.7391 13.9234 28.3375 12.5218 26.6087 12.5218C25.5195 12.5218 24.5607 13.0783 24 13.9221C23.4393 13.0783 22.4804 12.5218 21.3913 12.5218C19.6624 12.5218 18.2609 13.9234 18.2609 15.6522C18.2609 16.4906 18.5912 17.2515 19.1278 17.8133H10.4348C10.4348 20.1185 12.4427 21.9872 14.7477 21.9872H14.6086C14.6086 24.2925 16.4773 26.1612 18.7826 26.1612C18.7826 26.9078 18.9794 27.6078 19.3229 28.2138L15.8607 31.676L18.517 34.3322L22.285 30.5643C22.4326 30.6184 22.5853 30.6618 22.743 30.6913L20.4661 35.8321L24 39.6522L27.5339 35.8319L25.257 30.6911C25.4148 30.6616 25.5674 30.6183 25.7149 30.5641L29.4829 34.332L32.1393 31.6758L28.677 28.2135C29.0206 27.6076 29.2173 26.9075 29.2173 26.1609C31.5226 26.1609 33.3913 24.2923 33.3913 21.9869H33.2523C35.5573 21.9871 37.5652 20.1185 37.5652 17.8133Z" fill="black"/>
</svg>
