<svg width="48" height="48" viewBox="0 0 48 48" fill="none" xmlns="http://www.w3.org/2000/svg">
<path d="M0 24C0 10.7452 10.7452 0 24 0C37.2547 0 48 10.7452 48 24C46.9566 24 24 27.1304 24 27.1304L0 24Z" fill="#D80027"/>
<path d="M48 24C48 37.2548 37.2547 48 24 48C10.7452 48 0 37.2548 0 24" fill="black"/>
<path d="M20.7092 19.0886L22.7438 20.5651L21.9685 22.9565L24.0015 21.4775L26.0363 22.9541L25.258 20.5635L27.2909 19.0846L24.777 19.0861L23.9985 16.6956L23.2231 19.087L20.7092 19.0886Z" fill="#FFDA44"/>
<path d="M30 13.6077C28.1088 12.5158 26.041 12.0004 24 12.004V15.1337C25.5086 15.131 27.0369 15.5116 28.4348 16.3188C32.6702 18.7642 34.1266 24.1995 31.6812 28.4349C29.2359 32.6703 23.8007 34.1267 19.5652 31.6814C18.3313 30.969 17.3352 30.0016 16.6009 28.8854L13.9875 30.6107C14.981 32.121 16.3306 33.4285 18 34.3922C23.7304 37.7007 31.0839 35.7303 34.3922 30C37.7007 24.2696 35.7304 16.9161 30 13.6077Z" fill="#FFDA44"/>
<path d="M17.0805 21.913C16.2508 23.4298 16.8078 25.3321 18.3245 26.1618L28.4916 31.7174C27.8002 32.9812 28.1674 34.5196 29.4313 35.211L32.1777 36.7133C33.4415 37.4048 35.0269 36.9406 35.7184 35.6766L37.2207 32.9303L17.0805 21.913Z" fill="#FFDA44"/>
</svg>
