<svg width="48" height="48" viewBox="0 0 48 48" fill="none" xmlns="http://www.w3.org/2000/svg">
<path d="M24 48C37.2548 48 48 37.2548 48 24C48 10.7452 37.2548 0 24 0C10.7452 0 0 10.7452 0 24C0 37.2548 10.7452 48 24 48Z" fill="#F0F0F0"/>
<path d="M24 0C14.485 0 6.26347 5.53734 2.38147 13.5653H45.6185C41.7366 5.53734 33.515 0 24 0Z" fill="#338AF3"/>
<path d="M24 48C33.515 48 41.7366 42.4627 45.6186 34.4348H2.38147C6.26347 42.4627 14.485 48 24 48Z" fill="#338AF3"/>
<path d="M31.1733 24L28.2422 25.3788L29.803 28.2174L26.6202 27.6085L26.2169 30.8238L24 28.459L21.783 30.8238L21.3798 27.6085L18.197 28.2173L19.7577 25.3787L16.8267 24L19.7578 22.6212L18.197 19.7826L21.3797 20.3915L21.7831 17.1762L24 19.541L26.217 17.1762L26.6202 20.3915L29.8031 19.7826L28.2423 22.6213L31.1733 24Z" fill="#FFDA44"/>
</svg>
