<svg width="48" height="48" viewBox="0 0 48 48" fill="none" xmlns="http://www.w3.org/2000/svg">
<path d="M24 48C37.2548 48 48 37.2548 48 24C48 10.7452 37.2548 0 24 0C10.7452 0 0 10.7452 0 24C0 37.2548 10.7452 48 24 48Z" fill="#F0F0F0"/>
<path d="M35.6434 3.0105C32.1949 1.0935 28.2253 0 24 0C10.7462 0 0.0016875 10.7436 0 23.9972L16.6957 15.6522L35.6434 3.0105Z" fill="#0052B4"/>
<path d="M0 24.0028C0.0016875 37.2564 10.7462 48 24 48C28.2253 48 32.1949 46.9067 35.6434 44.9895L16.6957 32.3478L0 24.0028Z" fill="#0052B4"/>
<path d="M37.6434 4.25455C36.9988 3.8084 36.3308 3.39346 35.6425 3.01086L0 23.9972C0 23.9981 0 23.9991 0 24C0 24.0009 0 24.002 0 24.0028L35.6426 44.989C36.3309 44.6063 36.9988 44.1915 37.6435 43.7453L4.10831 24L37.6434 4.25455Z" fill="#D80027"/>
<path d="M41.739 23.1049H38.8802C39.6235 22.2124 39.5777 20.8846 38.7402 20.0474C39.6273 19.1604 39.6273 17.7222 38.7402 16.835L38.6868 16.8886C39.5738 16.0017 39.6273 14.5098 38.7402 13.6229L25.8912 26.4719C26.7783 27.359 28.1913 27.3484 29.0783 26.4614L29.3256 26.2353L35.4782 25.676V28.3222H37.5652V25.4863L40.6956 25.2017L41.739 23.1049Z" fill="#A2001D"/>
<path d="M26.0877 29.2174L24 28.174L26.0877 27.1304H39.6529V29.2174H26.0877Z" fill="#FFDA44"/>
</svg>
