<svg width="48" height="48" viewBox="0 0 48 48" fill="none" xmlns="http://www.w3.org/2000/svg">
<path d="M46.5072 32.3477C47.472 29.7479 48 26.9356 48 23.9999C48 21.0643 47.472 18.2522 46.5072 15.6522L24 13.5652L1.49278 15.6522C0.528094 18.2522 0 21.0643 0 23.9999C0 26.9356 0.528094 29.7479 1.49278 32.3477L24 34.4347L46.5072 32.3477Z" fill="#F0F0F0"/>
<path d="M23.9999 48C34.319 48 43.1161 41.487 46.507 32.3478H1.49258C4.88371 41.487 13.6806 48 23.9999 48Z" fill="#D80027"/>
<path d="M23.9999 0C13.6806 0 4.88371 6.513 1.49258 15.6522H46.5071C43.1161 6.513 34.319 0 23.9999 0Z" fill="#D80027"/>
</svg>
