<svg width="48" height="48" viewBox="0 0 48 48" fill="none" xmlns="http://www.w3.org/2000/svg">
<path d="M48 24C48 37.2547 37.2547 48 24 48C10.7452 48 0 37.2547 0 24C0 24.0056 24 0.00271875 24 0C37.2547 0 48 10.7452 48 24Z" fill="#0052B4"/>
<path d="M24 0C23.9987 0 23.9973 9.375e-05 23.9959 9.375e-05L24 0Z" fill="#F0F0F0"/>
<path d="M23.9359 24.0001H24.0001C24.0001 23.9783 24.0001 23.9575 24.0001 23.9359C23.9787 23.9573 23.9573 23.9787 23.9359 24.0001Z" fill="#F0F0F0"/>
<path d="M24 12.5227C24 8.29972 24 5.53251 24 0.000976562H23.996C10.743 0.00313281 0 10.7473 0 24.0009H12.5217V16.9498L19.5728 24.0009H23.9359C23.9573 23.9795 23.9787 23.9581 24.0001 23.9367C24.0001 22.3198 24.0001 20.877 24.0001 19.5739L16.9489 12.5227H24Z" fill="#F0F0F0"/>
<path d="M12.1419 3.13043C8.38828 5.26784 5.26772 8.3884 3.13031 12.1421V24H9.39122V9.39143V9.39134H23.9999C23.9999 7.41668 23.9999 5.53549 23.9999 3.13043H12.1419Z" fill="#D80027"/>
<path d="M23.9998 21.0487L15.473 12.522H12.5217C12.5217 12.5219 12.5217 12.522 12.5217 12.522L23.9997 24H23.9998C23.9998 24 23.9998 21.9652 23.9998 21.0487Z" fill="#D80027"/>
<path d="M14.4745 28.174L15.7917 30.9282L18.7661 30.2407L17.4341 32.9878L19.826 34.8846L16.8479 35.5559L16.8562 38.6088L14.4745 36.6988L12.0929 38.6088L12.1012 35.5559L9.12299 34.8846L11.515 32.9878L10.1828 30.2407L13.1574 30.9282L14.4745 28.174Z" fill="#F0F0F0"/>
<path d="M35.9327 33.3914L36.5913 34.7685L38.0786 34.4247L37.4125 35.7983L38.6085 36.7467L37.1194 37.0824L37.1235 38.6088L35.9327 37.6538L34.7419 38.6088L34.746 37.0824L33.257 36.7467L34.453 35.7983L33.787 34.4247L35.2741 34.7685L35.9327 33.3914Z" fill="#F0F0F0"/>
<path d="M29.8061 18.7827L30.4646 20.1599L31.9519 19.816L31.2859 21.1896L32.4818 22.138L30.9928 22.4737L30.9968 24.0001L29.8061 23.0451L28.6153 24.0001L28.6193 22.4737L27.1303 22.138L28.3263 21.1896L27.6603 19.816L29.1475 20.1599L29.8061 18.7827Z" fill="#F0F0F0"/>
<path d="M35.9327 10.4348L36.5913 11.812L38.0786 11.4682L37.4126 12.8418L38.6085 13.7901L37.1194 14.1258L37.1235 15.6523L35.9327 14.6973L34.7419 15.6523L34.746 14.1258L33.257 13.7901L34.4529 12.8418L33.787 11.4682L35.2741 11.812L35.9327 10.4348Z" fill="#F0F0F0"/>
<path d="M41.2845 16.6957L41.943 18.0729L43.4303 17.7291L42.7643 19.1026L43.9603 20.0511L42.4711 20.3868L42.4753 21.9131L41.2845 20.9582L40.0937 21.9131L40.0978 20.3868L38.6087 20.0511L39.8047 19.1026L39.1387 17.7291L40.6259 18.0729L41.2845 16.6957Z" fill="#F0F0F0"/>
<path d="M37.4577 24L37.9757 25.5943H39.6521L38.2959 26.5797L38.814 28.1739L37.4577 27.1886L36.1016 28.1739L36.6195 26.5797L35.2633 25.5943H36.9397L37.4577 24Z" fill="#F0F0F0"/>
</svg>
