<svg width="48" height="48" viewBox="0 0 48 48" fill="none" xmlns="http://www.w3.org/2000/svg">
<path d="M24 48C37.2548 48 48 37.2548 48 24C48 10.7452 37.2548 0 24 0C10.7452 0 0 10.7452 0 24C0 37.2548 10.7452 48 24 48Z" fill="#FFDA44"/>
<path d="M24 48C31.2742 48 37.792 44.7634 42.1933 39.6522H5.80682C10.2081 44.7634 16.7259 48 24 48Z" fill="#338AF3"/>
<path d="M48 24C48 10.7452 37.2547 0 24 0C10.7452 0 0 10.7452 0 24C0 26.1663 0.28875 28.2646 0.826781 30.2609H47.1733C47.7113 28.2646 48 26.1663 48 24Z" fill="#338AF3"/>
<path d="M1.90771 33.3912C2.37037 34.4784 2.91121 35.5239 3.52256 36.5216H44.4774C45.0888 35.5238 45.6296 34.4783 46.0925 33.3912H1.90771Z" fill="#338AF3"/>
<path d="M10.9984 15.1372L6.30945 13.0677L10.9984 10.9983L13.0678 6.30939L15.1371 10.9983L19.826 13.0677L15.1371 15.1372L13.0678 19.8261L10.9984 15.1372Z" fill="#F0F0F0"/>
<path d="M13.0678 8.8938L14.3457 11.7896L17.2416 13.0677L14.3457 14.3457L13.0678 17.2416L11.7897 14.3457L8.89383 13.0677L11.7897 11.7896L13.0678 8.8938Z" fill="#D80027"/>
</svg>
