<svg width="48" height="48" viewBox="0 0 48 48" fill="none" xmlns="http://www.w3.org/2000/svg">
<path d="M47.1732 30.2609C47.7113 28.2646 48 26.1663 48 24C48 21.8337 47.7113 19.7354 47.1732 17.7391L21.913 0.0913086C17.2236 0.495371 12.9202 2.24756 9.39131 4.9589L0.826781 17.7391C0.28875 19.7354 0 21.8337 0 24C0 26.1536 0.285281 28.2404 0.817313 30.2262L9.39122 43.0411C12.9201 45.7524 17.2235 47.5047 21.9129 47.9087L47.1732 30.2609Z" fill="#FFDA44"/>
<path d="M0.826782 30.2609C2.21541 35.4133 5.27588 39.879 9.39131 43.0411V30.2609H0.826782Z" fill="#0052B4"/>
<path d="M21.9131 47.9087C22.601 47.968 23.2967 48 24.0001 48C35.0887 48 44.4193 40.4793 47.1733 30.2609H21.9131V47.9087Z" fill="#0052B4"/>
<path d="M47.1733 17.7391C44.4193 7.52072 35.0887 0 24.0001 0C23.2967 0 22.601 0.0320625 21.9131 0.0913125V17.7391H47.1733Z" fill="#0052B4"/>
<path d="M9.39131 4.95886C5.27588 8.12105 2.21541 12.5866 0.826782 17.739H9.39131V4.95886Z" fill="#0052B4"/>
<path d="M47.7968 20.8696H18.7827H18.7826V0.570435C16.5647 1.06225 14.462 1.8594 12.5217 2.91812V20.8695H0.203156C0.0695625 21.8942 0 22.939 0 24C0 25.0609 0.0695625 26.1057 0.203156 27.1304H12.5216H12.5217V45.0817C14.462 46.1403 16.5647 46.9377 18.7826 47.4294V27.1307V27.1305H47.7968C47.9303 26.1057 48 25.0609 48 24C48 22.939 47.9303 21.8942 47.7968 20.8696Z" fill="#D80027"/>
</svg>
