<svg width="48" height="48" viewBox="0 0 48 48" fill="none" xmlns="http://www.w3.org/2000/svg">
<g clip-path="url(#clip0)">
<path d="M48 23.9999C48 21.0643 47.472 18.252 46.5072 15.6522L24 14.6086L1.49278 15.6521C0.528094 18.252 0 21.0643 0 23.9999C0 26.9356 0.528094 29.7479 1.49278 32.3477L24 33.3913L46.5072 32.3478C47.472 29.7479 48 26.9356 48 23.9999Z" fill="#D80027"/>
<path d="M23.9999 48C34.3191 48 43.1161 41.487 46.5071 32.3478H1.49269C4.88372 41.487 13.6808 48 23.9999 48Z" fill="#6DA544"/>
<path d="M1.49269 15.6522H46.5072C43.1161 6.513 34.3191 0 23.9999 0C13.6808 0 4.88372 6.513 1.49269 15.6522Z" fill="#338AF3"/>
<path d="M24.5217 30.7826C20.7758 30.7826 17.7391 27.7459 17.7391 24C17.7391 20.2541 20.7758 17.2173 24.5217 17.2173C25.6896 17.2173 26.7887 17.5127 27.7481 18.0326C26.2429 16.5606 24.1845 15.6521 21.913 15.6521C17.3026 15.6521 13.5652 19.3895 13.5652 23.9999C13.5652 28.6102 17.3027 32.3477 21.913 32.3477C24.1846 32.3477 26.2429 31.4391 27.7481 29.9672C26.7887 30.4873 25.6896 30.7826 24.5217 30.7826Z" fill="#F0F0F0"/>
<path d="M29.739 19.3043L30.6374 21.831L33.0593 20.6795L31.908 23.1015L34.4346 24L31.908 24.8985L33.0593 27.3204L30.6374 26.169L29.739 28.6956L28.8407 26.169L26.4186 27.3204L27.5701 24.8985L25.0433 24L27.5701 23.1015L26.4186 20.6795L28.8407 21.831L29.739 19.3043Z" fill="#F0F0F0"/>
</g>
<defs>
<clipPath id="clip0">
<rect width="48" height="48" fill="white"/>
</clipPath>
</defs>
</svg>
