<svg width="48" height="48" viewBox="0 0 48 48" fill="none" xmlns="http://www.w3.org/2000/svg">
<path d="M34.4347 2.38144C31.2794 0.85575 27.7396 0 23.9999 0C20.2602 0 16.7204 0.85575 13.5652 2.38144L11.4782 24L13.5652 45.6186C16.7204 47.1442 20.2602 48 23.9999 48C27.7396 48 31.2794 47.1442 34.4347 45.6186L36.5216 24L34.4347 2.38144Z" fill="#FFDA44"/>
<path d="M13.5653 2.38226C5.53744 6.26408 0 14.4849 0 24C0 33.515 5.53744 41.7359 13.5653 45.6177V2.38226Z" fill="#0052B4"/>
<path d="M34.4348 2.38226V45.6177C42.4626 41.7359 48 33.5149 48 24C48 14.485 42.4626 6.26408 34.4348 2.38226Z" fill="#0052B4"/>
<path d="M31.3043 14.6088L32.7043 15.3087L31.3043 14.6088L29.9042 13.9088C29.8199 14.0777 27.9918 17.797 27.6932 23.4784H25.5652V14.6088L24 12.5218L22.4347 14.6088V23.4784H20.3067C20.008 17.797 18.1801 14.0777 18.0956 13.9088L15.2957 15.3088C15.315 15.3472 17.2174 19.2196 17.2174 25.0436V26.6089H22.4348V35.4784H25.5652V26.6089H30.7826V25.0435C30.7826 22.0324 31.3035 19.5496 31.7407 17.9969C32.2172 16.3038 32.7013 15.315 32.706 15.3051L31.3043 14.6088Z" fill="black"/>
</svg>
