<svg width="48" height="48" viewBox="0 0 48 48" fill="none" xmlns="http://www.w3.org/2000/svg">
<g clip-path="url(#clip0)">
<path d="M32.3477 1.49278C29.7478 0.528094 26.9356 0 23.9999 0C21.0643 0 18.2521 0.528094 15.6522 1.49278L13.5652 24L15.6522 46.5072C18.2521 47.472 21.0643 48 23.9999 48C26.9356 48 29.7478 47.472 32.3477 46.5072L34.4347 24L32.3477 1.49278Z" fill="#FFDA44"/>
<path d="M48 24C48 13.6809 41.487 4.8838 32.3478 1.49286V46.5074C41.487 43.1162 48 34.3192 48 24Z" fill="#D80027"/>
<path d="M0 24C0 34.3192 6.513 43.1162 15.6522 46.5073V1.49286C6.513 4.8838 0 13.6809 0 24Z" fill="black"/>
</g>
<defs>
<clipPath id="clip0">
<rect width="48" height="48" fill="white"/>
</clipPath>
</defs>
</svg>
