<svg width="48" height="48" viewBox="0 0 48 48" fill="none" xmlns="http://www.w3.org/2000/svg">
<g clip-path="url(#clip0)">
<path d="M48 23.9999C48 21.0643 47.472 18.252 46.5072 15.6522L24 14.6086L1.49278 15.6521C0.528094 18.252 0 21.0643 0 23.9999C0 26.9356 0.528094 29.7479 1.49278 32.3477L24 33.3913L46.5072 32.3478C47.472 29.7479 48 26.9356 48 23.9999Z" fill="#496E2D"/>
<path d="M23.9999 48C34.3191 48 43.1161 41.487 46.5071 32.3478H1.49271C4.88374 41.487 13.6808 48 23.9999 48Z" fill="#D80027"/>
<path d="M1.49271 15.6522H46.5072C43.1161 6.513 34.3191 0 23.9999 0C13.6808 0 4.88374 6.513 1.49271 15.6522Z" fill="#F0F0F0"/>
</g>
<defs>
<clipPath id="clip0">
<rect width="48" height="48" fill="white"/>
</clipPath>
</defs>
</svg>
