<svg width="48" height="48" viewBox="0 0 48 48" fill="none" xmlns="http://www.w3.org/2000/svg">
<g clip-path="url(#clip0)">
<path d="M24 48C37.2548 48 48 37.2548 48 24C48 10.7452 37.2548 0 24 0C10.7452 0 0 10.7452 0 24C0 37.2548 10.7452 48 24 48Z" fill="#F0F0F0"/>
<path d="M24 0C19.1835 0 14.6993 1.41984 10.9407 3.86231L17.1131 7.99941L9.39136 11.9993L17.1131 15.9993L9.39136 19.9992L17.1131 23.9987L9.39136 27.9985L17.1131 31.9984L9.39136 35.9987L17.1131 39.9986L10.9399 44.137C14.6987 46.58 19.1833 48 24 48C37.2548 48 48 37.2547 48 24C48 10.7452 37.2548 0 24 0Z" fill="#D80027"/>
</g>
<defs>
<clipPath id="clip0">
<rect width="48" height="48" fill="white"/>
</clipPath>
</defs>
</svg>
