<svg width="48" height="48" viewBox="0 0 48 48" fill="none" xmlns="http://www.w3.org/2000/svg">
<path d="M24 48C37.2548 48 48 37.2548 48 24C48 10.7452 37.2548 0 24 0C10.7452 0 0 10.7452 0 24C0 37.2548 10.7452 48 24 48Z" fill="#F0F0F0"/>
<path d="M38.6133 4.95954C30.021 -1.65227 17.979 -1.65227 9.3866 4.95945L24 19.5728L38.6133 4.95954Z" fill="#D80027"/>
<path d="M23.9998 28.4273L9.3866 43.0405C17.979 49.6523 30.021 49.6523 38.6133 43.0405L24 28.4271L23.9998 28.4273Z" fill="#D80027"/>
<path d="M19.5728 24L4.9595 9.3866C-1.65231 17.979 -1.65231 30.021 4.9595 38.6133L19.5728 24Z" fill="#6DA544"/>
<path d="M28.4271 24L43.0403 38.6133C49.6521 30.021 49.6521 17.979 43.0403 9.3866L28.4271 24Z" fill="#6DA544"/>
<path d="M24 34.4347C29.7629 34.4347 34.4347 29.7629 34.4347 23.9999C34.4347 18.237 29.7629 13.5652 24 13.5652C18.237 13.5652 13.5652 18.237 13.5652 23.9999C13.5652 29.7629 18.237 34.4347 24 34.4347Z" fill="#F0F0F0"/>
<path d="M24 16.6956L24.9036 18.2609H26.711L25.8073 19.826L26.711 21.3913H24.9036L24 22.9565L23.0963 21.3913H21.289L22.1927 19.826L21.289 18.2609H23.0963L24 16.6956Z" fill="#D80027"/>
<path d="M19.4068 24L20.3105 25.5653H22.1178L21.2141 27.1304L22.1178 28.6957H20.3105L19.4068 30.2609L18.5031 28.6957H16.6957L17.5994 27.1304L16.6957 25.5653H18.5031L19.4068 24Z" fill="#D80027"/>
<path d="M28.5933 24L29.4969 25.5653H31.3042L30.4006 27.1304L31.3042 28.6957H29.4969L28.5933 30.2609L27.6895 28.6957H25.8822L26.7859 27.1304L25.8822 25.5653H27.6895L28.5933 24Z" fill="#D80027"/>
</svg>
