<svg width="48" height="48" viewBox="0 0 48 48" fill="none" xmlns="http://www.w3.org/2000/svg">
<path d="M48 24C48 37.2547 37.2547 48 24 48C10.7452 48 0 37.2547 0 24C0 24.0057 24 0.002625 24 0C37.2547 0 48 10.7452 48 24Z" fill="#D80027"/>
<path d="M23.9999 11.4782V19.5729L15.6522 11.4782H23.9999Z" fill="#0052B4"/>
<path d="M12.5216 23.9999H19.5727L12.5216 14.6086L11.4782 21.913L12.5216 23.9999Z" fill="#0052B4"/>
<path d="M23.9359 24.0001H24.0001C24.0001 23.9785 24.0001 23.9575 24.0001 23.9359C23.9787 23.9573 23.9573 23.9787 23.9359 24.0001Z" fill="#F0F0F0"/>
<path d="M24 12.5217C24 8.29875 24 5.53172 24 0H23.996C10.7429 0.00225 0 10.7465 0 24H12.5217V16.949L19.5728 24H23.9359C23.9572 23.9786 23.9786 23.9573 24.0001 23.9358C24.0001 22.3189 24.0001 20.8762 24.0001 19.5729L16.9489 12.5217H24Z" fill="#F0F0F0"/>
<path d="M12.1419 3.13043C8.38828 5.26784 5.26762 8.3884 3.13031 12.1421V25.0435H9.39122V9.39153V9.39134H25.0433C25.0433 7.41668 25.0433 5.53549 25.0433 3.13043H12.1419Z" fill="#D80027"/>
<path d="M24.9539 22.0026L15.4728 12.5218H12.5215V12.522L24.9536 24.9541H24.9538C24.9539 24.9542 24.9539 22.9191 24.9539 22.0026Z" fill="#D80027"/>
<path d="M27.1303 12.5218V24C27.1303 29.5912 41.739 29.5912 41.739 24V12.5218H27.1303Z" fill="#F3F3F3"/>
<path d="M27.1303 24V23.9999C27.1303 29.5911 34.4347 31.3043 34.4347 31.3043C34.4347 31.3043 41.739 29.5911 41.739 23.9999V24H27.1303Z" fill="#6DA544"/>
<path d="M34.4349 19.4087L31.0435 20.8696V24L34.4349 26.087L37.8262 24V20.8696L34.4349 19.4087Z" fill="#A2001D"/>
<path d="M37.8262 17.7391H31.0435V20.8695H37.8262V17.7391Z" fill="#338AF3"/>
</svg>
