<svg width="48" height="48" viewBox="0 0 48 48" fill="none" xmlns="http://www.w3.org/2000/svg">
<g clip-path="url(#clip0)">
<path d="M24 48C37.2548 48 48 37.2548 48 24C48 10.7452 37.2548 0 24 0C10.7452 0 0 10.7452 0 24C0 37.2548 10.7452 48 24 48Z" fill="#FFDA44"/>
<path d="M14.6089 15.6522H46.5073C43.1164 6.513 34.3192 0 24.0002 0C17.3726 0 11.3733 2.68678 7.0304 7.03022L14.6089 15.6522Z" fill="#338AF3"/>
<path d="M14.6089 32.3478H46.5073C43.1164 41.487 34.3192 48 24.0002 48C17.3726 48 11.3733 45.3132 7.0304 40.9698L14.6089 32.3478Z" fill="#338AF3"/>
<path d="M7.02942 7.02942C-2.34314 16.402 -2.34314 31.598 7.02942 40.9707C10.9025 37.0976 14.6275 33.3726 24 24L7.02942 7.02942Z" fill="black"/>
</g>
<defs>
<clipPath id="clip0">
<rect width="48" height="48" fill="white"/>
</clipPath>
</defs>
</svg>
