<svg width="48" height="48" viewBox="0 0 48 48" fill="none" xmlns="http://www.w3.org/2000/svg">
<g clip-path="url(#clip0)">
<path d="M40.9705 40.9706C31.598 50.3432 16.402 50.3432 7.02936 40.9706C-2.3432 31.5981 -2.3432 16.402 7.02936 7.02939C7.03274 7.02939 28.5973 0.657483 37.97 10.03C47.3426 19.4026 40.977 40.9641 40.9705 40.9706Z" fill="#FFDA44"/>
<path d="M40.9705 40.9706C50.3431 31.598 50.3431 16.402 40.9705 7.02934C31.598 -2.34332 16.402 -2.34323 7.02939 7.02934L40.9705 40.9706Z" fill="#D80027"/>
<path d="M30.2736 30.2757C29.2877 30.6629 28.1422 30.6219 27.1483 30.0641C25.3924 29.0786 24.7656 26.848 25.7514 25.0917L25.4521 24.9239C28.4588 24.199 30.6832 21.4699 30.6442 18.2494C30.62 16.2472 29.7253 14.4559 28.3259 13.2302L26.1347 15.4752C26.9631 16.1353 27.5002 17.148 27.5139 18.2874C27.5383 20.3011 25.92 21.9593 23.9064 21.9836L23.9106 22.3264C21.7794 20.0852 18.3039 19.5234 15.5344 21.1674C13.8126 22.1896 12.7088 23.8599 12.3468 25.6847L15.3865 26.46C15.5441 25.4125 16.1525 24.441 17.1323 23.8593C18.8639 22.8313 21.109 23.404 22.137 25.1355L22.4321 24.9605C21.5567 27.9266 22.8078 31.2175 25.6164 32.794C27.3626 33.774 29.361 33.8949 31.1224 33.2959L30.2736 30.2757ZM23.9316 24.0701L23.9314 24.0702L23.9316 24.0701Z" fill="#FF9811"/>
<path d="M32.8864 16.2545L31.1901 22.3081L26.1004 21.3682L22.8242 14.6149L13.9735 17.7556L13.2756 15.7888L10.9599 15.5035L12.7047 20.4206L18.7956 18.8628L20.5265 23.7406L16.316 29.9544L23.4613 36.0487L22.1069 37.6366L23.0177 39.7848L26.4037 35.8151L22.0093 31.3191L25.3681 27.3813L32.8548 27.9208L34.56 18.6855L36.6123 19.0645L38.0175 17.2017L32.8864 16.2545ZM23.9984 24.1634V24.1636V24.1634Z" fill="#FFEACF"/>
</g>
<defs>
<clipPath id="clip0">
<rect width="48" height="48" fill="white"/>
</clipPath>
</defs>
</svg>
