<svg width="48" height="48" viewBox="0 0 48 48" fill="none" xmlns="http://www.w3.org/2000/svg">
<g clip-path="url(#clip0)">
<path d="M1.13425 16.6955C0.399062 18.9989 0.000905717 21.4526 0.000999467 23.9999C0.000905717 26.547 0.399062 29.0008 1.13434 31.3042L24.001 32.3479L46.8676 31.3042C47.6027 29.0008 48.0009 26.5469 48.0009 24C48.0009 21.4528 47.6027 18.9989 46.8676 16.6955L24.0009 15.6521L1.13425 16.6955Z" fill="#F0F0F0"/>
<path d="M48 24C48 22.5762 47.8753 21.1816 47.6375 19.8259H0.362625C0.124687 21.1816 0 22.576 0 23.9999C0 25.4237 0.124781 26.8182 0.362625 28.1738H47.6375C47.8752 26.8181 48 25.4236 48 24Z" fill="black"/>
<path d="M24.0009 47.9999C34.7086 47.9999 43.7771 40.9871 46.8675 31.3041H1.13424C4.22471 40.987 13.2932 47.9997 24.0009 47.9999Z" fill="#338AF3"/>
<path d="M24 0.000976566C13.2923 0.000976566 4.2239 7.01376 1.13324 16.6964L46.8664 16.6965C43.7761 7.01376 34.7076 0.000789066 24 0.000976566Z" fill="#338AF3"/>
</g>
<defs>
<clipPath id="clip0">
<rect width="48" height="48" fill="white"/>
</clipPath>
</defs>
</svg>
