<svg width="48" height="48" viewBox="0 0 48 48" fill="none" xmlns="http://www.w3.org/2000/svg">
<g clip-path="url(#clip0)">
<path d="M24 48C37.2548 48 48 37.2548 48 24C48 10.7452 37.2548 0 24 0C10.7452 0 0 10.7452 0 24C0 37.2548 10.7452 48 24 48Z" fill="#FCFCFC"/>
<path d="M9.91294 22.2608L7.30426 17.528L9.91294 12.8695L12.5216 17.528L9.91294 22.2608Z" fill="#A2001D"/>
<path d="M4.69566 22.2608L2.08698 17.528L4.69566 12.8695L7.30435 17.528L4.69566 22.2608Z" fill="#A2001D"/>
<path d="M9.91294 35.1304L7.30426 30.3977L9.91294 25.7391L12.5216 30.3977L9.91294 35.1304Z" fill="#A2001D"/>
<path d="M4.69566 35.1304L2.08698 30.3977L4.69566 25.7391L7.30435 30.3977L4.69566 35.1304Z" fill="#A2001D"/>
<path d="M12.5217 4.6586L11.7831 3.33972C10.4584 4.1246 9.21595 5.03332 8.07117 6.04994L9.91298 9.39128L12.5217 4.6586Z" fill="#A2001D"/>
<path d="M9.91301 38.6086L8.0517 41.9326C9.19545 42.9506 10.4371 43.8607 11.7612 44.6472L12.5218 43.2673L9.91301 38.6086Z" fill="#A2001D"/>
<path d="M14.6088 30.2609V46.0918C17.4934 47.3197 20.6671 48 24.0001 48C34.3192 48 43.1163 41.487 46.5073 32.3478L14.6088 30.2609Z" fill="#6DA544"/>
<path d="M46.5073 32.3478C47.4721 29.7478 48.0001 26.9357 48.0001 24C48.0001 10.7453 37.2548 0 24.0001 0C20.6674 0 17.4934 0.679969 14.6088 1.90763V32.3479H46.5073V32.3478Z" fill="#A2001D"/>
</g>
<defs>
<clipPath id="clip0">
<rect width="48" height="48" fill="white"/>
</clipPath>
</defs>
</svg>
