<svg width="48" height="48" viewBox="0 0 48 48" fill="none" xmlns="http://www.w3.org/2000/svg">
<path d="M48 24C48 15.7631 43.8498 8.49621 37.5269 4.17396L24 3.13043L10.4731 4.17387C4.15031 8.49621 0 15.7632 0 24C0 32.2372 4.15031 39.5038 10.4731 43.8261L24 44.8696L37.5269 43.8262C43.8498 39.5038 48 32.2372 48 24Z" fill="#0052B4"/>
<path d="M37.527 4.17394C33.6753 1.54087 29.018 0 24.0001 0C18.9823 0 14.3249 1.54087 10.4732 4.17394H37.527Z" fill="#A2001D"/>
<path d="M10.4732 43.826C14.3248 46.4591 18.9823 48 24.0001 48C29.018 48 33.6753 46.4591 37.527 43.826H10.4732Z" fill="#A2001D"/>
<path d="M24.0001 35.4784C30.3393 35.4784 35.4784 30.3393 35.4784 24.0001C35.4784 17.6608 30.3393 12.5218 24.0001 12.5218C17.6608 12.5218 12.5218 17.6608 12.5218 24.0001C12.5218 30.3393 17.6608 35.4784 24.0001 35.4784Z" fill="#F0F0F0"/>
<path d="M24.0001 33.3913C29.1867 33.3913 33.3914 29.1866 33.3914 23.9999C33.3914 18.8133 29.1867 14.6086 24.0001 14.6086C18.8134 14.6086 14.6088 18.8133 14.6088 23.9999C14.6088 29.1866 18.8134 33.3913 24.0001 33.3913Z" fill="#6DA544"/>
<path d="M24 30.2609C27.4578 30.2609 30.2609 27.4578 30.2609 24C30.2609 20.5422 27.4578 17.7391 24 17.7391C20.5422 17.7391 17.7391 20.5422 17.7391 24C17.7391 27.4578 20.5422 30.2609 24 30.2609Z" fill="#F0F0F0"/>
<path d="M24.0001 22.4348L20.6088 24.0001V26.6087L24.0001 28.6957L27.3914 26.6087V24.0001L24.0001 22.4348Z" fill="#0052B4"/>
<path d="M27.3914 20.8696H20.6088V24H27.3914V20.8696Z" fill="#FFDA44"/>
</svg>
