<svg width="48" height="48" viewBox="0 0 48 48" fill="none" xmlns="http://www.w3.org/2000/svg">
<g clip-path="url(#clip0)">
<path d="M23.9998 48C26.9355 48 29.7477 47.472 32.3476 46.5072L33.3911 24L32.3477 1.49278C29.7477 0.528094 26.9355 0 23.9998 0C21.0641 0 18.2519 0.528094 15.6521 1.49278L14.6085 24L15.652 46.5072C18.2519 47.472 21.0641 48 23.9998 48Z" fill="#F0F0F0"/>
<path d="M0 24C0 34.3192 6.513 43.1162 15.6522 46.5072V1.4928C6.513 4.88383 0 13.6809 0 24Z" fill="#FF9811"/>
<path d="M32.3478 1.4928V46.5073C41.487 43.1162 48 34.3192 48 24C48 13.6809 41.487 4.88383 32.3478 1.4928Z" fill="#6DA544"/>
</g>
<defs>
<clipPath id="clip0">
<rect width="48" height="48" fill="white"/>
</clipPath>
</defs>
</svg>
