<svg width="48" height="48" viewBox="0 0 48 48" fill="none" xmlns="http://www.w3.org/2000/svg">
<g clip-path="url(#clip0)">
<path d="M24 48C37.2548 48 48 37.2548 48 24C48 10.7452 37.2548 0 24 0C10.7452 0 0 10.7452 0 24C0 37.2548 10.7452 48 24 48Z" fill="#F0F0F0"/>
<path d="M48 24.0001C48 37.2548 37.2547 48.0001 24 48.0001C10.7452 48.0001 0 37.2548 0 24.0001C0 10.7453 24 24.0001 24 24.0001C24 24.0001 42.1651 24.0001 48 24.0001Z" fill="#D80027"/>
<path d="M0 24C0 10.7452 10.7452 0 24 0C24 9.12703 24 24 24 24C24 24 8.34778 24 0 24Z" fill="#0052B4"/>
<path d="M14.2865 8.34778L15.8406 13.1307H20.8696L16.8011 16.0867L18.3551 20.8696L14.2865 17.9136L10.2179 20.8696L11.7719 16.0867L7.70337 13.1307H12.7324L14.2865 8.34778Z" fill="#F0F0F0"/>
</g>
<defs>
<clipPath id="clip0">
<rect width="48" height="48" fill="white"/>
</clipPath>
</defs>
</svg>
