<svg width="48" height="48" viewBox="0 0 48 48" fill="none" xmlns="http://www.w3.org/2000/svg">
<g clip-path="url(#clip0)">
<path d="M34.4347 2.38144C31.2795 0.85575 27.7397 0 24 0C20.2603 0 16.7205 0.85575 13.5652 2.38144L11.4783 24L13.5652 45.6186C16.7205 47.1442 20.2603 48 24 48C27.7397 48 31.2795 47.1442 34.4347 45.6186L36.5217 24L34.4347 2.38144Z" fill="#D80027"/>
<path d="M23.9998 15.6522L26.0717 22.029H32.7774L27.3527 25.9706L29.4246 32.3478L23.9998 28.4064L18.5749 32.3478L20.6473 25.9706L15.2225 22.029H21.9278L23.9998 15.6522Z" fill="#FFDA44"/>
<path d="M13.5653 2.38226C5.53744 6.26408 0 14.4849 0 24C0 33.515 5.53744 41.7359 13.5653 45.6177V2.38226Z" fill="#496E2D"/>
<path d="M34.4348 2.38226V45.6177C42.4626 41.7359 48.0001 33.5149 48.0001 24C48.0001 14.485 42.4626 6.26408 34.4348 2.38226Z" fill="#FFDA44"/>
</g>
<defs>
<clipPath id="clip0">
<rect width="48" height="48" fill="white"/>
</clipPath>
</defs>
</svg>
