<svg width="48" height="48" viewBox="0 0 48 48" fill="none" xmlns="http://www.w3.org/2000/svg">
<path d="M24 48C37.2548 48 48 37.2548 48 24C48 10.7452 37.2548 0 24 0C10.7452 0 0 10.7452 0 24C0 37.2548 10.7452 48 24 48Z" fill="#D80027"/>
<path d="M13.1344 14.6062L15.2062 20.9812H21.9094L16.4906 24.9281L18.5625 31.3031L13.1344 27.3656L7.70625 31.3031L9.7875 24.9281L4.35938 20.9812H11.0625L13.1344 14.6062Z" fill="#FFDA44"/>
<path d="M28.4529 37.1719L26.8686 35.2219L24.5248 36.1312L25.8842 34.0219L24.2998 32.0625L26.7279 32.7094L28.0967 30.6L28.2279 33.1125L30.6654 33.7594L28.3123 34.6594L28.4529 37.1719Z" fill="#FFDA44"/>
<path d="M31.603 31.4531L32.353 29.0531L30.2998 27.6L32.8123 27.5625L33.553 25.1625L34.3686 27.5437L36.8811 27.5156L34.8655 29.0156L35.6717 31.3969L33.6186 29.9437L31.603 31.4531Z" fill="#FFDA44"/>
<path d="M35.8502 17.6156L34.7439 19.8749L36.5439 21.6281L34.0595 21.2718L32.9533 23.5218L32.522 21.0468L30.0283 20.6906L32.2595 19.5187L31.8283 17.0343L33.6283 18.7874L35.8502 17.6156Z" fill="#FFDA44"/>
<path d="M28.5188 10.7719L28.3313 13.275L30.6657 14.2219L28.2188 14.8219L28.0407 17.3344L26.7188 15.1969L24.272 15.7969L25.8938 13.875L24.5626 11.7469L26.897 12.6937L28.5188 10.7719Z" fill="#FFDA44"/>
</svg>
