<svg width="48" height="48" viewBox="0 0 48 48" fill="none" xmlns="http://www.w3.org/2000/svg">
<g clip-path="url(#clip0)">
<path d="M0.001 4.17395H0V43.8261H0.001V24.0001V4.17395Z" fill="#FF9811"/>
<path d="M23.9999 48.0008C37.2547 48.0008 47.9998 37.2557 47.9998 24.0009C47.9998 10.7461 37.2547 0.000976562 23.9999 0.000976562C10.7451 0.000976562 0 10.7461 0 24.0009C0 37.2557 10.7451 48.0008 23.9999 48.0008Z" fill="#F0F0F0"/>
<path d="M24.0001 0.000183105C16.1484 0.000183105 9.17771 3.77109 4.79912 9.60018H43.2011C38.8226 3.771 31.8518 0.000183105 24.0001 0.000183105Z" fill="#0052B4"/>
<path d="M24.0001 47.9999C31.8519 47.9999 38.8226 44.229 43.2012 38.3999H4.79912C9.17762 44.2291 16.1484 47.9999 24.0001 47.9999Z" fill="#0052B4"/>
<path d="M0.000999451 24.0001C0.000999451 25.644 0.166749 27.2492 0.481655 28.8001H47.5204C47.8353 27.2492 48.001 25.644 48.001 24.0001C48.001 22.3562 47.8352 20.751 47.5204 19.2001H0.481655C0.166749 20.751 0.000999451 22.3562 0.000999451 24.0001Z" fill="#0052B4"/>
<path d="M7.02927 7.02954C-2.34319 16.402 -2.34319 31.598 7.02927 40.9707C10.9024 37.0976 14.6272 33.3726 23.9998 24.0002L7.02927 7.02954Z" fill="#D80027"/>
<path d="M9.71345 17.7393L11.2673 22.5219H16.2966L12.2281 25.478L13.7819 30.2608L9.71345 27.3049L5.64479 30.2608L7.19898 25.478L3.13042 22.5219H8.15935L9.71345 17.7393Z" fill="#F0F0F0"/>
</g>
<defs>
<clipPath id="clip0">
<rect width="48" height="48" fill="white"/>
</clipPath>
</defs>
</svg>
