<svg width="48" height="48" viewBox="0 0 48 48" fill="none" xmlns="http://www.w3.org/2000/svg">
<g clip-path="url(#clip0)">
<path d="M40.9697 40.9706C31.5972 50.3431 16.4012 50.3431 7.02856 40.9706C-2.34408 31.598 -2.34399 16.402 7.02856 7.02936C7.76637 7.76708 26.2127 21.7863 26.2127 21.7863L40.9697 40.9706Z" fill="#0052B4"/>
<path d="M7.02905 7.0299C16.4016 -2.34265 31.5976 -2.34265 40.9702 7.0299C50.3429 16.4024 50.3428 31.5984 40.9702 40.9711" fill="#6DA544"/>
<path d="M24.0001 30.2608C27.4579 30.2608 30.261 27.4577 30.261 23.9999C30.261 20.5421 27.4579 17.739 24.0001 17.739C20.5423 17.739 17.7392 20.5421 17.7392 23.9999C17.7392 27.4577 20.5423 30.2608 24.0001 30.2608Z" fill="#FFDA44"/>
<path d="M8.93652 34.4348L9.59511 35.8118L11.0823 35.4681L10.4163 36.8416L11.6123 37.7901L10.1232 38.1256L10.1273 39.6521L8.93652 38.6971L7.74571 39.6521L7.74983 38.1256L6.26071 37.7901L7.45677 36.8416L6.79068 35.4681L8.27793 35.8118L8.93652 34.4348Z" fill="#F0F0F0"/>
<path d="M4.62856 22.9565L5.28716 24.3336L6.77431 23.9898L6.10841 25.3634L7.30428 26.3118L5.81525 26.6474L5.81938 28.1739L4.62856 27.219L3.43785 28.1739L3.44188 26.6474L1.95285 26.3118L3.14882 25.3634L2.48282 23.9898L3.96997 24.3336L4.62856 22.9565Z" fill="#F0F0F0"/>
<path d="M8.93652 13.5652L9.59511 14.9423L11.0823 14.5984L10.4164 15.972L11.6123 16.9205L10.1232 17.256L10.1273 18.7826L8.93652 17.8276L7.74571 18.7826L7.74983 17.256L6.2608 16.9205L7.45668 15.972L6.79068 14.5984L8.27793 14.9423L8.93652 13.5652Z" fill="#F0F0F0"/>
<path d="M14.288 20.8696L14.9466 22.2467L16.4339 21.9028L15.7678 23.2765L16.9638 24.2249L15.4747 24.5605L15.4788 26.0869L14.288 25.132L13.0972 26.0869L13.1014 24.5605L11.6123 24.2249L12.8082 23.2765L12.1423 21.9028L13.6295 22.2467L14.288 20.8696Z" fill="#F0F0F0"/>
<path d="M10.462 27.1304L10.9801 28.7247H12.6563L11.3001 29.71L11.8182 31.3042L10.462 30.319L9.10582 31.3042L9.62389 29.71L8.2677 28.7247H9.94395L10.462 27.1304Z" fill="#F0F0F0"/>
<path d="M23.9995 28.1739H26.0865C26.0865 28.1739 26.9908 26.574 26.0865 25.0435L28.1734 22.9565L27.13 20.8696H26.0866C26.0866 20.8696 25.5648 22.4348 23.4779 22.4348C21.3909 22.4348 20.8692 20.8696 20.8692 20.8696H19.8258L20.8692 22.9565L19.8258 25.0435L20.8692 26.0869C20.8692 26.0869 21.9126 24 23.9996 25.0435C23.9995 25.0435 24.8865 26.3478 23.9995 28.1739Z" fill="#6DA544"/>
<path d="M39.5766 13.1459C39.6258 12.8895 39.6519 12.625 39.6519 12.3543C39.6519 10.498 38.4399 8.92574 36.7645 8.3833C37.2764 9.42392 37.565 10.5943 37.565 11.8325C37.565 12.2501 37.5314 12.6598 37.4683 13.0596C37.2161 12.6534 36.8922 12.2823 36.4965 11.9674C35.0058 10.7812 32.9687 10.7498 31.4626 11.7487C32.6254 12.0026 33.7496 12.5187 34.744 13.3099C35.5225 13.9294 36.1516 14.7673 36.6333 15.5762L30.2607 17.5716C36.5215 18.6151 41.7389 14.4412 41.7389 14.4412C41.1608 13.2851 40.263 13.0901 39.5766 13.1459Z" fill="#FFDA44"/>
</g>
<defs>
<clipPath id="clip0">
<rect width="48" height="48" fill="white"/>
</clipPath>
</defs>
</svg>
