<svg width="48" height="48" viewBox="0 0 48 48" fill="none" xmlns="http://www.w3.org/2000/svg">
<path d="M24 48C37.2548 48 48 37.2548 48 24C48 10.7452 37.2548 0 24 0C10.7452 0 0 10.7452 0 24C0 37.2548 10.7452 48 24 48Z" fill="#FCFCFC"/>
<path d="M37.5656 20.8696C36.8351 20.8696 35.9307 20.8696 34.4351 20.8696C34.4351 26.6326 29.7632 31.3043 24.0004 31.3043C18.2373 31.3043 13.5656 26.6326 13.5656 20.8696C12.5569 20.8696 11.4438 20.8696 10.4352 20.8696C10.4352 27.0772 14.6049 32.311 20.2964 33.9228C19.6724 35.1082 19.7675 36.6006 20.6589 37.713C21.8296 36.7746 23.0417 35.8033 24.07 34.9794C25.0982 35.8034 26.3104 36.7747 27.4811 37.713C28.3812 36.5896 28.4698 35.0782 27.8251 33.8871C33.4543 32.2357 37.5656 27.0331 37.5656 20.8696Z" fill="#6DA544"/>
<path d="M15.6522 19.8261C15.6522 19.8261 15.6522 25.0435 20.8696 25.0435L21.913 26.0869H24C24 26.0869 25.0434 22.9565 27.1304 22.9565C27.1304 22.9565 27.1304 20.8696 29.2173 20.8696C31.3043 20.8696 32.3478 20.8696 32.3478 20.8696C32.3478 20.8696 31.3043 16.6956 36.5217 13.5652L34.4347 12.5218C34.4347 12.5218 27.1304 17.7392 21.913 16.6957V18.7827H19.826L18.7826 17.7393L15.6522 19.8261Z" fill="#FFDA44"/>
</svg>
