<svg width="48" height="48" viewBox="0 0 48 48" fill="none" xmlns="http://www.w3.org/2000/svg">
<g clip-path="url(#clip0)">
<path d="M1.49292 32.3478C4.88395 41.4869 13.681 48 24.0001 48C34.3193 48 43.1163 41.4869 46.5074 32.3478L24.0001 30.2609L1.49292 32.3478Z" fill="#FFDA44"/>
<path d="M24.0001 0C13.681 0 4.88395 6.513 1.49292 15.6522L24.0001 17.7391L46.5074 15.6521C43.1163 6.513 34.3193 0 24.0001 0Z" fill="black"/>
<path d="M1.49278 15.6522C0.528094 18.2522 0 21.0643 0 24C0 26.9357 0.528094 29.7478 1.49278 32.3478H46.5073C47.472 29.7478 48 26.9357 48 24C48 21.0643 47.472 18.2522 46.5072 15.6522H1.49278Z" fill="#D80027"/>
</g>
<defs>
<clipPath id="clip0">
<rect width="48" height="48" fill="white"/>
</clipPath>
</defs>
</svg>
