<svg width="48" height="48" viewBox="0 0 48 48" fill="none" xmlns="http://www.w3.org/2000/svg">
<g clip-path="url(#clip0)">
<path d="M21.9131 26.087C21.9131 26.087 7.04348 7.02609 7.02942 7.02947C11.3725 2.68631 17.3726 0 24 0C37.2548 0 48 10.7452 48 24L21.9131 26.087Z" fill="#338AF3"/>
<path d="M21.9131 24C21.9131 24 7.04348 40.9739 7.02942 40.9705C11.3725 45.3137 17.3726 48 24 48C37.2548 48 48 37.2548 48 24H21.9131Z" fill="#6DA544"/>
<path d="M7.02893 7.02942C-2.34363 16.402 -2.34363 31.598 7.02893 40.9707C10.902 37.0976 14.627 33.3726 23.9996 24L7.02893 7.02942Z" fill="#F0F0F0"/>
<path d="M9.71328 17.7391L11.2672 22.5218H16.2965L12.2279 25.478L13.7817 30.2609L9.71328 27.3049L5.64462 30.2609L7.19881 25.478L3.13025 22.5218H8.15919L9.71328 17.7391Z" fill="#D80027"/>
</g>
<defs>
<clipPath id="clip0">
<rect width="48" height="48" fill="white"/>
</clipPath>
</defs>
</svg>
