<svg width="48" height="48" viewBox="0 0 48 48" fill="none" xmlns="http://www.w3.org/2000/svg">
<path d="M24 48C37.2548 48 48 37.2548 48 24C48 10.7452 37.2548 0 24 0C10.7452 0 0 10.7452 0 24C0 37.2548 10.7452 48 24 48Z" fill="#F0F0F0"/>
<path d="M18.7826 20.8696H47.7967C46.2627 9.09394 36.1936 0 23.9998 0C22.2078 0 20.4625 0.198094 18.7825 0.570469V20.8696H18.7826Z" fill="#D80027"/>
<path d="M12.5217 20.8695V2.91815C5.93172 6.51384 1.21403 13.1092 0.203125 20.8696H12.5217V20.8695Z" fill="#D80027"/>
<path d="M12.5216 27.1304H0.203125C1.21403 34.8908 5.93172 41.4862 12.5217 45.0818L12.5216 27.1304Z" fill="#D80027"/>
<path d="M18.7825 27.1305V47.4296C20.4625 47.8019 22.2078 48 23.9998 48C36.1936 48 46.2627 38.9061 47.7967 27.1304H18.7825V27.1305Z" fill="#D80027"/>
</svg>
