<svg width="48" height="48" viewBox="0 0 48 48" fill="none" xmlns="http://www.w3.org/2000/svg">
<g clip-path="url(#clip0)">
<path d="M24 48C37.2548 48 48 37.2548 48 24C48 10.7452 37.2548 0 24 0C10.7452 0 0 10.7452 0 24C0 37.2548 10.7452 48 24 48Z" fill="#F0F0F0"/>
<path d="M28.6958 47.5394C38.1836 45.6572 45.6574 38.1833 47.5396 28.6956H28.6958V47.5394Z" fill="#496E2D"/>
<path d="M0.460571 28.6956C2.3426 38.1833 9.81654 45.6572 19.3043 47.5394V28.6956H0.460571Z" fill="#496E2D"/>
<path d="M47.5396 19.3043C45.6574 9.81663 38.1836 2.3427 28.6958 0.460571V19.3043H47.5396Z" fill="#496E2D"/>
<path d="M19.3043 0.460571C9.81654 2.3427 2.3426 9.81663 0.460571 19.3043H19.3043V0.460571Z" fill="#496E2D"/>
<path d="M22.4347 28.6956H19.3043V47.5394C20.3259 47.742 21.3709 47.8792 22.4347 47.9477V28.6956Z" fill="#FFDA44"/>
<path d="M22.4347 19.3043V0.0521851C21.3709 0.120623 20.3258 0.257966 19.3043 0.46056V19.3043H22.4347Z" fill="#FFDA44"/>
<path d="M25.5651 0.0522188C25.0474 0.01875 24.5258 0 23.9998 0C23.4738 0 22.9523 0.01875 22.4346 0.0522188V19.3044H25.565V0.0522188H25.5651Z" fill="black"/>
<path d="M22.4346 47.9478C22.9523 47.9812 23.4738 48 23.9998 48C24.5258 48 25.0474 47.9812 25.5651 47.9478V28.6956H22.4347V47.9478H22.4346Z" fill="black"/>
<path d="M19.3042 22.4348V19.3044H0.460499C0.257812 20.3261 0.120562 21.371 0.052124 22.4348H19.3042Z" fill="#FFDA44"/>
<path d="M28.6957 22.4348H47.948C47.8795 21.371 47.7422 20.3261 47.5396 19.3044H28.6958V22.4348H28.6957Z" fill="#FFDA44"/>
<path d="M28.6957 25.5653H47.948C47.9813 25.0477 48.0001 24.5261 48.0001 24.0001C48.0001 23.474 47.9813 22.9524 47.9479 22.4348H28.6957V25.5653Z" fill="black"/>
<path d="M0.0522188 22.4348C0.0188437 22.9524 0 23.474 0 24.0001C0 24.5261 0.0188437 25.0477 0.0522188 25.5653H19.3044V22.4349H0.0522188V22.4348Z" fill="black"/>
<path d="M24.0001 35.4784C30.3393 35.4784 35.4784 30.3393 35.4784 24.0001C35.4784 17.6608 30.3393 12.5218 24.0001 12.5218C17.6608 12.5218 12.5218 17.6608 12.5218 24.0001C12.5218 30.3393 17.6608 35.4784 24.0001 35.4784Z" fill="#D80027"/>
<path d="M26.6151 25.2806C25.7613 23.5731 24.6516 21.8425 24.6516 21.8425C24.6516 21.8425 24.6792 21.0545 24.6792 20.585C24.6792 19.8778 24.1058 19.3044 23.3985 19.3044C22.7285 19.3044 22.1795 19.8192 22.1235 20.4746C21.5967 20.509 21.1797 20.946 21.1797 21.4815C21.1797 21.8709 21.4003 22.2083 21.7232 22.3769C21.8837 22.0016 22.198 21.7085 22.5867 21.5749C22.65 21.6268 22.7181 21.6731 22.7907 21.7124L22.9548 21.7909C22.9548 21.7909 22.3465 23.5057 22.3465 24.4269C22.3465 27.0166 24.054 27.8153 24.054 27.8153V27.842L23.2002 28.6957H24.9077V26.9881L25.7615 27.8419C25.769 27.8259 27.3787 26.8079 26.6151 25.2806Z" fill="#496E2D"/>
<path d="M24.0002 14.6086L24.3887 15.8043H25.6459L24.6288 16.5434L25.0174 17.739L24.0002 17.0001L22.983 17.739L23.3716 16.5434L22.3545 15.8043H23.6117L24.0002 14.6086Z" fill="#496E2D"/>
<path d="M18.4799 16.4023L19.4969 17.1413L20.5141 16.4022L20.1256 17.598L21.1428 18.3369L19.8855 18.337L19.497 19.5327L19.1084 18.337L17.8513 18.3369L18.8684 17.5978L18.4799 16.4023Z" fill="#496E2D"/>
<path d="M15.0684 21.098H16.3255L16.714 19.9023L17.1025 21.098L18.3598 21.0979L17.3427 21.837L17.7313 23.0327L16.714 22.2937L15.697 23.0326L16.0854 21.8369L15.0684 21.098Z" fill="#496E2D"/>
<path d="M15.0684 26.902L16.0854 26.1631L15.6969 24.9673L16.714 25.7064L17.7312 24.9673L17.3427 26.163L18.3599 26.9021L17.1025 26.9022L16.714 28.0978L16.3255 26.902H15.0684Z" fill="#496E2D"/>
<path d="M18.4799 31.5976L18.8683 30.4021L17.8511 29.6631H19.1084L19.497 28.4673L19.8855 29.663H21.1428L20.1256 30.4021L20.5141 31.5977L19.4969 30.8587L18.4799 31.5976Z" fill="#496E2D"/>
<path d="M24.0002 33.3912L23.6117 32.1957H22.3545L23.3716 31.4566L22.983 30.2609L24.0002 30.9997L25.0173 30.2608L24.6288 31.4566L25.6459 32.1956L24.3887 32.1957L24.0002 33.3912Z" fill="#496E2D"/>
<path d="M29.5199 31.5976L28.5029 30.8587L27.4858 31.5978L27.8742 30.4021L26.8571 29.6631L28.1143 29.663L28.5027 28.4673L28.8914 29.6631H30.1486L29.1315 30.4021L29.5199 31.5976Z" fill="#496E2D"/>
<path d="M32.9316 26.902H31.6745L31.2859 28.0978L30.8974 26.9022H29.64L30.6572 26.1631L30.2686 24.9675L31.2859 25.7064L32.3029 24.9675L31.9146 26.1632L32.9316 26.902Z" fill="#496E2D"/>
<path d="M32.9316 21.098L31.9146 21.8369L32.303 23.0326L31.2859 22.2937L30.2687 23.0328L30.6572 21.837L29.64 21.0981L30.8974 21.0979L31.2858 19.9024L31.6745 21.098H32.9316Z" fill="#496E2D"/>
<path d="M29.5199 16.4023L29.1315 17.5979L30.1486 18.3369H28.8914L28.5029 19.5327L28.1143 18.337L26.8571 18.3371L27.8742 17.5979L27.4857 16.4024L28.5029 17.1412L29.5199 16.4023Z" fill="#496E2D"/>
</g>
<defs>
<clipPath id="clip0">
<rect width="48" height="48" fill="white"/>
</clipPath>
</defs>
</svg>
