<svg width="48" height="48" viewBox="0 0 48 48" fill="none" xmlns="http://www.w3.org/2000/svg">
<path d="M24 48C37.2548 48 48 37.2548 48 24C48 10.7452 37.2548 0 24 0C10.7452 0 0 10.7452 0 24C0 37.2548 10.7452 48 24 48Z" fill="#F0F0F0"/>
<path d="M0.826904 30.2609C3.04297 38.4831 9.51706 44.9573 17.7393 47.1733V30.2609H0.826904Z" fill="#D80027"/>
<path d="M17.7392 0.826782C9.51706 3.04275 3.04287 9.51694 0.826904 17.7391H17.7393V0.826782H17.7392Z" fill="#0052B4"/>
<path d="M47.1731 17.7391C44.9571 9.51694 38.4829 3.04275 30.2607 0.826782V17.7392H47.1731V17.7391Z" fill="#D80027"/>
<path d="M30.2607 47.1733C38.4829 44.9572 44.9571 38.4831 47.1731 30.2609H30.2607V47.1733Z" fill="#0052B4"/>
<path d="M30.2611 24C30.2611 27.4579 27.458 30.2609 24.0002 30.2609C20.5424 30.2609 17.7393 27.4579 17.7393 24C17.7393 20.5421 24.0002 17.7391 24.0002 17.7391C24.0002 17.7391 30.2611 20.5421 30.2611 24Z" fill="#496E2D"/>
<path d="M17.7393 24C17.7393 20.5421 20.5424 17.7391 24.0002 17.7391C27.458 17.7391 30.2611 20.5421 30.2611 24" fill="#0052B4"/>
<path d="M20.4782 20.8696V24.7826C20.4782 26.7276 22.0549 28.3043 23.9999 28.3043C25.945 28.3043 27.5216 26.7276 27.5216 24.7826V20.8696H20.4782Z" fill="#D80027"/>
</svg>
