<svg width="48" height="48" viewBox="0 0 48 48" fill="none" xmlns="http://www.w3.org/2000/svg">
<path d="M24 0C37.2547 0 48 10.7452 48 24C48 37.2547 37.2547 48 24 48C24 46.9566 20.8696 24 20.8696 24L24 0Z" fill="#F0F0F0"/>
<path d="M24 48C10.7452 48 0 37.2547 0 24C0 10.7452 10.7452 0 24 0" fill="#496E2D"/>
<path d="M29.1566 19.3965L27.1874 22.1101L23.9984 21.0759L25.9707 23.7871L24.0017 26.5007L27.1896 25.4628L29.1619 28.174L29.1599 24.8214L32.3478 23.7834L29.1588 22.7493L29.1566 19.3965Z" fill="#D80027"/>
<path d="M25.991 30.7826C22.2451 30.7826 19.2083 27.7459 19.2083 24C19.2083 20.2541 22.2451 17.2173 25.991 17.2173C27.1589 17.2173 28.2579 17.5127 29.2174 18.0326C27.7121 16.5606 25.6537 15.6521 23.3823 15.6521C18.7718 15.6521 15.0345 19.3895 15.0345 23.9999C15.0345 28.6102 18.7719 32.3477 23.3823 32.3477C25.6538 32.3477 27.7122 31.4391 29.2174 29.9672C28.2579 30.4873 27.1589 30.7826 25.991 30.7826Z" fill="#D80027"/>
</svg>
