<svg width="48" height="48" viewBox="0 0 48 48" fill="none" xmlns="http://www.w3.org/2000/svg">
<g clip-path="url(#clip0)">
<path d="M0 24C0 10.7452 10.7452 0 24 0C37.2547 0 48 10.7452 48 24L24 26.087L0 24Z" fill="#FFDA44"/>
<path d="M3.21167 36C7.36151 43.1734 15.1169 48 24.0002 48C32.8834 48 40.6388 43.1734 44.7887 36L24.0002 34.4348L3.21167 36Z" fill="#D80027"/>
<path d="M44.7885 36C46.8306 32.4699 48 28.3717 48 24H0C0 28.3717 1.16944 32.4699 3.2115 36H44.7885Z" fill="#0052B4"/>
<path d="M24 32.3478C28.6104 32.3478 32.3478 28.6103 32.3478 24C32.3478 19.3896 28.6104 15.6522 24 15.6522C19.3897 15.6522 15.6522 19.3896 15.6522 24C15.6522 28.6103 19.3897 32.3478 24 32.3478Z" fill="#FFDA44"/>
<path d="M23.9998 29.2173C21.1229 29.2173 18.7825 26.8768 18.7825 24V20.8696C18.7825 17.9927 21.123 15.6522 23.9998 15.6522C26.8766 15.6522 29.2172 17.9928 29.2172 20.8696V24C29.2172 26.8769 26.8767 29.2173 23.9998 29.2173Z" fill="#338AF3"/>
<path d="M32.3477 11.4783H26.0868C26.0868 10.3258 25.1524 9.39136 23.9998 9.39136C22.8473 9.39136 21.9129 10.3258 21.9129 11.4783H15.652C15.652 12.631 16.6559 13.5653 17.8084 13.5653H17.7389C17.7389 14.7179 18.6733 15.6523 19.8259 15.6523C19.8259 16.8049 20.7602 17.7392 21.9129 17.7392H26.0868C27.2395 17.7392 28.1738 16.8049 28.1738 15.6523C29.3264 15.6523 30.2607 14.7179 30.2607 13.5653H30.1913C31.3438 13.5653 32.3477 12.6309 32.3477 11.4783Z" fill="black"/>
</g>
<defs>
<clipPath id="clip0">
<rect width="48" height="48" fill="white"/>
</clipPath>
</defs>
</svg>
