<svg width="48" height="48" viewBox="0 0 48 48" fill="none" xmlns="http://www.w3.org/2000/svg">
<g clip-path="url(#clip0)">
<path d="M24 48C37.2548 48 48 37.2548 48 24C48 10.7452 37.2548 0 24 0C10.7452 0 0 10.7452 0 24C0 37.2548 10.7452 48 24 48Z" fill="#F0F0F0"/>
<path d="M24.0001 0C13.681 0 4.88395 6.513 1.49292 15.6522H46.5075C43.1163 6.513 34.3193 0 24.0001 0Z" fill="#D80027"/>
<path d="M24.0001 48C34.3193 48 43.1163 41.487 46.5074 32.3478H1.49292C4.88395 41.487 13.681 48 24.0001 48Z" fill="black"/>
<path d="M32.3477 21.3914H26.0868C26.0868 20.2388 25.1524 19.3044 23.9998 19.3044C22.8473 19.3044 21.9129 20.2388 21.9129 21.3914H15.652C15.652 22.544 16.6559 23.4783 17.8085 23.4783H17.7389C17.7389 24.631 18.6733 25.5653 19.8259 25.5653C19.8259 26.7179 20.7602 27.6523 21.9129 27.6523H26.0868C27.2395 27.6523 28.1738 26.7179 28.1738 25.5653C29.3264 25.5653 30.2607 24.631 30.2607 23.4783H30.1913C31.3438 23.4783 32.3477 22.544 32.3477 21.3914Z" fill="#FF9811"/>
</g>
<defs>
<clipPath id="clip0">
<rect width="48" height="48" fill="white"/>
</clipPath>
</defs>
</svg>
