<svg width="48" height="48" viewBox="0 0 48 48" fill="none" xmlns="http://www.w3.org/2000/svg">
<g clip-path="url(#clip0)">
<path d="M21.9126 21.913C21.9126 21.913 7.04299 40.974 7.02893 40.9705C11.372 45.3137 17.3721 48 23.9995 48C37.2543 48 47.9995 37.2547 47.9995 24L21.9126 21.913Z" fill="#338AF3"/>
<path d="M21.9126 24C21.9126 24 7.04299 7.02609 7.02893 7.02947C11.372 2.68631 17.3721 0 23.9995 0C37.2543 0 47.9995 10.7452 47.9995 24H21.9126Z" fill="#6DA544"/>
<path d="M7.02893 7.02939C-2.34363 16.4019 -2.34363 31.598 7.02893 40.9706C7.02828 40.9745 47.9996 24 47.9996 24L7.02893 7.02939Z" fill="#D80027"/>
<path d="M12.5213 14.087C7.91827 14.087 4.17352 17.8318 4.17352 22.4348V25.5652C4.17352 30.1682 7.91837 33.913 12.5213 33.913C17.1242 33.913 20.8691 30.1681 20.8691 25.5652V22.4348C20.8692 17.8318 17.1243 14.087 12.5213 14.087ZM17.7387 25.5653C17.7387 27.897 16.201 29.876 14.0865 30.5425V27.1305L16.3012 24.9158L14.0877 22.7022L14.0865 21.9144V20.8697H10.9561V24L8.7429 26.2132L10.9561 28.4263V30.5425C8.84162 29.8761 7.30393 27.8971 7.30393 25.5654V22.4349C7.30393 19.558 9.64449 17.2176 12.5213 17.2176C15.3981 17.2176 17.7387 19.5581 17.7387 22.4349V25.5653Z" fill="#FFDA44"/>
</g>
<defs>
<clipPath id="clip0">
<rect width="48" height="48" fill="white"/>
</clipPath>
</defs>
</svg>
