<svg width="48" height="48" viewBox="0 0 48 48" fill="none" xmlns="http://www.w3.org/2000/svg">
<path d="M0 23.9999C0 26.9356 0.528094 29.7478 1.49278 32.3477L24 34.4347L46.5072 32.3477C47.4719 29.7478 48 26.9356 48 23.9999C48 21.0643 47.4719 18.2521 46.5072 15.6522L24 13.5652L1.49278 15.6522C0.528094 18.2521 0 21.0643 0 23.9999Z" fill="#FFDA44"/>
<path d="M46.5065 15.6522C43.1154 6.51309 34.3184 0 23.9993 0C13.6801 0 4.88307 6.51309 1.49203 15.6522H46.5065Z" fill="#D80027"/>
<path d="M1.49203 32.3478C4.88307 41.4869 13.6801 48 23.9993 48C34.3184 48 43.1154 41.4869 46.5065 32.3478H1.49203Z" fill="#D80027"/>
</svg>
