<svg width="48" height="48" viewBox="0 0 48 48" fill="none" xmlns="http://www.w3.org/2000/svg">
<g clip-path="url(#clip0)">
<path d="M0 24C0 26.9359 0.528094 29.748 1.49287 32.348L24 34.4347L46.5071 32.3479C47.472 29.748 48 26.9358 48 24C48 21.1045 47.4871 18.3288 46.5474 15.7589L24 13.5652L1.45256 15.759C0.512906 18.3288 0 21.1045 0 24Z" fill="#FFDA44"/>
<path d="M24.0001 48C34.3193 48 43.1163 41.487 46.5074 32.3478H1.49292C4.88395 41.487 13.681 48 24.0001 48Z" fill="#D80027"/>
<path d="M24.0001 0C13.681 0 4.88395 6.513 1.49292 15.6522H46.5075C43.1163 6.513 34.3193 0 24.0001 0Z" fill="#6DA544"/>
<path d="M24.0001 35.4784C30.3393 35.4784 35.4784 30.3393 35.4784 24.0001C35.4784 17.6608 30.3393 12.5218 24.0001 12.5218C17.6608 12.5218 12.5218 17.6608 12.5218 24.0001C12.5218 30.3393 17.6608 35.4784 24.0001 35.4784Z" fill="#0052B4"/>
<path d="M23.9974 15.1116L26.0695 21.4887H32.7855L27.35 25.43L29.4384 31.826L23.9974 27.8659L18.5648 31.8187L20.6448 25.43L15.2143 21.4887H21.9254L23.9974 15.1116Z" fill="#FFDA44"/>
<path d="M32.2617 25.5871L25.6883 23.4511L29.7507 17.8599L28.0625 16.6331L23.9998 22.2247L19.9376 16.6332L18.2491 17.8598L22.3115 23.4515L15.7384 25.587L16.3832 27.572L22.9566 25.4363V32.3477H25.0435V25.4362L31.6166 27.572L32.2617 25.5871Z" fill="#FFDA44"/>
</g>
<defs>
<clipPath id="clip0">
<rect width="48" height="48" fill="white"/>
</clipPath>
</defs>
</svg>
