<svg width="48" height="48" viewBox="0 0 48 48" fill="none" xmlns="http://www.w3.org/2000/svg">
<path d="M48 24C48 37.2547 37.2547 48 24 48C10.7452 48 0 37.2547 0 24C0 24.0057 24 0.002625 24 0C37.2547 0 48 10.7452 48 24Z" fill="#338AF3"/>
<path d="M23.9999 11.4782V19.5729L15.6521 11.4782H23.9999Z" fill="#0052B4"/>
<path d="M12.5221 23.9999H19.5732L12.5221 14.6086L11.4786 21.913L12.5221 23.9999Z" fill="#0052B4"/>
<path d="M23.9354 24.0001H23.9996C23.9996 23.9785 23.9996 23.9575 23.9996 23.9359C23.9783 23.9573 23.9569 23.9787 23.9354 24.0001Z" fill="#F0F0F0"/>
<path d="M24 12.5217C24 8.29875 24 5.53172 24 0H23.996C10.743 0.00225 0 10.7465 0 24H12.5217V16.949L19.5728 24H23.936C23.9573 23.9786 23.9787 23.9573 24.0002 23.9358C24.0002 22.3189 24.0002 20.8762 24.0002 19.5729L16.9489 12.5217H24Z" fill="#F0F0F0"/>
<path d="M12.1424 3.1304C8.38871 5.26781 5.26814 8.38837 3.13074 12.142V24H9.39164V9.3915V9.39131H24.0003C24.0003 7.41665 24.0003 5.53546 24.0003 3.1304H12.1424Z" fill="#D80027"/>
<path d="M24.0005 21.0486L15.4737 12.5218H12.5223V12.5219L24.0003 23.9999H24.0005C24.0005 23.9999 24.0005 21.9649 24.0005 21.0486Z" fill="#D80027"/>
<path d="M27.1307 15.6522V23.9999C27.1307 29.5911 34.4351 31.3043 34.4351 31.3043C34.4351 31.3043 41.7394 29.5911 41.7394 23.9999V15.6522L34.4351 13.5652L27.1307 15.6522Z" fill="#F3F3F3"/>
<path d="M41.7394 15.6522V12.5218H27.1307V15.6522H33.3915V21.9132H27.1307V23.9999C27.1307 24 27.1307 24.0001 27.1307 24.0001L33.3915 24.0002V30.9843C34.0213 31.2071 34.4351 31.3044 34.4351 31.3044C34.4351 31.3044 34.8487 31.2072 35.4784 30.9843V24.0001H41.7394V23.9999V21.9131H35.4784V15.6521H41.7394V15.6522Z" fill="#D80027"/>
</svg>
