<svg width="48" height="48" viewBox="0 0 48 48" fill="none" xmlns="http://www.w3.org/2000/svg">
<path d="M24 48C37.2548 48 48 37.2548 48 24C48 10.7452 37.2548 0 24 0C10.7452 0 0 10.7452 0 24C0 37.2548 10.7452 48 24 48Z" fill="#F0F0F0"/>
<path d="M46.9566 24L47.7966 20.8696C47.6571 19.8026 47.4478 18.7575 47.1734 17.7392H21.9131V0.0913086C20.8481 0.182996 19.8033 0.34509 18.7827 0.571402L14.6088 3.1304L12.5218 2.91975C11.4235 3.519 10.3772 4.2015 9.3914 4.9589V17.7391H0.826863C0.552457 18.7574 0.343207 19.8025 0.203707 20.8695L1.04352 24L0.203613 27.1304C0.343113 28.1974 0.552363 29.2425 0.82677 30.2608H9.3913V43.041C10.3771 43.7985 11.4235 44.4809 12.5217 45.0802L15.6521 44.8695L18.7825 47.4285C19.8032 47.6547 20.848 47.8168 21.9129 47.9086V30.2609H47.1731C47.4475 29.2426 47.6568 28.1975 47.7963 27.1305L46.9566 24Z" fill="#0052B4"/>
<path d="M47.7968 20.8696H18.7827H18.7826V0.570435C16.5647 1.06225 14.462 1.8594 12.5217 2.91812V20.8695H0.203156C0.06975 21.8942 0 22.939 0 24C0 25.0609 0.06975 26.1057 0.203156 27.1304H12.5216H12.5217V45.0817C14.462 46.1403 16.5647 46.9377 18.7826 47.4294V27.1307V27.1305H47.7968C47.9303 26.1057 48 25.0609 48 24C48 22.939 47.9303 21.8942 47.7968 20.8696Z" fill="#D80027"/>
</svg>
