<svg width="48" height="48" viewBox="0 0 48 48" fill="none" xmlns="http://www.w3.org/2000/svg">
<path d="M24 48C37.2548 48 48 37.2548 48 24C48 10.7452 37.2548 0 24 0C10.7452 0 0 10.7452 0 24C0 37.2548 10.7452 48 24 48Z" fill="#F0F0F0"/>
<path d="M4.96186 9.38831C3.07664 11.8411 1.65511 14.6681 0.827393 17.7393H13.3128L4.96186 9.38831Z" fill="#0052B4"/>
<path d="M47.1742 17.7393C46.3465 14.6682 44.9249 11.8412 43.0397 9.38843L34.689 17.7393H47.1742Z" fill="#0052B4"/>
<path d="M0.827393 30.261C1.65521 33.3321 3.07674 36.1591 4.96186 38.6118L13.3125 30.261H0.827393Z" fill="#0052B4"/>
<path d="M38.6124 4.96134C36.1596 3.07613 33.3327 1.65459 30.2615 0.826782V13.3121L38.6124 4.96134Z" fill="#0052B4"/>
<path d="M9.38959 43.0386C11.8424 44.9238 14.6694 46.3454 17.7405 47.1732V34.6879L9.38959 43.0386Z" fill="#0052B4"/>
<path d="M17.7404 0.826782C14.6693 1.65459 11.8423 3.07613 9.38959 4.96125L17.7404 13.312V0.826782Z" fill="#0052B4"/>
<path d="M30.2607 47.1732C33.3318 46.3454 36.1588 44.9238 38.6115 43.0387L30.2607 34.6879V47.1732Z" fill="#0052B4"/>
<path d="M34.689 30.261L43.0397 38.6119C44.9249 36.1592 46.3465 33.3321 47.1742 30.261H34.689Z" fill="#0052B4"/>
<path d="M47.7968 20.8696H27.1306H27.1305V0.203156C26.1057 0.06975 25.061 0 24 0C22.9388 0 21.8943 0.06975 20.8696 0.203156V20.8694V20.8695H0.203156C0.06975 21.8943 0 22.939 0 24C0 25.0612 0.06975 26.1057 0.203156 27.1304H20.8694H20.8695V47.7968C21.8943 47.9303 22.9388 48 24 48C25.061 48 26.1057 47.9303 27.1304 47.7968V27.1306V27.1305H47.7968C47.9303 26.1057 48 25.0612 48 24C48 22.939 47.9303 21.8943 47.7968 20.8696Z" fill="#D80027"/>
<path d="M30.2607 30.261L40.9704 40.9706C41.4629 40.4783 41.9328 39.9635 42.3811 39.4299L33.2122 30.2609H30.2607V30.261Z" fill="#D80027"/>
<path d="M17.7386 30.261H17.7385L7.02893 40.9706C7.52131 41.4631 8.03609 41.933 8.56971 42.3813L17.7386 33.2122V30.261Z" fill="#D80027"/>
<path d="M17.7385 17.7393V17.7391L7.02891 7.02942C6.53635 7.52179 6.06648 8.03658 5.61816 8.5702L14.7872 17.7392H17.7385V17.7393Z" fill="#D80027"/>
<path d="M30.2607 17.7392L40.9705 7.02943C40.4781 6.53687 39.9633 6.06699 39.4297 5.61877L30.2607 14.7878V17.7392Z" fill="#D80027"/>
</svg>
