<svg width="48" height="48" viewBox="0 0 48 48" fill="none" xmlns="http://www.w3.org/2000/svg">
<g clip-path="url(#clip0)">
<path d="M24 48C37.2548 48 48 37.2548 48 24C48 10.7452 37.2548 0 24 0C10.7452 0 0 10.7452 0 24C0 37.2548 10.7452 48 24 48Z" fill="#FFDA44"/>
<path d="M10.4732 4.17394C14.3249 1.54087 18.9822 0 24.0001 0C29.018 0 33.6753 1.54087 37.527 4.17394L24.0001 5.21737L10.4732 4.17394Z" fill="#A2001D"/>
<path d="M23.9998 24L22.4681 22.4683L22.0614 23.1969L23.9998 24Z" fill="#0052B4"/>
<path d="M7.02893 7.02939C-2.34363 16.4019 -2.34363 31.598 7.02893 40.9706C10.902 37.0975 14.627 33.3726 23.9996 24L7.02893 7.02939Z" fill="#496E2D"/>
<path d="M40.9706 7.02939C50.3432 16.4019 50.3432 31.598 40.9706 40.9706C37.0975 37.0975 33.3726 33.3726 24 24L40.9706 7.02939Z" fill="#496E2D"/>
<path d="M24 32.3478C28.6104 32.3478 32.3478 28.6103 32.3478 24C32.3478 19.3896 28.6104 15.6522 24 15.6522C19.3897 15.6522 15.6522 19.3896 15.6522 24C15.6522 28.6103 19.3897 32.3478 24 32.3478Z" fill="#A2001D"/>
<path d="M23.9996 15.6522L25.8708 21.4112H31.9268L27.0276 24.9711L28.8988 30.7304L23.9996 27.1711L19.1002 30.7304L20.9718 24.9711L16.0726 21.4112H22.1283L23.9996 15.6522Z" fill="#FFDA44"/>
<path d="M23.9999 0C23.9972 0 23.9946 0.0001875 23.9919 0.0001875H24.0079C24.0053 0.0001875 24.0027 0 23.9999 0Z" fill="#FFDA44"/>
<path d="M24.008 0H23.9919C17.3682 0.00215625 11.3719 2.68744 7.03058 7.02825H40.9693C36.6279 2.68744 30.6316 0.00215625 24.008 0Z" fill="#A2001D"/>
<path d="M7.03156 40.9719C11.3746 45.3143 17.3741 48 24.0008 48C30.6275 48 36.6269 45.3143 40.97 40.9719H7.03156Z" fill="#A2001D"/>
<path d="M23.9997 2.6087L24.3883 3.80439H25.6455L24.6284 4.54342L25.017 5.73911L23.9997 5.00017L22.9826 5.73911L23.3712 4.54342L22.3539 3.80439H23.6111L23.9997 2.6087Z" fill="#FFDA44"/>
<path d="M18.1801 2.6087L18.5687 3.80439H19.8259L18.8088 4.54342L19.1974 5.73911L18.1801 5.00017L17.1631 5.73911L17.5516 4.54342L16.5344 3.80439H17.7916L18.1801 2.6087Z" fill="#FFDA44"/>
<path d="M29.8193 2.6087L30.2079 3.80439H31.4651L30.448 4.54342L30.8366 5.73911L29.8193 5.00017L28.8022 5.73911L29.1908 4.54342L28.1735 3.80439H29.4307L29.8193 2.6087Z" fill="#FFDA44"/>
<path d="M23.9997 42.261L24.3883 43.4566H25.6455L24.6284 44.1957L25.017 45.3914L23.9997 44.6523L22.9826 45.3914L23.3712 44.1957L22.3539 43.4566H23.6111L23.9997 42.261Z" fill="#FFDA44"/>
<path d="M18.1801 42.261L18.5687 43.4566H19.8259L18.8088 44.1957L19.1974 45.3914L18.1801 44.6523L17.1631 45.3914L17.5516 44.1957L16.5344 43.4566H17.7916L18.1801 42.261Z" fill="#FFDA44"/>
<path d="M29.8193 42.261L30.2079 43.4566H31.4651L30.448 44.1957L30.8366 45.3914L29.8193 44.6523L28.8022 45.3914L29.1908 44.1957L28.1735 43.4566H29.4307L29.8193 42.261Z" fill="#FFDA44"/>
<path d="M7.31278 23.6037C7.92919 24.5776 7.6395 25.8668 6.66553 26.4833C5.69166 27.0998 4.40241 26.8101 3.78591 25.8361C2.66981 24.0729 3.31697 21.1932 3.31697 21.1932C3.31697 21.1932 6.19659 21.8403 7.31278 23.6037Z" fill="#FFDA44"/>
<path d="M6.10777 26.6452C6.68404 26.6452 7.15121 26.178 7.15121 25.6018C7.15121 25.0255 6.68404 24.5583 6.10777 24.5583C5.53149 24.5583 5.06433 25.0255 5.06433 25.6018C5.06433 26.178 5.53149 26.6452 6.10777 26.6452Z" fill="#A2001D"/>
</g>
<defs>
<clipPath id="clip0">
<rect width="48" height="48" fill="white"/>
</clipPath>
</defs>
</svg>
