<svg width="48" height="48" viewBox="0 0 48 48" fill="none" xmlns="http://www.w3.org/2000/svg">
<path d="M24 48C37.2548 48 48 37.2548 48 24C48 10.7452 37.2548 0 24 0C10.7452 0 0 10.7452 0 24C0 37.2548 10.7452 48 24 48Z" fill="#F0F0F0"/>
<path d="M47.7968 20.8696H27.1306H27.1305V0.203156C26.1057 0.06975 25.061 0 24 0C22.939 0 21.8943 0.06975 20.8696 0.203156V20.8696H0.203156C0.06975 21.8943 0 22.939 0 24C0 25.061 0.06975 26.1057 0.203156 27.1304H20.8694H20.8695V47.7968C21.8943 47.9303 22.939 48 24 48C25.061 48 26.1057 47.9303 27.1304 47.7968V27.1307V27.1305H47.7968C47.9303 26.1057 48 25.061 48 24C48 22.939 47.9303 21.8943 47.7968 20.8696Z" fill="#D80027"/>
<path d="M30.7826 25.0434L32.3478 26.0869V21.913L30.7826 22.9565H25.0434V17.2173L26.0869 15.6522H21.913L22.9565 17.2173V22.9565H17.2173L15.6522 21.913V26.0869L17.2173 25.0434H22.9565V30.7826L21.913 32.3478H26.0869L25.0434 30.7826V25.0434H30.7826Z" fill="#FFDA44"/>
</svg>
