<svg width="48" height="48" viewBox="0 0 48 48" fill="none" xmlns="http://www.w3.org/2000/svg">
<g clip-path="url(#clip0)">
<path d="M0 23.9999C0 26.9356 0.528094 29.7478 1.49278 32.3477L24 33.3913L46.5072 32.3478C47.472 29.7478 48 26.9356 48 23.9999C48 21.0643 47.472 18.2521 46.5072 15.6522L24 14.6086L1.49278 15.6521C0.528094 18.2521 0 21.0643 0 23.9999Z" fill="#FFDA44"/>
<path d="M23.9992 0C13.6801 0 4.88304 6.513 1.492 15.6522H46.5065C43.1154 6.513 34.3184 0 23.9992 0Z" fill="#D80027"/>
<path d="M46.5064 32.3478H1.492C4.88304 41.4869 13.6801 48 23.9992 48C34.3184 48 43.1154 41.4869 46.5064 32.3478Z" fill="#496E2D"/>
<path d="M24.0006 15.6522L26.0725 22.0291H32.7783L27.3536 25.9706L29.4255 32.3478L24.0006 28.4065L18.5758 32.3478L20.648 25.9706L15.2234 22.0291H21.9288L24.0006 15.6522Z" fill="black"/>
</g>
<defs>
<clipPath id="clip0">
<rect width="48" height="48" fill="white"/>
</clipPath>
</defs>
</svg>
