<svg width="48" height="48" viewBox="0 0 48 48" fill="none" xmlns="http://www.w3.org/2000/svg">
<path d="M24 48C37.2548 48 48 37.2548 48 24C48 10.7452 37.2548 0 24 0C10.7452 0 0 10.7452 0 24C0 37.2548 10.7452 48 24 48Z" fill="#F9F9F9"/>
<path d="M24.0001 48C34.3192 48 43.1163 41.487 46.5072 32.3478H1.4928C4.88392 41.487 13.6809 48 24.0001 48Z" fill="#D80027"/>
<path d="M33.3918 19.8261V16.6957H34.4352V14.6087H32.3483V15.6522H30.2614V14.6087H28.1744V16.6957H29.2179V19.8261H27.1309V12.5219H28.1744V10.435H26.0875V11.4783H25.0439V10.435H22.9571V11.4783H21.9135V10.435H19.8266V12.5219H20.8701V19.8261H18.7831V16.6957H19.8266V14.6087H17.7396V15.6522H15.6527V14.6087H13.5657V16.6957H14.6092V19.8261H12.5222V28.1739H35.4788V19.8261H33.3918Z" fill="#D80027"/>
<path d="M24.0004 27.1304C22.2716 27.1304 20.87 28.532 20.87 30.2608C20.87 31.6236 21.7413 32.7827 22.957 33.2124V37.5652H19.8266V41.7392H25.044V33.2125C26.2596 32.7828 27.1309 31.6237 27.1309 30.2609C27.1308 28.5321 25.7293 27.1304 24.0004 27.1304ZM24.0004 31.3043C23.4242 31.3043 22.957 30.8371 22.957 30.2609C22.957 29.6846 23.4242 29.2175 24.0004 29.2175C24.5767 29.2175 25.0439 29.6846 25.0439 30.2609C25.0439 30.8371 24.5767 31.3043 24.0004 31.3043Z" fill="#FFDA44"/>
</svg>
