<svg width="48" height="48" viewBox="0 0 48 48" fill="none" xmlns="http://www.w3.org/2000/svg">
<path d="M0 24C0 10.7452 10.7452 0 24 0C37.2547 0 48 10.7452 48 24C46.9566 24 24 27.1304 24 27.1304L0 24Z" fill="#F0F0F0"/>
<path d="M48 24C48 37.2548 37.2547 48 24 48C10.7452 48 0 37.2548 0 24" fill="#D80027"/>
<path d="M16.6953 35.4784C23.0346 35.4784 28.1736 30.3393 28.1736 24.0001C28.1736 17.6608 23.0346 12.5218 16.6953 12.5218C10.356 12.5218 5.21704 17.6608 5.21704 24.0001C5.21704 30.3393 10.356 35.4784 16.6953 35.4784Z" fill="#F0F0F0"/>
<path d="M5.21704 24.0001C5.21704 17.661 10.356 12.5218 16.6953 12.5218C23.0347 12.5218 28.1736 17.6609 28.1736 24.0001" fill="#D80027"/>
</svg>
