<svg width="48" height="48" viewBox="0 0 48 48" fill="none" xmlns="http://www.w3.org/2000/svg">
<path d="M24 48C37.2548 48 48 37.2548 48 24C48 10.7452 37.2548 0 24 0C10.7452 0 0 10.7452 0 24C0 37.2548 10.7452 48 24 48Z" fill="#F0F0F0"/>
<path d="M24.0003 0C14.0783 0 5.56318 6.02119 1.90796 14.6087H46.0928C42.4376 6.02119 33.9224 0 24.0003 0Z" fill="#A2001D"/>
<path d="M24.0003 48C33.9224 48 42.4376 41.9788 46.0927 33.3913H1.90796C5.56318 41.9788 14.0783 48 24.0003 48Z" fill="#496E2D"/>
<path d="M47.1732 17.739H0.826781C0.28875 19.7353 0 21.8337 0 24C0 26.1662 0.28875 28.2646 0.826781 30.2609H47.1733C47.7113 28.2646 48 26.1662 48 24C48 21.8337 47.7113 19.7353 47.1732 17.739Z" fill="#0052B4"/>
</svg>
