<svg width="48" height="48" viewBox="0 0 48 48" fill="none" xmlns="http://www.w3.org/2000/svg">
<g clip-path="url(#clip0)">
<path d="M32.3479 1.49287C29.7479 0.528094 26.9357 0 23.9999 0C21.0643 0 18.2522 0.528094 15.6523 1.49269L14.6088 24L15.6522 46.5073C18.2522 47.472 21.0643 48 23.9999 48C26.9358 48 29.7479 47.472 32.3479 46.5071L33.3914 24L32.3479 1.49287Z" fill="#FFDA44"/>
<path d="M0 24C0 34.3191 6.513 43.1162 15.6522 46.5071V1.49268C6.513 4.8838 0 13.6807 0 24Z" fill="#D80027"/>
<path d="M48 24C48 13.6807 41.487 4.8838 32.3478 1.49268V46.5072C41.487 43.1162 48 34.319 48 24Z" fill="#6DA544"/>
</g>
<defs>
<clipPath id="clip0">
<rect width="48" height="48" fill="white"/>
</clipPath>
</defs>
</svg>
