<svg width="48" height="48" viewBox="0 0 48 48" fill="none" xmlns="http://www.w3.org/2000/svg">
<g clip-path="url(#clip0)">
<path d="M24 48C37.2548 48 48 37.2548 48 24C48 10.7452 37.2548 0 24 0C10.7452 0 0 10.7452 0 24C0 37.2548 10.7452 48 24 48Z" fill="#F0F0F0"/>
<path d="M14.6089 15.6522H46.5073C43.1164 6.513 34.3192 0 24.0002 0C17.3726 0 11.3733 2.68678 7.0304 7.03022L14.6089 15.6522Z" fill="#6DA544"/>
<path d="M14.6089 32.3478H46.5073C43.1164 41.487 34.3192 48 24.0002 48C17.3726 48 11.3733 45.3132 7.0304 40.9698L14.6089 32.3478Z" fill="#D80027"/>
<path d="M7.02893 7.02939C-2.34363 16.4019 -2.34363 31.598 7.02893 40.9706C10.902 37.0975 14.627 33.3726 23.9996 24L7.02893 7.02939Z" fill="#0052B4"/>
<path d="M28.174 19.826V25.0434C28.174 28.2384 32.3479 29.2175 32.3479 29.2175C32.3479 29.2175 36.5218 28.2384 36.5218 25.0434V19.826H28.174Z" fill="#DEDDE0"/>
<path d="M33.3912 24.1043H31.3043V27.1304H33.3912V24.1043Z" fill="#786145"/>
<path d="M34.4349 22.9565C34.4349 21.8039 33.5006 20.8696 32.3479 20.8696C31.1953 20.8696 30.261 21.8039 30.261 22.9565C29.6847 22.9565 29.2175 23.4237 29.2175 24C29.2175 24.5763 29.6847 25.0434 30.261 25.0434C30.6032 25.0434 34.0927 25.0434 34.4349 25.0434C35.0112 25.0434 35.4783 24.5763 35.4783 24C35.4783 23.4237 35.0113 22.9565 34.4349 22.9565Z" fill="#6DA544"/>
</g>
<defs>
<clipPath id="clip0">
<rect width="48" height="48" fill="white"/>
</clipPath>
</defs>
</svg>
