<svg width="48" height="48" viewBox="0 0 48 48" fill="none" xmlns="http://www.w3.org/2000/svg">
<path d="M24 48C37.2548 48 48 37.2548 48 24C48 10.7452 37.2548 0 24 0C10.7452 0 0 10.7452 0 24C0 37.2548 10.7452 48 24 48Z" fill="#F0F0F0"/>
<path d="M24 17.7391H47.1732C46.5714 15.5066 45.6568 13.4027 44.4774 11.4782H24V17.7391Z" fill="#338AF3"/>
<path d="M9.06006 42.7827H38.9394C41.1297 41.0382 43.0081 38.9193 44.4771 36.5218H3.52234C4.9915 38.9192 6.86987 41.0382 9.06006 42.7827Z" fill="#338AF3"/>
<path d="M8.34756 5.80676C6.46075 7.43154 4.82959 9.34489 3.52234 11.4783H8.34756V5.80676Z" fill="#338AF3"/>
<path d="M24 24C24 21.5553 24 19.5094 24 17.739H14.6087V24H8.34778V17.739H0.826781C0.28875 19.7354 0 21.8337 0 24C0 26.1662 0.28875 28.2646 0.826781 30.2609H47.1733C47.7113 28.2646 48 26.1662 48 24H24Z" fill="#338AF3"/>
<path d="M23.9998 0C20.6671 0 17.4932 0.679969 14.6085 1.90762V11.4783H23.9998C23.9998 9.29278 23.9998 7.434 23.9998 5.21737H38.9396C34.8398 1.95225 29.6482 0 23.9998 0Z" fill="#338AF3"/>
</svg>
