<svg width="48" height="48" viewBox="0 0 48 48" fill="none" xmlns="http://www.w3.org/2000/svg">
<g clip-path="url(#clip0)">
<path d="M24 48C37.2548 48 48 37.2548 48 24C48 10.7452 37.2548 0 24 0C10.7452 0 0 10.7452 0 24C0 37.2548 10.7452 48 24 48Z" fill="#F0F0F0"/>
<path d="M48.0002 24C48.0002 14.485 42.4629 6.26347 34.435 2.38147V45.6185C42.4629 41.7366 48.0002 33.515 48.0002 24Z" fill="#338AF3"/>
<path d="M0 24C0 33.515 5.53734 41.7366 13.5653 45.6186V2.38147C5.53734 6.26347 0 14.485 0 24Z" fill="#338AF3"/>
<path d="M30.2721 28.0582L26.214 24.0001L30.0768 20.1372L29.9017 18.097L28.7959 16.9909L24.0004 21.7864L19.2049 16.9909L18.099 18.097L17.924 20.1372L21.7867 24.0001L17.7286 28.0582L19.9422 30.2716L24.0004 26.2137L28.0585 30.2716L30.2721 28.0582Z" fill="#ACABB1"/>
<path d="M29.9028 18.0972L27.6892 20.3108C28.6334 21.2549 29.2174 22.5593 29.2174 24C29.2174 26.8815 26.8815 29.2174 24.0001 29.2174C21.1187 29.2174 18.7826 26.8815 18.7826 24C18.7826 22.5593 19.3667 21.2549 20.3108 20.3108L18.0973 18.0972C16.5865 19.6077 15.6522 21.6947 15.6522 24C15.6522 28.6105 19.3896 32.3478 24 32.3478C28.6103 32.3478 32.3478 28.6104 32.3478 24C32.3478 21.6948 31.4134 19.6078 29.9028 18.0972Z" fill="#6DA544"/>
</g>
<defs>
<clipPath id="clip0">
<rect width="48" height="48" fill="white"/>
</clipPath>
</defs>
</svg>
