<svg width="48" height="48" viewBox="0 0 48 48" fill="none" xmlns="http://www.w3.org/2000/svg">
<path d="M10.4732 43.8261C14.3248 46.459 18.9823 48 24.0001 48C29.0179 48 33.6753 46.459 37.527 43.8261L24.0001 41.7391L10.4732 43.8261Z" fill="#D80027"/>
<path d="M37.527 4.17394C33.6753 1.54097 29.0179 0 24.0001 0C18.9823 0 14.3248 1.54097 10.4732 4.17394L24.0001 6.26091L37.527 4.17394Z" fill="#D80027"/>
<path d="M48 24C48 16.0584 43.2454 8.08314 37.5269 4.17395H10.4731C4.15031 8.4962 0 15.7631 0 24C0 32.2372 4.15031 39.5038 10.4731 43.8261H37.5269C43.8498 39.5038 48 32.2372 48 24Z" fill="#0052B4"/>
<path d="M22.6417 39.1497C22.3137 38.8685 14.6085 32.1702 14.6085 24C14.6085 15.8298 22.3136 9.13144 22.6417 8.85028L23.9998 7.6861L25.358 8.85019C25.6859 9.13144 33.3911 15.8297 33.3911 24C33.3911 32.1703 25.686 38.8687 25.358 39.1497L23.9998 40.3139L22.6417 39.1497Z" fill="#D80027"/>
<path d="M31.3035 24C31.3035 16.6957 23.9992 10.4348 23.9992 10.4348C23.9992 10.4348 16.6948 16.6959 16.6948 24C16.6948 26.2346 17.3789 28.371 18.3279 30.2609H29.6705C30.6194 28.371 31.3035 26.2346 31.3035 24Z" fill="#338AF3"/>
<path d="M31.3035 24C31.3035 26.2345 30.6194 28.371 29.6705 30.2609L23.9992 31.3043L18.3279 30.2609C17.3789 28.3711 16.6948 26.2345 16.6948 24H31.3035Z" fill="#0052B4"/>
<path d="M24.0001 37.5653C24.0001 37.5653 27.5184 34.5487 29.6714 30.2609H18.3288C20.4819 34.5487 24.0001 37.5653 24.0001 37.5653Z" fill="#FFDA44"/>
<path d="M19.3051 19.826H28.6965L24.0008 24.5217L19.3051 19.826Z" fill="#6DA544"/>
<path d="M25.5646 22.9566H22.4341V32.3479H25.5646V22.9566Z" fill="#A2001D"/>
</svg>
