<svg width="48" height="48" viewBox="0 0 48 48" fill="none" xmlns="http://www.w3.org/2000/svg">
<path d="M24 0C21.8338 0 19.7353 0.28875 17.7391 0.826781L15.6522 24L17.7392 47.1732C19.7353 47.7113 21.8338 48 24 48C37.2547 48 48 37.2547 48 24C48 10.7452 37.2547 0 24 0Z" fill="#FFDA44"/>
<path d="M15.6522 24L17.7392 47.1732C19.7353 47.7113 21.8338 48 24 48C37.2547 48 48 37.2548 48 24H15.6522Z" fill="#6DA544"/>
<path d="M0 24.0001C0 33.0971 5.06156 41.0115 12.5217 45.0819V2.91821C5.06156 6.98865 0 14.903 0 24.0001Z" fill="#D80027"/>
<path d="M0 24C0 35.0887 7.52072 44.4193 17.7391 47.1733V0.826813C7.52072 3.58081 0 12.9114 0 24Z" fill="#D80027"/>
<path d="M9.06936 17.739L10.6233 22.5218H15.6526L11.584 25.4779L13.1378 30.2609L9.06936 27.3048L5.0007 30.2609L6.55489 25.4779L2.48633 22.5218H7.51536L9.06936 17.739Z" fill="black"/>
</svg>
