<svg width="48" height="48" viewBox="0 0 48 48" fill="none" xmlns="http://www.w3.org/2000/svg">
<g clip-path="url(#clip0)">
<path d="M24 48C37.2548 48 48 37.2548 48 24C48 10.7452 37.2548 0 24 0C10.7452 0 0 10.7452 0 24C0 37.2548 10.7452 48 24 48Z" fill="#F0F0F0"/>
<path d="M23.9992 0C19.756 0 15.7709 1.10269 12.3123 3.03488V44.9651C15.771 46.8973 19.756 48 23.9992 48C37.254 48 47.9992 37.2547 47.9992 24C47.9992 10.7452 37.254 0 23.9992 0Z" fill="#6DA544"/>
<path d="M12.3836 2.99542C10.8738 3.83214 9.46398 4.82664 8.17595 5.95727C8.30617 5.84308 8.4377 5.7302 8.57026 5.61883L26.9514 24L8.57017 42.3812C8.43751 42.2698 8.30608 42.157 8.17586 42.0428C9.46389 43.1734 10.8738 44.1678 12.3835 45.0046L48 24L12.3836 2.99542Z" fill="#F0F0F0"/>
<path d="M10.3561 4.25455C9.62417 4.76136 8.92123 5.3067 8.25139 5.88955L23.9995 24L8.2513 42.1104C8.92114 42.6933 9.62408 43.2387 10.356 43.7454L43.8912 24L10.3561 4.25455Z" fill="#FFDA44"/>
<path d="M8.56974 5.6188C8.03621 6.06712 7.52134 6.53709 7.02896 7.02937L21.9126 24L7.02896 40.9706C7.52134 41.463 8.03612 41.9331 8.56974 42.3812L26.9509 24L8.56974 5.6188Z" fill="black"/>
<path d="M7.02893 7.02939C-2.34363 16.4019 -2.34363 31.598 7.02893 40.9706C10.902 37.0975 14.627 33.3726 23.9996 24L7.02893 7.02939Z" fill="#D80027"/>
</g>
<defs>
<clipPath id="clip0">
<rect width="48" height="48" fill="white"/>
</clipPath>
</defs>
</svg>
