<svg width="48" height="48" viewBox="0 0 48 48" fill="none" xmlns="http://www.w3.org/2000/svg">
<path d="M24 48C37.2548 48 48 37.2548 48 24C48 10.7452 37.2548 0 24 0C10.7452 0 0 10.7452 0 24C0 37.2548 10.7452 48 24 48Z" fill="#F0F0F0"/>
<path d="M23.9997 48C33.5146 48 41.7362 42.4627 45.6182 34.4348H2.3811C6.2631 42.4627 14.4846 48 23.9997 48Z" fill="#338AF3"/>
<path d="M23.9997 0C14.4846 0 6.2631 5.53734 2.3811 13.5653H45.6181C41.7362 5.53734 33.5146 0 23.9997 0Z" fill="#338AF3"/>
<path d="M14.7693 15.6522L15.5463 18.0437H18.0608L16.0266 19.5215L16.8037 21.913L14.7693 20.435L12.735 21.913L13.5121 19.5215L11.4778 18.0437H13.9923L14.7693 15.6522Z" fill="#338AF3"/>
<path d="M14.7693 26.087L15.5463 28.4785H18.0608L16.0266 29.9564L16.8037 32.3478L14.7693 30.8698L12.735 32.3478L13.5121 29.9564L11.4778 28.4785H13.9923L14.7693 26.087Z" fill="#338AF3"/>
<path d="M33.2295 15.6522L34.0066 18.0437H36.5211L34.4868 19.5215L35.2639 21.913L33.2295 20.435L31.1952 21.913L31.9723 19.5215L29.938 18.0437H32.4526L33.2295 15.6522Z" fill="#338AF3"/>
<path d="M33.2295 26.087L34.0066 28.4785H36.5211L34.4868 29.9564L35.2639 32.3478L33.2295 30.8698L31.1952 32.3478L31.9723 29.9564L29.938 28.4785H32.4526L33.2295 26.087Z" fill="#338AF3"/>
<path d="M23.9995 20.8696L24.7766 23.2611H27.291L25.2567 24.739L26.0338 27.1304L23.9995 25.6524L21.9651 27.1304L22.7422 24.739L20.7079 23.2611H23.2224L23.9995 20.8696Z" fill="#338AF3"/>
</svg>
