<svg width="48" height="48" viewBox="0 0 48 48" fill="none" xmlns="http://www.w3.org/2000/svg">
<g clip-path="url(#clip0)">
<path d="M48 23.9999C48 21.0643 47.4719 18.252 46.5072 15.6522L24 14.6086L1.49278 15.6521C0.528094 18.252 0 21.0643 0 23.9999C0 26.9356 0.528094 29.7479 1.49278 32.3477L24 33.3913L46.5072 32.3478C47.4719 29.7479 48 26.9356 48 23.9999Z" fill="#F0F0F0"/>
<path d="M24.0001 48C34.3193 48 43.1163 41.487 46.5074 32.3478H1.49292C4.88395 41.487 13.681 48 24.0001 48Z" fill="#0052B4"/>
<path d="M1.49292 15.6522H46.5074C43.1163 6.513 34.3193 0 24.0001 0C13.681 0 4.88395 6.513 1.49292 15.6522Z" fill="#D80027"/>
<path d="M30.2607 16.6958H26.0867L26.7825 11.4783L29.565 9.39136L32.3476 11.4783V15.6523L30.2607 16.6958Z" fill="#338AF3"/>
<path d="M17.7391 16.6958H21.913L21.2173 11.4783L18.4347 9.39136L15.6522 11.4783V15.6523L17.7391 16.6958Z" fill="#338AF3"/>
<path d="M26.7828 16.6958H21.2174V11.4783L24.0001 9.39136L26.7828 11.4783V16.6958Z" fill="#0052B4"/>
<path d="M15.6522 15.6523V27.1305C15.6522 29.8636 16.9724 32.2941 19.0086 33.8178L20.4695 33.4523L22.313 35.3069C22.8582 35.4192 23.4223 35.4783 24.0001 35.4783C24.5748 35.4783 25.136 35.4199 25.6783 35.3087L27.7827 33.5566L28.9913 33.8145C31.0267 32.2908 32.3478 29.8628 32.3478 27.1305V15.6523H15.6522Z" fill="#F0F0F0"/>
<path d="M18.9913 15.6522H15.6522V18.9913H18.9913V15.6522Z" fill="#D80027"/>
<path d="M25.6696 15.6522H22.3305V18.9913H25.6696V15.6522Z" fill="#D80027"/>
<path d="M32.348 15.6522H29.0089V18.9913H32.348V15.6522Z" fill="#D80027"/>
<path d="M22.3302 18.9914H18.9911V22.3305H22.3302V18.9914Z" fill="#D80027"/>
<path d="M29.0086 18.9914H25.6695V22.3305H29.0086V18.9914Z" fill="#D80027"/>
<path d="M18.9913 22.3293H15.6522V25.6684H18.9913V22.3293Z" fill="#D80027"/>
<path d="M22.3302 25.6685H18.9911V29.0076H22.3302V25.6685Z" fill="#D80027"/>
<path d="M25.6696 22.3293H22.3305V25.6684H25.6696V22.3293Z" fill="#D80027"/>
<path d="M32.348 22.3293H29.0089V25.6684H32.348V22.3293Z" fill="#D80027"/>
<path d="M29.0086 25.6685H25.6695V29.0076H29.0086V25.6685Z" fill="#D80027"/>
<path d="M25.6696 29.0077H22.3305V32.3468H25.6696V29.0077Z" fill="#D80027"/>
<path d="M18.9914 29.008H15.8678C16.1543 30.2492 16.7175 31.385 17.4898 32.3471H18.9914V29.008Z" fill="#D80027"/>
<path d="M29.0089 32.3471H30.5104C31.2829 31.385 31.8459 30.2492 32.1324 29.008H29.0089V32.3471Z" fill="#D80027"/>
<path d="M18.9911 32.3472V33.8041C19.9623 34.5349 21.0972 35.0589 22.3302 35.3103V32.3472H18.9911Z" fill="#D80027"/>
<path d="M25.6695 32.3472V35.3103C26.9026 35.0591 28.0374 34.5349 29.0086 33.8041V32.3472H25.6695Z" fill="#D80027"/>
</g>
<defs>
<clipPath id="clip0">
<rect width="48" height="48" fill="white"/>
</clipPath>
</defs>
</svg>
