<svg width="48" height="48" viewBox="0 0 48 48" fill="none" xmlns="http://www.w3.org/2000/svg">
<path d="M48 24C48 37.2547 37.2547 48 24 48C10.7452 48 0 37.2547 0 24C0 10.7452 24 0 24 0C24 0 48 10.7452 48 24Z" fill="#A2001D"/>
<path d="M0 24C0 10.7452 10.7452 0 24 0C37.2547 0 48 10.7452 48 24" fill="#0052B4"/>
<path d="M32.3478 30.2609L24 29.2173L15.6522 30.2609V17.739H32.3478V30.2609Z" fill="#F0F0F0"/>
<path d="M24.0004 29.2174C26.3056 29.2174 28.1743 27.3486 28.1743 25.0434C28.1743 22.7382 26.3056 20.8695 24.0004 20.8695C21.6952 20.8695 19.8264 22.7382 19.8264 25.0434C19.8264 27.3486 21.6952 29.2174 24.0004 29.2174Z" fill="#0052B4"/>
<path d="M23.9998 27.1304C25.1524 27.1304 26.0868 26.196 26.0868 25.0434C26.0868 23.8908 25.1524 22.9565 23.9998 22.9565C22.8472 22.9565 21.9128 23.8908 21.9128 25.0434C21.9128 26.196 22.8472 27.1304 23.9998 27.1304Z" fill="#A2001D"/>
<path d="M20.8693 19.826H27.1301L23.9997 22.9566L20.8693 19.826Z" fill="#6DA544"/>
<path d="M25.0434 21.913H22.9564V28.1739H25.0434V21.913Z" fill="#FFDA44"/>
<path d="M27.3391 27.5478H20.6607L15.6522 30.2609H32.3478L27.3391 27.5478Z" fill="#6DA544"/>
</svg>
