<svg width="48" height="48" viewBox="0 0 48 48" fill="none" xmlns="http://www.w3.org/2000/svg">
<g clip-path="url(#clip0)">
<path d="M1.49278 15.6522C0.528094 18.2523 0 21.0643 0 24C0 26.9357 0.528094 29.7479 1.49278 32.3478L24 34.4347L46.5072 32.3478C47.4719 29.7479 48 26.9357 48 24C48 21.0643 47.4719 18.2523 46.5072 15.6522L24 13.5652L1.49278 15.6522Z" fill="#F0F0F0"/>
<path d="M24.0002 0C13.6811 0 4.88398 6.513 1.49304 15.6522H46.5076C43.1164 6.513 34.3194 0 24.0002 0Z" fill="#D80027"/>
<path d="M24.0002 48C34.3194 48 43.1164 41.487 46.5075 32.3478H1.49304C4.88398 41.487 13.6811 48 24.0002 48Z" fill="#6DA544"/>
</g>
<defs>
<clipPath id="clip0">
<rect width="48" height="48" fill="white"/>
</clipPath>
</defs>
</svg>
