<svg width="48" height="48" viewBox="0 0 48 48" fill="none" xmlns="http://www.w3.org/2000/svg">
<path d="M24 48C37.2548 48 48 37.2548 48 24C48 10.7452 37.2548 0 24 0C10.7452 0 0 10.7452 0 24C0 37.2548 10.7452 48 24 48Z" fill="#F0F0F0"/>
<path d="M33.0365 18.7827H27.0118L23.9996 13.5653L20.9875 18.7827H14.9628L17.9753 24.0001L14.9628 29.2174H20.9875L23.9996 34.4348L27.0118 29.2174H33.0365L30.0239 24.0001L33.0365 18.7827ZM27.7004 24.0001L25.8501 27.2052H22.1494L20.2988 24.0001L22.1493 20.7949H25.8501L27.7004 24.0001ZM23.9996 17.5897L24.6883 18.7826H23.3111L23.9996 17.5897ZM18.4483 20.7949H19.8257L19.137 21.9878L18.4483 20.7949ZM18.4483 27.2052L19.1371 26.0123L19.8258 27.2052H18.4483ZM23.9996 30.4103L23.311 29.2174H24.6883L23.9996 30.4103ZM29.5509 27.2052H28.1736L28.8623 26.0123L29.5509 27.2052ZM28.1736 20.7949H29.5509L28.8622 21.9878L28.1736 20.7949Z" fill="#0052B4"/>
<path d="M38.9395 5.21739H9.06006C6.86978 6.96189 4.9914 9.08083 3.52234 11.4783H44.4772C43.0081 9.08092 41.1297 6.96189 38.9395 5.21739Z" fill="#0052B4"/>
<path d="M9.06006 42.7827H38.9394C41.1297 41.0382 43.0081 38.9192 44.4771 36.5218H3.52234C4.9915 38.9191 6.86987 41.0382 9.06006 42.7827Z" fill="#0052B4"/>
</svg>
