<svg width="48" height="48" viewBox="0 0 48 48" fill="none" xmlns="http://www.w3.org/2000/svg">
<g clip-path="url(#clip0)">
<path d="M24 48C37.2548 48 48 37.2548 48 24C48 10.7452 37.2548 0 24 0C10.7452 0 0 10.7452 0 24C0 37.2548 10.7452 48 24 48Z" fill="#F0F0F0"/>
<path d="M23.9997 0C14.4846 0 6.2631 5.53734 2.3811 13.5653H45.6181C41.7362 5.53734 33.5146 0 23.9997 0Z" fill="#FF9811"/>
<path d="M23.9997 48C33.5146 48 41.7362 42.4627 45.6182 34.4348H2.3811C6.2631 42.4627 14.4846 48 23.9997 48Z" fill="#6DA544"/>
<path d="M24 32.3478C28.6104 32.3478 32.3478 28.6103 32.3478 24C32.3478 19.3896 28.6104 15.6522 24 15.6522C19.3897 15.6522 15.6522 19.3896 15.6522 24C15.6522 28.6103 19.3897 32.3478 24 32.3478Z" fill="#0052B4"/>
<path d="M24.0003 29.2173C26.8818 29.2173 29.2177 26.8814 29.2177 24C29.2177 21.1185 26.8818 18.7826 24.0003 18.7826C21.1189 18.7826 18.783 21.1185 18.783 24C18.783 26.8814 21.1189 29.2173 24.0003 29.2173Z" fill="#F0F0F0"/>
<path d="M23.9997 17.5618L25.6093 21.2122L29.5753 20.7809L27.2188 23.9999L29.5753 27.219L25.6093 26.7877L23.9997 30.4381L22.3901 26.7877L18.4241 27.2189L20.7806 23.9999L18.4241 20.7809L22.3901 21.2122L23.9997 17.5618Z" fill="#0052B4"/>
</g>
<defs>
<clipPath id="clip0">
<rect width="48" height="48" fill="white"/>
</clipPath>
</defs>
</svg>
