<svg width="48" height="48" viewBox="0 0 48 48" fill="none" xmlns="http://www.w3.org/2000/svg">
<g clip-path="url(#clip0)">
<path d="M24 48C37.2548 48 48 37.2548 48 24C48 10.7452 37.2548 0 24 0C10.7452 0 0 10.7452 0 24C0 37.2548 10.7452 48 24 48Z" fill="#F0F0F0"/>
<path d="M24.0001 0C13.681 0 4.88395 6.513 1.49292 15.6522H46.5075C43.1163 6.513 34.3193 0 24.0001 0Z" fill="#A2001D"/>
<path d="M24.0001 48C34.3193 48 43.1163 41.487 46.5074 32.3478H1.49292C4.88395 41.487 13.681 48 24.0001 48Z" fill="black"/>
<path d="M18.2609 22.4347C18.2478 22.4347 18.2349 22.4356 18.2218 22.4357V22.4347H13.634C13.8666 21.536 14.682 20.8695 15.6522 20.8695V17.739C12.7753 17.739 10.4348 20.0796 10.4348 22.9564V25.513V25.5652H18.2218C18.2394 25.5652 18.2533 25.5652 18.2609 25.5652C18.5486 25.5652 18.7826 25.7993 18.7826 26.0869V27.1304H8.34778V30.2608H21.913V26.0868C21.913 24.0731 20.2747 22.4347 18.2609 22.4347Z" fill="#496E2D"/>
<path d="M26.0877 27.1304V17.739H22.9573V30.2609H28.1747V27.1304H26.0877Z" fill="#496E2D"/>
<path d="M36.5214 27.1304V17.739H33.391V27.1304H32.3474V24H29.217V30.2609H38.6084V27.1304H36.5214Z" fill="#496E2D"/>
</g>
<defs>
<clipPath id="clip0">
<rect width="48" height="48" fill="white"/>
</clipPath>
</defs>
</svg>
