<svg width="48" height="48" viewBox="0 0 48 48" fill="none" xmlns="http://www.w3.org/2000/svg">
<g clip-path="url(#clip0)">
<path d="M24 48C37.2548 48 48 37.2548 48 24C48 10.7452 37.2548 0 24 0C10.7452 0 0 10.7452 0 24C0 37.2548 10.7452 48 24 48Z" fill="#F0F0F0"/>
<path d="M31.7955 17.739H28.6554C28.6814 18.0841 28.6961 18.4323 28.6961 18.7825C28.6961 21.1041 28.1158 23.3544 27.1041 24.9562C26.792 25.4503 26.2676 26.148 25.5656 26.6186V17.739H22.4352V26.6186C21.7333 26.148 21.2088 25.4504 20.8967 24.9562C19.8849 23.3544 19.3047 21.1041 19.3047 18.7825C19.3047 18.4323 19.3195 18.084 19.3454 17.739H16.2053C16.1852 18.0825 16.1742 18.4303 16.1742 18.7825C16.1742 25.219 19.6118 30.2608 24.0002 30.2608C28.3887 30.2608 31.8263 25.219 31.8263 18.7825C31.8265 18.4303 31.8155 18.0825 31.7955 17.739Z" fill="#D80027"/>
<path d="M9.9127 11.4783H13.0431V13.5653H16.1735V11.4783H19.3039V13.5653H22.4343V11.4783H25.5647V13.5653H28.6951V11.4783H31.8255V13.5653H34.9559V11.4783H38.0864V13.5653H45.6179C41.7362 5.53734 33.5146 0 23.9997 0C14.4847 0 6.2631 5.53734 2.3811 13.5653H9.9127V11.4783Z" fill="#6DA544"/>
<path d="M38.0866 34.4348V36.5218H34.9562V34.4348H31.8258V36.5218H28.6954V34.4348H25.565V36.5218H22.4346V34.4348H19.3042V36.5218H16.1738V34.4348H13.0431V36.5218H9.9127V34.4348H2.3811C6.2631 42.4627 14.4846 48 23.9997 48C33.5147 48 41.7362 42.4627 45.6182 34.4348H38.0866Z" fill="#D80027"/>
</g>
<defs>
<clipPath id="clip0">
<rect width="48" height="48" fill="white"/>
</clipPath>
</defs>
</svg>
