<svg width="48" height="48" viewBox="0 0 48 48" fill="none" xmlns="http://www.w3.org/2000/svg">
<path d="M24 48C37.2548 48 48 37.2548 48 24C48 10.7452 37.2548 0 24 0C10.7452 0 0 10.7452 0 24C0 37.2548 10.7452 48 24 48Z" fill="#F0F0F0"/>
<path d="M0.826416 30.2609C2.21504 35.4133 5.27551 39.879 9.39095 43.0411V30.2609H0.826416Z" fill="#0052B4"/>
<path d="M21.9127 47.9087C22.6007 47.968 23.2964 48 23.9997 48C35.0883 48 44.4189 40.4793 47.1729 30.2609H21.9127V47.9087Z" fill="#0052B4"/>
<path d="M47.1729 17.7391C44.4189 7.52072 35.0883 0 23.9997 0C23.2964 0 22.6007 0.0320625 21.9127 0.0913125V17.7391H47.1729Z" fill="#0052B4"/>
<path d="M9.39095 4.95889C5.27551 8.12108 2.21504 12.5867 0.826416 17.7391H9.39095V4.95889Z" fill="#0052B4"/>
<path d="M47.7968 20.8696H18.7827H18.7826V0.57045C16.5647 1.06226 14.462 1.85942 12.5217 2.91814V20.8695H0.203156C0.0695625 21.8943 0 22.939 0 24C0 25.0609 0.0695625 26.1057 0.203156 27.1304H12.5216H12.5217V45.0817C14.462 46.1404 16.5647 46.9377 18.7826 47.4294V27.1307V27.1305H47.7968C47.9303 26.1057 48 25.0609 48 24C48 22.939 47.9303 21.8943 47.7968 20.8696Z" fill="#D80027"/>
</svg>
