<svg width="48" height="48" viewBox="0 0 48 48" fill="none" xmlns="http://www.w3.org/2000/svg">
<path d="M24 48C37.2548 48 48 37.2548 48 24C48 10.7452 37.2548 0 24 0C10.7452 0 0 10.7452 0 24C0 37.2548 10.7452 48 24 48Z" fill="#F0F0F0"/>
<path d="M43.0401 38.6133L28.4268 24.0001H28.4267L43.0401 9.38664C42.4098 8.56764 41.7204 7.77967 40.9703 7.02939C40.22 6.2792 39.4321 5.58967 38.613 4.95958L23.9998 19.5729L23.9997 19.573L9.38638 4.95958C8.56748 5.58977 7.77942 6.27911 7.02913 7.02939C6.27885 7.77967 5.58942 8.56764 4.95932 9.38664L19.5726 23.9998L19.5727 23.9999L4.95923 38.6134C5.58951 39.4324 6.27895 40.2204 7.02904 40.9706C7.77932 41.7208 8.5672 42.4104 9.38629 43.0405L23.9997 28.4272L23.9998 28.4271L38.613 43.0404C39.4319 42.4102 40.22 41.7207 40.9703 40.9706C41.7206 40.2203 42.4099 39.4323 43.0401 38.6133Z" fill="#D80027"/>
<path d="M19.8256 7.30435L23.9995 8.34779L28.1734 7.30435V3.75657L26.5038 4.59132L23.9995 2.08698L21.4952 4.59132L19.8256 3.75657V7.30435Z" fill="#FFDA44"/>
<path d="M19.8256 7.30432V9.91319C19.8256 13.1082 23.9995 14.0871 23.9995 14.0871C23.9995 14.0871 28.1734 13.1081 28.1734 9.91319V7.30432H19.8256Z" fill="#D80027"/>
</svg>
