<svg width="48" height="48" viewBox="0 0 48 48" fill="none" xmlns="http://www.w3.org/2000/svg">
<g clip-path="url(#clip0)">
<path d="M24 48C37.2548 48 48 37.2548 48 24C48 10.7452 37.2548 0 24 0C10.7452 0 0 10.7452 0 24C0 37.2548 10.7452 48 24 48Z" fill="#FFDA44"/>
<path d="M38.6119 4.96125C34.565 1.85053 29.4992 0 24.0004 0C18.5016 0 13.4357 1.85062 9.38879 4.96125L24.0004 19.5728L38.6119 4.96125Z" fill="#6DA544"/>
<path d="M4.96116 9.38846C1.85062 13.4354 0 18.5011 0 24C0 29.4988 1.85062 34.5646 4.96125 38.6116L19.5728 24L4.96116 9.38846Z" fill="black"/>
<path d="M9.38879 43.0387C13.4358 46.1495 18.5016 48 24.0004 48C29.4992 48 34.565 46.1494 38.612 43.0387L24.0004 28.4272L9.38879 43.0387Z" fill="#6DA544"/>
<path d="M43.0391 38.6115C46.1498 34.5646 48.0004 29.4988 48.0004 24C48.0004 18.5011 46.1498 13.4354 43.0391 9.38846L28.4276 24L43.0391 38.6115Z" fill="black"/>
</g>
<defs>
<clipPath id="clip0">
<rect width="48" height="48" fill="white"/>
</clipPath>
</defs>
</svg>
