<svg width="48" height="48" viewBox="0 0 48 48" fill="none" xmlns="http://www.w3.org/2000/svg">
<g clip-path="url(#clip0)">
<path d="M24 48C37.2548 48 48 37.2548 48 24C48 10.7452 37.2548 0 24 0C10.7452 0 0 10.7452 0 24C0 37.2548 10.7452 48 24 48Z" fill="#F0F0F0"/>
<path d="M14.6094 15.6522H46.5078C43.1169 6.513 34.3197 0 24.0007 0C17.3731 0 11.3738 2.68678 7.03088 7.03022L14.6094 15.6522Z" fill="black"/>
<path d="M14.6094 32.3478H46.5078C43.1169 41.487 34.3197 48 24.0007 48C17.3731 48 11.3738 45.3132 7.03088 40.9698L14.6094 32.3478Z" fill="#6DA544"/>
<path d="M7.02893 7.02939C-2.34363 16.4019 -2.34363 31.598 7.02893 40.9706C10.902 37.0975 14.627 33.3726 23.9996 24L7.02893 7.02939Z" fill="#D80027"/>
<path d="M9.52597 18.7826L10.8431 21.5369L13.8177 20.8494L12.4855 23.5964L14.8775 25.4933L11.8993 26.1645L11.9076 29.2173L9.52597 27.3074L7.14425 29.2173L7.15259 26.1645L4.17444 25.4933L6.56638 23.5964L5.23438 20.8494L8.20878 21.5369L9.52597 18.7826Z" fill="#F0F0F0"/>
</g>
<defs>
<clipPath id="clip0">
<rect width="48" height="48" fill="white"/>
</clipPath>
</defs>
</svg>
