<svg width="48" height="48" viewBox="0 0 48 48" fill="none" xmlns="http://www.w3.org/2000/svg">
<g clip-path="url(#clip0)">
<path d="M24 48C37.2548 48 48 37.2548 48 24C48 10.7452 37.2548 0 24 0C10.7452 0 0 10.7452 0 24C0 37.2548 10.7452 48 24 48Z" fill="#F0F0F0"/>
<path d="M23.9997 0C14.4846 0 6.2631 5.53734 2.3811 13.5653H45.6181C41.7362 5.53734 33.5146 0 23.9997 0Z" fill="black"/>
<path d="M23.9997 48C14.4846 48 6.2631 42.4627 2.3811 34.4348H45.6181C41.7362 42.4627 33.5146 48 23.9997 48Z" fill="#496E2D"/>
<path d="M46.8667 16.6956H1.13334C0.398156 18.999 0 21.4529 0 24C0 26.5471 0.398156 29.001 1.13334 31.3043H46.8666C47.6018 29.001 48 26.5471 48 24C48 21.4529 47.6018 18.999 46.8667 16.6956Z" fill="#A2001D"/>
<path d="M31.4732 11.0907L28.631 9.77888L23.9999 20.2649L19.3688 9.77888L16.5266 11.0907L22.2761 24L16.5266 36.9093L19.3688 38.2211L23.9999 27.7351L28.631 38.2211L31.4732 36.9093L25.7237 24L31.4732 11.0907Z" fill="#F0F0F0"/>
<path d="M25.9303 12.3271C24.83 11.1255 23.9999 10.4348 23.9999 10.4348C23.9999 10.4348 23.1697 11.1254 22.0695 12.3271V35.6728C23.1697 36.8745 23.9999 37.5653 23.9999 37.5653C23.9999 37.5653 24.83 36.8746 25.9303 35.6728V12.3271Z" fill="#F0F0F0"/>
<path d="M18.783 16.8041V31.1958C19.9456 33.256 21.3687 34.9446 22.4352 36.0642V11.9358C21.3687 13.0553 19.9456 14.744 18.783 16.8041Z" fill="#A2001D"/>
<path d="M29.218 16.8041C28.0552 14.7439 26.6323 13.0553 25.5658 11.9358V36.0642C26.6322 34.9446 28.0552 33.256 29.218 31.1958V16.8041Z" fill="#A2001D"/>
<path d="M29.217 16.804V31.1957C30.3941 29.1099 31.304 26.6434 31.304 24C31.304 21.3565 30.3941 18.8899 29.217 16.804Z" fill="black"/>
<path d="M18.7828 16.804V31.1957C17.6057 29.1099 16.6958 26.6434 16.6958 24C16.6958 21.3565 17.6057 18.8899 18.7828 16.804Z" fill="black"/>
</g>
<defs>
<clipPath id="clip0">
<rect width="48" height="48" fill="white"/>
</clipPath>
</defs>
</svg>
