<svg width="48" height="48" viewBox="0 0 48 48" fill="none" xmlns="http://www.w3.org/2000/svg">
<path d="M24 48C37.2548 48 48 37.2548 48 24C48 10.7452 37.2548 0 24 0C10.7452 0 0 10.7452 0 24C0 37.2548 10.7452 48 24 48Z" fill="#D80027"/>
<path d="M35.7374 24L30.9417 26.2558L33.4955 30.9008L28.2874 29.9043L27.6278 35.1652L24.0001 31.2961L20.3728 35.1652L19.7128 29.9043L14.5052 30.9006L17.059 26.2556L12.263 24L17.059 21.7442L14.5052 17.0991L19.7127 18.0957L20.3729 12.8347L24.0001 16.7039L27.628 12.8347L28.2874 18.0957L33.4957 17.0991L30.9418 21.7445L35.7374 24Z" fill="#FFDA44"/>
<path d="M24.0001 31.3043C28.0342 31.3043 31.3044 28.034 31.3044 24C31.3044 19.9659 28.0342 16.6956 24.0001 16.6956C19.966 16.6956 16.6957 19.9659 16.6957 24C16.6957 28.034 19.966 31.3043 24.0001 31.3043Z" fill="#D80027"/>
<path d="M20.3475 24C20.1715 24 19.9978 24.009 19.8263 24.0261C19.8326 25.0377 20.1986 25.9637 20.8031 26.683C21.1256 25.8152 21.6071 25.0238 22.2143 24.3466C21.6344 24.1236 21.0052 24 20.3475 24Z" fill="#FFDA44"/>
<path d="M22.5958 27.9312C23.0345 28.088 23.5069 28.174 23.9997 28.174C24.4924 28.174 24.9648 28.088 25.4036 27.9312C25.1644 26.9926 24.6706 26.1547 23.9997 25.4962C23.3287 26.1546 22.8349 26.9926 22.5958 27.9312Z" fill="#FFDA44"/>
<path d="M27.6143 21.9137C26.8926 20.6662 25.5447 19.826 23.9997 19.826C22.4547 19.826 21.1069 20.6661 20.3852 21.9137C21.7009 21.9203 22.9346 22.2781 23.9997 22.8958C25.0648 22.2781 26.2984 21.9203 27.6143 21.9137Z" fill="#FFDA44"/>
<path d="M25.7852 24.3467C26.3924 25.0239 26.8739 25.8152 27.1964 26.6832C27.8009 25.9638 28.1669 25.0378 28.1732 24.0262C28.0017 24.009 27.8279 24.0001 27.6521 24.0001C26.9945 24 26.3653 24.1236 25.7852 24.3467Z" fill="#FFDA44"/>
</svg>
