<svg width="48" height="48" viewBox="0 0 48 48" fill="none" xmlns="http://www.w3.org/2000/svg">
<path d="M0 24.0001C0 28.1579 1.05778 32.0686 2.91816 35.4783L24 37.5653L45.0818 35.4783C46.9422 32.0686 48 28.1579 48 24.0001C48 19.8423 46.9422 15.9316 45.0818 12.5218L24 10.4348L2.91816 12.5218C1.05778 15.9316 0 19.8423 0 24.0001Z" fill="#D80027"/>
<path d="M2.91821 12.5217H45.0818C41.0114 5.06147 33.0971 0 24.0001 0C14.903 0 6.98874 5.06147 2.91821 12.5217Z" fill="#0052B4"/>
<path d="M24.0001 47.9999C33.0971 47.9999 41.0114 42.9385 45.0819 35.4782H2.91821C6.98874 42.9385 14.903 47.9999 24.0001 47.9999Z" fill="#0052B4"/>
<path d="M32.3477 28.6957V25.5653H30.2609V21.3913L28.1739 19.3044L26.0869 21.3913V17.2174L23.9999 15.1304L21.913 17.2174V21.3913L19.826 19.3044L17.739 21.3913V25.5653H15.6522V28.6957H13.5652V31.8261H34.4347V28.6957H32.3477Z" fill="#F0F0F0"/>
</svg>
