<svg width="48" height="48" viewBox="0 0 48 48" fill="none" xmlns="http://www.w3.org/2000/svg">
<path d="M0 24C0 10.7452 10.7452 0 24 0C37.2547 0 48 10.7452 48 24" fill="#D80027"/>
<path d="M32.3478 22.3198L28.9367 23.9241L30.7532 27.2278L27.0492 26.5191L26.5799 30.2609L24 27.5088L21.42 30.2609L20.9508 26.5191L17.2468 27.2276L19.0632 23.9241L15.6522 22.3198L19.0632 20.7152L17.2468 17.4119L20.9507 18.1202L21.4201 14.3787L24 17.1305L26.58 14.3787L27.0492 18.1202L30.7533 17.4119L28.937 20.7154L32.3478 22.3198Z" fill="#FFDA44"/>
<path d="M30.2611 7.82608H25.5654C25.5654 6.96179 24.8645 6.26083 24.0002 6.26083C23.1358 6.26083 22.4349 6.9617 22.4349 7.82608H17.7393C17.7393 8.69045 18.4923 9.39133 19.3566 9.39133H19.3044C19.3044 10.2557 20.0051 10.9566 20.8697 10.9566C20.8697 11.821 21.5704 12.5218 22.4349 12.5218H25.5653C26.4296 12.5218 27.1306 11.821 27.1306 10.9566C27.9949 10.9566 28.6958 10.2558 28.6958 9.39133H28.6436C29.5081 9.39133 30.2611 8.69054 30.2611 7.82608Z" fill="#FFDA44"/>
<path d="M48 24C48 37.2548 37.2547 48 24 48C10.7452 48 0 37.2548 0 24C1.04344 24 48 24 48 24Z" fill="#F0F0F0"/>
<path d="M24.0011 48C31.5032 48 38.2001 44.5572 42.6013 39.1662C41.8097 38.6264 41.3823 37.754 40.0008 37.754C38.0008 37.754 38.0008 39.5827 36.0009 39.5827C34.001 39.5827 34.0009 37.754 32.0011 37.754C30.0011 37.754 30.0011 39.5827 28.001 39.5827C26.001 39.5827 26.0009 37.754 24.0007 37.754C22.0008 37.754 22.0008 39.5827 20.0009 39.5827C18.0012 39.5827 18.0012 37.754 16.0012 37.754C14.0011 37.754 14.0011 39.5827 12.0009 39.5827C10.0008 39.5827 10.0008 37.754 8.0006 37.754C6.61929 37.754 6.19188 38.6262 5.40063 39.166C9.80163 44.5572 16.4989 48 24.0011 48Z" fill="#0052B4"/>
<path d="M44.0006 27.0609C42.0006 27.0609 42.0006 25.2322 40.0005 25.2322C38.0006 25.2322 38.0006 27.0609 36.0007 27.0609C34.0008 27.0609 34.0007 25.2322 32.0009 25.2322C30.0009 25.2322 30.0009 27.0609 28.0008 27.0609C26.0008 27.0609 26.0007 25.2322 24.0005 25.2322C22.0005 25.2322 22.0005 27.0609 20.0007 27.0609C18.001 27.0609 18.001 25.2322 16.001 25.2322C14.0009 25.2322 14.0009 27.0609 12.0007 27.0609C10.0005 27.0609 10.0005 25.2322 8.00039 25.2322C6.0007 25.2322 6.0007 27.0609 4.00073 27.0609C2.01154 27.0609 2.00001 25.2524 0.0321045 25.2331C0.0875107 26.3309 0.218573 27.4086 0.416761 28.4626C2.01089 28.6968 2.15048 30.2609 4.00082 30.2609C6.00079 30.2609 6.00079 28.4324 8.00048 28.4324C10.0006 28.4324 10.0006 30.2609 12.0008 30.2609C14.0009 30.2609 14.001 28.4324 16.0011 28.4324C18.0011 28.4324 18.0011 30.2609 20.0008 30.2609C22.0007 30.2609 22.0007 28.4324 24.0006 28.4324C26.0008 28.4324 26.0008 30.2609 28.0009 30.2609C30.0011 30.2609 30.0011 28.4324 32.001 28.4324C34.0009 28.4324 34.0009 30.2609 36.0008 30.2609C38.0007 30.2609 38.0008 28.4324 40.0006 28.4324C42.0008 28.4324 42.0008 30.2609 44.0007 30.2609C45.8512 30.2609 45.9908 28.6969 47.585 28.4627C47.7833 27.4086 47.9142 26.331 47.9699 25.2332C46.0016 25.2526 45.9899 27.0609 44.0006 27.0609Z" fill="#0052B4"/>
<path d="M39.9997 31.4932C37.9997 31.4932 37.9997 33.3218 35.9998 33.3218C33.9999 33.3218 33.9998 31.4932 32 31.4932C30 31.4932 30 33.3218 27.9999 33.3218C25.9998 33.3218 25.9998 31.4932 23.9996 31.4932C21.9997 31.4932 21.9997 33.3218 19.9998 33.3218C18.0001 33.3218 18.0001 31.4932 16.0001 31.4932C14 31.4932 14 33.3218 11.9998 33.3218C9.99965 33.3218 9.99965 31.4932 7.9995 31.4932C5.99981 31.4932 5.99981 33.3218 3.99984 33.3218C2.57081 33.3218 2.16262 32.3885 1.31653 31.8552C1.87978 33.4826 2.61253 35.0307 3.495 36.4778C3.64847 36.5062 3.81553 36.5218 3.99984 36.5218C5.99981 36.5218 5.99981 34.6933 7.9995 34.6933C9.99965 34.6933 9.99965 36.5218 11.9998 36.5218C14 36.5218 14 34.6933 16.0001 34.6933C18.0001 34.6933 18.0001 36.5218 19.9998 36.5218C21.9997 36.5218 21.9997 34.6933 23.9996 34.6933C25.9998 34.6933 25.9998 36.5218 27.9999 36.5218C30.0001 36.5218 30.0001 34.6933 32 34.6933C33.9999 34.6933 33.9999 36.5218 35.9998 36.5218C37.9997 36.5218 37.9998 34.6933 39.9997 34.6933C41.9998 34.6933 41.9998 36.5218 43.9997 36.5218C44.1842 36.5218 44.3512 36.5062 44.5047 36.4777C45.3872 35.0307 46.1198 33.4826 46.6834 31.8553C45.8372 32.3883 45.4289 33.3218 43.9997 33.3218C41.9998 33.3218 41.9998 31.4932 39.9997 31.4932Z" fill="#0052B4"/>
<path d="M47.9256 22.1039C46.0009 22.1493 45.9743 23.9305 43.9997 23.9305C41.9997 23.9305 41.9997 22.1018 39.9997 22.1018C37.9997 22.1018 37.9997 23.9305 35.9998 23.9305C33.9999 23.9305 33.9998 22.1018 32 22.1018C30 22.1018 30 23.9305 27.9999 23.9305C25.9999 23.9305 25.9998 22.1018 23.9996 22.1018C21.9997 22.1018 21.9997 23.9305 19.9998 23.9305C18.0001 23.9305 18.0001 22.1018 16.0001 22.1018C14 22.1018 14 23.9305 11.9998 23.9305C9.99966 23.9305 9.99966 22.1018 7.9995 22.1018C5.99981 22.1018 5.99981 23.9305 3.99984 23.9305C2.02556 23.9305 1.99884 22.1495 0.0743437 22.1039C0.0255 22.7295 0 23.3618 0 24C0 24.4371 0.012375 24.8715 0.0357188 25.3028C1.99913 25.3248 2.01216 27.1304 3.99994 27.1304C5.99991 27.1304 5.99991 25.3019 7.99959 25.3019C9.99975 25.3019 9.99975 27.1304 11.9999 27.1304C14.0001 27.1304 14.0001 25.3019 16.0002 25.3019C18.0002 25.3019 18.0002 27.1304 19.9999 27.1304C21.9998 27.1304 21.9998 25.3019 23.9997 25.3019C25.9999 25.3019 25.9999 27.1304 28 27.1304C30.0002 27.1304 30.0002 25.3019 32.0001 25.3019C34 25.3019 34 27.1304 35.9999 27.1304C37.9998 27.1304 37.9999 25.3019 39.9997 25.3019C41.9999 25.3019 41.9999 27.1304 43.9998 27.1304C45.9878 27.1304 46.0008 25.3248 47.9646 25.3028C47.9876 24.8714 48 24.4371 48 24C48 23.3618 47.9745 22.7295 47.9256 22.1039Z" fill="#F0F0F0"/>
</svg>
