<svg width="48" height="48" viewBox="0 0 48 48" fill="none" xmlns="http://www.w3.org/2000/svg">
<g clip-path="url(#clip0)">
<path d="M24 48C37.2548 48 48 37.2548 48 24C48 10.7452 37.2548 0 24 0C10.7452 0 0 10.7452 0 24C0 37.2548 10.7452 48 24 48Z" fill="#F0F0F0"/>
<path d="M47.9992 23.9305H21.9827C16.8173 29.0959 13.6938 33.0838 10.5044 36.2731L24.0696 37.4956L45.1197 35.4087C46.9567 32.0154 48.0001 28.1295 48.0001 23.9999C48.0001 23.9767 47.9992 23.9537 47.9992 23.9305Z" fill="#D80027"/>
<path d="M10.5046 12.4523H45.0432C40.9616 5.03025 33.0687 0 24.0002 0C17.3904 0 11.4057 2.67291 7.06558 6.996L10.5046 12.4523Z" fill="#FFDA44"/>
<path d="M11.5477 35.4087C9.39013 37.5663 8.55632 39.3739 6.99529 40.9349C11.3411 45.2987 17.3547 48 23.9998 48C33.1251 48 41.0605 42.907 45.1196 35.4087H11.5477Z" fill="#0052B4"/>
<path d="M7.02893 6.9599C-2.34363 16.3325 -2.34363 31.5285 7.02893 40.9011C10.902 37.0281 14.627 33.3031 23.9996 23.9305L7.02893 6.9599Z" fill="#6DA544"/>
<path d="M6.33063 23.9306C6.33063 20.4339 8.7881 17.5127 12.0697 16.7961C11.5654 16.6859 11.042 16.6262 10.5045 16.6262C6.47032 16.6262 3.20013 19.8964 3.20013 23.9306C3.20013 27.9647 6.47032 31.2349 10.5045 31.2349C11.0419 31.2349 11.5653 31.1752 12.0697 31.065C8.7881 30.3483 6.33063 27.4273 6.33063 23.9306Z" fill="#F0F0F0"/>
<path d="M11.9894 17.6697L12.378 18.8654H13.6351L12.618 19.6044L13.0066 20.8001L11.9894 20.0611L10.9722 20.8001L11.3608 19.6044L10.3436 18.8654H11.6008L11.9894 17.6697Z" fill="#F0F0F0"/>
<path d="M11.9894 20.8L12.378 21.9958H13.6351L12.618 22.7348L13.0066 23.9305L11.9894 23.1915L10.9722 23.9305L11.3608 22.7348L10.3436 21.9958H11.6008L11.9894 20.8Z" fill="#F0F0F0"/>
<path d="M11.9894 23.9306L12.378 25.1263H13.6351L12.618 25.8653L13.0066 27.061L11.9894 26.322L10.9722 27.061L11.3608 25.8653L10.3436 25.1263H11.6008L11.9894 23.9306Z" fill="#F0F0F0"/>
<path d="M11.9894 27.061L12.378 28.2567H13.6351L12.618 28.9958L13.0066 30.1914L11.9894 29.4525L10.9722 30.1914L11.3608 28.9958L10.3436 28.2567H11.6008L11.9894 27.061Z" fill="#F0F0F0"/>
</g>
<defs>
<clipPath id="clip0">
<rect width="48" height="48" fill="white"/>
</clipPath>
</defs>
</svg>
