<svg width="48" height="48" viewBox="0 0 48 48" fill="none" xmlns="http://www.w3.org/2000/svg">
<path d="M24 47.9999C37.2548 47.9999 47.9999 37.2548 47.9999 24C47.9999 10.7451 37.2548 0 24 0C10.7451 0 0 10.7451 0 24C0 37.2548 10.7451 47.9999 24 47.9999Z" fill="#FFDA44"/>
<path d="M7.02908 40.9706C8.03586 41.9774 9.11014 42.8754 10.2369 43.6658L43.6652 10.2375C42.8748 9.11057 41.977 8.03638 40.9701 7.0296C39.9633 6.02282 38.8891 5.12516 37.7624 4.33456L4.33423 37.763C5.12454 38.8898 6.02229 39.9639 7.02908 40.9706Z" fill="black"/>
<path d="M7.02987 7.02938C-0.541676 14.6009 -1.99527 25.9722 2.66636 35.0042L35.0046 2.66606C25.9726 -1.99548 14.6011 -0.541882 7.02987 7.02938Z" fill="#6DA544"/>
<path d="M40.9704 40.9706C48.5418 33.3993 49.9953 22.028 45.334 12.9958L12.9955 45.3342C22.0276 49.9957 33.3988 48.5422 40.9704 40.9706Z" fill="#D80027"/>
<path d="M15.2593 28.3133L17.4997 29.4549L19.2778 27.6769L18.8844 30.1603L21.1248 31.302L18.6412 31.6953L18.2479 34.1788L17.1064 31.9384L14.6229 32.3317L16.4009 30.5538L15.2593 28.3133Z" fill="#F0F0F0"/>
<path d="M28.3125 15.2598L30.5529 16.4014L32.3309 14.6234L31.9377 17.1068L34.178 18.2485L31.6945 18.6418L31.3012 21.1253L30.1596 18.8849L27.6761 19.2782L29.4541 17.5002L28.3125 15.2598Z" fill="#F0F0F0"/>
</svg>
