<svg width="48" height="48" viewBox="0 0 48 48" fill="none" xmlns="http://www.w3.org/2000/svg">
<path d="M24 48C37.2548 48 48 37.2548 48 24C48 10.7452 37.2548 0 24 0C10.7452 0 0 10.7452 0 24C0 37.2548 10.7452 48 24 48Z" fill="#338AF3"/>
<path d="M37.5646 24.2609H10.4341C10.4341 26.134 12.0654 27.6522 13.9383 27.6522H13.8254C13.8254 29.5253 15.3437 31.0436 17.2167 31.0436C17.2167 32.9166 18.735 34.4349 20.608 34.4349H27.3906C29.2637 34.4349 30.782 32.9166 30.782 31.0436C32.655 31.0436 34.1733 29.5253 34.1733 27.6522H34.0604C35.933 27.6522 37.5646 26.134 37.5646 24.2609Z" fill="#FFDA44"/>
<path d="M33.3911 19.826C33.3911 25.0127 29.1864 29.2173 23.9998 29.2173C18.8131 29.2173 14.6085 25.0127 14.6085 19.826" fill="#338AF3"/>
<path d="M31.1738 19.826L28.2427 21.2048L29.8036 24.0435L26.6208 23.4346L26.2174 26.6499L24.0005 24.285L21.7835 26.6499L21.3803 23.4346L18.1975 24.0434L19.7583 21.2047L16.8273 19.826L19.7584 18.4473L18.1975 15.6087L21.3802 16.2175L21.7836 13.0022L24.0005 15.3671L26.2175 13.0022L26.6208 16.2175L29.8037 15.6087L28.2428 18.4474L31.1738 19.826Z" fill="#FFDA44"/>
</svg>
