<svg width="48" height="48" viewBox="0 0 48 48" fill="none" xmlns="http://www.w3.org/2000/svg">
<path d="M24 48C37.2548 48 48 37.2548 48 24C48 10.7452 37.2548 0 24 0C10.7452 0 0 10.7452 0 24C0 37.2548 10.7452 48 24 48Z" fill="#F0F0F0"/>
<path d="M23.9997 0C14.4846 0 6.2631 5.53734 2.3811 13.5653H45.6181C41.7362 5.53734 33.5146 0 23.9997 0Z" fill="#D80027"/>
<path d="M23.9997 48C33.5146 48 41.7362 42.4627 45.6182 34.4348H2.3811C6.2631 42.4627 14.4846 48 23.9997 48Z" fill="#D80027"/>
<path d="M30.2611 28.1739L24.0002 16.6956L17.7393 28.1739H22.4349V31.3043H25.5654V28.1739H30.2611Z" fill="#6DA544"/>
</svg>
