<svg width="48" height="48" viewBox="0 0 48 48" fill="none" xmlns="http://www.w3.org/2000/svg">
<path d="M48 24C48 37.2547 37.2547 48 24 48C10.7452 48 0 37.2547 0 24C1.04344 24 24 20.8696 24 20.8696L48 24Z" fill="#D80027"/>
<path d="M0 24C0 10.7452 10.7452 0 24 0C37.2547 0 48 10.7452 48 24" fill="#0052B4"/>
<path d="M17.7388 16.6957C17.7388 14.9669 16.3372 13.5653 14.6084 13.5653C13.8063 13.5653 13.0754 13.8672 12.5214 14.363V12.5218H13.5648V10.4348H12.5214V9.39136H10.4344V10.4348H9.39098V12.5218H10.4344V14.363C9.88045 13.8672 9.14948 13.5653 8.34745 13.5653C6.6186 13.5653 5.21704 14.9669 5.21704 16.6957C5.21704 17.6226 5.62026 18.4551 6.26048 19.0284V20.8696H16.6952V19.0284C17.3356 18.4551 17.7388 17.6226 17.7388 16.6957Z" fill="#FFDA44"/>
</svg>
