<svg width="48" height="48" viewBox="0 0 48 48" fill="none" xmlns="http://www.w3.org/2000/svg">
<path d="M24 48C37.2548 48 48 37.2548 48 24C48 10.7452 37.2548 0 24 0C10.7452 0 0 10.7452 0 24C0 37.2548 10.7452 48 24 48Z" fill="#F0F0F0"/>
<path d="M5.48621 8.72738H42.5145C41.1468 7.07129 39.5606 5.60269 37.801 4.36378H10.1997C8.44008 5.6025 6.85392 7.07119 5.48621 8.72738Z" fill="#F0F0F0"/>
<path d="M0 24C0 24.7356 0.0349688 25.4629 0.09975 26.1818H47.9002C47.965 25.4629 48 24.7356 48 24C48 23.2643 47.965 22.537 47.9002 21.8182H0.09975C0.0349688 22.537 0 23.2643 0 24Z" fill="#F0F0F0"/>
<path d="M2.61657 34.9091H45.3823C46.089 33.5266 46.6654 32.0668 47.0957 30.5456H0.903198C1.33342 32.0668 1.90998 33.5267 2.61657 34.9091Z" fill="#F0F0F0"/>
<path d="M10.1997 43.6364H37.8009C39.5605 42.3975 41.1467 40.9289 42.5144 39.2728H5.48621C6.85392 40.9287 8.44008 42.3975 10.1997 43.6364Z" fill="#F0F0F0"/>
<path d="M0.903931 17.4546H47.0966C46.6663 15.9332 46.0898 14.4733 45.3832 13.091H2.6174C1.91081 14.4733 1.33424 15.9332 0.903931 17.4546Z" fill="#F0F0F0"/>
<path d="M11.4778 4.36359H37.8002C33.8964 1.61503 29.1367 0 23.9995 0C20.8691 0 15.3815 1.61503 11.4778 4.36359Z" fill="#D80027"/>
<path d="M22.9556 13.0909H45.3819C44.5838 11.5297 43.6199 10.0673 42.5131 8.72734H22.9556V13.0909Z" fill="#D80027"/>
<path d="M22.9556 21.8183H47.8993C47.7643 20.32 47.4929 18.8608 47.0953 17.4547H22.9556V21.8183Z" fill="#D80027"/>
<path d="M0.903365 30.5456H47.0959C47.4935 29.1395 47.7649 27.6803 47.8999 26.182H0.0993652C0.234365 27.6803 0.505678 29.1394 0.903365 30.5456Z" fill="#D80027"/>
<path d="M5.48588 39.2726H42.5141C43.6208 37.9324 44.5848 36.4701 45.3829 34.909H2.61713C3.41522 36.4702 4.37916 37.9326 5.48588 39.2726Z" fill="#D80027"/>
<path d="M24.0001 48C29.1373 48 33.897 46.385 37.8007 43.6364H10.1994C14.1032 46.385 18.8628 48 24.0001 48Z" fill="#D80027"/>
<path d="M0.903271 17.4546C0.505584 18.8608 0.234365 20.3198 0.0993652 21.8182H23.9996V0C13.014 0 3.75252 7.38113 0.903271 17.4546Z" fill="#0052B4"/>
<path d="M14.2855 6.26089L15.8395 11.0435H20.8688L16.8002 13.9997L18.354 18.7826L14.2855 15.8267L10.2169 18.7826L11.7711 13.9997L7.70251 11.0435H12.7315L14.2855 6.26089Z" fill="#F0F0F0"/>
</svg>
