<svg width="48" height="48" viewBox="0 0 48 48" fill="none" xmlns="http://www.w3.org/2000/svg">
<g clip-path="url(#clip0)">
<path d="M0 24.0001C0 27.7397 0.855656 31.2796 2.38144 34.4348L24 35.4783L45.6186 34.4349C47.1443 31.2796 48 27.7397 48 24.0001C48 20.2604 47.1443 16.7206 45.6186 13.5653L24 12.5218L2.38144 13.5652C0.855656 16.7206 0 20.2604 0 24.0001Z" fill="#F0F0F0"/>
<path d="M23.9997 48C33.5146 48 41.7362 42.4627 45.6182 34.4348H2.3811C6.2631 42.4627 14.4846 48 23.9997 48Z" fill="#6DA544"/>
<path d="M23.9997 0C14.4846 0 6.2631 5.53734 2.3811 13.5653H45.6181C41.7362 5.53734 33.5146 0 23.9997 0Z" fill="#0052B4"/>
<path d="M25.5656 23.4783V17.7392H22.4352V23.4783L18.6543 27.2593C19.7539 29.0593 21.7368 30.2609 24.0005 30.2609C26.2642 30.2609 28.247 29.0593 29.3467 27.2593L25.5656 23.4783Z" fill="black"/>
</g>
<defs>
<clipPath id="clip0">
<rect width="48" height="48" fill="white"/>
</clipPath>
</defs>
</svg>
