<svg width="48" height="48" viewBox="0 0 48 48" fill="none" xmlns="http://www.w3.org/2000/svg">
<g clip-path="url(#clip0)">
<path d="M46.5072 32.3478C47.472 29.7479 48 26.9357 48 24C48 21.0643 47.472 18.2521 46.5072 15.6522L24 13.5652L1.49278 15.6522C0.528 18.2521 0 21.0643 0 24C0 26.9357 0.528 29.7479 1.49278 32.3478L24 34.4347L46.5072 32.3478Z" fill="#6DA544"/>
<path d="M46.5064 15.6522C43.1154 6.513 34.3184 0 23.9992 0C13.6801 0 4.88304 6.513 1.492 15.6522H46.5064Z" fill="#FFDA44"/>
<path d="M23.9992 48C34.3184 48 43.1154 41.487 46.5064 32.3478H1.492C4.88304 41.487 13.6801 48 23.9992 48Z" fill="#D80027"/>
</g>
<defs>
<clipPath id="clip0">
<rect width="48" height="48" fill="white"/>
</clipPath>
</defs>
</svg>
