<svg width="48" height="48" viewBox="0 0 48 48" fill="none" xmlns="http://www.w3.org/2000/svg">
<g clip-path="url(#clip0)">
<path d="M24 48C37.2548 48 48 37.2548 48 24C48 10.7452 37.2548 0 24 0C10.7452 0 0 10.7452 0 24C0 37.2548 10.7452 48 24 48Z" fill="#F0F0F0"/>
<path d="M23.9992 0C13.6801 0 4.88304 6.513 1.492 15.6522H46.5065C43.1154 6.513 34.3184 0 23.9992 0Z" fill="#D80027"/>
<path d="M23.9992 48C34.3184 48 43.1154 41.487 46.5064 32.3478H1.492C4.88304 41.487 13.6801 48 23.9992 48Z" fill="#338AF3"/>
</g>
<defs>
<clipPath id="clip0">
<rect width="48" height="48" fill="white"/>
</clipPath>
</defs>
</svg>
