<svg width="48" height="48" viewBox="0 0 48 48" fill="none" xmlns="http://www.w3.org/2000/svg">
<g clip-path="url(#clip0)">
<path d="M2.38144 13.5652C0.85575 16.7204 0 20.2602 0 23.9999C0 27.7397 0.85575 31.2794 2.38144 34.4347L24 36.5217L45.6186 34.4347C47.1442 31.2794 48 27.7397 48 23.9999C48 20.2602 47.1442 16.7204 45.6186 13.5652L24 11.4782L2.38144 13.5652Z" fill="black"/>
<path d="M2.38306 34.4348C6.26487 42.4627 14.4857 48 24.0008 48C33.5157 48 41.7367 42.4627 45.6185 34.4348H2.38306Z" fill="#496E2D"/>
<path d="M2.38306 13.5653H45.6185C41.7367 5.53734 33.5157 0 24.0008 0C14.4857 0 6.26487 5.53734 2.38306 13.5653Z" fill="#D80027"/>
<path d="M29.5863 19.6112L31.5554 22.3248L34.7445 21.2907L32.7722 24.0019L34.7411 26.7154L31.5533 25.6774L29.581 28.3887L29.583 25.0361L26.395 23.9981L29.5841 22.964L29.5863 19.6112Z" fill="#F0F0F0"/>
<path d="M24.2115 30.7826C20.4656 30.7826 17.4288 27.7458 17.4288 23.9999C17.4288 20.2541 20.4656 17.2173 24.2115 17.2173C25.3794 17.2173 26.4784 17.5126 27.4379 18.0326C25.9326 16.5606 23.8743 15.6521 21.6028 15.6521C16.9923 15.6521 13.255 19.3895 13.255 23.9999C13.255 28.6102 16.9924 32.3476 21.6028 32.3476C23.8743 32.3476 25.9327 31.4391 27.4379 29.9671C26.4783 30.4873 25.3795 30.7826 24.2115 30.7826Z" fill="#F0F0F0"/>
</g>
<defs>
<clipPath id="clip0">
<rect width="48" height="48" fill="white"/>
</clipPath>
</defs>
</svg>
