<svg width="48" height="48" viewBox="0 0 48 48" fill="none" xmlns="http://www.w3.org/2000/svg">
<path d="M24 48C37.2548 48 48 37.2548 48 24C48 10.7452 37.2548 0 24 0C10.7452 0 0 10.7452 0 24C0 37.2548 10.7452 48 24 48Z" fill="#D80027"/>
<path d="M38.1824 19.696H27.3474L23.9992 9.39136L20.651 19.696H9.81595L18.5817 26.0646L15.2334 36.3695L23.9992 30.0008L32.765 36.3696L29.4167 26.0647L38.1824 19.696ZM21.035 25.2675L22.1672 21.7829H25.8311L26.9634 25.2675V25.2675L23.9992 27.4211L21.0351 25.2675L21.035 25.2675ZM25.1531 19.696H22.8454L23.9992 16.1447L25.1531 19.696ZM28.7385 23.9777L28.0254 21.783H31.7594L28.7385 23.9777ZM19.9729 21.783L19.2598 23.9777L16.2389 21.783H19.9729ZM19.203 30.9058L20.3569 27.3546L22.2239 28.711L19.203 30.9058ZM25.7744 28.7111L27.6415 27.3547L28.7954 30.9059L25.7744 28.7111Z" fill="#FFDA44"/>
</svg>
