<svg width="48" height="48" viewBox="0 0 48 48" fill="none" xmlns="http://www.w3.org/2000/svg">
<path d="M34.436 2.38144C31.2808 0.85575 27.741 0 24.0013 0C20.2616 0 16.7218 0.85575 13.5665 2.38144L11.4796 24L13.5665 45.6186C16.7218 47.1442 20.2616 48 24.0013 48C27.741 48 31.2808 47.1442 34.436 45.6186L36.523 24L34.436 2.38144Z" fill="#FFDA44"/>
<path d="M13.5653 2.38227C5.53744 6.26418 0 14.485 0 24C0 33.515 5.53744 41.7358 13.5653 45.6177V2.38227Z" fill="#0052B4"/>
<path d="M34.4341 2.38227V45.6177C42.4619 41.7358 47.9993 33.515 47.9993 24C47.9993 14.485 42.4619 6.26418 34.4341 2.38227Z" fill="#D80027"/>
<path d="M32.3478 18.883H26.6087C26.6087 17.4423 25.4407 16.2743 24 16.2743C22.5592 16.2743 21.3913 17.4423 21.3913 18.883H15.6522C15.6522 20.3015 16.8879 21.4514 18.3063 21.4514H18.2208C18.2208 22.87 19.3707 24.02 20.7893 24.02C20.7893 25.276 21.6914 26.3196 22.8828 26.5428L20.8587 31.1123C21.8285 31.5065 22.8885 31.7256 24 31.7256C25.1114 31.7256 26.1714 31.5065 27.1412 31.1123L25.1172 26.5428C26.3086 26.3196 27.2106 25.276 27.2106 24.02C28.6293 24.02 29.7792 22.87 29.7792 21.4514H29.6936C31.1121 21.4514 32.3478 20.3015 32.3478 18.883Z" fill="#FF9811"/>
<path d="M24.0016 22.4348L20.6103 24V27.1304L24.0016 29.2174L27.3929 27.1304V24L24.0016 22.4348Z" fill="#0052B4"/>
<path d="M27.3929 20.8696H20.6103V24H27.3929V20.8696Z" fill="#D80027"/>
</svg>
