<svg width="48" height="48" viewBox="0 0 48 48" fill="none" xmlns="http://www.w3.org/2000/svg">
<path d="M24 48C37.2548 48 48 37.2548 48 24C48 10.7452 37.2548 0 24 0C10.7452 0 0 10.7452 0 24C0 37.2548 10.7452 48 24 48Z" fill="#FFDA44"/>
<path d="M48 24C48 15.7631 43.8498 8.49612 37.5269 4.17397H10.4731C4.15031 8.49612 0 15.7631 0 24C0 32.2372 4.15031 39.5039 10.4731 43.8261H37.5269C43.8498 39.5039 48 32.2372 48 24Z" fill="#A2001D"/>
<path d="M18.7821 17.739H29.2168V13.5652L27.1298 14.6086L23.9994 11.4782L20.869 14.6086L18.7821 13.5652V17.739Z" fill="#FFDA44"/>
<path d="M33.3911 23.9999H28.1757C28.3803 23.6461 28.4992 23.2367 28.4992 22.7987C28.4992 21.4687 27.4209 20.3906 26.0911 20.3906C25.1722 20.3906 24.3742 20.9055 23.9682 21.6621C23.5622 20.9054 22.7642 20.3906 21.8453 20.3906C20.5155 20.3906 19.4373 21.4687 19.4373 22.7987C19.4373 23.2368 19.5563 23.6462 19.7607 23.9999H14.6083C14.6083 25.5958 15.9983 26.8895 17.5942 26.8895H17.498C17.498 28.1985 18.3686 29.3038 19.5623 29.6589L17.217 32.0044L19.4305 34.2179L22.5705 31.078C22.6935 31.123 22.8207 31.159 22.9522 31.1838L21.0549 35.4677C21.9641 35.8375 22.9578 36.0427 23.9998 36.0427C25.0417 36.0427 26.0354 35.8375 26.9447 35.4677L25.0474 31.1838C25.1788 31.1591 25.306 31.123 25.4289 31.078L28.5689 34.2179L30.7823 32.0044L28.4369 29.659C29.6305 29.3037 30.5013 28.1986 30.5013 26.8896H30.405C32.001 26.8895 33.3911 25.5958 33.3911 23.9999Z" fill="#FFDA44"/>
<path d="M23.9998 25.5652L20.6085 27.1304V30.2609L23.9998 32.3478L27.3911 30.2609V27.1304L23.9998 25.5652Z" fill="#6DA544"/>
<path d="M27.3911 24H20.6085V28.1739H27.3911V24Z" fill="#0052B4"/>
</svg>
