<svg width="48" height="48" viewBox="0 0 48 48" fill="none" xmlns="http://www.w3.org/2000/svg">
<g clip-path="url(#clip0)">
<path d="M24 48C37.2548 48 48 37.2548 48 24C48 10.7452 37.2548 0 24 0C10.7452 0 0 10.7452 0 24C0 37.2548 10.7452 48 24 48Z" fill="#F0F0F0"/>
<path d="M15.6522 24.0001V46.5073C18.2521 47.4721 21.0643 48.0001 24 48.0001C37.2548 48.0001 48 37.2548 48 24.0001C48 10.7453 15.6522 24.0001 15.6522 24.0001Z" fill="#6DA544"/>
<path d="M24 0C21.0643 0 18.2521 0.528094 15.6522 1.49278V24C15.6522 24 36.9392 24 48 24C48 10.7452 37.2548 0 24 0Z" fill="#D80027"/>
</g>
<defs>
<clipPath id="clip0">
<rect width="48" height="48" fill="white"/>
</clipPath>
</defs>
</svg>
