<svg width="48" height="48" viewBox="0 0 48 48" fill="none" xmlns="http://www.w3.org/2000/svg">
<path d="M24 48C37.2547 48 48 37.2547 48 24C48 19.9722 47.0062 16.1769 45.2529 12.8438L23.9718 24.0281L35.1562 2.74706C31.8231 0.99375 28.0278 0 24 0C10.7452 0 0 10.7452 0 24C0 30.6275 2.68631 36.6275 7.02938 40.9706C11.3725 45.3138 17.3725 48 24 48Z" fill="#0052B4"/>
<path d="M45.2279 12.8699C44.1294 10.7789 42.7011 8.81571 40.9429 7.05752C39.1846 5.29933 37.2217 3.87105 35.1305 2.77258L7.00165 40.9987L45.2279 12.8699Z" fill="#F0F0F0"/>
<path d="M7.00165 40.9986L45.2279 12.8699C44.1294 10.7789 42.7011 8.81566 40.9429 7.05747L7.00165 40.9986Z" fill="#FF9811"/>
<path d="M20.8411 14.074L17.9101 15.4526L19.4709 18.2914L16.2881 17.6825L15.8848 20.8977L13.6678 18.5329L11.4508 20.8977L11.0477 17.6825L7.86485 18.2912L9.42551 15.4525L6.49451 14.074L9.4256 12.6952L7.86485 9.85661L11.0475 10.4653L11.4509 7.25008L13.6678 9.61492L15.8848 7.25008L16.2881 10.4653L19.471 9.85661L17.9102 12.6953L20.8411 14.074Z" fill="#F0F0F0"/>
</svg>
