<svg width="48" height="48" viewBox="0 0 48 48" fill="none" xmlns="http://www.w3.org/2000/svg">
<path d="M24 48C37.2548 48 48 37.2548 48 24C48 10.7452 37.2548 0 24 0C10.7452 0 0 10.7452 0 24C0 37.2548 10.7452 48 24 48Z" fill="#FFDA44"/>
<path d="M27.6499 47.7241C31.5533 47.1286 35.1463 45.5915 38.1926 43.3537L24 24L27.6499 47.7241Z" fill="#D80027"/>
<path d="M20.3489 0.275909C16.4456 0.871409 12.8525 2.40853 9.80603 4.64625L23.9988 24L20.3489 0.275909Z" fill="#D80027"/>
<path d="M9.80603 43.3537C12.8523 45.5914 16.4454 47.1285 20.3487 47.7242L23.9988 24L9.80603 43.3537Z" fill="#D80027"/>
<path d="M4.64598 9.80719C2.40817 12.8537 0.871229 16.4467 0.275635 20.35L23.9997 24L4.64598 9.80719Z" fill="#D80027"/>
<path d="M0.275635 27.6499C0.871135 31.5533 2.40826 35.1463 4.64607 38.1926L23.9997 24L0.275635 27.6499Z" fill="#D80027"/>
<path d="M47.7241 20.3501C47.1285 16.4468 45.5915 12.8537 43.3537 9.80731L24 24L47.7241 20.3501Z" fill="#D80027"/>
<path d="M38.1926 4.64616C35.1462 2.40844 31.5533 0.871409 27.6499 0.275909L24 24L38.1926 4.64616Z" fill="#D80027"/>
<path d="M43.3538 38.1927C45.5916 35.1463 47.1286 31.5532 47.7243 27.65L24 24L43.3538 38.1927Z" fill="#D80027"/>
<path d="M24 32.3478C28.6104 32.3478 32.3478 28.6103 32.3478 24C32.3478 19.3896 28.6104 15.6522 24 15.6522C19.3897 15.6522 15.6522 19.3896 15.6522 24C15.6522 28.6103 19.3897 32.3478 24 32.3478Z" fill="#D80027"/>
<path d="M24.0002 30.2609C27.458 30.2609 30.2611 27.4578 30.2611 24C30.2611 20.5422 27.458 17.739 24.0002 17.739C20.5424 17.739 17.7393 20.5422 17.7393 24C17.7393 27.4578 20.5424 30.2609 24.0002 30.2609Z" fill="#FFDA44"/>
</svg>
