<svg width="48" height="48" viewBox="0 0 48 48" fill="none" xmlns="http://www.w3.org/2000/svg">
<g clip-path="url(#clip0)">
<path d="M32.3475 1.49278C29.7476 0.528094 26.9354 0 23.9998 0C21.0641 0 18.2519 0.528094 15.652 1.49278L13.565 24L15.652 46.5072C18.2519 47.472 21.0641 48 23.9998 48C26.9354 48 29.7476 47.472 32.3475 46.5072L34.4345 24L32.3475 1.49278Z" fill="#FFDA44"/>
<path d="M48 24C48 13.6809 41.487 4.8838 32.3478 1.49287V46.5074C41.487 43.1162 48 34.3192 48 24Z" fill="#D80027"/>
<path d="M0 24C0 34.3192 6.513 43.1162 15.6522 46.5073V1.49287C6.513 4.8838 0 13.6809 0 24Z" fill="#6DA544"/>
</g>
<defs>
<clipPath id="clip0">
<rect width="48" height="48" fill="white"/>
</clipPath>
</defs>
</svg>
