<svg width="48" height="48" viewBox="0 0 48 48" fill="none" xmlns="http://www.w3.org/2000/svg">
<g clip-path="url(#clip0)">
<path d="M46.5072 32.3478C47.472 29.7479 48 26.9357 48 24C48 21.0643 47.472 18.2521 46.5072 15.6522L24 13.5652L1.49278 15.6522C0.528094 18.2521 0 21.0643 0 24C0 26.9357 0.528094 29.7479 1.49278 32.3478L24 34.4347L46.5072 32.3478Z" fill="#6DA544"/>
<path d="M46.5065 15.6522C43.1154 6.513 34.3184 0 23.9993 0C13.6801 0 4.88307 6.513 1.49203 15.6522H46.5065Z" fill="#FFDA44"/>
<path d="M23.9993 48C34.3184 48 43.1154 41.487 46.5065 32.3478H1.49203C4.88307 41.487 13.6801 48 23.9993 48Z" fill="#D80027"/>
<path d="M40.4576 20.305H27.885L23.9998 8.34781L20.1146 20.305H7.54211L17.7135 27.6949L13.8283 39.6522L23.9998 32.3478L34.1713 39.6521L30.2862 27.6948L40.4576 20.305Z" fill="#F0F0F0"/>
</g>
<defs>
<clipPath id="clip0">
<rect width="48" height="48" fill="white"/>
</clipPath>
</defs>
</svg>
