<svg width="48" height="48" viewBox="0 0 48 48" fill="none" xmlns="http://www.w3.org/2000/svg">
<path d="M23.9998 48C26.9355 48 29.7477 47.472 32.3476 46.5072L33.3911 24L32.3477 1.49278C29.7477 0.528094 26.9355 0 23.9998 0C21.0642 0 18.2519 0.528094 15.6521 1.49278L14.6085 24L15.652 46.5072C18.2519 47.472 21.0642 48 23.9998 48Z" fill="#0052B4"/>
<path d="M0 24C0 34.3192 6.513 43.1162 15.6522 46.5072V1.49281C6.513 4.88384 0 13.6809 0 24Z" fill="#A2001D"/>
<path d="M32.3478 1.49281V46.5073C41.487 43.1162 48 34.3192 48 24C48 13.6809 41.487 4.88384 32.3478 1.49281Z" fill="#A2001D"/>
<path d="M13.5648 24H11.4778V32.3478H13.5648V24Z" fill="#FFDA44"/>
<path d="M5.21771 24H3.13074V32.3478H5.21771V24Z" fill="#FFDA44"/>
<path d="M8.34846 29.2175C9.50106 29.2175 10.4354 28.2831 10.4354 27.1305C10.4354 25.9779 9.50106 25.0435 8.34846 25.0435C7.19586 25.0435 6.26149 25.9779 6.26149 27.1305C6.26149 28.2831 7.19586 29.2175 8.34846 29.2175Z" fill="#FFDA44"/>
<path d="M8.34859 20.8696C8.92486 20.8696 9.39203 20.4024 9.39203 19.8262C9.39203 19.2499 8.92486 18.7827 8.34859 18.7827C7.77232 18.7827 7.30515 19.2499 7.30515 19.8262C7.30515 20.4024 7.77232 20.8696 8.34859 20.8696Z" fill="#FFDA44"/>
<path d="M10.4347 30.2609H6.26072V32.3479H10.4347V30.2609Z" fill="#FFDA44"/>
<path d="M10.4347 21.9131H6.26072V24.0001H10.4347V21.9131Z" fill="#FFDA44"/>
<path d="M8.34747 12.5218L9.0866 14.7961H11.478L9.54344 16.2018L10.282 18.4762L8.34747 17.0705L6.41303 18.4762L7.1516 16.2018L5.21706 14.7961H7.60844L8.34747 12.5218Z" fill="#FFDA44"/>
</svg>
