<svg width="48" height="48" viewBox="0 0 48 48" fill="none" xmlns="http://www.w3.org/2000/svg">
<path d="M24 48C37.2548 48 48 37.2548 48 24C48 10.7452 37.2548 0 24 0C10.7452 0 0 10.7452 0 24C0 37.2548 10.7452 48 24 48Z" fill="#496E2D"/>
<path d="M28.1738 22.9992C27.5847 22.9992 27.0254 23.1167 26.506 23.3036C26.7905 22.6695 26.9813 21.9639 26.9813 21.2104C26.9813 18.2291 24 15.9931 24 15.9931C24 15.9931 21.0186 18.2291 21.0186 21.2104C21.0186 21.9638 21.2094 22.6695 21.494 23.3036C20.9745 23.1169 20.4152 22.9992 19.8261 22.9992C16.8448 22.9992 14.6088 25.9805 14.6088 25.9805C14.6088 25.9805 16.8448 28.962 19.8261 28.962C21.5741 28.962 23.0649 27.9375 24.0001 27.0894C24.9352 27.9374 26.426 28.962 28.174 28.962C31.1554 28.962 33.3914 25.9805 33.3914 25.9805C33.3914 25.9805 31.1552 22.9992 28.1738 22.9992Z" fill="#F0F0F0"/>
<path d="M24.0001 9.39136L24.6159 11.2866H26.6087L24.9967 12.4581L25.6121 14.3534L24.0001 13.1819L22.388 14.3534L23.0034 12.4581L21.3914 11.2866H23.3842L24.0001 9.39136Z" fill="#FFDA44"/>
<path d="M16.4213 12.7063L17.6062 13.7729L18.9868 12.9759L18.3384 14.4323L19.5232 15.4992L17.9377 15.3325L17.2893 16.7889L16.9576 15.2295L15.3722 15.0628L16.7528 14.2656L16.4213 12.7063Z" fill="#FFDA44"/>
<path d="M10.8743 18.2539L12.4337 18.5853L13.2309 17.2046L13.3975 18.79L14.9568 19.1217L13.5005 19.7702L13.6672 21.3555L12.6002 20.171L11.1439 20.8193L11.941 19.4386L10.8743 18.2539Z" fill="#FFDA44"/>
<path d="M31.578 12.7063L30.3933 13.7729L29.0127 12.9759L29.6609 14.4323L28.4763 15.4992L30.0618 15.3325L30.7102 16.7889L31.0419 15.2295L32.6273 15.0628L31.2467 14.2656L31.578 12.7063Z" fill="#FFDA44"/>
<path d="M37.1248 18.2539L35.5653 18.5853L34.7683 17.2046L34.6015 18.79L33.0422 19.1217L34.4985 19.7702L34.3319 21.3555L35.3988 20.171L36.8551 20.8193L36.058 19.4386L37.1248 18.2539Z" fill="#FFDA44"/>
<path d="M24.0005 37.3098C26.3688 37.3098 28.5516 36.5197 30.3027 35.1903H17.6985C19.4495 36.5196 21.6323 37.3098 24.0005 37.3098Z" fill="#F0F0F0"/>
<path d="M14.4346 31.049C14.7658 31.8071 15.1858 32.517 15.6791 33.1686H32.3214C32.8147 32.5171 33.2347 31.8071 33.566 31.049H14.4346Z" fill="#F0F0F0"/>
</svg>
