<svg width="48" height="48" viewBox="0 0 48 48" fill="none" xmlns="http://www.w3.org/2000/svg">
<path d="M24 48C37.2548 48 48 37.2548 48 24C48 10.7452 37.2548 0 24 0C10.7452 0 0 10.7452 0 24C0 37.2548 10.7452 48 24 48Z" fill="#338AF3"/>
<path d="M23.2426 39.1115C22.5957 39.0802 22.0604 38.6597 21.8506 38.0889C21.4802 38.572 20.8437 38.8152 20.2166 38.6535C19.5884 38.4917 19.1491 37.9721 19.0583 37.3689C18.597 37.7674 17.925 37.8759 17.3439 37.5912C16.7616 37.3052 16.4361 36.7072 16.4695 36.0989C15.9384 36.3973 15.258 36.3681 14.7457 35.9716C14.2344 35.575 14.0351 34.9249 14.1895 34.3353C13.6093 34.5211 12.9498 34.3562 12.5272 33.8647C12.1046 33.3743 12.0398 32.6971 12.3091 32.1513C11.7039 32.2159 11.0904 31.9217 10.7752 31.3562C10.459 30.7907 10.5321 30.1135 10.9066 29.6323C10.3004 29.5739 9.75774 29.1617 9.56367 28.5439C9.36858 27.9262 9.57727 27.2772 10.0416 26.8817C9.45933 26.702 9.01271 26.1887 8.94699 25.545C8.88127 24.9012 9.21521 24.3095 9.74836 24.0152C9.21511 23.723 8.87911 23.1315 8.94277 22.4886C8.94277 22.4886 8.94277 22.4886 8.9438 22.4886C9.00746 21.8437 9.45408 21.3294 10.0352 21.1477C9.57089 20.7533 9.36014 20.1053 9.55317 19.4875C9.74621 18.8687 10.2877 18.4555 10.8941 18.3949C10.5195 17.9149 10.4444 17.2376 10.7584 16.6712C11.0725 16.1056 11.6861 15.8102 12.2924 15.8739C12.021 15.3282 12.0847 14.6509 12.5063 14.1585C12.9269 13.667 13.5863 13.5011 14.1675 13.6847C14.011 13.0962 14.2093 12.4451 14.7206 12.0476C15.2309 11.6499 15.9112 11.6196 16.4423 11.916C16.4079 11.3077 16.7324 10.7097 17.3136 10.4227C17.8938 10.1368 18.5669 10.2433 19.029 10.6418C19.1177 10.0388 19.557 9.51709 20.1841 9.35415C20.8102 9.1914 21.4468 9.43243 21.8182 9.9145C22.0279 9.34375 22.5622 8.92215 23.2092 8.88981C23.8551 8.85653 24.429 9.21953 24.6961 9.76543C25.0155 9.24784 25.6228 8.94109 26.2624 9.03812C26.9031 9.13412 27.3946 9.60568 27.547 10.1954C27.9644 9.75071 28.6217 9.57446 29.229 9.79768C29.8374 10.022 30.2235 10.5834 30.2527 11.1928C30.7504 10.8422 31.4308 10.8015 31.9807 11.1437C32.5306 11.485 32.7946 12.1121 32.7007 12.7142C33.259 12.4711 33.9331 12.5681 34.4026 13.0126C34.8722 13.4582 35.0057 14.1249 34.7929 14.6957C35.3887 14.5694 36.0295 14.799 36.4009 15.3301C36.7724 15.8601 36.7693 16.5405 36.4469 17.057C37.0552 17.0528 37.6365 17.4077 37.8942 18.0014C38.1509 18.5961 38.01 19.263 37.5895 19.7043C38.1874 19.8233 38.6851 20.2877 38.8166 20.9221C38.947 21.5565 38.6746 22.1794 38.1749 22.527C38.7342 22.764 39.1286 23.3179 39.1296 23.9649C39.1296 23.9721 39.1296 23.9785 39.1296 23.9858C39.1296 23.99 39.1296 23.9952 39.1296 23.9994C39.1296 24.6463 38.7373 25.2015 38.178 25.4404C38.6789 25.7859 38.9533 26.4088 38.8229 27.0432C38.6935 27.6776 38.1968 28.1431 37.5989 28.2641C38.0205 28.7044 38.1634 29.3702 37.9078 29.966C37.6521 30.5608 37.0709 30.9167 36.4615 30.9135C36.7849 31.43 36.7902 32.1104 36.4198 32.6415C36.0494 33.1727 35.4097 33.4043 34.8138 33.2791C35.0278 33.8488 34.8952 34.5167 34.4267 34.9633C33.9571 35.409 33.2841 35.5069 32.7258 35.2659C32.8208 35.8669 32.5578 36.4952 32.0089 36.8385C31.46 37.1818 30.7797 37.142 30.2809 36.7925C30.2527 37.4019 29.8687 37.9644 29.2615 38.1898C29.2615 38.1898 29.2615 38.1898 29.2605 38.1898C28.6531 38.4141 27.9958 38.2389 27.5774 37.7955C27.4271 38.3861 26.9367 38.8587 26.296 38.9568C25.6563 39.0539 25.048 38.7492 24.7276 38.2316C24.473 38.7565 23.9346 39.1133 23.321 39.1133C23.2949 39.1137 23.2688 39.1127 23.2426 39.1115Z" fill="#F3F3F3"/>
<path d="M24.0007 34.4347C29.7636 34.4347 34.4354 29.7629 34.4354 23.9999C34.4354 18.237 29.7636 13.5652 24.0007 13.5652C18.2377 13.5652 13.5659 18.237 13.5659 23.9999C13.5659 29.7629 18.2377 34.4347 24.0007 34.4347Z" fill="#338AF3"/>
<path d="M26.2845 20.458C26.7972 20.0778 27.1309 19.47 27.1309 18.7826V17.7392C27.1309 16.5865 26.1966 15.6522 25.0439 15.6522H22.9571C21.8044 15.6522 20.8701 16.5865 20.8701 17.7392V18.7826C20.8701 19.47 21.2038 20.0778 21.7165 20.458L19.8267 39.6521C19.8267 39.6521 20.8701 40.6958 24.0006 40.6958C27.1311 40.6958 28.1745 39.6521 28.1745 39.6521L26.2845 20.458Z" fill="#BDBCC1"/>
<path d="M24.0005 15.6522L25.8134 21.232H31.6808L26.9342 24.6809L28.7471 30.2609L24.0005 26.8123L19.2538 30.2609L21.067 24.6809L16.3203 21.232H22.1875L24.0005 15.6522Z" fill="#F0F0F0"/>
</svg>
