<svg width="48" height="48" viewBox="0 0 48 48" fill="none" xmlns="http://www.w3.org/2000/svg">
<path d="M24 48C37.2548 48 48 37.2548 48 24C48 10.7452 37.2548 0 24 0C10.7452 0 0 10.7452 0 24C0 37.2548 10.7452 48 24 48Z" fill="#F0F0F0"/>
<path d="M47.7946 20.8695C47.1326 15.8083 44.8591 10.9178 40.9709 7.02947C37.0826 3.14119 32.1919 0.867659 27.1307 0.205597L27.1308 20.8695H47.7946Z" fill="#0052B4"/>
<path d="M20.8709 0.205597C15.8098 0.867659 10.9191 3.1411 7.03081 7.02938C3.14263 10.9178 0.869094 15.8084 0.207031 20.8697L20.871 20.8696L20.8709 0.205597Z" fill="#0052B4"/>
<path d="M0.207031 27.1305C0.869094 32.1917 3.14263 37.0825 7.03081 40.9707C10.9191 44.8588 15.8097 47.1323 20.871 47.7946L20.8709 27.1307L0.207031 27.1305Z" fill="#0052B4"/>
<path d="M27.1317 47.7943C32.1929 47.1323 37.0835 44.8588 40.9717 40.9706C44.86 37.0823 47.1335 32.1917 47.7955 27.1305H27.1317V47.7943Z" fill="#0052B4"/>
<path d="M32.1924 15.2286C32.1924 14.9095 32.4518 14.6501 32.771 14.6501H34.0108C35.9705 14.6501 37.5649 13.0557 37.5649 11.0961C37.5649 9.13643 35.9706 7.54203 34.0108 7.54203H32.8334C32.4492 7.25337 31.9336 7.07534 31.3649 7.07534C30.1787 7.07534 29.2171 7.84456 29.2171 8.7935C29.2171 9.73325 30.1604 10.4956 31.3307 10.5104L31.3302 10.5173H34.0108C34.33 10.5173 34.5894 10.7768 34.5894 11.0959C34.5894 11.415 34.33 11.6744 34.0108 11.6744H32.771C30.8113 11.6744 29.217 13.2687 29.217 15.2284C29.217 17.1881 30.8112 18.7825 32.771 18.7825H37.5648V15.807H32.771C32.4518 15.8071 32.1924 15.5477 32.1924 15.2286Z" fill="#F0F0F0"/>
<path d="M13.4113 15.2286C13.4113 14.9095 13.6708 14.6501 13.99 14.6501H15.2297C17.1895 14.6501 18.7839 13.0557 18.7839 11.0961C18.7839 9.13643 17.1896 7.54203 15.2297 7.54203H14.0524C13.6681 7.25337 13.1526 7.07534 12.5839 7.07534C11.3977 7.07534 10.4361 7.84456 10.4361 8.7935C10.4361 9.73325 11.3793 10.4956 12.5497 10.5104L12.5491 10.5173H15.2298C15.549 10.5173 15.8084 10.7768 15.8084 11.0959C15.8084 11.415 15.549 11.6744 15.2298 11.6744H13.9901C12.0303 11.6744 10.4361 13.2687 10.4361 15.2284C10.4361 17.1881 12.0302 18.7825 13.9901 18.7825H18.7838V15.807H13.99C13.6708 15.8071 13.4113 15.5477 13.4113 15.2286Z" fill="#F0F0F0"/>
<path d="M32.1915 37.3707C32.1915 37.0515 32.4509 36.7921 32.7701 36.7921H34.0099C35.9696 36.7921 37.564 35.1978 37.564 33.2382C37.564 31.2785 35.9697 29.6841 34.0099 29.6841H32.8326C32.4483 29.3954 31.9328 29.2174 31.3641 29.2174C30.1778 29.2174 29.2162 29.9867 29.2162 30.9356C29.2162 31.8753 30.1594 32.6377 31.3298 32.6525L31.3292 32.6593H34.0098C34.329 32.6593 34.5884 32.9188 34.5884 33.238C34.5884 33.5571 34.329 33.8165 34.0098 33.8165H32.77C30.8103 33.8165 29.2161 35.4108 29.2161 37.3705C29.2161 39.3301 30.8102 40.9245 32.77 40.9245H37.5639V37.9492H32.7701C32.4509 37.9493 32.1915 37.6897 32.1915 37.3707Z" fill="#F0F0F0"/>
<path d="M13.4105 37.3707C13.4105 37.0515 13.6699 36.7921 13.9891 36.7921H15.2288C17.1886 36.7921 18.783 35.1978 18.783 33.2382C18.783 31.2785 17.1887 29.6841 15.2288 29.6841H14.0515C13.6672 29.3954 13.1517 29.2174 12.583 29.2174C11.3967 29.2174 10.4351 29.9867 10.4351 30.9356C10.4351 31.8753 11.3783 32.6377 12.5487 32.6525L12.5481 32.6593H15.2288C15.5481 32.6593 15.8075 32.9188 15.8075 33.238C15.8075 33.5571 15.5481 33.8165 15.2288 33.8165H13.9891C12.0293 33.8165 10.4351 35.4108 10.4351 37.3705C10.4351 39.3301 12.0292 40.9245 13.9891 40.9245H18.7829V37.9492H13.9891C13.6699 37.9493 13.4105 37.6897 13.4105 37.3707Z" fill="#F0F0F0"/>
</svg>
