<svg width="48" height="48" viewBox="0 0 48 48" fill="none" xmlns="http://www.w3.org/2000/svg">
<path d="M24 48C37.2548 48 48 37.2548 48 24C48 10.7452 37.2548 0 24 0C10.7452 0 0 10.7452 0 24C0 37.2548 10.7452 48 24 48Z" fill="#496E2D"/>
<path d="M24 27.7267C20.0038 27.7267 16.6654 24.9181 15.8463 21.1676C15.7205 21.7442 15.6522 22.342 15.6522 22.9565C15.6522 27.567 19.3896 31.3043 24 31.3043C28.6104 31.3043 32.3478 27.5669 32.3478 22.9565C32.3478 22.342 32.2795 21.7442 32.1537 21.1675C31.3346 24.9182 27.9962 27.7267 24 27.7267Z" fill="#FFDA44"/>
<path d="M23.9994 16.6956L24.7764 19.0871H27.291L25.2567 20.5651L26.0337 22.9565L23.9994 21.4785L21.9651 22.9565L22.7422 20.5651L20.7079 19.0871H23.2224L23.9994 16.6956Z" fill="#FFDA44"/>
</svg>
