<svg width="48" height="48" viewBox="0 0 48 48" fill="none" xmlns="http://www.w3.org/2000/svg">
<path d="M48 24C48 37.2547 37.2547 48 24 48C10.7452 48 0 37.2547 0 24C0 24.0057 24 0.002625 24 0C37.2547 0 48 10.7452 48 24Z" fill="#0052B4"/>
<path d="M23.9363 24.0001H24.0005C24.0005 23.9785 24.0005 23.9575 24.0005 23.9358C23.9791 23.9573 23.9577 23.9787 23.9363 24.0001Z" fill="#F0F0F0"/>
<path d="M24 12.5217C24 8.29875 24 5.53172 24 0H23.996C10.7429 0.00225 0 10.7465 0 24H12.5217V16.949L19.5728 24H23.9359C23.9572 23.9786 23.9786 23.9573 24.0001 23.9358C24.0001 22.3189 24.0001 20.8762 24.0001 19.5729L16.9489 12.5217H24Z" fill="#F0F0F0"/>
<path d="M12.1424 3.13042C8.38871 5.26782 5.26806 8.38839 3.13074 12.142V24H9.39165V9.39151V9.39132H24.0003C24.0003 7.41667 24.0003 5.53548 24.0003 3.13042H12.1424Z" fill="#D80027"/>
<path d="M24.0005 21.0486L15.4735 12.5218H12.5222V12.522L24.0003 23.9999H24.0005C24.0005 23.9999 24.0005 21.9649 24.0005 21.0486Z" fill="#D80027"/>
<path d="M27.1307 12.5218V24C27.1307 29.5912 34.4351 31.3044 34.4351 31.3044C34.4351 31.3044 41.7394 29.5912 41.7394 24V12.5218H27.1307Z" fill="#338AF3"/>
<path d="M27.1307 23.9999C27.1307 29.5911 34.4351 31.3043 34.4351 31.3043C34.4351 31.3043 41.7394 29.5911 41.7394 23.9999H27.1307Z" fill="#A2001D"/>
<path d="M37.5661 17.7393H35.479V15.6522H33.392V17.7393H31.3051V19.8261H33.392V26.0869H35.479V19.8261H37.5661V17.7393Z" fill="black"/>
</svg>
