<svg width="48" height="48" viewBox="0 0 48 48" fill="none" xmlns="http://www.w3.org/2000/svg">
<path d="M2.91821 12.5217L24.0001 14.6087L45.0819 12.5217C41.0114 5.06147 33.0971 0 24.0001 0C14.903 0 6.98874 5.06147 2.91821 12.5217Z" fill="#D80027"/>
<path d="M2.91816 35.4783L24 37.5652L45.0818 35.4783C46.9422 32.0685 48 28.1578 48 24L24 21.913L0 24C0 28.1578 1.05778 32.0685 2.91816 35.4783Z" fill="#FFDA44"/>
<path d="M2.91816 12.5218C1.05778 15.9316 0 19.8422 0 24.0001H48C48 19.8422 46.9422 15.9316 45.0818 12.5218H24H2.91816Z" fill="#0052B4"/>
<path d="M24.0001 47.9999C33.0971 47.9999 41.0114 42.9385 45.0819 35.4782H2.91821C6.98874 42.9385 14.903 47.9999 24.0001 47.9999Z" fill="#6DA544"/>
</svg>
