<svg width="48" height="48" viewBox="0 0 48 48" fill="none" xmlns="http://www.w3.org/2000/svg">
<path d="M24 48C37.2548 48 48 37.2548 48 24C48 10.7452 37.2548 0 24 0C10.7452 0 0 10.7452 0 24C0 37.2548 10.7452 48 24 48Z" fill="#D80027"/>
<path d="M39.6521 12.5218H8.34778V35.4783H39.6521V12.5218Z" fill="#6DA544"/>
<path d="M27.8638 30.7826C24.1179 30.7826 21.0812 27.7458 21.0812 23.9999C21.0812 20.2541 24.1179 17.2173 27.8638 17.2173C29.0318 17.2173 30.1308 17.5126 31.0902 18.0326C29.5851 16.5606 27.5268 15.6521 25.2551 15.6521C20.6449 15.6521 16.9073 19.3895 16.9073 23.9999C16.9073 28.6102 20.6449 32.3476 25.2551 32.3476C27.5268 32.3476 29.5852 31.4391 31.0902 29.9671C30.1308 30.4873 29.0318 30.7826 27.8638 30.7826Z" fill="#F0F0F0"/>
</svg>
