<svg width="48" height="48" viewBox="0 0 48 48" fill="none" xmlns="http://www.w3.org/2000/svg">
<g clip-path="url(#clip0)">
<path d="M0 23.9999C0 26.9356 0.528094 29.7478 1.49278 32.3477L24 33.3913L46.5072 32.3478C47.472 29.7478 48 26.9356 48 23.9999C48 21.0643 47.472 18.2521 46.5072 15.6522L24 14.6086L1.49278 15.6521C0.528094 18.2521 0 21.0643 0 23.9999Z" fill="#D80027"/>
<path d="M23.9993 0C13.6801 0 4.8831 6.513 1.49207 15.6522H46.5066C43.1155 6.513 34.3184 0 23.9993 0Z" fill="black"/>
<path d="M46.5065 32.3478H1.49207C4.8831 41.4869 13.6801 48 23.9993 48C34.3184 48 43.1155 41.4869 46.5065 32.3478Z" fill="#496E2D"/>
<path d="M31.1738 11.4783L28.2428 10.0996L29.8037 7.26097L26.6209 7.86987L26.2175 4.65443L24.0005 7.01928L21.7836 4.65443L21.3802 7.86987L18.1975 7.26097L19.7584 10.0996L16.8273 11.4783H31.1738Z" fill="#D80027"/>
</g>
<defs>
<clipPath id="clip0">
<rect width="48" height="48" fill="white"/>
</clipPath>
</defs>
</svg>
