<svg width="48" height="48" viewBox="0 0 48 48" fill="none" xmlns="http://www.w3.org/2000/svg">
<path d="M24 48C37.2548 48 48 37.2548 48 24C48 10.7452 37.2548 0 24 0C10.7452 0 0 10.7452 0 24C0 37.2548 10.7452 48 24 48Z" fill="#F0F0F0"/>
<path d="M47.9993 24C47.9993 14.485 42.462 6.26345 34.4341 2.38145V45.6185C42.462 41.7366 47.9993 33.5151 47.9993 24Z" fill="#D80027"/>
<path d="M0 24C0 33.5151 5.53734 41.7366 13.5653 45.6186V2.38145C5.53734 6.26345 0 14.485 0 24Z" fill="#6DA544"/>
<path d="M17.7393 24C17.7393 27.4578 20.5424 30.2609 24.0002 30.2609C27.458 30.2609 30.2611 27.4578 30.2611 24V21.913H17.7393V24Z" fill="#6DA544"/>
<path d="M32.3477 19.826H26.0868C26.0868 18.6735 25.1524 17.7391 23.9998 17.7391C22.8473 17.7391 21.9129 18.6735 21.9129 19.826H15.652C15.652 20.9787 16.6559 21.913 17.8084 21.913H17.7389C17.7389 23.0656 18.6733 23.9999 19.8259 23.9999C19.8259 25.1526 20.7602 26.0869 21.9129 26.0869H26.0868C27.2395 26.0869 28.1738 25.1526 28.1738 23.9999C29.3264 23.9999 30.2607 23.0656 30.2607 21.913H30.1912C31.3438 21.913 32.3477 20.9787 32.3477 19.826Z" fill="#FF9811"/>
</svg>
