<svg width="48" height="48" viewBox="0 0 48 48" fill="none" xmlns="http://www.w3.org/2000/svg">
<g clip-path="url(#clip0)">
<path d="M24 48C37.2548 48 48 37.2548 48 24C48 10.7452 37.2548 0 24 0C10.7452 0 0 10.7452 0 24C0 37.2548 10.7452 48 24 48Z" fill="#F0F0F0"/>
<path d="M22.9574 24H48.0008C48.0008 21.8337 47.7121 19.7354 47.1741 17.7391H22.9574V24Z" fill="#D80027"/>
<path d="M22.9574 11.4783H44.4783C43.0091 9.08092 41.1308 6.96189 38.9406 5.21739H22.9574V11.4783Z" fill="#D80027"/>
<path d="M24.0004 48.0001C29.6487 48.0001 34.8403 46.0478 38.9401 42.7827H9.06067C13.1604 46.0478 18.352 48.0001 24.0004 48.0001Z" fill="#D80027"/>
<path d="M3.52317 36.5217H44.478C45.6575 34.5972 46.5721 32.4934 47.1738 30.2608H0.827393C1.42899 32.4934 2.34371 34.5972 3.52317 36.5217Z" fill="#D80027"/>
<path d="M24 24C24 10.7452 24 9.18262 24 0C10.7452 0 0 10.7452 0 24H24Z" fill="#0052B4"/>
<path d="M15.9598 20.5434C12.6821 20.5434 10.025 17.8863 10.025 14.6087C10.025 11.3311 12.6822 8.67394 15.9598 8.67394C16.9817 8.67394 17.9433 8.9324 18.7829 9.38728C17.4659 8.09944 15.6647 7.30444 13.6771 7.30444C9.64318 7.30444 6.3728 10.5747 6.3728 14.6088C6.3728 18.6428 9.64318 21.9131 13.6771 21.9131C15.6647 21.9131 17.4659 21.1181 18.7829 19.8303C17.9433 20.285 16.9818 20.5434 15.9598 20.5434Z" fill="#FFDA44"/>
<path d="M17.6325 10.4348L18.6862 12.6381L21.0656 12.0884L20.0001 14.2858L21.9137 15.8033L19.5311 16.3404L19.5378 18.7827L17.6325 17.2547L15.7271 18.7827L15.7337 16.3404L13.3511 15.8033L15.2648 14.2858L14.1991 12.0884L16.5788 12.6381L17.6325 10.4348Z" fill="#FFDA44"/>
</g>
<defs>
<clipPath id="clip0">
<rect width="48" height="48" fill="white"/>
</clipPath>
</defs>
</svg>
