<svg width="48" height="48" viewBox="0 0 48 48" fill="none" xmlns="http://www.w3.org/2000/svg">
<g clip-path="url(#clip0)">
<path d="M24 48C37.2548 48 48 37.2548 48 24C48 10.7452 37.2548 0 24 0C10.7452 0 0 10.7452 0 24C0 37.2548 10.7452 48 24 48Z" fill="#F0F0F0"/>
<path d="M12.9729 33.3913L7.03088 40.9697C11.3738 45.3132 17.3731 47.9999 24.0007 47.9999C33.9222 47.9999 42.436 41.9785 46.0911 33.3913H12.9729Z" fill="#FFDA44"/>
<path d="M46.1284 14.6956C42.4938 6.06206 33.9558 0 24.0007 0C17.3731 0 11.3738 2.68678 7.03088 7.03022L13.0412 14.6956H46.1284Z" fill="#496E2D"/>
<path d="M5.21707 17.6521V30.2608H47.173C47.7113 28.2648 47.9997 26.1662 47.9997 24C47.9997 21.8023 47.7036 19.6741 47.1502 17.6521H5.21707Z" fill="black"/>
<path d="M7.02893 7.0294C-2.34363 16.402 -2.34363 31.598 7.02893 40.9706C10.902 37.0975 14.627 33.3726 23.9996 24L7.02893 7.0294Z" fill="#A2001D"/>
<path d="M9.71377 17.7391L11.2677 22.5218H16.297L12.2284 25.4779L13.7822 30.2609L9.71377 27.3048L5.64511 30.2609L7.1993 25.4779L3.13074 22.5218H8.15967L9.71377 17.7391Z" fill="#FFDA44"/>
<path d="M14.2619 24H5.16589V28.1739H14.2619V24Z" fill="#F0F0F0"/>
<path d="M15.9838 19.2149L14.508 17.7391L9.71292 22.5342L4.9178 17.7391L3.44208 19.2149L8.24142 24.0057L3.44208 28.8051L4.9178 30.2609L9.71292 25.4744L14.508 30.2609L15.9838 28.8051L11.1844 24.0057L15.9838 19.2149Z" fill="black"/>
</g>
<defs>
<clipPath id="clip0">
<rect width="48" height="48" fill="white"/>
</clipPath>
</defs>
</svg>
