<svg width="48" height="48" viewBox="0 0 48 48" fill="none" xmlns="http://www.w3.org/2000/svg">
<path d="M24 48C37.2548 48 48 37.2548 48 24C48 10.7452 37.2548 0 24 0C10.7452 0 0 10.7452 0 24C0 37.2548 10.7452 48 24 48Z" fill="#F0F0F0"/>
<path d="M7.02902 40.9707C8.0358 41.9775 9.10998 42.8753 10.2368 43.6658L43.6651 10.2374C42.8747 9.11059 41.9769 8.03641 40.97 7.02963C39.9632 6.02284 38.889 5.12509 37.7622 4.33459L4.33398 37.763C5.12439 38.8896 6.02223 39.9639 7.02902 40.9707Z" fill="#A2001D"/>
<path d="M7.031 7.02943C-0.540622 14.6011 -1.99412 25.9722 2.66741 35.0042L35.0057 2.66603C25.9737 -1.99551 14.6024 -0.541818 7.031 7.02943Z" fill="#0052B4"/>
<path d="M40.9713 40.9707C48.5427 33.3992 49.9962 22.028 45.3349 12.9958L12.9966 45.3342C22.0286 49.9957 33.3998 48.5422 40.9713 40.9707Z" fill="#496E2D"/>
<path d="M19.8276 13.5652L17.1383 14.8302L18.5704 17.4348L15.6502 16.8762L15.2801 19.826L13.2461 17.6564L11.212 19.826L10.8421 16.8762L7.92174 17.4347L9.35377 14.8301L6.66455 13.5652L9.35386 12.3002L7.92174 9.69579L10.842 10.2544L11.2121 7.30432L13.2461 9.47407L15.2802 7.30432L15.6502 10.2544L18.5704 9.69579L17.1385 12.3003L19.8276 13.5652Z" fill="#FFDA44"/>
</svg>
