<svg width="48" height="48" viewBox="0 0 48 48" fill="none" xmlns="http://www.w3.org/2000/svg">
<g clip-path="url(#clip0)">
<path d="M2.38144 13.5652C0.85575 16.7205 0 20.2602 0 24C0 27.7398 0.85575 31.2795 2.38144 34.4347L24 36.5217L45.6186 34.4347C47.1442 31.2795 48 27.7398 48 24C48 20.2602 47.1442 16.7205 45.6186 13.5652L24 11.4783L2.38144 13.5652Z" fill="#F0F0F0"/>
<path d="M2.38281 34.4348C6.26462 42.4627 14.4855 48.0001 24.0005 48.0001C33.5156 48.0001 41.7364 42.4627 45.6182 34.4348H2.38281Z" fill="#6DA544"/>
<path d="M2.38281 13.5653H45.6182C41.7364 5.53734 33.5155 0 24.0005 0C14.4856 0 6.26462 5.53734 2.38281 13.5653Z" fill="#FF9811"/>
<path d="M23.9996 32.3478C28.61 32.3478 32.3474 28.6104 32.3474 24C32.3474 19.3897 28.61 15.6522 23.9996 15.6522C19.3893 15.6522 15.6519 19.3897 15.6519 24C15.6519 28.6104 19.3893 32.3478 23.9996 32.3478Z" fill="#FF9811"/>
</g>
<defs>
<clipPath id="clip0">
<rect width="48" height="48" fill="white"/>
</clipPath>
</defs>
</svg>
