<svg width="48" height="48" viewBox="0 0 48 48" fill="none" xmlns="http://www.w3.org/2000/svg">
<path d="M24 48C37.2548 48 48 37.2548 48 24C48 10.7452 37.2548 0 24 0C10.7452 0 0 10.7452 0 24C0 37.2548 10.7452 48 24 48Z" fill="#F0F0F0"/>
<path d="M23.9999 0C14.4848 0 6.26335 5.53734 2.38135 13.5653H45.6184C41.7365 5.53734 33.5149 0 23.9999 0Z" fill="#338AF3"/>
<path d="M23.9999 48.0001C33.5149 48.0001 41.7365 42.4627 45.6185 34.4348H2.38135C6.26335 42.4627 14.4848 48.0001 23.9999 48.0001Z" fill="#338AF3"/>
<path d="M23.9992 16.6957C19.9651 16.6957 16.6948 19.966 16.6948 24C16.6948 28.0341 19.9651 31.3044 23.9992 31.3044C28.0332 31.3044 31.3035 28.0341 31.3035 24C31.3035 19.966 28.0332 16.6957 23.9992 16.6957ZM23.9992 28.174C21.694 28.174 19.8252 26.3053 19.8252 24C19.8252 21.6947 21.6939 19.8261 23.9992 19.8261C26.3044 19.8261 28.1731 21.6947 28.1731 24C28.1731 26.3053 26.3043 28.174 23.9992 28.174Z" fill="#FFDA44"/>
<path d="M27.6152 25.0434L24.0004 24L20.3855 25.0434L19.1807 27.1304H28.8199L27.6152 25.0434Z" fill="#0052B4"/>
<path d="M24.0002 18.7826L21.5903 22.9565L24.0002 24L26.41 22.9565L24.0002 18.7826Z" fill="#338AF3"/>
<path d="M20.3857 25.0434H27.6154L26.4104 22.9565H21.5907L20.3857 25.0434Z" fill="#6DA544"/>
</svg>
