<svg width="48" height="48" viewBox="0 0 48 48" fill="none" xmlns="http://www.w3.org/2000/svg">
<path d="M24 48C37.2548 48 48 37.2548 48 24C48 10.7452 37.2548 0 24 0C10.7452 0 0 10.7452 0 24C0 37.2548 10.7452 48 24 48Z" fill="#F0F0F0"/>
<path d="M0.827148 30.261C2.21577 35.4134 5.27624 39.8791 9.39168 43.0412V30.261H0.827148Z" fill="#D80027"/>
<path d="M21.9136 47.9088C22.6015 47.968 23.2972 48.0001 24.0005 48.0001C35.0892 48.0001 44.4198 40.4794 47.1738 30.261H21.9136V47.9088Z" fill="#D80027"/>
<path d="M47.1738 17.7391C44.4198 7.52072 35.0892 0 24.0005 0C23.2972 0 22.6015 0.0320625 21.9136 0.0913125V17.7391H47.1738Z" fill="#D80027"/>
<path d="M9.39168 4.95886C5.27624 8.12105 2.21577 12.5866 0.827148 17.739H9.39168V4.95886Z" fill="#D80027"/>
<path d="M47.7968 20.8696H18.7827H18.7826V0.570435C16.5647 1.06225 14.462 1.8594 12.5217 2.91812V20.8694V20.8695H0.203156C0.0695625 21.8942 0 22.939 0 24C0 25.0609 0.0695625 26.1057 0.203156 27.1304H12.5216H12.5217V45.0817C14.462 46.1403 16.5647 46.9377 18.7826 47.4294V27.1307V27.1305H47.7968C47.9303 26.1057 48 25.0609 48 24C48 22.939 47.9303 21.8942 47.7968 20.8696Z" fill="#0052B4"/>
</svg>
