<svg width="48" height="48" viewBox="0 0 48 48" fill="none" xmlns="http://www.w3.org/2000/svg">
<g clip-path="url(#clip0)">
<path d="M24 48C37.2548 48 48 37.2548 48 24C48 10.7452 37.2548 0 24 0C10.7452 0 0 10.7452 0 24C0 37.2548 10.7452 48 24 48Z" fill="#F0F0F0"/>
<path d="M47.8605 26.6087L47.86 26.6079L47.8599 26.6087H47.8605Z" fill="#0052B4"/>
<path d="M47.8584 26.6087C47.8584 26.6085 47.8585 26.6083 47.8585 26.6079L21.5387 0.124756C20.3513 0.245787 19.1895 0.45335 18.0597 0.741068C7.67794 3.38435 0 24 0 24C0 24 33.5998 46.4845 37.433 43.8904C38.1999 43.3713 38.9353 42.8091 39.6354 42.2073L24.037 26.6087H47.8584Z" fill="#0052B4"/>
<path d="M41.7391 24L18.398 0.658936C7.84575 3.1824 0 12.6742 0 24C0 37.2547 10.7452 48 24 48C29.0277 48 33.6935 46.4529 37.5496 43.8104L17.7391 24H41.7391Z" fill="#D80027"/>
<path d="M22.8252 35.4368L19.8941 34.0581L21.4549 31.2194L18.2721 31.8284L17.8688 28.6129L15.6519 30.9778L13.435 28.6129L13.0316 31.8284L9.84886 31.2194L11.4097 34.0581L8.47852 35.4368L11.4097 36.8154L9.84886 39.6541L13.0318 39.0453L13.4349 42.2606L15.6519 39.8957L17.8688 42.2606L18.2721 39.0453L21.4548 39.6542L19.894 36.8156L22.8252 35.4368Z" fill="#F0F0F0"/>
<path d="M20.8689 13.3109L18.7371 12.3082L19.8723 10.2436L17.5573 10.6865L17.264 8.34778L15.6516 10.0678L14.0391 8.34778L13.7457 10.6865L11.4307 10.2436L12.5661 12.3082L10.4341 13.3109L15.6516 14.3545L20.8689 13.3109Z" fill="#F0F0F0"/>
<path d="M21.9139 13.3109C21.9139 16.7687 19.1108 19.5718 15.653 19.5718C12.1952 19.5718 9.39209 16.7687 9.39209 13.3109" fill="#F0F0F0"/>
</g>
<defs>
<clipPath id="clip0">
<rect width="48" height="48" fill="white"/>
</clipPath>
</defs>
</svg>
