<svg width="48" height="48" viewBox="0 0 48 48" fill="none" xmlns="http://www.w3.org/2000/svg">
<path d="M24 48C37.2548 48 48 37.2548 48 24C48 10.7452 37.2548 0 24 0C10.7452 0 0 10.7452 0 24C0 37.2548 10.7452 48 24 48Z" fill="#0052B4"/>
<path d="M24 48C37.2548 48 48 37.2548 48 24C48 10.7452 37.2548 0 24 0C10.7452 0 0 10.7452 0 24C0 37.2548 10.7452 48 24 48Z" fill="#FFDA44"/>
<path d="M23.9984 0C11.4468 0 1.14762 9.63572 0.0898438 21.913H47.9071C46.8493 9.63572 36.5501 0 23.9984 0Z" fill="#0052B4"/>
<path d="M23.9984 47.9999C36.5501 47.9999 46.8493 38.3642 47.9071 26.0869H0.0898438C1.14762 38.3642 11.4468 47.9999 23.9984 47.9999Z" fill="#0052B4"/>
<path d="M19.8277 32.3477L17.1384 33.6128L18.5704 36.2173L15.6502 35.6586L15.2802 38.6086L13.2461 36.439L11.2121 38.6086L10.8421 35.6586L7.92174 36.2172L9.35386 33.6127L6.66455 32.3477L9.35396 31.0828L7.92174 28.4784L10.842 29.0369L11.2122 26.0869L13.2461 28.2566L15.2803 26.0869L15.6502 29.0369L18.5705 28.4784L17.1385 31.0829L19.8277 32.3477Z" fill="#F0F0F0"/>
</svg>
