<svg width="48" height="48" viewBox="0 0 48 48" fill="none" xmlns="http://www.w3.org/2000/svg">
<path d="M48 24C48 37.2547 37.2547 48 24 48C10.7452 48 0 37.2547 0 24C0 24.0057 24 0.002625 24 0C37.2547 0 48 10.7452 48 24Z" fill="#FFDA44"/>
<path d="M23.9996 11.4783V19.5729L15.6519 11.4783H23.9996Z" fill="#0052B4"/>
<path d="M12.521 23.9999H19.572L12.521 14.6086L11.4775 21.913L12.521 23.9999Z" fill="#0052B4"/>
<path d="M23.9365 24H24.0007C24.0007 23.9784 24.0007 23.9574 24.0007 23.9358C23.9794 23.9573 23.958 23.9786 23.9365 24Z" fill="#F0F0F0"/>
<path d="M24 12.5217C24 8.29875 24 5.53172 24 0H23.996C10.7429 0.00225 0 10.7465 0 24H12.5217V16.949L19.5728 24H23.9359C23.9572 23.9786 23.9786 23.9573 24.0001 23.9358C24.0001 22.3189 24.0001 20.8762 24.0001 19.5729L16.9489 12.5217H24Z" fill="#F0F0F0"/>
<path d="M24.0007 21.0486L15.4737 12.5217H12.5225V12.5219L24.0006 23.9999H24.0007C24.0007 23.9999 24.0007 21.9649 24.0007 21.0486Z" fill="#D80027"/>
<path d="M12.1425 3.13037C11.2173 3.65725 10.3309 4.2444 9.48786 4.88537H10.4726L7.86992 6.77668L8.86386 9.8364L6.26117 7.94547L5.98423 8.14675C4.90358 9.37393 3.94545 10.7116 3.13086 12.142V24H9.39177V9.39147V9.39128H24.0005C24.0005 7.41662 24.0005 5.53543 24.0005 3.13037H12.1425Z" fill="#D80027"/>
<path d="M10.253 4.32678C9.99415 4.508 9.73896 4.69428 9.48762 4.88544L7.86996 6.77675L6.26121 7.94544L5.98193 8.14831C5.39262 8.81769 4.83996 9.52006 4.32715 10.2525C4.91168 10.5362 5.56784 10.6957 6.26121 10.6957C8.71052 10.6957 10.696 8.71025 10.696 6.26094C10.6961 5.56738 10.5368 4.91141 10.253 4.32678Z" fill="#0052B4"/>
<path d="M5.97998 8.14825L6.25926 7.94538L8.86195 9.83641L7.86792 6.77669L10.4704 4.88538H9.48548C8.21104 5.85466 7.03664 6.94816 5.97998 8.14825Z" fill="#FFDA44"/>
<path d="M16.5871 4.17395L17.1051 5.76817H18.7814L17.4253 6.75358L17.9431 8.3478L16.5871 7.36248L15.231 8.3478L15.7487 6.75358L14.3926 5.76817H16.0689L16.5871 4.17395Z" fill="#FFDA44"/>
<path d="M6.25984 14.6088L6.7779 16.203H8.45415L7.09815 17.1885L7.61593 18.7827L6.25984 17.7973L4.90365 18.7827L5.42143 17.1885L4.06543 16.203H5.74168L6.25984 14.6088Z" fill="#FFDA44"/>
</svg>
