<svg width="48" height="48" viewBox="0 0 48 48" fill="none" xmlns="http://www.w3.org/2000/svg">
<path d="M48 24C48 37.2547 37.2547 48 24 48C10.7452 48 0 37.2547 0 24C0 24.0057 24 0.002625 24 0C37.2547 0 48 10.7452 48 24Z" fill="#0052B4"/>
<path d="M23.9365 24H24.0007C24.0007 23.9784 24.0007 23.9574 24.0007 23.9358C23.9794 23.9573 23.958 23.9786 23.9365 24Z" fill="#F0F0F0"/>
<path d="M24 12.5217C24 8.29875 24 5.53172 24 0H23.996C10.743 0.00225 0 10.7465 0 24H12.5217V16.949L19.5728 24H23.9359C23.9572 23.9786 23.9787 23.9573 24.0001 23.9358C24.0001 22.3189 24.0001 20.8762 24.0001 19.5729L16.9489 12.5217H24Z" fill="#F0F0F0"/>
<path d="M12.1425 3.13037C8.38883 5.26778 5.26827 8.38834 3.13086 12.142V24H9.39177V9.39147V9.39128H24.0005C24.0005 7.41662 24.0005 5.53543 24.0005 3.13037H12.1425Z" fill="#D80027"/>
<path d="M23.9997 21.0486L15.4728 12.5217C15.4728 12.5217 12.5215 12.5219 12.5215 12.5217V12.5219L23.9996 23.9999H23.9997C23.9997 23.9999 23.9997 21.9649 23.9997 21.0486Z" fill="#D80027"/>
<path d="M41.5627 17.8086L42.0806 19.4029H43.757L42.4008 20.3882L42.9189 21.9824L41.5627 20.9972L40.2064 21.9824L40.7244 20.3882L39.3682 19.4029H41.0445L41.5627 17.8086Z" fill="#D80027"/>
<path d="M35.5699 29.2867L36.347 31.6783H38.8614L36.8271 33.1562L37.6043 35.5476L35.5699 34.0697L33.5355 35.5476L34.3127 33.1562L32.2783 31.6783H34.7928L35.5699 29.2867Z" fill="#D80027"/>
<path d="M35.7961 10.5043L36.4437 12.4973H38.5391L36.8437 13.7287L37.4913 15.7216L35.7961 14.4899L34.1009 15.7216L34.7484 13.7287L33.0532 12.4973H35.1485L35.7961 10.5043Z" fill="#D80027"/>
<path d="M30.0313 17.7391L30.8083 20.1307H33.3229L31.2885 21.6086L32.0657 24L30.0313 22.5221L27.9969 24L28.7741 21.6086L26.7397 20.1307H29.2542L30.0313 17.7391Z" fill="#D80027"/>
</svg>
