<svg width="48" height="48" viewBox="0 0 48 48" fill="none" xmlns="http://www.w3.org/2000/svg">
<g clip-path="url(#clip0)">
<path d="M24 48C37.2548 48 48 37.2548 48 24C48 10.7452 37.2548 0 24 0C10.7452 0 0 10.7452 0 24C0 37.2548 10.7452 48 24 48Z" fill="#F0F0F0"/>
<path d="M0 24C0 33.097 5.06156 41.0114 12.5217 45.0818V2.91815C5.06156 6.98859 0 14.903 0 24Z" fill="#D80027"/>
<path d="M46.5073 32.3478C47.472 29.7478 48 26.9357 48 24C48 21.0643 47.472 18.2521 46.5073 15.6522H1.49287C0.528094 18.2521 0 21.0643 0 24C0 26.9357 0.528094 29.7478 1.49287 32.3478L24 34.4347L46.5073 32.3478Z" fill="#D80027"/>
<path d="M23.9983 48C34.3176 48 43.1145 41.487 46.5056 32.3478H1.49121C4.88215 41.487 13.6793 48 23.9983 48Z" fill="#6DA544"/>
<path d="M0 24C0 35.0887 7.52072 44.4193 17.7391 47.1733V0.826813C7.52072 3.58081 0 12.9114 0 24Z" fill="#D80027"/>
<path d="M14.6818 10.5613L12.4683 8.34781L10.9927 9.82362L9.51706 8.34781L7.30353 10.5613L8.77925 12.0371L7.30334 13.5129L9.51687 15.7264L10.9926 14.2506L12.4683 15.7264L14.6818 13.5129L13.2061 12.0371L14.6818 10.5613Z" fill="#F0F0F0"/>
</g>
<defs>
<clipPath id="clip0">
<rect width="48" height="48" fill="white"/>
</clipPath>
</defs>
</svg>
