<svg width="48" height="48" viewBox="0 0 48 48" fill="none" xmlns="http://www.w3.org/2000/svg">
<path d="M24 48C37.2548 48 48 37.2548 48 24C48 10.7452 37.2548 0 24 0C10.7452 0 0 10.7452 0 24C0 37.2548 10.7452 48 24 48Z" fill="#F0F0F0"/>
<path d="M0 24C0 37.2548 10.7452 48 24 48C24 38.873 24 24 24 24C24 24 8.34778 24 0 24Z" fill="#0052B4"/>
<path d="M24 0C37.2548 0 48 10.7452 48 24C38.873 24 24 24 24 24C24 24 24 8.34778 24 0Z" fill="#D80027"/>
<path d="M14.2856 8.34781L15.8397 13.1307H20.8688L16.8002 16.0867L18.3542 20.8696L14.2856 17.9136L10.2171 20.8696L11.7711 16.0867L7.70251 13.1307H12.7315L14.2856 8.34781Z" fill="#0052B4"/>
<path d="M33.7139 27.1304L35.268 31.9133H40.297L36.2283 34.8693L37.7824 39.6522L33.7139 36.6962L29.6453 39.6522L31.1993 34.8693L27.1307 31.9133H32.1598L33.7139 27.1304Z" fill="#D80027"/>
</svg>
