<svg width="48" height="48" viewBox="0 0 48 48" fill="none" xmlns="http://www.w3.org/2000/svg">
<path d="M24 48C37.2548 48 48 37.2548 48 24C48 10.7452 37.2548 0 24 0C10.7452 0 0 10.7452 0 24C0 37.2548 10.7452 48 24 48Z" fill="#F0F0F0"/>
<path d="M23.9995 0V24L7.02893 40.9706C11.3721 45.3137 17.3721 48 23.9995 48C37.2543 48 47.9995 37.2547 47.9995 24C47.9995 10.7452 23.9995 0 23.9995 0Z" fill="#D80027"/>
<path d="M23.9995 0C17.3721 0 11.3721 2.68631 7.02893 7.02938C12.9174 12.9178 15.0077 15.0082 23.9995 24H47.9995C47.9995 10.7452 37.2543 0 23.9995 0Z" fill="#0052B4"/>
<path d="M16.4329 24.0001L13.5019 22.6214L15.0627 19.7827L11.8799 20.3916L11.4766 17.1763L9.25958 19.5411L7.04268 17.1763L6.63927 20.3916L3.45655 19.7826L5.0174 22.6214L2.0863 24.0001L5.0174 25.3788L3.45655 28.2174L6.63955 27.6086L7.04258 30.8239L9.25958 28.4591L11.4766 30.8239L11.8799 27.6086L15.0625 28.2175L13.5018 25.3789L16.4329 24.0001Z" fill="#FFDA44"/>
<path d="M6.39987 9.39136L7.37525 10.7548L8.97322 10.2486L7.97778 11.5975L8.95316 12.9609L7.36259 12.4311L6.36725 13.7799L6.37972 12.1036L4.78925 11.5738L6.3875 11.0676L6.39987 9.39136Z" fill="#FFDA44"/>
<path d="M6.39987 34.2202L7.37525 35.5837L8.97322 35.0774L7.97778 36.4264L8.95316 37.7898L7.36259 37.26L6.36725 38.6088L6.37972 36.9325L4.78925 36.4026L6.3875 35.8965L6.39987 34.2202Z" fill="#FFDA44"/>
<path d="M20.3126 21.8058L19.3373 23.1692L17.7393 22.6628L18.7347 24.0118L17.7593 25.3753L19.3499 24.8454L20.3453 26.1942L20.3328 24.5181L21.9232 23.9882L20.3251 23.482L20.3126 21.8058Z" fill="#FFDA44"/>
</svg>
