<svg width="48" height="48" viewBox="0 0 48 48" fill="none" xmlns="http://www.w3.org/2000/svg">
<path d="M24 48C37.2548 48 48 37.2548 48 24C48 10.7452 37.2548 0 24 0C10.7452 0 0 10.7452 0 24C0 37.2548 10.7452 48 24 48Z" fill="#F0F0F0"/>
<path d="M0 24C0 33.097 5.06147 41.0113 12.5217 45.0818V2.91815C5.06147 6.98868 0 14.903 0 24Z" fill="#F0F0F0"/>
<path d="M23.9988 0C19.841 0 15.9303 1.05778 12.5205 2.91816V45.0817C15.9303 46.9422 19.841 48 23.9988 48C37.2535 48 47.9988 37.2547 47.9988 24C47.9988 10.7452 37.2535 0 23.9988 0Z" fill="#496E2D"/>
<path d="M34.2619 27.9701C31.2256 30.1639 26.9857 29.4811 24.7919 26.4449C22.598 23.4085 23.2809 19.1686 26.3172 16.9749C27.2639 16.2909 28.3276 15.8866 29.4098 15.746C27.3279 15.4347 25.1271 15.9038 23.2861 17.234C19.5492 19.9342 18.7086 25.1524 21.4087 28.8895C24.1088 32.6263 29.3271 33.467 33.0641 30.7666C34.9053 29.4364 36.0416 27.4946 36.3996 25.42C35.9265 26.4031 35.2087 27.286 34.2619 27.9701Z" fill="#F0F0F0"/>
<path d="M34.1323 15.6524L35.8427 17.4956L38.1242 16.4389L36.8995 18.6349L38.6098 20.4783L36.1427 19.9922L34.9181 22.1884L34.618 19.6918L32.1509 19.2057L34.4325 18.149L34.1323 15.6524Z" fill="#F0F0F0"/>
</svg>
