<svg width="48" height="48" viewBox="0 0 48 48" fill="none" xmlns="http://www.w3.org/2000/svg">
<path d="M48 24C48 37.2547 37.2547 48 24 48C10.7452 48 0 37.2547 0 24C0 24.0057 24 0.002625 24 0C37.2547 0 48 10.7452 48 24Z" fill="#0052B4"/>
<path d="M23.9363 24.0001H24.0005C24.0005 23.9785 24.0005 23.9575 24.0005 23.9359C23.9791 23.9573 23.9577 23.9787 23.9363 24.0001Z" fill="#F0F0F0"/>
<path d="M24 12.5217C24 8.29875 24 5.53172 24 0H23.996C10.7429 0.00225 0 10.7465 0 24H12.5217V16.949L19.5728 24H23.9359C23.9572 23.9786 23.9786 23.9573 24.0001 23.9358C24.0001 22.3189 24.0001 20.8762 24.0001 19.5729L16.9489 12.5217H24Z" fill="#F0F0F0"/>
<path d="M12.1424 3.1304C8.38871 5.26781 5.26805 8.38837 3.13074 12.142V24H9.39164V9.3915V9.39131H24.0003C24.0003 7.41665 24.0003 5.53546 24.0003 3.1304H12.1424Z" fill="#D80027"/>
<path d="M24.0005 21.0486L15.4735 12.5218H12.5222V12.5219L24.0003 23.9999H24.0005C24.0005 23.9999 24.0005 21.9649 24.0005 21.0486Z" fill="#D80027"/>
<path d="M37.5651 14.6087L34.4346 15.6523L31.3042 14.6087L30.2607 12L31.3042 9.39136H37.5651L36.5216 12L37.5651 14.6087Z" fill="#ACABB1"/>
<path d="M27.1307 14.6086V26.0868C27.1307 31.6781 34.4351 33.3913 34.4351 33.3913C34.4351 33.3913 41.7394 31.6781 41.7394 26.0868V14.6086H27.1307Z" fill="#338AF3"/>
<path d="M27.7898 28.8062C29.5853 32.2533 34.4357 33.3913 34.4357 33.3913C34.4357 33.3913 39.2862 32.2533 41.0817 28.8062L34.4357 17.7392L27.7898 28.8062Z" fill="#6DA544"/>
<path d="M41.7394 25.9709L34.4351 14.6086L27.1307 25.9709V26.0868C27.1307 27.1216 27.3814 28.0233 27.7891 28.8061L34.4351 18.4679L41.081 28.806C41.4887 28.0231 41.7394 27.1215 41.7394 26.0867V25.9709Z" fill="#FFDA44"/>
</svg>
