<svg width="48" height="48" viewBox="0 0 48 48" fill="none" xmlns="http://www.w3.org/2000/svg">
<g clip-path="url(#clip0)">
<path d="M24 48C37.2548 48 48 37.2548 48 24C48 10.7452 37.2548 0 24 0C10.7452 0 0 10.7452 0 24C0 37.2548 10.7452 48 24 48Z" fill="#F0F0F0"/>
<path d="M23.9996 0C16.1479 0 9.17708 3.77091 4.79858 9.6H43.2006C38.8221 3.77091 31.8514 0 23.9996 0Z" fill="#D80027"/>
<path d="M23.9996 48C31.8514 48 38.8221 44.2291 43.2006 38.4H4.79858C9.17708 44.2291 16.1479 48 23.9996 48Z" fill="#D80027"/>
<path d="M0 23.9999C0 25.6438 0.16575 27.249 0.480656 28.7999H47.5195C47.8344 27.249 48 25.6438 48 23.9999C48 22.356 47.8342 20.7509 47.5194 19.2H0.480656C0.16575 20.7509 0 22.356 0 23.9999Z" fill="#D80027"/>
<path d="M7.02893 7.02939C-2.34363 16.4019 -2.34363 31.598 7.02893 40.9706C10.902 37.0975 14.627 33.3726 23.9996 24L7.02893 7.02939Z" fill="#0052B4"/>
<path d="M9.71377 17.739L11.2677 22.5218H16.297L12.2284 25.4779L13.7822 30.2609L9.71377 27.3048L5.64511 30.2609L7.1993 25.4779L3.13074 22.5218H8.15967L9.71377 17.739Z" fill="#F0F0F0"/>
</g>
<defs>
<clipPath id="clip0">
<rect width="48" height="48" fill="white"/>
</clipPath>
</defs>
</svg>
