<svg width="48" height="48" viewBox="0 0 48 48" fill="none" xmlns="http://www.w3.org/2000/svg">
<path d="M0 24C0 34.3191 6.513 43.1161 15.652 46.5071L17.7391 23.9999L15.652 1.4928C6.513 4.88392 0 13.6809 0 24Z" fill="#6DA544"/>
<path d="M47.9999 24C47.9999 10.7452 37.2547 0 23.9999 0C21.0643 0 18.252 0.528094 15.652 1.49278V46.5072C18.252 47.472 21.0643 48 23.9999 48C37.2547 48 47.9999 37.2547 47.9999 24Z" fill="#D80027"/>
<path d="M15.6522 32.3478C20.2625 32.3478 23.9999 28.6103 23.9999 24C23.9999 19.3896 20.2625 15.6522 15.6522 15.6522C11.0418 15.6522 7.30438 19.3896 7.30438 24C7.30438 28.6103 11.0418 32.3478 15.6522 32.3478Z" fill="#FFDA44"/>
<path d="M10.9565 19.826V25.0434C10.9565 27.6367 13.0587 29.7391 15.6521 29.7391C18.2455 29.7391 20.3478 27.6368 20.3478 25.0434V19.826H10.9565Z" fill="#D80027"/>
<path d="M15.6525 26.6087C14.7894 26.6087 14.0872 25.9065 14.0872 25.0434V22.9566H17.2176V25.0435C17.2176 25.9065 16.5154 26.6087 15.6525 26.6087Z" fill="#F0F0F0"/>
</svg>
