<svg width="48" height="48" viewBox="0 0 48 48" fill="none" xmlns="http://www.w3.org/2000/svg">
<g clip-path="url(#clip0)">
<path d="M24 48C37.2548 48 48 37.2548 48 24C48 10.7452 37.2548 0 24 0C10.7452 0 0 10.7452 0 24C0 37.2548 10.7452 48 24 48Z" fill="#F0F0F0"/>
<path d="M23.9997 0C14.4846 0 6.2631 5.53734 2.3811 13.5653H45.6181C41.7362 5.53734 33.5146 0 23.9997 0Z" fill="#D80027"/>
<path d="M23.9997 48C33.5146 48 41.7362 42.4627 45.6182 34.4348H2.3811C6.2631 42.4627 14.4846 48 23.9997 48Z" fill="#0052B4"/>
<path d="M29.9037 17.0538L27.6901 19.2673C28.6343 20.2115 29.2184 21.5158 29.2184 22.9566C29.2184 25.8381 26.8824 28.174 24.001 28.174C21.1196 28.174 18.7836 25.838 18.7836 22.9566C18.7836 21.5158 19.3677 20.2115 20.3118 19.2673L18.0983 17.0538C16.5875 18.5643 15.6532 20.6513 15.6532 22.9566C15.6532 27.567 19.3906 31.3044 24.001 31.3044C28.6113 31.3044 32.3488 27.5669 32.3488 22.9566C32.3487 20.6513 31.4144 18.5643 29.9037 17.0538Z" fill="#6DA544"/>
<path d="M23.9995 19.826L24.7766 22.2176H27.291L25.2567 23.6955L26.0338 26.087L23.9995 24.609L21.9651 26.087L22.7422 23.6955L20.7079 22.2176H23.2224L23.9995 19.826Z" fill="#FFDA44"/>
</g>
<defs>
<clipPath id="clip0">
<rect width="48" height="48" fill="white"/>
</clipPath>
</defs>
</svg>
