<svg width="48" height="48" viewBox="0 0 48 48" fill="none" xmlns="http://www.w3.org/2000/svg">
<g clip-path="url(#clip0)">
<path d="M24 48C37.2548 48 48 37.2548 48 24C48 10.7452 37.2548 0 24 0C10.7452 0 0 10.7452 0 24C0 37.2548 10.7452 48 24 48Z" fill="#F0F0F0"/>
<path d="M48.0002 24C48.0002 10.7452 37.2549 0 24.0002 0C19.3052 0 14.9257 1.34953 11.2265 3.67978L16.4871 5.91488L9.39148 8.92969L16.4871 11.9444L9.39148 14.959L16.4871 17.9736L9.39148 20.9877L16.4871 24.0017L9.39148 27.0163L16.4871 30.0308L9.39148 33.0449L16.4871 36.0593L9.39148 39.074L16.4871 42.0881L11.2289 44.322C14.9276 46.6511 19.3061 48 24.0002 48C37.2549 48 48.0002 37.2547 48.0002 24Z" fill="#751A46"/>
</g>
<defs>
<clipPath id="clip0">
<rect width="48" height="48" fill="white"/>
</clipPath>
</defs>
</svg>
