<svg width="48" height="48" viewBox="0 0 48 48" fill="none" xmlns="http://www.w3.org/2000/svg">
<g clip-path="url(#clip0)">
<path d="M32.3484 1.49269C29.7483 0.528094 26.9363 1.24779e-08 24.0006 1.24779e-08C21.0649 -9.37375e-05 18.2528 0.528094 15.6528 1.49269L13.5659 23.9999L15.6528 46.5071C18.2527 47.472 21.0648 48 24.0006 48C26.9362 48 29.7484 47.472 32.3484 46.5071L34.4353 24L32.3484 1.49269Z" fill="#FFDA44"/>
<path d="M48 24C48 13.681 41.487 4.88374 32.3478 1.4928V46.5074C41.487 43.1161 47.9999 34.3193 48 24Z" fill="#D80027"/>
<path d="M0 23.9999C0 34.3192 6.513 43.1161 15.652 46.5073L15.6521 1.49286C6.513 4.8838 0 13.6807 0 23.9999Z" fill="#0052B4"/>
</g>
<defs>
<clipPath id="clip0">
<rect width="48" height="48" fill="white"/>
</clipPath>
</defs>
</svg>
