<svg width="48" height="48" viewBox="0 0 48 48" fill="none" xmlns="http://www.w3.org/2000/svg">
<path d="M24 48C37.2548 48 48 37.2548 48 24C48 10.7452 37.2548 0 24 0C10.7452 0 0 10.7452 0 24C0 37.2548 10.7452 48 24 48Z" fill="#F0F0F0"/>
<path d="M24 0C10.7452 0 0 10.7452 0 24C0 26.9357 0.528094 29.7479 1.49278 32.3478H46.5073C47.472 29.7479 48 26.9357 48 24C48 10.7452 37.2547 0 24 0Z" fill="#0052B4"/>
<path d="M24.001 0C13.6818 0 4.88481 6.513 1.49377 15.6522H46.5083C43.1172 6.513 34.3201 0 24.001 0Z" fill="#D80027"/>
<path d="M6.2085 13.5652V25.5376C6.2085 32.348 15.1055 34.4348 15.1055 34.4348C15.1055 34.4348 24.0023 32.348 24.0023 25.5376V13.5652H6.2085Z" fill="#D80027"/>
<path d="M9.87909 15.6523H20.3139V11.4783L18.227 12.5218L15.0966 9.39136L11.9661 12.5218L9.87909 11.4783V15.6523Z" fill="#FFDA44"/>
<path d="M21.9095 27.2047L15.1269 20.4221L8.34424 27.2047L10.5578 29.4182L15.1269 24.8491L19.696 29.4182L21.9095 27.2047Z" fill="#FFDA44"/>
<path d="M21.9095 20.8696H18.7449C18.9228 20.5625 19.0263 20.2068 19.0263 19.8263C19.0263 18.6736 18.0919 17.7394 16.9393 17.7394C16.1429 17.7394 15.4513 18.1854 15.0995 18.8412C14.7476 18.1855 14.0561 17.7394 13.2596 17.7394C12.1071 17.7394 11.1727 18.6736 11.1727 19.8263C11.1727 20.2068 11.2762 20.5626 11.4541 20.8696H8.34424C8.34424 22.0223 9.34821 22.9566 10.5007 22.9566H10.4312C10.4312 24.1092 11.3655 25.0435 12.5182 25.0435C12.5182 26.0641 13.2511 26.912 14.2191 27.0935L12.5747 30.8062C13.3628 31.1265 14.224 31.3044 15.127 31.3044C16.03 31.3044 16.8911 31.1265 17.6792 30.8062L16.0348 27.0935C17.0028 26.9122 17.7357 26.0642 17.7357 25.0435C18.8884 25.0435 19.8227 24.1092 19.8227 22.9566H19.7532C20.9056 22.9566 21.9095 22.0222 21.9095 20.8696Z" fill="#F0F0F0"/>
</svg>
