<svg width="48" height="48" viewBox="0 0 48 48" fill="none" xmlns="http://www.w3.org/2000/svg">
<g clip-path="url(#clip0)">
<path d="M24 48C37.2548 48 48 37.2548 48 24C48 10.7452 37.2548 0 24 0C10.7452 0 0 10.7452 0 24C0 37.2548 10.7452 48 24 48Z" fill="#F0F0F0"/>
<path d="M46.5072 32.3478C47.472 29.7478 48 26.9357 48 24C48 21.0643 47.472 18.2522 46.5072 15.6522H1.49278C0.528094 18.2522 0 21.0643 0 24C0 26.9357 0.528094 29.7478 1.49278 32.3478L24 34.4347L46.5072 32.3478Z" fill="#0052B4"/>
<path d="M23.9992 48C34.3184 48 43.1154 41.487 46.5064 32.3478H1.492C4.88304 41.487 13.6801 48 23.9992 48Z" fill="#D80027"/>
</g>
<defs>
<clipPath id="clip0">
<rect width="48" height="48" fill="white"/>
</clipPath>
</defs>
</svg>
