<svg width="48" height="48" viewBox="0 0 48 48" fill="none" xmlns="http://www.w3.org/2000/svg">
<path d="M0 24C0 28.1578 1.05778 32.0685 2.91816 35.4783L24 37.5652L45.0818 35.4783C46.9422 32.0685 48 28.1578 48 24L24 21.913L0 24Z" fill="#FFDA44"/>
<path d="M45.0818 12.5217C41.0113 5.06147 33.097 0 24 0C14.903 0 6.98869 5.06147 2.91816 12.5217C1.05778 15.9315 0 19.8422 0 24H48C48 19.8422 46.9422 15.9315 45.0818 12.5217Z" fill="#338AF3"/>
<path d="M24.0001 47.9999C33.0971 47.9999 41.0114 42.9385 45.0819 35.4782H2.91821C6.98874 42.9385 14.903 47.9999 24.0001 47.9999Z" fill="#496E2D"/>
<path d="M27.1307 14.0457L30.0619 15.4245L28.5011 18.2632L31.6839 17.6544L32.0872 20.8696L34.304 18.5048L36.521 20.8696L36.9242 17.6544L40.107 18.263L38.5463 15.4244L41.4773 14.0457L38.5462 12.6671L40.107 9.82836L36.9243 10.4372L36.5209 7.22202L34.304 9.58677L32.0871 7.22202L31.6839 10.4372L28.501 9.82836L30.0618 12.6672L27.1307 14.0457Z" fill="#FFDA44"/>
</svg>
