<svg width="48" height="48" viewBox="0 0 48 48" fill="none" xmlns="http://www.w3.org/2000/svg">
<g clip-path="url(#clip0)">
<path d="M40.9713 40.9712C49.9723 31.9702 50.3277 17.5998 42.0413 8.17236L24.0001 23.9999L8.17247 42.0412C17.5999 50.3276 31.9702 49.9722 40.9713 40.9712Z" fill="#496E2D"/>
<path d="M7.02923 7.02877C16.0302 -1.97224 30.4007 -2.32765 39.8281 5.9588L24.0004 24.0002L5.95936 39.8276C-2.32719 30.4002 -1.97169 16.0298 7.02923 7.02877Z" fill="#0052B4"/>
<path d="M39.827 5.95874L5.95824 39.8275C6.30062 40.2171 6.65612 40.5992 7.02821 40.9711C7.40021 41.3431 7.78243 41.6986 8.17205 42.0412L42.0406 8.17236C41.6982 7.78274 41.3426 7.40061 40.9705 7.02852C40.5987 6.65671 40.2165 6.30111 39.827 5.95874Z" fill="#FFDA44"/>
<path d="M10.1127 8.34711L10.6309 9.94151H12.3072L10.9511 10.9267L11.469 12.5211L10.1127 11.5357L8.75647 12.5211L9.27462 10.9267L7.91834 9.94151H9.59478L10.1127 8.34711Z" fill="#F0F0F0"/>
<path d="M18.675 8.34711L19.1931 9.94151H20.8694L19.5132 10.9267L20.0313 12.5211L18.675 11.5357L17.3187 12.5211L17.8369 10.9267L16.4806 9.94151H18.1569L18.675 8.34711Z" fill="#F0F0F0"/>
<path d="M10.1127 16.6953L10.6309 18.2897H12.3072L10.9511 19.275L11.469 20.8694L10.1127 19.884L8.75647 20.8694L9.27462 19.275L7.91834 18.2897H9.59478L10.1127 16.6953Z" fill="#F0F0F0"/>
<path d="M18.675 16.6953L19.1931 18.2897H20.8694L19.5132 19.275L20.0313 20.8694L18.675 19.884L17.3187 20.8694L17.8369 19.275L16.4806 18.2897H18.1569L18.675 16.6953Z" fill="#F0F0F0"/>
<path d="M14.3935 12.5212L14.9116 14.1156H16.5879L15.2317 15.1009L15.7497 16.6953L14.3935 15.7099L13.0372 16.6953L13.5552 15.1009L12.199 14.1156H13.8754L14.3935 12.5212Z" fill="#F0F0F0"/>
</g>
<defs>
<clipPath id="clip0">
<rect width="48" height="48" fill="white"/>
</clipPath>
</defs>
</svg>
