<svg width="48" height="48" viewBox="0 0 48 48" fill="none" xmlns="http://www.w3.org/2000/svg">
<g clip-path="url(#clip0)">
<path d="M24 48C37.2548 48 48 37.2548 48 24C48 10.7452 37.2548 0 24 0C10.7452 0 0 10.7452 0 24C0 37.2548 10.7452 48 24 48Z" fill="#F0F0F0"/>
<path d="M40.2003 6.29409C35.931 2.38547 30.244 0 23.9995 0C22.9773 0 21.9699 0.0644063 20.9812 0.188437L9.39082 13.5653L0.758972 30.0123C1.3166 32.1743 2.16916 34.2174 3.26913 36.0983L23.9995 24L40.2003 6.29409Z" fill="#FFDA44"/>
<path d="M43.9811 37.2973L10.4029 43.7773C14.2681 46.4399 18.9517 48 24.0001 48C32.3365 48 39.6789 43.7491 43.9811 37.2973Z" fill="#6DA544"/>
<path d="M40.2047 6.29727L3.28378 36.1215C4.2495 37.7685 5.40572 39.2901 6.72263 40.656L48.0005 24C48.0005 16.9913 44.9957 10.685 40.2047 6.29727Z" fill="#D80027"/>
<path d="M0 24C0 26.0763 0.263812 28.0909 0.759469 30.0123L20.9817 0.188416C9.15169 1.67285 0 11.7675 0 24Z" fill="#0052B4"/>
</g>
<defs>
<clipPath id="clip0">
<rect width="48" height="48" fill="white"/>
</clipPath>
</defs>
</svg>
