<svg width="48" height="48" viewBox="0 0 48 48" fill="none" xmlns="http://www.w3.org/2000/svg">
<g clip-path="url(#clip0)">
<path d="M2.38144 13.5652C0.85575 16.7204 0 20.2601 0 23.9999C0 27.7397 0.85575 31.2794 2.38144 34.4347L24 36.5216L45.6186 34.4347C47.1442 31.2794 48 27.7397 48 23.9999C48 20.2601 47.1442 16.7204 45.6186 13.5652L24 11.4782L2.38144 13.5652Z" fill="#F0F0F0"/>
<path d="M2.38306 34.4348C6.26487 42.4627 14.4857 48 24.0008 48C33.5158 48 41.7367 42.4627 45.6185 34.4348H2.38306Z" fill="black"/>
<path d="M2.38306 13.5653H45.6185C41.7367 5.53734 33.5158 0 24.0008 0C14.4857 0 6.26487 5.53734 2.38306 13.5653Z" fill="#D80027"/>
<path d="M7.02893 7.02939C-2.34363 16.4019 -2.34363 31.598 7.02893 40.9706C10.902 37.0975 14.627 33.3726 23.9996 24L7.02893 7.02939Z" fill="#496E2D"/>
</g>
<defs>
<clipPath id="clip0">
<rect width="48" height="48" fill="white"/>
</clipPath>
</defs>
</svg>
