<svg width="48" height="48" viewBox="0 0 48 48" fill="none" xmlns="http://www.w3.org/2000/svg">
<path d="M24 48C37.2548 48 48 37.2548 48 24C48 10.7452 37.2548 0 24 0C10.7452 0 0 10.7452 0 24C0 37.2548 10.7452 48 24 48Z" fill="#FFDA44"/>
<path d="M18.7831 20.8696H47.7972C46.2631 9.09394 36.1941 0 24.0003 0C22.2084 0 20.4629 0.198094 18.783 0.570469V20.8696H18.7831Z" fill="#0052B4"/>
<path d="M12.5208 20.8695V2.91815C5.93077 6.51384 1.21318 13.1092 0.202271 20.8696H12.5208V20.8695Z" fill="#0052B4"/>
<path d="M12.5207 27.1304H0.202271C1.21318 34.8908 5.93077 41.4862 12.5208 45.0818L12.5207 27.1304Z" fill="#0052B4"/>
<path d="M18.783 27.1305V47.4296C20.4629 47.8019 22.2084 48 24.0003 48C36.1941 48 46.2631 38.9061 47.7972 27.1304H18.783V27.1305Z" fill="#0052B4"/>
</svg>
