<svg width="48" height="48" viewBox="0 0 48 48" fill="none" xmlns="http://www.w3.org/2000/svg">
<path d="M24 48C37.2548 48 48 37.2548 48 24C48 10.7452 37.2548 0 24 0C10.7452 0 0 10.7452 0 24C0 37.2548 10.7452 48 24 48Z" fill="#F0F0F0"/>
<path d="M0 24.0001C0 10.7453 10.7452 0 24 0C37.2547 0 48 10.7453 48 24.0001" fill="#D80027"/>
<path d="M14.609 12.5217C14.609 9.02497 17.0665 6.10391 20.3481 5.38719C19.8438 5.27713 19.3205 5.21741 18.7829 5.21741C14.7487 5.21741 11.4785 8.4876 11.4785 12.5218C11.4785 16.5559 14.7487 19.8261 18.7829 19.8261C19.3204 19.8261 19.8437 19.7664 20.3481 19.6562C17.0665 18.9395 14.609 16.0184 14.609 12.5217Z" fill="#F0F0F0"/>
<path d="M24.0002 5.73914L24.5183 7.33336H26.1946L24.8383 8.31876L25.3564 9.91298L24.0002 8.92776L22.644 9.91298L23.1621 8.31876L21.8059 7.33336H23.4822L24.0002 5.73914Z" fill="#F0F0F0"/>
<path d="M19.9338 8.86948L20.4517 10.4638H22.1281L20.7719 11.4491L21.2899 13.0433L19.9338 12.0581L18.5774 13.0433L19.0955 11.4491L17.7393 10.4638H19.4156L19.9338 8.86948Z" fill="#F0F0F0"/>
<path d="M28.0676 8.86948L28.5858 10.4638H30.262L28.9058 11.4491L29.4239 13.0433L28.0676 12.0581L26.7114 13.0433L27.2295 11.4491L25.8733 10.4638H27.5496L28.0676 8.86948Z" fill="#F0F0F0"/>
<path d="M26.501 13.5652L27.019 15.1596H28.6953L27.3391 16.1449L27.8572 17.7391L26.501 16.7539L25.1448 17.7391L25.6629 16.1449L24.3067 15.1596H25.9828L26.501 13.5652Z" fill="#F0F0F0"/>
<path d="M21.4996 13.5652L22.0175 15.1596H23.694L22.3377 16.1449L22.8558 17.7391L21.4996 16.7539L20.1433 17.7391L20.6613 16.1449L19.3051 15.1596H20.9815L21.4996 13.5652Z" fill="#F0F0F0"/>
</svg>
