<svg width="48" height="48" viewBox="0 0 48 48" fill="none" xmlns="http://www.w3.org/2000/svg">
<g clip-path="url(#clip0)">
<path d="M24 48C37.2548 48 48 37.2548 48 24C48 10.7452 37.2548 0 24 0C10.7452 0 0 10.7452 0 24C0 37.2548 10.7452 48 24 48Z" fill="#F0F0F0"/>
<path d="M46.5072 15.6523H20.8696V9.39136H8.34778V15.6523H1.49278C0.528094 18.2521 0 21.0644 0 24C0 26.9357 0.528094 29.7479 1.49278 32.3478L24 34.4348L46.5072 32.3478C47.4719 29.7479 48 26.9357 48 24C48 21.0644 47.4719 18.2521 46.5072 15.6523Z" fill="#0052B4"/>
<path d="M24.001 48C34.3202 48 43.1172 41.487 46.5082 32.3478H1.4938C4.88483 41.487 13.6819 48 24.001 48Z" fill="#D80027"/>
<path d="M8.34781 15.6522V17.7391C8.34781 22.5317 14.6087 24.0001 14.6087 24.0001C14.6087 24.0001 20.8696 22.5317 20.8696 17.7391V15.6522L18.7827 17.7392L14.6087 14.6088L10.4348 17.7392L8.34781 15.6522Z" fill="#F0F0F0"/>
</g>
<defs>
<clipPath id="clip0">
<rect width="48" height="48" fill="white"/>
</clipPath>
</defs>
</svg>
