<svg width="48" height="48" viewBox="0 0 48 48" fill="none" xmlns="http://www.w3.org/2000/svg">
<g clip-path="url(#clip0)">
<path d="M24 48C37.2548 48 48 37.2548 48 24C48 10.7452 37.2548 0 24 0C10.7452 0 0 10.7452 0 24C0 37.2548 10.7452 48 24 48Z" fill="#F0F0F0"/>
<path d="M24 48C37.2547 48 48 37.2548 48 24C48 21.0643 47.472 18.2521 46.5072 15.6522H1.49278C0.528094 18.2521 0 21.0643 0 24C0 37.2548 10.7452 48 24 48Z" fill="#0052B4"/>
<path d="M23.9993 48C34.3184 48 43.1154 41.487 46.5065 32.3478H1.49203C4.88307 41.487 13.6801 48 23.9993 48Z" fill="#D80027"/>
<path d="M6.20673 13.5652V25.5376C6.20673 32.348 15.1037 34.4348 15.1037 34.4348C15.1037 34.4348 24.0006 32.348 24.0006 25.5376V13.5652H6.20673Z" fill="#F0F0F0"/>
<path d="M8.29305 13.5652V25.5376C8.29305 26.3371 8.47061 27.0922 8.82236 27.8001C12.313 27.8001 17.5304 27.8001 21.3836 27.8001C21.7354 27.0923 21.913 26.3371 21.913 25.5376V13.5652H8.29305Z" fill="#D80027"/>
<path d="M19.2776 21.913H16.1473V19.8261H18.2343V17.7391H16.1473V15.6522H14.0603V17.7391H11.9735V19.8261H14.0603V21.913H10.9298V24H14.0603V26.087H16.1473V24H19.2776V21.913Z" fill="#F0F0F0"/>
<path d="M11.6697 30.7135C13.0145 31.5586 14.3962 32.0493 15.1036 32.2676C15.8109 32.0494 17.1926 31.5586 18.5374 30.7135C19.8936 29.8611 20.8443 28.8863 21.3841 27.8002C20.7887 27.379 20.0623 27.1305 19.2775 27.1305C18.9917 27.1305 18.7142 27.1644 18.4472 27.2265C17.8816 25.9414 16.5977 25.0436 15.1037 25.0436C13.6096 25.0436 12.3256 25.9414 11.7601 27.2265C11.4932 27.1644 11.2155 27.1305 10.9298 27.1305C10.145 27.1305 9.41856 27.379 8.82315 27.8002C9.36268 28.8862 10.3134 29.861 11.6697 30.7135Z" fill="#0052B4"/>
</g>
<defs>
<clipPath id="clip0">
<rect width="48" height="48" fill="white"/>
</clipPath>
</defs>
</svg>
