<svg width="48" height="48" viewBox="0 0 48 48" fill="none" xmlns="http://www.w3.org/2000/svg">
<path d="M48 24C48 37.2547 37.2547 48 24 48C10.7452 48 0 37.2547 0 24C1.04344 24 24 20.8696 24 20.8696L48 24Z" fill="#338AF3"/>
<path d="M0 24C0 10.7452 10.7452 0 24 0C37.2547 0 48 10.7452 48 24" fill="#F0F0F0"/>
<path d="M33.5261 16.5603L23.9996 26.0869L14.4731 16.5603C13.2411 18.3891 12.5214 20.5902 12.5214 22.9564V26.0868C12.5214 31.1133 15.7694 35.3951 20.2766 36.9449C19.675 38.1239 19.7765 39.5953 20.658 40.6955C21.8287 39.7571 23.0408 38.7858 24.0691 37.9619C25.0973 38.7859 26.3095 39.7572 27.4802 40.6955C28.372 39.5825 28.4662 38.0891 27.8408 36.9031C32.2865 35.3197 35.4778 31.0692 35.4778 26.0868V22.9565C35.4779 20.5902 34.7581 18.3892 33.5261 16.5603Z" fill="#6DA544"/>
<path d="M24 34.4347C19.397 34.4347 15.6522 30.6899 15.6522 26.087V22.9565C15.6522 18.3535 19.3971 14.6088 24 14.6088C28.6029 14.6088 32.3478 18.3536 32.3478 22.9565V26.087C32.3478 30.6899 28.603 34.4347 24 34.4347Z" fill="#FFDA44"/>
<path d="M29.2177 26.087V22.9566C29.2177 20.0797 26.8771 17.7392 24.0003 17.7392C21.1235 17.7392 18.783 20.0798 18.783 22.9566V26.087L24.0003 27.1304L29.2177 26.087Z" fill="#338AF3"/>
<path d="M18.783 26.087C18.783 28.9639 21.1235 31.3044 24.0003 31.3044C26.8771 31.3044 29.2177 28.9638 29.2177 26.087H18.783Z" fill="#6DA544"/>
<path d="M30.2602 14.6087C30.2602 12.8798 28.8587 11.4783 27.1298 11.4783C26.3278 11.4783 25.5968 11.7801 25.0429 12.276V10.4347H26.0863V8.34776H25.0429V7.30432H22.9559V8.34776H21.9125V10.4347H22.9559V12.276C22.4019 11.7801 21.6709 11.4783 20.8689 11.4783C19.1401 11.4783 17.7385 12.8798 17.7385 14.6087C17.7385 15.5356 18.1417 16.3681 18.782 16.9414V18.7826H29.2167V16.9414C29.857 16.3681 30.2602 15.5356 30.2602 14.6087Z" fill="#FFDA44"/>
</svg>
