<svg width="48" height="48" viewBox="0 0 48 48" fill="none" xmlns="http://www.w3.org/2000/svg">
<path d="M34.4342 2.38144C31.279 0.85575 27.7392 0 23.9995 0C20.2598 0 16.72 0.85575 13.5648 2.38144L11.4778 24L13.5648 45.6186C16.72 47.1442 20.2598 48 23.9995 48C27.7392 48 31.279 47.1442 34.4342 45.6186L36.5212 24L34.4342 2.38144Z" fill="#FFDA44"/>
<path d="M24.0006 15.6522L26.0725 22.029H32.7783L27.3535 25.9706L29.4255 32.3477L24.0006 28.4065L18.5758 32.3477L20.6481 25.9706L15.2234 22.029H21.9287L24.0006 15.6522Z" fill="#496E2D"/>
<path d="M13.5653 2.38226C5.53744 6.26417 0 14.485 0 24C0 33.5149 5.53744 41.7358 13.5653 45.6177V2.38226Z" fill="#496E2D"/>
<path d="M34.4341 2.38226V45.6177C42.4619 41.7358 47.9993 33.5149 47.9993 24C47.9993 14.485 42.4619 6.26417 34.4341 2.38226Z" fill="#D80027"/>
</svg>
