<svg width="48" height="48" viewBox="0 0 48 48" fill="none" xmlns="http://www.w3.org/2000/svg">
<path d="M24 48C37.2548 48 48 37.2548 48 24C48 10.7452 37.2548 0 24 0C10.7452 0 0 10.7452 0 24C0 37.2548 10.7452 48 24 48Z" fill="#F0F0F0"/>
<path d="M46.5071 15.6522H1.49269C0.528094 18.2523 0 21.0643 0 24C0 26.9357 0.528094 29.7479 1.49269 32.3478H46.5072C47.472 29.7479 48 26.9357 48 24C48 21.0643 47.472 18.2523 46.5071 15.6522Z" fill="#A2001D"/>
<path d="M24.0687 48C32.2889 48 39.5429 43.8663 43.8683 37.5652H4.26917C8.5946 43.8663 15.8484 48 24.0687 48Z" fill="#6DA544"/>
<path d="M24.0687 0.000183105C32.2889 0.000183105 39.5429 4.13381 43.8683 10.4349H4.26917C8.5946 4.13381 15.8484 0.000183105 24.0687 0.000183105Z" fill="#6DA544"/>
<path d="M23.9991 15.6522L26.0711 22.0291H32.7766L27.3518 25.9707L29.424 32.3478L23.9991 28.4066L18.5743 32.3478L20.6465 25.9707L15.2217 22.0291H21.9271L23.9991 15.6522Z" fill="#FFDA44"/>
</svg>
