<svg width="48" height="48" viewBox="0 0 48 48" fill="none" xmlns="http://www.w3.org/2000/svg">
<g clip-path="url(#clip0)">
<path d="M24 48C37.2548 48 48 37.2548 48 24C48 10.7452 37.2548 0 24 0C10.7452 0 0 10.7452 0 24C0 37.2548 10.7452 48 24 48Z" fill="#F0F0F0"/>
<path d="M46.1284 14.6956C42.4938 6.06206 33.9558 0 24.0007 0C17.3731 0 11.3738 2.68678 7.03088 7.03022L13.0412 14.6956H46.1284Z" fill="black"/>
<path d="M13.1094 33.2175L7.03088 40.9697C11.3738 45.3132 17.3731 48 24.0007 48C33.9894 48 42.5517 41.8974 46.1654 33.2175H13.1094Z" fill="#496E2D"/>
<path d="M5.21707 17.6522V30.2608H47.173C47.7113 28.2648 47.9997 26.1663 47.9997 24C47.9997 21.8023 47.7036 19.6742 47.1502 17.6522H5.21707Z" fill="#A2001D"/>
<path d="M7.02893 7.02939C-2.34363 16.4019 -2.34363 31.598 7.02893 40.9706C10.902 37.0975 14.627 33.3726 23.9996 24L7.02893 7.02939Z" fill="#0052B4"/>
<path d="M7.81824 18.033L10.7475 22.1205L15.5407 20.5976L12.5584 24.6469L15.4876 28.7347L10.715 27.1497L7.73265 31.1989L7.76546 26.1699L2.99265 24.5847L7.78552 23.0618L7.81824 18.033Z" fill="#FFDA44"/>
</g>
<defs>
<clipPath id="clip0">
<rect width="48" height="48" fill="white"/>
</clipPath>
</defs>
</svg>
