<svg width="48" height="48" viewBox="0 0 48 48" fill="none" xmlns="http://www.w3.org/2000/svg">
<g clip-path="url(#clip0)">
<path d="M45.6186 34.4348C47.1442 31.2797 48 27.7398 48 24.0001C48 20.2604 47.1442 16.7205 45.6186 13.5653L24 12.5218L2.38144 13.5652C0.85575 16.7205 0 20.2604 0 24.0001C0 27.7398 0.85575 31.2797 2.38144 34.4348L24 35.4784L45.6186 34.4348Z" fill="#FFDA44"/>
<path d="M24.0032 0C14.4881 0 6.26664 5.53734 2.38464 13.5653H45.6217C41.7398 5.53734 33.5182 0 24.0032 0Z" fill="black"/>
<path d="M24.0032 48C14.4881 48 6.26664 42.4627 2.38464 34.4348H45.6217C41.7398 42.4627 33.5182 48 24.0032 48Z" fill="#0052B4"/>
<path d="M46.8667 16.6956H1.13334C0.398156 18.999 0 21.4529 0 24C0 26.5471 0.398156 29.001 1.13334 31.3043H46.8666C47.6018 29.001 48 26.5471 48 24C48 21.4529 47.6018 18.999 46.8667 16.6956Z" fill="#A2001D"/>
<path d="M39.6486 22.9565H8.34424V25.0435H39.6486V22.9565Z" fill="#FFDA44"/>
<path d="M35.4734 18.7826H12.5168V20.8696H35.4734V18.7826Z" fill="#FFDA44"/>
<path d="M35.6258 24C35.6258 24 30.2592 30.2609 23.9984 30.2609C17.7376 30.2609 17.7375 24 17.7375 24C17.7375 24 17.7375 17.7391 23.9984 17.7391C30.2593 17.7391 35.6258 24 35.6258 24Z" fill="#F0F0F0"/>
<path d="M23.9986 30.2609C17.7377 30.2609 12.3712 24 12.3712 24C12.3712 24 17.7377 17.7391 23.9986 17.7391" fill="black"/>
<path d="M21.9144 21.913H19.8274V26.087H21.9144V21.913Z" fill="#F0F0F0"/>
<path d="M28.1768 21.913H26.0898V26.087H28.1768V21.913Z" fill="black"/>
<path d="M8.34844 26.087C9.50104 26.087 10.4354 25.1526 10.4354 24C10.4354 22.8474 9.50104 21.913 8.34844 21.913C7.19584 21.913 6.26147 22.8474 6.26147 24C6.26147 25.1526 7.19584 26.087 8.34844 26.087Z" fill="#0052B4"/>
<path d="M39.6528 26.087C40.8054 26.087 41.7398 25.1526 41.7398 24C41.7398 22.8474 40.8054 21.913 39.6528 21.913C38.5002 21.913 37.5659 22.8474 37.5659 24C37.5659 25.1526 38.5002 26.087 39.6528 26.087Z" fill="#0052B4"/>
</g>
<defs>
<clipPath id="clip0">
<rect width="48" height="48" fill="white"/>
</clipPath>
</defs>
</svg>
