<svg width="48" height="48" viewBox="0 0 48 48" fill="none" xmlns="http://www.w3.org/2000/svg">
<path d="M48 24C48 37.2547 37.2547 48 24 48C10.7452 48 0 37.2547 0 24C0 24.0057 24 0.002625 24 0C37.2547 0 48 10.7452 48 24Z" fill="#0052B4"/>
<path d="M23.9345 24.0001H23.9987C23.9987 23.9785 23.9987 23.9575 23.9987 23.9359C23.9774 23.9573 23.956 23.9787 23.9345 24.0001Z" fill="#F0F0F0"/>
<path d="M24 12.5217C24 8.29875 24 5.53172 24 0H23.996C10.7429 0.00225 0 10.7465 0 24H12.5217V16.949L19.5728 24H23.9359C23.9572 23.9786 23.9786 23.9573 24.0001 23.9358C24.0001 22.3189 24.0001 20.8762 24.0001 19.5729L16.9489 12.5217H24Z" fill="#F0F0F0"/>
<path d="M12.1424 3.13043C8.38871 5.26784 5.26805 8.3884 3.13074 12.1421V24H9.39164V9.39153V9.39134H24.0003C24.0003 7.41668 24.0003 5.53549 24.0003 3.13043H12.1424Z" fill="#D80027"/>
<path d="M23.9987 21.0486L15.4717 12.5218H12.5204V12.522L23.9985 24H23.9987C23.9987 24 23.9987 21.9649 23.9987 21.0486Z" fill="#D80027"/>
<path d="M27.1307 12.5218V24C27.1307 29.5912 34.4351 31.3044 34.4351 31.3044C34.4351 31.3044 41.7394 29.5912 41.7394 24V12.5218H27.1307Z" fill="#FFDA44"/>
<path d="M33.391 16.6956C33.391 17.8483 32.4567 20.8695 31.304 20.8695C30.1514 20.8695 29.2171 17.8483 29.2171 16.6956C29.2171 15.543 31.304 14.6086 31.304 14.6086C31.304 14.6086 33.391 15.543 33.391 16.6956Z" fill="#FF9811"/>
<path d="M38.9276 18.9686C39.2644 18.1469 39.5263 16.9457 39.5263 16.3478C39.5263 15.3872 38.2741 14.6086 38.2741 14.6086C38.2741 14.6086 37.0219 15.3873 37.0219 16.3478C37.0219 16.9457 37.2838 18.1469 37.6206 18.9686L36.8977 20.6008C37.3225 20.7735 37.787 20.8695 38.274 20.8695C38.761 20.8695 39.2255 20.7735 39.6504 20.6008L38.9276 18.9686Z" fill="#A2001D"/>
<path d="M32.8683 24C32.8683 24 31.8248 26.087 31.8248 28.1739C31.8248 28.1739 34.9552 28.1739 37.0422 28.1739C37.0421 26.087 35.9987 24 35.9987 24L34.4334 22.9565L32.8683 24Z" fill="#6DA544"/>
<path d="M35.9988 24V23.4783C35.9988 22.6139 35.298 21.913 34.4335 21.913C33.5691 21.913 32.8683 22.6138 32.8683 23.4783V24H35.9988Z" fill="#D80027"/>
</svg>
