<svg width="48" height="48" viewBox="0 0 48 48" fill="none" xmlns="http://www.w3.org/2000/svg">
<path d="M24 48C37.2548 48 48 37.2548 48 24C48 10.7452 37.2548 0 24 0C10.7452 0 0 10.7452 0 24C0 37.2548 10.7452 48 24 48Z" fill="#FFDA44"/>
<path d="M23.999 0C23.9816 0.0001875 22.9556 9.6 22.9556 9.6H43.2001C38.8215 3.77091 31.8508 0 23.999 0Z" fill="#496E2D"/>
<path d="M23.9996 48C31.8514 48 38.8221 44.2291 43.2006 38.4H4.79858C9.17708 44.2291 16.1479 48 23.9996 48Z" fill="#496E2D"/>
<path d="M47.5184 19.2H22.9556L23.999 28.7999H47.5184C47.8334 27.249 47.999 25.6438 47.999 23.9999C47.999 22.356 47.8333 20.7509 47.5184 19.2Z" fill="#496E2D"/>
<path d="M24 28.8C24 23.7913 24 5.63475 24 0C10.7452 0 0 10.7452 0 24C0 25.6439 0.16575 27.2491 0.480563 28.8H24Z" fill="#D80027"/>
<path d="M13.2428 11.4782L14.7968 16.2609H19.826L15.7575 19.2171L17.3114 23.9999L13.2428 21.044L9.17423 23.9999L10.7283 19.2171L6.65985 16.2609H11.6889L13.2428 11.4782Z" fill="#F0F0F0"/>
</svg>
