<svg width="48" height="48" viewBox="0 0 48 48" fill="none" xmlns="http://www.w3.org/2000/svg">
<g clip-path="url(#clip0)">
<path d="M2.38144 13.5652C0.85575 16.7204 0 20.2602 0 23.9999C0 27.7396 0.85575 31.2794 2.38144 34.4347L24 36.5216L45.6186 34.4347C47.1442 31.2794 48 27.7396 48 23.9999C48 20.2602 47.1442 16.7204 45.6186 13.5652L24 11.4782L2.38144 13.5652Z" fill="#F0F0F0"/>
<path d="M2.38306 34.4348C6.26496 42.4626 14.4858 48 24.0008 48C33.5157 48 41.7367 42.4626 45.6185 34.4348H2.38306Z" fill="#6DA544"/>
<path d="M2.38306 13.5653H45.6185C41.7367 5.53744 33.5157 0 24.0008 0C14.4858 0 6.26496 5.53744 2.38306 13.5653Z" fill="#D80027"/>
<path d="M19.8257 30.2609H28.1736V26.7131L26.504 27.5478L23.9996 25.0435L21.4953 27.5478L19.8257 26.7131V30.2609Z" fill="#FFDA44"/>
<path d="M15.0503 26.087L15.4389 27.2827H16.6961L15.6789 28.0217L16.0675 29.2174L15.0503 28.4784L14.0331 29.2174L14.4217 28.0217L13.4045 27.2827H14.6617L15.0503 26.087Z" fill="#FFDA44"/>
<path d="M16.2544 21.913L16.643 23.1087H17.9002L16.883 23.8478L17.2715 25.0434L16.2544 24.3045L15.2372 25.0434L15.6258 23.8478L14.6086 23.1087H15.8658L16.2544 21.913Z" fill="#FFDA44"/>
<path d="M19.6994 18.7826L20.088 19.9783H21.3451L20.3281 20.7173L20.7165 21.913L19.6994 21.1741L18.6823 21.913L19.0708 20.7173L18.0536 19.9783H19.3109L19.6994 18.7826Z" fill="#FFDA44"/>
<path d="M32.951 26.087L32.5624 27.2827H31.3052L32.3224 28.0217L31.9338 29.2174L32.951 28.4784L33.9681 29.2174L33.5796 28.0217L34.5967 27.2827H33.3396L32.951 26.087Z" fill="#FFDA44"/>
<path d="M31.7451 21.913L31.3566 23.1087H30.0994L31.1166 23.8478L30.728 25.0434L31.7451 24.3045L32.7623 25.0434L32.3737 23.8478L33.3909 23.1087H32.1337L31.7451 21.913Z" fill="#FFDA44"/>
<path d="M28.3028 18.7826L27.9142 19.9783H26.6571L27.6741 20.7173L27.2856 21.913L28.3028 21.1741L29.3199 21.913L28.9314 20.7173L29.9485 19.9783H28.6913L28.3028 18.7826Z" fill="#FFDA44"/>
<path d="M23.9998 17.2173L24.3884 18.413H25.6456L24.6284 19.152L25.017 20.3477L23.9998 19.6088L22.9826 20.3477L23.3712 19.152L22.354 18.413H23.6112L23.9998 17.2173Z" fill="#FFDA44"/>
</g>
<defs>
<clipPath id="clip0">
<rect width="48" height="48" fill="white"/>
</clipPath>
</defs>
</svg>
