<svg width="48" height="48" viewBox="0 0 48 48" fill="none" xmlns="http://www.w3.org/2000/svg">
<path d="M24 48C37.2548 48 48 37.2548 48 24C48 10.7452 37.2548 0 24 0C10.7452 0 0 10.7452 0 24C0 37.2548 10.7452 48 24 48Z" fill="#FFDA44"/>
<path d="M38.6087 11.4783C38.3934 12.5128 38.2957 13.6147 38.2957 14.713C38.2957 21.0443 42.0699 26.5241 47.4788 28.991C47.8194 27.3807 48 25.7115 48 24C48 10.7452 37.2547 0 24 0C10.7452 0 0 10.7452 0 24C0 37.2547 10.7452 48 24 48C32.2202 48 39.4742 43.8664 43.7996 37.5653H13.5653V34.4348H45.6186C45.9466 33.7565 46.2429 33.06 46.5073 32.3479H13.5653L38.6087 11.4783Z" fill="#0052B4"/>
<path d="M17.6308 12.5217L18.1489 14.116H19.8251L18.469 15.1014L18.9871 16.6956L17.6308 15.7104L16.2747 16.6956L16.7927 15.1014L15.4364 14.116H17.1127L17.6308 12.5217Z" fill="#F0F0F0"/>
<path d="M10.8217 24L11.4693 25.993H13.5646L11.8694 27.2244L12.517 29.2174L10.8217 27.9857L9.12651 29.2174L9.77404 27.2244L8.07886 25.993H10.1742L10.8217 24Z" fill="#F0F0F0"/>
<path d="M10.8217 7.30432L11.4693 9.29735H13.5646L11.8694 10.5288L12.517 12.5217L10.8217 11.29L9.12651 12.5217L9.77404 10.5288L8.07886 9.29735H10.1742L10.8217 7.30432Z" fill="#F0F0F0"/>
<path d="M5.60466 16.6956L6.25229 18.6886H8.3475L6.65232 19.9201L7.29994 21.913L5.60466 20.6813L3.90947 21.913L4.557 19.9201L2.86182 18.6886H4.95703L5.60466 16.6956Z" fill="#F0F0F0"/>
</svg>
