<svg width="48" height="48" viewBox="0 0 48 48" fill="none" xmlns="http://www.w3.org/2000/svg">
<g clip-path="url(#clip0)">
<path d="M23.9992 0C22.2073 0 20.4618 0.198094 18.782 0.570469L17.7385 23.9999L18.782 47.4294C20.4619 47.8018 22.2074 48 23.9992 48C37.2541 48 47.9992 37.2547 47.9992 23.9999C47.9992 10.7452 37.2541 0 23.9992 0Z" fill="#496E2D"/>
<path d="M6.26005 7.83478C2.37092 12.1 -0.000762939 17.7728 -0.000762939 23.9999C-0.000762939 30.227 2.37102 35.8998 6.26014 40.1652L7.30358 23.9999L6.26005 7.83478Z" fill="#496E2D"/>
<path d="M35.1023 18.103C36.2831 14.8118 34.9566 11.2323 32.1096 9.44958C32.6217 9.51624 33.1343 9.6368 33.6402 9.81821C37.4374 11.1806 39.4112 15.363 38.0488 19.16C36.6864 22.9574 32.5041 24.931 28.7069 23.5686C28.2009 23.3871 27.7285 23.1541 27.291 22.8801C30.6219 23.3139 33.9216 21.3942 35.1023 18.103Z" fill="#F0F0F0"/>
<path d="M28.5537 8.54749L27.5276 9.8733L25.9499 9.30714L26.8936 10.6926L25.8676 12.0182L27.4769 11.5489L28.4207 12.9341L28.4714 11.2586L30.0807 10.7892L28.503 10.2233L28.5537 8.54749Z" fill="#F0F0F0"/>
<path d="M31.3244 12.8674L30.2983 14.1932L28.7205 13.627L29.6642 15.0124L28.6382 16.3381L30.2475 15.8686L31.1913 17.2541L31.2422 15.5785L32.8514 15.109L31.2736 14.5429L31.3244 12.8674Z" fill="#F0F0F0"/>
<path d="M23.6685 10.1208L22.6424 11.4465L21.0647 10.8805L22.0085 12.2658L20.9825 13.5916L22.5916 13.1222L23.5355 14.5075L23.5863 12.832L25.1955 12.3626L23.6178 11.7964L23.6685 10.1208Z" fill="#F0F0F0"/>
<path d="M23.5561 15.0692L22.5301 16.3949L20.9523 15.8288L21.8962 17.2142L20.87 18.5399L22.4794 18.0706L23.4232 19.4558L23.4739 17.7803L25.0832 17.3109L23.5053 16.7447L23.5561 15.0692Z" fill="#F0F0F0"/>
<path d="M28.2643 16.7586L27.2382 18.0842L25.6605 17.5182L26.6044 18.9036L25.5782 20.2291L27.1876 19.7598L28.1314 21.1453L28.1821 19.4696L29.7914 19.0003L28.2135 18.4342L28.2643 16.7586Z" fill="#F0F0F0"/>
<path d="M6.26071 7.83475V40.1651C9.53071 43.7514 13.8741 46.3412 18.7824 47.4293V0.570435C13.8741 1.6585 9.53081 4.24834 6.26071 7.83475Z" fill="#D80027"/>
<path d="M11.0388 12.6361L8.94247 11.0744V8.86591L11.0388 7.30432H14.0037L16.1 8.86591V11.0744L14.0037 12.6361H11.0388Z" fill="#F0F0F0"/>
<path d="M12.5213 7.30432H11.0388L8.94247 8.86591V9.94563H12.5213V7.30432Z" fill="#FF9811"/>
<path d="M12.5214 12.6361H14.0038L16.1001 11.0744V9.94781H12.5214V12.6361Z" fill="#FF9811"/>
<path d="M11.0388 40.6955L8.94247 39.1338V36.9254L11.0388 35.3637H14.0037L16.1 36.9254V39.1338L14.0037 40.6955H11.0388Z" fill="#F0F0F0"/>
<path d="M12.5213 35.3637H11.0388L8.94247 36.9254V38.0051H12.5213V35.3637Z" fill="#FF9811"/>
<path d="M12.5214 40.6954H14.0038L16.1001 39.1338V38.0073H12.5214V40.6954Z" fill="#FF9811"/>
<path d="M11.0406 26.6658L8.94421 25.1041V22.8957L11.0406 21.334H14.0054L16.1017 22.8957V25.1041L14.0054 26.6658H11.0406Z" fill="#496E2D"/>
<path d="M16.1745 30.1017H15.2614V29.1887H13.6568L12.5223 28.0541L11.3878 29.1887H9.78327V30.1017H8.87024V31.9278H9.78327V32.8408H11.3877L12.5224 33.9755L13.6568 32.8408H15.2614V31.9278H16.1745V30.1017Z" fill="#496E2D"/>
<path d="M16.1745 16.0719H15.2614V15.1588H13.6568L12.5223 14.0242L11.3878 15.1588H9.78327V16.0719H8.87024V17.898H9.78327V18.811H11.3877L12.5224 19.9458L13.6568 18.811H15.2614V17.898H16.1745V16.0719Z" fill="#496E2D"/>
<path d="M13.5655 22.9564H11.4785V25.0433H13.5655V22.9564Z" fill="#D80027"/>
<path d="M12.522 18.028C13.0983 18.028 13.5654 17.5608 13.5654 16.9845C13.5654 16.4083 13.0983 15.9411 12.522 15.9411C11.9457 15.9411 11.4785 16.4083 11.4785 16.9845C11.4785 17.5608 11.9457 18.028 12.522 18.028Z" fill="#D80027"/>
<path d="M12.522 32.0586C13.0983 32.0586 13.5654 31.5914 13.5654 31.0151C13.5654 30.4388 13.0983 29.9717 12.522 29.9717C11.9457 29.9717 11.4785 30.4388 11.4785 31.0151C11.4785 31.5914 11.9457 32.0586 12.522 32.0586Z" fill="#D80027"/>
</g>
<defs>
<clipPath id="clip0">
<rect width="48" height="48" fill="white"/>
</clipPath>
</defs>
</svg>
