<svg width="48" height="48" viewBox="0 0 48 48" fill="none" xmlns="http://www.w3.org/2000/svg">
<path d="M24 48C37.2548 48 48 37.2548 48 24C48 10.7452 37.2548 0 24 0C10.7452 0 0 10.7452 0 24C0 37.2548 10.7452 48 24 48Z" fill="#D80027"/>
<path d="M24.0005 35.4784C30.3398 35.4784 35.4788 30.3393 35.4788 24.0001C35.4788 17.6608 30.3398 12.5218 24.0005 12.5218C17.6612 12.5218 12.5222 17.6608 12.5222 24.0001C12.5222 30.3393 17.6612 35.4784 24.0005 35.4784Z" fill="#F0F0F0"/>
<path d="M25.4141 19.6112L27.3832 22.3248L30.5723 21.2907L28.6001 24.002L30.569 26.7155L27.381 25.6775L25.4087 28.3887L25.4108 25.0361L22.2228 23.9981L25.412 22.9641L25.4141 19.6112Z" fill="#D80027"/>
<path d="M26.6087 30.7826C22.8628 30.7826 19.8261 27.7459 19.8261 24C19.8261 20.2541 22.8628 17.2173 26.6087 17.2173C27.7766 17.2173 28.8757 17.5127 29.8351 18.0326C28.3299 16.5606 26.2717 15.6521 24 15.6521C19.3898 15.6521 15.6522 19.3895 15.6522 23.9999C15.6522 28.6102 19.3898 32.3477 24 32.3477C26.2717 32.3477 28.33 31.4391 29.8351 29.9672C28.8757 30.4873 27.7766 30.7826 26.6087 30.7826Z" fill="#D80027"/>
</svg>
