<svg width="48" height="48" viewBox="0 0 48 48" fill="none" xmlns="http://www.w3.org/2000/svg">
<path d="M24 48C37.2548 48 48 37.2548 48 24C48 10.7452 37.2548 0 24 0C10.7452 0 0 10.7452 0 24C0 37.2548 10.7452 48 24 48Z" fill="#F0F0F0"/>
<path d="M15.6506 12.5218V9.39136H12.5201V12.5218H9.38971V15.6523H12.5201V18.7827H15.6506V15.6523H18.781V12.5218H15.6506Z" fill="#D80027"/>
<path d="M24 0V24C10.7452 24.0001 5.47734 24 0 24.0001C0 37.2547 10.7452 48 24 48C37.2547 48 48 37.2547 48 24C48 10.7452 37.2547 0 24 0Z" fill="#D80027"/>
</svg>
