<svg width="48" height="48" viewBox="0 0 48 48" fill="none" xmlns="http://www.w3.org/2000/svg">
<path d="M24 48C37.2548 48 48 37.2548 48 24C48 10.7452 37.2548 0 24 0C10.7452 0 0 10.7452 0 24C0 37.2548 10.7452 48 24 48Z" fill="#D80027"/>
<path d="M23.0186 19.6112L24.9879 22.3248L28.177 21.2907L26.2046 24.002L28.1736 26.7155L24.9856 25.6775L23.0134 28.3887L23.0155 25.0361L19.8274 23.9981L23.0166 22.9641L23.0186 19.6112Z" fill="#F0F0F0"/>
<path d="M17.6439 30.7826C13.898 30.7826 10.8613 27.7459 10.8613 24C10.8613 20.2541 13.898 17.2173 17.6439 17.2173C18.8118 17.2173 19.9108 17.5128 20.8702 18.0326C19.3651 16.5605 17.3066 15.6521 15.0352 15.6521C10.4248 15.6521 6.68744 19.3895 6.68744 23.9999C6.68744 28.6102 10.4249 32.3477 15.0352 32.3477C17.3068 32.3477 19.3652 31.4391 20.8702 29.9672C19.9108 30.4872 18.8118 30.7826 17.6439 30.7826Z" fill="#F0F0F0"/>
</svg>
