<svg width="48" height="48" viewBox="0 0 48 48" fill="none" xmlns="http://www.w3.org/2000/svg">
<path d="M48 24C48 37.2547 37.2547 48 24.0001 48C10.7453 48 0 37.2547 0 24C0 24.0057 24.0001 0.002625 24.0001 0C37.2547 0 48 10.7452 48 24Z" fill="#338AF3"/>
<path d="M11.4796 23.9999H19.5741L12.523 15.6522L11.4796 18.7826V23.9999Z" fill="#0052B4"/>
<path d="M24.0001 19.5729L15.6522 11.4782H24L24.0001 19.5729Z" fill="#0052B4"/>
<path d="M23.9345 24.0001H23.9987C23.9987 23.9785 23.9987 23.9575 23.9987 23.9359C23.9774 23.9573 23.956 23.9787 23.9345 24.0001Z" fill="#F0F0F0"/>
<path d="M24.0001 12.5217C24.0001 8.29875 24.0001 5.53163 24.0001 0H23.9961C10.743 0.00225 0 10.7465 0 24H12.5218V16.949L19.5728 24H23.936C23.9573 23.9786 23.9787 23.9573 24.0002 23.9358C24.0002 22.3189 24.0002 20.8762 24.0002 19.5729L16.9489 12.5217H24.0001Z" fill="#F0F0F0"/>
<path d="M12.1424 3.13043C8.38871 5.26784 5.26814 8.3884 3.13074 12.1421V24H9.39164V9.39153V9.39134H24.0003C24.0003 7.41668 24.0003 5.53549 24.0003 3.13043H12.1424Z" fill="#D80027"/>
<path d="M23.9997 21.0486L15.4727 12.5218H12.5214V12.522L23.9995 24H23.9997C23.9997 24 23.9997 21.9649 23.9997 21.0486Z" fill="#D80027"/>
<path d="M26.1943 39.6522L26.7124 41.2465H28.3887L27.0326 42.2318L27.5507 43.826L26.1943 42.8408L24.8382 43.826L25.3563 42.2318L24 41.2465H25.6763L26.1943 39.6522Z" fill="#FFDA44"/>
<path d="M39.5463 29.2173L40.0642 30.8116H41.7406L40.3845 31.797L40.9026 33.3912L39.5463 32.406L38.1902 33.3912L38.7082 31.797L37.3519 30.8116H39.0282L39.5463 29.2173Z" fill="#FFDA44"/>
<path d="M42.8909 13.5652L43.409 15.1595H45.0853L43.7292 16.1448L44.2472 17.739L42.8909 16.7538L41.5348 17.739L42.0529 16.1448L40.6966 15.1595H42.373L42.8909 13.5652Z" fill="#FFDA44"/>
<path d="M43.7189 25.0434L44.2369 26.6378H45.9132L44.5571 27.6231L45.0752 29.2173L43.7189 28.2321L42.3628 29.2173L42.8809 27.6231L41.5245 26.6378H43.2009L43.7189 25.0434Z" fill="#FFDA44"/>
<path d="M28.5968 35.9023L30.0907 36.6635L31.2759 35.4782L31.0138 37.1337L32.5074 37.8948L30.8515 38.1571L30.5893 39.8128L29.8284 38.3191L28.1726 38.5815L29.3579 37.3962L28.5968 35.9023Z" fill="#FFDA44"/>
<path d="M28.5968 29.6415L30.0907 30.4026L31.2759 29.2173L31.0138 30.8729L32.5074 31.6339L30.8515 31.8962L30.5893 33.5519L29.8284 32.0583L28.1726 32.3206L29.3579 31.1353L28.5968 29.6415Z" fill="#FFDA44"/>
<path d="M33.8138 33.6547L35.3077 34.4158L36.493 33.2305L36.2309 34.8861L37.7244 35.6471L36.0686 35.9094L35.8064 37.5652L35.0455 36.0713L33.3897 36.3338L34.575 35.1486L33.8138 33.6547Z" fill="#FFDA44"/>
<path d="M33.8138 20.2502L35.3077 21.0113L36.493 19.826L36.2309 21.4816L37.7244 22.2426L36.0686 22.5049L35.8064 24.1606L35.0455 22.667L33.3897 22.9293L34.575 21.744L33.8138 20.2502Z" fill="#FFDA44"/>
<path d="M38.8735 20.0896L40.3674 20.8506L41.5527 19.6653L41.2905 21.321L42.7841 22.0819L41.1283 22.3443L40.8661 24L40.1052 22.5063L38.4494 22.7687L39.6347 21.5834L38.8735 20.0896Z" fill="#FFDA44"/>
</svg>
