<svg width="48" height="48" viewBox="0 0 48 48" fill="none" xmlns="http://www.w3.org/2000/svg">
<path d="M48 24C48 37.2547 37.2547 48 24 48C10.7452 48 0 37.2547 0 24C8.24344 15.7566 15.2347 8.76525 24 0C37.2547 0 48 10.7452 48 24Z" fill="#D80027"/>
<path d="M24 24C24 10.7452 24 9.18262 24 0C10.7452 0 0 10.7452 0 24H24Z" fill="#0052B4"/>
<path d="M20.8704 14.0457L17.9393 15.4245L19.5 18.2632L16.3173 17.6542L15.9139 20.8695L13.6971 18.5048L11.4801 20.8695L11.0769 17.6542L7.89405 18.263L9.4548 15.4244L6.5238 14.0457L9.4549 12.6671L7.89405 9.82833L11.0768 10.4372L11.4802 7.22198L13.6971 9.58673L15.914 7.22198L16.3173 10.4372L19.5001 9.82833L17.9393 12.6672L20.8704 14.0457Z" fill="#F0F0F0"/>
<path d="M13.6964 18.5127C16.1637 18.5127 18.1638 16.5126 18.1638 14.0453C18.1638 11.578 16.1637 9.57782 13.6964 9.57782C11.229 9.57782 9.22888 11.578 9.22888 14.0453C9.22888 16.5126 11.229 18.5127 13.6964 18.5127Z" fill="#0052B4"/>
<path d="M13.6962 16.4263C12.3836 16.4263 11.3158 15.3584 11.3158 14.0458C11.3158 12.7332 12.3837 11.6653 13.6962 11.6653C15.0088 11.6653 16.0767 12.7332 16.0767 14.0458C16.0766 15.3584 15.0086 16.4263 13.6962 16.4263Z" fill="#F0F0F0"/>
</svg>
