<svg width="48" height="48" viewBox="0 0 48 48" fill="none" xmlns="http://www.w3.org/2000/svg">
<path d="M41.8868 39.9999C45.6878 35.7538 48 30.1473 48 24C48 17.8526 45.6877 12.2461 41.8867 7.99993L24 6.26086L6.11325 7.99993C2.31234 12.2461 0 17.8526 0 24C0 30.1473 2.31225 35.7538 6.11316 39.9999L24 41.7391L41.8868 39.9999Z" fill="#FFDA44"/>
<path d="M6.11414 7.99997H41.8877C37.4932 3.09056 31.1084 0 24.0009 0C16.8934 0 10.5086 3.09056 6.11414 7.99997Z" fill="black"/>
<path d="M0 24L24 26.087L48 24C48 21.1946 47.5171 18.5023 46.6324 15.9999H1.36762C0.482906 18.5023 0 21.1946 0 24Z" fill="#D80027"/>
<path d="M1.36762 32H46.6326C47.5171 29.4976 48 26.8054 48 24H0C0 26.8054 0.482906 29.4976 1.36762 32Z" fill="black"/>
<path d="M41.8868 39.9999H6.11316C10.5076 44.9094 16.8924 48 24 48C31.1076 48 37.4924 44.9094 41.8868 39.9999Z" fill="#D80027"/>
<path d="M32.0085 24C32.0085 28.4234 28.4232 32.0087 23.9998 32.0087C19.5764 32.0087 15.9911 28.4234 15.9911 24C15.9911 19.5766 19.5764 15.9913 23.9998 15.9913C28.4232 15.9913 32.0085 19.5766 32.0085 24Z" fill="#F0F0F0"/>
<path d="M26.934 24.4084L24.0001 23.137C24.0001 23.137 24.6865 20.8586 24.723 20.7027C24.7498 20.5888 24.764 20.47 24.764 20.348C24.764 19.9157 24.5888 19.5244 24.3055 19.2413L25.0433 18.5034C24.5713 18.0314 23.9191 17.7394 23.1987 17.7394C22.4783 17.7394 21.8261 18.0313 21.3541 18.5034L22.0919 19.2413C21.8086 19.5245 21.6334 19.9158 21.6334 20.348C21.6334 20.506 21.6573 20.6584 21.7009 20.8023L20.5901 21.913H22.6091C22.6091 21.913 21.7743 23.1668 21.3186 24.1965C20.8629 25.2261 21.3249 26.483 22.3781 26.9512L22.9871 27.2218L24.0001 28.1739V29.2174L22.9566 30.2608H25.0436V28.1738L25.9958 27.2216H27.9653C27.9748 27.202 27.9847 27.1829 27.9937 27.1628C28.4616 26.1098 27.9872 24.8764 26.934 24.4084Z" fill="black"/>
</svg>
