<svg width="48" height="48" viewBox="0 0 48 48" fill="none" xmlns="http://www.w3.org/2000/svg">
<path d="M24 48C37.2548 48 48 37.2548 48 24C48 10.7452 37.2548 0 24 0C10.7452 0 0 10.7452 0 24C0 37.2548 10.7452 48 24 48Z" fill="#F0F0F0"/>
<path d="M24 17.7391H47.1732C46.5714 15.5066 45.6568 13.4027 44.4774 11.4782H24V17.7391Z" fill="#338AF3"/>
<path d="M9.0636 42.7827H38.9429C41.1332 41.0382 43.0116 38.9193 44.4807 36.5218H3.52588C4.99504 38.9192 6.87341 41.0382 9.0636 42.7827Z" fill="#338AF3"/>
<path d="M24 0C24 2.08697 24 5.21737 24 5.21737H38.9397C34.84 1.95225 29.6483 0 24 0Z" fill="#338AF3"/>
<path d="M24 17.7391H47.1732C46.5714 15.5066 45.6568 13.4027 44.4774 11.4782H24V17.7391Z" fill="#338AF3"/>
<path d="M0 24C0 26.1663 0.28875 28.2646 0.826781 30.2609H47.1733C47.7113 28.2646 48 26.1663 48 24H0Z" fill="#338AF3"/>
<path d="M20.8704 14.0457L17.9392 15.4245L19.5 18.2632L16.3172 17.6544L15.9139 20.8695L13.6971 18.5048L11.4801 20.8695L11.0769 17.6544L7.89405 18.263L9.4548 15.4244L6.5238 14.0457L9.4549 12.6671L7.89405 9.82833L11.0768 10.4371L11.4802 7.22198L13.6971 9.58673L15.914 7.22198L16.3172 10.4371L19.5001 9.82833L17.9393 12.6672L20.8704 14.0457Z" fill="#FFDA44"/>
</svg>
