<svg width="48" height="48" viewBox="0 0 48 48" fill="none" xmlns="http://www.w3.org/2000/svg">
<g clip-path="url(#clip0)">
<path d="M1.13325 16.6958C0.398063 18.999 -9.37335e-05 21.4527 1.6552e-08 23.9998C-9.37335e-05 26.547 0.398156 29.0009 1.13334 31.3042L24 32.3478L46.8667 31.3043C47.6017 29.001 48.0001 26.547 48.0001 24C48 21.4528 47.6018 18.999 46.8667 16.6957L24 15.6522L1.13325 16.6958Z" fill="#F0F0F0"/>
<path d="M46.8657 16.6957L23.9991 15.6523L1.13233 16.6957C0.914454 17.3786 0.72686 18.0749 0.569641 18.7827H47.4281C47.2711 18.0748 47.0836 17.3784 46.8657 16.6957Z" fill="#D80027"/>
<path d="M0.569092 29.2173C0.726123 29.9251 0.913717 30.6213 1.13159 31.3042L1.13384 31.3043L23.9982 32.3477L46.8648 31.3043C47.0827 30.6214 47.2703 29.9251 47.4274 29.2173H0.569092Z" fill="#D80027"/>
<path d="M23.9991 47.9999C34.7069 47.9999 43.7753 40.9871 46.8658 31.3043H1.13257C4.22304 40.987 13.2917 47.9999 23.9991 47.9999Z" fill="#6DA544"/>
<path d="M23.9982 0.000976563C13.2907 0.00107031 4.22225 7.01385 1.13159 16.6966L46.8648 16.6967C43.7745 7.01376 34.706 0.000882813 23.9982 0.000976563Z" fill="#338AF3"/>
<path d="M10.9679 9.91315C10.9679 7.66531 12.5477 5.7875 14.6573 5.32681C14.3331 5.25593 13.9967 5.21759 13.6511 5.21759C11.0578 5.21759 8.95544 7.31984 8.95544 9.91324C8.95544 12.5066 11.0576 14.6089 13.6511 14.6089C13.9967 14.6089 14.333 14.5705 14.6573 14.4997C12.5478 14.0388 10.9679 12.161 10.9679 9.91315Z" fill="#F0F0F0"/>
<path d="M17.434 12.0476L17.7518 13.0259H18.7804L17.9483 13.6306L18.2661 14.6089L17.434 14.0043L16.6017 14.6089L16.9196 13.6306L16.0873 13.0259H17.116L17.434 12.0476Z" fill="#F0F0F0"/>
<path d="M20.7158 12.0476L21.0337 13.0259H22.0624L21.2301 13.6306L21.548 14.6089L20.7158 14.0043L19.8836 14.6089L20.2015 13.6306L19.3694 13.0259H20.3979L20.7158 12.0476Z" fill="#F0F0F0"/>
<path d="M23.9985 12.0476L24.3164 13.0259H25.3451L24.5129 13.6306L24.8307 14.6089L23.9985 14.0043L23.1662 14.6089L23.4842 13.6306L22.6519 13.0259H23.6806L23.9985 12.0476Z" fill="#F0F0F0"/>
<path d="M27.2831 12.0476L27.601 13.0259H28.6295L27.7974 13.6306L28.1153 14.6089L27.2831 14.0043L26.4508 14.6089L26.7688 13.6306L25.9365 13.0259H26.9651L27.2831 12.0476Z" fill="#F0F0F0"/>
<path d="M30.5649 12.0476L30.8828 13.0259H31.9115L31.0794 13.6306L31.3973 14.6089L30.5649 14.0043L29.7327 14.6089L30.0506 13.6306L29.2185 13.0259H30.247L30.5649 12.0476Z" fill="#F0F0F0"/>
<path d="M20.7158 8.63257L21.0337 9.61076H22.0624L21.2301 10.2155L21.548 11.1937L20.7158 10.5891L19.8836 11.1937L20.2015 10.2155L19.3694 9.61076H20.3979L20.7158 8.63257Z" fill="#F0F0F0"/>
<path d="M23.9985 8.63257L24.3164 9.61076H25.3451L24.5129 10.2155L24.8307 11.1937L23.9985 10.5891L23.1662 11.1937L23.4842 10.2155L22.6519 9.61076H23.6806L23.9985 8.63257Z" fill="#F0F0F0"/>
<path d="M27.2831 8.63257L27.601 9.61076H28.6295L27.7974 10.2155L28.1153 11.1937L27.2831 10.5891L26.4508 11.1937L26.7688 10.2155L25.9365 9.61076H26.9651L27.2831 8.63257Z" fill="#F0F0F0"/>
<path d="M30.5649 8.63257L30.8828 9.61076H31.9115L31.0794 10.2155L31.3973 11.1937L30.5649 10.5891L29.7327 11.1937L30.0506 10.2155L29.2185 9.61076H30.247L30.5649 8.63257Z" fill="#F0F0F0"/>
<path d="M23.9985 5.21741L24.3164 6.19578H25.3451L24.5129 6.80038L24.8307 7.77875L23.9985 7.17416L23.1662 7.77875L23.4842 6.80038L22.6519 6.19578H23.6806L23.9985 5.21741Z" fill="#F0F0F0"/>
<path d="M27.2831 5.21741L27.601 6.19578H28.6295L27.7974 6.80038L28.1153 7.77875L27.2831 7.17416L26.4508 7.77875L26.7688 6.80038L25.9365 6.19578H26.9651L27.2831 5.21741Z" fill="#F0F0F0"/>
<path d="M30.5649 5.21741L30.8828 6.19578H31.9115L31.0794 6.80038L31.3973 7.77875L30.5649 7.17416L29.7327 7.77875L30.0506 6.80038L29.2185 6.19578H30.247L30.5649 5.21741Z" fill="#F0F0F0"/>
</g>
<defs>
<clipPath id="clip0">
<rect width="48" height="48" fill="white"/>
</clipPath>
</defs>
</svg>
