<svg width="48" height="48" viewBox="0 0 48 48" fill="none" xmlns="http://www.w3.org/2000/svg">
<path d="M23.9997 0C37.2544 0 47.9997 10.7452 47.9997 24C47.9997 37.2547 37.2544 48 23.9997 48C23.9997 46.9566 20.8693 24 20.8693 24L23.9997 0Z" fill="#F0F0F0"/>
<path d="M24 48C10.7452 48 0 37.2547 0 24C0 10.7452 10.7452 0 24 0" fill="#FFDA44"/>
<path d="M33.1908 20.8842L37.7012 26.851C36.9905 27.9271 36.9943 29.3768 37.8162 30.464C38.8587 31.8432 40.8219 32.1162 42.2012 31.0736C43.5803 30.0311 43.8533 28.0679 42.8106 26.6887C41.9889 25.6015 40.595 25.2025 39.366 25.5927L32.3365 16.2933L30.6717 17.5518L28.1742 19.4394L30.6912 22.7689L33.1908 20.8842ZM39.6842 27.7439C40.1439 27.3962 40.7984 27.4874 41.1459 27.9469C41.4933 28.4067 41.4025 29.0612 40.9427 29.4088C40.4831 29.7561 39.8286 29.6654 39.4812 29.2055C39.1335 28.7458 39.2245 28.0913 39.6842 27.7439Z" fill="#ACABB1"/>
<path d="M40.9281 22.7689L43.4451 19.4393L40.9478 17.5516L39.283 16.2931L32.2535 25.5924C31.0246 25.2022 29.6307 25.6013 28.8089 26.6885C27.7662 28.0677 28.0392 30.0308 29.4183 31.0733C30.7976 32.1158 32.7607 31.8429 33.8032 30.4638C34.625 29.3766 34.6288 27.9268 33.9182 26.8507L38.4286 20.8839L40.9281 22.7689ZM32.1384 29.2055C31.791 29.6653 31.1366 29.7562 30.6768 29.4087C30.2171 29.0611 30.1261 28.4066 30.4737 27.9469C30.8211 27.4873 31.4756 27.3962 31.9354 27.7438C32.3951 28.0913 32.4859 28.7458 32.1384 29.2055Z" fill="#FFDA44"/>
</svg>
