<svg width="48" height="48" viewBox="0 0 48 48" fill="none" xmlns="http://www.w3.org/2000/svg">
<g clip-path="url(#clip0)">
<path d="M35.4777 2.91816C32.0679 1.05778 28.1572 0 23.9994 0C19.8416 0 15.9309 1.05778 12.5211 2.91816L10.4341 24L12.5211 45.0818C15.9309 46.9422 19.8416 48 23.9994 48C28.1572 48 32.0679 46.9422 35.4777 45.0818L37.5646 24L35.4777 2.91816Z" fill="#FFDA44"/>
<path d="M12.5217 45.0817V2.91809C5.06147 6.98872 0 14.903 0 24C0 33.0971 5.06147 41.0113 12.5217 45.0817Z" fill="#338AF3"/>
<path d="M48.0013 24C48.0013 14.903 42.9398 6.98872 35.4796 2.91809V45.0817C42.9398 41.0113 48.0013 33.0971 48.0013 24Z" fill="#6DA544"/>
<path d="M18.7833 30.2609L14.6093 24L18.7833 17.7391L22.9574 24L18.7833 30.2609Z" fill="#6DA544"/>
<path d="M29.2184 30.2609L25.0444 24L29.2184 17.7391L33.3923 24L29.2184 30.2609Z" fill="#6DA544"/>
<path d="M24.0013 38.6087L19.8274 32.3478L24.0013 26.087L28.1753 32.3478L24.0013 38.6087Z" fill="#6DA544"/>
</g>
<defs>
<clipPath id="clip0">
<rect width="48" height="48" fill="white"/>
</clipPath>
</defs>
</svg>
