<svg width="48" height="48" viewBox="0 0 48 48" fill="none" xmlns="http://www.w3.org/2000/svg">
<g clip-path="url(#clip0)">
<path d="M45.6186 34.4347C47.1443 31.2794 48 27.7397 48 23.9999C48 20.2601 47.1443 16.7204 45.6186 13.5652L24 11.4782L2.38144 13.5652C0.855656 16.7204 0 20.2601 0 23.9999C0 27.7397 0.855656 31.2794 2.38144 34.4347L24 36.5216L45.6186 34.4347Z" fill="#0052B4"/>
<path d="M23.9997 48C33.5146 48 41.7362 42.4627 45.6182 34.4348H2.3811C6.2631 42.4627 14.4846 48 23.9997 48Z" fill="#D80027"/>
<path d="M41.565 28.7111L40.2974 29.7016L40.8475 31.213L39.5137 30.3136L38.2461 31.304L38.6893 29.7576L37.3557 28.858L38.9634 28.8019L39.4071 27.2555L39.9574 28.7671L41.565 28.7111Z" fill="#F0F0F0"/>
<path d="M38.3195 23.0889L37.4672 24.4533L38.5014 25.6853L36.9404 25.2967L36.0878 26.6606L35.9754 25.0559L34.4146 24.6666L35.9063 24.0639L35.7942 22.459L36.8281 23.6916L38.3195 23.0889Z" fill="#F0F0F0"/>
<path d="M33.3458 18.9158L33.0114 20.4894L34.4046 21.2937L32.8047 21.4624L32.4702 23.0355L31.8159 21.5661L30.2158 21.734L31.4115 20.6576L30.7572 19.1881L32.1504 19.9923L33.3458 18.9158Z" fill="#F0F0F0"/>
<path d="M27.2458 16.6956L27.47 18.2887L29.0541 18.5679L27.6082 19.2735L27.8322 20.8665L26.7147 19.7092L25.2685 20.4144L26.024 18.9938L24.9064 17.8367L26.4907 18.116L27.2458 16.6956Z" fill="#F0F0F0"/>
<path d="M20.7542 16.6956L21.5095 18.116L23.0935 17.8366L21.9763 18.9941L22.7313 20.4146L21.2855 19.7092L20.1678 20.8662L20.392 19.2735L18.946 18.5683L20.5303 18.2887L20.7542 16.6956Z" fill="#F0F0F0"/>
<path d="M14.652 18.9158L15.8477 19.9923L17.2406 19.1881L16.5865 20.6581L17.7819 21.7344L16.182 21.5661L15.5275 23.0355L15.1934 21.4621L13.5935 21.2941L14.9866 20.4896L14.652 18.9158Z" fill="#F0F0F0"/>
<path d="M9.67933 23.0889L11.1712 23.6915L12.2049 22.4592L12.093 24.0643L13.5844 24.667L12.0236 25.056L11.9111 26.6605L11.059 25.2966L9.49792 25.6855L10.532 24.4532L9.67933 23.0889Z" fill="#F0F0F0"/>
<path d="M6.43372 28.7111L8.04172 28.7672L8.59165 27.2557L9.03556 28.8022L10.6431 28.8584L9.3094 29.758L9.75265 31.3043L8.48515 30.314L7.15137 31.2133L7.70159 29.7017L6.43372 28.7111Z" fill="#F0F0F0"/>
<path d="M45.6182 13.5653C41.7362 5.53734 33.5146 0 23.9997 0C14.4846 0 6.2631 5.53734 2.3811 13.5653H45.6182Z" fill="#FFDA44"/>
</g>
<defs>
<clipPath id="clip0">
<rect width="48" height="48" fill="white"/>
</clipPath>
</defs>
</svg>
