<svg width="48" height="48" viewBox="0 0 48 48" fill="none" xmlns="http://www.w3.org/2000/svg">
<path d="M48 24C48 37.2547 37.2547 48 24 48C10.7452 48 0 37.2547 0 24C0 24.0057 24 0.002625 24 0C37.2547 0 48 10.7452 48 24Z" fill="#0052B4"/>
<path d="M23.9358 24.0001H24.0001C24.0001 23.9785 24.0001 23.9575 24.0001 23.9359C23.9787 23.9573 23.9573 23.9787 23.9358 24.0001Z" fill="#F0F0F0"/>
<path d="M24 12.5217C24 8.29875 24 5.53172 24 0H23.996C10.7429 0.00225 0 10.7465 0 24H12.5217V16.949L19.5728 24H23.9359C23.9572 23.9786 23.9786 23.9573 24.0001 23.9358C24.0001 22.3189 24.0001 20.8762 24.0001 19.5729L16.9489 12.5217H24Z" fill="#F0F0F0"/>
<path d="M12.1419 3.13043C8.38828 5.26784 5.26762 8.3884 3.13031 12.1421V24H9.39122V9.39153V9.39134H23.9999C23.9999 7.41668 23.9999 5.53549 23.9999 3.13043H12.1419Z" fill="#D80027"/>
<path d="M34.4347 24L27.9478 30.4868C29.1636 32.8316 31.6112 34.4347 34.4347 34.4347C37.2581 34.4347 39.7058 32.8316 40.9215 30.4868L34.4347 24Z" fill="#FFDA44"/>
<path d="M24.0001 21.0486L15.473 12.5218H12.5218V12.522L23.9999 24H24.0001C24.0001 24 24.0001 21.9649 24.0001 21.0486Z" fill="#D80027"/>
<path d="M27.1303 12.5218V24V24.0001C27.1304 29.5912 34.4346 31.3044 34.4346 31.3044C34.4346 31.3044 41.7389 29.5912 41.739 24.0001V24V12.5218H27.1303Z" fill="#6DA544"/>
<path d="M36.0001 17.7391H32.8697V26.0868H36.0001V17.7391Z" fill="#F0F0F0"/>
<path d="M34.4348 19.3043C35.2993 19.3043 36.0001 18.6035 36.0001 17.7391C36.0001 16.8746 35.2993 16.1738 34.4348 16.1738C33.5704 16.1738 32.8696 16.8746 32.8696 17.7391C32.8696 18.6035 33.5704 19.3043 34.4348 19.3043Z" fill="#A2001D"/>
<path d="M31.3043 14.6086H29.2173V16.6956H31.3043V14.6086Z" fill="#FFDA44"/>
<path d="M31.3043 19.3043H29.2173V21.3912H31.3043V19.3043Z" fill="#FFDA44"/>
<path d="M31.3043 24H29.2173V26.087H31.3043V24Z" fill="#FFDA44"/>
<path d="M39.6522 14.6086H37.5652V16.6956H39.6522V14.6086Z" fill="#FFDA44"/>
<path d="M39.6522 19.3043H37.5652V21.3912H39.6522V19.3043Z" fill="#FFDA44"/>
<path d="M39.6522 24H37.5652V26.087H39.6522V24Z" fill="#FFDA44"/>
</svg>
