<svg width="48" height="48" viewBox="0 0 48 48" fill="none" xmlns="http://www.w3.org/2000/svg">
<path d="M24 48C37.2548 48 48 37.2548 48 24C48 10.7452 37.2548 0 24 0C10.7452 0 0 10.7452 0 24C0 37.2548 10.7452 48 24 48Z" fill="#FCFCFC"/>
<path d="M28.0769 16.7668C28.0769 14.5157 26.252 12.6907 24.0008 12.6907C21.7496 12.6907 19.9246 14.5157 19.9246 16.7668H10.9573C10.9573 18.9831 12.888 20.78 15.1044 20.78H14.9709C14.9709 22.9966 16.7675 24.7936 18.9842 24.7936C18.9842 26.756 20.3936 28.3867 22.2551 28.7353L22.2446 28.7587H25.757L25.7466 28.7353C27.6081 28.3865 29.0174 26.7559 29.0174 24.7936C31.2341 24.7936 33.0308 22.9966 33.0308 20.78H32.8971C35.1134 20.78 37.0442 18.9831 37.0442 16.7668H28.0769Z" fill="#FFDA44"/>
<path d="M22.2093 28.3428L19.682 34.0487C21.0155 34.5908 22.473 34.8921 24.0013 34.8921C25.5295 34.8921 26.987 34.5909 28.3204 34.0487L25.7932 28.3428H22.2093Z" fill="#FFDA44"/>
<path d="M18.783 18.7712V25.7923C18.783 29.7858 24.0003 31.0097 24.0003 31.0097C24.0003 31.0097 29.2177 29.7858 29.2177 25.7923V18.7712H18.783Z" fill="#F0F0F0"/>
<path d="M5.82024 24.1689L8.64202 32.0612L11.4345 24.1689H13.5656L9.4944 34.6037H7.78956L3.68921 24.1689H5.82024Z" fill="#338AF3"/>
<path d="M38.6085 34.6037V24.1689H40.6366V34.6037H38.6085Z" fill="#338AF3"/>
<path d="M20.8693 21.0385V29.5467C21.5865 30.0746 22.3583 30.4377 22.9562 30.6702V21.0385H20.8693Z" fill="#D80027"/>
<path d="M27.1296 21.0385V29.5467C26.4123 30.0746 25.6406 30.4377 25.0427 30.6702V21.0385H27.1296Z" fill="#D80027"/>
<path d="M29.2177 18.7711H18.783V22.082H29.2177V18.7711Z" fill="#0052B4"/>
</svg>
