<svg width="48" height="48" viewBox="0 0 48 48" fill="none" xmlns="http://www.w3.org/2000/svg">
<g clip-path="url(#clip0)">
<path d="M47.9995 24C47.9995 22.939 47.9298 21.8943 47.7963 20.8696H20.8688C15.9656 15.9667 7.02854 7.03017 7.02892 7.02942C-2.34362 16.402 -2.34362 31.5979 7.02892 40.9706L20.8691 27.1305H47.7963C47.9297 26.1057 47.9995 25.061 47.9995 24Z" fill="black"/>
<path d="M47.9934 24.5458C47.9923 24.5921 47.9913 24.6387 47.99 24.685C47.9911 24.6385 47.9922 24.5921 47.9934 24.5458Z" fill="#F0F0F0"/>
<path d="M47.9702 25.2017C47.968 25.2476 47.9648 25.2932 47.9624 25.339C47.9648 25.2933 47.9678 25.2476 47.9702 25.2017Z" fill="#F0F0F0"/>
<path d="M47.9387 25.7249C47.934 25.7923 47.9293 25.8597 47.9238 25.9269C47.9293 25.8597 47.9339 25.7923 47.9387 25.7249Z" fill="#F0F0F0"/>
<path d="M47.8579 21.3842C47.8667 21.4645 47.8755 21.5446 47.8835 21.6251C47.8755 21.5445 47.8666 21.4645 47.8579 21.3842Z" fill="#F0F0F0"/>
<path d="M47.9633 22.661C47.9658 22.7068 47.9689 22.7524 47.971 22.7983C47.9688 22.7524 47.9658 22.7067 47.9633 22.661Z" fill="#F0F0F0"/>
<path d="M47.9907 23.3151C47.992 23.3614 47.993 23.4079 47.9941 23.4542C47.9931 23.4077 47.9919 23.3614 47.9907 23.3151Z" fill="#F0F0F0"/>
<path d="M47.9238 22.0731C47.9293 22.1403 47.934 22.2077 47.9387 22.2751C47.9339 22.2077 47.9293 22.1403 47.9238 22.0731Z" fill="#F0F0F0"/>
<path d="M47.7963 20.8704C47.807 20.9527 47.8166 21.0353 47.8265 21.1177C46.402 9.22258 36.2784 0.000976562 23.9995 0.000976562C17.3719 0.000976562 11.3718 2.68738 7.02869 7.03071L20.8684 20.8705H47.7963V20.8704Z" fill="#D80027"/>
<path d="M47.7963 27.1304H20.8684L7.02869 40.9703C11.3718 45.3135 17.3719 48 23.9995 48C36.2784 48 46.4021 38.7784 47.8265 26.8831C47.8166 26.9655 47.8069 27.0482 47.7963 27.1304Z" fill="#6DA544"/>
<path d="M47.8825 26.3749C47.8746 26.4554 47.8657 26.5355 47.8569 26.6158C47.8657 26.5355 47.8747 26.4555 47.8825 26.3749Z" fill="#F0F0F0"/>
<path d="M47.9377 22.2751C47.9468 22.4034 47.9551 22.5321 47.9621 22.661C47.955 22.5321 47.9468 22.4034 47.9377 22.2751Z" fill="black"/>
<path d="M47.8276 21.1169C47.8384 21.2059 47.8486 21.295 47.8582 21.3843C47.8484 21.295 47.8382 21.2059 47.8276 21.1169Z" fill="black"/>
<path d="M47.8822 21.6251C47.8968 21.7741 47.91 21.9234 47.922 22.0733C47.9101 21.9234 47.8969 21.774 47.8822 21.6251Z" fill="black"/>
<path d="M47.9993 24.0001C47.9993 24.1826 47.9965 24.3644 47.9924 24.5458C47.9965 24.3643 47.9993 24.1825 47.9993 24.0001Z" fill="black"/>
<path d="M47.9614 25.339C47.9543 25.4679 47.946 25.5965 47.937 25.7249C47.946 25.5965 47.9542 25.4679 47.9614 25.339Z" fill="black"/>
<path d="M47.922 25.9269C47.91 26.0767 47.8968 26.2261 47.8822 26.375C47.8969 26.2261 47.9101 26.0767 47.922 25.9269Z" fill="black"/>
<path d="M47.8582 26.6158C47.8486 26.705 47.8384 26.7941 47.8276 26.8832C47.8382 26.7942 47.8484 26.705 47.8582 26.6158Z" fill="black"/>
<path d="M47.9924 23.4543C47.9965 23.6358 47.9993 23.8177 47.9993 24C47.9993 23.8177 47.9965 23.6358 47.9924 23.4543Z" fill="black"/>
<path d="M47.9695 22.7983C47.9779 22.97 47.9843 23.1424 47.9892 23.3151C47.9843 23.1423 47.978 22.97 47.9695 22.7983Z" fill="black"/>
<path d="M47.9899 24.685C47.985 24.8577 47.9787 25.0301 47.9702 25.2018C47.9788 25.03 47.9851 24.8577 47.9899 24.685Z" fill="black"/>
<path d="M47.9768 22.9479H19.9873L5.6101 8.57288C5.14538 9.063 4.64167 9.74737 4.33013 10.2348L18.0794 23.9913L4.3186 37.7523C4.59104 38.237 5.18457 38.9544 5.60129 39.4212L19.9876 25.0349H47.9801C47.9951 24.6888 47.9997 24.3411 47.9997 23.9914C47.9996 23.5229 47.9867 23.1774 47.9768 22.9479Z" fill="#FFDA44"/>
<path d="M5.83041 29.1163V27.106C7.83647 27.106 9.46838 25.4739 9.46838 23.468C9.46838 22.0487 8.31366 20.8941 6.89447 20.8941C5.92763 20.8941 5.14098 21.6807 5.14098 22.6477C5.14098 23.266 5.64395 23.7691 6.26232 23.7691C6.61182 23.7691 6.89616 23.4845 6.89616 23.135H8.90635C8.90635 24.5931 7.72022 25.7792 6.26241 25.7792C4.53563 25.7793 3.13098 24.3744 3.13098 22.6479C3.13098 20.5726 4.81942 18.8842 6.89457 18.8842C9.42225 18.8842 11.4787 20.9407 11.4787 23.4683C11.4787 26.5824 8.94488 29.1163 5.83041 29.1163Z" fill="#FFDA44"/>
</g>
<defs>
<clipPath id="clip0">
<rect width="48" height="48" fill="white"/>
</clipPath>
</defs>
</svg>
