<svg width="48" height="48" viewBox="0 0 48 48" fill="none" xmlns="http://www.w3.org/2000/svg">
<path d="M48 24C48 37.2547 37.2547 48 24 48C10.7452 48 0 37.2547 0 24C8.24344 15.7566 15.2347 8.76525 24 0C37.2547 0 48 10.7452 48 24Z" fill="#D80027"/>
<path d="M24 24C24 10.7452 24 9.18262 24 0C10.7452 0 0 10.7452 0 24H24Z" fill="#0052B4"/>
<path d="M19.2229 15.6522L19.6115 16.848H20.8687L19.8515 17.5868L20.2401 18.7826L19.2229 18.0436L18.2057 18.7826L18.5943 17.5868L17.5771 16.848H18.8343L19.2229 15.6522Z" fill="#F0F0F0"/>
<path d="M12.9079 6.26089L13.5554 8.25393H15.6509L13.9556 9.48533L14.6033 11.4783L12.9079 10.2465L11.2126 11.4783L11.8603 9.48533L10.165 8.25393H12.2603L12.9079 6.26089Z" fill="#F0F0F0"/>
<path d="M19.1687 8.34778L19.8162 10.3409H21.9116L20.2163 11.5723L20.8638 13.5652L19.1687 12.3335L17.4734 13.5652L18.121 11.5723L16.4257 10.3409H18.521L19.1687 8.34778Z" fill="#F0F0F0"/>
<path d="M14.2207 16.6956L14.8683 18.6886H16.9637L15.2684 19.9201L15.916 21.913L14.2207 20.6813L12.5254 21.913L13.1731 19.9201L11.4778 18.6886H13.5732L14.2207 16.6956Z" fill="#F0F0F0"/>
<path d="M8.73442 11.4782L9.38205 13.4712H11.4775L9.78208 14.7026L10.4297 16.6956L8.73442 15.4639L7.03923 16.6956L7.68676 14.7026L5.99158 13.4712H8.08689L8.73442 11.4782Z" fill="#F0F0F0"/>
</svg>
