<svg width="48" height="48" viewBox="0 0 48 48" fill="none" xmlns="http://www.w3.org/2000/svg">
<g clip-path="url(#clip0)">
<path d="M24 48C37.2548 48 48 37.2548 48 24C48 10.7452 37.2548 0 24 0C10.7452 0 0 10.7452 0 24C0 37.2548 10.7452 48 24 48Z" fill="#F0F0F0"/>
<path d="M7.02893 40.9706C-2.34363 31.598 -2.34363 16.402 7.02893 7.02939C7.02828 7.03042 20.8692 24 20.8692 24L7.02893 40.9706Z" fill="black"/>
<path d="M20.8699 24.0001L3.1834 12.0482C2.63505 13.0013 2.15149 13.9962 1.73599 15.0259L10.69 24.0002L1.73627 32.9748C2.1514 34.0038 2.63449 34.9981 3.18246 35.9506L20.8699 24.0001Z" fill="#FFDA44"/>
<path d="M47.7965 20.8696H20.8686L7.02885 7.02975C5.53748 8.52113 4.24176 10.2078 3.18276 12.0482L15.1114 24L3.18182 35.9503C4.24082 37.7912 5.5371 39.4784 7.02885 40.9702L20.8686 27.1304H47.7965C47.9299 26.1057 47.9997 25.061 47.9997 24C47.9997 22.939 47.9299 21.8943 47.7965 20.8696Z" fill="#6DA544"/>
<path d="M9.38733 43.0385C13.4344 46.1493 18.5004 48 23.9994 48C35.088 48 44.4186 40.4793 47.1726 30.2609H22.165L9.38733 43.0385Z" fill="#0052B4"/>
<path d="M47.1726 17.7391C44.4186 7.52072 35.088 0 23.9994 0C18.5004 0 13.4344 1.85072 9.38733 4.96153L22.1649 17.7391H47.1726Z" fill="#D80027"/>
</g>
<defs>
<clipPath id="clip0">
<rect width="48" height="48" fill="white"/>
</clipPath>
</defs>
</svg>
