<svg width="48" height="48" viewBox="0 0 48 48" fill="none" xmlns="http://www.w3.org/2000/svg">
<path d="M24 48C37.2548 48 48 37.2548 48 24C48 10.7452 37.2548 0 24 0C10.7452 0 0 10.7452 0 24C0 37.2548 10.7452 48 24 48Z" fill="#496E2D"/>
<path d="M33.3913 24H24V48C26.8054 48 29.4976 47.5171 32 46.6326L33.3913 24Z" fill="#D80027"/>
<path d="M39.9998 41.8868C44.9093 37.4924 47.9998 31.1075 47.9998 24H38.6085L39.9998 41.8868Z" fill="#FF9811"/>
<path d="M32.0009 24V46.6326C34.9818 45.5787 37.6925 43.9532 40.0009 41.8869V24H32.0009Z" fill="black"/>
<path d="M44.3477 15.6522H38.0868C38.0868 14.4996 37.1524 13.5652 35.9999 13.5652C34.8473 13.5652 33.9129 14.4996 33.9129 15.6522H27.652C27.652 16.8048 28.6559 17.7391 29.8084 17.7391H29.7389C29.7389 18.8918 30.6732 19.8261 31.8259 19.8261C31.8259 20.9787 32.7601 21.9131 33.9129 21.9131H38.0868C39.2394 21.9131 40.1738 20.9787 40.1738 19.8261C41.3264 19.8261 42.2608 18.8918 42.2608 17.7391H42.1913C43.3439 17.739 44.3477 16.8047 44.3477 15.6522Z" fill="#FF9811"/>
</svg>
