<svg width="48" height="48" viewBox="0 0 48 48" fill="none" xmlns="http://www.w3.org/2000/svg">
<g clip-path="url(#clip0)">
<path d="M24 48C37.2548 48 48 37.2548 48 24C48 10.7452 37.2548 0 24 0C10.7452 0 0 10.7452 0 24C0 37.2548 10.7452 48 24 48Z" fill="#F0F0F0"/>
<path d="M45.703 13.7441C44.4836 11.1684 42.8195 8.84497 40.8095 6.872L24.0001 5.21741L7.19074 6.8721C7.13711 6.92469 7.0848 6.9785 7.03174 7.03166L13.7442 13.7442L24.0001 14.0574L45.703 13.7441Z" fill="#FFDA44"/>
<path d="M7.03223 40.9687C7.12054 41.057 7.20866 41.1454 7.29829 41.2324L24.0009 42.7827L40.7033 41.2324C42.734 39.2637 44.4185 36.9401 45.655 34.3604L14.6095 33.3914C11.9383 36.0627 8.85726 39.1435 7.03223 40.9687Z" fill="#FFDA44"/>
<path d="M47.7626 20.6161L19.8274 19.826L24.0013 24C22.765 25.2363 20.9195 27.0818 19.8274 28.1739L47.748 27.4882C47.914 26.3493 48.0013 25.1849 48.0013 24C48.0013 22.8512 47.9188 21.7219 47.7626 20.6161Z" fill="black"/>
<path d="M24.0007 0C17.4543 0 11.5212 2.62219 7.19128 6.87206H40.81C36.4801 2.62219 30.547 0 24.0007 0Z" fill="#6DA544"/>
<path d="M20.6174 20.6161H47.7626C47.4202 18.1899 46.7155 15.8805 45.7042 13.744H13.7454L20.6174 20.6161Z" fill="#D80027"/>
<path d="M13.6412 34.3603H45.6557C46.6789 32.2255 47.3948 29.9158 47.7483 27.4883H20.5133C17.852 30.1496 15.5966 32.405 13.6412 34.3603Z" fill="#D80027"/>
<path d="M24.001 48C30.4936 48 36.383 45.4207 40.7034 41.2322H7.29858C11.619 45.4207 17.5083 48 24.001 48Z" fill="#6DA544"/>
<path d="M8.56971 5.61877C8.03618 6.06709 7.5214 6.53706 7.02893 7.02934L23.9996 24L7.02893 40.9706C7.52131 41.463 8.03618 41.9328 8.56971 42.3811L26.9509 24L8.56971 5.61877Z" fill="black"/>
<path d="M9.64922 17.7391L11.2031 22.5218H16.2323L12.1638 25.478L13.7178 30.2609L9.64922 27.3049L5.58057 30.2609L7.13475 25.478L3.06628 22.5218H8.09522L9.64922 17.7391Z" fill="#D80027"/>
<path d="M13.9245 24.3913L9.87473 22.9565C9.87473 22.9565 9.57548 20.1494 9.55738 20.0542C9.41994 19.3302 8.78366 18.7826 8.0196 18.7826C7.15523 18.7826 6.45435 19.4834 6.45435 20.3478C6.45435 20.4912 6.47526 20.6293 6.51135 20.7613L5.37585 21.9044C5.37585 21.9044 6.72454 21.9044 7.39485 21.9044C7.39485 24 5.8311 24 5.8311 26.0869L6.69857 28.1739H11.9159L12.7856 26.0869H12.7852C12.8723 25.8867 12.9252 25.6801 12.947 25.4738C13.6966 25.1706 13.9245 24.3913 13.9245 24.3913Z" fill="#FFDA44"/>
</g>
<defs>
<clipPath id="clip0">
<rect width="48" height="48" fill="white"/>
</clipPath>
</defs>
</svg>
